<?xml version="1.0" encoding="utf-8"?>
<!-- Generator: Adobe Illustrator 16.0.0, SVG Export Plug-In . SVG Version: 6.00 Build 0)  -->
<!DOCTYPE svg PUBLIC "-//W3C//DTD SVG 1.1//EN" "http://www.w3.org/Graphics/SVG/1.1/DTD/svg11.dtd">
<svg version="1.1" id="图层_1" xmlns="http://www.w3.org/2000/svg" xmlns:xlink="http://www.w3.org/1999/xlink" x="0px" y="0px"
	 width="800px" height="800px" viewBox="0 0 800 800" enable-background="new 0 0 800 800" xml:space="preserve">
<g id="Layer_1">
</g>
<g>
	<path fill="#C2C937" d="M365.166,139.404c35.071,10.481,68.248,2.396,81.261-32.735c13.804-35.908,25.859-61.402,49.981-76.941
		c-53.677-2.062-102.979,6.451-133.801,49.216c-15.031,21.392-13.126,39.958-3.48,55.48c25.433-41.277,63.667-70.986,106.299-90.926
		C416.503,70.538,387.456,101.266,365.166,139.404z"/>
	<path fill="#C2C937" d="M285.343,139.957c-23.419,18.781-52.544,17.298-68.789-12.881c-11.8-22.821-23.649-43.228-47.128-57.472
		c36.249-8.813,69.193-6.442,97.131,15.153c0,0,29.544,18.403,21.97,49.632c-23.217-27.109-54.278-45.555-87.79-57.605
		C239.515,93.791,265.174,113.716,285.343,139.957z"/>
	
		<linearGradient id="SVGID_1_" gradientUnits="userSpaceOnUse" x1="594.72" y1="-330.0852" x2="594.72" y2="306.7156" gradientTransform="matrix(0.9998 0.0222 0.0222 -0.9998 -247.9618 413.817)">
		<stop  offset="0" style="stop-color:#15422D"/>
		<stop  offset="1" style="stop-color:#B2C636"/>
	</linearGradient>
	<path fill="url(#SVGID_1_)" d="M380.514,755c13.229-81.029-20.676-147.053-81.043-231.4c-7.464-9.831-14.14-21.257-20.051-31.855
		c-34.769-24.976-81.381-34.125-149.425-9.938c17.2-14.907,38.126-24.886,59.719-30.017c-28.698-21.609-43.34-54.975-44.229-85.592
		c4.4,46.001,33.06,70.038,62.722,82.007c17.681-1.207,36.057,0.843,54.327,7.704c-13.821-35.761-21.475-72.986-26.04-110.934
		c-16.898-35.83-52.997-70.499-111.491-62.2c35.468-8.027,78.231,1.825,109.719,37.188c-2.203-41.118,0.146-79.716,7-113.377
		c-13.841,109.994,11.997,194.354,52.228,251.649c-6.398-24.294-10.211-61.417-11.489-73.537
		c-5.087-50.049,5.215-101.354,23.081-147.634c9.207-36.026,8.621-81.137-31.377-112.667c23.443,15.845,42.053,43.655,45.909,78.376
		c16.048-32.644,35.853-61.975,55.52-84.87c-75.791,100.499-81.257,213.114-65.869,283.531
		c7.015,31.582,27.449,81.173,51.052,126.015c70.69,68.495,102.77,148.148,98.782,227.794L380.514,755L380.514,755z
		 M435.271,271.498c2.828,11.336,9.184,37.258,9.184,37.258l-3.05-0.879l7.299,17.08c-8.355-39.649-8.671-97.642,44.91-126.994
		C467.263,210.237,443.699,235.452,435.271,271.498L435.271,271.498z M435.553,366.53l-4.384,61.903
		c16.547-56.789,56.933-151.681,143.673-152.876C527.354,272.034,470.444,313.387,435.553,366.53L435.553,366.53z M502.943,445.4
		c28.639-11.404,53.703-34.979,55.938-67.941c-9.577,52.923-56.353,51.831-86.387,56.766c-38.493,5.547-51.783,17.322-78.615,52.123
		l-3.778,69.968c16.422-51.145,31.886-92.663,88.146-103.429l0.755,0.019c31.452,0.734,66.518,12.014,86.352,53.545
		C555.162,480.46,533.411,456.591,502.943,445.4L502.943,445.4z M415.838,428.076c7.569-67.472-21.926-124.531-62.677-156.883
		c58.526,62.563,49.715,152.552,25.496,209.167L415.838,428.076z"/>
	
		<linearGradient id="SVGID_2_" gradientUnits="userSpaceOnUse" x1="652.7805" y1="-318.9485" x2="652.7804" y2="336.2359" gradientTransform="matrix(0.9998 0.0222 0.0222 -0.9998 -247.9618 413.817)">
		<stop  offset="0" style="stop-color:#15422D"/>
		<stop  offset="1" style="stop-color:#B2C636"/>
	</linearGradient>
	<path fill="url(#SVGID_2_)" d="M361.269,576.594c-8.69-60.604,6.171-73.953,40.667-144.817
		c28.851-58.109,60.311-129.852,6.216-220.507c49.94,69.614,52.01,152.607,22.166,221.169
		c-35.488,81.309-39.91,109.402-11.558,183.333L361.269,576.594z"/>
	<path fill="#C2C937" d="M237.543,222.591c-11.379-5.905-15.765-16.47-10.953-26.024c5.664-13.56,5.971-28.048,2.44-42.625
		c14.332,11.61,30.143,25.671,31.989,47.456c1.229,14.523-4.321,22.451-19.64,21.283c1.884-16.058,1.54-36.2-4.961-55.68
		C242.869,188.895,241.739,205.778,237.543,222.591z"/>
	<path fill="#C2C937" d="M147.226,284.103c-2.248,33.768-23.451,56.627-58.604,49.371c-25.979-5.445-50.436-10.039-77.496-0.208
		c18.419-36.611,44.321-63.385,79.802-72.219c0,0,34.774-11.268,54.138,16.562c-37.62,0.734-73.972,14.381-105.851,33.773
		C78.792,290.557,112.711,283.297,147.226,284.103z"/>
	<path fill="#C2C937" d="M149.02,380.776c11.591-3.751,14.857-13.337,12-23.068c-3.552-13.769-2.514-26.633,2.383-40.21
		c-14.774,9.318-31.125,20.207-35.389,40.249c-2.585,13.626,3.376,21.814,18.701,22.978c-4.997-17.837-0.77-36.255,8.011-52.151
		C145.861,348.493,144.749,364.576,149.02,380.776z"/>
	<path fill="#C2C937" d="M142.311,479.674c9.417,26.799-0.972,45.882-21.902,55.865c-27.902,13.023-49.082,35.094-64.284,64.531
		c-6.78-42.043-12.707-88.879,15.725-126.869c18.964-25.33,41.974-24.795,66.003-0.076c-37.208,17.654-61.755,53.323-74.878,93.276
		C81.599,520.13,107.482,494.157,142.311,479.674z"/>
	<path fill="#C2C937" d="M359.882,280.21c-8.587,6.238-17.763,5.215-22.908-5.372c-3.688-7.333-7.371-14.661-14.938-19.675
		c12.344-2.931,23.045-1.074,32.1,6.384c0,0,10.615,5.889,7.327,16.278c-7.498-8.226-18.083-15.72-28.732-19.997
		C344.86,264.556,353.161,271.193,359.882,280.21z"/>
	<path fill="#C2C937" d="M413.278,222.669c-11.662,6.963-22.312,2.693-28.244-7.104c-8.145-13.881-20.204-23.825-35.432-29.821
		c19.326-6.798,41.703-12.713,61.39-0.175c13.651,7.566,15.69,20.501,4.639,34.738c-11.107-18.777-29.314-28.875-49.943-33.379
		C389.335,193.918,403.666,205.534,413.278,222.669z"/>
	<path fill="#C2C937" d="M479.541,209.72c16.444,20.513,40.183,23.478,57.52,2.146c13.398-16.603,26.758-31.597,47.625-38.35
		c-27.338-13.521-54.877-17.389-81.242-5.115c0,0-26.295,9.847-26.089,36.432c24.161-17.954,52.012-27.775,81.229-31.124
		C523.914,180.147,499.871,192.475,479.541,209.72z"/>
	<path fill="#C2C937" d="M543.232,282.871c8.458,34.827,35.685,53.984,70.558,37.882c24.809-11.499,49.568-21.383,79.412-17.473
		c-26.142-33.622-57.918-55.297-97.016-57.021c0,0-38.308-3.305-52.03,29.393c38.518-7.162,79.065-1.379,116.392,11.575
		C614.762,274.876,578.699,274.844,543.232,282.871z"/>
	<path fill="#C2C937" d="M557.26,381.448c-6.866-2.575-9.8-8.285-8.902-14.702c2.48-8.803,1.146-17.693-2.521-25.831
		c9.86,5.058,20.47,11.756,24.039,24.714c2.111,8.105-1.061,13.674-11.063,15.044c2.528-11.208-1.059-22.569-6.997-32.37
		C558.476,360.537,559.795,370.23,557.26,381.448z"/>
	<path fill="#C2C937" d="M550.406,487.585c-18.205,26.152-22.679,55.841,0.636,78.128c22.556,22.268,38.309,39.558,43.146,64.626
		c17.81-43.88,25.65-87.978,2.677-126.367c-11.864-19.604-26.373-23.154-41.018-19.478c23.84,33.563,35.233,74.903,36.67,116.006
		C587.422,551.268,572.784,517.897,550.406,487.585z"/>
</g>
<linearGradient id="SVGID_3_" gradientUnits="userSpaceOnUse" x1="913.1184" y1="55.1521" x2="969.0198" y2="55.1521" gradientTransform="matrix(-1 0.0026 0.0026 1 1508.3346 386.1837)">
	<stop  offset="0" style="stop-color:#15422D"/>
	<stop  offset="1" style="stop-color:#B2C636"/>
</linearGradient>
<path fill="url(#SVGID_3_)" d="M539.457,443.857c-0.022-10.229,12.471-18.559,27.904-18.6c15.438-0.041,27.973,8.22,27.997,18.45
	c0.023,10.229-12.47,18.56-27.905,18.6C552.019,462.351,539.483,454.089,539.457,443.857z"/>
<linearGradient id="SVGID_4_" gradientUnits="userSpaceOnUse" x1="1052.4026" y1="89.1394" x2="1162.5657" y2="89.1394" gradientTransform="matrix(-0.4791 0.8778 0.8778 0.4791 887.5336 -395.5579)">
	<stop  offset="0" style="stop-color:#15422D"/>
	<stop  offset="1" style="stop-color:#B2C636"/>
</linearGradient>
<path fill="url(#SVGID_4_)" d="M409.764,668.172c-16.245-9.305-18.034-38.729-3.995-65.72
	c14.039-26.991,38.592-41.332,54.838-32.027c16.242,9.306,18.031,38.731,3.992,65.722
	C450.563,663.139,426.007,677.477,409.764,668.172z"/>
<linearGradient id="SVGID_5_" gradientUnits="userSpaceOnUse" x1="915.2727" y1="-57.9719" x2="983.4534" y2="-57.9719" gradientTransform="matrix(0.6355 0.7721 0.7721 -0.6355 -200.9276 -157.0438)">
	<stop  offset="0" style="stop-color:#15422D"/>
	<stop  offset="1" style="stop-color:#B2C636"/>
</linearGradient>
<path fill="url(#SVGID_5_)" d="M378.675,639.628c-8.92,7.702-25.568,1.935-37.188-12.882c-11.624-14.815-13.814-33.069-4.896-40.774
	c8.917-7.699,25.566-1.934,37.187,12.885C385.399,613.673,387.589,631.926,378.675,639.628z"/>
<linearGradient id="SVGID_6_" gradientUnits="userSpaceOnUse" x1="1168.2434" y1="39.2029" x2="1221.6829" y2="39.2029" gradientTransform="matrix(-0.5277 0.8494 0.8494 0.5277 983.1368 -327.7359)">
	<stop  offset="0" style="stop-color:#15422D"/>
	<stop  offset="1" style="stop-color:#B2C636"/>
</linearGradient>
<path fill="url(#SVGID_6_)" d="M372.24,730.947c-7.645-4.982-7.744-19.317-0.226-32.015c7.519-12.701,19.809-18.957,27.452-13.977
	c7.645,4.984,7.743,19.32,0.227,32.018C392.176,729.674,379.882,735.928,372.24,730.947z"/>
<linearGradient id="SVGID_7_" gradientUnits="userSpaceOnUse" x1="1131.9417" y1="104.6658" x2="1231.6721" y2="104.6658" gradientTransform="matrix(-0.487 0.7839 0.8038 0.4994 947.379 -257.4749)">
	<stop  offset="0" style="stop-color:#15422D"/>
	<stop  offset="1" style="stop-color:#B2C636"/>
</linearGradient>
<path fill="url(#SVGID_7_)" d="M432.523,760.819c-13.503-8.8-13.946-33.669-0.998-55.535c12.952-21.876,34.392-32.472,47.889-23.676
	c13.499,8.806,13.943,33.669,0.997,55.539C467.463,759.021,446.021,769.614,432.523,760.819z"/>
<linearGradient id="SVGID_8_" gradientUnits="userSpaceOnUse" x1="386.2747" y1="-46.1858" x2="426.0862" y2="-46.1858" gradientTransform="matrix(0.9765 0.2156 0.2156 -0.9765 -243.6837 306.5703)">
	<stop  offset="0" style="stop-color:#15422D"/>
	<stop  offset="1" style="stop-color:#B2C636"/>
</linearGradient>
<path fill="url(#SVGID_8_)" d="M162.387,443.736c-1.494,7.1-11.387,10.841-22.098,8.359c-10.708-2.48-18.182-10.248-16.688-17.346
	c1.494-7.099,11.387-10.841,22.097-8.357C156.407,428.871,163.88,436.637,162.387,443.736z"/>
<linearGradient id="SVGID_9_" gradientUnits="userSpaceOnUse" x1="471.5598" y1="39.0251" x2="512.5793" y2="39.0251" gradientTransform="matrix(0.5816 0.8135 0.8135 -0.5816 -106.6308 -106.6158)">
	<stop  offset="0" style="stop-color:#15422D"/>
	<stop  offset="1" style="stop-color:#B2C636"/>
</linearGradient>
<path fill="url(#SVGID_9_)" d="M222.854,287.938c-5.636,4.227-15.375,0.064-21.753-9.298c-6.38-9.361-6.981-20.382-1.348-24.607
	c5.636-4.228,15.375-0.063,21.753,9.299C227.886,272.692,228.487,283.711,222.854,287.938z"/>
<linearGradient id="SVGID_10_" gradientUnits="userSpaceOnUse" x1="599.9885" y1="125.5603" x2="635.6145" y2="125.5603" gradientTransform="matrix(0.0324 0.9995 0.9995 -0.0324 178.973 -461.7444)">
	<stop  offset="0" style="stop-color:#15422D"/>
	<stop  offset="1" style="stop-color:#B2C636"/>
</linearGradient>
<path fill="url(#SVGID_10_)" d="M325.037,169.485c-5.919,0.202-10.961-7.607-11.266-17.44c-0.304-9.832,4.249-17.967,10.165-18.169
	c5.92-0.2,10.962,7.609,11.267,17.44C335.508,161.149,330.954,169.284,325.037,169.485z"/>
<linearGradient id="SVGID_11_" gradientUnits="userSpaceOnUse" x1="775.0872" y1="149.3279" x2="800.092" y2="149.3279" gradientTransform="matrix(-0.1043 0.9945 0.9945 0.1043 370.646 -566.5491)">
	<stop  offset="0" style="stop-color:#15422D"/>
	<stop  offset="1" style="stop-color:#B2C636"/>
</linearGradient>
<path fill="url(#SVGID_11_)" d="M435.764,244.723c-4.134-0.454-6.932-6.393-6.244-13.263c0.688-6.871,4.596-12.07,8.73-11.617
	c4.134,0.455,6.931,6.394,6.243,13.264C443.809,239.978,439.899,245.178,435.764,244.723z"/>
<linearGradient id="SVGID_12_" gradientUnits="userSpaceOnUse" x1="927.011" y1="127.0305" x2="955.468" y2="127.0305" gradientTransform="matrix(-0.3878 0.9217 0.9217 0.3878 711.9663 -609.6287)">
	<stop  offset="0" style="stop-color:#15422D"/>
	<stop  offset="1" style="stop-color:#B2C636"/>
</linearGradient>
<path fill="url(#SVGID_12_)" d="M458.742,320.38c-4.392-1.938-5.578-9.422-2.652-16.717c2.923-7.295,8.854-11.635,13.239-9.698
	c4.395,1.938,5.581,9.423,2.656,16.717S463.13,322.318,458.742,320.38z"/>
<linearGradient id="SVGID_13_" gradientUnits="userSpaceOnUse" x1="1062.8889" y1="-31.9915" x2="1089.0442" y2="-31.9915" gradientTransform="matrix(-0.5277 0.8494 0.8494 0.5277 983.1368 -327.7359)">
	<stop  offset="0" style="stop-color:#15422D"/>
	<stop  offset="1" style="stop-color:#B2C636"/>
</linearGradient>
<path opacity="0.55" fill="url(#SVGID_13_)" enable-background="new    " d="M381.514,580.563c-3.743-2.441-3.79-9.456-0.111-15.673
	c3.683-6.215,9.697-9.278,13.437-6.838c3.74,2.439,3.792,9.455,0.11,15.67C391.269,579.938,385.254,582.997,381.514,580.563z"/>
<linearGradient id="SVGID_14_" gradientUnits="userSpaceOnUse" x1="941.9133" y1="-160.8567" x2="960.9475" y2="-160.8567" gradientTransform="matrix(0.5617 0.8273 0.8273 -0.5617 -50.3093 -326.0189)">
	<stop  offset="0" style="stop-color:#15422D"/>
	<stop  offset="1" style="stop-color:#B2C636"/>
</linearGradient>
<path opacity="0.37" fill="url(#SVGID_14_)" enable-background="new    " d="M356.203,559.444c-2.656,1.897-7.125-0.147-9.98-4.562
	c-2.857-4.416-3.02-9.53-0.36-11.422c2.656-1.896,7.125,0.149,9.98,4.565C358.699,552.442,358.859,557.555,356.203,559.444z"/>
<linearGradient id="SVGID_15_" gradientUnits="userSpaceOnUse" x1="984.2366" y1="-163.2732" x2="994.4045" y2="-163.2732" gradientTransform="matrix(0.1385 0.9904 0.9904 -0.1385 345.0349 -478.923)">
	<stop  offset="0" style="stop-color:#15422D"/>
	<stop  offset="1" style="stop-color:#B2C636"/>
</linearGradient>
<path opacity="0.2" fill="url(#SVGID_15_)" enable-background="new    " d="M321.022,528.552c-1.676,0.248-3.333-1.812-3.705-4.594
	c-0.371-2.783,0.687-5.239,2.362-5.485c1.674-0.243,3.333,1.813,3.704,4.596C323.755,525.853,322.696,528.306,321.022,528.552z"/>
<path opacity="0.41" fill="#C2C937" enable-background="new    " d="M636.369,482.173c-1.507,17.587,4.349,32.777,21.206,36.322
	c16.499,3.759,28.488,7.194,37.459,17.483c-3.421-25.754-11.56-48.67-32.566-59.841c-10.791-5.662-18.521-3.047-24.38,2.987
	c20.12,8.657,36.511,24.617,48.181,43.401C670.711,501.023,654.939,489.742,636.369,482.173z"/>
<path opacity="0.41" fill="#C2C937" enable-background="new    " d="M555.332,88.453c12.761,6.227,25.809,5.695,33.24-7.221
	c7.49-12.56,13.462-21.484,23.719-25.978c-20.278-4.47-39.766-4.24-54.093,9.942c-7.302,7.307-7.528,14.428-4.664,20.976
	c12.19-14.161,28.8-23.173,46.189-27.489C579.192,65.438,566.27,75.265,555.332,88.453z"/>
<path opacity="0.6" fill="#C2C937" enable-background="new    " d="M493.258,658.925c3.681,11.399,11.319,19.179,22.763,16.513
	c11.276-2.429,19.654-3.753,27.951,0.067c-8.898-15.069-19.991-27.005-36.026-27.896c-8.216-0.408-12.349,3.459-14.419,8.918
	c14.822-0.423,29.233,4.788,41.444,13.124C519.621,660.744,506.823,658.272,493.258,658.925z"/>
<path opacity="0.32" fill="#C2C937" enable-background="new    " d="M655.777,657.365c8.29,8.318,18.491,11.504,27.462,3.584
	c8.924-7.629,15.767-12.87,24.808-13.512c-14.533-9.038-29.631-14.234-44.237-7.234c-7.465,3.627-9.422,9.063-8.85,14.906
	c12.952-7.571,28.025-9.951,42.525-8.489C679.95,646.175,667.517,650.2,655.777,657.365z"/>
<path opacity="0.66" fill="#C2C937" enable-background="new    " d="M680.426,207.476c3.513,12.14,11.313,20.602,23.452,18.194
	c11.956-2.164,20.823-3.265,29.439,1.053c-8.893-16.187-20.198-29.15-37.061-30.648c-8.643-0.721-13.118,3.209-15.472,8.886
	c15.626,0.075,30.642,6.071,43.238,15.282C708.141,210.318,694.739,207.266,680.426,207.476z"/>
<path opacity="0.3" fill="#C2C937" enable-background="new    " d="M684.625,397.61c17.664,16.889,39.068,22.986,57.363,6.015
	c18.219-16.359,32.217-27.641,51.011-29.455c-30.697-18.052-62.391-28.068-92.471-12.721c-15.371,7.949-19.188,19.369-17.712,31.507
	c26.609-16.453,57.886-22.203,88.156-19.93C734.434,373.03,708.732,382.066,684.625,397.61z"/>
<path opacity="0.31" fill="#C2C937" enable-background="new    " d="M178.617,157.314c3.451,19.218-5.212,35.248-25.871,36.589
	c-15.277,0.944-29.586,2.132-43.341,11.778c5.191-23.289,15.938-42.229,34.533-52.612c0,0,17.865-11.635,32.567,0.946
	c-20.924,6.185-39.339,19.392-54.451,35.125C141.27,171.426,159.215,162.161,178.617,157.314z"/>
<path opacity="0.31" fill="#C2C937" enable-background="new    " d="M218.453,542.1c8.771,11.996,8.126,26.229-5.682,34.72
	c-10.228,6.247-19.705,12.307-25.985,23.999c-4.164-17.969-3.049-34.972,6.33-48.946c0,0,8.455-14.57,22.784-11.273
	c-12.38,11.93-20.692,27.784-25.889,44.176C197.378,565.516,206.679,552.551,218.453,542.1z"/>
<path opacity="0.53" fill="#C2C937" enable-background="new    " d="M276.228,619.236c0.126,10.047-5.61,17.356-16.18,16.116
	c-7.814-0.94-15.155-1.668-22.931,1.938c4.592-11.309,11.628-19.896,21.917-23.425c0,0,10.022-4.229,16.403,3.505
	c-11.111,1.188-21.547,6.161-30.522,12.722C256.135,622.91,265.999,619.888,276.228,619.236z"/>
</svg>
