<?xml version="1.0" encoding="utf-8"?>
<!-- Generator: Adobe Illustrator 23.1.0, SVG Export Plug-In . SVG Version: 6.00 Build 0)  -->
<svg version="1.1" id="图层_1" xmlns="http://www.w3.org/2000/svg" xmlns:xlink="http://www.w3.org/1999/xlink" x="0px" y="0px"
	 viewBox="0 0 400 350" style="enable-background:new 0 0 400 350;" xml:space="preserve">
<style type="text/css">
	.st0{fill:#d7e3bc;}
</style>
<path class="st0" d="M400,175c0-54.3-43.2-98.4-97.1-100C291.8,31.9,252.6,0,206,0c-46.7,0-86,32.1-97,75.4c-3-0.3-6-0.4-9-0.4
	C44.8,75,0,119.8,0,175s44.8,100,100,100c3.1,0,6.1-0.1,9-0.4c11,43.3,50.2,75.4,97,75.4c46.6,0,85.8-31.9,96.9-75
	C356.8,273.4,400,229.3,400,175z"/>
</svg>
