<svg version="1.1" x="0" y="0" width="100%" height="100%" viewBox="0 0 239718.4 58368" xmlns="http://www.w3.org/2000/svg">
  <path d="M 8744 8574.4 L 8744 15198.4 L 9068 15198.4 Q 10616 15198.4 11312 14226.4 Q 12008 13254.4 12200 11358.4 L 12656 11358.4 L 12656 19878.4 L 12200 19878.4 Q 12056 18486.4 11594 17598.4 Q 11132 16710.4 10520 16404.4 Q 9908 16098.4 8744 16098.4 L 8744 20682.4 Q 8744 22026.4 8858 22326.4 Q 8972 22626.4 9284 22818.4 Q 9596 23010.4 10292 23010.4 L 11264 23010.4 Q 13544 23010.4 14918 21954.4 Q 16292 20898.4 16892 18738.4 L 17336 18738.4 L 16604 23910.4 L 2540 23910.4 L 2540 23466.4 L 3080 23466.4 Q 3788 23466.4 4220 23214.4 Q 4532 23046.4 4700 22638.4 Q 4832 22350.4 4832 21126.4 L 4832 10422.4 Q 4832 9318.4 4772 9066.4 Q 4652 8646.4 4328 8418.4 Q 3872 8082.4 3080 8082.4 L 2540 8082.4 L 2540 7638.4 L 16160 7638.4 L 16160 12450.4 L 15704 12450.4 Q 15356 10686.4 14726 9918.4 Q 14096 9150.4 12944 8790.4 Q 12272 8574.4 10424 8574.4 L 8744 8574.4 Z M 25896 17034.4 L 27840 20730.4 Q 28848 22662.4 29436 23178.4 Q 29760 23454.4 30324 23478.4 L 30324 23910.4 L 24072 23910.4 L 24072 23478.4 Q 24804 23418.4 24978 23286.4 Q 25152 23154.4 25152 22926.4 Q 25152 22590.4 24768 21870.4 L 23796 20046.4 L 22968 21258.4 Q 22404 22086.4 22332 22242.4 Q 22236 22470.4 22236 22650.4 Q 22236 22926.4 22350 23112.4 Q 22464 23298.4 22662 23388.4 Q 22860 23478.4 23388 23478.4 L 23388 23910.4 L 18996 23910.4 L 18996 23478.4 Q 19812 23478.4 20490 23028.4 Q 21168 22578.4 22464 20670.4 L 23388 19302.4 L 21456 15726.4 Q 20508 13974.4 20040 13578.4 Q 19572 13182.4 18996 13134.4 L 18996 12690.4 L 25212 12690.4 L 25212 13134.4 L 24888 13146.4 L 24264 13362.4 Q 24168 13446.4 24168 13638.4 Q 24168 13818.4 24228 14010.4 Q 24264 14094.4 24564 14658.4 L 25440 16290.4 L 25896 15642.4 Q 26856 14322.4 26856 13794.4 Q 26856 13542.4 26646 13368.4 Q 26436 13194.4 25896 13134.4 L 25896 12690.4 L 29868 12690.4 L 29868 13134.4 Q 29136 13158.4 28500 13584.4 Q 27864 14010.4 27072 15234.4 L 25896 17034.4 Z M 35892 22770.4 L 35892 26946.4 Q 35892 27810.4 36030 28122.4 Q 36168 28434.4 36456 28578.4 Q 36744 28722.4 37584 28722.4 L 37584 29166.4 L 31188 29166.4 L 31188 28722.4 Q 31932 28698.4 32292 28302.4 Q 32532 28026.4 32532 26874.4 L 32532 15030.4 Q 32532 13842.4 32256 13512.4 Q 31980 13182.4 31188 13134.4 L 31188 12690.4 L 35892 12690.4 L 35892 14166.4 Q 36480 13302.4 37092 12918.4 Q 37968 12354.4 39000 12354.4 Q 40236 12354.4 41250 13134.4 Q 42264 13914.4 42792 15288.4 Q 43320 16662.4 43320 18246.4 Q 43320 19950.4 42774 21360.4 Q 42228 22770.4 41190 23508.4 Q 40152 24246.4 38880 24246.4 Q 37956 24246.4 37152 23838.4 Q 36552 23526.4 35892 22770.4  Z M 35892 21558.4 Q 36924 23022.4 38100 23022.4 Q 38748 23022.4 39168 22338.4 Q 39792 21330.4 39792 18498.4 Q 39792 15594.4 39108 14526.4 Q 38652 13818.4 37884 13818.4 Q 36672 13818.4 35892 15570.4 L 35892 21558.4 Z M 49823.2 12690.4 L 49823.2 15234.4 Q 50939.2 13494.4 51779.2 12924.4 Q 52619.2 12354.4 53399.2 12354.4 Q 54071.2 12354.4 54473.2 12768.4 Q 54875.2 13182.4 54875.2 13938.4 Q 54875.2 14742.4 54485.2 15186.4 Q 54095.2 15630.4 53543.2 15630.4 Q 52907.2 15630.4 52439.2 15222.4 Q 51971.2 14814.4 51887.2 14766.4 Q 51767.2 14694.4 51611.2 14694.4 Q 51263.2 14694.4 50951.2 14958.4 Q 50459.2 15366.4 50207.2 16122.4 Q 49823.2 17286.4 49823.2 18690.4 L 49823.2 21270.4 L 49835.2 21942.4 Q 49835.2 22626.4 49919.2 22818.4 Q 50063.2 23142.4 50345.2 23292.4 Q 50627.2 23442.4 51299.2 23478.4 L 51299.2 23910.4 L 45239.2 23910.4 L 45239.2 23478.4 Q 45971.2 23418.4 46229.2 23076.4 Q 46487.2 22734.4 46487.2 21270.4 L 46487.2 15066.4 Q 46487.2 14106.4 46391.2 13842.4 Q 46271.2 13506.4 46043.2 13350.4 Q 45815.2 13194.4 45239.2 13134.4 L 45239.2 12690.4 L 49823.2 12690.4 Z M 65576.8 17898.4 L 59420.8 17898.4 Q 59528.8 20130.4 60608.8 21426.4 Q 61436.8 22422.4 62600.8 22422.4 Q 63320.8 22422.4 63908.8 22020.4 Q 64496.8 21618.4 65168.8 20574.4 L 65576.8 20838.4 Q 64664.8 22698.4 63560.8 23472.4 Q 62456.8 24246.4 61004.8 24246.4 Q 58508.8 24246.4 57224.8 22326.4 Q 56192.8 20778.4 56192.8 18486.4 Q 56192.8 15678.4 57710.8 14016.4 Q 59228.8 12354.4 61268.8 12354.4 Q 62972.8 12354.4 64226.8 13752.4 Q 65480.8 15150.4 65576.8 17898.4  Z M 62624.8 17094.4 Q 62624.8 15162.4 62414.8 14442.4 Q 62204.8 13722.4 61760.8 13350.4 Q 61508.8 13134.4 61088.8 13134.4 Q 60464.8 13134.4 60068.8 13746.4 Q 59360.8 14814.4 59360.8 16674.4 L 59360.8 17094.4 L 62624.8 17094.4 Z M 74070.4 12378.4 L 74250.4 16206.4 L 73842.4 16206.4 Q 73110.4 14502.4 72324.4 13878.4 Q 71538.4 13254.4 70758.4 13254.4 Q 70266.4 13254.4 69918.4 13584.4 Q 69570.4 13914.4 69570.4 14346.4 Q 69570.4 14670.4 69810.4 14970.4 Q 70194.4 15462.4 71958.4 16656.4 Q 73722.4 17850.4 74280.4 18684.4 Q 74838.4 19518.4 74838.4 20550.4 Q 74838.4 21486.4 74370.4 22386.4 Q 73902.4 23286.4 73050.4 23766.4 Q 72198.4 24246.4 71166.4 24246.4 Q 70362.4 24246.4 69018.4 23742.4 Q 68658.4 23610.4 68526.4 23610.4 Q 68130.4 23610.4 67866.4 24210.4 L 67470.4 24210.4 L 67278.4 20178.4 L 67686.4 20178.4 Q 68226.4 21762.4 69168.4 22554.4 Q 70110.4 23346.4 70950.4 23346.4 Q 71526.4 23346.4 71892.4 22992.4 Q 72258.4 22638.4 72258.4 22134.4 Q 72258.4 21558.4 71898.4 21138.4 Q 71538.4 20718.4 70290.4 19866.4 Q 68454.4 18594.4 67914.4 17922.4 Q 67122.4 16938.4 67122.4 15750.4 Q 67122.4 14454.4 68016.4 13404.4 Q 68910.4 12354.4 70602.4 12354.4 Q 71514.4 12354.4 72366.4 12798.4 Q 72690.4 12978.4 72894.4 12978.4 Q 73110.4 12978.4 73242.4 12888.4 Q 73374.4 12798.4 73662.4 12378.4 L 74070.4 12378.4 Z M 83593.6 12378.4 L 83773.6 16206.4 L 83365.6 16206.4 Q 82633.6 14502.4 81847.6 13878.4 Q 81061.6 13254.4 80281.6 13254.4 Q 79789.6 13254.4 79441.6 13584.4 Q 79093.6 13914.4 79093.6 14346.4 Q 79093.6 14670.4 79333.6 14970.4 Q 79717.6 15462.4 81481.6 16656.4 Q 83245.6 17850.4 83803.6 18684.4 Q 84361.6 19518.4 84361.6 20550.4 Q 84361.6 21486.4 83893.6 22386.4 Q 83425.6 23286.4 82573.6 23766.4 Q 81721.6 24246.4 80689.6 24246.4 Q 79885.6 24246.4 78541.6 23742.4 Q 78181.6 23610.4 78049.6 23610.4 Q 77653.6 23610.4 77389.6 24210.4 L 76993.6 24210.4 L 76801.6 20178.4 L 77209.6 20178.4 Q 77749.6 21762.4 78691.6 22554.4 Q 79633.6 23346.4 80473.6 23346.4 Q 81049.6 23346.4 81415.6 22992.4 Q 81781.6 22638.4 81781.6 22134.4 Q 81781.6 21558.4 81421.6 21138.4 Q 81061.6 20718.4 79813.6 19866.4 Q 77977.6 18594.4 77437.6 17922.4 Q 76645.6 16938.4 76645.6 15750.4 Q 76645.6 14454.4 77539.6 13404.4 Q 78433.6 12354.4 80125.6 12354.4 Q 81037.6 12354.4 81889.6 12798.4 Q 82213.6 12978.4 82417.6 12978.4 Q 82633.6 12978.4 82765.6 12888.4 Q 82897.6 12798.4 83185.6 12378.4 L 83593.6 12378.4 Z M 88724.8 7254.4 Q 89504.8 7254.4 90044.8 7800.4 Q 90584.8 8346.4 90584.8 9114.4 Q 90584.8 9882.4 90038.8 10422.4 Q 89492.8 10962.4 88724.8 10962.4 Q 87956.8 10962.4 87416.8 10422.4 Q 86876.8 9882.4 86876.8 9114.4 Q 86876.8 8346.4 87416.8 7800.4 Q 87956.8 7254.4 88724.8 7254.4  Z M 90404.8 12690.4 L 90404.8 21582.4 Q 90404.8 22770.4 90680.8 23100.4 Q 90956.8 23430.4 91760.8 23478.4 L 91760.8 23910.4 L 85700.8 23910.4 L 85700.8 23478.4 Q 86444.8 23454.4 86804.8 23046.4 Q 87044.8 22770.4 87044.8 21582.4 L 87044.8 15030.4 Q 87044.8 13842.4 86768.8 13512.4 Q 86492.8 13182.4 85700.8 13134.4 L 85700.8 12690.4 L 90404.8 12690.4 Z M 98126.4 12354.4 Q 99590.4 12354.4 100850.4 13110.4 Q 102110.4 13866.4 102764.4 15258.4 Q 103418.4 16650.4 103418.4 18306.4 Q 103418.4 20694.4 102206.4 22302.4 Q 100742.4 24246.4 98162.4 24246.4 Q 95630.4 24246.4 94262.4 22470.4 Q 92894.4 20694.4 92894.4 18354.4 Q 92894.4 15942.4 94292.4 14148.4 Q 95690.4 12354.4 98126.4 12354.4  Z M 98174.4 13206.4 Q 97562.4 13206.4 97124.4 13668.4 Q 96686.4 14130.4 96548.4 15492.4 Q 96410.4 16854.4 96410.4 19278.4 Q 96410.4 20562.4 96578.4 21678.4 Q 96710.4 22530.4 97142.4 22974.4 Q 97574.4 23418.4 98126.4 23418.4 Q 98666.4 23418.4 99026.4 23118.4 Q 99494.4 22710.4 99650.4 21978.4 Q 99890.4 20838.4 99890.4 17370.4 Q 99890.4 15330.4 99662.4 14568.4 Q 99434.4 13806.4 98990.4 13458.4 Q 98678.4 13206.4 98174.4 13206.4  Z M 109706.4 12690.4 L 109706.4 14142.4 Q 110570.4 13206.4 111362.4 12780.4 Q 112154.4 12354.4 113066.4 12354.4 Q 114158.4 12354.4 114878.4 12960.4 Q 115598.4 13566.4 115838.4 14466.4 Q 116030.4 15150.4 116030.4 17094.4 L 116030.4 21462.4 Q 116030.4 22758.4 116264.4 23076.4 Q 116498.4 23394.4 117242.4 23478.4 L 117242.4 23910.4 L 111566.4 23910.4 L 111566.4 23478.4 Q 112202.4 23394.4 112478.4 22950.4 Q 112670.4 22650.4 112670.4 21462.4 L 112670.4 16470.4 Q 112670.4 15090.4 112562.4 14730.4 Q 112454.4 14370.4 112196.4 14172.4 Q 111938.4 13974.4 111626.4 13974.4 Q 110594.4 13974.4 109706.4 15450.4 L 109706.4 21462.4 Q 109706.4 22722.4 109940.4 23058.4 Q 110174.4 23394.4 110810.4 23478.4 L 110810.4 23910.4 L 105134.4 23910.4 L 105134.4 23478.4 Q 105842.4 23406.4 106142.4 23022.4 Q 106346.4 22758.4 106346.4 21462.4 L 106346.4 15126.4 Q 106346.4 13854.4 106112.4 13542.4 Q 105878.4 13230.4 105134.4 13134.4 L 105134.4 12690.4 L 109706.4 12690.4 Z M 127585.6 7254.4 Q 128365.6 7254.4 128905.6 7800.4 Q 129445.6 8346.4 129445.6 9114.4 Q 129445.6 9882.4 128899.6 10422.4 Q 128353.6 10962.4 127585.6 10962.4 Q 126817.6 10962.4 126277.6 10422.4 Q 125737.6 9882.4 125737.6 9114.4 Q 125737.6 8346.4 126277.6 7800.4 Q 126817.6 7254.4 127585.6 7254.4  Z M 129265.6 12690.4 L 129265.6 21582.4 Q 129265.6 22770.4 129541.6 23100.4 Q 129817.6 23430.4 130621.6 23478.4 L 130621.6 23910.4 L 124561.6 23910.4 L 124561.6 23478.4 Q 125305.6 23454.4 125665.6 23046.4 Q 125905.6 22770.4 125905.6 21582.4 L 125905.6 15030.4 Q 125905.6 13842.4 125629.6 13512.4 Q 125353.6 13182.4 124561.6 13134.4 L 124561.6 12690.4 L 129265.6 12690.4 Z M 136279.2 12690.4 L 136279.2 14142.4 Q 137143.2 13206.4 137935.2 12780.4 Q 138727.2 12354.4 139639.2 12354.4 Q 140731.2 12354.4 141451.2 12960.4 Q 142171.2 13566.4 142411.2 14466.4 Q 142603.2 15150.4 142603.2 17094.4 L 142603.2 21462.4 Q 142603.2 22758.4 142837.2 23076.4 Q 143071.2 23394.4 143815.2 23478.4 L 143815.2 23910.4 L 138139.2 23910.4 L 138139.2 23478.4 Q 138775.2 23394.4 139051.2 22950.4 Q 139243.2 22650.4 139243.2 21462.4 L 139243.2 16470.4 Q 139243.2 15090.4 139135.2 14730.4 Q 139027.2 14370.4 138769.2 14172.4 Q 138511.2 13974.4 138199.2 13974.4 Q 137167.2 13974.4 136279.2 15450.4 L 136279.2 21462.4 Q 136279.2 22722.4 136513.2 23058.4 Q 136747.2 23394.4 137383.2 23478.4 L 137383.2 23910.4 L 131707.2 23910.4 L 131707.2 23478.4 Q 132415.2 23406.4 132715.2 23022.4 Q 132919.2 22758.4 132919.2 21462.4 L 132919.2 15126.4 Q 132919.2 13854.4 132685.2 13542.4 Q 132451.2 13230.4 131707.2 13134.4 L 131707.2 12690.4 L 136279.2 12690.4 Z M 8744 35710.4 L 8744 42334.4 L 9068 42334.4 Q 10616 42334.4 11312 41362.4 Q 12008 40390.4 12200 38494.4 L 12656 38494.4 L 12656 47014.4 L 12200 47014.4 Q 12056 45622.4 11594 44734.4 Q 11132 43846.4 10520 43540.4 Q 9908 43234.4 8744 43234.4 L 8744 47818.4 Q 8744 49162.4 8858 49462.4 Q 8972 49762.4 9284 49954.4 Q 9596 50146.4 10292 50146.4 L 11264 50146.4 Q 13544 50146.4 14918 49090.4 Q 16292 48034.4 16892 45874.4 L 17336 45874.4 L 16604 51046.4 L 2540 51046.4 L 2540 50602.4 L 3080 50602.4 Q 3788 50602.4 4220 50350.4 Q 4532 50182.4 4700 49774.4 Q 4832 49486.4 4832 48262.4 L 4832 37558.4 Q 4832 36454.4 4772 36202.4 Q 4652 35782.4 4328 35554.4 Q 3872 35218.4 3080 35218.4 L 2540 35218.4 L 2540 34774.4 L 16160 34774.4 L 16160 39586.4 L 15704 39586.4 Q 15356 37822.4 14726 37054.4 Q 14096 36286.4 12944 35926.4 Q 12272 35710.4 10424 35710.4 L 8744 35710.4 Z M 23844 39826.4 L 23844 41278.4 Q 24708 40342.4 25500 39916.4 Q 26292 39490.4 27204 39490.4 Q 28296 39490.4 29016 40096.4 Q 29736 40702.4 29976 41602.4 Q 30168 42286.4 30168 44230.4 L 30168 48598.4 Q 30168 49894.4 30402 50212.4 Q 30636 50530.4 31380 50614.4 L 31380 51046.4 L 25704 51046.4 L 25704 50614.4 Q 26340 50530.4 26616 50086.4 Q 26808 49786.4 26808 48598.4 L 26808 43606.4 Q 26808 42226.4 26700 41866.4 Q 26592 41506.4 26334 41308.4 Q 26076 41110.4 25764 41110.4 Q 24732 41110.4 23844 42586.4 L 23844 48598.4 Q 23844 49858.4 24078 50194.4 Q 24312 50530.4 24948 50614.4 L 24948 51046.4 L 19272 51046.4 L 19272 50614.4 Q 19980 50542.4 20280 50158.4 Q 20484 49894.4 20484 48598.4 L 20484 42262.4 Q 20484 40990.4 20250 40678.4 Q 20016 40366.4 19272 40270.4 L 19272 39826.4 L 23844 39826.4 Z M 40079.2 39958.4 L 43859.2 39958.4 L 43859.2 41278.4 L 41711.2 41278.4 Q 42299.2 41866.4 42527.2 42346.4 Q 42815.2 42994.4 42815.2 43702.4 Q 42815.2 44902.4 42149.2 45784.4 Q 41483.2 46666.4 40337.2 47164.4 Q 39191.2 47662.4 38303.2 47662.4 Q 38231.2 47662.4 36863.2 47602.4 Q 36323.2 47602.4 35957.2 47956.4 Q 35591.2 48310.4 35591.2 48802.4 Q 35591.2 49234.4 35921.2 49510.4 Q 36251.2 49786.4 36995.2 49786.4 L 39071.2 49762.4 Q 41591.2 49762.4 42539.2 50314.4 Q 43895.2 51082.4 43895.2 52678.4 Q 43895.2 53698.4 43271.2 54532.4 Q 42647.2 55366.4 41627.2 55762.4 Q 40079.2 56350.4 38063.2 56350.4 Q 36551.2 56350.4 35303.2 56056.4 Q 34055.2 55762.4 33515.2 55240.4 Q 32975.2 54718.4 32975.2 54142.4 Q 32975.2 53590.4 33389.2 53152.4 Q 33803.2 52714.4 34931.2 52414.4 Q 33371.2 51646.4 33371.2 50278.4 Q 33371.2 49450.4 34007.2 48670.4 Q 34643.2 47890.4 36023.2 47314.4 Q 34415.2 46726.4 33695.2 45766.4 Q 32975.2 44806.4 32975.2 43546.4 Q 32975.2 41902.4 34319.2 40696.4 Q 35663.2 39490.4 37775.2 39490.4 Q 38891.2 39490.4 40079.2 39958.4  Z M 38003.2 40234.4 Q 37307.2 40234.4 36827.2 40936.4 Q 36347.2 41638.4 36347.2 43846.4 Q 36347.2 45634.4 36821.2 46300.4 Q 37295.2 46966.4 37943.2 46966.4 Q 38663.2 46966.4 39143.2 46306.4 Q 39623.2 45646.4 39623.2 43738.4 Q 39623.2 41590.4 39083.2 40810.4 Q 38699.2 40234.4 38003.2 40234.4  Z M 37295.2 52702.4 Q 36071.2 52702.4 35675.2 52906.4 Q 34991.2 53278.4 34991.2 53914.4 Q 34991.2 54526.4 35699.2 55024.4 Q 36407.2 55522.4 38363.2 55522.4 Q 40031.2 55522.4 40985.2 55078.4 Q 41939.2 54634.4 41939.2 53830.4 Q 41939.2 53530.4 41759.2 53326.4 Q 41435.2 52966.4 40781.2 52834.4 Q 40127.2 52702.4 37295.2 52702.4  Z M 47867.2 34390.4 Q 48647.2 34390.4 49187.2 34936.4 Q 49727.2 35482.4 49727.2 36250.4 Q 49727.2 37018.4 49181.2 37558.4 Q 48635.2 38098.4 47867.2 38098.4 Q 47099.2 38098.4 46559.2 37558.4 Q 46019.2 37018.4 46019.2 36250.4 Q 46019.2 35482.4 46559.2 34936.4 Q 47099.2 34390.4 47867.2 34390.4  Z M 49547.2 39826.4 L 49547.2 48718.4 Q 49547.2 49906.4 49823.2 50236.4 Q 50099.2 50566.4 50903.2 50614.4 L 50903.2 51046.4 L 44843.2 51046.4 L 44843.2 50614.4 Q 45587.2 50590.4 45947.2 50182.4 Q 46187.2 49906.4 46187.2 48718.4 L 46187.2 42166.4 Q 46187.2 40978.4 45911.2 40648.4 Q 45635.2 40318.4 44843.2 40270.4 L 44843.2 39826.4 L 49547.2 39826.4 Z M 56560.8 39826.4 L 56560.8 41278.4 Q 57424.8 40342.4 58216.8 39916.4 Q 59008.8 39490.4 59920.8 39490.4 Q 61012.8 39490.4 61732.8 40096.4 Q 62452.8 40702.4 62692.8 41602.4 Q 62884.8 42286.4 62884.8 44230.4 L 62884.8 48598.4 Q 62884.8 49894.4 63118.8 50212.4 Q 63352.8 50530.4 64096.8 50614.4 L 64096.8 51046.4 L 58420.8 51046.4 L 58420.8 50614.4 Q 59056.8 50530.4 59332.8 50086.4 Q 59524.8 49786.4 59524.8 48598.4 L 59524.8 43606.4 Q 59524.8 42226.4 59416.8 41866.4 Q 59308.8 41506.4 59050.8 41308.4 Q 58792.8 41110.4 58480.8 41110.4 Q 57448.8 41110.4 56560.8 42586.4 L 56560.8 48598.4 Q 56560.8 49858.4 56794.8 50194.4 Q 57028.8 50530.4 57664.8 50614.4 L 57664.8 51046.4 L 51988.8 51046.4 L 51988.8 50614.4 Q 52696.8 50542.4 52996.8 50158.4 Q 53200.8 49894.4 53200.8 48598.4 L 53200.8 42262.4 Q 53200.8 40990.4 52966.8 40678.4 Q 52732.8 40366.4 51988.8 40270.4 L 51988.8 39826.4 L 56560.8 39826.4 Z M 75100 45034.4 L 68944 45034.4 Q 69052 47266.4 70132 48562.4 Q 70960 49558.4 72124 49558.4 Q 72844 49558.4 73432 49156.4 Q 74020 48754.4 74692 47710.4 L 75100 47974.4 Q 74188 49834.4 73084 50608.4 Q 71980 51382.4 70528 51382.4 Q 68032 51382.4 66748 49462.4 Q 65716 47914.4 65716 45622.4 Q 65716 42814.4 67234 41152.4 Q 68752 39490.4 70792 39490.4 Q 72496 39490.4 73750 40888.4 Q 75004 42286.4 75100 45034.4  Z M 72148 44230.4 Q 72148 42298.4 71938 41578.4 Q 71728 40858.4 71284 40486.4 Q 71032 40270.4 70612 40270.4 Q 69988 40270.4 69592 40882.4 Q 68884 41950.4 68884 43810.4 L 68884 44230.4 L 72148 44230.4 Z M 86005.6 45034.4 L 79849.6 45034.4 Q 79957.6 47266.4 81037.6 48562.4 Q 81865.6 49558.4 83029.6 49558.4 Q 83749.6 49558.4 84337.6 49156.4 Q 84925.6 48754.4 85597.6 47710.4 L 86005.6 47974.4 Q 85093.6 49834.4 83989.6 50608.4 Q 82885.6 51382.4 81433.6 51382.4 Q 78937.6 51382.4 77653.6 49462.4 Q 76621.6 47914.4 76621.6 45622.4 Q 76621.6 42814.4 78139.6 41152.4 Q 79657.6 39490.4 81697.6 39490.4 Q 83401.6 39490.4 84655.6 40888.4 Q 85909.6 42286.4 86005.6 45034.4  Z M 83053.6 44230.4 Q 83053.6 42298.4 82843.6 41578.4 Q 82633.6 40858.4 82189.6 40486.4 Q 81937.6 40270.4 81517.6 40270.4 Q 80893.6 40270.4 80497.6 40882.4 Q 79789.6 41950.4 79789.6 43810.4 L 79789.6 44230.4 L 83053.6 44230.4 Z M 92063.2 39826.4 L 92063.2 42370.4 Q 93179.2 40630.4 94019.2 40060.4 Q 94859.2 39490.4 95639.2 39490.4 Q 96311.2 39490.4 96713.2 39904.4 Q 97115.2 40318.4 97115.2 41074.4 Q 97115.2 41878.4 96725.2 42322.4 Q 96335.2 42766.4 95783.2 42766.4 Q 95147.2 42766.4 94679.2 42358.4 Q 94211.2 41950.4 94127.2 41902.4 Q 94007.2 41830.4 93851.2 41830.4 Q 93503.2 41830.4 93191.2 42094.4 Q 92699.2 42502.4 92447.2 43258.4 Q 92063.2 44422.4 92063.2 45826.4 L 92063.2 48406.4 L 92075.2 49078.4 Q 92075.2 49762.4 92159.2 49954.4 Q 92303.2 50278.4 92585.2 50428.4 Q 92867.2 50578.4 93539.2 50614.4 L 93539.2 51046.4 L 87479.2 51046.4 L 87479.2 50614.4 Q 88211.2 50554.4 88469.2 50212.4 Q 88727.2 49870.4 88727.2 48406.4 L 88727.2 42202.4 Q 88727.2 41242.4 88631.2 40978.4 Q 88511.2 40642.4 88283.2 40486.4 Q 88055.2 40330.4 87479.2 40270.4 L 87479.2 39826.4 L 92063.2 39826.4 Z M 107816.8 45034.4 L 101660.8 45034.4 Q 101768.8 47266.4 102848.8 48562.4 Q 103676.8 49558.4 104840.8 49558.4 Q 105560.8 49558.4 106148.8 49156.4 Q 106736.8 48754.4 107408.8 47710.4 L 107816.8 47974.4 Q 106904.8 49834.4 105800.8 50608.4 Q 104696.8 51382.4 103244.8 51382.4 Q 100748.8 51382.4 99464.8 49462.4 Q 98432.8 47914.4 98432.8 45622.4 Q 98432.8 42814.4 99950.8 41152.4 Q 101468.8 39490.4 103508.8 39490.4 Q 105212.8 39490.4 106466.8 40888.4 Q 107720.8 42286.4 107816.8 45034.4  Z M 104864.8 44230.4 Q 104864.8 42298.4 104654.8 41578.4 Q 104444.8 40858.4 104000.8 40486.4 Q 103748.8 40270.4 103328.8 40270.4 Q 102704.8 40270.4 102308.8 40882.4 Q 101600.8 41950.4 101600.8 43810.4 L 101600.8 44230.4 L 104864.8 44230.4 Z M 120126.4 34774.4 L 120126.4 47686.4 Q 120126.4 48994.4 120198.4 49234.4 Q 120294.4 49630.4 120564.4 49822.4 Q 120834.4 50014.4 121506.4 50062.4 L 121506.4 50458.4 L 116766.4 51382.4 L 116766.4 49606.4 Q 115914.4 50638.4 115248.4 51010.4 Q 114582.4 51382.4 113742.4 51382.4 Q 111594.4 51382.4 110346.4 49462.4 Q 109338.4 47902.4 109338.4 45634.4 Q 109338.4 43822.4 109962.4 42388.4 Q 110586.4 40954.4 111672.4 40222.4 Q 112758.4 39490.4 114006.4 39490.4 Q 114810.4 39490.4 115434.4 39802.4 Q 116058.4 40114.4 116766.4 40894.4 L 116766.4 37510.4 Q 116766.4 36226.4 116658.4 35962.4 Q 116514.4 35614.4 116226.4 35446.4 Q 115938.4 35278.4 115146.4 35278.4 L 115146.4 34774.4 L 120126.4 34774.4 Z M 116766.4 42382.4 Q 115878.4 40678.4 114594.4 40678.4 Q 114150.4 40678.4 113862.4 40918.4 Q 113418.4 41290.4 113136.4 42226.4 Q 112854.4 43162.4 112854.4 45094.4 Q 112854.4 47218.4 113166.4 48238.4 Q 113478.4 49258.4 114018.4 49714.4 Q 114294.4 49942.4 114774.4 49942.4 Q 115830.4 49942.4 116766.4 48286.4 L 116766.4 42382.4 Z M 144557.6 34402.4 L 144557.6 40042.4 L 144089.6 40042.4 Q 143561.6 37834.4 142121.6 36658.4 Q 140681.6 35482.4 138857.6 35482.4 Q 137333.6 35482.4 136061.6 36358.4 Q 134789.6 37234.4 134201.6 38650.4 Q 133445.6 40462.4 133445.6 42682.4 Q 133445.6 44866.4 133997.6 46660.4 Q 134549.6 48454.4 135725.6 49372.4 Q 136901.6 50290.4 138773.6 50290.4 Q 140309.6 50290.4 141587.6 49618.4 Q 142865.6 48946.4 144281.6 47302.4 L 144281.6 48706.4 Q 142913.6 50134.4 141431.6 50776.4 Q 139949.6 51418.4 137969.6 51418.4 Q 135365.6 51418.4 133343.6 50374.4 Q 131321.6 49330.4 130223.6 47374.4 Q 129125.6 45418.4 129125.6 43210.4 Q 129125.6 40882.4 130343.6 38794.4 Q 131561.6 36706.4 133631.6 35554.4 Q 135701.6 34402.4 138029.6 34402.4 Q 139745.6 34402.4 141653.6 35146.4 Q 142757.6 35578.4 143057.6 35578.4 Q 143441.6 35578.4 143723.6 35296.4 Q 144005.6 35014.4 144089.6 34402.4 L 144557.6 34402.4 Z M 151280.8 34774.4 L 151280.8 41266.4 Q 152204.8 40294.4 152972.8 39892.4 Q 153740.8 39490.4 154568.8 39490.4 Q 155624.8 39490.4 156374.8 40090.4 Q 157124.8 40690.4 157370.8 41500.4 Q 157616.8 42310.4 157616.8 44230.4 L 157616.8 48610.4 Q 157616.8 49894.4 157856.8 50212.4 Q 158096.8 50530.4 158828.8 50614.4 L 158828.8 51046.4 L 153140.8 51046.4 L 153140.8 50614.4 Q 153740.8 50530.4 154040.8 50134.4 Q 154256.8 49822.4 154256.8 48610.4 L 154256.8 43606.4 Q 154256.8 42214.4 154148.8 41860.4 Q 154040.8 41506.4 153782.8 41308.4 Q 153524.8 41110.4 153200.8 41110.4 Q 152720.8 41110.4 152264.8 41440.4 Q 151808.8 41770.4 151280.8 42598.4 L 151280.8 48610.4 Q 151280.8 49810.4 151460.8 50110.4 Q 151688.8 50518.4 152396.8 50614.4 L 152396.8 51046.4 L 146708.8 51046.4 L 146708.8 50614.4 Q 147416.8 50542.4 147716.8 50158.4 Q 147920.8 49894.4 147920.8 48610.4 L 147920.8 37210.4 Q 147920.8 35938.4 147686.8 35626.4 Q 147452.8 35314.4 146708.8 35218.4 L 146708.8 34774.4 L 151280.8 34774.4 Z M 166508 49390.4 Q 164456 51202.4 162824 51202.4 Q 161864 51202.4 161228 50572.4 Q 160592 49942.4 160592 48994.4 Q 160592 47710.4 161696 46684.4 Q 162800 45658.4 166508 43954.4 L 166508 42826.4 Q 166508 41554.4 166370 41224.4 Q 166232 40894.4 165848 40648.4 Q 165464 40402.4 164984 40402.4 Q 164204 40402.4 163700 40750.4 Q 163388 40966.4 163388 41254.4 Q 163388 41506.4 163724 41878.4 Q 164180 42394.4 164180 42874.4 Q 164180 43462.4 163742 43876.4 Q 163304 44290.4 162596 44290.4 Q 161840 44290.4 161330 43834.4 Q 160820 43378.4 160820 42766.4 Q 160820 41902.4 161504 41116.4 Q 162188 40330.4 163412 39910.4 Q 164636 39490.4 165956 39490.4 Q 167552 39490.4 168482 40168.4 Q 169412 40846.4 169688 41638.4 Q 169856 42142.4 169856 43954.4 L 169856 48310.4 Q 169856 49078.4 169916 49276.4 Q 169976 49474.4 170096 49570.4 Q 170216 49666.4 170372 49666.4 Q 170684 49666.4 171008 49222.4 L 171368 49510.4 Q 170768 50398.4 170126 50800.4 Q 169484 51202.4 168668 51202.4 Q 167708 51202.4 167168 50752.4 Q 166628 50302.4 166508 49390.4  Z M 166508 48514.4 L 166508 44758.4 Q 165056 45610.4 164348 46582.4 Q 163880 47230.4 163880 47890.4 Q 163880 48442.4 164276 48862.4 Q 164576 49186.4 165116 49186.4 Q 165716 49186.4 166508 48514.4  Z M 179696 39514.4 L 179876 43342.4 L 179468 43342.4 Q 178736 41638.4 177950 41014.4 Q 177164 40390.4 176384 40390.4 Q 175892 40390.4 175544 40720.4 Q 175196 41050.4 175196 41482.4 Q 175196 41806.4 175436 42106.4 Q 175820 42598.4 177584 43792.4 Q 179348 44986.4 179906 45820.4 Q 180464 46654.4 180464 47686.4 Q 180464 48622.4 179996 49522.4 Q 179528 50422.4 178676 50902.4 Q 177824 51382.4 176792 51382.4 Q 175988 51382.4 174644 50878.4 Q 174284 50746.4 174152 50746.4 Q 173756 50746.4 173492 51346.4 L 173096 51346.4 L 172904 47314.4 L 173312 47314.4 Q 173852 48898.4 174794 49690.4 Q 175736 50482.4 176576 50482.4 Q 177152 50482.4 177518 50128.4 Q 177884 49774.4 177884 49270.4 Q 177884 48694.4 177524 48274.4 Q 177164 47854.4 175916 47002.4 Q 174080 45730.4 173540 45058.4 Q 172748 44074.4 172748 42886.4 Q 172748 41590.4 173642 40540.4 Q 174536 39490.4 176228 39490.4 Q 177140 39490.4 177992 39934.4 Q 178316 40114.4 178520 40114.4 Q 178736 40114.4 178868 40024.4 Q 179000 39934.4 179288 39514.4 L 179696 39514.4 Z M 189219.2 39514.4 L 189399.2 43342.4 L 188991.2 43342.4 Q 188259.2 41638.4 187473.2 41014.4 Q 186687.2 40390.4 185907.2 40390.4 Q 185415.2 40390.4 185067.2 40720.4 Q 184719.2 41050.4 184719.2 41482.4 Q 184719.2 41806.4 184959.2 42106.4 Q 185343.2 42598.4 187107.2 43792.4 Q 188871.2 44986.4 189429.2 45820.4 Q 189987.2 46654.4 189987.2 47686.4 Q 189987.2 48622.4 189519.2 49522.4 Q 189051.2 50422.4 188199.2 50902.4 Q 187347.2 51382.4 186315.2 51382.4 Q 185511.2 51382.4 184167.2 50878.4 Q 183807.2 50746.4 183675.2 50746.4 Q 183279.2 50746.4 183015.2 51346.4 L 182619.2 51346.4 L 182427.2 47314.4 L 182835.2 47314.4 Q 183375.2 48898.4 184317.2 49690.4 Q 185259.2 50482.4 186099.2 50482.4 Q 186675.2 50482.4 187041.2 50128.4 Q 187407.2 49774.4 187407.2 49270.4 Q 187407.2 48694.4 187047.2 48274.4 Q 186687.2 47854.4 185439.2 47002.4 Q 183603.2 45730.4 183063.2 45058.4 Q 182271.2 44074.4 182271.2 42886.4 Q 182271.2 41590.4 183165.2 40540.4 Q 184059.2 39490.4 185751.2 39490.4 Q 186663.2 39490.4 187515.2 39934.4 Q 187839.2 40114.4 188043.2 40114.4 Q 188259.2 40114.4 188391.2 40024.4 Q 188523.2 39934.4 188811.2 39514.4 L 189219.2 39514.4 Z M 194350.4 34390.4 Q 195130.4 34390.4 195670.4 34936.4 Q 196210.4 35482.4 196210.4 36250.4 Q 196210.4 37018.4 195664.4 37558.4 Q 195118.4 38098.4 194350.4 38098.4 Q 193582.4 38098.4 193042.4 37558.4 Q 192502.4 37018.4 192502.4 36250.4 Q 192502.4 35482.4 193042.4 34936.4 Q 193582.4 34390.4 194350.4 34390.4  Z M 196030.4 39826.4 L 196030.4 48718.4 Q 196030.4 49906.4 196306.4 50236.4 Q 196582.4 50566.4 197386.4 50614.4 L 197386.4 51046.4 L 191326.4 51046.4 L 191326.4 50614.4 Q 192070.4 50590.4 192430.4 50182.4 Q 192670.4 49906.4 192670.4 48718.4 L 192670.4 42166.4 Q 192670.4 40978.4 192394.4 40648.4 Q 192118.4 40318.4 191326.4 40270.4 L 191326.4 39826.4 L 196030.4 39826.4 Z M 205552 39514.4 L 205732 43342.4 L 205324 43342.4 Q 204592 41638.4 203806 41014.4 Q 203020 40390.4 202240 40390.4 Q 201748 40390.4 201400 40720.4 Q 201052 41050.4 201052 41482.4 Q 201052 41806.4 201292 42106.4 Q 201676 42598.4 203440 43792.4 Q 205204 44986.4 205762 45820.4 Q 206320 46654.4 206320 47686.4 Q 206320 48622.4 205852 49522.4 Q 205384 50422.4 204532 50902.4 Q 203680 51382.4 202648 51382.4 Q 201844 51382.4 200500 50878.4 Q 200140 50746.4 200008 50746.4 Q 199612 50746.4 199348 51346.4 L 198952 51346.4 L 198760 47314.4 L 199168 47314.4 Q 199708 48898.4 200650 49690.4 Q 201592 50482.4 202432 50482.4 Q 203008 50482.4 203374 50128.4 Q 203740 49774.4 203740 49270.4 Q 203740 48694.4 203380 48274.4 Q 203020 47854.4 201772 47002.4 Q 199936 45730.4 199396 45058.4 Q 198604 44074.4 198604 42886.4 Q 198604 41590.4 199498 40540.4 Q 200392 39490.4 202084 39490.4 Q 202996 39490.4 203848 39934.4 Q 204172 40114.4 204376 40114.4 Q 204592 40114.4 204724 40024.4 Q 204856 39934.4 205144 39514.4 L 205552 39514.4 Z " fill-rule="nonzero" style="fill:#76923c;;fill-opacity:1;"/>
</svg>