<svg version="1.1" x="0" y="0" width="100%" height="100%" viewBox="0 0 206950.4 30105.6" xmlns="http://www.w3.org/2000/svg">
  <path d="M 17768.5 7038.3 L 17768.5 12443.3 L 17320 12443.3 Q 16814 10327.3 15434 9200.3 Q 14054 8073.3 12306 8073.3 Q 10845.5 8073.3 9626.5 8912.8 Q 8407.5 9752.3 7844 11109.3 Q 7119.5 12845.8 7119.5 14973.3 Q 7119.5 17066.3 7648.5 18785.55 Q 8177.5 20504.8 9304.5 21384.55 Q 10431.5 22264.3 12225.5 22264.3 Q 13697.5 22264.3 14922.25 21620.3 Q 16147 20976.3 17504 19400.8 L 17504 20746.3 Q 16193 22114.8 14772.75 22730.05 Q 13352.5 23345.3 11455 23345.3 Q 8959.5 23345.3 7021.75 22344.8 Q 5084 21344.3 4031.75 19469.8 Q 2979.5 17595.3 2979.5 15479.3 Q 2979.5 13248.3 4146.75 11247.3 Q 5314 9246.3 7297.75 8142.3 Q 9281.5 7038.3 11512.5 7038.3 Q 13157 7038.3 14985.5 7751.3 Q 16043.5 8165.3 16331 8165.3 Q 16699 8165.3 16969.25 7895.05 Q 17239.5 7624.8 17320 7038.3 L 17768.5 7038.3 Z M 24773.4 23425.8 L 21300.4 15456.3 Q 20518.4 13650.8 20144.65 13236.8 Q 19770.9 12822.8 19241.9 12661.8 L 19241.9 12236.3 L 24957.4 12236.3 L 24957.4 12661.8 Q 24393.9 12684.8 24163.9 12880.3 Q 23933.9 13075.8 23933.9 13351.8 Q 23933.9 13788.8 24508.9 15076.8 L 26348.9 19285.8 L 27602.4 16031.3 Q 28280.9 14294.8 28280.9 13616.3 Q 28280.9 13190.8 27999.15 12937.8 Q 27717.4 12684.8 27004.4 12661.8 L 27004.4 12236.3 L 30603.9 12236.3 L 30603.9 12661.8 Q 30074.9 12719.3 29741.4 13070.05 Q 29407.9 13420.8 28625.9 15456.3 L 25555.4 23425.8 Q 24393.9 26415.8 23830.4 27105.8 Q 23036.9 28071.8 21840.9 28071.8 Q 20886.4 28071.8 20294.15 27525.55 Q 19701.9 26979.3 19701.9 26208.8 Q 19701.9 25541.8 20110.15 25104.8 Q 20518.4 24667.8 21116.4 24667.8 Q 21691.4 24667.8 22042.15 25035.8 Q 22392.9 25403.8 22404.4 26174.3 Q 22415.9 26611.3 22507.9 26737.8 Q 22599.9 26864.3 22772.4 26864.3 Q 23048.4 26864.3 23358.9 26530.8 Q 23818.9 26047.8 24439.9 24322.8 L 24773.4 23425.8 Z M 40390.4 20217.3 L 40746.9 20493.3 Q 39987.9 21919.3 38855.15 22615.05 Q 37722.4 23310.8 36445.9 23310.8 Q 34295.4 23310.8 33007.4 21689.3 Q 31719.4 20067.8 31719.4 17790.8 Q 31719.4 15594.3 32892.4 13926.8 Q 34306.9 11914.3 36790.9 11914.3 Q 38458.4 11914.3 39441.65 12753.8 Q 40424.9 13593.3 40424.9 14628.3 Q 40424.9 15283.8 40028.15 15674.8 Q 39631.4 16065.8 38987.4 16065.8 Q 38308.9 16065.8 37866.15 15617.3 Q 37423.4 15168.8 37319.9 14018.8 Q 37250.9 13294.3 36986.4 13006.8 Q 36721.9 12719.3 36365.4 12719.3 Q 35813.4 12719.3 35422.4 13305.8 Q 34824.4 14191.3 34824.4 16019.8 Q 34824.4 17537.8 35307.4 18923.55 Q 35790.4 20309.3 36629.9 20987.8 Q 37262.4 21482.3 38124.9 21482.3 Q 38688.4 21482.3 39194.4 21217.8 Q 39700.4 20953.3 40390.4 20217.3  Z M 46269.7 7394.8 L 46269.7 20757.8 Q 46269.7 21896.3 46534.2 22212.55 Q 46798.7 22528.8 47569.2 22574.8 L 47569.2 22988.8 L 41761.7 22988.8 L 41761.7 22574.8 Q 42474.7 22551.8 42819.7 22160.8 Q 43049.7 21896.3 43049.7 20757.8 L 43049.7 9625.8 Q 43049.7 8498.8 42785.2 8182.55 Q 42520.7 7866.3 41761.7 7820.3 L 41761.7 7394.8 L 46269.7 7394.8 Z M 51150.6 7026.8 Q 51898.1 7026.8 52415.6 7550.05 Q 52933.1 8073.3 52933.1 8809.3 Q 52933.1 9545.3 52409.85 10062.8 Q 51886.6 10580.3 51150.6 10580.3 Q 50414.6 10580.3 49897.1 10062.8 Q 49379.6 9545.3 49379.6 8809.3 Q 49379.6 8073.3 49897.1 7550.05 Q 50414.6 7026.8 51150.6 7026.8  Z M 52760.6 12236.3 L 52760.6 20757.8 Q 52760.6 21896.3 53025.1 22212.55 Q 53289.6 22528.8 54060.1 22574.8 L 54060.1 22988.8 L 48252.6 22988.8 L 48252.6 22574.8 Q 48965.6 22551.8 49310.6 22160.8 Q 49540.6 21896.3 49540.6 20757.8 L 49540.6 14478.8 Q 49540.6 13340.3 49276.1 13024.05 Q 49011.6 12707.8 48252.6 12661.8 L 48252.6 12236.3 L 52760.6 12236.3 Z M 63874.5 22988.8 L 54513.5 22988.8 L 54513.5 22735.8 L 60424.5 12937.8 L 58699.5 12937.8 Q 57584 12937.8 57101 13139.05 Q 56618 13340.3 56319 13783.05 Q 56020 14225.8 55698 15364.3 L 55295.5 15364.3 L 55295.5 12236.3 L 64346 12236.3 L 64346 12546.8 L 58481 22252.8 L 59217 22252.8 Q 61425 22252.8 62402.5 21620.3 Q 63380 20987.8 63874.5 19308.8 L 64196.5 19308.8 L 63874.5 22988.8 Z M 71444.3 21401.8 Q 69477.8 23138.3 67913.8 23138.3 Q 66993.8 23138.3 66384.3 22534.55 Q 65774.8 21930.8 65774.8 21022.3 Q 65774.8 19791.8 66832.8 18808.55 Q 67890.8 17825.3 71444.3 16192.3 L 71444.3 15111.3 Q 71444.3 13892.3 71312.05 13576.05 Q 71179.8 13259.8 70811.8 13024.05 Q 70443.8 12788.3 69983.8 12788.3 Q 69236.3 12788.3 68753.3 13121.8 Q 68454.3 13328.8 68454.3 13604.8 Q 68454.3 13846.3 68776.3 14202.8 Q 69213.3 14697.3 69213.3 15157.3 Q 69213.3 15720.8 68793.55 16117.55 Q 68373.8 16514.3 67695.3 16514.3 Q 66970.8 16514.3 66482.05 16077.3 Q 65993.3 15640.3 65993.3 15053.8 Q 65993.3 14225.8 66648.8 13472.55 Q 67304.3 12719.3 68477.3 12316.8 Q 69650.3 11914.3 70915.3 11914.3 Q 72444.8 11914.3 73336.05 12564.05 Q 74227.3 13213.8 74491.8 13972.8 Q 74652.8 14455.8 74652.8 16192.3 L 74652.8 20366.8 Q 74652.8 21102.8 74710.3 21292.55 Q 74767.8 21482.3 74882.8 21574.3 Q 74997.8 21666.3 75147.3 21666.3 Q 75446.3 21666.3 75756.8 21240.8 L 76101.8 21516.8 Q 75526.8 22367.8 74911.55 22753.05 Q 74296.3 23138.3 73514.3 23138.3 Q 72594.3 23138.3 72076.8 22707.05 Q 71559.3 22275.8 71444.3 21401.8  Z M 71444.3 20562.3 L 71444.3 16962.8 Q 70052.8 17779.3 69374.3 18710.8 Q 68925.8 19331.8 68925.8 19964.3 Q 68925.8 20493.3 69305.3 20895.8 Q 69592.8 21206.3 70110.3 21206.3 Q 70685.3 21206.3 71444.3 20562.3  Z M 81552.8 8303.3 L 81552.8 12236.3 L 84105.8 12236.3 L 84105.8 13374.8 L 81552.8 13374.8 L 81552.8 20010.3 Q 81552.8 20941.8 81639.05 21212.05 Q 81725.3 21482.3 81943.8 21649.05 Q 82162.3 21815.8 82346.3 21815.8 Q 83093.8 21815.8 83760.8 20677.3 L 84105.8 20930.3 Q 83174.3 23138.3 81081.3 23138.3 Q 80057.8 23138.3 79350.55 22569.05 Q 78643.3 21999.8 78447.8 21298.3 Q 78332.8 20907.3 78332.8 19182.3 L 78332.8 13374.8 L 76929.8 13374.8 L 76929.8 12972.3 Q 78378.8 11948.8 79396.55 10821.8 Q 80414.3 9694.8 81173.3 8303.3 L 81552.8 8303.3 Z M 87707.4 7026.8 Q 88454.9 7026.8 88972.4 7550.05 Q 89489.9 8073.3 89489.9 8809.3 Q 89489.9 9545.3 88966.65 10062.8 Q 88443.4 10580.3 87707.4 10580.3 Q 86971.4 10580.3 86453.9 10062.8 Q 85936.4 9545.3 85936.4 8809.3 Q 85936.4 8073.3 86453.9 7550.05 Q 86971.4 7026.8 87707.4 7026.8  Z M 89317.4 12236.3 L 89317.4 20757.8 Q 89317.4 21896.3 89581.9 22212.55 Q 89846.4 22528.8 90616.9 22574.8 L 90616.9 22988.8 L 84809.4 22988.8 L 84809.4 22574.8 Q 85522.4 22551.8 85867.4 22160.8 Q 86097.4 21896.3 86097.4 20757.8 L 86097.4 14478.8 Q 86097.4 13340.3 85832.9 13024.05 Q 85568.4 12707.8 84809.4 12661.8 L 84809.4 12236.3 L 89317.4 12236.3 Z M 96693.8 11914.3 Q 98096.8 11914.3 99304.3 12638.8 Q 100511.8 13363.3 101138.55 14697.3 Q 101765.3 16031.3 101765.3 17618.3 Q 101765.3 19906.8 100603.8 21447.8 Q 99200.8 23310.8 96728.3 23310.8 Q 94301.8 23310.8 92990.8 21608.8 Q 91679.8 19906.8 91679.8 17664.3 Q 91679.8 15352.8 93019.55 13633.55 Q 94359.3 11914.3 96693.8 11914.3  Z M 96739.8 12730.8 Q 96153.3 12730.8 95733.55 13173.55 Q 95313.8 13616.3 95181.55 14921.55 Q 95049.3 16226.8 95049.3 18549.8 Q 95049.3 19780.3 95210.3 20849.8 Q 95336.8 21666.3 95750.8 22091.8 Q 96164.8 22517.3 96693.8 22517.3 Q 97211.3 22517.3 97556.3 22229.8 Q 98004.8 21838.8 98154.3 21137.3 Q 98384.3 20044.8 98384.3 16721.3 Q 98384.3 14766.3 98165.8 14036.05 Q 97947.3 13305.8 97521.8 12972.3 Q 97222.8 12730.8 96739.8 12730.8  Z M 107791.3 12236.3 L 107791.3 13627.8 Q 108619.3 12730.8 109378.3 12322.55 Q 110137.3 11914.3 111011.3 11914.3 Q 112057.8 11914.3 112747.8 12495.05 Q 113437.8 13075.8 113667.8 13938.3 Q 113851.8 14593.8 113851.8 16456.8 L 113851.8 20642.8 Q 113851.8 21884.8 114076.05 22189.55 Q 114300.3 22494.3 115013.3 22574.8 L 115013.3 22988.8 L 109573.8 22988.8 L 109573.8 22574.8 Q 110183.3 22494.3 110447.8 22068.8 Q 110631.8 21781.3 110631.8 20642.8 L 110631.8 15858.8 Q 110631.8 14536.3 110528.3 14191.3 Q 110424.8 13846.3 110177.55 13656.55 Q 109930.3 13466.8 109631.3 13466.8 Q 108642.3 13466.8 107791.3 14881.3 L 107791.3 20642.8 Q 107791.3 21850.3 108015.55 22172.3 Q 108239.8 22494.3 108849.3 22574.8 L 108849.3 22988.8 L 103409.8 22988.8 L 103409.8 22574.8 Q 104088.3 22505.8 104375.8 22137.8 Q 104571.3 21884.8 104571.3 20642.8 L 104571.3 14570.8 Q 104571.3 13351.8 104347.05 13052.8 Q 104122.8 12753.8 103409.8 12661.8 L 103409.8 12236.3 L 107791.3 12236.3 Z " fill-rule="nonzero" style="fill:#76923c;;fill-opacity:1;"/>
</svg>