<svg version="1.1" x="0" y="0" width="100%" height="100%" viewBox="0 0 176896 85504" xmlns="http://www.w3.org/2000/svg">
  <path d="M 12272 19278.4 L 6524 19278.4 L 5840 20862.4 Q 5504 21654.4 5504 22170.4 Q 5504 22854.4 6056 23178.4 Q 6380 23370.4 7652 23466.4 L 7652 23910.4 L 2240 23910.4 L 2240 23466.4 Q 3116 23334.4 3680 22740.4 Q 4244 22146.4 5072 20286.4 L 10892 7302.4 L 11120 7302.4 L 16988 20646.4 Q 17828 22542.4 18368 23034.4 Q 18776 23406.4 19520 23466.4 L 19520 23910.4 L 11648 23910.4 L 11648 23466.4 L 11972 23466.4 Q 12920 23466.4 13304 23202.4 Q 13568 23010.4 13568 22650.4 Q 13568 22434.4 13496 22206.4 Q 13472 22098.4 13136 21306.4 L 12272 19278.4 Z M 11864 18390.4 L 9440 12786.4 L 6944 18390.4 L 11864 18390.4 Z M 36719.2 7266.4 L 36719.2 13002.4 L 36275.2 13002.4 Q 35471.2 10650.4 33863.2 9426.4 Q 32255.2 8202.4 30347.2 8202.4 Q 28523.2 8202.4 27311.2 9228.4 Q 26099.2 10254.4 25595.2 12090.4 Q 25091.2 13926.4 25091.2 15858.4 Q 25091.2 18198.4 25643.2 19962.4 Q 26195.2 21726.4 27425.2 22554.4 Q 28655.2 23382.4 30347.2 23382.4 Q 30935.2 23382.4 31553.2 23256.4 Q 32171.2 23130.4 32819.2 22890.4 L 32819.2 19506.4 Q 32819.2 18546.4 32687.2 18264.4 Q 32555.2 17982.4 32141.2 17754.4 Q 31727.2 17526.4 31139.2 17526.4 L 30719.2 17526.4 L 30719.2 17082.4 L 38627.2 17082.4 L 38627.2 17526.4 Q 37727.2 17586.4 37373.2 17772.4 Q 37019.2 17958.4 36827.2 18390.4 Q 36719.2 18618.4 36719.2 19506.4 L 36719.2 22890.4 Q 35159.2 23586.4 33473.2 23940.4 Q 31787.2 24294.4 29975.2 24294.4 Q 27659.2 24294.4 26129.2 23664.4 Q 24599.2 23034.4 23429.2 22008.4 Q 22259.2 20982.4 21599.2 19698.4 Q 20759.2 18042.4 20759.2 15990.4 Q 20759.2 12318.4 23339.2 9786.4 Q 25919.2 7254.4 29831.2 7254.4 Q 31043.2 7254.4 32015.2 7446.4 Q 32543.2 7542.4 33725.2 7992.4 Q 34907.2 8442.4 35123.2 8442.4 Q 35459.2 8442.4 35747.2 8196.4 Q 36035.2 7950.4 36275.2 7266.4 L 36719.2 7266.4 Z M 55264.8 7266.4 L 55264.8 12906.4 L 54796.8 12906.4 Q 54268.8 10698.4 52828.8 9522.4 Q 51388.8 8346.4 49564.8 8346.4 Q 48040.8 8346.4 46768.8 9222.4 Q 45496.8 10098.4 44908.8 11514.4 Q 44152.8 13326.4 44152.8 15546.4 Q 44152.8 17730.4 44704.8 19524.4 Q 45256.8 21318.4 46432.8 22236.4 Q 47608.8 23154.4 49480.8 23154.4 Q 51016.8 23154.4 52294.8 22482.4 Q 53572.8 21810.4 54988.8 20166.4 L 54988.8 21570.4 Q 53620.8 22998.4 52138.8 23640.4 Q 50656.8 24282.4 48676.8 24282.4 Q 46072.8 24282.4 44050.8 23238.4 Q 42028.8 22194.4 40930.8 20238.4 Q 39832.8 18282.4 39832.8 16074.4 Q 39832.8 13746.4 41050.8 11658.4 Q 42268.8 9570.4 44338.8 8418.4 Q 46408.8 7266.4 48736.8 7266.4 Q 50452.8 7266.4 52360.8 8010.4 Q 53464.8 8442.4 53764.8 8442.4 Q 54148.8 8442.4 54430.8 8160.4 Q 54712.8 7878.4 54796.8 7266.4 L 55264.8 7266.4 Z M 66800 19278.4 L 61052 19278.4 L 60368 20862.4 Q 60032 21654.4 60032 22170.4 Q 60032 22854.4 60584 23178.4 Q 60908 23370.4 62180 23466.4 L 62180 23910.4 L 56768 23910.4 L 56768 23466.4 Q 57644 23334.4 58208 22740.4 Q 58772 22146.4 59600 20286.4 L 65420 7302.4 L 65648 7302.4 L 71516 20646.4 Q 72356 22542.4 72896 23034.4 Q 73304 23406.4 74048 23466.4 L 74048 23910.4 L 66176 23910.4 L 66176 23466.4 L 66500 23466.4 Q 67448 23466.4 67832 23202.4 Q 68096 23010.4 68096 22650.4 Q 68096 22434.4 68024 22206.4 Q 68000 22098.4 67664 21306.4 L 66800 19278.4 Z M 66392 18390.4 L 63968 12786.4 L 61472 18390.4 L 66392 18390.4 Z M 84515.2 19278.4 L 78767.2 19278.4 L 78083.2 20862.4 Q 77747.2 21654.4 77747.2 22170.4 Q 77747.2 22854.4 78299.2 23178.4 Q 78623.2 23370.4 79895.2 23466.4 L 79895.2 23910.4 L 74483.2 23910.4 L 74483.2 23466.4 Q 75359.2 23334.4 75923.2 22740.4 Q 76487.2 22146.4 77315.2 20286.4 L 83135.2 7302.4 L 83363.2 7302.4 L 89231.2 20646.4 Q 90071.2 22542.4 90611.2 23034.4 Q 91019.2 23406.4 91763.2 23466.4 L 91763.2 23910.4 L 83891.2 23910.4 L 83891.2 23466.4 L 84215.2 23466.4 Q 85163.2 23466.4 85547.2 23202.4 Q 85811.2 23010.4 85811.2 22650.4 Q 85811.2 22434.4 85739.2 22206.4 Q 85715.2 22098.4 85379.2 21306.4 L 84515.2 19278.4 Z M 84107.2 18390.4 L 81683.2 12786.4 L 79187.2 18390.4 L 84107.2 18390.4 Z M 108410.4 7266.4 L 108410.4 12906.4 L 107942.4 12906.4 Q 107414.4 10698.4 105974.4 9522.4 Q 104534.4 8346.4 102710.4 8346.4 Q 101186.4 8346.4 99914.4 9222.4 Q 98642.4 10098.4 98054.4 11514.4 Q 97298.4 13326.4 97298.4 15546.4 Q 97298.4 17730.4 97850.4 19524.4 Q 98402.4 21318.4 99578.4 22236.4 Q 100754.4 23154.4 102626.4 23154.4 Q 104162.4 23154.4 105440.4 22482.4 Q 106718.4 21810.4 108134.4 20166.4 L 108134.4 21570.4 Q 106766.4 22998.4 105284.4 23640.4 Q 103802.4 24282.4 101822.4 24282.4 Q 99218.4 24282.4 97196.4 23238.4 Q 95174.4 22194.4 94076.4 20238.4 Q 92978.4 18282.4 92978.4 16074.4 Q 92978.4 13746.4 94196.4 11658.4 Q 95414.4 9570.4 97484.4 8418.4 Q 99554.4 7266.4 101882.4 7266.4 Q 103598.4 7266.4 105506.4 8010.4 Q 106610.4 8442.4 106910.4 8442.4 Q 107294.4 8442.4 107576.4 8160.4 Q 107858.4 7878.4 107942.4 7266.4 L 108410.4 7266.4 Z M 119945.6 19278.4 L 114197.6 19278.4 L 113513.6 20862.4 Q 113177.6 21654.4 113177.6 22170.4 Q 113177.6 22854.4 113729.6 23178.4 Q 114053.6 23370.4 115325.6 23466.4 L 115325.6 23910.4 L 109913.6 23910.4 L 109913.6 23466.4 Q 110789.6 23334.4 111353.6 22740.4 Q 111917.6 22146.4 112745.6 20286.4 L 118565.6 7302.4 L 118793.6 7302.4 L 124661.6 20646.4 Q 125501.6 22542.4 126041.6 23034.4 Q 126449.6 23406.4 127193.6 23466.4 L 127193.6 23910.4 L 119321.6 23910.4 L 119321.6 23466.4 L 119645.6 23466.4 Q 120593.6 23466.4 120977.6 23202.4 Q 121241.6 23010.4 121241.6 22650.4 Q 121241.6 22434.4 121169.6 22206.4 Q 121145.6 22098.4 120809.6 21306.4 L 119945.6 19278.4 Z M 119537.6 18390.4 L 117113.6 12786.4 L 114617.6 18390.4 L 119537.6 18390.4 Z M 137660.8 19278.4 L 131912.8 19278.4 L 131228.8 20862.4 Q 130892.8 21654.4 130892.8 22170.4 Q 130892.8 22854.4 131444.8 23178.4 Q 131768.8 23370.4 133040.8 23466.4 L 133040.8 23910.4 L 127628.8 23910.4 L 127628.8 23466.4 Q 128504.8 23334.4 129068.8 22740.4 Q 129632.8 22146.4 130460.8 20286.4 L 136280.8 7302.4 L 136508.8 7302.4 L 142376.8 20646.4 Q 143216.8 22542.4 143756.8 23034.4 Q 144164.8 23406.4 144908.8 23466.4 L 144908.8 23910.4 L 137036.8 23910.4 L 137036.8 23466.4 L 137360.8 23466.4 Q 138308.8 23466.4 138692.8 23202.4 Q 138956.8 23010.4 138956.8 22650.4 Q 138956.8 22434.4 138884.8 22206.4 Q 138860.8 22098.4 138524.8 21306.4 L 137660.8 19278.4 Z M 137252.8 18390.4 L 134828.8 12786.4 L 132332.8 18390.4 L 137252.8 18390.4 Z M 161556 7266.4 L 161556 12906.4 L 161088 12906.4 Q 160560 10698.4 159120 9522.4 Q 157680 8346.4 155856 8346.4 Q 154332 8346.4 153060 9222.4 Q 151788 10098.4 151200 11514.4 Q 150444 13326.4 150444 15546.4 Q 150444 17730.4 150996 19524.4 Q 151548 21318.4 152724 22236.4 Q 153900 23154.4 155772 23154.4 Q 157308 23154.4 158586 22482.4 Q 159864 21810.4 161280 20166.4 L 161280 21570.4 Q 159912 22998.4 158430 23640.4 Q 156948 24282.4 154968 24282.4 Q 152364 24282.4 150342 23238.4 Q 148320 22194.4 147222 20238.4 Q 146124 18282.4 146124 16074.4 Q 146124 13746.4 147342 11658.4 Q 148560 9570.4 150630 8418.4 Q 152700 7266.4 155028 7266.4 Q 156744 7266.4 158652 8010.4 Q 159756 8442.4 160056 8442.4 Q 160440 8442.4 160722 8160.4 Q 161004 7878.4 161088 7266.4 L 161556 7266.4 Z M 17552 34774.4 L 17552 39178.4 L 17120 39178.4 Q 16736 37654.4 16268 36988.4 Q 15800 36322.4 14984 35926.4 Q 14528 35710.4 13388 35710.4 L 12176 35710.4 L 12176 48262.4 Q 12176 49510.4 12314 49822.4 Q 12452 50134.4 12854 50368.4 Q 13256 50602.4 13952 50602.4 L 14492 50602.4 L 14492 51046.4 L 5972 51046.4 L 5972 50602.4 L 6512 50602.4 Q 7220 50602.4 7652 50350.4 Q 7964 50182.4 8144 49774.4 Q 8276 49486.4 8276 48262.4 L 8276 35710.4 L 7100 35710.4 Q 5456 35710.4 4712 36406.4 Q 3668 37378.4 3392 39178.4 L 2936 39178.4 L 2936 34774.4 L 17552 34774.4 Z M 28656 46414.4 L 22908 46414.4 L 22224 47998.4 Q 21888 48790.4 21888 49306.4 Q 21888 49990.4 22440 50314.4 Q 22764 50506.4 24036 50602.4 L 24036 51046.4 L 18624 51046.4 L 18624 50602.4 Q 19500 50470.4 20064 49876.4 Q 20628 49282.4 21456 47422.4 L 27276 34438.4 L 27504 34438.4 L 33372 47782.4 Q 34212 49678.4 34752 50170.4 Q 35160 50542.4 35904 50602.4 L 35904 51046.4 L 28032 51046.4 L 28032 50602.4 L 28356 50602.4 Q 29304 50602.4 29688 50338.4 Q 29952 50146.4 29952 49786.4 Q 29952 49570.4 29880 49342.4 Q 29856 49234.4 29520 48442.4 L 28656 46414.4 Z M 28248 45526.4 L 25824 39922.4 L 23328 45526.4 L 28248 45526.4 Z M 51651.2 34774.4 L 51651.2 39178.4 L 51219.2 39178.4 Q 50835.2 37654.4 50367.2 36988.4 Q 49899.2 36322.4 49083.2 35926.4 Q 48627.2 35710.4 47487.2 35710.4 L 46275.2 35710.4 L 46275.2 48262.4 Q 46275.2 49510.4 46413.2 49822.4 Q 46551.2 50134.4 46953.2 50368.4 Q 47355.2 50602.4 48051.2 50602.4 L 48591.2 50602.4 L 48591.2 51046.4 L 40071.2 51046.4 L 40071.2 50602.4 L 40611.2 50602.4 Q 41319.2 50602.4 41751.2 50350.4 Q 42063.2 50182.4 42243.2 49774.4 Q 42375.2 49486.4 42375.2 48262.4 L 42375.2 35710.4 L 41199.2 35710.4 Q 39555.2 35710.4 38811.2 36406.4 Q 37767.2 37378.4 37491.2 39178.4 L 37035.2 39178.4 L 37035.2 34774.4 L 51651.2 34774.4 Z M 62755.2 46414.4 L 57007.2 46414.4 L 56323.2 47998.4 Q 55987.2 48790.4 55987.2 49306.4 Q 55987.2 49990.4 56539.2 50314.4 Q 56863.2 50506.4 58135.2 50602.4 L 58135.2 51046.4 L 52723.2 51046.4 L 52723.2 50602.4 Q 53599.2 50470.4 54163.2 49876.4 Q 54727.2 49282.4 55555.2 47422.4 L 61375.2 34438.4 L 61603.2 34438.4 L 67471.2 47782.4 Q 68311.2 49678.4 68851.2 50170.4 Q 69259.2 50542.4 70003.2 50602.4 L 70003.2 51046.4 L 62131.2 51046.4 L 62131.2 50602.4 L 62455.2 50602.4 Q 63403.2 50602.4 63787.2 50338.4 Q 64051.2 50146.4 64051.2 49786.4 Q 64051.2 49570.4 63979.2 49342.4 Q 63955.2 49234.4 63619.2 48442.4 L 62755.2 46414.4 Z M 62347.2 45526.4 L 59923.2 39922.4 L 57427.2 45526.4 L 62347.2 45526.4 Z M 87202.4 34402.4 L 87202.4 40138.4 L 86758.4 40138.4 Q 85954.4 37786.4 84346.4 36562.4 Q 82738.4 35338.4 80830.4 35338.4 Q 79006.4 35338.4 77794.4 36364.4 Q 76582.4 37390.4 76078.4 39226.4 Q 75574.4 41062.4 75574.4 42994.4 Q 75574.4 45334.4 76126.4 47098.4 Q 76678.4 48862.4 77908.4 49690.4 Q 79138.4 50518.4 80830.4 50518.4 Q 81418.4 50518.4 82036.4 50392.4 Q 82654.4 50266.4 83302.4 50026.4 L 83302.4 46642.4 Q 83302.4 45682.4 83170.4 45400.4 Q 83038.4 45118.4 82624.4 44890.4 Q 82210.4 44662.4 81622.4 44662.4 L 81202.4 44662.4 L 81202.4 44218.4 L 89110.4 44218.4 L 89110.4 44662.4 Q 88210.4 44722.4 87856.4 44908.4 Q 87502.4 45094.4 87310.4 45526.4 Q 87202.4 45754.4 87202.4 46642.4 L 87202.4 50026.4 Q 85642.4 50722.4 83956.4 51076.4 Q 82270.4 51430.4 80458.4 51430.4 Q 78142.4 51430.4 76612.4 50800.4 Q 75082.4 50170.4 73912.4 49144.4 Q 72742.4 48118.4 72082.4 46834.4 Q 71242.4 45178.4 71242.4 43126.4 Q 71242.4 39454.4 73822.4 36922.4 Q 76402.4 34390.4 80314.4 34390.4 Q 81526.4 34390.4 82498.4 34582.4 Q 83026.4 34678.4 84208.4 35128.4 Q 85390.4 35578.4 85606.4 35578.4 Q 85942.4 35578.4 86230.4 35332.4 Q 86518.4 35086.4 86758.4 34402.4 L 87202.4 34402.4 Z M 99568 46414.4 L 93820 46414.4 L 93136 47998.4 Q 92800 48790.4 92800 49306.4 Q 92800 49990.4 93352 50314.4 Q 93676 50506.4 94948 50602.4 L 94948 51046.4 L 89536 51046.4 L 89536 50602.4 Q 90412 50470.4 90976 49876.4 Q 91540 49282.4 92368 47422.4 L 98188 34438.4 L 98416 34438.4 L 104284 47782.4 Q 105124 49678.4 105664 50170.4 Q 106072 50542.4 106816 50602.4 L 106816 51046.4 L 98944 51046.4 L 98944 50602.4 L 99268 50602.4 Q 100216 50602.4 100600 50338.4 Q 100864 50146.4 100864 49786.4 Q 100864 49570.4 100792 49342.4 Q 100768 49234.4 100432 48442.4 L 99568 46414.4 Z M 99160 45526.4 L 96736 39922.4 L 94240 45526.4 L 99160 45526.4 Z M 123463.2 34402.4 L 123463.2 40042.4 L 122995.2 40042.4 Q 122467.2 37834.4 121027.2 36658.4 Q 119587.2 35482.4 117763.2 35482.4 Q 116239.2 35482.4 114967.2 36358.4 Q 113695.2 37234.4 113107.2 38650.4 Q 112351.2 40462.4 112351.2 42682.4 Q 112351.2 44866.4 112903.2 46660.4 Q 113455.2 48454.4 114631.2 49372.4 Q 115807.2 50290.4 117679.2 50290.4 Q 119215.2 50290.4 120493.2 49618.4 Q 121771.2 48946.4 123187.2 47302.4 L 123187.2 48706.4 Q 121819.2 50134.4 120337.2 50776.4 Q 118855.2 51418.4 116875.2 51418.4 Q 114271.2 51418.4 112249.2 50374.4 Q 110227.2 49330.4 109129.2 47374.4 Q 108031.2 45418.4 108031.2 43210.4 Q 108031.2 40882.4 109249.2 38794.4 Q 110467.2 36706.4 112537.2 35554.4 Q 114607.2 34402.4 116935.2 34402.4 Q 118651.2 34402.4 120559.2 35146.4 Q 121663.2 35578.4 121963.2 35578.4 Q 122347.2 35578.4 122629.2 35296.4 Q 122911.2 35014.4 122995.2 34402.4 L 123463.2 34402.4 Z M 134998.4 46414.4 L 129250.4 46414.4 L 128566.4 47998.4 Q 128230.4 48790.4 128230.4 49306.4 Q 128230.4 49990.4 128782.4 50314.4 Q 129106.4 50506.4 130378.4 50602.4 L 130378.4 51046.4 L 124966.4 51046.4 L 124966.4 50602.4 Q 125842.4 50470.4 126406.4 49876.4 Q 126970.4 49282.4 127798.4 47422.4 L 133618.4 34438.4 L 133846.4 34438.4 L 139714.4 47782.4 Q 140554.4 49678.4 141094.4 50170.4 Q 141502.4 50542.4 142246.4 50602.4 L 142246.4 51046.4 L 134374.4 51046.4 L 134374.4 50602.4 L 134698.4 50602.4 Q 135646.4 50602.4 136030.4 50338.4 Q 136294.4 50146.4 136294.4 49786.4 Q 136294.4 49570.4 136222.4 49342.4 Q 136198.4 49234.4 135862.4 48442.4 L 134998.4 46414.4 Z M 134590.4 45526.4 L 132166.4 39922.4 L 129670.4 45526.4 L 134590.4 45526.4 Z M 152713.6 46414.4 L 146965.6 46414.4 L 146281.6 47998.4 Q 145945.6 48790.4 145945.6 49306.4 Q 145945.6 49990.4 146497.6 50314.4 Q 146821.6 50506.4 148093.6 50602.4 L 148093.6 51046.4 L 142681.6 51046.4 L 142681.6 50602.4 Q 143557.6 50470.4 144121.6 49876.4 Q 144685.6 49282.4 145513.6 47422.4 L 151333.6 34438.4 L 151561.6 34438.4 L 157429.6 47782.4 Q 158269.6 49678.4 158809.6 50170.4 Q 159217.6 50542.4 159961.6 50602.4 L 159961.6 51046.4 L 152089.6 51046.4 L 152089.6 50602.4 L 152413.6 50602.4 Q 153361.6 50602.4 153745.6 50338.4 Q 154009.6 50146.4 154009.6 49786.4 Q 154009.6 49570.4 153937.6 49342.4 Q 153913.6 49234.4 153577.6 48442.4 L 152713.6 46414.4 Z M 152305.6 45526.4 L 149881.6 39922.4 L 147385.6 45526.4 L 152305.6 45526.4 Z M 17552 61910.4 L 17552 66314.4 L 17120 66314.4 Q 16736 64790.4 16268 64124.4 Q 15800 63458.4 14984 63062.4 Q 14528 62846.4 13388 62846.4 L 12176 62846.4 L 12176 75398.4 Q 12176 76646.4 12314 76958.4 Q 12452 77270.4 12854 77504.4 Q 13256 77738.4 13952 77738.4 L 14492 77738.4 L 14492 78182.4 L 5972 78182.4 L 5972 77738.4 L 6512 77738.4 Q 7220 77738.4 7652 77486.4 Q 7964 77318.4 8144 76910.4 Q 8276 76622.4 8276 75398.4 L 8276 62846.4 L 7100 62846.4 Q 5456 62846.4 4712 63542.4 Q 3668 64514.4 3392 66314.4 L 2936 66314.4 L 2936 61910.4 L 17552 61910.4 Z M 35388 61538.4 L 35388 67274.4 L 34944 67274.4 Q 34140 64922.4 32532 63698.4 Q 30924 62474.4 29016 62474.4 Q 27192 62474.4 25980 63500.4 Q 24768 64526.4 24264 66362.4 Q 23760 68198.4 23760 70130.4 Q 23760 72470.4 24312 74234.4 Q 24864 75998.4 26094 76826.4 Q 27324 77654.4 29016 77654.4 Q 29604 77654.4 30222 77528.4 Q 30840 77402.4 31488 77162.4 L 31488 73778.4 Q 31488 72818.4 31356 72536.4 Q 31224 72254.4 30810 72026.4 Q 30396 71798.4 29808 71798.4 L 29388 71798.4 L 29388 71354.4 L 37296 71354.4 L 37296 71798.4 Q 36396 71858.4 36042 72044.4 Q 35688 72230.4 35496 72662.4 Q 35388 72890.4 35388 73778.4 L 35388 77162.4 Q 33828 77858.4 32142 78212.4 Q 30456 78566.4 28644 78566.4 Q 26328 78566.4 24798 77936.4 Q 23268 77306.4 22098 76280.4 Q 20928 75254.4 20268 73970.4 Q 19428 72314.4 19428 70262.4 Q 19428 66590.4 22008 64058.4 Q 24588 61526.4 28500 61526.4 Q 29712 61526.4 30684 61718.4 Q 31212 61814.4 32394 62264.4 Q 33576 62714.4 33792 62714.4 Q 34128 62714.4 34416 62468.4 Q 34704 62222.4 34944 61538.4 L 35388 61538.4 Z M 53033.6 61910.4 L 53033.6 66314.4 L 52601.6 66314.4 Q 52217.6 64790.4 51749.6 64124.4 Q 51281.6 63458.4 50465.6 63062.4 Q 50009.6 62846.4 48869.6 62846.4 L 47657.6 62846.4 L 47657.6 75398.4 Q 47657.6 76646.4 47795.6 76958.4 Q 47933.6 77270.4 48335.6 77504.4 Q 48737.6 77738.4 49433.6 77738.4 L 49973.6 77738.4 L 49973.6 78182.4 L 41453.6 78182.4 L 41453.6 77738.4 L 41993.6 77738.4 Q 42701.6 77738.4 43133.6 77486.4 Q 43445.6 77318.4 43625.6 76910.4 Q 43757.6 76622.4 43757.6 75398.4 L 43757.6 62846.4 L 42581.6 62846.4 Q 40937.6 62846.4 40193.6 63542.4 Q 39149.6 64514.4 38873.6 66314.4 L 38417.6 66314.4 L 38417.6 61910.4 L 53033.6 61910.4 Z M 70317.6 61538.4 L 70317.6 67178.4 L 69849.6 67178.4 Q 69321.6 64970.4 67881.6 63794.4 Q 66441.6 62618.4 64617.6 62618.4 Q 63093.6 62618.4 61821.6 63494.4 Q 60549.6 64370.4 59961.6 65786.4 Q 59205.6 67598.4 59205.6 69818.4 Q 59205.6 72002.4 59757.6 73796.4 Q 60309.6 75590.4 61485.6 76508.4 Q 62661.6 77426.4 64533.6 77426.4 Q 66069.6 77426.4 67347.6 76754.4 Q 68625.6 76082.4 70041.6 74438.4 L 70041.6 75842.4 Q 68673.6 77270.4 67191.6 77912.4 Q 65709.6 78554.4 63729.6 78554.4 Q 61125.6 78554.4 59103.6 77510.4 Q 57081.6 76466.4 55983.6 74510.4 Q 54885.6 72554.4 54885.6 70346.4 Q 54885.6 68018.4 56103.6 65930.4 Q 57321.6 63842.4 59391.6 62690.4 Q 61461.6 61538.4 63789.6 61538.4 Q 65505.6 61538.4 67413.6 62282.4 Q 68517.6 62714.4 68817.6 62714.4 Q 69201.6 62714.4 69483.6 62432.4 Q 69765.6 62150.4 69849.6 61538.4 L 70317.6 61538.4 Z M 81852.8 73550.4 L 76104.8 73550.4 L 75420.8 75134.4 Q 75084.8 75926.4 75084.8 76442.4 Q 75084.8 77126.4 75636.8 77450.4 Q 75960.8 77642.4 77232.8 77738.4 L 77232.8 78182.4 L 71820.8 78182.4 L 71820.8 77738.4 Q 72696.8 77606.4 73260.8 77012.4 Q 73824.8 76418.4 74652.8 74558.4 L 80472.8 61574.4 L 80700.8 61574.4 L 86568.8 74918.4 Q 87408.8 76814.4 87948.8 77306.4 Q 88356.8 77678.4 89100.8 77738.4 L 89100.8 78182.4 L 81228.8 78182.4 L 81228.8 77738.4 L 81552.8 77738.4 Q 82500.8 77738.4 82884.8 77474.4 Q 83148.8 77282.4 83148.8 76922.4 Q 83148.8 76706.4 83076.8 76478.4 Q 83052.8 76370.4 82716.8 75578.4 L 81852.8 73550.4 Z M 81444.8 72662.4 L 79020.8 67058.4 L 76524.8 72662.4 L 81444.8 72662.4 Z " fill-rule="nonzero" style="fill:#e36c09;;fill-opacity:1;"/>
</svg>