<svg version="1.1" x="0" y="0" width="100%" height="100%" viewBox="0 0 601036.8 32716.8" xmlns="http://www.w3.org/2000/svg">
  <path d="M 3813.2 23498.8 Q 3813.2 23042.8 3933.2 22724.8 Q 4053.2 22406.8 4257.2 22208.8 Q 4461.2 22010.8 4737.2 21920.8 Q 5013.2 21830.8 5336 21830.8 Q 5648 21830.8 5930 21920.8 Q 6212 22010.8 6416 22208.8 Q 6620 22406.8 6740 22724.8 Q 6860 23042.8 6860 23498.8 Q 6860 23944 6740 24262 Q 6620 24580 6416 24785.2 Q 6212 24990.4 5930 25086.4 Q 5648 25182.4 5336 25182.4 Q 5013.2 25182.4 4737.2 25086.4 Q 4461.2 24990.4 4257.2 24785.2 Q 4053.2 24580 3933.2 24262 Q 3813.2 23944 3813.2 23498.8  Z M 10315.6 23498.8 Q 10315.6 23042.8 10435.6 22724.8 Q 10555.6 22406.8 10759.6 22208.8 Q 10963.6 22010.8 11239.6 21920.8 Q 11515.6 21830.8 11838.4 21830.8 Q 12150.4 21830.8 12432.4 21920.8 Q 12714.4 22010.8 12918.4 22208.8 Q 13122.4 22406.8 13242.4 22724.8 Q 13362.4 23042.8 13362.4 23498.8 Q 13362.4 23944 13242.4 24262 Q 13122.4 24580 12918.4 24785.2 Q 12714.4 24990.4 12432.4 25086.4 Q 12150.4 25182.4 11838.4 25182.4 Q 11515.6 25182.4 11239.6 25086.4 Q 10963.6 24990.4 10759.6 24785.2 Q 10555.6 24580 10435.6 24262 Q 10315.6 23944 10315.6 23498.8  Z M 16818 23498.8 Q 16818 23042.8 16938 22724.8 Q 17058 22406.8 17262 22208.8 Q 17466 22010.8 17742 21920.8 Q 18018 21830.8 18340.8 21830.8 Q 18652.8 21830.8 18934.8 21920.8 Q 19216.8 22010.8 19420.8 22208.8 Q 19624.8 22406.8 19744.8 22724.8 Q 19864.8 23042.8 19864.8 23498.8 Q 19864.8 23944 19744.8 24262 Q 19624.8 24580 19420.8 24785.2 Q 19216.8 24990.4 18934.8 25086.4 Q 18652.8 25182.4 18340.8 25182.4 Q 18018 25182.4 17742 25086.4 Q 17466 24990.4 17262 24785.2 Q 17058 24580 16938 24262 Q 16818 23944 16818 23498.8  Z M 23320.4 23498.8 Q 23320.4 23042.8 23440.4 22724.8 Q 23560.4 22406.8 23764.4 22208.8 Q 23968.4 22010.8 24244.4 21920.8 Q 24520.4 21830.8 24843.2 21830.8 Q 25155.2 21830.8 25437.2 21920.8 Q 25719.2 22010.8 25923.2 22208.8 Q 26127.2 22406.8 26247.2 22724.8 Q 26367.2 23042.8 26367.2 23498.8 Q 26367.2 23944 26247.2 24262 Q 26127.2 24580 25923.2 24785.2 Q 25719.2 24990.4 25437.2 25086.4 Q 25155.2 25182.4 24843.2 25182.4 Q 24520.4 25182.4 24244.4 25086.4 Q 23968.4 24990.4 23764.4 24785.2 Q 23560.4 24580 23440.4 24262 Q 23320.4 23944 23320.4 23498.8  Z M 29822.8 23498.8 Q 29822.8 23042.8 29942.8 22724.8 Q 30062.8 22406.8 30266.8 22208.8 Q 30470.8 22010.8 30746.8 21920.8 Q 31022.8 21830.8 31345.6 21830.8 Q 31657.6 21830.8 31939.6 21920.8 Q 32221.6 22010.8 32425.6 22208.8 Q 32629.6 22406.8 32749.6 22724.8 Q 32869.6 23042.8 32869.6 23498.8 Q 32869.6 23944 32749.6 24262 Q 32629.6 24580 32425.6 24785.2 Q 32221.6 24990.4 31939.6 25086.4 Q 31657.6 25182.4 31345.6 25182.4 Q 31022.8 25182.4 30746.8 25086.4 Q 30470.8 24990.4 30266.8 24785.2 Q 30062.8 24580 29942.8 24262 Q 29822.8 23944 29822.8 23498.8  Z M 36325.2 23498.8 Q 36325.2 23042.8 36445.2 22724.8 Q 36565.2 22406.8 36769.2 22208.8 Q 36973.2 22010.8 37249.2 21920.8 Q 37525.2 21830.8 37848 21830.8 Q 38160 21830.8 38442 21920.8 Q 38724 22010.8 38928 22208.8 Q 39132 22406.8 39252 22724.8 Q 39372 23042.8 39372 23498.8 Q 39372 23944 39252 24262 Q 39132 24580 38928 24785.2 Q 38724 24990.4 38442 25086.4 Q 38160 25182.4 37848 25182.4 Q 37525.2 25182.4 37249.2 25086.4 Q 36973.2 24990.4 36769.2 24785.2 Q 36565.2 24580 36445.2 24262 Q 36325.2 23944 36325.2 23498.8  Z M 42827.6 23498.8 Q 42827.6 23042.8 42947.6 22724.8 Q 43067.6 22406.8 43271.6 22208.8 Q 43475.6 22010.8 43751.6 21920.8 Q 44027.6 21830.8 44350.4 21830.8 Q 44662.4 21830.8 44944.4 21920.8 Q 45226.4 22010.8 45430.4 22208.8 Q 45634.4 22406.8 45754.4 22724.8 Q 45874.4 23042.8 45874.4 23498.8 Q 45874.4 23944 45754.4 24262 Q 45634.4 24580 45430.4 24785.2 Q 45226.4 24990.4 44944.4 25086.4 Q 44662.4 25182.4 44350.4 25182.4 Q 44027.6 25182.4 43751.6 25086.4 Q 43475.6 24990.4 43271.6 24785.2 Q 43067.6 24580 42947.6 24262 Q 42827.6 23944 42827.6 23498.8  Z M 49330 23498.8 Q 49330 23042.8 49450 22724.8 Q 49570 22406.8 49774 22208.8 Q 49978 22010.8 50254 21920.8 Q 50530 21830.8 50852.8 21830.8 Q 51164.8 21830.8 51446.8 21920.8 Q 51728.8 22010.8 51932.8 22208.8 Q 52136.8 22406.8 52256.8 22724.8 Q 52376.8 23042.8 52376.8 23498.8 Q 52376.8 23944 52256.8 24262 Q 52136.8 24580 51932.8 24785.2 Q 51728.8 24990.4 51446.8 25086.4 Q 51164.8 25182.4 50852.8 25182.4 Q 50530 25182.4 50254 25086.4 Q 49978 24990.4 49774 24785.2 Q 49570 24580 49450 24262 Q 49330 23944 49330 23498.8  Z M 55832.4 23498.8 Q 55832.4 23042.8 55952.4 22724.8 Q 56072.4 22406.8 56276.4 22208.8 Q 56480.4 22010.8 56756.4 21920.8 Q 57032.4 21830.8 57355.2 21830.8 Q 57667.2 21830.8 57949.2 21920.8 Q 58231.2 22010.8 58435.2 22208.8 Q 58639.2 22406.8 58759.2 22724.8 Q 58879.2 23042.8 58879.2 23498.8 Q 58879.2 23944 58759.2 24262 Q 58639.2 24580 58435.2 24785.2 Q 58231.2 24990.4 57949.2 25086.4 Q 57667.2 25182.4 57355.2 25182.4 Q 57032.4 25182.4 56756.4 25086.4 Q 56480.4 24990.4 56276.4 24785.2 Q 56072.4 24580 55952.4 24262 Q 55832.4 23944 55832.4 23498.8  Z M 62334.8 23498.8 Q 62334.8 23042.8 62454.8 22724.8 Q 62574.8 22406.8 62778.8 22208.8 Q 62982.8 22010.8 63258.8 21920.8 Q 63534.8 21830.8 63857.6 21830.8 Q 64169.6 21830.8 64451.6 21920.8 Q 64733.6 22010.8 64937.6 22208.8 Q 65141.6 22406.8 65261.6 22724.8 Q 65381.6 23042.8 65381.6 23498.8 Q 65381.6 23944 65261.6 24262 Q 65141.6 24580 64937.6 24785.2 Q 64733.6 24990.4 64451.6 25086.4 Q 64169.6 25182.4 63857.6 25182.4 Q 63534.8 25182.4 63258.8 25086.4 Q 62982.8 24990.4 62778.8 24785.2 Q 62574.8 24580 62454.8 24262 Q 62334.8 23944 62334.8 23498.8  Z M 68837.2 23498.8 Q 68837.2 23042.8 68957.2 22724.8 Q 69077.2 22406.8 69281.2 22208.8 Q 69485.2 22010.8 69761.2 21920.8 Q 70037.2 21830.8 70360 21830.8 Q 70672 21830.8 70954 21920.8 Q 71236 22010.8 71440 22208.8 Q 71644 22406.8 71764 22724.8 Q 71884 23042.8 71884 23498.8 Q 71884 23944 71764 24262 Q 71644 24580 71440 24785.2 Q 71236 24990.4 70954 25086.4 Q 70672 25182.4 70360 25182.4 Q 70037.2 25182.4 69761.2 25086.4 Q 69485.2 24990.4 69281.2 24785.2 Q 69077.2 24580 68957.2 24262 Q 68837.2 23944 68837.2 23498.8  Z M 75339.6 23498.8 Q 75339.6 23042.8 75459.6 22724.8 Q 75579.6 22406.8 75783.6 22208.8 Q 75987.6 22010.8 76263.6 21920.8 Q 76539.6 21830.8 76862.4 21830.8 Q 77174.4 21830.8 77456.4 21920.8 Q 77738.4 22010.8 77942.4 22208.8 Q 78146.4 22406.8 78266.4 22724.8 Q 78386.4 23042.8 78386.4 23498.8 Q 78386.4 23944 78266.4 24262 Q 78146.4 24580 77942.4 24785.2 Q 77738.4 24990.4 77456.4 25086.4 Q 77174.4 25182.4 76862.4 25182.4 Q 76539.6 25182.4 76263.6 25086.4 Q 75987.6 24990.4 75783.6 24785.2 Q 75579.6 24580 75459.6 24262 Q 75339.6 23944 75339.6 23498.8  Z M 81842 23498.8 Q 81842 23042.8 81962 22724.8 Q 82082 22406.8 82286 22208.8 Q 82490 22010.8 82766 21920.8 Q 83042 21830.8 83364.8 21830.8 Q 83676.8 21830.8 83958.8 21920.8 Q 84240.8 22010.8 84444.8 22208.8 Q 84648.8 22406.8 84768.8 22724.8 Q 84888.8 23042.8 84888.8 23498.8 Q 84888.8 23944 84768.8 24262 Q 84648.8 24580 84444.8 24785.2 Q 84240.8 24990.4 83958.8 25086.4 Q 83676.8 25182.4 83364.8 25182.4 Q 83042 25182.4 82766 25086.4 Q 82490 24990.4 82286 24785.2 Q 82082 24580 81962 24262 Q 81842 23944 81842 23498.8  Z M 88344.4 23498.8 Q 88344.4 23042.8 88464.4 22724.8 Q 88584.4 22406.8 88788.4 22208.8 Q 88992.4 22010.8 89268.4 21920.8 Q 89544.4 21830.8 89867.2 21830.8 Q 90179.2 21830.8 90461.2 21920.8 Q 90743.2 22010.8 90947.2 22208.8 Q 91151.2 22406.8 91271.2 22724.8 Q 91391.2 23042.8 91391.2 23498.8 Q 91391.2 23944 91271.2 24262 Q 91151.2 24580 90947.2 24785.2 Q 90743.2 24990.4 90461.2 25086.4 Q 90179.2 25182.4 89867.2 25182.4 Q 89544.4 25182.4 89268.4 25086.4 Q 88992.4 24990.4 88788.4 24785.2 Q 88584.4 24580 88464.4 24262 Q 88344.4 23944 88344.4 23498.8  Z M 94846.8 23498.8 Q 94846.8 23042.8 94966.8 22724.8 Q 95086.8 22406.8 95290.8 22208.8 Q 95494.8 22010.8 95770.8 21920.8 Q 96046.8 21830.8 96369.6 21830.8 Q 96681.6 21830.8 96963.6 21920.8 Q 97245.6 22010.8 97449.6 22208.8 Q 97653.6 22406.8 97773.6 22724.8 Q 97893.6 23042.8 97893.6 23498.8 Q 97893.6 23944 97773.6 24262 Q 97653.6 24580 97449.6 24785.2 Q 97245.6 24990.4 96963.6 25086.4 Q 96681.6 25182.4 96369.6 25182.4 Q 96046.8 25182.4 95770.8 25086.4 Q 95494.8 24990.4 95290.8 24785.2 Q 95086.8 24580 94966.8 24262 Q 94846.8 23944 94846.8 23498.8  Z M 101349.2 23498.8 Q 101349.2 23042.8 101469.2 22724.8 Q 101589.2 22406.8 101793.2 22208.8 Q 101997.2 22010.8 102273.2 21920.8 Q 102549.2 21830.8 102872 21830.8 Q 103184 21830.8 103466 21920.8 Q 103748 22010.8 103952 22208.8 Q 104156 22406.8 104276 22724.8 Q 104396 23042.8 104396 23498.8 Q 104396 23944 104276 24262 Q 104156 24580 103952 24785.2 Q 103748 24990.4 103466 25086.4 Q 103184 25182.4 102872 25182.4 Q 102549.2 25182.4 102273.2 25086.4 Q 101997.2 24990.4 101793.2 24785.2 Q 101589.2 24580 101469.2 24262 Q 101349.2 23944 101349.2 23498.8  Z M 107851.6 23498.8 Q 107851.6 23042.8 107971.6 22724.8 Q 108091.6 22406.8 108295.6 22208.8 Q 108499.6 22010.8 108775.6 21920.8 Q 109051.6 21830.8 109374.4 21830.8 Q 109686.4 21830.8 109968.4 21920.8 Q 110250.4 22010.8 110454.4 22208.8 Q 110658.4 22406.8 110778.4 22724.8 Q 110898.4 23042.8 110898.4 23498.8 Q 110898.4 23944 110778.4 24262 Q 110658.4 24580 110454.4 24785.2 Q 110250.4 24990.4 109968.4 25086.4 Q 109686.4 25182.4 109374.4 25182.4 Q 109051.6 25182.4 108775.6 25086.4 Q 108499.6 24990.4 108295.6 24785.2 Q 108091.6 24580 107971.6 24262 Q 107851.6 23944 107851.6 23498.8  Z M 114354 23498.8 Q 114354 23042.8 114474 22724.8 Q 114594 22406.8 114798 22208.8 Q 115002 22010.8 115278 21920.8 Q 115554 21830.8 115876.8 21830.8 Q 116188.8 21830.8 116470.8 21920.8 Q 116752.8 22010.8 116956.8 22208.8 Q 117160.8 22406.8 117280.8 22724.8 Q 117400.8 23042.8 117400.8 23498.8 Q 117400.8 23944 117280.8 24262 Q 117160.8 24580 116956.8 24785.2 Q 116752.8 24990.4 116470.8 25086.4 Q 116188.8 25182.4 115876.8 25182.4 Q 115554 25182.4 115278 25086.4 Q 115002 24990.4 114798 24785.2 Q 114594 24580 114474 24262 Q 114354 23944 114354 23498.8  Z M 120856.4 23498.8 Q 120856.4 23042.8 120976.4 22724.8 Q 121096.4 22406.8 121300.4 22208.8 Q 121504.4 22010.8 121780.4 21920.8 Q 122056.4 21830.8 122379.2 21830.8 Q 122691.2 21830.8 122973.2 21920.8 Q 123255.2 22010.8 123459.2 22208.8 Q 123663.2 22406.8 123783.2 22724.8 Q 123903.2 23042.8 123903.2 23498.8 Q 123903.2 23944 123783.2 24262 Q 123663.2 24580 123459.2 24785.2 Q 123255.2 24990.4 122973.2 25086.4 Q 122691.2 25182.4 122379.2 25182.4 Q 122056.4 25182.4 121780.4 25086.4 Q 121504.4 24990.4 121300.4 24785.2 Q 121096.4 24580 120976.4 24262 Q 120856.4 23944 120856.4 23498.8  Z M 127358.8 23498.8 Q 127358.8 23042.8 127478.8 22724.8 Q 127598.8 22406.8 127802.8 22208.8 Q 128006.8 22010.8 128282.8 21920.8 Q 128558.8 21830.8 128881.6 21830.8 Q 129193.6 21830.8 129475.6 21920.8 Q 129757.6 22010.8 129961.6 22208.8 Q 130165.6 22406.8 130285.6 22724.8 Q 130405.6 23042.8 130405.6 23498.8 Q 130405.6 23944 130285.6 24262 Q 130165.6 24580 129961.6 24785.2 Q 129757.6 24990.4 129475.6 25086.4 Q 129193.6 25182.4 128881.6 25182.4 Q 128558.8 25182.4 128282.8 25086.4 Q 128006.8 24990.4 127802.8 24785.2 Q 127598.8 24580 127478.8 24262 Q 127358.8 23944 127358.8 23498.8  Z M 133861.2 23498.8 Q 133861.2 23042.8 133981.2 22724.8 Q 134101.2 22406.8 134305.2 22208.8 Q 134509.2 22010.8 134785.2 21920.8 Q 135061.2 21830.8 135384 21830.8 Q 135696 21830.8 135978 21920.8 Q 136260 22010.8 136464 22208.8 Q 136668 22406.8 136788 22724.8 Q 136908 23042.8 136908 23498.8 Q 136908 23944 136788 24262 Q 136668 24580 136464 24785.2 Q 136260 24990.4 135978 25086.4 Q 135696 25182.4 135384 25182.4 Q 135061.2 25182.4 134785.2 25086.4 Q 134509.2 24990.4 134305.2 24785.2 Q 134101.2 24580 133981.2 24262 Q 133861.2 23944 133861.2 23498.8  Z M 140363.6 23498.8 Q 140363.6 23042.8 140483.6 22724.8 Q 140603.6 22406.8 140807.6 22208.8 Q 141011.6 22010.8 141287.6 21920.8 Q 141563.6 21830.8 141886.4 21830.8 Q 142198.4 21830.8 142480.4 21920.8 Q 142762.4 22010.8 142966.4 22208.8 Q 143170.4 22406.8 143290.4 22724.8 Q 143410.4 23042.8 143410.4 23498.8 Q 143410.4 23944 143290.4 24262 Q 143170.4 24580 142966.4 24785.2 Q 142762.4 24990.4 142480.4 25086.4 Q 142198.4 25182.4 141886.4 25182.4 Q 141563.6 25182.4 141287.6 25086.4 Q 141011.6 24990.4 140807.6 24785.2 Q 140603.6 24580 140483.6 24262 Q 140363.6 23944 140363.6 23498.8  Z M 146866 23498.8 Q 146866 23042.8 146986 22724.8 Q 147106 22406.8 147310 22208.8 Q 147514 22010.8 147790 21920.8 Q 148066 21830.8 148388.8 21830.8 Q 148700.8 21830.8 148982.8 21920.8 Q 149264.8 22010.8 149468.8 22208.8 Q 149672.8 22406.8 149792.8 22724.8 Q 149912.8 23042.8 149912.8 23498.8 Q 149912.8 23944 149792.8 24262 Q 149672.8 24580 149468.8 24785.2 Q 149264.8 24990.4 148982.8 25086.4 Q 148700.8 25182.4 148388.8 25182.4 Q 148066 25182.4 147790 25086.4 Q 147514 24990.4 147310 24785.2 Q 147106 24580 146986 24262 Q 146866 23944 146866 23498.8  Z M 153368.4 23498.8 Q 153368.4 23042.8 153488.4 22724.8 Q 153608.4 22406.8 153812.4 22208.8 Q 154016.4 22010.8 154292.4 21920.8 Q 154568.4 21830.8 154891.2 21830.8 Q 155203.2 21830.8 155485.2 21920.8 Q 155767.2 22010.8 155971.2 22208.8 Q 156175.2 22406.8 156295.2 22724.8 Q 156415.2 23042.8 156415.2 23498.8 Q 156415.2 23944 156295.2 24262 Q 156175.2 24580 155971.2 24785.2 Q 155767.2 24990.4 155485.2 25086.4 Q 155203.2 25182.4 154891.2 25182.4 Q 154568.4 25182.4 154292.4 25086.4 Q 154016.4 24990.4 153812.4 24785.2 Q 153608.4 24580 153488.4 24262 Q 153368.4 23944 153368.4 23498.8  Z M 159870.8 23498.8 Q 159870.8 23042.8 159990.8 22724.8 Q 160110.8 22406.8 160314.8 22208.8 Q 160518.8 22010.8 160794.8 21920.8 Q 161070.8 21830.8 161393.6 21830.8 Q 161705.6 21830.8 161987.6 21920.8 Q 162269.6 22010.8 162473.6 22208.8 Q 162677.6 22406.8 162797.6 22724.8 Q 162917.6 23042.8 162917.6 23498.8 Q 162917.6 23944 162797.6 24262 Q 162677.6 24580 162473.6 24785.2 Q 162269.6 24990.4 161987.6 25086.4 Q 161705.6 25182.4 161393.6 25182.4 Q 161070.8 25182.4 160794.8 25086.4 Q 160518.8 24990.4 160314.8 24785.2 Q 160110.8 24580 159990.8 24262 Q 159870.8 23944 159870.8 23498.8  Z M 166373.2 23498.8 Q 166373.2 23042.8 166493.2 22724.8 Q 166613.2 22406.8 166817.2 22208.8 Q 167021.2 22010.8 167297.2 21920.8 Q 167573.2 21830.8 167896 21830.8 Q 168208 21830.8 168490 21920.8 Q 168772 22010.8 168976 22208.8 Q 169180 22406.8 169300 22724.8 Q 169420 23042.8 169420 23498.8 Q 169420 23944 169300 24262 Q 169180 24580 168976 24785.2 Q 168772 24990.4 168490 25086.4 Q 168208 25182.4 167896 25182.4 Q 167573.2 25182.4 167297.2 25086.4 Q 167021.2 24990.4 166817.2 24785.2 Q 166613.2 24580 166493.2 24262 Q 166373.2 23944 166373.2 23498.8  Z M 172875.6 23498.8 Q 172875.6 23042.8 172995.6 22724.8 Q 173115.6 22406.8 173319.6 22208.8 Q 173523.6 22010.8 173799.6 21920.8 Q 174075.6 21830.8 174398.4 21830.8 Q 174710.4 21830.8 174992.4 21920.8 Q 175274.4 22010.8 175478.4 22208.8 Q 175682.4 22406.8 175802.4 22724.8 Q 175922.4 23042.8 175922.4 23498.8 Q 175922.4 23944 175802.4 24262 Q 175682.4 24580 175478.4 24785.2 Q 175274.4 24990.4 174992.4 25086.4 Q 174710.4 25182.4 174398.4 25182.4 Q 174075.6 25182.4 173799.6 25086.4 Q 173523.6 24990.4 173319.6 24785.2 Q 173115.6 24580 172995.6 24262 Q 172875.6 23944 172875.6 23498.8  Z M 179378 23498.8 Q 179378 23042.8 179498 22724.8 Q 179618 22406.8 179822 22208.8 Q 180026 22010.8 180302 21920.8 Q 180578 21830.8 180900.8 21830.8 Q 181212.8 21830.8 181494.8 21920.8 Q 181776.8 22010.8 181980.8 22208.8 Q 182184.8 22406.8 182304.8 22724.8 Q 182424.8 23042.8 182424.8 23498.8 Q 182424.8 23944 182304.8 24262 Q 182184.8 24580 181980.8 24785.2 Q 181776.8 24990.4 181494.8 25086.4 Q 181212.8 25182.4 180900.8 25182.4 Q 180578 25182.4 180302 25086.4 Q 180026 24990.4 179822 24785.2 Q 179618 24580 179498 24262 Q 179378 23944 179378 23498.8  Z M 185880.4 23498.8 Q 185880.4 23042.8 186000.4 22724.8 Q 186120.4 22406.8 186324.4 22208.8 Q 186528.4 22010.8 186804.4 21920.8 Q 187080.4 21830.8 187403.2 21830.8 Q 187715.2 21830.8 187997.2 21920.8 Q 188279.2 22010.8 188483.2 22208.8 Q 188687.2 22406.8 188807.2 22724.8 Q 188927.2 23042.8 188927.2 23498.8 Q 188927.2 23944 188807.2 24262 Q 188687.2 24580 188483.2 24785.2 Q 188279.2 24990.4 187997.2 25086.4 Q 187715.2 25182.4 187403.2 25182.4 Q 187080.4 25182.4 186804.4 25086.4 Q 186528.4 24990.4 186324.4 24785.2 Q 186120.4 24580 186000.4 24262 Q 185880.4 23944 185880.4 23498.8  Z M 192382.8 23498.8 Q 192382.8 23042.8 192502.8 22724.8 Q 192622.8 22406.8 192826.8 22208.8 Q 193030.8 22010.8 193306.8 21920.8 Q 193582.8 21830.8 193905.6 21830.8 Q 194217.6 21830.8 194499.6 21920.8 Q 194781.6 22010.8 194985.6 22208.8 Q 195189.6 22406.8 195309.6 22724.8 Q 195429.6 23042.8 195429.6 23498.8 Q 195429.6 23944 195309.6 24262 Q 195189.6 24580 194985.6 24785.2 Q 194781.6 24990.4 194499.6 25086.4 Q 194217.6 25182.4 193905.6 25182.4 Q 193582.8 25182.4 193306.8 25086.4 Q 193030.8 24990.4 192826.8 24785.2 Q 192622.8 24580 192502.8 24262 Q 192382.8 23944 192382.8 23498.8  Z M 198885.2 23498.8 Q 198885.2 23042.8 199005.2 22724.8 Q 199125.2 22406.8 199329.2 22208.8 Q 199533.2 22010.8 199809.2 21920.8 Q 200085.2 21830.8 200408 21830.8 Q 200720 21830.8 201002 21920.8 Q 201284 22010.8 201488 22208.8 Q 201692 22406.8 201812 22724.8 Q 201932 23042.8 201932 23498.8 Q 201932 23944 201812 24262 Q 201692 24580 201488 24785.2 Q 201284 24990.4 201002 25086.4 Q 200720 25182.4 200408 25182.4 Q 200085.2 25182.4 199809.2 25086.4 Q 199533.2 24990.4 199329.2 24785.2 Q 199125.2 24580 199005.2 24262 Q 198885.2 23944 198885.2 23498.8  Z M 205387.6 23498.8 Q 205387.6 23042.8 205507.6 22724.8 Q 205627.6 22406.8 205831.6 22208.8 Q 206035.6 22010.8 206311.6 21920.8 Q 206587.6 21830.8 206910.4 21830.8 Q 207222.4 21830.8 207504.4 21920.8 Q 207786.4 22010.8 207990.4 22208.8 Q 208194.4 22406.8 208314.4 22724.8 Q 208434.4 23042.8 208434.4 23498.8 Q 208434.4 23944 208314.4 24262 Q 208194.4 24580 207990.4 24785.2 Q 207786.4 24990.4 207504.4 25086.4 Q 207222.4 25182.4 206910.4 25182.4 Q 206587.6 25182.4 206311.6 25086.4 Q 206035.6 24990.4 205831.6 24785.2 Q 205627.6 24580 205507.6 24262 Q 205387.6 23944 205387.6 23498.8  Z M 211890 23498.8 Q 211890 23042.8 212010 22724.8 Q 212130 22406.8 212334 22208.8 Q 212538 22010.8 212814 21920.8 Q 213090 21830.8 213412.8 21830.8 Q 213724.8 21830.8 214006.8 21920.8 Q 214288.8 22010.8 214492.8 22208.8 Q 214696.8 22406.8 214816.8 22724.8 Q 214936.8 23042.8 214936.8 23498.8 Q 214936.8 23944 214816.8 24262 Q 214696.8 24580 214492.8 24785.2 Q 214288.8 24990.4 214006.8 25086.4 Q 213724.8 25182.4 213412.8 25182.4 Q 213090 25182.4 212814 25086.4 Q 212538 24990.4 212334 24785.2 Q 212130 24580 212010 24262 Q 211890 23944 211890 23498.8  Z M 218392.4 23498.8 Q 218392.4 23042.8 218512.4 22724.8 Q 218632.4 22406.8 218836.4 22208.8 Q 219040.4 22010.8 219316.4 21920.8 Q 219592.4 21830.8 219915.2 21830.8 Q 220227.2 21830.8 220509.2 21920.8 Q 220791.2 22010.8 220995.2 22208.8 Q 221199.2 22406.8 221319.2 22724.8 Q 221439.2 23042.8 221439.2 23498.8 Q 221439.2 23944 221319.2 24262 Q 221199.2 24580 220995.2 24785.2 Q 220791.2 24990.4 220509.2 25086.4 Q 220227.2 25182.4 219915.2 25182.4 Q 219592.4 25182.4 219316.4 25086.4 Q 219040.4 24990.4 218836.4 24785.2 Q 218632.4 24580 218512.4 24262 Q 218392.4 23944 218392.4 23498.8  Z M 224894.8 23498.8 Q 224894.8 23042.8 225014.8 22724.8 Q 225134.8 22406.8 225338.8 22208.8 Q 225542.8 22010.8 225818.8 21920.8 Q 226094.8 21830.8 226417.6 21830.8 Q 226729.6 21830.8 227011.6 21920.8 Q 227293.6 22010.8 227497.6 22208.8 Q 227701.6 22406.8 227821.6 22724.8 Q 227941.6 23042.8 227941.6 23498.8 Q 227941.6 23944 227821.6 24262 Q 227701.6 24580 227497.6 24785.2 Q 227293.6 24990.4 227011.6 25086.4 Q 226729.6 25182.4 226417.6 25182.4 Q 226094.8 25182.4 225818.8 25086.4 Q 225542.8 24990.4 225338.8 24785.2 Q 225134.8 24580 225014.8 24262 Q 224894.8 23944 224894.8 23498.8  Z M 231397.2 23498.8 Q 231397.2 23042.8 231517.2 22724.8 Q 231637.2 22406.8 231841.2 22208.8 Q 232045.2 22010.8 232321.2 21920.8 Q 232597.2 21830.8 232920 21830.8 Q 233232 21830.8 233514 21920.8 Q 233796 22010.8 234000 22208.8 Q 234204 22406.8 234324 22724.8 Q 234444 23042.8 234444 23498.8 Q 234444 23944 234324 24262 Q 234204 24580 234000 24785.2 Q 233796 24990.4 233514 25086.4 Q 233232 25182.4 232920 25182.4 Q 232597.2 25182.4 232321.2 25086.4 Q 232045.2 24990.4 231841.2 24785.2 Q 231637.2 24580 231517.2 24262 Q 231397.2 23944 231397.2 23498.8  Z M 237899.6 23498.8 Q 237899.6 23042.8 238019.6 22724.8 Q 238139.6 22406.8 238343.6 22208.8 Q 238547.6 22010.8 238823.6 21920.8 Q 239099.6 21830.8 239422.4 21830.8 Q 239734.4 21830.8 240016.4 21920.8 Q 240298.4 22010.8 240502.4 22208.8 Q 240706.4 22406.8 240826.4 22724.8 Q 240946.4 23042.8 240946.4 23498.8 Q 240946.4 23944 240826.4 24262 Q 240706.4 24580 240502.4 24785.2 Q 240298.4 24990.4 240016.4 25086.4 Q 239734.4 25182.4 239422.4 25182.4 Q 239099.6 25182.4 238823.6 25086.4 Q 238547.6 24990.4 238343.6 24785.2 Q 238139.6 24580 238019.6 24262 Q 237899.6 23944 237899.6 23498.8  Z M 244402 23498.8 Q 244402 23042.8 244522 22724.8 Q 244642 22406.8 244846 22208.8 Q 245050 22010.8 245326 21920.8 Q 245602 21830.8 245924.8 21830.8 Q 246236.8 21830.8 246518.8 21920.8 Q 246800.8 22010.8 247004.8 22208.8 Q 247208.8 22406.8 247328.8 22724.8 Q 247448.8 23042.8 247448.8 23498.8 Q 247448.8 23944 247328.8 24262 Q 247208.8 24580 247004.8 24785.2 Q 246800.8 24990.4 246518.8 25086.4 Q 246236.8 25182.4 245924.8 25182.4 Q 245602 25182.4 245326 25086.4 Q 245050 24990.4 244846 24785.2 Q 244642 24580 244522 24262 Q 244402 23944 244402 23498.8  Z M 250904.4 23498.8 Q 250904.4 23042.8 251024.4 22724.8 Q 251144.4 22406.8 251348.4 22208.8 Q 251552.4 22010.8 251828.4 21920.8 Q 252104.4 21830.8 252427.2 21830.8 Q 252739.2 21830.8 253021.2 21920.8 Q 253303.2 22010.8 253507.2 22208.8 Q 253711.2 22406.8 253831.2 22724.8 Q 253951.2 23042.8 253951.2 23498.8 Q 253951.2 23944 253831.2 24262 Q 253711.2 24580 253507.2 24785.2 Q 253303.2 24990.4 253021.2 25086.4 Q 252739.2 25182.4 252427.2 25182.4 Q 252104.4 25182.4 251828.4 25086.4 Q 251552.4 24990.4 251348.4 24785.2 Q 251144.4 24580 251024.4 24262 Q 250904.4 23944 250904.4 23498.8  Z M 257406.8 23498.8 Q 257406.8 23042.8 257526.8 22724.8 Q 257646.8 22406.8 257850.8 22208.8 Q 258054.8 22010.8 258330.8 21920.8 Q 258606.8 21830.8 258929.6 21830.8 Q 259241.6 21830.8 259523.6 21920.8 Q 259805.6 22010.8 260009.6 22208.8 Q 260213.6 22406.8 260333.6 22724.8 Q 260453.6 23042.8 260453.6 23498.8 Q 260453.6 23944 260333.6 24262 Q 260213.6 24580 260009.6 24785.2 Q 259805.6 24990.4 259523.6 25086.4 Q 259241.6 25182.4 258929.6 25182.4 Q 258606.8 25182.4 258330.8 25086.4 Q 258054.8 24990.4 257850.8 24785.2 Q 257646.8 24580 257526.8 24262 Q 257406.8 23944 257406.8 23498.8  Z M 263909.2 23498.8 Q 263909.2 23042.8 264029.2 22724.8 Q 264149.2 22406.8 264353.2 22208.8 Q 264557.2 22010.8 264833.2 21920.8 Q 265109.2 21830.8 265432 21830.8 Q 265744 21830.8 266026 21920.8 Q 266308 22010.8 266512 22208.8 Q 266716 22406.8 266836 22724.8 Q 266956 23042.8 266956 23498.8 Q 266956 23944 266836 24262 Q 266716 24580 266512 24785.2 Q 266308 24990.4 266026 25086.4 Q 265744 25182.4 265432 25182.4 Q 265109.2 25182.4 264833.2 25086.4 Q 264557.2 24990.4 264353.2 24785.2 Q 264149.2 24580 264029.2 24262 Q 263909.2 23944 263909.2 23498.8  Z M 270411.6 23498.8 Q 270411.6 23042.8 270531.6 22724.8 Q 270651.6 22406.8 270855.6 22208.8 Q 271059.6 22010.8 271335.6 21920.8 Q 271611.6 21830.8 271934.4 21830.8 Q 272246.4 21830.8 272528.4 21920.8 Q 272810.4 22010.8 273014.4 22208.8 Q 273218.4 22406.8 273338.4 22724.8 Q 273458.4 23042.8 273458.4 23498.8 Q 273458.4 23944 273338.4 24262 Q 273218.4 24580 273014.4 24785.2 Q 272810.4 24990.4 272528.4 25086.4 Q 272246.4 25182.4 271934.4 25182.4 Q 271611.6 25182.4 271335.6 25086.4 Q 271059.6 24990.4 270855.6 24785.2 Q 270651.6 24580 270531.6 24262 Q 270411.6 23944 270411.6 23498.8  Z M 276914 23498.8 Q 276914 23042.8 277034 22724.8 Q 277154 22406.8 277358 22208.8 Q 277562 22010.8 277838 21920.8 Q 278114 21830.8 278436.8 21830.8 Q 278748.8 21830.8 279030.8 21920.8 Q 279312.8 22010.8 279516.8 22208.8 Q 279720.8 22406.8 279840.8 22724.8 Q 279960.8 23042.8 279960.8 23498.8 Q 279960.8 23944 279840.8 24262 Q 279720.8 24580 279516.8 24785.2 Q 279312.8 24990.4 279030.8 25086.4 Q 278748.8 25182.4 278436.8 25182.4 Q 278114 25182.4 277838 25086.4 Q 277562 24990.4 277358 24785.2 Q 277154 24580 277034 24262 Q 276914 23944 276914 23498.8  Z M 283416.4 23498.8 Q 283416.4 23042.8 283536.4 22724.8 Q 283656.4 22406.8 283860.4 22208.8 Q 284064.4 22010.8 284340.4 21920.8 Q 284616.4 21830.8 284939.2 21830.8 Q 285251.2 21830.8 285533.2 21920.8 Q 285815.2 22010.8 286019.2 22208.8 Q 286223.2 22406.8 286343.2 22724.8 Q 286463.2 23042.8 286463.2 23498.8 Q 286463.2 23944 286343.2 24262 Q 286223.2 24580 286019.2 24785.2 Q 285815.2 24990.4 285533.2 25086.4 Q 285251.2 25182.4 284939.2 25182.4 Q 284616.4 25182.4 284340.4 25086.4 Q 284064.4 24990.4 283860.4 24785.2 Q 283656.4 24580 283536.4 24262 Q 283416.4 23944 283416.4 23498.8  Z M 289918.8 23498.8 Q 289918.8 23042.8 290038.8 22724.8 Q 290158.8 22406.8 290362.8 22208.8 Q 290566.8 22010.8 290842.8 21920.8 Q 291118.8 21830.8 291441.6 21830.8 Q 291753.6 21830.8 292035.6 21920.8 Q 292317.6 22010.8 292521.6 22208.8 Q 292725.6 22406.8 292845.6 22724.8 Q 292965.6 23042.8 292965.6 23498.8 Q 292965.6 23944 292845.6 24262 Q 292725.6 24580 292521.6 24785.2 Q 292317.6 24990.4 292035.6 25086.4 Q 291753.6 25182.4 291441.6 25182.4 Q 291118.8 25182.4 290842.8 25086.4 Q 290566.8 24990.4 290362.8 24785.2 Q 290158.8 24580 290038.8 24262 Q 289918.8 23944 289918.8 23498.8  Z M 296421.2 23498.8 Q 296421.2 23042.8 296541.2 22724.8 Q 296661.2 22406.8 296865.2 22208.8 Q 297069.2 22010.8 297345.2 21920.8 Q 297621.2 21830.8 297944 21830.8 Q 298256 21830.8 298538 21920.8 Q 298820 22010.8 299024 22208.8 Q 299228 22406.8 299348 22724.8 Q 299468 23042.8 299468 23498.8 Q 299468 23944 299348 24262 Q 299228 24580 299024 24785.2 Q 298820 24990.4 298538 25086.4 Q 298256 25182.4 297944 25182.4 Q 297621.2 25182.4 297345.2 25086.4 Q 297069.2 24990.4 296865.2 24785.2 Q 296661.2 24580 296541.2 24262 Q 296421.2 23944 296421.2 23498.8  Z M 302923.6 23498.8 Q 302923.6 23042.8 303043.6 22724.8 Q 303163.6 22406.8 303367.6 22208.8 Q 303571.6 22010.8 303847.6 21920.8 Q 304123.6 21830.8 304446.4 21830.8 Q 304758.4 21830.8 305040.4 21920.8 Q 305322.4 22010.8 305526.4 22208.8 Q 305730.4 22406.8 305850.4 22724.8 Q 305970.4 23042.8 305970.4 23498.8 Q 305970.4 23944 305850.4 24262 Q 305730.4 24580 305526.4 24785.2 Q 305322.4 24990.4 305040.4 25086.4 Q 304758.4 25182.4 304446.4 25182.4 Q 304123.6 25182.4 303847.6 25086.4 Q 303571.6 24990.4 303367.6 24785.2 Q 303163.6 24580 303043.6 24262 Q 302923.6 23944 302923.6 23498.8  Z M 309426 23498.8 Q 309426 23042.8 309546 22724.8 Q 309666 22406.8 309870 22208.8 Q 310074 22010.8 310350 21920.8 Q 310626 21830.8 310948.8 21830.8 Q 311260.8 21830.8 311542.8 21920.8 Q 311824.8 22010.8 312028.8 22208.8 Q 312232.8 22406.8 312352.8 22724.8 Q 312472.8 23042.8 312472.8 23498.8 Q 312472.8 23944 312352.8 24262 Q 312232.8 24580 312028.8 24785.2 Q 311824.8 24990.4 311542.8 25086.4 Q 311260.8 25182.4 310948.8 25182.4 Q 310626 25182.4 310350 25086.4 Q 310074 24990.4 309870 24785.2 Q 309666 24580 309546 24262 Q 309426 23944 309426 23498.8  Z M 315928.4 23498.8 Q 315928.4 23042.8 316048.4 22724.8 Q 316168.4 22406.8 316372.4 22208.8 Q 316576.4 22010.8 316852.4 21920.8 Q 317128.4 21830.8 317451.2 21830.8 Q 317763.2 21830.8 318045.2 21920.8 Q 318327.2 22010.8 318531.2 22208.8 Q 318735.2 22406.8 318855.2 22724.8 Q 318975.2 23042.8 318975.2 23498.8 Q 318975.2 23944 318855.2 24262 Q 318735.2 24580 318531.2 24785.2 Q 318327.2 24990.4 318045.2 25086.4 Q 317763.2 25182.4 317451.2 25182.4 Q 317128.4 25182.4 316852.4 25086.4 Q 316576.4 24990.4 316372.4 24785.2 Q 316168.4 24580 316048.4 24262 Q 315928.4 23944 315928.4 23498.8  Z M 322430.8 23498.8 Q 322430.8 23042.8 322550.8 22724.8 Q 322670.8 22406.8 322874.8 22208.8 Q 323078.8 22010.8 323354.8 21920.8 Q 323630.8 21830.8 323953.6 21830.8 Q 324265.6 21830.8 324547.6 21920.8 Q 324829.6 22010.8 325033.6 22208.8 Q 325237.6 22406.8 325357.6 22724.8 Q 325477.6 23042.8 325477.6 23498.8 Q 325477.6 23944 325357.6 24262 Q 325237.6 24580 325033.6 24785.2 Q 324829.6 24990.4 324547.6 25086.4 Q 324265.6 25182.4 323953.6 25182.4 Q 323630.8 25182.4 323354.8 25086.4 Q 323078.8 24990.4 322874.8 24785.2 Q 322670.8 24580 322550.8 24262 Q 322430.8 23944 322430.8 23498.8  Z M 328933.2 23498.8 Q 328933.2 23042.8 329053.2 22724.8 Q 329173.2 22406.8 329377.2 22208.8 Q 329581.2 22010.8 329857.2 21920.8 Q 330133.2 21830.8 330456 21830.8 Q 330768 21830.8 331050 21920.8 Q 331332 22010.8 331536 22208.8 Q 331740 22406.8 331860 22724.8 Q 331980 23042.8 331980 23498.8 Q 331980 23944 331860 24262 Q 331740 24580 331536 24785.2 Q 331332 24990.4 331050 25086.4 Q 330768 25182.4 330456 25182.4 Q 330133.2 25182.4 329857.2 25086.4 Q 329581.2 24990.4 329377.2 24785.2 Q 329173.2 24580 329053.2 24262 Q 328933.2 23944 328933.2 23498.8  Z M 335435.6 23498.8 Q 335435.6 23042.8 335555.6 22724.8 Q 335675.6 22406.8 335879.6 22208.8 Q 336083.6 22010.8 336359.6 21920.8 Q 336635.6 21830.8 336958.4 21830.8 Q 337270.4 21830.8 337552.4 21920.8 Q 337834.4 22010.8 338038.4 22208.8 Q 338242.4 22406.8 338362.4 22724.8 Q 338482.4 23042.8 338482.4 23498.8 Q 338482.4 23944 338362.4 24262 Q 338242.4 24580 338038.4 24785.2 Q 337834.4 24990.4 337552.4 25086.4 Q 337270.4 25182.4 336958.4 25182.4 Q 336635.6 25182.4 336359.6 25086.4 Q 336083.6 24990.4 335879.6 24785.2 Q 335675.6 24580 335555.6 24262 Q 335435.6 23944 335435.6 23498.8  Z M 341938 23498.8 Q 341938 23042.8 342058 22724.8 Q 342178 22406.8 342382 22208.8 Q 342586 22010.8 342862 21920.8 Q 343138 21830.8 343460.8 21830.8 Q 343772.8 21830.8 344054.8 21920.8 Q 344336.8 22010.8 344540.8 22208.8 Q 344744.8 22406.8 344864.8 22724.8 Q 344984.8 23042.8 344984.8 23498.8 Q 344984.8 23944 344864.8 24262 Q 344744.8 24580 344540.8 24785.2 Q 344336.8 24990.4 344054.8 25086.4 Q 343772.8 25182.4 343460.8 25182.4 Q 343138 25182.4 342862 25086.4 Q 342586 24990.4 342382 24785.2 Q 342178 24580 342058 24262 Q 341938 23944 341938 23498.8  Z M 348440.4 23498.8 Q 348440.4 23042.8 348560.4 22724.8 Q 348680.4 22406.8 348884.4 22208.8 Q 349088.4 22010.8 349364.4 21920.8 Q 349640.4 21830.8 349963.2 21830.8 Q 350275.2 21830.8 350557.2 21920.8 Q 350839.2 22010.8 351043.2 22208.8 Q 351247.2 22406.8 351367.2 22724.8 Q 351487.2 23042.8 351487.2 23498.8 Q 351487.2 23944 351367.2 24262 Q 351247.2 24580 351043.2 24785.2 Q 350839.2 24990.4 350557.2 25086.4 Q 350275.2 25182.4 349963.2 25182.4 Q 349640.4 25182.4 349364.4 25086.4 Q 349088.4 24990.4 348884.4 24785.2 Q 348680.4 24580 348560.4 24262 Q 348440.4 23944 348440.4 23498.8  Z M 354942.8 23498.8 Q 354942.8 23042.8 355062.8 22724.8 Q 355182.8 22406.8 355386.8 22208.8 Q 355590.8 22010.8 355866.8 21920.8 Q 356142.8 21830.8 356465.6 21830.8 Q 356777.6 21830.8 357059.6 21920.8 Q 357341.6 22010.8 357545.6 22208.8 Q 357749.6 22406.8 357869.6 22724.8 Q 357989.6 23042.8 357989.6 23498.8 Q 357989.6 23944 357869.6 24262 Q 357749.6 24580 357545.6 24785.2 Q 357341.6 24990.4 357059.6 25086.4 Q 356777.6 25182.4 356465.6 25182.4 Q 356142.8 25182.4 355866.8 25086.4 Q 355590.8 24990.4 355386.8 24785.2 Q 355182.8 24580 355062.8 24262 Q 354942.8 23944 354942.8 23498.8  Z M 361445.2 23498.8 Q 361445.2 23042.8 361565.2 22724.8 Q 361685.2 22406.8 361889.2 22208.8 Q 362093.2 22010.8 362369.2 21920.8 Q 362645.2 21830.8 362968 21830.8 Q 363280 21830.8 363562 21920.8 Q 363844 22010.8 364048 22208.8 Q 364252 22406.8 364372 22724.8 Q 364492 23042.8 364492 23498.8 Q 364492 23944 364372 24262 Q 364252 24580 364048 24785.2 Q 363844 24990.4 363562 25086.4 Q 363280 25182.4 362968 25182.4 Q 362645.2 25182.4 362369.2 25086.4 Q 362093.2 24990.4 361889.2 24785.2 Q 361685.2 24580 361565.2 24262 Q 361445.2 23944 361445.2 23498.8  Z M 367947.6 23498.8 Q 367947.6 23042.8 368067.6 22724.8 Q 368187.6 22406.8 368391.6 22208.8 Q 368595.6 22010.8 368871.6 21920.8 Q 369147.6 21830.8 369470.4 21830.8 Q 369782.4 21830.8 370064.4 21920.8 Q 370346.4 22010.8 370550.4 22208.8 Q 370754.4 22406.8 370874.4 22724.8 Q 370994.4 23042.8 370994.4 23498.8 Q 370994.4 23944 370874.4 24262 Q 370754.4 24580 370550.4 24785.2 Q 370346.4 24990.4 370064.4 25086.4 Q 369782.4 25182.4 369470.4 25182.4 Q 369147.6 25182.4 368871.6 25086.4 Q 368595.6 24990.4 368391.6 24785.2 Q 368187.6 24580 368067.6 24262 Q 367947.6 23944 367947.6 23498.8  Z M 374450 23498.8 Q 374450 23042.8 374570 22724.8 Q 374690 22406.8 374894 22208.8 Q 375098 22010.8 375374 21920.8 Q 375650 21830.8 375972.8 21830.8 Q 376284.8 21830.8 376566.8 21920.8 Q 376848.8 22010.8 377052.8 22208.8 Q 377256.8 22406.8 377376.8 22724.8 Q 377496.8 23042.8 377496.8 23498.8 Q 377496.8 23944 377376.8 24262 Q 377256.8 24580 377052.8 24785.2 Q 376848.8 24990.4 376566.8 25086.4 Q 376284.8 25182.4 375972.8 25182.4 Q 375650 25182.4 375374 25086.4 Q 375098 24990.4 374894 24785.2 Q 374690 24580 374570 24262 Q 374450 23944 374450 23498.8  Z M 380952.4 23498.8 Q 380952.4 23042.8 381072.4 22724.8 Q 381192.4 22406.8 381396.4 22208.8 Q 381600.4 22010.8 381876.4 21920.8 Q 382152.4 21830.8 382475.2 21830.8 Q 382787.2 21830.8 383069.2 21920.8 Q 383351.2 22010.8 383555.2 22208.8 Q 383759.2 22406.8 383879.2 22724.8 Q 383999.2 23042.8 383999.2 23498.8 Q 383999.2 23944 383879.2 24262 Q 383759.2 24580 383555.2 24785.2 Q 383351.2 24990.4 383069.2 25086.4 Q 382787.2 25182.4 382475.2 25182.4 Q 382152.4 25182.4 381876.4 25086.4 Q 381600.4 24990.4 381396.4 24785.2 Q 381192.4 24580 381072.4 24262 Q 380952.4 23944 380952.4 23498.8  Z M 387454.8 23498.8 Q 387454.8 23042.8 387574.8 22724.8 Q 387694.8 22406.8 387898.8 22208.8 Q 388102.8 22010.8 388378.8 21920.8 Q 388654.8 21830.8 388977.6 21830.8 Q 389289.6 21830.8 389571.6 21920.8 Q 389853.6 22010.8 390057.6 22208.8 Q 390261.6 22406.8 390381.6 22724.8 Q 390501.6 23042.8 390501.6 23498.8 Q 390501.6 23944 390381.6 24262 Q 390261.6 24580 390057.6 24785.2 Q 389853.6 24990.4 389571.6 25086.4 Q 389289.6 25182.4 388977.6 25182.4 Q 388654.8 25182.4 388378.8 25086.4 Q 388102.8 24990.4 387898.8 24785.2 Q 387694.8 24580 387574.8 24262 Q 387454.8 23944 387454.8 23498.8  Z M 393957.2 23498.8 Q 393957.2 23042.8 394077.2 22724.8 Q 394197.2 22406.8 394401.2 22208.8 Q 394605.2 22010.8 394881.2 21920.8 Q 395157.2 21830.8 395480 21830.8 Q 395792 21830.8 396074 21920.8 Q 396356 22010.8 396560 22208.8 Q 396764 22406.8 396884 22724.8 Q 397004 23042.8 397004 23498.8 Q 397004 23944 396884 24262 Q 396764 24580 396560 24785.2 Q 396356 24990.4 396074 25086.4 Q 395792 25182.4 395480 25182.4 Q 395157.2 25182.4 394881.2 25086.4 Q 394605.2 24990.4 394401.2 24785.2 Q 394197.2 24580 394077.2 24262 Q 393957.2 23944 393957.2 23498.8  Z M 400459.6 23498.8 Q 400459.6 23042.8 400579.6 22724.8 Q 400699.6 22406.8 400903.6 22208.8 Q 401107.6 22010.8 401383.6 21920.8 Q 401659.6 21830.8 401982.4 21830.8 Q 402294.4 21830.8 402576.4 21920.8 Q 402858.4 22010.8 403062.4 22208.8 Q 403266.4 22406.8 403386.4 22724.8 Q 403506.4 23042.8 403506.4 23498.8 Q 403506.4 23944 403386.4 24262 Q 403266.4 24580 403062.4 24785.2 Q 402858.4 24990.4 402576.4 25086.4 Q 402294.4 25182.4 401982.4 25182.4 Q 401659.6 25182.4 401383.6 25086.4 Q 401107.6 24990.4 400903.6 24785.2 Q 400699.6 24580 400579.6 24262 Q 400459.6 23944 400459.6 23498.8  Z M 406962 23498.8 Q 406962 23042.8 407082 22724.8 Q 407202 22406.8 407406 22208.8 Q 407610 22010.8 407886 21920.8 Q 408162 21830.8 408484.8 21830.8 Q 408796.8 21830.8 409078.8 21920.8 Q 409360.8 22010.8 409564.8 22208.8 Q 409768.8 22406.8 409888.8 22724.8 Q 410008.8 23042.8 410008.8 23498.8 Q 410008.8 23944 409888.8 24262 Q 409768.8 24580 409564.8 24785.2 Q 409360.8 24990.4 409078.8 25086.4 Q 408796.8 25182.4 408484.8 25182.4 Q 408162 25182.4 407886 25086.4 Q 407610 24990.4 407406 24785.2 Q 407202 24580 407082 24262 Q 406962 23944 406962 23498.8  Z M 413464.4 23498.8 Q 413464.4 23042.8 413584.4 22724.8 Q 413704.4 22406.8 413908.4 22208.8 Q 414112.4 22010.8 414388.4 21920.8 Q 414664.4 21830.8 414987.2 21830.8 Q 415299.2 21830.8 415581.2 21920.8 Q 415863.2 22010.8 416067.2 22208.8 Q 416271.2 22406.8 416391.2 22724.8 Q 416511.2 23042.8 416511.2 23498.8 Q 416511.2 23944 416391.2 24262 Q 416271.2 24580 416067.2 24785.2 Q 415863.2 24990.4 415581.2 25086.4 Q 415299.2 25182.4 414987.2 25182.4 Q 414664.4 25182.4 414388.4 25086.4 Q 414112.4 24990.4 413908.4 24785.2 Q 413704.4 24580 413584.4 24262 Q 413464.4 23944 413464.4 23498.8  Z M 419966.8 23498.8 Q 419966.8 23042.8 420086.8 22724.8 Q 420206.8 22406.8 420410.8 22208.8 Q 420614.8 22010.8 420890.8 21920.8 Q 421166.8 21830.8 421489.6 21830.8 Q 421801.6 21830.8 422083.6 21920.8 Q 422365.6 22010.8 422569.6 22208.8 Q 422773.6 22406.8 422893.6 22724.8 Q 423013.6 23042.8 423013.6 23498.8 Q 423013.6 23944 422893.6 24262 Q 422773.6 24580 422569.6 24785.2 Q 422365.6 24990.4 422083.6 25086.4 Q 421801.6 25182.4 421489.6 25182.4 Q 421166.8 25182.4 420890.8 25086.4 Q 420614.8 24990.4 420410.8 24785.2 Q 420206.8 24580 420086.8 24262 Q 419966.8 23944 419966.8 23498.8  Z M 426469.2 23498.8 Q 426469.2 23042.8 426589.2 22724.8 Q 426709.2 22406.8 426913.2 22208.8 Q 427117.2 22010.8 427393.2 21920.8 Q 427669.2 21830.8 427992 21830.8 Q 428304 21830.8 428586 21920.8 Q 428868 22010.8 429072 22208.8 Q 429276 22406.8 429396 22724.8 Q 429516 23042.8 429516 23498.8 Q 429516 23944 429396 24262 Q 429276 24580 429072 24785.2 Q 428868 24990.4 428586 25086.4 Q 428304 25182.4 427992 25182.4 Q 427669.2 25182.4 427393.2 25086.4 Q 427117.2 24990.4 426913.2 24785.2 Q 426709.2 24580 426589.2 24262 Q 426469.2 23944 426469.2 23498.8  Z M 432971.6 23498.8 Q 432971.6 23042.8 433091.6 22724.8 Q 433211.6 22406.8 433415.6 22208.8 Q 433619.6 22010.8 433895.6 21920.8 Q 434171.6 21830.8 434494.4 21830.8 Q 434806.4 21830.8 435088.4 21920.8 Q 435370.4 22010.8 435574.4 22208.8 Q 435778.4 22406.8 435898.4 22724.8 Q 436018.4 23042.8 436018.4 23498.8 Q 436018.4 23944 435898.4 24262 Q 435778.4 24580 435574.4 24785.2 Q 435370.4 24990.4 435088.4 25086.4 Q 434806.4 25182.4 434494.4 25182.4 Q 434171.6 25182.4 433895.6 25086.4 Q 433619.6 24990.4 433415.6 24785.2 Q 433211.6 24580 433091.6 24262 Q 432971.6 23944 432971.6 23498.8  Z M 439474 23498.8 Q 439474 23042.8 439594 22724.8 Q 439714 22406.8 439918 22208.8 Q 440122 22010.8 440398 21920.8 Q 440674 21830.8 440996.8 21830.8 Q 441308.8 21830.8 441590.8 21920.8 Q 441872.8 22010.8 442076.8 22208.8 Q 442280.8 22406.8 442400.8 22724.8 Q 442520.8 23042.8 442520.8 23498.8 Q 442520.8 23944 442400.8 24262 Q 442280.8 24580 442076.8 24785.2 Q 441872.8 24990.4 441590.8 25086.4 Q 441308.8 25182.4 440996.8 25182.4 Q 440674 25182.4 440398 25086.4 Q 440122 24990.4 439918 24785.2 Q 439714 24580 439594 24262 Q 439474 23944 439474 23498.8  Z M 445976.4 23498.8 Q 445976.4 23042.8 446096.4 22724.8 Q 446216.4 22406.8 446420.4 22208.8 Q 446624.4 22010.8 446900.4 21920.8 Q 447176.4 21830.8 447499.2 21830.8 Q 447811.2 21830.8 448093.2 21920.8 Q 448375.2 22010.8 448579.2 22208.8 Q 448783.2 22406.8 448903.2 22724.8 Q 449023.2 23042.8 449023.2 23498.8 Q 449023.2 23944 448903.2 24262 Q 448783.2 24580 448579.2 24785.2 Q 448375.2 24990.4 448093.2 25086.4 Q 447811.2 25182.4 447499.2 25182.4 Q 447176.4 25182.4 446900.4 25086.4 Q 446624.4 24990.4 446420.4 24785.2 Q 446216.4 24580 446096.4 24262 Q 445976.4 23944 445976.4 23498.8  Z M 452478.8 23498.8 Q 452478.8 23042.8 452598.8 22724.8 Q 452718.8 22406.8 452922.8 22208.8 Q 453126.8 22010.8 453402.8 21920.8 Q 453678.8 21830.8 454001.6 21830.8 Q 454313.6 21830.8 454595.6 21920.8 Q 454877.6 22010.8 455081.6 22208.8 Q 455285.6 22406.8 455405.6 22724.8 Q 455525.6 23042.8 455525.6 23498.8 Q 455525.6 23944 455405.6 24262 Q 455285.6 24580 455081.6 24785.2 Q 454877.6 24990.4 454595.6 25086.4 Q 454313.6 25182.4 454001.6 25182.4 Q 453678.8 25182.4 453402.8 25086.4 Q 453126.8 24990.4 452922.8 24785.2 Q 452718.8 24580 452598.8 24262 Q 452478.8 23944 452478.8 23498.8  Z M 458981.2 23498.8 Q 458981.2 23042.8 459101.2 22724.8 Q 459221.2 22406.8 459425.2 22208.8 Q 459629.2 22010.8 459905.2 21920.8 Q 460181.2 21830.8 460504 21830.8 Q 460816 21830.8 461098 21920.8 Q 461380 22010.8 461584 22208.8 Q 461788 22406.8 461908 22724.8 Q 462028 23042.8 462028 23498.8 Q 462028 23944 461908 24262 Q 461788 24580 461584 24785.2 Q 461380 24990.4 461098 25086.4 Q 460816 25182.4 460504 25182.4 Q 460181.2 25182.4 459905.2 25086.4 Q 459629.2 24990.4 459425.2 24785.2 Q 459221.2 24580 459101.2 24262 Q 458981.2 23944 458981.2 23498.8  Z M 465483.6 23498.8 Q 465483.6 23042.8 465603.6 22724.8 Q 465723.6 22406.8 465927.6 22208.8 Q 466131.6 22010.8 466407.6 21920.8 Q 466683.6 21830.8 467006.4 21830.8 Q 467318.4 21830.8 467600.4 21920.8 Q 467882.4 22010.8 468086.4 22208.8 Q 468290.4 22406.8 468410.4 22724.8 Q 468530.4 23042.8 468530.4 23498.8 Q 468530.4 23944 468410.4 24262 Q 468290.4 24580 468086.4 24785.2 Q 467882.4 24990.4 467600.4 25086.4 Q 467318.4 25182.4 467006.4 25182.4 Q 466683.6 25182.4 466407.6 25086.4 Q 466131.6 24990.4 465927.6 24785.2 Q 465723.6 24580 465603.6 24262 Q 465483.6 23944 465483.6 23498.8  Z M 471986 23498.8 Q 471986 23042.8 472106 22724.8 Q 472226 22406.8 472430 22208.8 Q 472634 22010.8 472910 21920.8 Q 473186 21830.8 473508.8 21830.8 Q 473820.8 21830.8 474102.8 21920.8 Q 474384.8 22010.8 474588.8 22208.8 Q 474792.8 22406.8 474912.8 22724.8 Q 475032.8 23042.8 475032.8 23498.8 Q 475032.8 23944 474912.8 24262 Q 474792.8 24580 474588.8 24785.2 Q 474384.8 24990.4 474102.8 25086.4 Q 473820.8 25182.4 473508.8 25182.4 Q 473186 25182.4 472910 25086.4 Q 472634 24990.4 472430 24785.2 Q 472226 24580 472106 24262 Q 471986 23944 471986 23498.8  Z M 478488.4 23498.8 Q 478488.4 23042.8 478608.4 22724.8 Q 478728.4 22406.8 478932.4 22208.8 Q 479136.4 22010.8 479412.4 21920.8 Q 479688.4 21830.8 480011.2 21830.8 Q 480323.2 21830.8 480605.2 21920.8 Q 480887.2 22010.8 481091.2 22208.8 Q 481295.2 22406.8 481415.2 22724.8 Q 481535.2 23042.8 481535.2 23498.8 Q 481535.2 23944 481415.2 24262 Q 481295.2 24580 481091.2 24785.2 Q 480887.2 24990.4 480605.2 25086.4 Q 480323.2 25182.4 480011.2 25182.4 Q 479688.4 25182.4 479412.4 25086.4 Q 479136.4 24990.4 478932.4 24785.2 Q 478728.4 24580 478608.4 24262 Q 478488.4 23944 478488.4 23498.8  Z M 484990.8 23498.8 Q 484990.8 23042.8 485110.8 22724.8 Q 485230.8 22406.8 485434.8 22208.8 Q 485638.8 22010.8 485914.8 21920.8 Q 486190.8 21830.8 486513.6 21830.8 Q 486825.6 21830.8 487107.6 21920.8 Q 487389.6 22010.8 487593.6 22208.8 Q 487797.6 22406.8 487917.6 22724.8 Q 488037.6 23042.8 488037.6 23498.8 Q 488037.6 23944 487917.6 24262 Q 487797.6 24580 487593.6 24785.2 Q 487389.6 24990.4 487107.6 25086.4 Q 486825.6 25182.4 486513.6 25182.4 Q 486190.8 25182.4 485914.8 25086.4 Q 485638.8 24990.4 485434.8 24785.2 Q 485230.8 24580 485110.8 24262 Q 484990.8 23944 484990.8 23498.8  Z M 491493.2 23498.8 Q 491493.2 23042.8 491613.2 22724.8 Q 491733.2 22406.8 491937.2 22208.8 Q 492141.2 22010.8 492417.2 21920.8 Q 492693.2 21830.8 493016 21830.8 Q 493328 21830.8 493610 21920.8 Q 493892 22010.8 494096 22208.8 Q 494300 22406.8 494420 22724.8 Q 494540 23042.8 494540 23498.8 Q 494540 23944 494420 24262 Q 494300 24580 494096 24785.2 Q 493892 24990.4 493610 25086.4 Q 493328 25182.4 493016 25182.4 Q 492693.2 25182.4 492417.2 25086.4 Q 492141.2 24990.4 491937.2 24785.2 Q 491733.2 24580 491613.2 24262 Q 491493.2 23944 491493.2 23498.8  Z M 497995.6 23498.8 Q 497995.6 23042.8 498115.6 22724.8 Q 498235.6 22406.8 498439.6 22208.8 Q 498643.6 22010.8 498919.6 21920.8 Q 499195.6 21830.8 499518.4 21830.8 Q 499830.4 21830.8 500112.4 21920.8 Q 500394.4 22010.8 500598.4 22208.8 Q 500802.4 22406.8 500922.4 22724.8 Q 501042.4 23042.8 501042.4 23498.8 Q 501042.4 23944 500922.4 24262 Q 500802.4 24580 500598.4 24785.2 Q 500394.4 24990.4 500112.4 25086.4 Q 499830.4 25182.4 499518.4 25182.4 Q 499195.6 25182.4 498919.6 25086.4 Q 498643.6 24990.4 498439.6 24785.2 Q 498235.6 24580 498115.6 24262 Q 497995.6 23944 497995.6 23498.8  Z M 504498 23498.8 Q 504498 23042.8 504618 22724.8 Q 504738 22406.8 504942 22208.8 Q 505146 22010.8 505422 21920.8 Q 505698 21830.8 506020.8 21830.8 Q 506332.8 21830.8 506614.8 21920.8 Q 506896.8 22010.8 507100.8 22208.8 Q 507304.8 22406.8 507424.8 22724.8 Q 507544.8 23042.8 507544.8 23498.8 Q 507544.8 23944 507424.8 24262 Q 507304.8 24580 507100.8 24785.2 Q 506896.8 24990.4 506614.8 25086.4 Q 506332.8 25182.4 506020.8 25182.4 Q 505698 25182.4 505422 25086.4 Q 505146 24990.4 504942 24785.2 Q 504738 24580 504618 24262 Q 504498 23944 504498 23498.8  Z M 511000.4 23498.8 Q 511000.4 23042.8 511120.4 22724.8 Q 511240.4 22406.8 511444.4 22208.8 Q 511648.4 22010.8 511924.4 21920.8 Q 512200.4 21830.8 512523.2 21830.8 Q 512835.2 21830.8 513117.2 21920.8 Q 513399.2 22010.8 513603.2 22208.8 Q 513807.2 22406.8 513927.2 22724.8 Q 514047.2 23042.8 514047.2 23498.8 Q 514047.2 23944 513927.2 24262 Q 513807.2 24580 513603.2 24785.2 Q 513399.2 24990.4 513117.2 25086.4 Q 512835.2 25182.4 512523.2 25182.4 Q 512200.4 25182.4 511924.4 25086.4 Q 511648.4 24990.4 511444.4 24785.2 Q 511240.4 24580 511120.4 24262 Q 511000.4 23944 511000.4 23498.8  Z M 517502.8 23498.8 Q 517502.8 23042.8 517622.8 22724.8 Q 517742.8 22406.8 517946.8 22208.8 Q 518150.8 22010.8 518426.8 21920.8 Q 518702.8 21830.8 519025.6 21830.8 Q 519337.6 21830.8 519619.6 21920.8 Q 519901.6 22010.8 520105.6 22208.8 Q 520309.6 22406.8 520429.6 22724.8 Q 520549.6 23042.8 520549.6 23498.8 Q 520549.6 23944 520429.6 24262 Q 520309.6 24580 520105.6 24785.2 Q 519901.6 24990.4 519619.6 25086.4 Q 519337.6 25182.4 519025.6 25182.4 Q 518702.8 25182.4 518426.8 25086.4 Q 518150.8 24990.4 517946.8 24785.2 Q 517742.8 24580 517622.8 24262 Q 517502.8 23944 517502.8 23498.8  Z M 524005.2 23498.8 Q 524005.2 23042.8 524125.2 22724.8 Q 524245.2 22406.8 524449.2 22208.8 Q 524653.2 22010.8 524929.2 21920.8 Q 525205.2 21830.8 525528 21830.8 Q 525840 21830.8 526122 21920.8 Q 526404 22010.8 526608 22208.8 Q 526812 22406.8 526932 22724.8 Q 527052 23042.8 527052 23498.8 Q 527052 23944 526932 24262 Q 526812 24580 526608 24785.2 Q 526404 24990.4 526122 25086.4 Q 525840 25182.4 525528 25182.4 Q 525205.2 25182.4 524929.2 25086.4 Q 524653.2 24990.4 524449.2 24785.2 Q 524245.2 24580 524125.2 24262 Q 524005.2 23944 524005.2 23498.8  Z M 530507.6 23498.8 Q 530507.6 23042.8 530627.6 22724.8 Q 530747.6 22406.8 530951.6 22208.8 Q 531155.6 22010.8 531431.6 21920.8 Q 531707.6 21830.8 532030.4 21830.8 Q 532342.4 21830.8 532624.4 21920.8 Q 532906.4 22010.8 533110.4 22208.8 Q 533314.4 22406.8 533434.4 22724.8 Q 533554.4 23042.8 533554.4 23498.8 Q 533554.4 23944 533434.4 24262 Q 533314.4 24580 533110.4 24785.2 Q 532906.4 24990.4 532624.4 25086.4 Q 532342.4 25182.4 532030.4 25182.4 Q 531707.6 25182.4 531431.6 25086.4 Q 531155.6 24990.4 530951.6 24785.2 Q 530747.6 24580 530627.6 24262 Q 530507.6 23944 530507.6 23498.8  Z M 537010 23498.8 Q 537010 23042.8 537130 22724.8 Q 537250 22406.8 537454 22208.8 Q 537658 22010.8 537934 21920.8 Q 538210 21830.8 538532.8 21830.8 Q 538844.8 21830.8 539126.8 21920.8 Q 539408.8 22010.8 539612.8 22208.8 Q 539816.8 22406.8 539936.8 22724.8 Q 540056.8 23042.8 540056.8 23498.8 Q 540056.8 23944 539936.8 24262 Q 539816.8 24580 539612.8 24785.2 Q 539408.8 24990.4 539126.8 25086.4 Q 538844.8 25182.4 538532.8 25182.4 Q 538210 25182.4 537934 25086.4 Q 537658 24990.4 537454 24785.2 Q 537250 24580 537130 24262 Q 537010 23944 537010 23498.8  Z M 543512.4 23498.8 Q 543512.4 23042.8 543632.4 22724.8 Q 543752.4 22406.8 543956.4 22208.8 Q 544160.4 22010.8 544436.4 21920.8 Q 544712.4 21830.8 545035.2 21830.8 Q 545347.2 21830.8 545629.2 21920.8 Q 545911.2 22010.8 546115.2 22208.8 Q 546319.2 22406.8 546439.2 22724.8 Q 546559.2 23042.8 546559.2 23498.8 Q 546559.2 23944 546439.2 24262 Q 546319.2 24580 546115.2 24785.2 Q 545911.2 24990.4 545629.2 25086.4 Q 545347.2 25182.4 545035.2 25182.4 Q 544712.4 25182.4 544436.4 25086.4 Q 544160.4 24990.4 543956.4 24785.2 Q 543752.4 24580 543632.4 24262 Q 543512.4 23944 543512.4 23498.8  Z M 550014.8 23498.8 Q 550014.8 23042.8 550134.8 22724.8 Q 550254.8 22406.8 550458.8 22208.8 Q 550662.8 22010.8 550938.8 21920.8 Q 551214.8 21830.8 551537.6 21830.8 Q 551849.6 21830.8 552131.6 21920.8 Q 552413.6 22010.8 552617.6 22208.8 Q 552821.6 22406.8 552941.6 22724.8 Q 553061.6 23042.8 553061.6 23498.8 Q 553061.6 23944 552941.6 24262 Q 552821.6 24580 552617.6 24785.2 Q 552413.6 24990.4 552131.6 25086.4 Q 551849.6 25182.4 551537.6 25182.4 Q 551214.8 25182.4 550938.8 25086.4 Q 550662.8 24990.4 550458.8 24785.2 Q 550254.8 24580 550134.8 24262 Q 550014.8 23944 550014.8 23498.8  Z M 556517.2 23498.8 Q 556517.2 23042.8 556637.2 22724.8 Q 556757.2 22406.8 556961.2 22208.8 Q 557165.2 22010.8 557441.2 21920.8 Q 557717.2 21830.8 558040 21830.8 Q 558352 21830.8 558634 21920.8 Q 558916 22010.8 559120 22208.8 Q 559324 22406.8 559444 22724.8 Q 559564 23042.8 559564 23498.8 Q 559564 23944 559444 24262 Q 559324 24580 559120 24785.2 Q 558916 24990.4 558634 25086.4 Q 558352 25182.4 558040 25182.4 Q 557717.2 25182.4 557441.2 25086.4 Q 557165.2 24990.4 556961.2 24785.2 Q 556757.2 24580 556637.2 24262 Q 556517.2 23944 556517.2 23498.8  Z M 563019.6 23498.8 Q 563019.6 23042.8 563139.6 22724.8 Q 563259.6 22406.8 563463.6 22208.8 Q 563667.6 22010.8 563943.6 21920.8 Q 564219.6 21830.8 564542.4 21830.8 Q 564854.4 21830.8 565136.4 21920.8 Q 565418.4 22010.8 565622.4 22208.8 Q 565826.4 22406.8 565946.4 22724.8 Q 566066.4 23042.8 566066.4 23498.8 Q 566066.4 23944 565946.4 24262 Q 565826.4 24580 565622.4 24785.2 Q 565418.4 24990.4 565136.4 25086.4 Q 564854.4 25182.4 564542.4 25182.4 Q 564219.6 25182.4 563943.6 25086.4 Q 563667.6 24990.4 563463.6 24785.2 Q 563259.6 24580 563139.6 24262 Q 563019.6 23944 563019.6 23498.8  Z M 569522 23498.8 Q 569522 23042.8 569642 22724.8 Q 569762 22406.8 569966 22208.8 Q 570170 22010.8 570446 21920.8 Q 570722 21830.8 571044.8 21830.8 Q 571356.8 21830.8 571638.8 21920.8 Q 571920.8 22010.8 572124.8 22208.8 Q 572328.8 22406.8 572448.8 22724.8 Q 572568.8 23042.8 572568.8 23498.8 Q 572568.8 23944 572448.8 24262 Q 572328.8 24580 572124.8 24785.2 Q 571920.8 24990.4 571638.8 25086.4 Q 571356.8 25182.4 571044.8 25182.4 Q 570722 25182.4 570446 25086.4 Q 570170 24990.4 569966 24785.2 Q 569762 24580 569642 24262 Q 569522 23944 569522 23498.8  Z M 576024.4 23498.8 Q 576024.4 23042.8 576144.4 22724.8 Q 576264.4 22406.8 576468.4 22208.8 Q 576672.4 22010.8 576948.4 21920.8 Q 577224.4 21830.8 577547.2 21830.8 Q 577859.2 21830.8 578141.2 21920.8 Q 578423.2 22010.8 578627.2 22208.8 Q 578831.2 22406.8 578951.2 22724.8 Q 579071.2 23042.8 579071.2 23498.8 Q 579071.2 23944 578951.2 24262 Q 578831.2 24580 578627.2 24785.2 Q 578423.2 24990.4 578141.2 25086.4 Q 577859.2 25182.4 577547.2 25182.4 Q 577224.4 25182.4 576948.4 25086.4 Q 576672.4 24990.4 576468.4 24785.2 Q 576264.4 24580 576144.4 24262 Q 576024.4 23944 576024.4 23498.8  Z M 582526.8 23498.8 Q 582526.8 23042.8 582646.8 22724.8 Q 582766.8 22406.8 582970.8 22208.8 Q 583174.8 22010.8 583450.8 21920.8 Q 583726.8 21830.8 584049.6 21830.8 Q 584361.6 21830.8 584643.6 21920.8 Q 584925.6 22010.8 585129.6 22208.8 Q 585333.6 22406.8 585453.6 22724.8 Q 585573.6 23042.8 585573.6 23498.8 Q 585573.6 23944 585453.6 24262 Q 585333.6 24580 585129.6 24785.2 Q 584925.6 24990.4 584643.6 25086.4 Q 584361.6 25182.4 584049.6 25182.4 Q 583726.8 25182.4 583450.8 25086.4 Q 583174.8 24990.4 582970.8 24785.2 Q 582766.8 24580 582646.8 24262 Q 582526.8 23944 582526.8 23498.8  Z M 589029.2 23498.8 Q 589029.2 23042.8 589149.2 22724.8 Q 589269.2 22406.8 589473.2 22208.8 Q 589677.2 22010.8 589953.2 21920.8 Q 590229.2 21830.8 590552 21830.8 Q 590864 21830.8 591146 21920.8 Q 591428 22010.8 591632 22208.8 Q 591836 22406.8 591956 22724.8 Q 592076 23042.8 592076 23498.8 Q 592076 23944 591956 24262 Q 591836 24580 591632 24785.2 Q 591428 24990.4 591146 25086.4 Q 590864 25182.4 590552 25182.4 Q 590229.2 25182.4 589953.2 25086.4 Q 589677.2 24990.4 589473.2 24785.2 Q 589269.2 24580 589149.2 24262 Q 589029.2 23944 589029.2 23498.8  Z " fill-rule="nonzero" style="fill:#92cddc;;fill-opacity:1;"/>
</svg>