<svg version="1.1" x="0" y="0" width="100%" height="100%" viewBox="0 0 174489.6 108134.4" xmlns="http://www.w3.org/2000/svg">
  <path d="M 7913 7394.8 L 15606.5 17066.3 L 15606.5 10361.8 Q 15606.5 8958.8 15204 8464.3 Q 14652 7797.3 13352.5 7820.3 L 13352.5 7394.8 L 18504.5 7394.8 L 18504.5 7820.3 Q 17515.5 7946.8 17176.25 8148.05 Q 16837 8349.3 16647.25 8803.55 Q 16457.5 9257.8 16457.5 10361.8 L 16457.5 23345.3 L 16066.5 23345.3 L 5521 10361.8 L 5521 20274.8 Q 5521 21620.3 6136.25 22091.8 Q 6751.5 22563.3 7545 22563.3 L 7913 22563.3 L 7913 22988.8 L 2381.5 22988.8 L 2381.5 22563.3 Q 3669.5 22551.8 4175.5 22034.3 Q 4681.5 21516.8 4681.5 20274.8 L 4681.5 9269.3 L 4348 8855.3 Q 3853.5 8234.3 3474 8038.8 Q 3094.5 7843.3 2381.5 7820.3 L 2381.5 7394.8 L 7913 7394.8 Z M 24911.4 11914.3 Q 26314.4 11914.3 27521.9 12638.8 Q 28729.4 13363.3 29356.15 14697.3 Q 29982.9 16031.3 29982.9 17618.3 Q 29982.9 19906.8 28821.4 21447.8 Q 27418.4 23310.8 24945.9 23310.8 Q 22519.4 23310.8 21208.4 21608.8 Q 19897.4 19906.8 19897.4 17664.3 Q 19897.4 15352.8 21237.15 13633.55 Q 22576.9 11914.3 24911.4 11914.3  Z M 24957.4 12730.8 Q 24370.9 12730.8 23951.15 13173.55 Q 23531.4 13616.3 23399.15 14921.55 Q 23266.9 16226.8 23266.9 18549.8 Q 23266.9 19780.3 23427.9 20849.8 Q 23554.4 21666.3 23968.4 22091.8 Q 24382.4 22517.3 24911.4 22517.3 Q 25428.9 22517.3 25773.9 22229.8 Q 26222.4 21838.8 26371.9 21137.3 Q 26601.9 20044.8 26601.9 16721.3 Q 26601.9 14766.3 26383.4 14036.05 Q 26164.9 13305.8 25739.4 12972.3 Q 25440.4 12730.8 24957.4 12730.8  Z M 36008.9 12236.3 L 36008.9 13627.8 Q 36836.9 12730.8 37595.9 12322.55 Q 38354.9 11914.3 39228.9 11914.3 Q 40275.4 11914.3 40965.4 12495.05 Q 41655.4 13075.8 41885.4 13938.3 Q 42069.4 14593.8 42069.4 16456.8 L 42069.4 20642.8 Q 42069.4 21884.8 42293.65 22189.55 Q 42517.9 22494.3 43230.9 22574.8 L 43230.9 22988.8 L 37791.4 22988.8 L 37791.4 22574.8 Q 38400.9 22494.3 38665.4 22068.8 Q 38849.4 21781.3 38849.4 20642.8 L 38849.4 15858.8 Q 38849.4 14536.3 38745.9 14191.3 Q 38642.4 13846.3 38395.15 13656.55 Q 38147.9 13466.8 37848.9 13466.8 Q 36859.9 13466.8 36008.9 14881.3 L 36008.9 20642.8 Q 36008.9 21850.3 36233.15 22172.3 Q 36457.4 22494.3 37066.9 22574.8 L 37066.9 22988.8 L 31627.4 22988.8 L 31627.4 22574.8 Q 32305.9 22505.8 32593.4 22137.8 Q 32788.9 21884.8 32788.9 20642.8 L 32788.9 14570.8 Q 32788.9 13351.8 32564.65 13052.8 Q 32340.4 12753.8 31627.4 12661.8 L 31627.4 12236.3 L 36008.9 12236.3 Z M 51157.9 18768.3 L 44453.4 18768.3 L 44453.4 16387.8 L 51157.9 16387.8 L 51157.9 18768.3 Z M 56668.5 21896.3 L 56668.5 25898.3 Q 56668.5 26726.3 56800.75 27025.3 Q 56933 27324.3 57209 27462.3 Q 57485 27600.3 58290 27600.3 L 58290 28025.8 L 52160.5 28025.8 L 52160.5 27600.3 Q 52873.5 27577.3 53218.5 27197.8 Q 53448.5 26933.3 53448.5 25829.3 L 53448.5 14478.8 Q 53448.5 13340.3 53184 13024.05 Q 52919.5 12707.8 52160.5 12661.8 L 52160.5 12236.3 L 56668.5 12236.3 L 56668.5 13650.8 Q 57232 12822.8 57818.5 12454.8 Q 58658 11914.3 59647 11914.3 Q 60831.5 11914.3 61803.25 12661.8 Q 62775 13409.3 63281 14726.05 Q 63787 16042.8 63787 17560.8 Q 63787 19193.8 63263.75 20545.05 Q 62740.5 21896.3 61745.75 22603.55 Q 60751 23310.8 59532 23310.8 Q 58646.5 23310.8 57876 22919.8 Q 57301 22620.8 56668.5 21896.3  Z M 56668.5 20734.8 Q 57657.5 22137.8 58784.5 22137.8 Q 59405.5 22137.8 59808 21482.3 Q 60406 20516.3 60406 17802.3 Q 60406 15019.3 59750.5 13995.8 Q 59313.5 13317.3 58577.5 13317.3 Q 57416 13317.3 56668.5 14996.3 L 56668.5 20734.8 Z M 71495.5 21401.8 Q 69529 23138.3 67965 23138.3 Q 67045 23138.3 66435.5 22534.55 Q 65826 21930.8 65826 21022.3 Q 65826 19791.8 66884 18808.55 Q 67942 17825.3 71495.5 16192.3 L 71495.5 15111.3 Q 71495.5 13892.3 71363.25 13576.05 Q 71231 13259.8 70863 13024.05 Q 70495 12788.3 70035 12788.3 Q 69287.5 12788.3 68804.5 13121.8 Q 68505.5 13328.8 68505.5 13604.8 Q 68505.5 13846.3 68827.5 14202.8 Q 69264.5 14697.3 69264.5 15157.3 Q 69264.5 15720.8 68844.75 16117.55 Q 68425 16514.3 67746.5 16514.3 Q 67022 16514.3 66533.25 16077.3 Q 66044.5 15640.3 66044.5 15053.8 Q 66044.5 14225.8 66700 13472.55 Q 67355.5 12719.3 68528.5 12316.8 Q 69701.5 11914.3 70966.5 11914.3 Q 72496 11914.3 73387.25 12564.05 Q 74278.5 13213.8 74543 13972.8 Q 74704 14455.8 74704 16192.3 L 74704 20366.8 Q 74704 21102.8 74761.5 21292.55 Q 74819 21482.3 74934 21574.3 Q 75049 21666.3 75198.5 21666.3 Q 75497.5 21666.3 75808 21240.8 L 76153 21516.8 Q 75578 22367.8 74962.75 22753.05 Q 74347.5 23138.3 73565.5 23138.3 Q 72645.5 23138.3 72128 22707.05 Q 71610.5 22275.8 71495.5 21401.8  Z M 71495.5 20562.3 L 71495.5 16962.8 Q 70104 17779.3 69425.5 18710.8 Q 68977 19331.8 68977 19964.3 Q 68977 20493.3 69356.5 20895.8 Q 69644 21206.3 70161.5 21206.3 Q 70736.5 21206.3 71495.5 20562.3  Z M 81604 8303.3 L 81604 12236.3 L 84157 12236.3 L 84157 13374.8 L 81604 13374.8 L 81604 20010.3 Q 81604 20941.8 81690.25 21212.05 Q 81776.5 21482.3 81995 21649.05 Q 82213.5 21815.8 82397.5 21815.8 Q 83145 21815.8 83812 20677.3 L 84157 20930.3 Q 83225.5 23138.3 81132.5 23138.3 Q 80109 23138.3 79401.75 22569.05 Q 78694.5 21999.8 78499 21298.3 Q 78384 20907.3 78384 19182.3 L 78384 13374.8 L 76981 13374.8 L 76981 12972.3 Q 78430 11948.8 79447.75 10821.8 Q 80465.5 9694.8 81224.5 8303.3 L 81604 8303.3 Z M 89564.1 7394.8 L 89564.1 13616.3 Q 90449.6 12684.8 91185.6 12299.55 Q 91921.6 11914.3 92715.1 11914.3 Q 93727.1 11914.3 94445.85 12489.3 Q 95164.6 13064.3 95400.35 13840.55 Q 95636.1 14616.8 95636.1 16456.8 L 95636.1 20654.3 Q 95636.1 21884.8 95866.1 22189.55 Q 96096.1 22494.3 96797.6 22574.8 L 96797.6 22988.8 L 91346.6 22988.8 L 91346.6 22574.8 Q 91921.6 22494.3 92209.1 22114.8 Q 92416.1 21815.8 92416.1 20654.3 L 92416.1 15858.8 Q 92416.1 14524.8 92312.6 14185.55 Q 92209.1 13846.3 91961.85 13656.55 Q 91714.6 13466.8 91404.1 13466.8 Q 90944.1 13466.8 90507.1 13783.05 Q 90070.1 14099.3 89564.1 14892.8 L 89564.1 20654.3 Q 89564.1 21804.3 89736.6 22091.8 Q 89955.1 22482.8 90633.6 22574.8 L 90633.6 22988.8 L 85182.6 22988.8 L 85182.6 22574.8 Q 85861.1 22505.8 86148.6 22137.8 Q 86344.1 21884.8 86344.1 20654.3 L 86344.1 9729.3 Q 86344.1 8510.3 86119.85 8211.3 Q 85895.6 7912.3 85182.6 7820.3 L 85182.6 7394.8 L 89564.1 7394.8 Z M 103298.6 11914.3 Q 104701.6 11914.3 105909.1 12638.8 Q 107116.6 13363.3 107743.35 14697.3 Q 108370.1 16031.3 108370.1 17618.3 Q 108370.1 19906.8 107208.6 21447.8 Q 105805.6 23310.8 103333.1 23310.8 Q 100906.6 23310.8 99595.6 21608.8 Q 98284.6 19906.8 98284.6 17664.3 Q 98284.6 15352.8 99624.35 13633.55 Q 100964.1 11914.3 103298.6 11914.3  Z M 103344.6 12730.8 Q 102758.1 12730.8 102338.35 13173.55 Q 101918.6 13616.3 101786.35 14921.55 Q 101654.1 16226.8 101654.1 18549.8 Q 101654.1 19780.3 101815.1 20849.8 Q 101941.6 21666.3 102355.6 22091.8 Q 102769.6 22517.3 103298.6 22517.3 Q 103816.1 22517.3 104161.1 22229.8 Q 104609.6 21838.8 104759.1 21137.3 Q 104989.1 20044.8 104989.1 16721.3 Q 104989.1 14766.3 104770.6 14036.05 Q 104552.1 13305.8 104126.6 12972.3 Q 103827.6 12730.8 103344.6 12730.8  Z M 116903.1 12362.8 L 120525.6 12362.8 L 120525.6 13627.8 L 118467.1 13627.8 Q 119030.6 14191.3 119249.1 14651.3 Q 119525.1 15272.3 119525.1 15950.8 Q 119525.1 17100.8 118886.85 17946.05 Q 118248.6 18791.3 117150.35 19268.55 Q 116052.1 19745.8 115201.1 19745.8 Q 115132.1 19745.8 113821.1 19688.3 Q 113303.6 19688.3 112952.85 20027.55 Q 112602.1 20366.8 112602.1 20838.3 Q 112602.1 21252.3 112918.35 21516.8 Q 113234.6 21781.3 113947.6 21781.3 L 115937.1 21758.3 Q 118352.1 21758.3 119260.6 22287.3 Q 120560.1 23023.3 120560.1 24552.8 Q 120560.1 25530.3 119962.1 26329.55 Q 119364.1 27128.8 118386.6 27508.3 Q 116903.1 28071.8 114971.1 28071.8 Q 113522.1 28071.8 112326.1 27790.05 Q 111130.1 27508.3 110612.6 27008.05 Q 110095.1 26507.8 110095.1 25955.8 Q 110095.1 25426.8 110491.85 25007.05 Q 110888.6 24587.3 111969.6 24299.8 Q 110474.6 23563.8 110474.6 22252.8 Q 110474.6 21459.3 111084.1 20711.8 Q 111693.6 19964.3 113016.1 19412.3 Q 111475.1 18848.8 110785.1 17928.8 Q 110095.1 17008.8 110095.1 15801.3 Q 110095.1 14225.8 111383.1 13070.05 Q 112671.1 11914.3 114695.1 11914.3 Q 115764.6 11914.3 116903.1 12362.8  Z M 114913.6 12627.3 Q 114246.6 12627.3 113786.6 13300.05 Q 113326.6 13972.8 113326.6 16088.8 Q 113326.6 17802.3 113780.85 18440.55 Q 114235.1 19078.8 114856.1 19078.8 Q 115546.1 19078.8 116006.1 18446.3 Q 116466.1 17813.8 116466.1 15985.3 Q 116466.1 13926.8 115948.6 13179.3 Q 115580.6 12627.3 114913.6 12627.3  Z M 114235.1 24575.8 Q 113062.1 24575.8 112682.6 24771.3 Q 112027.1 25127.8 112027.1 25737.3 Q 112027.1 26323.8 112705.6 26801.05 Q 113384.1 27278.3 115258.6 27278.3 Q 116857.1 27278.3 117771.35 26852.8 Q 118685.6 26427.3 118685.6 25656.8 Q 118685.6 25369.3 118513.1 25173.8 Q 118202.6 24828.8 117575.85 24702.3 Q 116949.1 24575.8 114235.1 24575.8  Z M 130887.1 17227.3 L 124987.6 17227.3 Q 125091.1 19366.3 126126.1 20608.3 Q 126919.6 21562.8 128035.1 21562.8 Q 128725.1 21562.8 129288.6 21177.55 Q 129852.1 20792.3 130496.1 19791.8 L 130887.1 20044.8 Q 130013.1 21827.3 128955.1 22569.05 Q 127897.1 23310.8 126505.6 23310.8 Q 124113.6 23310.8 122883.1 21470.8 Q 121894.1 19987.3 121894.1 17790.8 Q 121894.1 15099.8 123348.85 13507.05 Q 124803.6 11914.3 126758.6 11914.3 Q 128391.6 11914.3 129593.35 13254.05 Q 130795.1 14593.8 130887.1 17227.3  Z M 128058.1 16456.8 Q 128058.1 14605.3 127856.85 13915.3 Q 127655.6 13225.3 127230.1 12868.8 Q 126988.6 12661.8 126586.1 12661.8 Q 125988.1 12661.8 125608.6 13248.3 Q 124930.1 14271.8 124930.1 16054.3 L 124930.1 16456.8 L 128058.1 16456.8 Z M 136616.9 12236.3 L 136616.9 13627.8 Q 137444.9 12730.8 138203.9 12322.55 Q 138962.9 11914.3 139836.9 11914.3 Q 140883.4 11914.3 141573.4 12495.05 Q 142263.4 13075.8 142493.4 13938.3 Q 142677.4 14593.8 142677.4 16456.8 L 142677.4 20642.8 Q 142677.4 21884.8 142901.65 22189.55 Q 143125.9 22494.3 143838.9 22574.8 L 143838.9 22988.8 L 138399.4 22988.8 L 138399.4 22574.8 Q 139008.9 22494.3 139273.4 22068.8 Q 139457.4 21781.3 139457.4 20642.8 L 139457.4 15858.8 Q 139457.4 14536.3 139353.9 14191.3 Q 139250.4 13846.3 139003.15 13656.55 Q 138755.9 13466.8 138456.9 13466.8 Q 137467.9 13466.8 136616.9 14881.3 L 136616.9 20642.8 Q 136616.9 21850.3 136841.15 22172.3 Q 137065.4 22494.3 137674.9 22574.8 L 137674.9 22988.8 L 132235.4 22988.8 L 132235.4 22574.8 Q 132913.9 22505.8 133201.4 22137.8 Q 133396.9 21884.8 133396.9 20642.8 L 133396.9 14570.8 Q 133396.9 13351.8 133172.65 13052.8 Q 132948.4 12753.8 132235.4 12661.8 L 132235.4 12236.3 L 136616.9 12236.3 Z M 147867.4 7026.8 Q 148614.9 7026.8 149132.4 7550.05 Q 149649.9 8073.3 149649.9 8809.3 Q 149649.9 9545.3 149126.65 10062.8 Q 148603.4 10580.3 147867.4 10580.3 Q 147131.4 10580.3 146613.9 10062.8 Q 146096.4 9545.3 146096.4 8809.3 Q 146096.4 8073.3 146613.9 7550.05 Q 147131.4 7026.8 147867.4 7026.8  Z M 149477.4 12236.3 L 149477.4 20757.8 Q 149477.4 21896.3 149741.9 22212.55 Q 150006.4 22528.8 150776.9 22574.8 L 150776.9 22988.8 L 144969.4 22988.8 L 144969.4 22574.8 Q 145682.4 22551.8 146027.4 22160.8 Q 146257.4 21896.3 146257.4 20757.8 L 146257.4 14478.8 Q 146257.4 13340.3 145992.9 13024.05 Q 145728.4 12707.8 144969.4 12661.8 L 144969.4 12236.3 L 149477.4 12236.3 Z M 160556.8 20217.3 L 160913.3 20493.3 Q 160154.3 21919.3 159021.55 22615.05 Q 157888.8 23310.8 156612.3 23310.8 Q 154461.8 23310.8 153173.8 21689.3 Q 151885.8 20067.8 151885.8 17790.8 Q 151885.8 15594.3 153058.8 13926.8 Q 154473.3 11914.3 156957.3 11914.3 Q 158624.8 11914.3 159608.05 12753.8 Q 160591.3 13593.3 160591.3 14628.3 Q 160591.3 15283.8 160194.55 15674.8 Q 159797.8 16065.8 159153.8 16065.8 Q 158475.3 16065.8 158032.55 15617.3 Q 157589.8 15168.8 157486.3 14018.8 Q 157417.3 13294.3 157152.8 13006.8 Q 156888.3 12719.3 156531.8 12719.3 Q 155979.8 12719.3 155588.8 13305.8 Q 154990.8 14191.3 154990.8 16019.8 Q 154990.8 17537.8 155473.8 18923.55 Q 155956.8 20309.3 156796.3 20987.8 Q 157428.8 21482.3 158291.3 21482.3 Q 158854.8 21482.3 159360.8 21217.8 Q 159866.8 20953.3 160556.8 20217.3  Z M 8522.5 34301.4 L 8522.5 40706.9 L 8971 40706.9 Q 10006 40706.9 10661.5 40396.4 Q 11317 40085.9 11771.25 39349.9 Q 12225.5 38613.9 12363.5 37360.4 L 12766 37360.4 L 12766 45191.9 L 12363.5 45191.9 Q 12145 42972.4 11173.25 42265.15 Q 10201.5 41557.9 8971 41557.9 L 8522.5 41557.9 L 8522.5 46330.4 Q 8522.5 47526.4 8654.75 47825.4 Q 8787 48124.4 9172.25 48348.65 Q 9557.5 48572.9 10213 48572.9 L 10730.5 48572.9 L 10730.5 48998.4 L 2577 48998.4 L 2577 48572.9 L 3094.5 48572.9 Q 3773 48572.9 4187 48331.4 Q 4486 48170.4 4647 47779.4 Q 4773.5 47503.4 4773.5 46330.4 L 4773.5 36072.4 Q 4773.5 34876.4 4647 34577.4 Q 4520.5 34278.4 4135.25 34054.15 Q 3750 33829.9 3094.5 33829.9 L 2577 33829.9 L 2577 33404.4 L 15733 33404.4 L 15733 37877.9 L 15261.5 37877.9 Q 15100.5 36302.4 14439.25 35543.4 Q 13778 34784.4 12524.5 34473.9 Q 11834.5 34301.4 9971.5 34301.4 L 8522.5 34301.4 Z M 27613.2 38245.9 L 27613.2 46663.9 Q 27613.2 47894.4 27843.2 48199.15 Q 28073.2 48503.9 28774.7 48584.4 L 28774.7 48998.4 L 24393.2 48998.4 L 24393.2 47560.9 Q 23622.7 48480.9 22852.2 48900.65 Q 22081.7 49320.4 21127.2 49320.4 Q 20218.7 49320.4 19511.45 48762.65 Q 18804.2 48204.9 18562.7 47457.4 Q 18321.2 46709.9 18321.2 44846.9 L 18321.2 40580.4 Q 18321.2 39361.4 18096.95 39062.4 Q 17872.7 38763.4 17159.7 38671.4 L 17159.7 38245.9 L 21541.2 38245.9 L 21541.2 45594.4 Q 21541.2 46744.4 21650.45 47077.9 Q 21759.7 47411.4 21995.45 47583.9 Q 22231.2 47756.4 22541.7 47756.4 Q 22955.7 47756.4 23289.2 47537.9 Q 23749.2 47238.9 24393.2 46330.4 L 24393.2 40580.4 Q 24393.2 39361.4 24168.95 39062.4 Q 23944.7 38763.4 23231.7 38671.4 L 23231.7 38245.9 L 27613.2 38245.9 Z M 37081.2 37946.9 L 37253.7 41615.4 L 36862.7 41615.4 Q 36161.2 39982.4 35407.95 39384.4 Q 34654.7 38786.4 33907.2 38786.4 Q 33435.7 38786.4 33102.2 39102.65 Q 32768.7 39418.9 32768.7 39832.9 Q 32768.7 40143.4 32998.7 40430.9 Q 33366.7 40902.4 35057.2 42046.65 Q 36747.7 43190.9 37282.45 43990.15 Q 37817.2 44789.4 37817.2 45778.4 Q 37817.2 46675.4 37368.7 47537.9 Q 36920.2 48400.4 36103.7 48860.4 Q 35287.2 49320.4 34298.2 49320.4 Q 33527.7 49320.4 32239.7 48837.4 Q 31894.7 48710.9 31768.2 48710.9 Q 31388.7 48710.9 31135.7 49285.9 L 30756.2 49285.9 L 30572.2 45421.9 L 30963.2 45421.9 Q 31480.7 46939.9 32383.45 47698.9 Q 33286.2 48457.9 34091.2 48457.9 Q 34643.2 48457.9 34993.95 48118.65 Q 35344.7 47779.4 35344.7 47296.4 Q 35344.7 46744.4 34999.7 46341.9 Q 34654.7 45939.4 33458.7 45122.9 Q 31699.2 43903.9 31181.7 43259.9 Q 30422.7 42316.9 30422.7 41178.4 Q 30422.7 39936.4 31279.45 38930.15 Q 32136.2 37923.9 33757.7 37923.9 Q 34631.7 37923.9 35448.2 38349.4 Q 35758.7 38521.9 35954.2 38521.9 Q 36161.2 38521.9 36287.7 38435.65 Q 36414.2 38349.4 36690.2 37946.9 L 37081.2 37946.9 Z M 45383.5 47411.4 Q 43417 49147.9 41853 49147.9 Q 40933 49147.9 40323.5 48544.15 Q 39714 47940.4 39714 47031.9 Q 39714 45801.4 40772 44818.15 Q 41830 43834.9 45383.5 42201.9 L 45383.5 41120.9 Q 45383.5 39901.9 45251.25 39585.65 Q 45119 39269.4 44751 39033.65 Q 44383 38797.9 43923 38797.9 Q 43175.5 38797.9 42692.5 39131.4 Q 42393.5 39338.4 42393.5 39614.4 Q 42393.5 39855.9 42715.5 40212.4 Q 43152.5 40706.9 43152.5 41166.9 Q 43152.5 41730.4 42732.75 42127.15 Q 42313 42523.9 41634.5 42523.9 Q 40910 42523.9 40421.25 42086.9 Q 39932.5 41649.9 39932.5 41063.4 Q 39932.5 40235.4 40588 39482.15 Q 41243.5 38728.9 42416.5 38326.4 Q 43589.5 37923.9 44854.5 37923.9 Q 46384 37923.9 47275.25 38573.65 Q 48166.5 39223.4 48431 39982.4 Q 48592 40465.4 48592 42201.9 L 48592 46376.4 Q 48592 47112.4 48649.5 47302.15 Q 48707 47491.9 48822 47583.9 Q 48937 47675.9 49086.5 47675.9 Q 49385.5 47675.9 49696 47250.4 L 50041 47526.4 Q 49466 48377.4 48850.75 48762.65 Q 48235.5 49147.9 47453.5 49147.9 Q 46533.5 49147.9 46016 48716.65 Q 45498.5 48285.4 45383.5 47411.4  Z M 45383.5 46571.9 L 45383.5 42972.4 Q 43992 43788.9 43313.5 44720.4 Q 42865 45341.4 42865 45973.9 Q 42865 46502.9 43244.5 46905.4 Q 43532 47215.9 44049.5 47215.9 Q 44624.5 47215.9 45383.5 46571.9  Z M 55687.5 38245.9 L 55687.5 40683.9 Q 56757 39016.4 57562 38470.15 Q 58367 37923.9 59114.5 37923.9 Q 59758.5 37923.9 60143.75 38320.65 Q 60529 38717.4 60529 39441.9 Q 60529 40212.4 60155.25 40637.9 Q 59781.5 41063.4 59252.5 41063.4 Q 58643 41063.4 58194.5 40672.4 Q 57746 40281.4 57665.5 40235.4 Q 57550.5 40166.4 57401 40166.4 Q 57067.5 40166.4 56768.5 40419.4 Q 56297 40810.4 56055.5 41534.9 Q 55687.5 42650.4 55687.5 43995.9 L 55687.5 46468.4 L 55699 47112.4 Q 55699 47767.9 55779.5 47951.9 Q 55917.5 48262.4 56187.75 48406.15 Q 56458 48549.9 57102 48584.4 L 57102 48998.4 L 51294.5 48998.4 L 51294.5 48584.4 Q 51996 48526.9 52243.25 48199.15 Q 52490.5 47871.4 52490.5 46468.4 L 52490.5 40522.9 Q 52490.5 39602.9 52398.5 39349.9 Q 52283.5 39027.9 52065 38878.4 Q 51846.5 38728.9 51294.5 38671.4 L 51294.5 38245.9 L 55687.5 38245.9 Z M 64257.8 33036.4 Q 65005.3 33036.4 65522.8 33559.65 Q 66040.3 34082.9 66040.3 34818.9 Q 66040.3 35554.9 65517.05 36072.4 Q 64993.8 36589.9 64257.8 36589.9 Q 63521.8 36589.9 63004.3 36072.4 Q 62486.8 35554.9 62486.8 34818.9 Q 62486.8 34082.9 63004.3 33559.65 Q 63521.8 33036.4 64257.8 33036.4  Z M 65867.8 38245.9 L 65867.8 46767.4 Q 65867.8 47905.9 66132.3 48222.15 Q 66396.8 48538.4 67167.3 48584.4 L 67167.3 48998.4 L 61359.8 48998.4 L 61359.8 48584.4 Q 62072.8 48561.4 62417.8 48170.4 Q 62647.8 47905.9 62647.8 46767.4 L 62647.8 40488.4 Q 62647.8 39349.9 62383.3 39033.65 Q 62118.8 38717.4 61359.8 38671.4 L 61359.8 38245.9 L 65867.8 38245.9 Z M 78557.2 38245.9 L 78557.2 46663.9 Q 78557.2 47894.4 78787.2 48199.15 Q 79017.2 48503.9 79718.7 48584.4 L 79718.7 48998.4 L 75337.2 48998.4 L 75337.2 47560.9 Q 74566.7 48480.9 73796.2 48900.65 Q 73025.7 49320.4 72071.2 49320.4 Q 71162.7 49320.4 70455.45 48762.65 Q 69748.2 48204.9 69506.7 47457.4 Q 69265.2 46709.9 69265.2 44846.9 L 69265.2 40580.4 Q 69265.2 39361.4 69040.95 39062.4 Q 68816.7 38763.4 68103.7 38671.4 L 68103.7 38245.9 L 72485.2 38245.9 L 72485.2 45594.4 Q 72485.2 46744.4 72594.45 47077.9 Q 72703.7 47411.4 72939.45 47583.9 Q 73175.2 47756.4 73485.7 47756.4 Q 73899.7 47756.4 74233.2 47537.9 Q 74693.2 47238.9 75337.2 46330.4 L 75337.2 40580.4 Q 75337.2 39361.4 75112.95 39062.4 Q 74888.7 38763.4 74175.7 38671.4 L 74175.7 38245.9 L 78557.2 38245.9 Z M 85690.7 38245.9 L 85690.7 39660.4 Q 86576.2 38694.4 87329.45 38309.15 Q 88082.7 37923.9 88979.7 37923.9 Q 90014.7 37923.9 90716.2 38406.9 Q 91417.7 38889.9 91797.2 39878.9 Q 92717.2 38843.9 93562.45 38383.9 Q 94407.7 37923.9 95327.7 37923.9 Q 96443.2 37923.9 97104.45 38435.65 Q 97765.7 38947.4 98024.45 39735.15 Q 98283.2 40522.9 98283.2 42247.9 L 98283.2 46652.4 Q 98283.2 47894.4 98507.45 48193.4 Q 98731.7 48492.4 99444.7 48584.4 L 99444.7 48998.4 L 93890.2 48998.4 L 93890.2 48584.4 Q 94545.7 48526.9 94856.2 48078.4 Q 95063.2 47767.9 95063.2 46652.4 L 95063.2 42029.4 Q 95063.2 40591.9 94948.2 40200.9 Q 94833.2 39809.9 94585.95 39620.15 Q 94338.7 39430.4 94005.2 39430.4 Q 93510.7 39430.4 93004.7 39792.65 Q 92498.7 40154.9 91981.2 40879.4 L 91981.2 46652.4 Q 91981.2 47813.9 92176.7 48112.9 Q 92441.2 48538.4 93188.7 48584.4 L 93188.7 48998.4 L 87622.7 48998.4 L 87622.7 48584.4 Q 88071.2 48561.4 88329.95 48360.15 Q 88588.7 48158.9 88674.95 47877.15 Q 88761.2 47595.4 88761.2 46652.4 L 88761.2 42029.4 Q 88761.2 40568.9 88646.2 40200.9 Q 88531.2 39832.9 88260.95 39625.9 Q 87990.7 39418.9 87680.2 39418.9 Q 87220.2 39418.9 86840.7 39660.4 Q 86300.2 40016.9 85690.7 40879.4 L 85690.7 46652.4 Q 85690.7 47790.9 85914.95 48153.15 Q 86139.2 48515.4 86852.2 48584.4 L 86852.2 48998.4 L 81309.2 48998.4 L 81309.2 48584.4 Q 81987.7 48515.4 82275.2 48147.4 Q 82470.7 47894.4 82470.7 46652.4 L 82470.7 40580.4 Q 82470.7 39361.4 82246.45 39062.4 Q 82022.2 38763.4 81309.2 38671.4 L 81309.2 38245.9 L 85690.7 38245.9 Z M 7913 63933.5 Q 9316 63933.5 10523.5 64658 Q 11731 65382.5 12357.75 66716.5 Q 12984.5 68050.5 12984.5 69637.5 Q 12984.5 71926 11823 73467 Q 10420 75330 7947.5 75330 Q 5521 75330 4210 73628 Q 2899 71926 2899 69683.5 Q 2899 67372 4238.75 65652.75 Q 5578.5 63933.5 7913 63933.5  Z M 7959 64750 Q 7372.5 64750 6952.75 65192.75 Q 6533 65635.5 6400.75 66940.75 Q 6268.5 68246 6268.5 70569 Q 6268.5 71799.5 6429.5 72869 Q 6556 73685.5 6970 74111 Q 7384 74536.5 7913 74536.5 Q 8430.5 74536.5 8775.5 74249 Q 9224 73858 9373.5 73156.5 Q 9603.5 72064 9603.5 68740.5 Q 9603.5 66785.5 9385 66055.25 Q 9166.5 65325 8741 64991.5 Q 8442 64750 7959 64750  Z M 20977 68418.5 L 22840 71960.5 Q 23806 73812 24369.5 74306.5 Q 24680 74571 25220.5 74594 L 25220.5 75008 L 19229 75008 L 19229 74594 Q 19930.5 74536.5 20097.25 74410 Q 20264 74283.5 20264 74065 Q 20264 73743 19896 73053 L 18964.5 71305 L 18171 72466.5 Q 17630.5 73260 17561.5 73409.5 Q 17469.5 73628 17469.5 73800.5 Q 17469.5 74065 17578.75 74243.25 Q 17688 74421.5 17877.75 74507.75 Q 18067.5 74594 18573.5 74594 L 18573.5 75008 L 14364.5 75008 L 14364.5 74594 Q 15146.5 74594 15796.25 74162.75 Q 16446 73731.5 17688 71903 L 18573.5 70592 L 16722 67165 Q 15813.5 65486 15365 65106.5 Q 14916.5 64727 14364.5 64681 L 14364.5 64255.5 L 20321.5 64255.5 L 20321.5 64681 L 20011 64692.5 L 19413 64899.5 Q 19321 64980 19321 65164 Q 19321 65336.5 19378.5 65520.5 Q 19413 65601 19700.5 66141.5 L 20540 67705.5 L 20977 67084.5 Q 21897 65819.5 21897 65313.5 Q 21897 65072 21695.75 64905.25 Q 21494.5 64738.5 20977 64681 L 20977 64255.5 L 24783.5 64255.5 L 24783.5 64681 Q 24082 64704 23472.5 65112.25 Q 22863 65520.5 22104 66693.5 L 20977 68418.5 Z M 31327 75445 L 27854 67475.5 Q 27072 65670 26698.25 65256 Q 26324.5 64842 25795.5 64681 L 25795.5 64255.5 L 31511 64255.5 L 31511 64681 Q 30947.5 64704 30717.5 64899.5 Q 30487.5 65095 30487.5 65371 Q 30487.5 65808 31062.5 67096 L 32902.5 71305 L 34156 68050.5 Q 34834.5 66314 34834.5 65635.5 Q 34834.5 65210 34552.75 64957 Q 34271 64704 33558 64681 L 33558 64255.5 L 37157.5 64255.5 L 37157.5 64681 Q 36628.5 64738.5 36295 65089.25 Q 35961.5 65440 35179.5 67475.5 L 32109 75445 Q 30947.5 78435 30384 79125 Q 29590.5 80091 28394.5 80091 Q 27440 80091 26847.75 79544.75 Q 26255.5 78998.5 26255.5 78228 Q 26255.5 77561 26663.75 77124 Q 27072 76687 27670 76687 Q 28245 76687 28595.75 77055 Q 28946.5 77423 28958 78193.5 Q 28969.5 78630.5 29061.5 78757 Q 29153.5 78883.5 29326 78883.5 Q 29602 78883.5 29912.5 78550 Q 30372.5 78067 30993.5 76342 L 31327 75445 Z M 44966 63956.5 L 45138.5 67625 L 44747.5 67625 Q 44046 65992 43292.75 65394 Q 42539.5 64796 41792 64796 Q 41320.5 64796 40987 65112.25 Q 40653.5 65428.5 40653.5 65842.5 Q 40653.5 66153 40883.5 66440.5 Q 41251.5 66912 42942 68056.25 Q 44632.5 69200.5 45167.25 69999.75 Q 45702 70799 45702 71788 Q 45702 72685 45253.5 73547.5 Q 44805 74410 43988.5 74870 Q 43172 75330 42183 75330 Q 41412.5 75330 40124.5 74847 Q 39779.5 74720.5 39653 74720.5 Q 39273.5 74720.5 39020.5 75295.5 L 38641 75295.5 L 38457 71431.5 L 38848 71431.5 Q 39365.5 72949.5 40268.25 73708.5 Q 41171 74467.5 41976 74467.5 Q 42528 74467.5 42878.75 74128.25 Q 43229.5 73789 43229.5 73306 Q 43229.5 72754 42884.5 72351.5 Q 42539.5 71949 41343.5 71132.5 Q 39584 69913.5 39066.5 69269.5 Q 38307.5 68326.5 38307.5 67188 Q 38307.5 65946 39164.25 64939.75 Q 40021 63933.5 41642.5 63933.5 Q 42516.5 63933.5 43333 64359 Q 43643.5 64531.5 43839 64531.5 Q 44046 64531.5 44172.5 64445.25 Q 44299 64359 44575 63956.5 L 44966 63956.5 Z M 51497.3 73915.5 L 51497.3 77917.5 Q 51497.3 78745.5 51629.55 79044.5 Q 51761.8 79343.5 52037.8 79481.5 Q 52313.8 79619.5 53118.8 79619.5 L 53118.8 80045 L 46989.3 80045 L 46989.3 79619.5 Q 47702.3 79596.5 48047.3 79217 Q 48277.3 78952.5 48277.3 77848.5 L 48277.3 66498 Q 48277.3 65359.5 48012.8 65043.25 Q 47748.3 64727 46989.3 64681 L 46989.3 64255.5 L 51497.3 64255.5 L 51497.3 65670 Q 52060.8 64842 52647.3 64474 Q 53486.8 63933.5 54475.8 63933.5 Q 55660.3 63933.5 56632.05 64681 Q 57603.8 65428.5 58109.8 66745.25 Q 58615.8 68062 58615.8 69580 Q 58615.8 71213 58092.55 72564.25 Q 57569.3 73915.5 56574.55 74622.75 Q 55579.8 75330 54360.8 75330 Q 53475.3 75330 52704.8 74939 Q 52129.8 74640 51497.3 73915.5  Z M 51497.3 72754 Q 52486.3 74157 53613.3 74157 Q 54234.3 74157 54636.8 73501.5 Q 55234.8 72535.5 55234.8 69821.5 Q 55234.8 67038.5 54579.3 66015 Q 54142.3 65336.5 53406.3 65336.5 Q 52244.8 65336.5 51497.3 67015.5 L 51497.3 72754 Z M 65461.8 63933.5 Q 66864.8 63933.5 68072.3 64658 Q 69279.8 65382.5 69906.55 66716.5 Q 70533.3 68050.5 70533.3 69637.5 Q 70533.3 71926 69371.8 73467 Q 67968.8 75330 65496.3 75330 Q 63069.8 75330 61758.8 73628 Q 60447.8 71926 60447.8 69683.5 Q 60447.8 67372 61787.55 65652.75 Q 63127.3 63933.5 65461.8 63933.5  Z M 65507.8 64750 Q 64921.3 64750 64501.55 65192.75 Q 64081.8 65635.5 63949.55 66940.75 Q 63817.3 68246 63817.3 70569 Q 63817.3 71799.5 63978.3 72869 Q 64104.8 73685.5 64518.8 74111 Q 64932.8 74536.5 65461.8 74536.5 Q 65979.3 74536.5 66324.3 74249 Q 66772.8 73858 66922.3 73156.5 Q 67152.3 72064 67152.3 68740.5 Q 67152.3 66785.5 66933.8 66055.25 Q 66715.3 65325 66289.8 64991.5 Q 65990.8 64750 65507.8 64750  Z M 76628.3 64255.5 L 76628.3 66693.5 Q 77697.8 65026 78502.8 64479.75 Q 79307.8 63933.5 80055.3 63933.5 Q 80699.3 63933.5 81084.55 64330.25 Q 81469.8 64727 81469.8 65451.5 Q 81469.8 66222 81096.05 66647.5 Q 80722.3 67073 80193.3 67073 Q 79583.8 67073 79135.3 66682 Q 78686.8 66291 78606.3 66245 Q 78491.3 66176 78341.8 66176 Q 78008.3 66176 77709.3 66429 Q 77237.8 66820 76996.3 67544.5 Q 76628.3 68660 76628.3 70005.5 L 76628.3 72478 L 76639.8 73122 Q 76639.8 73777.5 76720.3 73961.5 Q 76858.3 74272 77128.55 74415.75 Q 77398.8 74559.5 78042.8 74594 L 78042.8 75008 L 72235.3 75008 L 72235.3 74594 Q 72936.8 74536.5 73184.05 74208.75 Q 73431.3 73881 73431.3 72478 L 73431.3 66532.5 Q 73431.3 65612.5 73339.3 65359.5 Q 73224.3 65037.5 73005.8 64888 Q 72787.3 64738.5 72235.3 64681 L 72235.3 64255.5 L 76628.3 64255.5 Z M 92995.6 64255.5 L 92995.6 72673.5 Q 92995.6 73904 93225.6 74208.75 Q 93455.6 74513.5 94157.1 74594 L 94157.1 75008 L 89775.6 75008 L 89775.6 73570.5 Q 89005.1 74490.5 88234.6 74910.25 Q 87464.1 75330 86509.6 75330 Q 85601.1 75330 84893.85 74772.25 Q 84186.6 74214.5 83945.1 73467 Q 83703.6 72719.5 83703.6 70856.5 L 83703.6 66590 Q 83703.6 65371 83479.35 65072 Q 83255.1 64773 82542.1 64681 L 82542.1 64255.5 L 86923.6 64255.5 L 86923.6 71604 Q 86923.6 72754 87032.85 73087.5 Q 87142.1 73421 87377.85 73593.5 Q 87613.6 73766 87924.1 73766 Q 88338.1 73766 88671.6 73547.5 Q 89131.6 73248.5 89775.6 72340 L 89775.6 66590 Q 89775.6 65371 89551.35 65072 Q 89327.1 64773 88614.1 64681 L 88614.1 64255.5 L 92995.6 64255.5 Z M 100129.1 64255.5 L 100129.1 65670 Q 101014.6 64704 101767.85 64318.75 Q 102521.1 63933.5 103418.1 63933.5 Q 104453.1 63933.5 105154.6 64416.5 Q 105856.1 64899.5 106235.6 65888.5 Q 107155.6 64853.5 108000.85 64393.5 Q 108846.1 63933.5 109766.1 63933.5 Q 110881.6 63933.5 111542.85 64445.25 Q 112204.1 64957 112462.85 65744.75 Q 112721.6 66532.5 112721.6 68257.5 L 112721.6 72662 Q 112721.6 73904 112945.85 74203 Q 113170.1 74502 113883.1 74594 L 113883.1 75008 L 108328.6 75008 L 108328.6 74594 Q 108984.1 74536.5 109294.6 74088 Q 109501.6 73777.5 109501.6 72662 L 109501.6 68039 Q 109501.6 66601.5 109386.6 66210.5 Q 109271.6 65819.5 109024.35 65629.75 Q 108777.1 65440 108443.6 65440 Q 107949.1 65440 107443.1 65802.25 Q 106937.1 66164.5 106419.6 66889 L 106419.6 72662 Q 106419.6 73823.5 106615.1 74122.5 Q 106879.6 74548 107627.1 74594 L 107627.1 75008 L 102061.1 75008 L 102061.1 74594 Q 102509.6 74571 102768.35 74369.75 Q 103027.1 74168.5 103113.35 73886.75 Q 103199.6 73605 103199.6 72662 L 103199.6 68039 Q 103199.6 66578.5 103084.6 66210.5 Q 102969.6 65842.5 102699.35 65635.5 Q 102429.1 65428.5 102118.6 65428.5 Q 101658.6 65428.5 101279.1 65670 Q 100738.6 66026.5 100129.1 66889 L 100129.1 72662 Q 100129.1 73800.5 100353.35 74162.75 Q 100577.6 74525 101290.6 74594 L 101290.6 75008 L 95747.6 75008 L 95747.6 74594 Q 96426.1 74525 96713.6 74157 Q 96909.1 73904 96909.1 72662 L 96909.1 66590 Q 96909.1 65371 96684.85 65072 Q 96460.6 64773 95747.6 64681 L 95747.6 64255.5 L 100129.1 64255.5 Z M 125327.7 73915.5 L 125327.7 77917.5 Q 125327.7 78745.5 125459.95 79044.5 Q 125592.2 79343.5 125868.2 79481.5 Q 126144.2 79619.5 126949.2 79619.5 L 126949.2 80045 L 120819.7 80045 L 120819.7 79619.5 Q 121532.7 79596.5 121877.7 79217 Q 122107.7 78952.5 122107.7 77848.5 L 122107.7 66498 Q 122107.7 65359.5 121843.2 65043.25 Q 121578.7 64727 120819.7 64681 L 120819.7 64255.5 L 125327.7 64255.5 L 125327.7 65670 Q 125891.2 64842 126477.7 64474 Q 127317.2 63933.5 128306.2 63933.5 Q 129490.7 63933.5 130462.45 64681 Q 131434.2 65428.5 131940.2 66745.25 Q 132446.2 68062 132446.2 69580 Q 132446.2 71213 131922.95 72564.25 Q 131399.7 73915.5 130404.95 74622.75 Q 129410.2 75330 128191.2 75330 Q 127305.7 75330 126535.2 74939 Q 125960.2 74640 125327.7 73915.5  Z M 125327.7 72754 Q 126316.7 74157 127443.7 74157 Q 128064.7 74157 128467.2 73501.5 Q 129065.2 72535.5 129065.2 69821.5 Q 129065.2 67038.5 128409.7 66015 Q 127972.7 65336.5 127236.7 65336.5 Q 126075.2 65336.5 125327.7 67015.5 L 125327.7 72754 Z M 138682.7 64255.5 L 138682.7 66693.5 Q 139752.2 65026 140557.2 64479.75 Q 141362.2 63933.5 142109.7 63933.5 Q 142753.7 63933.5 143138.95 64330.25 Q 143524.2 64727 143524.2 65451.5 Q 143524.2 66222 143150.45 66647.5 Q 142776.7 67073 142247.7 67073 Q 141638.2 67073 141189.7 66682 Q 140741.2 66291 140660.7 66245 Q 140545.7 66176 140396.2 66176 Q 140062.7 66176 139763.7 66429 Q 139292.2 66820 139050.7 67544.5 Q 138682.7 68660 138682.7 70005.5 L 138682.7 72478 L 138694.2 73122 Q 138694.2 73777.5 138774.7 73961.5 Q 138912.7 74272 139182.95 74415.75 Q 139453.2 74559.5 140097.2 74594 L 140097.2 75008 L 134289.7 75008 L 134289.7 74594 Q 134991.2 74536.5 135238.45 74208.75 Q 135485.7 73881 135485.7 72478 L 135485.7 66532.5 Q 135485.7 65612.5 135393.7 65359.5 Q 135278.7 65037.5 135060.2 64888 Q 134841.7 64738.5 134289.7 64681 L 134289.7 64255.5 L 138682.7 64255.5 Z M 153773.5 69246.5 L 147874 69246.5 Q 147977.5 71385.5 149012.5 72627.5 Q 149806 73582 150921.5 73582 Q 151611.5 73582 152175 73196.75 Q 152738.5 72811.5 153382.5 71811 L 153773.5 72064 Q 152899.5 73846.5 151841.5 74588.25 Q 150783.5 75330 149392 75330 Q 147000 75330 145769.5 73490 Q 144780.5 72006.5 144780.5 69810 Q 144780.5 67119 146235.25 65526.25 Q 147690 63933.5 149645 63933.5 Q 151278 63933.5 152479.75 65273.25 Q 153681.5 66613 153773.5 69246.5  Z M 150944.5 68476 Q 150944.5 66624.5 150743.25 65934.5 Q 150542 65244.5 150116.5 64888 Q 149875 64681 149472.5 64681 Q 148874.5 64681 148495 65267.5 Q 147816.5 66291 147816.5 68073.5 L 147816.5 68476 L 150944.5 68476 Z M 161596.3 70787.5 L 154891.8 70787.5 L 154891.8 68407 L 161596.3 68407 L 161596.3 70787.5 Z M 5429 85055.6 Q 6176.5 85055.6 6694 85578.85 Q 7211.5 86102.1 7211.5 86838.1 Q 7211.5 87574.1 6688.25 88091.6 Q 6165 88609.1 5429 88609.1 Q 4693 88609.1 4175.5 88091.6 Q 3658 87574.1 3658 86838.1 Q 3658 86102.1 4175.5 85578.85 Q 4693 85055.6 5429 85055.6  Z M 7039 90265.1 L 7039 98786.6 Q 7039 99925.1 7303.5 100241.35 Q 7568 100557.6 8338.5 100603.6 L 8338.5 101017.6 L 2531 101017.6 L 2531 100603.6 Q 3244 100580.6 3589 100189.6 Q 3819 99925.1 3819 98786.6 L 3819 92507.6 Q 3819 91369.1 3554.5 91052.85 Q 3290 90736.6 2531 90690.6 L 2531 90265.1 L 7039 90265.1 Z M 13736.9 90265.1 L 13736.9 91656.6 Q 14564.9 90759.6 15323.9 90351.35 Q 16082.9 89943.1 16956.9 89943.1 Q 18003.4 89943.1 18693.4 90523.85 Q 19383.4 91104.6 19613.4 91967.1 Q 19797.4 92622.6 19797.4 94485.6 L 19797.4 98671.6 Q 19797.4 99913.6 20021.65 100218.35 Q 20245.9 100523.1 20958.9 100603.6 L 20958.9 101017.6 L 15519.4 101017.6 L 15519.4 100603.6 Q 16128.9 100523.1 16393.4 100097.6 Q 16577.4 99810.1 16577.4 98671.6 L 16577.4 93887.6 Q 16577.4 92565.1 16473.9 92220.1 Q 16370.4 91875.1 16123.15 91685.35 Q 15875.9 91495.6 15576.9 91495.6 Q 14587.9 91495.6 13736.9 92910.1 L 13736.9 98671.6 Q 13736.9 99879.1 13961.15 100201.1 Q 14185.4 100523.1 14794.9 100603.6 L 14794.9 101017.6 L 9355.4 101017.6 L 9355.4 100603.6 Q 10033.9 100534.6 10321.4 100166.6 Q 10516.9 99913.6 10516.9 98671.6 L 10516.9 92599.6 Q 10516.9 91380.6 10292.65 91081.6 Q 10068.4 90782.6 9355.4 90690.6 L 9355.4 90265.1 L 13736.9 90265.1 Z M 27471.4 89943.1 Q 28874.4 89943.1 30081.9 90667.6 Q 31289.4 91392.1 31916.15 92726.1 Q 32542.9 94060.1 32542.9 95647.1 Q 32542.9 97935.6 31381.4 99476.6 Q 29978.4 101339.6 27505.9 101339.6 Q 25079.4 101339.6 23768.4 99637.6 Q 22457.4 97935.6 22457.4 95693.1 Q 22457.4 93381.6 23797.15 91662.35 Q 25136.9 89943.1 27471.4 89943.1  Z M 27517.4 90759.6 Q 26930.9 90759.6 26511.15 91202.35 Q 26091.4 91645.1 25959.15 92950.35 Q 25826.9 94255.6 25826.9 96578.6 Q 25826.9 97809.1 25987.9 98878.6 Q 26114.4 99695.1 26528.4 100120.6 Q 26942.4 100546.1 27471.4 100546.1 Q 27988.9 100546.1 28333.9 100258.6 Q 28782.4 99867.6 28931.9 99166.1 Q 29161.9 98073.6 29161.9 94750.1 Q 29161.9 92795.1 28943.4 92064.85 Q 28724.9 91334.6 28299.4 91001.1 Q 28000.4 90759.6 27517.4 90759.6  Z M 42950.4 98246.1 L 43306.9 98522.1 Q 42547.9 99948.1 41415.15 100643.85 Q 40282.4 101339.6 39005.9 101339.6 Q 36855.4 101339.6 35567.4 99718.1 Q 34279.4 98096.6 34279.4 95819.6 Q 34279.4 93623.1 35452.4 91955.6 Q 36866.9 89943.1 39350.9 89943.1 Q 41018.4 89943.1 42001.65 90782.6 Q 42984.9 91622.1 42984.9 92657.1 Q 42984.9 93312.6 42588.15 93703.6 Q 42191.4 94094.6 41547.4 94094.6 Q 40868.9 94094.6 40426.15 93646.1 Q 39983.4 93197.6 39879.9 92047.6 Q 39810.9 91323.1 39546.4 91035.6 Q 39281.9 90748.1 38925.4 90748.1 Q 38373.4 90748.1 37982.4 91334.6 Q 37384.4 92220.1 37384.4 94048.6 Q 37384.4 95566.6 37867.4 96952.35 Q 38350.4 98338.1 39189.9 99016.6 Q 39822.4 99511.1 40684.9 99511.1 Q 41248.4 99511.1 41754.4 99246.6 Q 42260.4 98982.1 42950.4 98246.1  Z M 55005.2 90265.1 L 55005.2 98683.1 Q 55005.2 99913.6 55235.2 100218.35 Q 55465.2 100523.1 56166.7 100603.6 L 56166.7 101017.6 L 51785.2 101017.6 L 51785.2 99580.1 Q 51014.7 100500.1 50244.2 100919.85 Q 49473.7 101339.6 48519.2 101339.6 Q 47610.7 101339.6 46903.45 100781.85 Q 46196.2 100224.1 45954.7 99476.6 Q 45713.2 98729.1 45713.2 96866.1 L 45713.2 92599.6 Q 45713.2 91380.6 45488.95 91081.6 Q 45264.7 90782.6 44551.7 90690.6 L 44551.7 90265.1 L 48933.2 90265.1 L 48933.2 97613.6 Q 48933.2 98763.6 49042.45 99097.1 Q 49151.7 99430.6 49387.45 99603.1 Q 49623.2 99775.6 49933.7 99775.6 Q 50347.7 99775.6 50681.2 99557.1 Q 51141.2 99258.1 51785.2 98349.6 L 51785.2 92599.6 Q 51785.2 91380.6 51560.95 91081.6 Q 51336.7 90782.6 50623.7 90690.6 L 50623.7 90265.1 L 55005.2 90265.1 Z M 61885.7 85423.6 L 61885.7 98786.6 Q 61885.7 99925.1 62150.2 100241.35 Q 62414.7 100557.6 63185.2 100603.6 L 63185.2 101017.6 L 57377.7 101017.6 L 57377.7 100603.6 Q 58090.7 100580.6 58435.7 100189.6 Q 58665.7 99925.1 58665.7 98786.6 L 58665.7 87654.6 Q 58665.7 86527.6 58401.2 86211.35 Q 58136.7 85895.1 57377.7 85849.1 L 57377.7 85423.6 L 61885.7 85423.6 Z M 70113.1 99430.6 Q 68146.6 101167.1 66582.6 101167.1 Q 65662.6 101167.1 65053.1 100563.35 Q 64443.6 99959.6 64443.6 99051.1 Q 64443.6 97820.6 65501.6 96837.35 Q 66559.6 95854.1 70113.1 94221.1 L 70113.1 93140.1 Q 70113.1 91921.1 69980.85 91604.85 Q 69848.6 91288.6 69480.6 91052.85 Q 69112.6 90817.1 68652.6 90817.1 Q 67905.1 90817.1 67422.1 91150.6 Q 67123.1 91357.6 67123.1 91633.6 Q 67123.1 91875.1 67445.1 92231.6 Q 67882.1 92726.1 67882.1 93186.1 Q 67882.1 93749.6 67462.35 94146.35 Q 67042.6 94543.1 66364.1 94543.1 Q 65639.6 94543.1 65150.85 94106.1 Q 64662.1 93669.1 64662.1 93082.6 Q 64662.1 92254.6 65317.6 91501.35 Q 65973.1 90748.1 67146.1 90345.6 Q 68319.1 89943.1 69584.1 89943.1 Q 71113.6 89943.1 72004.85 90592.85 Q 72896.1 91242.6 73160.6 92001.6 Q 73321.6 92484.6 73321.6 94221.1 L 73321.6 98395.6 Q 73321.6 99131.6 73379.1 99321.35 Q 73436.6 99511.1 73551.6 99603.1 Q 73666.6 99695.1 73816.1 99695.1 Q 74115.1 99695.1 74425.6 99269.6 L 74770.6 99545.6 Q 74195.6 100396.6 73580.35 100781.85 Q 72965.1 101167.1 72183.1 101167.1 Q 71263.1 101167.1 70745.6 100735.85 Q 70228.1 100304.6 70113.1 99430.6  Z M 70113.1 98591.1 L 70113.1 94991.6 Q 68721.6 95808.1 68043.1 96739.6 Q 67594.6 97360.6 67594.6 97993.1 Q 67594.6 98522.1 67974.1 98924.6 Q 68261.6 99235.1 68779.1 99235.1 Q 69354.1 99235.1 70113.1 98591.1  Z M 80221.6 86332.1 L 80221.6 90265.1 L 82774.6 90265.1 L 82774.6 91403.6 L 80221.6 91403.6 L 80221.6 98039.1 Q 80221.6 98970.6 80307.85 99240.85 Q 80394.1 99511.1 80612.6 99677.85 Q 80831.1 99844.6 81015.1 99844.6 Q 81762.6 99844.6 82429.6 98706.1 L 82774.6 98959.1 Q 81843.1 101167.1 79750.1 101167.1 Q 78726.6 101167.1 78019.35 100597.85 Q 77312.1 100028.6 77116.6 99327.1 Q 77001.6 98936.1 77001.6 97211.1 L 77001.6 91403.6 L 75598.6 91403.6 L 75598.6 91001.1 Q 77047.6 89977.6 78065.35 88850.6 Q 79083.1 87723.6 79842.1 86332.1 L 80221.6 86332.1 Z M 86376.2 85055.6 Q 87123.7 85055.6 87641.2 85578.85 Q 88158.7 86102.1 88158.7 86838.1 Q 88158.7 87574.1 87635.45 88091.6 Q 87112.2 88609.1 86376.2 88609.1 Q 85640.2 88609.1 85122.7 88091.6 Q 84605.2 87574.1 84605.2 86838.1 Q 84605.2 86102.1 85122.7 85578.85 Q 85640.2 85055.6 86376.2 85055.6  Z M 87986.2 90265.1 L 87986.2 98786.6 Q 87986.2 99925.1 88250.7 100241.35 Q 88515.2 100557.6 89285.7 100603.6 L 89285.7 101017.6 L 83478.2 101017.6 L 83478.2 100603.6 Q 84191.2 100580.6 84536.2 100189.6 Q 84766.2 99925.1 84766.2 98786.6 L 84766.2 92507.6 Q 84766.2 91369.1 84501.7 91052.85 Q 84237.2 90736.6 83478.2 90690.6 L 83478.2 90265.1 L 87986.2 90265.1 Z M 95362.6 89943.1 Q 96765.6 89943.1 97973.1 90667.6 Q 99180.6 91392.1 99807.35 92726.1 Q 100434.1 94060.1 100434.1 95647.1 Q 100434.1 97935.6 99272.6 99476.6 Q 97869.6 101339.6 95397.1 101339.6 Q 92970.6 101339.6 91659.6 99637.6 Q 90348.6 97935.6 90348.6 95693.1 Q 90348.6 93381.6 91688.35 91662.35 Q 93028.1 89943.1 95362.6 89943.1  Z M 95408.6 90759.6 Q 94822.1 90759.6 94402.35 91202.35 Q 93982.6 91645.1 93850.35 92950.35 Q 93718.1 94255.6 93718.1 96578.6 Q 93718.1 97809.1 93879.1 98878.6 Q 94005.6 99695.1 94419.6 100120.6 Q 94833.6 100546.1 95362.6 100546.1 Q 95880.1 100546.1 96225.1 100258.6 Q 96673.6 99867.6 96823.1 99166.1 Q 97053.1 98073.6 97053.1 94750.1 Q 97053.1 92795.1 96834.6 92064.85 Q 96616.1 91334.6 96190.6 91001.1 Q 95891.6 90759.6 95408.6 90759.6  Z M 106460.1 90265.1 L 106460.1 91656.6 Q 107288.1 90759.6 108047.1 90351.35 Q 108806.1 89943.1 109680.1 89943.1 Q 110726.6 89943.1 111416.6 90523.85 Q 112106.6 91104.6 112336.6 91967.1 Q 112520.6 92622.6 112520.6 94485.6 L 112520.6 98671.6 Q 112520.6 99913.6 112744.85 100218.35 Q 112969.1 100523.1 113682.1 100603.6 L 113682.1 101017.6 L 108242.6 101017.6 L 108242.6 100603.6 Q 108852.1 100523.1 109116.6 100097.6 Q 109300.6 99810.1 109300.6 98671.6 L 109300.6 93887.6 Q 109300.6 92565.1 109197.1 92220.1 Q 109093.6 91875.1 108846.35 91685.35 Q 108599.1 91495.6 108300.1 91495.6 Q 107311.1 91495.6 106460.1 92910.1 L 106460.1 98671.6 Q 106460.1 99879.1 106684.35 100201.1 Q 106908.6 100523.1 107518.1 100603.6 L 107518.1 101017.6 L 102078.6 101017.6 L 102078.6 100603.6 Q 102757.1 100534.6 103044.6 100166.6 Q 103240.1 99913.6 103240.1 98671.6 L 103240.1 92599.6 Q 103240.1 91380.6 103015.85 91081.6 Q 102791.6 90782.6 102078.6 90690.6 L 102078.6 90265.1 L 106460.1 90265.1 Z M 117273.6 97475.6 Q 118078.6 97475.6 118636.35 98039.1 Q 119194.1 98602.6 119194.1 99396.1 Q 119194.1 100189.6 118630.6 100747.35 Q 118067.1 101305.1 117273.6 101305.1 Q 116480.1 101305.1 115922.35 100747.35 Q 115364.6 100189.6 115364.6 99396.1 Q 115364.6 98602.6 115922.35 98039.1 Q 116480.1 97475.6 117273.6 97475.6  Z " fill-rule="nonzero" style="fill:#76923c;;fill-opacity:1;"/>
</svg>