<svg version="1.1" x="0" y="0" width="100%" height="100%" viewBox="0 0 151603.2 25651.2" xmlns="http://www.w3.org/2000/svg">
  <path d="M 12004 15863.4 L 12004 18523.4 L 3169 18523.4 Q 3511 16984.4 4399.25 15834.9 Q 5287.5 14685.4 6950 13640.4 Q 8451 12699.9 8964 12148.9 Q 9980.5 11027.9 9980.5 9536.4 Q 9980.5 8358.4 9301.25 7683.9 Q 8622 7009.4 7434.5 7009.4 Q 6418 7009.4 5757.75 7584.15 Q 5097.5 8158.9 5097.5 9042.4 Q 5097.5 9745.4 5515.5 10215.65 Q 5933.5 10685.9 6570 10685.9 Q 7197 10685.9 7738.5 10115.9 L 7890.5 10201.4 Q 7767 10942.4 7220.75 11393.65 Q 6674.5 11844.9 5895.5 11844.9 Q 4803 11844.9 4095.25 11165.65 Q 3387.5 10486.4 3387.5 9441.4 Q 3387.5 8054.4 4522.75 7147.15 Q 5658 6239.9 7377.5 6239.9 Q 9239.5 6239.9 10522 7284.9 Q 11804.5 8329.9 11804.5 9840.4 Q 11804.5 12034.9 8717 13744.9 L 7263.5 14542.9 Q 5667.5 15416.9 4717.5 17088.9 Q 4698.5 17117.4 4670 17164.9 L 5278 17164.9 Q 6009.5 15796.9 7985.5 14723.4 L 9296.5 14020.4 Q 10873.5 13165.4 11590.75 12220.15 Q 12308 11274.9 12308 10058.9 Q 12308 8234.9 10712 7028.4 L 10769 6952.4 Q 12583.5 7892.9 12583.5 10058.9 Q 12583.5 12538.4 9467.5 14229.4 L 8166 14941.9 Q 6076 16072.4 5629.5 17164.9 L 8593.5 17164.9 Q 10408 17164.9 11006.5 16922.65 Q 11605 16680.4 11814 15863.4 L 12004 15863.4 Z M 12735.5 16205.4 L 12735.5 19302.4 L 4090.5 19302.4 L 3919.5 19074.4 L 12479 19074.4 L 12479 16205.4 L 12735.5 16205.4 Z M 9857 9593.4 Q 9296.5 7788.4 7615 7788.4 Q 6912 7788.4 6422.75 8206.4 Q 5933.5 8624.4 5933.5 9232.4 Q 5933.5 10058.9 6798 10438.9 L 6798 10562.4 Q 6313.5 10476.9 6004.75 10092.15 Q 5696 9707.4 5696 9194.4 Q 5696 8481.9 6242.25 8002.15 Q 6788.5 7522.4 7605.5 7522.4 Q 8574.5 7522.4 9215.75 8111.4 Q 9857 8700.4 9857 9593.4  Z M 8479.5 10628.9 Q 8156.5 11654.9 7567.5 12129.9 Q 6978.5 12604.9 6028.5 12604.9 Q 4784 12604.9 4119 11540.9 L 4195 11540.9 L 4299.5 11626.4 Q 4831.5 12091.9 5173.5 12243.9 Q 5515.5 12395.9 5990.5 12395.9 Q 7890.5 12395.9 8251.5 10543.4 L 8479.5 10628.9 Z M 15887.6 16205.4 Q 16400.6 16205.4 16761.6 16566.4 Q 17122.6 16927.4 17122.6 17440.4 Q 17122.6 17943.9 16761.6 18304.9 Q 16400.6 18665.9 15887.6 18665.9 Q 15384.1 18665.9 15023.1 18304.9 Q 14662.1 17943.9 14662.1 17440.4 Q 14662.1 16927.4 15023.1 16566.4 Q 15384.1 16205.4 15887.6 16205.4  Z M 17445.6 16604.4 Q 17968.1 17088.9 17968.1 17820.4 Q 17968.1 18466.4 17488.35 18950.9 Q 17008.6 19435.4 16372.1 19435.4 Q 15602.6 19435.4 15127.6 18865.4 L 15194.1 18798.9 Q 15802.1 19159.9 16296.1 19159.9 Q 16894.6 19159.9 17317.35 18746.65 Q 17740.1 18333.4 17740.1 17763.4 Q 17740.1 17221.9 17360.1 16670.9 L 17445.6 16604.4 Z M 29874.8 6334.9 Q 29789.3 6496.4 29760.8 6552.45 L 29114.8 7689.6 Q 28782.3 8295.7 28497.3 9205.8 L 28478.3 9252.35 L 28383.3 9184.9 L 28354.8 9059.5 Q 28079.3 7957.5 27571.05 7531.9 Q 27062.8 7106.3 26017.8 7106.3 Q 25590.3 7106.3 25162.8 7142.4 L 25048.8 7142.4 L 25048.8 17487.9 L 26169.8 18523.4 L 21828.3 18523.4 L 23158.3 17411.9 L 23158.3 7926.15 L 22483.8 7911.9 Q 21505.3 7911.9 21092.05 8305.2 Q 20678.8 8698.5 20602.8 9688.4 L 20355.8 9688.4 Q 20460.3 8556 20930.55 8110.45 Q 21400.8 7664.9 22483.8 7664.9 L 23053.8 7674.4 L 23158.3 7674.4 L 23158.3 7200.35 Q 22673.8 7142.4 22236.8 7142.4 Q 21011.3 7142.4 20469.8 7650.65 Q 19928.3 8158.9 19871.3 9369.2 L 19757.3 9369.2 Q 19348.8 8050.6 18493.8 6429.9 L 18436.8 6334.9 L 29874.8 6334.9 Z M 30473.3 7066.4 Q 29817.8 7902.4 29095.8 9840.4 L 29057.8 9935.4 L 28848.8 9754.9 L 28877.3 9669.4 Q 29580.3 7702.9 30235.8 6933.4 L 30283.3 6876.4 L 30473.3 7066.4 Z M 27936.8 8415.4 Q 27205.3 7940.4 26226.8 7940.4 Q 26008.3 7940.4 25770.8 7968.9 L 25808.8 17539.2 L 27319.3 19302.4 L 22464.8 19302.4 L 22246.3 19074.4 L 26796.8 19074.4 L 25523.8 17616.15 L 25523.8 7693.4 L 26036.8 7683.9 Q 26958.3 7683.9 27343.05 7831.15 Q 27727.8 7978.4 27936.8 8415.4  Z M 30941.6 7474.9 Q 33193.1 6173.4 35786.6 6173.4 Q 37800.6 6173.4 39106.85 7047.4 Q 40413.1 7921.4 40413.1 9270.4 Q 40413.1 10372.4 39558.1 11222.65 Q 38703.1 12072.9 37221.1 12452.9 Q 37876.6 14258.85 39002.35 15969.8 Q 40128.1 17680.75 41258.6 18593.7 L 41116.1 18641.2 Q 39700.6 19123.8 38342.1 20005.4 L 38199.6 20100.4 L 38152.1 19796.4 Q 37544.1 16119.9 36451.6 13564.4 L 36413.6 13469.4 Q 35758.1 13773.4 34656.1 13953.9 L 34580.1 13963.4 L 34580.1 17516.4 L 36252.1 19302.4 L 31340.6 19302.4 L 31188.6 19074.4 L 35710.6 19074.4 L 34333.1 17582.9 L 34333.1 13754.4 L 34532.6 13725.9 Q 35615.6 13611.9 36347.1 13298.4 Q 36290.1 13184.4 36280.6 13155.9 L 36185.6 12880.4 Q 36176.1 12851.9 36138.1 12766.4 Q 35549.1 12937.4 33915.1 13136.9 L 33810.6 13155.9 L 33810.6 17392.9 L 34893.6 18523.4 L 30694.6 18523.4 L 31929.6 17392.9 L 31929.6 14200.9 L 31853.6 14210.4 Q 31302.6 14333.9 30856.1 14485.9 L 30780.1 14514.4 L 30694.6 14324.4 Q 31112.6 14162.9 31350.1 14105.9 L 31853.6 13982.4 L 31929.6 13963.4 L 31929.6 13469.4 Q 31369.1 13469.4 30533.1 13716.4 L 30428.6 13754.4 Q 30447.6 13621.4 30618.6 13136.9 Q 30637.6 13098.9 30751.6 12709.4 Q 30761.1 12680.9 30780.1 12623.9 Q 31207.6 12652.4 31445.1 12652.4 Q 31701.6 12652.4 31920.1 12623.9 L 31920.1 7949.9 Q 31483.1 7683.9 31017.6 7503.4 L 30941.6 7474.9 Z M 33810.6 7227.9 L 33810.6 12348.4 Q 34086.1 12348.4 34333.1 12300.9 L 34333.1 7626.9 Q 34855.6 7484.4 35587.1 7484.4 Q 37439.6 7484.4 38104.6 8700.4 Q 37401.6 8130.4 36869.6 7916.65 Q 36337.6 7702.9 35596.6 7702.9 Q 35017.1 7702.9 34580.1 7816.9 L 34580.1 12300.9 L 34684.6 12281.9 Q 36556.1 11939.9 37463.35 11203.65 Q 38370.6 10467.4 38370.6 9289.4 Q 38370.6 8234.9 37553.6 7546.15 Q 36736.6 6857.4 35492.1 6857.4 Q 34494.6 6857.4 33810.6 7227.9  Z M 38399.1 12927.9 Q 38997.6 14884.9 40517.6 16756.4 Q 41467.6 17924.9 42921.1 18855.9 Q 40745.6 19435.4 38836.1 20622.9 L 38750.6 20679.9 L 38560.6 20527.9 Q 40375.1 19340.4 42427.1 18779.9 Q 39691.1 16955.9 38123.6 12946.9 L 38066.6 12785.4 Q 40973.6 11683.4 40973.6 9422.4 Q 40973.6 8491.4 40223.1 7389.4 Q 41182.6 8263.4 41182.6 9612.4 Q 41182.6 11797.4 38399.1 12927.9  Z M 53132.3 6334.9 L 52980.3 6516.35 Q 52011.3 7708.6 51441.3 9253.3 Q 51346.3 9036.7 51298.8 8933.15 Q 50776.3 7801.7 50177.8 7472.05 Q 49579.3 7142.4 48030.8 7142.4 Q 47318.3 7142.4 46320.8 7189.9 L 46320.8 11531.4 L 46928.8 11531.4 L 46928.8 7688.65 Q 47650.8 7623.1 48306.3 7623.1 Q 49512.8 7623.1 50082.8 7877.7 Q 50652.8 8132.3 51099.3 8867.6 Q 50966.3 8773.55 50909.3 8726.05 Q 50139.8 8124.7 49797.8 8011.65 Q 49455.8 7898.6 48448.8 7898.6 Q 48144.8 7898.6 47365.8 7934.7 L 47166.3 7943.25 L 47166.3 11531.4 L 48914.3 11531.4 L 50139.8 9856.55 L 50139.8 13944.4 L 48914.3 12357.9 L 46320.8 12357.9 L 46320.8 17687.4 L 46928.8 17687.4 L 46928.8 12804.4 L 48990.3 12804.4 L 49237.3 13051.4 L 47166.3 13051.4 L 47166.3 17687.4 Q 49104.3 17687.4 49921.3 17411.9 Q 50738.3 17136.4 51203.8 16328.9 L 51707.3 15464.4 Q 51735.8 15407.4 51821.3 15255.4 Q 52068.3 16300.4 52434.05 16927.4 Q 52799.8 17554.4 53645.3 18390.4 L 42995.8 18390.4 L 44439.8 17288.4 L 44439.8 13051.4 Q 43641.8 13146.4 42995.8 13545.4 L 42862.8 13345.9 Q 43442.3 12927.9 44439.8 12804.4 L 44439.8 12357.9 Q 44278.3 12338.9 44211.8 12338.9 Q 43242.8 12338.9 42444.8 13051.4 Q 42881.8 11531.4 44439.8 11531.4 L 44439.8 7500.55 L 42995.8 6334.9 L 53132.3 6334.9 Z M 53588.3 6961.9 L 53521.8 7047.4 Q 52362.8 8605.4 51973.3 9659.9 L 51811.8 9460.4 Q 52448.3 7987.9 53455.3 6762.4 L 53588.3 6961.9 Z M 50795.3 10163.4 L 50795.3 14362.4 L 50557.8 14238.9 L 50557.8 10039.9 L 50795.3 10163.4 Z M 54728.3 18474 L 54234.3 19302.4 L 43860.3 19302.4 L 43708.3 19074.4 L 54110.8 19074.4 L 54433.8 18474 Q 53065.8 17205.75 52505.3 15766.5 L 52809.3 15880.5 Q 53331.8 17101.25 54576.3 18321.05 L 54728.3 18474 Z M 63714.5 6334.9 L 62726.5 7455.9 L 64284.5 11597.9 L 64664.5 11388.9 L 63258.5 7645.9 L 64265.5 6486.9 L 64512.5 6591.4 L 63553 7702.9 L 64883 11246.4 Q 64997 11160.9 65016 11141.9 L 65329.5 10875.9 Q 65614.5 10647.9 65690.5 10552.9 Q 65937.5 11635.9 66450.5 12490.9 Q 66175 12471.9 66051.5 12471.9 Q 65149 12471.9 64731 12756.9 L 66450.5 17421.4 L 67875.5 18523.4 L 63078 18523.4 L 64389 17421.4 L 63334.5 14647.4 Q 62289.5 15701.9 61729 16651.9 L 61510.5 16594.9 Q 62071 15663.9 63182.5 14514.4 L 63258.5 14419.4 L 63078 14001.4 Q 61947.5 14941.9 61206.5 16186.4 L 61035.5 15910.9 Q 60541.5 15122.4 59772 14115.4 L 59677 14001.4 Q 58945.5 15625.9 58945.5 16642.4 Q 58945.5 17240.9 59149.75 17654.15 Q 59354 18067.4 60133 19036.4 Q 60199.5 19121.9 60342 19302.4 L 55212 19302.4 L 55022 19074.4 L 59857.5 19074.4 L 59696 18873.95 Q 59069 18110.15 58874.25 17684.55 Q 58679.5 17259.9 58679.5 16686.1 Q 58679.5 15712.35 59468 13782.9 L 59050 13345.9 Q 58926.5 13649.9 58736.5 14238.9 L 58423 15207.9 Q 58166.5 15986.9 58166.5 16499.9 Q 58166.5 17031.9 58347 17383.4 Q 58527.5 17734.9 59107 18342.9 Q 59164 18399.9 59278 18523.4 L 54528 18523.4 Q 55886.5 17820.4 56679.75 16632.9 Q 57473 15445.4 58252 12965.9 L 58290 12832.9 Q 57786.5 12405.4 56836.5 12310.4 Q 57359 11531.4 57644 10685.9 Q 57777 10809.4 57805.5 10837.9 L 58233 11236.9 Q 58451.5 11445.9 58755.5 11664.4 L 58926.5 11246.4 L 58812.5 11151.4 Q 58337.5 10733.4 58014.5 10476.9 L 57929 10410.4 L 58081 10201.4 Q 58584.5 10533.9 59050 10970.9 L 60342 7417.9 L 59335 6334.9 L 63714.5 6334.9 Z M 61368 9384.4 L 60323 12139.4 Q 60408.5 12234.4 60418 12253.4 L 60807.5 12690.4 Q 61121 13032.4 61605.5 13754.4 L 61700.5 13896.9 Q 62109 13383.9 62669.5 12880.4 L 61368 9384.4 Z M 60940.5 8282.4 L 59430 12272.4 Q 60152 13013.4 60674.5 13735.4 L 61111.5 14343.4 Q 61121 14352.9 61206.5 14466.9 Q 61292 14381.4 61301.5 14362.4 L 61434.5 14200.9 Q 61463 14162.9 61539 14077.4 Q 60874 13051.4 59990.5 12224.9 L 61206.5 9013.9 L 60940.5 8282.4 Z M 66526.5 11009.85 Q 66735.5 11867.7 67571.5 13363.95 Q 67362.5 13335.45 67334 13335.45 L 66564.5 13268 Q 66042 13220.5 65804.5 13220.5 Q 65766.5 13220.5 65614.5 13230.95 L 67201 17453.7 L 69319.5 19302.4 L 63819 19302.4 L 63638.5 19074.4 L 68683 19074.4 L 66973 17559.15 L 65282 13068.5 Q 65605 12983 66023 12983 Q 66536 12983 67163 13068.5 L 67049 12859.5 Q 66441 11734.7 66232 10828.4 L 66526.5 11009.85 Z M 80204.4 6334.9 Q 80118.9 6496.4 80090.4 6552.45 L 79444.4 7689.6 Q 79111.9 8295.7 78826.9 9205.8 L 78807.9 9252.35 L 78712.9 9184.9 L 78684.4 9059.5 Q 78408.9 7957.5 77900.65 7531.9 Q 77392.4 7106.3 76347.4 7106.3 Q 75919.9 7106.3 75492.4 7142.4 L 75378.4 7142.4 L 75378.4 17487.9 L 76499.4 18523.4 L 72157.9 18523.4 L 73487.9 17411.9 L 73487.9 7926.15 L 72813.4 7911.9 Q 71834.9 7911.9 71421.65 8305.2 Q 71008.4 8698.5 70932.4 9688.4 L 70685.4 9688.4 Q 70789.9 8556 71260.15 8110.45 Q 71730.4 7664.9 72813.4 7664.9 L 73383.4 7674.4 L 73487.9 7674.4 L 73487.9 7200.35 Q 73003.4 7142.4 72566.4 7142.4 Q 71340.9 7142.4 70799.4 7650.65 Q 70257.9 8158.9 70200.9 9369.2 L 70086.9 9369.2 Q 69678.4 8050.6 68823.4 6429.9 L 68766.4 6334.9 L 80204.4 6334.9 Z M 80802.9 7066.4 Q 80147.4 7902.4 79425.4 9840.4 L 79387.4 9935.4 L 79178.4 9754.9 L 79206.9 9669.4 Q 79909.9 7702.9 80565.4 6933.4 L 80612.9 6876.4 L 80802.9 7066.4 Z M 78266.4 8415.4 Q 77534.9 7940.4 76556.4 7940.4 Q 76337.9 7940.4 76100.4 7968.9 L 76138.4 17539.2 L 77648.9 19302.4 L 72794.4 19302.4 L 72575.9 19074.4 L 77126.4 19074.4 L 75853.4 17616.15 L 75853.4 7693.4 L 76366.4 7683.9 Q 77287.9 7683.9 77672.65 7831.15 Q 78057.4 7978.4 78266.4 8415.4  Z M 93621.2 6334.9 L 92319.7 7655.4 L 92319.7 17411.9 L 93488.2 18523.4 L 89118.2 18523.4 L 90438.7 17411.9 L 90438.7 11018.4 L 87427.2 19302.4 L 86515.2 19302.4 L 86439.2 19074.4 L 87265.7 19074.4 L 90438.7 10210.9 L 90438.7 8757.4 L 86904.7 18513.9 L 86239.7 18513.9 L 83636.7 10847.4 L 83636.7 15872.9 Q 83636.7 16879.9 83769.7 17297.9 Q 83902.7 17715.9 84396.7 18219.4 L 85251.7 19302.4 L 80283.2 19302.4 L 80112.2 19074.4 L 84776.7 19074.4 L 84425.2 18523.4 L 80188.2 18523.4 L 80387.7 18418.9 Q 81442.2 17839.4 81779.45 17245.65 Q 82116.7 16651.9 82116.7 15369.4 L 82116.7 7512.9 L 80862.7 6334.9 L 85774.2 6334.9 L 84396.7 7579.4 L 87085.2 15530.9 L 87427.2 14704.4 L 84995.2 7655.4 L 86239.7 6733.9 L 86439.2 6895.4 L 85251.7 7731.4 L 87512.7 14352.9 L 89963.7 7579.4 L 88804.7 6334.9 L 93621.2 6334.9 Z M 82867.2 8586.4 L 82867.2 15407.4 Q 82867.2 16974.9 83166.45 17563.9 Q 83465.7 18152.9 84406.2 18418.9 L 84320.7 18276.4 Q 83389.7 17630.4 83389.7 16414.4 L 83389.7 15711.4 L 83389.7 10096.9 L 82867.2 8586.4 Z M 94153.2 7075.9 L 93079.7 7845.4 L 93079.7 17444.2 L 94732.7 19302.4 L 89688.2 19302.4 L 89555.2 19074.4 L 94153.2 19074.4 L 92832.7 17578.15 L 92832.7 7683.9 L 93953.7 6914.4 L 94153.2 7075.9 Z M 105305.1 6334.9 L 105153.1 6516.35 Q 104184.1 7708.6 103614.1 9253.3 Q 103519.1 9036.7 103471.6 8933.15 Q 102949.1 7801.7 102350.6 7472.05 Q 101752.1 7142.4 100203.6 7142.4 Q 99491.1 7142.4 98493.6 7189.9 L 98493.6 11531.4 L 99101.6 11531.4 L 99101.6 7688.65 Q 99823.6 7623.1 100479.1 7623.1 Q 101685.6 7623.1 102255.6 7877.7 Q 102825.6 8132.3 103272.1 8867.6 Q 103139.1 8773.55 103082.1 8726.05 Q 102312.6 8124.7 101970.6 8011.65 Q 101628.6 7898.6 100621.6 7898.6 Q 100317.6 7898.6 99538.6 7934.7 L 99339.1 7943.25 L 99339.1 11531.4 L 101087.1 11531.4 L 102312.6 9856.55 L 102312.6 13944.4 L 101087.1 12357.9 L 98493.6 12357.9 L 98493.6 17687.4 L 99101.6 17687.4 L 99101.6 12804.4 L 101163.1 12804.4 L 101410.1 13051.4 L 99339.1 13051.4 L 99339.1 17687.4 Q 101277.1 17687.4 102094.1 17411.9 Q 102911.1 17136.4 103376.6 16328.9 L 103880.1 15464.4 Q 103908.6 15407.4 103994.1 15255.4 Q 104241.1 16300.4 104606.85 16927.4 Q 104972.6 17554.4 105818.1 18390.4 L 95168.6 18390.4 L 96612.6 17288.4 L 96612.6 13051.4 Q 95814.6 13146.4 95168.6 13545.4 L 95035.6 13345.9 Q 95615.1 12927.9 96612.6 12804.4 L 96612.6 12357.9 Q 96451.1 12338.9 96384.6 12338.9 Q 95415.6 12338.9 94617.6 13051.4 Q 95054.6 11531.4 96612.6 11531.4 L 96612.6 7500.55 L 95168.6 6334.9 L 105305.1 6334.9 Z M 105761.1 6961.9 L 105694.6 7047.4 Q 104535.6 8605.4 104146.1 9659.9 L 103984.6 9460.4 Q 104621.1 7987.9 105628.1 6762.4 L 105761.1 6961.9 Z M 102968.1 10163.4 L 102968.1 14362.4 L 102730.6 14238.9 L 102730.6 10039.9 L 102968.1 10163.4 Z M 106901.1 18474 L 106407.1 19302.4 L 96033.1 19302.4 L 95881.1 19074.4 L 106283.6 19074.4 L 106606.6 18474 Q 105238.6 17205.75 104678.1 15766.5 L 104982.1 15880.5 Q 105504.6 17101.25 106749.1 18321.05 L 106901.1 18474 Z M 117929.8 6334.9 Q 116846.8 6895.4 116533.3 7360.9 Q 116058.3 8082.9 116058.3 9536.4 L 116058.3 10153.9 L 116058.3 18523.4 L 114452.8 18523.4 L 109968.8 9821.4 L 109968.8 14979.9 L 109959.3 15407.4 L 110073.3 16775.4 Q 110263.3 17725.4 110937.8 18181.4 L 111013.8 18247.9 Q 109702.8 17810.9 109702.8 15445.4 L 109712.3 14552.4 L 109712.3 9355.9 L 109199.3 8358.4 L 109199.3 13830.4 Q 109199.3 16433.4 109541.3 17240.9 Q 109883.3 18048.4 111146.8 18418.9 L 111973.3 19302.4 L 106824.3 19302.4 L 106672.3 19074.4 L 111431.8 19074.4 L 110937.8 18523.4 L 106510.8 18523.4 Q 107669.8 18105.4 108049.8 17402.4 Q 108429.8 16699.4 108429.8 14989.4 L 108429.8 7389.4 L 107166.3 6334.9 L 111973.3 6334.9 L 110624.3 7237.4 L 115222.3 16205.4 L 115222.3 15065.4 L 111279.8 7389.4 L 112609.8 6486.9 L 112790.3 6667.4 L 111612.3 7465.4 L 115222.3 14552.4 L 115222.3 10115.9 L 115222.3 9612.4 Q 115222.3 7959.4 114951.55 7403.65 Q 114680.8 6847.9 113616.8 6334.9 L 117929.8 6334.9 Z M 118262.3 7037.9 L 118091.3 7322.9 Q 117359.8 7493.9 117098.55 7954.65 Q 116837.3 8415.4 116837.3 9507.9 L 116837.3 19302.4 L 114794.8 19302.4 L 114671.3 19074.4 L 116580.8 19074.4 L 116580.8 9602.9 Q 116580.8 8263.4 116927.55 7736.15 Q 117274.3 7208.9 118262.3 7037.9  Z M 129356.4 6334.9 Q 129270.9 6496.4 129242.4 6552.45 L 128596.4 7689.6 Q 128263.9 8295.7 127978.9 9205.8 L 127959.9 9252.35 L 127864.9 9184.9 L 127836.4 9059.5 Q 127560.9 7957.5 127052.65 7531.9 Q 126544.4 7106.3 125499.4 7106.3 Q 125071.9 7106.3 124644.4 7142.4 L 124530.4 7142.4 L 124530.4 17487.9 L 125651.4 18523.4 L 121309.9 18523.4 L 122639.9 17411.9 L 122639.9 7926.15 L 121965.4 7911.9 Q 120986.9 7911.9 120573.65 8305.2 Q 120160.4 8698.5 120084.4 9688.4 L 119837.4 9688.4 Q 119941.9 8556 120412.15 8110.45 Q 120882.4 7664.9 121965.4 7664.9 L 122535.4 7674.4 L 122639.9 7674.4 L 122639.9 7200.35 Q 122155.4 7142.4 121718.4 7142.4 Q 120492.9 7142.4 119951.4 7650.65 Q 119409.9 8158.9 119352.9 9369.2 L 119238.9 9369.2 Q 118830.4 8050.6 117975.4 6429.9 L 117918.4 6334.9 L 129356.4 6334.9 Z M 129954.9 7066.4 Q 129299.4 7902.4 128577.4 9840.4 L 128539.4 9935.4 L 128330.4 9754.9 L 128358.9 9669.4 Q 129061.9 7702.9 129717.4 6933.4 L 129764.9 6876.4 L 129954.9 7066.4 Z M 127418.4 8415.4 Q 126686.9 7940.4 125708.4 7940.4 Q 125489.9 7940.4 125252.4 7968.9 L 125290.4 17539.2 L 126800.9 19302.4 L 121946.4 19302.4 L 121727.9 19074.4 L 126278.4 19074.4 L 125005.4 17616.15 L 125005.4 7693.4 L 125518.4 7683.9 Q 126439.9 7683.9 126824.65 7831.15 Q 127209.4 7978.4 127418.4 8415.4  Z " fill-rule="nonzero" style="fill:#0766d2;;fill-opacity:1;"/>
</svg>