<svg version="1.1" x="0" y="0" width="100%" height="100%" viewBox="0 0 199884.8 128768" xmlns="http://www.w3.org/2000/svg">
  <path d="M 10749 6993.4 Q 14313 6861.4 16540.5 9072.4 Q 18768 11283.4 18768 14605.4 Q 18768 17443.4 17107 19599.4 Q 14907 22459.4 10892 22459.4 Q 6866 22459.4 4666 19731.4 Q 2928 17575.4 2928 14616.4 Q 2928 11294.4 5188.5 9077.9 Q 7449 6861.4 10749 6993.4  Z M 10881 7697.4 Q 8835 7697.4 7768 9787.4 Q 6899 11503.4 6899 14715.4 Q 6899 18532.4 8241 20358.4 Q 9176 21634.4 10859 21634.4 Q 11992 21634.4 12751 21084.4 Q 13719 20380.4 14258 18834.9 Q 14797 17289.4 14797 14803.4 Q 14797 11844.4 14247 10375.9 Q 13697 8907.4 12844.5 8302.4 Q 11992 7697.4 10881 7697.4  Z M 30294.4 17036.4 L 34342.4 7202.4 L 40414.4 7202.4 L 40414.4 7609.4 L 39930.4 7609.4 Q 39270.4 7609.4 38874.4 7840.4 Q 38599.4 7994.4 38434.4 8357.4 Q 38313.4 8621.4 38313.4 9732.4 L 38313.4 19566.4 Q 38313.4 20710.4 38434.4 20996.4 Q 38555.4 21282.4 38929.4 21496.9 Q 39303.4 21711.4 39930.4 21711.4 L 40414.4 21711.4 L 40414.4 22118.4 L 32626.4 22118.4 L 32626.4 21711.4 L 33110.4 21711.4 Q 33770.4 21711.4 34166.4 21480.4 Q 34441.4 21326.4 34606.4 20952.4 Q 34727.4 20688.4 34727.4 19566.4 L 34727.4 8511.4 L 29007.4 22118.4 L 28743.4 22118.4 L 22935.4 8610.4 L 22935.4 19115.4 Q 22935.4 20215.4 22990.4 20468.4 Q 23133.4 21018.4 23611.9 21364.9 Q 24090.4 21711.4 25113.4 21711.4 L 25113.4 22118.4 L 20009.4 22118.4 L 20009.4 21711.4 L 20163.4 21711.4 Q 20658.4 21722.4 21087.4 21551.9 Q 21516.4 21381.4 21736.4 21095.4 Q 21956.4 20809.4 22077.4 20292.4 Q 22099.4 20171.4 22099.4 19170.4 L 22099.4 9732.4 Q 22099.4 8599.4 21978.4 8318.9 Q 21857.4 8038.4 21483.4 7823.9 Q 21109.4 7609.4 20482.4 7609.4 L 20009.4 7609.4 L 20009.4 7202.4 L 26103.4 7202.4 L 30294.4 17036.4 Z M 56844.4 7202.4 L 56844.4 7609.4 Q 56030.4 7741.4 55392.4 8478.4 Q 54930.4 9028.4 54017.4 11063.4 L 48880.4 22459.4 L 48517.4 22459.4 L 43402.4 10601.4 Q 42478.4 8456.4 42164.9 8082.4 Q 41851.4 7708.4 40982.4 7609.4 L 40982.4 7202.4 L 48132.4 7202.4 L 48132.4 7609.4 L 47890.4 7609.4 Q 46922.4 7609.4 46570.4 7851.4 Q 46317.4 8016.4 46317.4 8335.4 Q 46317.4 8533.4 46405.4 8802.9 Q 46493.4 9072.4 46999.4 10249.4 L 50178.4 17674.4 L 53126.4 11063.4 Q 53654.4 9864.4 53775.4 9457.4 Q 53896.4 9050.4 53896.4 8764.4 Q 53896.4 8434.4 53720.4 8181.4 Q 53544.4 7928.4 53203.4 7796.4 Q 52730.4 7609.4 51949.4 7609.4 L 51949.4 7202.4 L 56844.4 7202.4 Z M 64296.8 11547.4 L 64461.8 15056.4 L 64087.8 15056.4 Q 63416.8 13494.4 62696.3 12922.4 Q 61975.8 12350.4 61260.8 12350.4 Q 60809.8 12350.4 60490.8 12652.9 Q 60171.8 12955.4 60171.8 13351.4 Q 60171.8 13648.4 60391.8 13923.4 Q 60743.8 14374.4 62360.8 15468.9 Q 63977.8 16563.4 64489.3 17327.9 Q 65000.8 18092.4 65000.8 19038.4 Q 65000.8 19896.4 64571.8 20721.4 Q 64142.8 21546.4 63361.8 21986.4 Q 62580.8 22426.4 61634.8 22426.4 Q 60897.8 22426.4 59665.8 21964.4 Q 59335.8 21843.4 59214.8 21843.4 Q 58851.8 21843.4 58609.8 22393.4 L 58246.8 22393.4 L 58070.8 18697.4 L 58444.8 18697.4 Q 58939.8 20149.4 59803.3 20875.4 Q 60666.8 21601.4 61436.8 21601.4 Q 61964.8 21601.4 62300.3 21276.9 Q 62635.8 20952.4 62635.8 20490.4 Q 62635.8 19962.4 62305.8 19577.4 Q 61975.8 19192.4 60831.8 18411.4 Q 59148.8 17245.4 58653.8 16629.4 Q 57927.8 15727.4 57927.8 14638.4 Q 57927.8 13450.4 58747.3 12487.9 Q 59566.8 11525.4 61117.8 11525.4 Q 61953.8 11525.4 62734.8 11932.4 Q 63031.8 12097.4 63218.8 12097.4 Q 63416.8 12097.4 63537.8 12014.9 Q 63658.8 11932.4 63922.8 11547.4 L 64296.8 11547.4 Z M 82182 7202.4 L 82182 19038.4 Q 82182 20237.4 82248 20457.4 Q 82336 20820.4 82583.5 20996.4 Q 82831 21172.4 83447 21216.4 L 83447 21579.4 L 79102 22426.4 L 79102 20798.4 Q 78321 21744.4 77710.5 22085.4 Q 77100 22426.4 76330 22426.4 Q 74361 22426.4 73217 20666.4 Q 72293 19236.4 72293 17157.4 Q 72293 15496.4 72865 14181.9 Q 73437 12867.4 74432.5 12196.4 Q 75428 11525.4 76572 11525.4 Q 77309 11525.4 77881 11811.4 Q 78453 12097.4 79102 12812.4 L 79102 9710.4 Q 79102 8533.4 79003 8291.4 Q 78871 7972.4 78607 7818.4 Q 78343 7664.4 77617 7664.4 L 77617 7202.4 L 82182 7202.4 Z M 79102 14176.4 Q 78288 12614.4 77111 12614.4 Q 76704 12614.4 76440 12834.4 Q 76033 13175.4 75774.5 14033.4 Q 75516 14891.4 75516 16662.4 Q 75516 18609.4 75802 19544.4 Q 76088 20479.4 76583 20897.4 Q 76836 21106.4 77276 21106.4 Q 78244 21106.4 79102 19588.4 L 79102 14176.4 Z M 87150.8 6850.4 Q 87865.8 6850.4 88360.8 7350.9 Q 88855.8 7851.4 88855.8 8555.4 Q 88855.8 9259.4 88355.3 9754.4 Q 87854.8 10249.4 87150.8 10249.4 Q 86446.8 10249.4 85951.8 9754.4 Q 85456.8 9259.4 85456.8 8555.4 Q 85456.8 7851.4 85951.8 7350.9 Q 86446.8 6850.4 87150.8 6850.4  Z M 88690.8 11833.4 L 88690.8 19984.4 Q 88690.8 21073.4 88943.8 21375.9 Q 89196.8 21678.4 89933.8 21722.4 L 89933.8 22118.4 L 84378.8 22118.4 L 84378.8 21722.4 Q 85060.8 21700.4 85390.8 21326.4 Q 85610.8 21073.4 85610.8 19984.4 L 85610.8 13978.4 Q 85610.8 12889.4 85357.8 12586.9 Q 85104.8 12284.4 84378.8 12240.4 L 84378.8 11833.4 L 88690.8 11833.4 Z M 97423.2 11547.4 L 97588.2 15056.4 L 97214.2 15056.4 Q 96543.2 13494.4 95822.7 12922.4 Q 95102.2 12350.4 94387.2 12350.4 Q 93936.2 12350.4 93617.2 12652.9 Q 93298.2 12955.4 93298.2 13351.4 Q 93298.2 13648.4 93518.2 13923.4 Q 93870.2 14374.4 95487.2 15468.9 Q 97104.2 16563.4 97615.7 17327.9 Q 98127.2 18092.4 98127.2 19038.4 Q 98127.2 19896.4 97698.2 20721.4 Q 97269.2 21546.4 96488.2 21986.4 Q 95707.2 22426.4 94761.2 22426.4 Q 94024.2 22426.4 92792.2 21964.4 Q 92462.2 21843.4 92341.2 21843.4 Q 91978.2 21843.4 91736.2 22393.4 L 91373.2 22393.4 L 91197.2 18697.4 L 91571.2 18697.4 Q 92066.2 20149.4 92929.7 20875.4 Q 93793.2 21601.4 94563.2 21601.4 Q 95091.2 21601.4 95426.7 21276.9 Q 95762.2 20952.4 95762.2 20490.4 Q 95762.2 19962.4 95432.2 19577.4 Q 95102.2 19192.4 93958.2 18411.4 Q 92275.2 17245.4 91780.2 16629.4 Q 91054.2 15727.4 91054.2 14638.4 Q 91054.2 13450.4 91873.7 12487.9 Q 92693.2 11525.4 94244.2 11525.4 Q 95080.2 11525.4 95861.2 11932.4 Q 96158.2 12097.4 96345.2 12097.4 Q 96543.2 12097.4 96664.2 12014.9 Q 96785.2 11932.4 97049.2 11547.4 L 97423.2 11547.4 Z M 103659.4 21073.4 L 103659.4 24901.4 Q 103659.4 25693.4 103785.9 25979.4 Q 103912.4 26265.4 104176.4 26397.4 Q 104440.4 26529.4 105210.4 26529.4 L 105210.4 26936.4 L 99347.4 26936.4 L 99347.4 26529.4 Q 100029.4 26507.4 100359.4 26144.4 Q 100579.4 25891.4 100579.4 24835.4 L 100579.4 13978.4 Q 100579.4 12889.4 100326.4 12586.9 Q 100073.4 12284.4 99347.4 12240.4 L 99347.4 11833.4 L 103659.4 11833.4 L 103659.4 13186.4 Q 104198.4 12394.4 104759.4 12042.4 Q 105562.4 11525.4 106508.4 11525.4 Q 107641.4 11525.4 108570.9 12240.4 Q 109500.4 12955.4 109984.4 14214.9 Q 110468.4 15474.4 110468.4 16926.4 Q 110468.4 18488.4 109967.9 19780.9 Q 109467.4 21073.4 108515.9 21749.9 Q 107564.4 22426.4 106398.4 22426.4 Q 105551.4 22426.4 104814.4 22052.4 Q 104264.4 21766.4 103659.4 21073.4  Z M 103659.4 19962.4 Q 104605.4 21304.4 105683.4 21304.4 Q 106277.4 21304.4 106662.4 20677.4 Q 107234.4 19753.4 107234.4 17157.4 Q 107234.4 14495.4 106607.4 13516.4 Q 106189.4 12867.4 105485.4 12867.4 Q 104374.4 12867.4 103659.4 14473.4 L 103659.4 19962.4 Z M 116196.2 7202.4 L 116196.2 19984.4 Q 116196.2 21073.4 116449.2 21375.9 Q 116702.2 21678.4 117439.2 21722.4 L 117439.2 22118.4 L 111884.2 22118.4 L 111884.2 21722.4 Q 112566.2 21700.4 112896.2 21326.4 Q 113116.2 21073.4 113116.2 19984.4 L 113116.2 9336.4 Q 113116.2 8258.4 112863.2 7955.9 Q 112610.2 7653.4 111884.2 7609.4 L 111884.2 7202.4 L 116196.2 7202.4 Z M 124092.6 20600.4 Q 122211.6 22261.4 120715.6 22261.4 Q 119835.6 22261.4 119252.6 21683.9 Q 118669.6 21106.4 118669.6 20237.4 Q 118669.6 19060.4 119681.6 18119.9 Q 120693.6 17179.4 124092.6 15617.4 L 124092.6 14583.4 Q 124092.6 13417.4 123966.1 13114.9 Q 123839.6 12812.4 123487.6 12586.9 Q 123135.6 12361.4 122695.6 12361.4 Q 121980.6 12361.4 121518.6 12680.4 Q 121232.6 12878.4 121232.6 13142.4 Q 121232.6 13373.4 121540.6 13714.4 Q 121958.6 14187.4 121958.6 14627.4 Q 121958.6 15166.4 121557.1 15545.9 Q 121155.6 15925.4 120506.6 15925.4 Q 119813.6 15925.4 119346.1 15507.4 Q 118878.6 15089.4 118878.6 14528.4 Q 118878.6 13736.4 119505.6 13015.9 Q 120132.6 12295.4 121254.6 11910.4 Q 122376.6 11525.4 123586.6 11525.4 Q 125049.6 11525.4 125902.1 12146.9 Q 126754.6 12768.4 127007.6 13494.4 Q 127161.6 13956.4 127161.6 15617.4 L 127161.6 19610.4 Q 127161.6 20314.4 127216.6 20495.9 Q 127271.6 20677.4 127381.6 20765.4 Q 127491.6 20853.4 127634.6 20853.4 Q 127920.6 20853.4 128217.6 20446.4 L 128547.6 20710.4 Q 127997.6 21524.4 127409.1 21892.9 Q 126820.6 22261.4 126072.6 22261.4 Q 125192.6 22261.4 124697.6 21848.9 Q 124202.6 21436.4 124092.6 20600.4  Z M 124092.6 19797.4 L 124092.6 16354.4 Q 122761.6 17135.4 122112.6 18026.4 Q 121683.6 18620.4 121683.6 19225.4 Q 121683.6 19731.4 122046.6 20116.4 Q 122321.6 20413.4 122816.6 20413.4 Q 123366.6 20413.4 124092.6 19797.4  Z M 134399.6 22536.4 L 131077.6 14913.4 Q 130329.6 13186.4 129972.1 12790.4 Q 129614.6 12394.4 129108.6 12240.4 L 129108.6 11833.4 L 134575.6 11833.4 L 134575.6 12240.4 Q 134036.6 12262.4 133816.6 12449.4 Q 133596.6 12636.4 133596.6 12900.4 Q 133596.6 13318.4 134146.6 14550.4 L 135906.6 18576.4 L 137105.6 15463.4 Q 137754.6 13802.4 137754.6 13153.4 Q 137754.6 12746.4 137485.1 12504.4 Q 137215.6 12262.4 136533.6 12240.4 L 136533.6 11833.4 L 139976.6 11833.4 L 139976.6 12240.4 Q 139470.6 12295.4 139151.6 12630.9 Q 138832.6 12966.4 138084.6 14913.4 L 135147.6 22536.4 Q 134036.6 25396.4 133497.6 26056.4 Q 132738.6 26980.4 131594.6 26980.4 Q 130681.6 26980.4 130115.1 26457.9 Q 129548.6 25935.4 129548.6 25198.4 Q 129548.6 24560.4 129939.1 24142.4 Q 130329.6 23724.4 130901.6 23724.4 Q 131451.6 23724.4 131787.1 24076.4 Q 132122.6 24428.4 132133.6 25165.4 Q 132144.6 25583.4 132232.6 25704.4 Q 132320.6 25825.4 132485.6 25825.4 Q 132749.6 25825.4 133046.6 25506.4 Q 133486.6 25044.4 134080.6 23394.4 L 134399.6 22536.4 Z M 150657.6 8071.4 L 150657.6 11833.4 L 153099.6 11833.4 L 153099.6 12922.4 L 150657.6 12922.4 L 150657.6 19269.4 Q 150657.6 20160.4 150740.1 20418.9 Q 150822.6 20677.4 151031.6 20836.9 Q 151240.6 20996.4 151416.6 20996.4 Q 152131.6 20996.4 152769.6 19907.4 L 153099.6 20149.4 Q 152208.6 22261.4 150206.6 22261.4 Q 149227.6 22261.4 148551.1 21716.9 Q 147874.6 21172.4 147687.6 20501.4 Q 147577.6 20127.4 147577.6 18477.4 L 147577.6 12922.4 L 146235.6 12922.4 L 146235.6 12537.4 Q 147621.6 11558.4 148595.1 10480.4 Q 149568.6 9402.4 150294.6 8071.4 L 150657.6 8071.4 Z M 158253.8 7202.4 L 158253.8 13153.4 Q 159100.8 12262.4 159804.8 11893.9 Q 160508.8 11525.4 161267.8 11525.4 Q 162235.8 11525.4 162923.3 12075.4 Q 163610.8 12625.4 163836.3 13367.9 Q 164061.8 14110.4 164061.8 15870.4 L 164061.8 19885.4 Q 164061.8 21062.4 164281.8 21353.9 Q 164501.8 21645.4 165172.8 21722.4 L 165172.8 22118.4 L 159958.8 22118.4 L 159958.8 21722.4 Q 160508.8 21645.4 160783.8 21282.4 Q 160981.8 20996.4 160981.8 19885.4 L 160981.8 15298.4 Q 160981.8 14022.4 160882.8 13697.9 Q 160783.8 13373.4 160547.3 13191.9 Q 160310.8 13010.4 160013.8 13010.4 Q 159573.8 13010.4 159155.8 13312.9 Q 158737.8 13615.4 158253.8 14374.4 L 158253.8 19885.4 Q 158253.8 20985.4 158418.8 21260.4 Q 158627.8 21634.4 159276.8 21722.4 L 159276.8 22118.4 L 154062.8 22118.4 L 154062.8 21722.4 Q 154711.8 21656.4 154986.8 21304.4 Q 155173.8 21062.4 155173.8 19885.4 L 155173.8 9435.4 Q 155173.8 8269.4 154959.3 7983.4 Q 154744.8 7697.4 154062.8 7609.4 L 154062.8 7202.4 L 158253.8 7202.4 Z M 175256.6 16607.4 L 169613.6 16607.4 Q 169712.6 18653.4 170702.6 19841.4 Q 171461.6 20754.4 172528.6 20754.4 Q 173188.6 20754.4 173727.6 20385.9 Q 174266.6 20017.4 174882.6 19060.4 L 175256.6 19302.4 Q 174420.6 21007.4 173408.6 21716.9 Q 172396.6 22426.4 171065.6 22426.4 Q 168777.6 22426.4 167600.6 20666.4 Q 166654.6 19247.4 166654.6 17146.4 Q 166654.6 14572.4 168046.1 13048.9 Q 169437.6 11525.4 171307.6 11525.4 Q 172869.6 11525.4 174019.1 12806.9 Q 175168.6 14088.4 175256.6 16607.4  Z M 172550.6 15870.4 Q 172550.6 14099.4 172358.1 13439.4 Q 172165.6 12779.4 171758.6 12438.4 Q 171527.6 12240.4 171142.6 12240.4 Q 170570.6 12240.4 170207.6 12801.4 Q 169558.6 13780.4 169558.6 15485.4 L 169558.6 15870.4 L 172550.6 15870.4 Z M 8483 45534.8 Q 6602 47195.8 5106 47195.8 Q 4226 47195.8 3643 46618.3 Q 3060 46040.8 3060 45171.8 Q 3060 43994.8 4072 43054.3 Q 5084 42113.8 8483 40551.8 L 8483 39517.8 Q 8483 38351.8 8356.5 38049.3 Q 8230 37746.8 7878 37521.3 Q 7526 37295.8 7086 37295.8 Q 6371 37295.8 5909 37614.8 Q 5623 37812.8 5623 38076.8 Q 5623 38307.8 5931 38648.8 Q 6349 39121.8 6349 39561.8 Q 6349 40100.8 5947.5 40480.3 Q 5546 40859.8 4897 40859.8 Q 4204 40859.8 3736.5 40441.8 Q 3269 40023.8 3269 39462.8 Q 3269 38670.8 3896 37950.3 Q 4523 37229.8 5645 36844.8 Q 6767 36459.8 7977 36459.8 Q 9440 36459.8 10292.5 37081.3 Q 11145 37702.8 11398 38428.8 Q 11552 38890.8 11552 40551.8 L 11552 44544.8 Q 11552 45248.8 11607 45430.3 Q 11662 45611.8 11772 45699.8 Q 11882 45787.8 12025 45787.8 Q 12311 45787.8 12608 45380.8 L 12938 45644.8 Q 12388 46458.8 11799.5 46827.3 Q 11211 47195.8 10463 47195.8 Q 9583 47195.8 9088 46783.3 Q 8593 46370.8 8483 45534.8  Z M 8483 44731.8 L 8483 41288.8 Q 7152 42069.8 6503 42960.8 Q 6074 43554.8 6074 44159.8 Q 6074 44665.8 6437 45050.8 Q 6712 45347.8 7207 45347.8 Q 7757 45347.8 8483 44731.8  Z M 18713 47360.8 L 15248 39385.8 Q 14621 37944.8 14269 37559.8 Q 14016 37273.8 13521 37174.8 L 13521 36767.8 L 18988 36767.8 L 18988 37174.8 Q 18471 37174.8 18284 37361.8 Q 18020 37603.8 18020 37933.8 Q 18020 38340.8 18504 39462.8 L 20198 43323.8 L 21551 39990.8 Q 22134 38560.8 22134 37966.8 Q 22134 37625.8 21886.5 37411.3 Q 21639 37196.8 21012 37174.8 L 21012 36767.8 L 24378 36767.8 L 24378 37174.8 Q 23894 37240.8 23586 37537.8 Q 23278 37834.8 22662 39286.8 L 19230 47360.8 L 18713 47360.8 Z M 27810 31784.8 Q 28525 31784.8 29020 32285.3 Q 29515 32785.8 29515 33489.8 Q 29515 34193.8 29014.5 34688.8 Q 28514 35183.8 27810 35183.8 Q 27106 35183.8 26611 34688.8 Q 26116 34193.8 26116 33489.8 Q 26116 32785.8 26611 32285.3 Q 27106 31784.8 27810 31784.8  Z M 29350 36767.8 L 29350 44918.8 Q 29350 46007.8 29603 46310.3 Q 29856 46612.8 30593 46656.8 L 30593 47052.8 L 25038 47052.8 L 25038 46656.8 Q 25720 46634.8 26050 46260.8 Q 26270 46007.8 26270 44918.8 L 26270 38912.8 Q 26270 37823.8 26017 37521.3 Q 25764 37218.8 25038 37174.8 L 25038 36767.8 L 29350 36767.8 Z M 35849.4 36767.8 L 35849.4 39099.8 Q 36872.4 37504.8 37642.4 36982.3 Q 38412.4 36459.8 39127.4 36459.8 Q 39743.4 36459.8 40111.9 36839.3 Q 40480.4 37218.8 40480.4 37911.8 Q 40480.4 38648.8 40122.9 39055.8 Q 39765.4 39462.8 39259.4 39462.8 Q 38676.4 39462.8 38247.4 39088.8 Q 37818.4 38714.8 37741.4 38670.8 Q 37631.4 38604.8 37488.4 38604.8 Q 37169.4 38604.8 36883.4 38846.8 Q 36432.4 39220.8 36201.4 39913.8 Q 35849.4 40980.8 35849.4 42267.8 L 35849.4 44632.8 L 35860.4 45248.8 Q 35860.4 45875.8 35937.4 46051.8 Q 36069.4 46348.8 36327.9 46486.3 Q 36586.4 46623.8 37202.4 46656.8 L 37202.4 47052.8 L 31647.4 47052.8 L 31647.4 46656.8 Q 32318.4 46601.8 32554.9 46288.3 Q 32791.4 45974.8 32791.4 44632.8 L 32791.4 38945.8 Q 32791.4 38065.8 32703.4 37823.8 Q 32593.4 37515.8 32384.4 37372.8 Q 32175.4 37229.8 31647.4 37174.8 L 31647.4 36767.8 L 35849.4 36767.8 Z M 51498.4 36767.8 L 51498.4 44819.8 Q 51498.4 45996.8 51718.4 46288.3 Q 51938.4 46579.8 52609.4 46656.8 L 52609.4 47052.8 L 48418.4 47052.8 L 48418.4 45677.8 Q 47681.4 46557.8 46944.4 46959.3 Q 46207.4 47360.8 45294.4 47360.8 Q 44425.4 47360.8 43748.9 46827.3 Q 43072.4 46293.8 42841.4 45578.8 Q 42610.4 44863.8 42610.4 43081.8 L 42610.4 39000.8 Q 42610.4 37834.8 42395.9 37548.8 Q 42181.4 37262.8 41499.4 37174.8 L 41499.4 36767.8 L 45690.4 36767.8 L 45690.4 43796.8 Q 45690.4 44896.8 45794.9 45215.8 Q 45899.4 45534.8 46124.9 45699.8 Q 46350.4 45864.8 46647.4 45864.8 Q 47043.4 45864.8 47362.4 45655.8 Q 47802.4 45369.8 48418.4 44500.8 L 48418.4 39000.8 Q 48418.4 37834.8 48203.9 37548.8 Q 47989.4 37262.8 47307.4 37174.8 L 47307.4 36767.8 L 51498.4 36767.8 Z M 58084.2 32136.8 L 58084.2 44918.8 Q 58084.2 46007.8 58337.2 46310.3 Q 58590.2 46612.8 59327.2 46656.8 L 59327.2 47052.8 L 53772.2 47052.8 L 53772.2 46656.8 Q 54454.2 46634.8 54784.2 46260.8 Q 55004.2 46007.8 55004.2 44918.8 L 55004.2 34270.8 Q 55004.2 33192.8 54751.2 32890.3 Q 54498.2 32587.8 53772.2 32543.8 L 53772.2 32136.8 L 58084.2 32136.8 Z M 69016.6 41541.8 L 63373.6 41541.8 Q 63472.6 43587.8 64462.6 44775.8 Q 65221.6 45688.8 66288.6 45688.8 Q 66948.6 45688.8 67487.6 45320.3 Q 68026.6 44951.8 68642.6 43994.8 L 69016.6 44236.8 Q 68180.6 45941.8 67168.6 46651.3 Q 66156.6 47360.8 64825.6 47360.8 Q 62537.6 47360.8 61360.6 45600.8 Q 60414.6 44181.8 60414.6 42080.8 Q 60414.6 39506.8 61806.1 37983.3 Q 63197.6 36459.8 65067.6 36459.8 Q 66629.6 36459.8 67779.1 37741.3 Q 68928.6 39022.8 69016.6 41541.8  Z M 66310.6 40804.8 Q 66310.6 39033.8 66118.1 38373.8 Q 65925.6 37713.8 65518.6 37372.8 Q 65287.6 37174.8 64902.6 37174.8 Q 64330.6 37174.8 63967.6 37735.8 Q 63318.6 38714.8 63318.6 40419.8 L 63318.6 40804.8 L 66310.6 40804.8 Z M 74490.6 36767.8 L 74490.6 38098.8 Q 75282.6 37240.8 76008.6 36850.3 Q 76734.6 36459.8 77570.6 36459.8 Q 78571.6 36459.8 79231.6 37015.3 Q 79891.6 37570.8 80111.6 38395.8 Q 80287.6 39022.8 80287.6 40804.8 L 80287.6 44808.8 Q 80287.6 45996.8 80502.1 46288.3 Q 80716.6 46579.8 81398.6 46656.8 L 81398.6 47052.8 L 76195.6 47052.8 L 76195.6 46656.8 Q 76778.6 46579.8 77031.6 46172.8 Q 77207.6 45897.8 77207.6 44808.8 L 77207.6 40232.8 Q 77207.6 38967.8 77108.6 38637.8 Q 77009.6 38307.8 76773.1 38126.3 Q 76536.6 37944.8 76250.6 37944.8 Q 75304.6 37944.8 74490.6 39297.8 L 74490.6 44808.8 Q 74490.6 45963.8 74705.1 46271.8 Q 74919.6 46579.8 75502.6 46656.8 L 75502.6 47052.8 L 70299.6 47052.8 L 70299.6 46656.8 Q 70948.6 46590.8 71223.6 46238.8 Q 71410.6 45996.8 71410.6 44808.8 L 71410.6 39000.8 Q 71410.6 37834.8 71196.1 37548.8 Q 70981.6 37262.8 70299.6 37174.8 L 70299.6 36767.8 L 74490.6 36767.8 Z M 86862.4 33005.8 L 86862.4 36767.8 L 89304.4 36767.8 L 89304.4 37856.8 L 86862.4 37856.8 L 86862.4 44203.8 Q 86862.4 45094.8 86944.9 45353.3 Q 87027.4 45611.8 87236.4 45771.3 Q 87445.4 45930.8 87621.4 45930.8 Q 88336.4 45930.8 88974.4 44841.8 L 89304.4 45083.8 Q 88413.4 47195.8 86411.4 47195.8 Q 85432.4 47195.8 84755.9 46651.3 Q 84079.4 46106.8 83892.4 45435.8 Q 83782.4 45061.8 83782.4 43411.8 L 83782.4 37856.8 L 82440.4 37856.8 L 82440.4 37471.8 Q 83826.4 36492.8 84799.9 35414.8 Q 85773.4 34336.8 86499.4 33005.8 L 86862.4 33005.8 Z M 99870.6 46007.8 L 99870.6 49835.8 Q 99870.6 50627.8 99997.1 50913.8 Q 100123.6 51199.8 100387.6 51331.8 Q 100651.6 51463.8 101421.6 51463.8 L 101421.6 51870.8 L 95558.6 51870.8 L 95558.6 51463.8 Q 96240.6 51441.8 96570.6 51078.8 Q 96790.6 50825.8 96790.6 49769.8 L 96790.6 38912.8 Q 96790.6 37823.8 96537.6 37521.3 Q 96284.6 37218.8 95558.6 37174.8 L 95558.6 36767.8 L 99870.6 36767.8 L 99870.6 38120.8 Q 100409.6 37328.8 100970.6 36976.8 Q 101773.6 36459.8 102719.6 36459.8 Q 103852.6 36459.8 104782.1 37174.8 Q 105711.6 37889.8 106195.6 39149.3 Q 106679.6 40408.8 106679.6 41860.8 Q 106679.6 43422.8 106179.1 44715.3 Q 105678.6 46007.8 104727.1 46684.3 Q 103775.6 47360.8 102609.6 47360.8 Q 101762.6 47360.8 101025.6 46986.8 Q 100475.6 46700.8 99870.6 46007.8  Z M 99870.6 44896.8 Q 100816.6 46238.8 101894.6 46238.8 Q 102488.6 46238.8 102873.6 45611.8 Q 103445.6 44687.8 103445.6 42091.8 Q 103445.6 39429.8 102818.6 38450.8 Q 102400.6 37801.8 101696.6 37801.8 Q 100585.6 37801.8 99870.6 39407.8 L 99870.6 44896.8 Z M 112649.4 36767.8 L 112649.4 39099.8 Q 113672.4 37504.8 114442.4 36982.3 Q 115212.4 36459.8 115927.4 36459.8 Q 116543.4 36459.8 116911.9 36839.3 Q 117280.4 37218.8 117280.4 37911.8 Q 117280.4 38648.8 116922.9 39055.8 Q 116565.4 39462.8 116059.4 39462.8 Q 115476.4 39462.8 115047.4 39088.8 Q 114618.4 38714.8 114541.4 38670.8 Q 114431.4 38604.8 114288.4 38604.8 Q 113969.4 38604.8 113683.4 38846.8 Q 113232.4 39220.8 113001.4 39913.8 Q 112649.4 40980.8 112649.4 42267.8 L 112649.4 44632.8 L 112660.4 45248.8 Q 112660.4 45875.8 112737.4 46051.8 Q 112869.4 46348.8 113127.9 46486.3 Q 113386.4 46623.8 114002.4 46656.8 L 114002.4 47052.8 L 108447.4 47052.8 L 108447.4 46656.8 Q 109118.4 46601.8 109354.9 46288.3 Q 109591.4 45974.8 109591.4 44632.8 L 109591.4 38945.8 Q 109591.4 38065.8 109503.4 37823.8 Q 109393.4 37515.8 109184.4 37372.8 Q 108975.4 37229.8 108447.4 37174.8 L 108447.4 36767.8 L 112649.4 36767.8 Z M 123216.4 36459.8 Q 124558.4 36459.8 125713.4 37152.8 Q 126868.4 37845.8 127467.9 39121.8 Q 128067.4 40397.8 128067.4 41915.8 Q 128067.4 44104.8 126956.4 45578.8 Q 125614.4 47360.8 123249.4 47360.8 Q 120928.4 47360.8 119674.4 45732.8 Q 118420.4 44104.8 118420.4 41959.8 Q 118420.4 39748.8 119701.9 38104.3 Q 120983.4 36459.8 123216.4 36459.8  Z M 123260.4 37240.8 Q 122699.4 37240.8 122297.9 37664.3 Q 121896.4 38087.8 121769.9 39336.3 Q 121643.4 40584.8 121643.4 42806.8 Q 121643.4 43983.8 121797.4 45006.8 Q 121918.4 45787.8 122314.4 46194.8 Q 122710.4 46601.8 123216.4 46601.8 Q 123711.4 46601.8 124041.4 46326.8 Q 124470.4 45952.8 124613.4 45281.8 Q 124833.4 44236.8 124833.4 41057.8 Q 124833.4 39187.8 124624.4 38489.3 Q 124415.4 37790.8 124008.4 37471.8 Q 123722.4 37240.8 123260.4 37240.8  Z M 133710.4 33005.8 L 133710.4 36767.8 L 136152.4 36767.8 L 136152.4 37856.8 L 133710.4 37856.8 L 133710.4 44203.8 Q 133710.4 45094.8 133792.9 45353.3 Q 133875.4 45611.8 134084.4 45771.3 Q 134293.4 45930.8 134469.4 45930.8 Q 135184.4 45930.8 135822.4 44841.8 L 136152.4 45083.8 Q 135261.4 47195.8 133259.4 47195.8 Q 132280.4 47195.8 131603.9 46651.3 Q 130927.4 46106.8 130740.4 45435.8 Q 130630.4 45061.8 130630.4 43411.8 L 130630.4 37856.8 L 129288.4 37856.8 L 129288.4 37471.8 Q 130674.4 36492.8 131647.9 35414.8 Q 132621.4 34336.8 133347.4 33005.8 L 133710.4 33005.8 Z M 145816.6 41541.8 L 140173.6 41541.8 Q 140272.6 43587.8 141262.6 44775.8 Q 142021.6 45688.8 143088.6 45688.8 Q 143748.6 45688.8 144287.6 45320.3 Q 144826.6 44951.8 145442.6 43994.8 L 145816.6 44236.8 Q 144980.6 45941.8 143968.6 46651.3 Q 142956.6 47360.8 141625.6 47360.8 Q 139337.6 47360.8 138160.6 45600.8 Q 137214.6 44181.8 137214.6 42080.8 Q 137214.6 39506.8 138606.1 37983.3 Q 139997.6 36459.8 141867.6 36459.8 Q 143429.6 36459.8 144579.1 37741.3 Q 145728.6 39022.8 145816.6 41541.8  Z M 143110.6 40804.8 Q 143110.6 39033.8 142918.1 38373.8 Q 142725.6 37713.8 142318.6 37372.8 Q 142087.6 37174.8 141702.6 37174.8 Q 141130.6 37174.8 140767.6 37735.8 Q 140118.6 38714.8 140118.6 40419.8 L 140118.6 40804.8 L 143110.6 40804.8 Z M 149563.6 31784.8 Q 150278.6 31784.8 150773.6 32285.3 Q 151268.6 32785.8 151268.6 33489.8 Q 151268.6 34193.8 150768.1 34688.8 Q 150267.6 35183.8 149563.6 35183.8 Q 148859.6 35183.8 148364.6 34688.8 Q 147869.6 34193.8 147869.6 33489.8 Q 147869.6 32785.8 148364.6 32285.3 Q 148859.6 31784.8 149563.6 31784.8  Z M 151103.6 36767.8 L 151103.6 44918.8 Q 151103.6 46007.8 151356.6 46310.3 Q 151609.6 46612.8 152346.6 46656.8 L 152346.6 47052.8 L 146791.6 47052.8 L 146791.6 46656.8 Q 147473.6 46634.8 147803.6 46260.8 Q 148023.6 46007.8 148023.6 44918.8 L 148023.6 38912.8 Q 148023.6 37823.8 147770.6 37521.3 Q 147517.6 37218.8 146791.6 37174.8 L 146791.6 36767.8 L 151103.6 36767.8 Z M 157537 36767.8 L 157537 38098.8 Q 158329 37240.8 159055 36850.3 Q 159781 36459.8 160617 36459.8 Q 161618 36459.8 162278 37015.3 Q 162938 37570.8 163158 38395.8 Q 163334 39022.8 163334 40804.8 L 163334 44808.8 Q 163334 45996.8 163548.5 46288.3 Q 163763 46579.8 164445 46656.8 L 164445 47052.8 L 159242 47052.8 L 159242 46656.8 Q 159825 46579.8 160078 46172.8 Q 160254 45897.8 160254 44808.8 L 160254 40232.8 Q 160254 38967.8 160155 38637.8 Q 160056 38307.8 159819.5 38126.3 Q 159583 37944.8 159297 37944.8 Q 158351 37944.8 157537 39297.8 L 157537 44808.8 Q 157537 45963.8 157751.5 46271.8 Q 157966 46579.8 158549 46656.8 L 158549 47052.8 L 153346 47052.8 L 153346 46656.8 Q 153995 46590.8 154270 46238.8 Q 154457 45996.8 154457 44808.8 L 154457 39000.8 Q 154457 37834.8 154242.5 37548.8 Q 154028 37262.8 153346 37174.8 L 153346 36767.8 L 157537 36767.8 Z M 12630 56730.2 L 12751 61702.2 L 12300 61702.2 Q 11981 59832.2 10732.5 58693.7 Q 9484 57555.2 8032 57555.2 Q 6910 57555.2 6255.5 58154.7 Q 5601 58754.2 5601 59535.2 Q 5601 60030.2 5832 60415.2 Q 6151 60932.2 6855 61438.2 Q 7372 61801.2 9242 62725.2 Q 11860 64012.2 12773 65156.2 Q 13675 66300.2 13675 67774.2 Q 13675 69644.2 12217.5 70991.7 Q 10760 72339.2 8516 72339.2 Q 7812 72339.2 7185 72196.2 Q 6558 72053.2 5612 71657.2 Q 5084 71437.2 4743 71437.2 Q 4457 71437.2 4138 71657.2 Q 3819 71877.2 3621 72328.2 L 3214 72328.2 L 3214 66696.2 L 3621 66696.2 Q 4105 69072.2 5485.5 70320.7 Q 6866 71569.2 8461 71569.2 Q 9693 71569.2 10424.5 70898.2 Q 11156 70227.2 11156 69336.2 Q 11156 68808.2 10875.5 68313.2 Q 10595 67818.2 10023 67372.7 Q 9451 66927.2 7999 66212.2 Q 5964 65211.2 5073 64507.2 Q 4182 63803.2 3703.5 62934.2 Q 3225 62065.2 3225 61020.2 Q 3225 59238.2 4534 57984.2 Q 5843 56730.2 7834 56730.2 Q 8560 56730.2 9242 56906.2 Q 9759 57038.2 10501.5 57395.7 Q 11244 57753.2 11541 57753.2 Q 11827 57753.2 11992 57577.2 Q 12157 57401.2 12300 56730.2 L 12630 56730.2 Z M 22790.8 71580.2 L 22790.8 71987.2 L 14991.8 71987.2 L 14991.8 71580.2 L 15486.8 71580.2 Q 16135.8 71580.2 16531.8 71349.2 Q 16817.8 71195.2 16971.8 70821.2 Q 17092.8 70557.2 17092.8 69435.2 L 17092.8 59623.2 Q 17092.8 58479.2 16971.8 58193.2 Q 16850.8 57907.2 16482.3 57692.7 Q 16113.8 57478.2 15486.8 57478.2 L 14991.8 57478.2 L 14991.8 57071.2 L 22790.8 57071.2 L 22790.8 57478.2 L 22295.8 57478.2 Q 21646.8 57478.2 21250.8 57709.2 Q 20964.8 57863.2 20799.8 58237.2 Q 20678.8 58501.2 20678.8 59623.2 L 20678.8 69435.2 Q 20678.8 70579.2 20805.3 70865.2 Q 20931.8 71151.2 21300.3 71365.7 Q 21668.8 71580.2 22295.8 71580.2 L 22790.8 71580.2 Z M 32811 63242.2 L 36925 69347.2 Q 37948 70865.2 38382.5 71189.7 Q 38817 71514.2 39411 71580.2 L 39411 71987.2 L 32140 71987.2 L 32140 71580.2 Q 33009 71514.2 33262 71316.2 Q 33515 71118.2 33515 70832.2 Q 33515 70634.2 33438 70480.2 Q 33284 70150.2 32668 69248.2 L 30490 66025.2 L 28213 68808.2 Q 27190 70073.2 27190 70524.2 Q 27190 70843.2 27454 71118.2 Q 27718 71393.2 28235 71514.2 Q 28466 71580.2 29181 71580.2 L 29181 71987.2 L 23450 71987.2 L 23450 71580.2 Q 24429 71437.2 24990 71052.2 Q 25727 70546.2 27047 68940.2 L 30006 65332.2 L 26211 59755.2 Q 25276 58380.2 25144 58226.2 Q 24847 57863.2 24561 57709.2 Q 24275 57555.2 23769 57478.2 L 23769 57071.2 L 31172 57071.2 L 31172 57478.2 L 30798 57478.2 Q 30160 57478.2 29907 57681.7 Q 29654 57885.2 29654 58193.2 Q 29654 58435.2 29731 58611.2 L 30490 59755.2 L 32338 62571.2 L 33911 60646.2 Q 35121 59161.2 35121 58567.2 Q 35121 58270.2 34950.5 58017.2 Q 34780 57764.2 34461 57621.2 Q 34142 57478.2 33471 57478.2 L 33471 57071.2 L 38960 57071.2 L 38960 57478.2 Q 38311 57489.2 37915 57637.7 Q 37519 57786.2 37068 58193.2 Q 36782 58457.2 35638 59832.2 L 32811 63242.2 Z M 40087.4 66366.2 L 47171.4 56763.2 L 48513.4 56763.2 L 48513.4 66366.2 L 49877.4 66366.2 L 49877.4 68643.2 L 48513.4 68643.2 L 48513.4 71987.2 L 45488.4 71987.2 L 45488.4 68643.2 L 40087.4 68643.2 L 40087.4 66366.2 Z M 41154.4 66366.2 L 45488.4 66366.2 L 45488.4 60481.2 L 41154.4 66366.2 Z M 62032.4 61394.2 Q 63374.4 61394.2 64529.4 62087.2 Q 65684.4 62780.2 66283.9 64056.2 Q 66883.4 65332.2 66883.4 66850.2 Q 66883.4 69039.2 65772.4 70513.2 Q 64430.4 72295.2 62065.4 72295.2 Q 59744.4 72295.2 58490.4 70667.2 Q 57236.4 69039.2 57236.4 66894.2 Q 57236.4 64683.2 58517.9 63038.7 Q 59799.4 61394.2 62032.4 61394.2  Z M 62076.4 62175.2 Q 61515.4 62175.2 61113.9 62598.7 Q 60712.4 63022.2 60585.9 64270.7 Q 60459.4 65519.2 60459.4 67741.2 Q 60459.4 68918.2 60613.4 69941.2 Q 60734.4 70722.2 61130.4 71129.2 Q 61526.4 71536.2 62032.4 71536.2 Q 62527.4 71536.2 62857.4 71261.2 Q 63286.4 70887.2 63429.4 70216.2 Q 63649.4 69171.2 63649.4 65992.2 Q 63649.4 64122.2 63440.4 63423.7 Q 63231.4 62725.2 62824.4 62406.2 Q 62538.4 62175.2 62076.4 62175.2  Z M 72955.4 62780.2 L 72955.4 69919.2 Q 72955.4 70953.2 73175.4 71217.2 Q 73527.4 71624.2 74473.4 71591.2 L 74473.4 71987.2 L 68412.4 71987.2 L 68412.4 71591.2 Q 69105.4 71580.2 69396.9 71431.7 Q 69688.4 71283.2 69798.4 71019.2 Q 69908.4 70755.2 69908.4 69919.2 L 69908.4 62780.2 L 68412.4 62780.2 L 68412.4 61702.2 L 69908.4 61702.2 L 69908.4 60943.2 L 69897.4 60426.2 Q 69897.4 58842.2 71057.9 57786.2 Q 72218.4 56730.2 74198.4 56730.2 Q 75551.4 56730.2 76205.9 57236.2 Q 76860.4 57742.2 76860.4 58358.2 Q 76860.4 58853.2 76453.4 59216.2 Q 76046.4 59579.2 75375.4 59579.2 Q 74803.4 59579.2 74467.9 59282.2 Q 74132.4 58985.2 74132.4 58622.2 Q 74132.4 58523.2 74198.4 58215.2 Q 74242.4 58028.2 74242.4 57863.2 Q 74242.4 57632.2 74110.4 57522.2 Q 73934.4 57357.2 73681.4 57357.2 Q 73362.4 57357.2 73147.9 57621.2 Q 72933.4 57885.2 72933.4 58468.2 L 72955.4 60393.2 L 72955.4 61702.2 L 74473.4 61702.2 L 74473.4 62780.2 L 72955.4 62780.2 Z M 86986.6 57929.2 L 86986.6 64056.2 L 87415.6 64056.2 Q 88405.6 64056.2 89032.6 63759.2 Q 89659.6 63462.2 90094.1 62758.2 Q 90528.6 62054.2 90660.6 60855.2 L 91045.6 60855.2 L 91045.6 68346.2 L 90660.6 68346.2 Q 90451.6 66223.2 89522.1 65546.7 Q 88592.6 64870.2 87415.6 64870.2 L 86986.6 64870.2 L 86986.6 69435.2 Q 86986.6 70579.2 87113.1 70865.2 Q 87239.6 71151.2 87608.1 71365.7 Q 87976.6 71580.2 88603.6 71580.2 L 89098.6 71580.2 L 89098.6 71987.2 L 81299.6 71987.2 L 81299.6 71580.2 L 81794.6 71580.2 Q 82443.6 71580.2 82839.6 71349.2 Q 83125.6 71195.2 83279.6 70821.2 Q 83400.6 70557.2 83400.6 69435.2 L 83400.6 59623.2 Q 83400.6 58479.2 83279.6 58193.2 Q 83158.6 57907.2 82790.1 57692.7 Q 82421.6 57478.2 81794.6 57478.2 L 81299.6 57478.2 L 81299.6 57071.2 L 93883.6 57071.2 L 93883.6 61350.2 L 93432.6 61350.2 Q 93278.6 59843.2 92646.1 59117.2 Q 92013.6 58391.2 90814.6 58094.2 Q 90154.6 57929.2 88372.6 57929.2 L 86986.6 57929.2 Z M 105207.2 61702.2 L 105207.2 69754.2 Q 105207.2 70931.2 105427.2 71222.7 Q 105647.2 71514.2 106318.2 71591.2 L 106318.2 71987.2 L 102127.2 71987.2 L 102127.2 70612.2 Q 101390.2 71492.2 100653.2 71893.7 Q 99916.2 72295.2 99003.2 72295.2 Q 98134.2 72295.2 97457.7 71761.7 Q 96781.2 71228.2 96550.2 70513.2 Q 96319.2 69798.2 96319.2 68016.2 L 96319.2 63935.2 Q 96319.2 62769.2 96104.7 62483.2 Q 95890.2 62197.2 95208.2 62109.2 L 95208.2 61702.2 L 99399.2 61702.2 L 99399.2 68731.2 Q 99399.2 69831.2 99503.7 70150.2 Q 99608.2 70469.2 99833.7 70634.2 Q 100059.2 70799.2 100356.2 70799.2 Q 100752.2 70799.2 101071.2 70590.2 Q 101511.2 70304.2 102127.2 69435.2 L 102127.2 63935.2 Q 102127.2 62769.2 101912.7 62483.2 Q 101698.2 62197.2 101016.2 62109.2 L 101016.2 61702.2 L 105207.2 61702.2 Z M 114268 61416.2 L 114433 64925.2 L 114059 64925.2 Q 113388 63363.2 112667.5 62791.2 Q 111947 62219.2 111232 62219.2 Q 110781 62219.2 110462 62521.7 Q 110143 62824.2 110143 63220.2 Q 110143 63517.2 110363 63792.2 Q 110715 64243.2 112332 65337.7 Q 113949 66432.2 114460.5 67196.7 Q 114972 67961.2 114972 68907.2 Q 114972 69765.2 114543 70590.2 Q 114114 71415.2 113333 71855.2 Q 112552 72295.2 111606 72295.2 Q 110869 72295.2 109637 71833.2 Q 109307 71712.2 109186 71712.2 Q 108823 71712.2 108581 72262.2 L 108218 72262.2 L 108042 68566.2 L 108416 68566.2 Q 108911 70018.2 109774.5 70744.2 Q 110638 71470.2 111408 71470.2 Q 111936 71470.2 112271.5 71145.7 Q 112607 70821.2 112607 70359.2 Q 112607 69831.2 112277 69446.2 Q 111947 69061.2 110803 68280.2 Q 109120 67114.2 108625 66498.2 Q 107899 65596.2 107899 64507.2 Q 107899 63319.2 108718.5 62356.7 Q 109538 61394.2 111089 61394.2 Q 111925 61394.2 112706 61801.2 Q 113003 61966.2 113190 61966.2 Q 113388 61966.2 113509 61883.7 Q 113630 61801.2 113894 61416.2 L 114268 61416.2 Z M 122198.2 70469.2 Q 120317.2 72130.2 118821.2 72130.2 Q 117941.2 72130.2 117358.2 71552.7 Q 116775.2 70975.2 116775.2 70106.2 Q 116775.2 68929.2 117787.2 67988.7 Q 118799.2 67048.2 122198.2 65486.2 L 122198.2 64452.2 Q 122198.2 63286.2 122071.7 62983.7 Q 121945.2 62681.2 121593.2 62455.7 Q 121241.2 62230.2 120801.2 62230.2 Q 120086.2 62230.2 119624.2 62549.2 Q 119338.2 62747.2 119338.2 63011.2 Q 119338.2 63242.2 119646.2 63583.2 Q 120064.2 64056.2 120064.2 64496.2 Q 120064.2 65035.2 119662.7 65414.7 Q 119261.2 65794.2 118612.2 65794.2 Q 117919.2 65794.2 117451.7 65376.2 Q 116984.2 64958.2 116984.2 64397.2 Q 116984.2 63605.2 117611.2 62884.7 Q 118238.2 62164.2 119360.2 61779.2 Q 120482.2 61394.2 121692.2 61394.2 Q 123155.2 61394.2 124007.7 62015.7 Q 124860.2 62637.2 125113.2 63363.2 Q 125267.2 63825.2 125267.2 65486.2 L 125267.2 69479.2 Q 125267.2 70183.2 125322.2 70364.7 Q 125377.2 70546.2 125487.2 70634.2 Q 125597.2 70722.2 125740.2 70722.2 Q 126026.2 70722.2 126323.2 70315.2 L 126653.2 70579.2 Q 126103.2 71393.2 125514.7 71761.7 Q 124926.2 72130.2 124178.2 72130.2 Q 123298.2 72130.2 122803.2 71717.7 Q 122308.2 71305.2 122198.2 70469.2  Z M 122198.2 69666.2 L 122198.2 66223.2 Q 120867.2 67004.2 120218.2 67895.2 Q 119789.2 68489.2 119789.2 69094.2 Q 119789.2 69600.2 120152.2 69985.2 Q 120427.2 70282.2 120922.2 70282.2 Q 121472.2 70282.2 122198.2 69666.2  Z M 132054.2 61702.2 L 132054.2 64034.2 Q 133077.2 62439.2 133847.2 61916.7 Q 134617.2 61394.2 135332.2 61394.2 Q 135948.2 61394.2 136316.7 61773.7 Q 136685.2 62153.2 136685.2 62846.2 Q 136685.2 63583.2 136327.7 63990.2 Q 135970.2 64397.2 135464.2 64397.2 Q 134881.2 64397.2 134452.2 64023.2 Q 134023.2 63649.2 133946.2 63605.2 Q 133836.2 63539.2 133693.2 63539.2 Q 133374.2 63539.2 133088.2 63781.2 Q 132637.2 64155.2 132406.2 64848.2 Q 132054.2 65915.2 132054.2 67202.2 L 132054.2 69567.2 L 132065.2 70183.2 Q 132065.2 70810.2 132142.2 70986.2 Q 132274.2 71283.2 132532.7 71420.7 Q 132791.2 71558.2 133407.2 71591.2 L 133407.2 71987.2 L 127852.2 71987.2 L 127852.2 71591.2 Q 128523.2 71536.2 128759.7 71222.7 Q 128996.2 70909.2 128996.2 69567.2 L 128996.2 63880.2 Q 128996.2 63000.2 128908.2 62758.2 Q 128798.2 62450.2 128589.2 62307.2 Q 128380.2 62164.2 127852.2 62109.2 L 127852.2 61702.2 L 132054.2 61702.2 Z M 140245.2 56719.2 Q 140960.2 56719.2 141455.2 57219.7 Q 141950.2 57720.2 141950.2 58424.2 Q 141950.2 59128.2 141449.7 59623.2 Q 140949.2 60118.2 140245.2 60118.2 Q 139541.2 60118.2 139046.2 59623.2 Q 138551.2 59128.2 138551.2 58424.2 Q 138551.2 57720.2 139046.2 57219.7 Q 139541.2 56719.2 140245.2 56719.2  Z M 141785.2 61702.2 L 141785.2 69853.2 Q 141785.2 70942.2 142038.2 71244.7 Q 142291.2 71547.2 143028.2 71591.2 L 143028.2 71987.2 L 137473.2 71987.2 L 137473.2 71591.2 Q 138155.2 71569.2 138485.2 71195.2 Q 138705.2 70942.2 138705.2 69853.2 L 138705.2 63847.2 Q 138705.2 62758.2 138452.2 62455.7 Q 138199.2 62153.2 137473.2 62109.2 L 137473.2 61702.2 L 141785.2 61702.2 Z M 153949.6 61702.2 L 153949.6 69754.2 Q 153949.6 70931.2 154169.6 71222.7 Q 154389.6 71514.2 155060.6 71591.2 L 155060.6 71987.2 L 150869.6 71987.2 L 150869.6 70612.2 Q 150132.6 71492.2 149395.6 71893.7 Q 148658.6 72295.2 147745.6 72295.2 Q 146876.6 72295.2 146200.1 71761.7 Q 145523.6 71228.2 145292.6 70513.2 Q 145061.6 69798.2 145061.6 68016.2 L 145061.6 63935.2 Q 145061.6 62769.2 144847.1 62483.2 Q 144632.6 62197.2 143950.6 62109.2 L 143950.6 61702.2 L 148141.6 61702.2 L 148141.6 68731.2 Q 148141.6 69831.2 148246.1 70150.2 Q 148350.6 70469.2 148576.1 70634.2 Q 148801.6 70799.2 149098.6 70799.2 Q 149494.6 70799.2 149813.6 70590.2 Q 150253.6 70304.2 150869.6 69435.2 L 150869.6 63935.2 Q 150869.6 62769.2 150655.1 62483.2 Q 150440.6 62197.2 149758.6 62109.2 L 149758.6 61702.2 L 153949.6 61702.2 Z M 160777.4 61702.2 L 160777.4 63055.2 Q 161624.4 62131.2 162344.9 61762.7 Q 163065.4 61394.2 163923.4 61394.2 Q 164913.4 61394.2 165584.4 61856.2 Q 166255.4 62318.2 166618.4 63264.2 Q 167498.4 62274.2 168306.9 61834.2 Q 169115.4 61394.2 169995.4 61394.2 Q 171062.4 61394.2 171694.9 61883.7 Q 172327.4 62373.2 172574.9 63126.7 Q 172822.4 63880.2 172822.4 65530.2 L 172822.4 69743.2 Q 172822.4 70931.2 173036.9 71217.2 Q 173251.4 71503.2 173933.4 71591.2 L 173933.4 71987.2 L 168620.4 71987.2 L 168620.4 71591.2 Q 169247.4 71536.2 169544.4 71107.2 Q 169742.4 70810.2 169742.4 69743.2 L 169742.4 65321.2 Q 169742.4 63946.2 169632.4 63572.2 Q 169522.4 63198.2 169285.9 63016.7 Q 169049.4 62835.2 168730.4 62835.2 Q 168257.4 62835.2 167773.4 63181.7 Q 167289.4 63528.2 166794.4 64221.2 L 166794.4 69743.2 Q 166794.4 70854.2 166981.4 71140.2 Q 167234.4 71547.2 167949.4 71591.2 L 167949.4 71987.2 L 162625.4 71987.2 L 162625.4 71591.2 Q 163054.4 71569.2 163301.9 71376.7 Q 163549.4 71184.2 163631.9 70914.7 Q 163714.4 70645.2 163714.4 69743.2 L 163714.4 65321.2 Q 163714.4 63924.2 163604.4 63572.2 Q 163494.4 63220.2 163235.9 63022.2 Q 162977.4 62824.2 162680.4 62824.2 Q 162240.4 62824.2 161877.4 63055.2 Q 161360.4 63396.2 160777.4 64221.2 L 160777.4 69743.2 Q 160777.4 70832.2 160991.9 71178.7 Q 161206.4 71525.2 161888.4 71591.2 L 161888.4 71987.2 L 156586.4 71987.2 L 156586.4 71591.2 Q 157235.4 71525.2 157510.4 71173.2 Q 157697.4 70931.2 157697.4 69743.2 L 157697.4 63935.2 Q 157697.4 62769.2 157482.9 62483.2 Q 157268.4 62197.2 156586.4 62109.2 L 156586.4 61702.2 L 160777.4 61702.2 Z M 7658 86328.6 Q 9000 86328.6 10155 87021.6 Q 11310 87714.6 11909.5 88990.6 Q 12509 90266.6 12509 91784.6 Q 12509 93973.6 11398 95447.6 Q 10056 97229.6 7691 97229.6 Q 5370 97229.6 4116 95601.6 Q 2862 93973.6 2862 91828.6 Q 2862 89617.6 4143.5 87973.1 Q 5425 86328.6 7658 86328.6  Z M 7702 87109.6 Q 7141 87109.6 6739.5 87533.1 Q 6338 87956.6 6211.5 89205.1 Q 6085 90453.6 6085 92675.6 Q 6085 93852.6 6239 94875.6 Q 6360 95656.6 6756 96063.6 Q 7152 96470.6 7658 96470.6 Q 8153 96470.6 8483 96195.6 Q 8912 95821.6 9055 95150.6 Q 9275 94105.6 9275 90926.6 Q 9275 89056.6 9066 88358.1 Q 8857 87659.6 8450 87340.6 Q 8164 87109.6 7702 87109.6  Z M 20154 90618.6 L 21936 94006.6 Q 22860 95777.6 23399 96250.6 Q 23696 96503.6 24213 96525.6 L 24213 96921.6 L 18482 96921.6 L 18482 96525.6 Q 19153 96470.6 19312.5 96349.6 Q 19472 96228.6 19472 96019.6 Q 19472 95711.6 19120 95051.6 L 18229 93379.6 L 17470 94490.6 Q 16953 95249.6 16887 95392.6 Q 16799 95601.6 16799 95766.6 Q 16799 96019.6 16903.5 96190.1 Q 17008 96360.6 17189.5 96443.1 Q 17371 96525.6 17855 96525.6 L 17855 96921.6 L 13829 96921.6 L 13829 96525.6 Q 14577 96525.6 15198.5 96113.1 Q 15820 95700.6 17008 93951.6 L 17855 92697.6 L 16084 89419.6 Q 15215 87813.6 14786 87450.6 Q 14357 87087.6 13829 87043.6 L 13829 86636.6 L 19527 86636.6 L 19527 87043.6 L 19230 87054.6 L 18658 87252.6 Q 18570 87329.6 18570 87505.6 Q 18570 87670.6 18625 87846.6 Q 18658 87923.6 18933 88440.6 L 19736 89936.6 L 20154 89342.6 Q 21034 88132.6 21034 87648.6 Q 21034 87417.6 20841.5 87258.1 Q 20649 87098.6 20154 87043.6 L 20154 86636.6 L 23795 86636.6 L 23795 87043.6 Q 23124 87065.6 22541 87456.1 Q 21958 87846.6 21232 88968.6 L 20154 90618.6 Z M 30054 97339.6 L 26732 89716.6 Q 25984 87989.6 25626.5 87593.6 Q 25269 87197.6 24763 87043.6 L 24763 86636.6 L 30230 86636.6 L 30230 87043.6 Q 29691 87065.6 29471 87252.6 Q 29251 87439.6 29251 87703.6 Q 29251 88121.6 29801 89353.6 L 31561 93379.6 L 32760 90266.6 Q 33409 88605.6 33409 87956.6 Q 33409 87549.6 33139.5 87307.6 Q 32870 87065.6 32188 87043.6 L 32188 86636.6 L 35631 86636.6 L 35631 87043.6 Q 35125 87098.6 34806 87434.1 Q 34487 87769.6 33739 89716.6 L 30802 97339.6 Q 29691 100199.6 29152 100859.6 Q 28393 101783.6 27249 101783.6 Q 26336 101783.6 25769.5 101261.1 Q 25203 100738.6 25203 100001.6 Q 25203 99363.6 25593.5 98945.6 Q 25984 98527.6 26556 98527.6 Q 27106 98527.6 27441.5 98879.6 Q 27777 99231.6 27788 99968.6 Q 27799 100386.6 27887 100507.6 Q 27975 100628.6 28140 100628.6 Q 28404 100628.6 28701 100309.6 Q 29141 99847.6 29735 98197.6 L 30054 97339.6 Z M 43100 86350.6 L 43265 89859.6 L 42891 89859.6 Q 42220 88297.6 41499.5 87725.6 Q 40779 87153.6 40064 87153.6 Q 39613 87153.6 39294 87456.1 Q 38975 87758.6 38975 88154.6 Q 38975 88451.6 39195 88726.6 Q 39547 89177.6 41164 90272.1 Q 42781 91366.6 43292.5 92131.1 Q 43804 92895.6 43804 93841.6 Q 43804 94699.6 43375 95524.6 Q 42946 96349.6 42165 96789.6 Q 41384 97229.6 40438 97229.6 Q 39701 97229.6 38469 96767.6 Q 38139 96646.6 38018 96646.6 Q 37655 96646.6 37413 97196.6 L 37050 97196.6 L 36874 93500.6 L 37248 93500.6 Q 37743 94952.6 38606.5 95678.6 Q 39470 96404.6 40240 96404.6 Q 40768 96404.6 41103.5 96080.1 Q 41439 95755.6 41439 95293.6 Q 41439 94765.6 41109 94380.6 Q 40779 93995.6 39635 93214.6 Q 37952 92048.6 37457 91432.6 Q 36731 90530.6 36731 89441.6 Q 36731 88253.6 37550.5 87291.1 Q 38370 86328.6 39921 86328.6 Q 40757 86328.6 41538 86735.6 Q 41835 86900.6 42022 86900.6 Q 42220 86900.6 42341 86818.1 Q 42462 86735.6 42726 86350.6 L 43100 86350.6 Z M 49336.2 95876.6 L 49336.2 99704.6 Q 49336.2 100496.6 49462.7 100782.6 Q 49589.2 101068.6 49853.2 101200.6 Q 50117.2 101332.6 50887.2 101332.6 L 50887.2 101739.6 L 45024.2 101739.6 L 45024.2 101332.6 Q 45706.2 101310.6 46036.2 100947.6 Q 46256.2 100694.6 46256.2 99638.6 L 46256.2 88781.6 Q 46256.2 87692.6 46003.2 87390.1 Q 45750.2 87087.6 45024.2 87043.6 L 45024.2 86636.6 L 49336.2 86636.6 L 49336.2 87989.6 Q 49875.2 87197.6 50436.2 86845.6 Q 51239.2 86328.6 52185.2 86328.6 Q 53318.2 86328.6 54247.7 87043.6 Q 55177.2 87758.6 55661.2 89018.1 Q 56145.2 90277.6 56145.2 91729.6 Q 56145.2 93291.6 55644.7 94584.1 Q 55144.2 95876.6 54192.7 96553.1 Q 53241.2 97229.6 52075.2 97229.6 Q 51228.2 97229.6 50491.2 96855.6 Q 49941.2 96569.6 49336.2 95876.6  Z M 49336.2 94765.6 Q 50282.2 96107.6 51360.2 96107.6 Q 51954.2 96107.6 52339.2 95480.6 Q 52911.2 94556.6 52911.2 91960.6 Q 52911.2 89298.6 52284.2 88319.6 Q 51866.2 87670.6 51162.2 87670.6 Q 50051.2 87670.6 49336.2 89276.6 L 49336.2 94765.6 Z M 62698 86328.6 Q 64040 86328.6 65195 87021.6 Q 66350 87714.6 66949.5 88990.6 Q 67549 90266.6 67549 91784.6 Q 67549 93973.6 66438 95447.6 Q 65096 97229.6 62731 97229.6 Q 60410 97229.6 59156 95601.6 Q 57902 93973.6 57902 91828.6 Q 57902 89617.6 59183.5 87973.1 Q 60465 86328.6 62698 86328.6  Z M 62742 87109.6 Q 62181 87109.6 61779.5 87533.1 Q 61378 87956.6 61251.5 89205.1 Q 61125 90453.6 61125 92675.6 Q 61125 93852.6 61279 94875.6 Q 61400 95656.6 61796 96063.6 Q 62192 96470.6 62698 96470.6 Q 63193 96470.6 63523 96195.6 Q 63952 95821.6 64095 95150.6 Q 64315 94105.6 64315 90926.6 Q 64315 89056.6 64106 88358.1 Q 63897 87659.6 63490 87340.6 Q 63204 87109.6 62742 87109.6  Z M 73379 86636.6 L 73379 88968.6 Q 74402 87373.6 75172 86851.1 Q 75942 86328.6 76657 86328.6 Q 77273 86328.6 77641.5 86708.1 Q 78010 87087.6 78010 87780.6 Q 78010 88517.6 77652.5 88924.6 Q 77295 89331.6 76789 89331.6 Q 76206 89331.6 75777 88957.6 Q 75348 88583.6 75271 88539.6 Q 75161 88473.6 75018 88473.6 Q 74699 88473.6 74413 88715.6 Q 73962 89089.6 73731 89782.6 Q 73379 90849.6 73379 92136.6 L 73379 94501.6 L 73390 95117.6 Q 73390 95744.6 73467 95920.6 Q 73599 96217.6 73857.5 96355.1 Q 74116 96492.6 74732 96525.6 L 74732 96921.6 L 69177 96921.6 L 69177 96525.6 Q 69848 96470.6 70084.5 96157.1 Q 70321 95843.6 70321 94501.6 L 70321 88814.6 Q 70321 87934.6 70233 87692.6 Q 70123 87384.6 69914 87241.6 Q 69705 87098.6 69177 87043.6 L 69177 86636.6 L 73379 86636.6 Z M 89028 86636.6 L 89028 94688.6 Q 89028 95865.6 89248 96157.1 Q 89468 96448.6 90139 96525.6 L 90139 96921.6 L 85948 96921.6 L 85948 95546.6 Q 85211 96426.6 84474 96828.1 Q 83737 97229.6 82824 97229.6 Q 81955 97229.6 81278.5 96696.1 Q 80602 96162.6 80371 95447.6 Q 80140 94732.6 80140 92950.6 L 80140 88869.6 Q 80140 87703.6 79925.5 87417.6 Q 79711 87131.6 79029 87043.6 L 79029 86636.6 L 83220 86636.6 L 83220 93665.6 Q 83220 94765.6 83324.5 95084.6 Q 83429 95403.6 83654.5 95568.6 Q 83880 95733.6 84177 95733.6 Q 84573 95733.6 84892 95524.6 Q 85332 95238.6 85948 94369.6 L 85948 88869.6 Q 85948 87703.6 85733.5 87417.6 Q 85519 87131.6 84837 87043.6 L 84837 86636.6 L 89028 86636.6 Z M 95855.8 86636.6 L 95855.8 87989.6 Q 96702.8 87065.6 97423.3 86697.1 Q 98143.8 86328.6 99001.8 86328.6 Q 99991.8 86328.6 100662.8 86790.6 Q 101333.8 87252.6 101696.8 88198.6 Q 102576.8 87208.6 103385.3 86768.6 Q 104193.8 86328.6 105073.8 86328.6 Q 106140.8 86328.6 106773.3 86818.1 Q 107405.8 87307.6 107653.3 88061.1 Q 107900.8 88814.6 107900.8 90464.6 L 107900.8 94677.6 Q 107900.8 95865.6 108115.3 96151.6 Q 108329.8 96437.6 109011.8 96525.6 L 109011.8 96921.6 L 103698.8 96921.6 L 103698.8 96525.6 Q 104325.8 96470.6 104622.8 96041.6 Q 104820.8 95744.6 104820.8 94677.6 L 104820.8 90255.6 Q 104820.8 88880.6 104710.8 88506.6 Q 104600.8 88132.6 104364.3 87951.1 Q 104127.8 87769.6 103808.8 87769.6 Q 103335.8 87769.6 102851.8 88116.1 Q 102367.8 88462.6 101872.8 89155.6 L 101872.8 94677.6 Q 101872.8 95788.6 102059.8 96074.6 Q 102312.8 96481.6 103027.8 96525.6 L 103027.8 96921.6 L 97703.8 96921.6 L 97703.8 96525.6 Q 98132.8 96503.6 98380.3 96311.1 Q 98627.8 96118.6 98710.3 95849.1 Q 98792.8 95579.6 98792.8 94677.6 L 98792.8 90255.6 Q 98792.8 88858.6 98682.8 88506.6 Q 98572.8 88154.6 98314.3 87956.6 Q 98055.8 87758.6 97758.8 87758.6 Q 97318.8 87758.6 96955.8 87989.6 Q 96438.8 88330.6 95855.8 89155.6 L 95855.8 94677.6 Q 95855.8 95766.6 96070.3 96113.1 Q 96284.8 96459.6 96966.8 96525.6 L 96966.8 96921.6 L 91664.8 96921.6 L 91664.8 96525.6 Q 92313.8 96459.6 92588.8 96107.6 Q 92775.8 95865.6 92775.8 94677.6 L 92775.8 88869.6 Q 92775.8 87703.6 92561.3 87417.6 Q 92346.8 87131.6 91664.8 87043.6 L 91664.8 86636.6 L 95855.8 86636.6 Z M 120810 86328.6 Q 122152 86328.6 123307 87021.6 Q 124462 87714.6 125061.5 88990.6 Q 125661 90266.6 125661 91784.6 Q 125661 93973.6 124550 95447.6 Q 123208 97229.6 120843 97229.6 Q 118522 97229.6 117268 95601.6 Q 116014 93973.6 116014 91828.6 Q 116014 89617.6 117295.5 87973.1 Q 118577 86328.6 120810 86328.6  Z M 120854 87109.6 Q 120293 87109.6 119891.5 87533.1 Q 119490 87956.6 119363.5 89205.1 Q 119237 90453.6 119237 92675.6 Q 119237 93852.6 119391 94875.6 Q 119512 95656.6 119908 96063.6 Q 120304 96470.6 120810 96470.6 Q 121305 96470.6 121635 96195.6 Q 122064 95821.6 122207 95150.6 Q 122427 94105.6 122427 90926.6 Q 122427 89056.6 122218 88358.1 Q 122009 87659.6 121602 87340.6 Q 121316 87109.6 120854 87109.6  Z M 131425 86636.6 L 131425 87967.6 Q 132217 87109.6 132943 86719.1 Q 133669 86328.6 134505 86328.6 Q 135506 86328.6 136166 86884.1 Q 136826 87439.6 137046 88264.6 Q 137222 88891.6 137222 90673.6 L 137222 94677.6 Q 137222 95865.6 137436.5 96157.1 Q 137651 96448.6 138333 96525.6 L 138333 96921.6 L 133130 96921.6 L 133130 96525.6 Q 133713 96448.6 133966 96041.6 Q 134142 95766.6 134142 94677.6 L 134142 90101.6 Q 134142 88836.6 134043 88506.6 Q 133944 88176.6 133707.5 87995.1 Q 133471 87813.6 133185 87813.6 Q 132239 87813.6 131425 89166.6 L 131425 94677.6 Q 131425 95832.6 131639.5 96140.6 Q 131854 96448.6 132437 96525.6 L 132437 96921.6 L 127234 96921.6 L 127234 96525.6 Q 127883 96459.6 128158 96107.6 Q 128345 95865.6 128345 94677.6 L 128345 88869.6 Q 128345 87703.6 128130.5 87417.6 Q 127916 87131.6 127234 87043.6 L 127234 86636.6 L 131425 86636.6 Z M 149428.8 82874.6 L 149428.8 86636.6 L 151870.8 86636.6 L 151870.8 87725.6 L 149428.8 87725.6 L 149428.8 94072.6 Q 149428.8 94963.6 149511.3 95222.1 Q 149593.8 95480.6 149802.8 95640.1 Q 150011.8 95799.6 150187.8 95799.6 Q 150902.8 95799.6 151540.8 94710.6 L 151870.8 94952.6 Q 150979.8 97064.6 148977.8 97064.6 Q 147998.8 97064.6 147322.3 96520.1 Q 146645.8 95975.6 146458.8 95304.6 Q 146348.8 94930.6 146348.8 93280.6 L 146348.8 87725.6 L 145006.8 87725.6 L 145006.8 87340.6 Q 146392.8 86361.6 147366.3 85283.6 Q 148339.8 84205.6 149065.8 82874.6 L 149428.8 82874.6 Z M 157025 82005.6 L 157025 87956.6 Q 157872 87065.6 158576 86697.1 Q 159280 86328.6 160039 86328.6 Q 161007 86328.6 161694.5 86878.6 Q 162382 87428.6 162607.5 88171.1 Q 162833 88913.6 162833 90673.6 L 162833 94688.6 Q 162833 95865.6 163053 96157.1 Q 163273 96448.6 163944 96525.6 L 163944 96921.6 L 158730 96921.6 L 158730 96525.6 Q 159280 96448.6 159555 96085.6 Q 159753 95799.6 159753 94688.6 L 159753 90101.6 Q 159753 88825.6 159654 88501.1 Q 159555 88176.6 159318.5 87995.1 Q 159082 87813.6 158785 87813.6 Q 158345 87813.6 157927 88116.1 Q 157509 88418.6 157025 89177.6 L 157025 94688.6 Q 157025 95788.6 157190 96063.6 Q 157399 96437.6 158048 96525.6 L 158048 96921.6 L 152834 96921.6 L 152834 96525.6 Q 153483 96459.6 153758 96107.6 Q 153945 95865.6 153945 94688.6 L 153945 84238.6 Q 153945 83072.6 153730.5 82786.6 Q 153516 82500.6 152834 82412.6 L 152834 82005.6 L 157025 82005.6 Z M 174027.8 91410.6 L 168384.8 91410.6 Q 168483.8 93456.6 169473.8 94644.6 Q 170232.8 95557.6 171299.8 95557.6 Q 171959.8 95557.6 172498.8 95189.1 Q 173037.8 94820.6 173653.8 93863.6 L 174027.8 94105.6 Q 173191.8 95810.6 172179.8 96520.1 Q 171167.8 97229.6 169836.8 97229.6 Q 167548.8 97229.6 166371.8 95469.6 Q 165425.8 94050.6 165425.8 91949.6 Q 165425.8 89375.6 166817.3 87852.1 Q 168208.8 86328.6 170078.8 86328.6 Q 171640.8 86328.6 172790.3 87610.1 Q 173939.8 88891.6 174027.8 91410.6  Z M 171321.8 90673.6 Q 171321.8 88902.6 171129.3 88242.6 Q 170936.8 87582.6 170529.8 87241.6 Q 170298.8 87043.6 169913.8 87043.6 Q 169341.8 87043.6 168978.8 87604.6 Q 168329.8 88583.6 168329.8 90288.6 L 168329.8 90673.6 L 171321.8 90673.6 Z M 9308 111285 L 9473 114794 L 9099 114794 Q 8428 113232 7707.5 112660 Q 6987 112088 6272 112088 Q 5821 112088 5502 112390.5 Q 5183 112693 5183 113089 Q 5183 113386 5403 113661 Q 5755 114112 7372 115206.5 Q 8989 116301 9500.5 117065.5 Q 10012 117830 10012 118776 Q 10012 119634 9583 120459 Q 9154 121284 8373 121724 Q 7592 122164 6646 122164 Q 5909 122164 4677 121702 Q 4347 121581 4226 121581 Q 3863 121581 3621 122131 L 3258 122131 L 3082 118435 L 3456 118435 Q 3951 119887 4814.5 120613 Q 5678 121339 6448 121339 Q 6976 121339 7311.5 121014.5 Q 7647 120690 7647 120228 Q 7647 119700 7317 119315 Q 6987 118930 5843 118149 Q 4160 116983 3665 116367 Q 2939 115465 2939 114376 Q 2939 113188 3758.5 112225.5 Q 4578 111263 6129 111263 Q 6965 111263 7746 111670 Q 8043 111835 8230 111835 Q 8428 111835 8549 111752.5 Q 8670 111670 8934 111285 L 9308 111285 Z M 21495.2 111571 L 21495.2 119623 Q 21495.2 120800 21715.2 121091.5 Q 21935.2 121383 22606.2 121460 L 22606.2 121856 L 18415.2 121856 L 18415.2 120481 Q 17678.2 121361 16941.2 121762.5 Q 16204.2 122164 15291.2 122164 Q 14422.2 122164 13745.7 121630.5 Q 13069.2 121097 12838.2 120382 Q 12607.2 119667 12607.2 117885 L 12607.2 113804 Q 12607.2 112638 12392.7 112352 Q 12178.2 112066 11496.2 111978 L 11496.2 111571 L 15687.2 111571 L 15687.2 118600 Q 15687.2 119700 15791.7 120019 Q 15896.2 120338 16121.7 120503 Q 16347.2 120668 16644.2 120668 Q 17040.2 120668 17359.2 120459 Q 17799.2 120173 18415.2 119304 L 18415.2 113804 Q 18415.2 112638 18200.7 112352 Q 17986.2 112066 17304.2 111978 L 17304.2 111571 L 21495.2 111571 Z M 28323 111571 L 28323 113903 Q 29346 112308 30116 111785.5 Q 30886 111263 31601 111263 Q 32217 111263 32585.5 111642.5 Q 32954 112022 32954 112715 Q 32954 113452 32596.5 113859 Q 32239 114266 31733 114266 Q 31150 114266 30721 113892 Q 30292 113518 30215 113474 Q 30105 113408 29962 113408 Q 29643 113408 29357 113650 Q 28906 114024 28675 114717 Q 28323 115784 28323 117071 L 28323 119436 L 28334 120052 Q 28334 120679 28411 120855 Q 28543 121152 28801.5 121289.5 Q 29060 121427 29676 121460 L 29676 121856 L 24121 121856 L 24121 121460 Q 24792 121405 25028.5 121091.5 Q 25265 120778 25265 119436 L 25265 113749 Q 25265 112869 25177 112627 Q 25067 112319 24858 112176 Q 24649 112033 24121 111978 L 24121 111571 L 28323 111571 Z M 38549 112649 L 38549 119788 Q 38549 120822 38769 121086 Q 39121 121493 40067 121460 L 40067 121856 L 34006 121856 L 34006 121460 Q 34699 121449 34990.5 121300.5 Q 35282 121152 35392 120888 Q 35502 120624 35502 119788 L 35502 112649 L 34006 112649 L 34006 111571 L 35502 111571 L 35502 110812 L 35491 110295 Q 35491 108711 36651.5 107655 Q 37812 106599 39792 106599 Q 41145 106599 41799.5 107105 Q 42454 107611 42454 108227 Q 42454 108722 42047 109085 Q 41640 109448 40969 109448 Q 40397 109448 40061.5 109151 Q 39726 108854 39726 108491 Q 39726 108392 39792 108084 Q 39836 107897 39836 107732 Q 39836 107501 39704 107391 Q 39528 107226 39275 107226 Q 38956 107226 38741.5 107490 Q 38527 107754 38527 108337 L 38549 110262 L 38549 111571 L 40067 111571 L 40067 112649 L 38549 112649 Z M 47190.2 120338 Q 45309.2 121999 43813.2 121999 Q 42933.2 121999 42350.2 121421.5 Q 41767.2 120844 41767.2 119975 Q 41767.2 118798 42779.2 117857.5 Q 43791.2 116917 47190.2 115355 L 47190.2 114321 Q 47190.2 113155 47063.7 112852.5 Q 46937.2 112550 46585.2 112324.5 Q 46233.2 112099 45793.2 112099 Q 45078.2 112099 44616.2 112418 Q 44330.2 112616 44330.2 112880 Q 44330.2 113111 44638.2 113452 Q 45056.2 113925 45056.2 114365 Q 45056.2 114904 44654.7 115283.5 Q 44253.2 115663 43604.2 115663 Q 42911.2 115663 42443.7 115245 Q 41976.2 114827 41976.2 114266 Q 41976.2 113474 42603.2 112753.5 Q 43230.2 112033 44352.2 111648 Q 45474.2 111263 46684.2 111263 Q 48147.2 111263 48999.7 111884.5 Q 49852.2 112506 50105.2 113232 Q 50259.2 113694 50259.2 115355 L 50259.2 119348 Q 50259.2 120052 50314.2 120233.5 Q 50369.2 120415 50479.2 120503 Q 50589.2 120591 50732.2 120591 Q 51018.2 120591 51315.2 120184 L 51645.2 120448 Q 51095.2 121262 50506.7 121630.5 Q 49918.2 121999 49170.2 121999 Q 48290.2 121999 47795.2 121586.5 Q 47300.2 121174 47190.2 120338  Z M 47190.2 119535 L 47190.2 116092 Q 45859.2 116873 45210.2 117764 Q 44781.2 118358 44781.2 118963 Q 44781.2 119469 45144.2 119854 Q 45419.2 120151 45914.2 120151 Q 46464.2 120151 47190.2 119535  Z M 61171.2 119205 L 61512.2 119469 Q 60786.2 120833 59702.7 121498.5 Q 58619.2 122164 57398.2 122164 Q 55341.2 122164 54109.2 120613 Q 52877.2 119062 52877.2 116884 Q 52877.2 114783 53999.2 113188 Q 55352.2 111263 57728.2 111263 Q 59323.2 111263 60263.7 112066 Q 61204.2 112869 61204.2 113859 Q 61204.2 114486 60824.7 114860 Q 60445.2 115234 59829.2 115234 Q 59180.2 115234 58756.7 114805 Q 58333.2 114376 58234.2 113276 Q 58168.2 112583 57915.2 112308 Q 57662.2 112033 57321.2 112033 Q 56793.2 112033 56419.2 112594 Q 55847.2 113441 55847.2 115190 Q 55847.2 116642 56309.2 117967.5 Q 56771.2 119293 57574.2 119942 Q 58179.2 120415 59004.2 120415 Q 59543.2 120415 60027.2 120162 Q 60511.2 119909 61171.2 119205  Z M 71474.2 116345 L 65831.2 116345 Q 65930.2 118391 66920.2 119579 Q 67679.2 120492 68746.2 120492 Q 69406.2 120492 69945.2 120123.5 Q 70484.2 119755 71100.2 118798 L 71474.2 119040 Q 70638.2 120745 69626.2 121454.5 Q 68614.2 122164 67283.2 122164 Q 64995.2 122164 63818.2 120404 Q 62872.2 118985 62872.2 116884 Q 62872.2 114310 64263.7 112786.5 Q 65655.2 111263 67525.2 111263 Q 69087.2 111263 70236.7 112544.5 Q 71386.2 113826 71474.2 116345  Z M 68768.2 115608 Q 68768.2 113837 68575.7 113177 Q 68383.2 112517 67976.2 112176 Q 67745.2 111978 67360.2 111978 Q 66788.2 111978 66425.2 112539 Q 65776.2 113518 65776.2 115223 L 65776.2 115608 L 68768.2 115608 Z " fill-rule="nonzero" style="fill:#76923c;;fill-opacity:1;"/>
</svg>