<svg version="1.1" x="0" y="0" width="100%" height="100%" viewBox="0 0 681420.8 69734.4" xmlns="http://www.w3.org/2000/svg">
  <path d="M 22536.5 8355.7 L 22536.5 15286.7 L 22000 15286.7 Q 21028.5 12444.7 19085.5 10965.7 Q 17142.5 9486.7 14837 9486.7 Q 12633 9486.7 11168.5 10726.45 Q 9704 11966.2 9095 14184.7 Q 8486 16403.2 8486 18737.7 Q 8486 21565.2 9153 23696.7 Q 9820 25828.2 11306.25 26828.7 Q 12792.5 27829.2 14837 27829.2 Q 15547.5 27829.2 16294.25 27676.95 Q 17041 27524.7 17824 27234.7 L 17824 23145.7 Q 17824 21985.7 17664.5 21644.95 Q 17505 21304.2 17004.75 21028.7 Q 16504.5 20753.2 15794 20753.2 L 15286.5 20753.2 L 15286.5 20216.7 L 24842 20216.7 L 24842 20753.2 Q 23754.5 20825.7 23326.75 21050.45 Q 22899 21275.2 22667 21797.2 Q 22536.5 22072.7 22536.5 23145.7 L 22536.5 27234.7 Q 20651.5 28075.7 18614.25 28503.45 Q 16577 28931.2 14387.5 28931.2 Q 11589 28931.2 9740.25 28169.95 Q 7891.5 27408.7 6477.75 26168.95 Q 5064 24929.2 4266.5 23377.7 Q 3251.5 21376.7 3251.5 18897.2 Q 3251.5 14460.2 6369 11400.7 Q 9486.5 8341.2 14213.5 8341.2 Q 15678 8341.2 16852.5 8573.2 Q 17490.5 8689.2 18918.75 9232.95 Q 20347 9776.7 20608 9776.7 Q 21014 9776.7 21362 9479.45 Q 21710 9182.2 22000 8355.7 L 22536.5 8355.7 Z M 37623.7 21202.7 L 30185.2 21202.7 Q 30315.7 23899.7 31620.7 25465.7 Q 32621.2 26669.2 34027.7 26669.2 Q 34897.7 26669.2 35608.2 26183.45 Q 36318.7 25697.7 37130.7 24436.2 L 37623.7 24755.2 Q 36521.7 27002.7 35187.7 27937.95 Q 33853.7 28873.2 32099.2 28873.2 Q 29083.2 28873.2 27531.7 26553.2 Q 26284.7 24682.7 26284.7 21913.2 Q 26284.7 18520.2 28118.95 16511.95 Q 29953.2 14503.7 32418.2 14503.7 Q 34477.2 14503.7 35992.45 16192.95 Q 37507.7 17882.2 37623.7 21202.7  Z M 34056.7 20231.2 Q 34056.7 17896.7 33802.95 17026.7 Q 33549.2 16156.7 33012.7 15707.2 Q 32708.2 15446.2 32200.7 15446.2 Q 31446.7 15446.2 30968.2 16185.7 Q 30112.7 17476.2 30112.7 19723.7 L 30112.7 20231.2 L 34056.7 20231.2 Z M 44837.1 14909.7 L 44837.1 16664.2 Q 45881.1 15533.2 46838.1 15018.45 Q 47795.1 14503.7 48897.1 14503.7 Q 50216.6 14503.7 51086.6 15235.95 Q 51956.6 15968.2 52246.6 17055.7 Q 52478.6 17882.2 52478.6 20231.2 L 52478.6 25509.2 Q 52478.6 27075.2 52761.35 27459.45 Q 53044.1 27843.7 53943.1 27945.2 L 53943.1 28467.2 L 47084.6 28467.2 L 47084.6 27945.2 Q 47853.1 27843.7 48186.6 27307.2 Q 48418.6 26944.7 48418.6 25509.2 L 48418.6 19477.2 Q 48418.6 17809.7 48288.1 17374.7 Q 48157.6 16939.7 47845.85 16700.45 Q 47534.1 16461.2 47157.1 16461.2 Q 45910.1 16461.2 44837.1 18244.7 L 44837.1 25509.2 Q 44837.1 27031.7 45119.85 27437.7 Q 45402.6 27843.7 46171.1 27945.2 L 46171.1 28467.2 L 39312.6 28467.2 L 39312.6 27945.2 Q 40168.1 27858.2 40530.6 27394.2 Q 40777.1 27075.2 40777.1 25509.2 L 40777.1 17853.2 Q 40777.1 16316.2 40494.35 15939.2 Q 40211.6 15562.2 39312.6 15446.2 L 39312.6 14909.7 L 44837.1 14909.7 Z M 67268.5 21202.7 L 59830 21202.7 Q 59960.5 23899.7 61265.5 25465.7 Q 62266 26669.2 63672.5 26669.2 Q 64542.5 26669.2 65253 26183.45 Q 65963.5 25697.7 66775.5 24436.2 L 67268.5 24755.2 Q 66166.5 27002.7 64832.5 27937.95 Q 63498.5 28873.2 61744 28873.2 Q 58728 28873.2 57176.5 26553.2 Q 55929.5 24682.7 55929.5 21913.2 Q 55929.5 18520.2 57763.75 16511.95 Q 59598 14503.7 62063 14503.7 Q 64122 14503.7 65637.25 16192.95 Q 67152.5 17882.2 67268.5 21202.7  Z M 63701.5 20231.2 Q 63701.5 17896.7 63447.75 17026.7 Q 63194 16156.7 62657.5 15707.2 Q 62353 15446.2 61845.5 15446.2 Q 61091.5 15446.2 60613 16185.7 Q 59757.5 17476.2 59757.5 19723.7 L 59757.5 20231.2 L 63701.5 20231.2 Z M 89547.4 8805.2 L 89547.4 24407.2 Q 89547.4 25987.7 89634.4 26277.7 Q 89750.4 26756.2 90076.65 26988.2 Q 90402.9 27220.2 91214.9 27278.2 L 91214.9 27756.7 L 85487.4 28873.2 L 85487.4 26727.2 Q 84457.9 27974.2 83653.15 28423.7 Q 82848.4 28873.2 81833.4 28873.2 Q 79237.9 28873.2 77729.9 26553.2 Q 76511.9 24668.2 76511.9 21927.7 Q 76511.9 19738.2 77265.9 18005.45 Q 78019.9 16272.7 79332.15 15388.2 Q 80644.4 14503.7 82152.4 14503.7 Q 83123.9 14503.7 83877.9 14880.7 Q 84631.9 15257.7 85487.4 16200.2 L 85487.4 12111.2 Q 85487.4 10559.7 85356.9 10240.7 Q 85182.9 9820.2 84834.9 9617.2 Q 84486.9 9414.2 83529.9 9414.2 L 83529.9 8805.2 L 89547.4 8805.2 Z M 85487.4 17998.2 Q 84414.4 15939.2 82862.9 15939.2 Q 82326.4 15939.2 81978.4 16229.2 Q 81441.9 16678.7 81101.15 17809.7 Q 80760.4 18940.7 80760.4 21275.2 Q 80760.4 23841.7 81137.4 25074.2 Q 81514.4 26306.7 82166.9 26857.7 Q 82500.4 27133.2 83080.4 27133.2 Q 84356.4 27133.2 85487.4 25132.2 L 85487.4 17998.2 Z M 104337.3 21202.7 L 96898.8 21202.7 Q 97029.3 23899.7 98334.3 25465.7 Q 99334.8 26669.2 100741.3 26669.2 Q 101611.3 26669.2 102321.8 26183.45 Q 103032.3 25697.7 103844.3 24436.2 L 104337.3 24755.2 Q 103235.3 27002.7 101901.3 27937.95 Q 100567.3 28873.2 98812.8 28873.2 Q 95796.8 28873.2 94245.3 26553.2 Q 92998.3 24682.7 92998.3 21913.2 Q 92998.3 18520.2 94832.55 16511.95 Q 96666.8 14503.7 99131.8 14503.7 Q 101190.8 14503.7 102706.05 16192.95 Q 104221.3 17882.2 104337.3 21202.7  Z M 100770.3 20231.2 Q 100770.3 17896.7 100516.55 17026.7 Q 100262.8 16156.7 99726.3 15707.2 Q 99421.8 15446.2 98914.3 15446.2 Q 98160.3 15446.2 97681.8 16185.7 Q 96826.3 17476.2 96826.3 19723.7 L 96826.3 20231.2 L 100770.3 20231.2 Z M 111391.2 9950.7 L 111391.2 14909.7 L 114610.2 14909.7 L 114610.2 16345.2 L 111391.2 16345.2 L 111391.2 24711.7 Q 111391.2 25886.2 111499.95 26226.95 Q 111608.7 26567.7 111884.2 26777.95 Q 112159.7 26988.2 112391.7 26988.2 Q 113334.2 26988.2 114175.2 25552.7 L 114610.2 25871.7 Q 113435.7 28655.7 110796.7 28655.7 Q 109506.2 28655.7 108614.45 27937.95 Q 107722.7 27220.2 107476.2 26335.7 Q 107331.2 25842.7 107331.2 23667.7 L 107331.2 16345.2 L 105562.2 16345.2 L 105562.2 15837.7 Q 107389.2 14547.2 108672.45 13126.2 Q 109955.7 11705.2 110912.7 9950.7 L 111391.2 9950.7 Z M 127377.3 21202.7 L 119938.8 21202.7 Q 120069.3 23899.7 121374.3 25465.7 Q 122374.8 26669.2 123781.3 26669.2 Q 124651.3 26669.2 125361.8 26183.45 Q 126072.3 25697.7 126884.3 24436.2 L 127377.3 24755.2 Q 126275.3 27002.7 124941.3 27937.95 Q 123607.3 28873.2 121852.8 28873.2 Q 118836.8 28873.2 117285.3 26553.2 Q 116038.3 24682.7 116038.3 21913.2 Q 116038.3 18520.2 117872.55 16511.95 Q 119706.8 14503.7 122171.8 14503.7 Q 124230.8 14503.7 125746.05 16192.95 Q 127261.3 17882.2 127377.3 21202.7  Z M 123810.3 20231.2 Q 123810.3 17896.7 123556.55 17026.7 Q 123302.8 16156.7 122766.3 15707.2 Q 122461.8 15446.2 121954.3 15446.2 Q 121200.3 15446.2 120721.8 16185.7 Q 119866.3 17476.2 119866.3 19723.7 L 119866.3 20231.2 L 123810.3 20231.2 Z M 140115.2 24972.7 L 140564.7 25320.7 Q 139607.7 27118.7 138179.45 27995.95 Q 136751.2 28873.2 135141.7 28873.2 Q 132430.2 28873.2 130806.2 26828.7 Q 129182.2 24784.2 129182.2 21913.2 Q 129182.2 19143.7 130661.2 17041.2 Q 132444.7 14503.7 135576.7 14503.7 Q 137679.2 14503.7 138918.95 15562.2 Q 140158.7 16620.7 140158.7 17925.7 Q 140158.7 18752.2 139658.45 19245.2 Q 139158.2 19738.2 138346.2 19738.2 Q 137490.7 19738.2 136932.45 19172.7 Q 136374.2 18607.2 136243.7 17157.2 Q 136156.7 16243.7 135823.2 15881.2 Q 135489.7 15518.7 135040.2 15518.7 Q 134344.2 15518.7 133851.2 16258.2 Q 133097.2 17374.7 133097.2 19680.2 Q 133097.2 21594.2 133706.2 23341.45 Q 134315.2 25088.7 135373.7 25944.2 Q 136171.2 26567.7 137258.7 26567.7 Q 137969.2 26567.7 138607.2 26234.2 Q 139245.2 25900.7 140115.2 24972.7  Z M 147589.6 9950.7 L 147589.6 14909.7 L 150808.6 14909.7 L 150808.6 16345.2 L 147589.6 16345.2 L 147589.6 24711.7 Q 147589.6 25886.2 147698.35 26226.95 Q 147807.1 26567.7 148082.6 26777.95 Q 148358.1 26988.2 148590.1 26988.2 Q 149532.6 26988.2 150373.6 25552.7 L 150808.6 25871.7 Q 149634.1 28655.7 146995.1 28655.7 Q 145704.6 28655.7 144812.85 27937.95 Q 143921.1 27220.2 143674.6 26335.7 Q 143529.6 25842.7 143529.6 23667.7 L 143529.6 16345.2 L 141760.6 16345.2 L 141760.6 15837.7 Q 143587.6 14547.2 144870.85 13126.2 Q 146154.1 11705.2 147111.1 9950.7 L 147589.6 9950.7 Z M 155354.2 8341.2 Q 156296.7 8341.2 156949.2 9000.95 Q 157601.7 9660.7 157601.7 10588.7 Q 157601.7 11516.7 156941.95 12169.2 Q 156282.2 12821.7 155354.2 12821.7 Q 154426.2 12821.7 153773.7 12169.2 Q 153121.2 11516.7 153121.2 10588.7 Q 153121.2 9660.7 153773.7 9000.95 Q 154426.2 8341.2 155354.2 8341.2  Z M 157384.2 14909.7 L 157384.2 25654.2 Q 157384.2 27089.7 157717.7 27488.45 Q 158051.2 27887.2 159022.7 27945.2 L 159022.7 28467.2 L 151700.2 28467.2 L 151700.2 27945.2 Q 152599.2 27916.2 153034.2 27423.2 Q 153324.2 27089.7 153324.2 25654.2 L 153324.2 17737.2 Q 153324.2 16301.7 152990.7 15902.95 Q 152657.2 15504.2 151700.2 15446.2 L 151700.2 14909.7 L 157384.2 14909.7 Z M 166729.4 14503.7 Q 168498.4 14503.7 170020.9 15417.2 Q 171543.4 16330.7 172333.65 18012.7 Q 173123.9 19694.7 173123.9 21695.7 Q 173123.9 24581.2 171659.4 26524.2 Q 169890.4 28873.2 166772.9 28873.2 Q 163713.4 28873.2 162060.4 26727.2 Q 160407.4 24581.2 160407.4 21753.7 Q 160407.4 18839.2 162096.65 16671.45 Q 163785.9 14503.7 166729.4 14503.7  Z M 166787.4 15533.2 Q 166047.9 15533.2 165518.65 16091.45 Q 164989.4 16649.7 164822.65 18295.45 Q 164655.9 19941.2 164655.9 22870.2 Q 164655.9 24421.7 164858.9 25770.2 Q 165018.4 26799.7 165540.4 27336.2 Q 166062.4 27872.7 166729.4 27872.7 Q 167381.9 27872.7 167816.9 27510.2 Q 168382.4 27017.2 168570.9 26132.7 Q 168860.9 24755.2 168860.9 20564.7 Q 168860.9 18099.7 168585.4 17178.95 Q 168309.9 16258.2 167773.4 15837.7 Q 167396.4 15533.2 166787.4 15533.2  Z M 180721.9 14909.7 L 180721.9 16664.2 Q 181765.9 15533.2 182722.9 15018.45 Q 183679.9 14503.7 184781.9 14503.7 Q 186101.4 14503.7 186971.4 15235.95 Q 187841.4 15968.2 188131.4 17055.7 Q 188363.4 17882.2 188363.4 20231.2 L 188363.4 25509.2 Q 188363.4 27075.2 188646.15 27459.45 Q 188928.9 27843.7 189827.9 27945.2 L 189827.9 28467.2 L 182969.4 28467.2 L 182969.4 27945.2 Q 183737.9 27843.7 184071.4 27307.2 Q 184303.4 26944.7 184303.4 25509.2 L 184303.4 19477.2 Q 184303.4 17809.7 184172.9 17374.7 Q 184042.4 16939.7 183730.65 16700.45 Q 183418.9 16461.2 183041.9 16461.2 Q 181794.9 16461.2 180721.9 18244.7 L 180721.9 25509.2 Q 180721.9 27031.7 181004.65 27437.7 Q 181287.4 27843.7 182055.9 27945.2 L 182055.9 28467.2 L 175197.4 28467.2 L 175197.4 27945.2 Q 176052.9 27858.2 176415.4 27394.2 Q 176661.9 27075.2 176661.9 25509.2 L 176661.9 17853.2 Q 176661.9 16316.2 176379.15 15939.2 Q 176096.4 15562.2 175197.4 15446.2 L 175197.4 14909.7 L 180721.9 14909.7 Z M 205487.8 14503.7 Q 207256.8 14503.7 208779.3 15417.2 Q 210301.8 16330.7 211092.05 18012.7 Q 211882.3 19694.7 211882.3 21695.7 Q 211882.3 24581.2 210417.8 26524.2 Q 208648.8 28873.2 205531.3 28873.2 Q 202471.8 28873.2 200818.8 26727.2 Q 199165.8 24581.2 199165.8 21753.7 Q 199165.8 18839.2 200855.05 16671.45 Q 202544.3 14503.7 205487.8 14503.7  Z M 205545.8 15533.2 Q 204806.3 15533.2 204277.05 16091.45 Q 203747.8 16649.7 203581.05 18295.45 Q 203414.3 19941.2 203414.3 22870.2 Q 203414.3 24421.7 203617.3 25770.2 Q 203776.8 26799.7 204298.8 27336.2 Q 204820.8 27872.7 205487.8 27872.7 Q 206140.3 27872.7 206575.3 27510.2 Q 207140.8 27017.2 207329.3 26132.7 Q 207619.3 24755.2 207619.3 20564.7 Q 207619.3 18099.7 207343.8 17178.95 Q 207068.3 16258.2 206531.8 15837.7 Q 206154.8 15533.2 205545.8 15533.2  Z M 219886.3 16330.7 L 219886.3 25741.2 Q 219886.3 27104.2 220176.3 27452.2 Q 220640.3 27988.7 221887.3 27945.2 L 221887.3 28467.2 L 213897.8 28467.2 L 213897.8 27945.2 Q 214811.3 27930.7 215195.55 27734.95 Q 215579.8 27539.2 215724.8 27191.2 Q 215869.8 26843.2 215869.8 25741.2 L 215869.8 16330.7 L 213897.8 16330.7 L 213897.8 14909.7 L 215869.8 14909.7 L 215869.8 13909.2 L 215855.3 13227.7 Q 215855.3 11139.7 217385.05 9747.7 Q 218914.8 8355.7 221524.8 8355.7 Q 223308.3 8355.7 224171.05 9022.7 Q 225033.8 9689.7 225033.8 10501.7 Q 225033.8 11154.2 224497.3 11632.7 Q 223960.8 12111.2 223076.3 12111.2 Q 222322.3 12111.2 221880.05 11719.7 Q 221437.8 11328.2 221437.8 10849.7 Q 221437.8 10719.2 221524.8 10313.2 Q 221582.8 10066.7 221582.8 9849.2 Q 221582.8 9544.7 221408.8 9399.7 Q 221176.8 9182.2 220843.3 9182.2 Q 220422.8 9182.2 220140.05 9530.2 Q 219857.3 9878.2 219857.3 10646.7 L 219886.3 13184.2 L 219886.3 14909.7 L 221887.3 14909.7 L 221887.3 16330.7 L 219886.3 16330.7 Z M 238409.9 9936.2 L 238409.9 18012.7 L 238975.4 18012.7 Q 240280.4 18012.7 241106.9 17621.2 Q 241933.4 17229.7 242506.15 16301.7 Q 243078.9 15373.7 243252.9 13793.2 L 243760.4 13793.2 L 243760.4 23667.7 L 243252.9 23667.7 Q 242977.4 20869.2 241752.15 19977.45 Q 240526.9 19085.7 238975.4 19085.7 L 238409.9 19085.7 L 238409.9 25103.2 Q 238409.9 26611.2 238576.65 26988.2 Q 238743.4 27365.2 239229.15 27647.95 Q 239714.9 27930.7 240541.4 27930.7 L 241193.9 27930.7 L 241193.9 28467.2 L 230913.4 28467.2 L 230913.4 27930.7 L 231565.9 27930.7 Q 232421.4 27930.7 232943.4 27626.2 Q 233320.4 27423.2 233523.4 26930.2 Q 233682.9 26582.2 233682.9 25103.2 L 233682.9 12169.2 Q 233682.9 10661.2 233523.4 10284.2 Q 233363.9 9907.2 232878.15 9624.45 Q 232392.4 9341.7 231565.9 9341.7 L 230913.4 9341.7 L 230913.4 8805.2 L 247501.4 8805.2 L 247501.4 14445.7 L 246906.9 14445.7 Q 246703.9 12459.2 245870.15 11502.2 Q 245036.4 10545.2 243455.9 10153.7 Q 242585.9 9936.2 240236.9 9936.2 L 238409.9 9936.2 Z M 262465.2 14909.7 L 262465.2 25523.7 Q 262465.2 27075.2 262755.2 27459.45 Q 263045.2 27843.7 263929.7 27945.2 L 263929.7 28467.2 L 258405.2 28467.2 L 258405.2 26654.7 Q 257433.7 27814.7 256462.2 28343.95 Q 255490.7 28873.2 254287.2 28873.2 Q 253141.7 28873.2 252249.95 28169.95 Q 251358.2 27466.7 251053.7 26524.2 Q 250749.2 25581.7 250749.2 23232.7 L 250749.2 17853.2 Q 250749.2 16316.2 250466.45 15939.2 Q 250183.7 15562.2 249284.7 15446.2 L 249284.7 14909.7 L 254809.2 14909.7 L 254809.2 24175.2 Q 254809.2 25625.2 254946.95 26045.7 Q 255084.7 26466.2 255381.95 26683.7 Q 255679.2 26901.2 256070.7 26901.2 Q 256592.7 26901.2 257013.2 26625.7 Q 257593.2 26248.7 258405.2 25103.2 L 258405.2 17853.2 Q 258405.2 16316.2 258122.45 15939.2 Q 257839.7 15562.2 256940.7 15446.2 L 256940.7 14909.7 L 262465.2 14909.7 Z M 274427.6 14532.7 L 274645.1 19158.2 L 274152.1 19158.2 Q 273267.6 17099.2 272317.85 16345.2 Q 271368.1 15591.2 270425.6 15591.2 Q 269831.1 15591.2 269410.6 15989.95 Q 268990.1 16388.7 268990.1 16910.7 Q 268990.1 17302.2 269280.1 17664.7 Q 269744.1 18259.2 271875.6 19701.95 Q 274007.1 21144.7 274681.35 22152.45 Q 275355.6 23160.2 275355.6 24407.2 Q 275355.6 25538.2 274790.1 26625.7 Q 274224.6 27713.2 273195.1 28293.2 Q 272165.6 28873.2 270918.6 28873.2 Q 269947.1 28873.2 268323.1 28264.2 Q 267888.1 28104.7 267728.6 28104.7 Q 267250.1 28104.7 266931.1 28829.7 L 266452.6 28829.7 L 266220.6 23957.7 L 266713.6 23957.7 Q 267366.1 25871.7 268504.35 26828.7 Q 269642.6 27785.7 270657.6 27785.7 Q 271353.6 27785.7 271795.85 27357.95 Q 272238.1 26930.2 272238.1 26321.2 Q 272238.1 25625.2 271803.1 25117.7 Q 271368.1 24610.2 269860.1 23580.7 Q 267641.6 22043.7 266989.1 21231.7 Q 266032.1 20042.7 266032.1 18607.2 Q 266032.1 17041.2 267112.35 15772.45 Q 268192.6 14503.7 270237.1 14503.7 Q 271339.1 14503.7 272368.6 15040.2 Q 272760.1 15257.7 273006.6 15257.7 Q 273267.6 15257.7 273427.1 15148.95 Q 273586.6 15040.2 273934.6 14532.7 L 274427.6 14532.7 Z M 284860.1 26466.2 Q 282380.6 28655.7 280408.6 28655.7 Q 279248.6 28655.7 278480.1 27894.45 Q 277711.6 27133.2 277711.6 25987.7 Q 277711.6 24436.2 279045.6 23196.45 Q 280379.6 21956.7 284860.1 19897.7 L 284860.1 18534.7 Q 284860.1 16997.7 284693.35 16598.95 Q 284526.6 16200.2 284062.6 15902.95 Q 283598.6 15605.7 283018.6 15605.7 Q 282076.1 15605.7 281467.1 16026.2 Q 281090.1 16287.2 281090.1 16635.2 Q 281090.1 16939.7 281496.1 17389.2 Q 282047.1 18012.7 282047.1 18592.7 Q 282047.1 19303.2 281517.85 19803.45 Q 280988.6 20303.7 280133.1 20303.7 Q 279219.6 20303.7 278603.35 19752.7 Q 277987.1 19201.7 277987.1 18462.2 Q 277987.1 17418.2 278813.6 16468.45 Q 279640.1 15518.7 281119.1 15011.2 Q 282598.1 14503.7 284193.1 14503.7 Q 286121.6 14503.7 287245.35 15322.95 Q 288369.1 16142.2 288702.6 17099.2 Q 288905.6 17708.2 288905.6 19897.7 L 288905.6 25161.2 Q 288905.6 26089.2 288978.1 26328.45 Q 289050.6 26567.7 289195.6 26683.7 Q 289340.6 26799.7 289529.1 26799.7 Q 289906.1 26799.7 290297.6 26263.2 L 290732.6 26611.2 Q 290007.6 27684.2 289231.85 28169.95 Q 288456.1 28655.7 287470.1 28655.7 Q 286310.1 28655.7 285657.6 28111.95 Q 285005.1 27568.2 284860.1 26466.2  Z M 284860.1 25407.7 L 284860.1 20869.2 Q 283105.6 21898.7 282250.1 23073.2 Q 281684.6 23856.2 281684.6 24653.7 Q 281684.6 25320.7 282163.1 25828.2 Q 282525.6 26219.7 283178.1 26219.7 Q 283903.1 26219.7 284860.1 25407.7  Z M 297852.1 14909.7 L 297852.1 17983.7 Q 299200.6 15881.2 300215.6 15192.45 Q 301230.6 14503.7 302173.1 14503.7 Q 302985.1 14503.7 303470.85 15003.95 Q 303956.6 15504.2 303956.6 16417.7 Q 303956.6 17389.2 303485.35 17925.7 Q 303014.1 18462.2 302347.1 18462.2 Q 301578.6 18462.2 301013.1 17969.2 Q 300447.6 17476.2 300346.1 17418.2 Q 300201.1 17331.2 300012.6 17331.2 Q 299592.1 17331.2 299215.1 17650.2 Q 298620.6 18143.2 298316.1 19056.7 Q 297852.1 20463.2 297852.1 22159.7 L 297852.1 25277.2 L 297866.6 26089.2 Q 297866.6 26915.7 297968.1 27147.7 Q 298142.1 27539.2 298482.85 27720.45 Q 298823.6 27901.7 299635.6 27945.2 L 299635.6 28467.2 L 292313.1 28467.2 L 292313.1 27945.2 Q 293197.6 27872.7 293509.35 27459.45 Q 293821.1 27046.2 293821.1 25277.2 L 293821.1 17780.7 Q 293821.1 16620.7 293705.1 16301.7 Q 293560.1 15895.7 293284.6 15707.2 Q 293009.1 15518.7 292313.1 15446.2 L 292313.1 14909.7 L 297852.1 14909.7 Z M 308647 8341.2 Q 309589.5 8341.2 310242 9000.95 Q 310894.5 9660.7 310894.5 10588.7 Q 310894.5 11516.7 310234.75 12169.2 Q 309575 12821.7 308647 12821.7 Q 307719 12821.7 307066.5 12169.2 Q 306414 11516.7 306414 10588.7 Q 306414 9660.7 307066.5 9000.95 Q 307719 8341.2 308647 8341.2  Z M 310677 14909.7 L 310677 25654.2 Q 310677 27089.7 311010.5 27488.45 Q 311344 27887.2 312315.5 27945.2 L 312315.5 28467.2 L 304993 28467.2 L 304993 27945.2 Q 305892 27916.2 306327 27423.2 Q 306617 27089.7 306617 25654.2 L 306617 17737.2 Q 306617 16301.7 306283.5 15902.95 Q 305950 15504.2 304993 15446.2 L 304993 14909.7 L 310677 14909.7 Z M 326721.2 14909.7 L 326721.2 25523.7 Q 326721.2 27075.2 327011.2 27459.45 Q 327301.2 27843.7 328185.7 27945.2 L 328185.7 28467.2 L 322661.2 28467.2 L 322661.2 26654.7 Q 321689.7 27814.7 320718.2 28343.95 Q 319746.7 28873.2 318543.2 28873.2 Q 317397.7 28873.2 316505.95 28169.95 Q 315614.2 27466.7 315309.7 26524.2 Q 315005.2 25581.7 315005.2 23232.7 L 315005.2 17853.2 Q 315005.2 16316.2 314722.45 15939.2 Q 314439.7 15562.2 313540.7 15446.2 L 313540.7 14909.7 L 319065.2 14909.7 L 319065.2 24175.2 Q 319065.2 25625.2 319202.95 26045.7 Q 319340.7 26466.2 319637.95 26683.7 Q 319935.2 26901.2 320326.7 26901.2 Q 320848.7 26901.2 321269.2 26625.7 Q 321849.2 26248.7 322661.2 25103.2 L 322661.2 17853.2 Q 322661.2 16316.2 322378.45 15939.2 Q 322095.7 15562.2 321196.7 15446.2 L 321196.7 14909.7 L 326721.2 14909.7 Z M 335740.1 14909.7 L 335740.1 16693.2 Q 336856.6 15475.2 337806.35 14989.45 Q 338756.1 14503.7 339887.1 14503.7 Q 341192.1 14503.7 342076.6 15112.7 Q 342961.1 15721.7 343439.6 16968.7 Q 344599.6 15663.7 345665.35 15083.7 Q 346731.1 14503.7 347891.1 14503.7 Q 349297.6 14503.7 350131.35 15148.95 Q 350965.1 15794.2 351291.35 16787.45 Q 351617.6 17780.7 351617.6 19955.7 L 351617.6 25509.2 Q 351617.6 27075.2 351900.35 27452.2 Q 352183.1 27829.2 353082.1 27945.2 L 353082.1 28467.2 L 346078.6 28467.2 L 346078.6 27945.2 Q 346905.1 27872.7 347296.6 27307.2 Q 347557.6 26915.7 347557.6 25509.2 L 347557.6 19680.2 Q 347557.6 17867.7 347412.6 17374.7 Q 347267.6 16881.7 346955.85 16642.45 Q 346644.1 16403.2 346223.6 16403.2 Q 345600.1 16403.2 344962.1 16859.95 Q 344324.1 17316.7 343671.6 18230.2 L 343671.6 25509.2 Q 343671.6 26973.7 343918.1 27350.7 Q 344251.6 27887.2 345194.1 27945.2 L 345194.1 28467.2 L 338176.1 28467.2 L 338176.1 27945.2 Q 338741.6 27916.2 339067.85 27662.45 Q 339394.1 27408.7 339502.85 27053.45 Q 339611.6 26698.2 339611.6 25509.2 L 339611.6 19680.2 Q 339611.6 17838.7 339466.6 17374.7 Q 339321.6 16910.7 338980.85 16649.7 Q 338640.1 16388.7 338248.6 16388.7 Q 337668.6 16388.7 337190.1 16693.2 Q 336508.6 17142.7 335740.1 18230.2 L 335740.1 25509.2 Q 335740.1 26944.7 336022.85 27401.45 Q 336305.6 27858.2 337204.6 27945.2 L 337204.6 28467.2 L 330215.6 28467.2 L 330215.6 27945.2 Q 331071.1 27858.2 331433.6 27394.2 Q 331680.1 27075.2 331680.1 25509.2 L 331680.1 17853.2 Q 331680.1 16316.2 331397.35 15939.2 Q 331114.6 15562.2 330215.6 15446.2 L 330215.6 14909.7 L 335740.1 14909.7 Z M 367806.7 14909.7 L 367806.7 16664.2 Q 368850.7 15533.2 369807.7 15018.45 Q 370764.7 14503.7 371866.7 14503.7 Q 373186.2 14503.7 374056.2 15235.95 Q 374926.2 15968.2 375216.2 17055.7 Q 375448.2 17882.2 375448.2 20231.2 L 375448.2 25509.2 Q 375448.2 27075.2 375730.95 27459.45 Q 376013.7 27843.7 376912.7 27945.2 L 376912.7 28467.2 L 370054.2 28467.2 L 370054.2 27945.2 Q 370822.7 27843.7 371156.2 27307.2 Q 371388.2 26944.7 371388.2 25509.2 L 371388.2 19477.2 Q 371388.2 17809.7 371257.7 17374.7 Q 371127.2 16939.7 370815.45 16700.45 Q 370503.7 16461.2 370126.7 16461.2 Q 368879.7 16461.2 367806.7 18244.7 L 367806.7 25509.2 Q 367806.7 27031.7 368089.45 27437.7 Q 368372.2 27843.7 369140.7 27945.2 L 369140.7 28467.2 L 362282.2 28467.2 L 362282.2 27945.2 Q 363137.7 27858.2 363500.2 27394.2 Q 363746.7 27075.2 363746.7 25509.2 L 363746.7 17853.2 Q 363746.7 16316.2 363463.95 15939.2 Q 363181.2 15562.2 362282.2 15446.2 L 362282.2 14909.7 L 367806.7 14909.7 Z M 382016.6 8341.2 Q 382959.1 8341.2 383611.6 9000.95 Q 384264.1 9660.7 384264.1 10588.7 Q 384264.1 11516.7 383604.35 12169.2 Q 382944.6 12821.7 382016.6 12821.7 Q 381088.6 12821.7 380436.1 12169.2 Q 379783.6 11516.7 379783.6 10588.7 Q 379783.6 9660.7 380436.1 9000.95 Q 381088.6 8341.2 382016.6 8341.2  Z M 384046.6 14909.7 L 384046.6 25654.2 Q 384046.6 27089.7 384380.1 27488.45 Q 384713.6 27887.2 385685.1 27945.2 L 385685.1 28467.2 L 378362.6 28467.2 L 378362.6 27945.2 Q 379261.6 27916.2 379696.6 27423.2 Q 379986.6 27089.7 379986.6 25654.2 L 379986.6 17737.2 Q 379986.6 16301.7 379653.1 15902.95 Q 379319.6 15504.2 378362.6 15446.2 L 378362.6 14909.7 L 384046.6 14909.7 Z M 398060.8 24972.7 L 398510.3 25320.7 Q 397553.3 27118.7 396125.05 27995.95 Q 394696.8 28873.2 393087.3 28873.2 Q 390375.8 28873.2 388751.8 26828.7 Q 387127.8 24784.2 387127.8 21913.2 Q 387127.8 19143.7 388606.8 17041.2 Q 390390.3 14503.7 393522.3 14503.7 Q 395624.8 14503.7 396864.55 15562.2 Q 398104.3 16620.7 398104.3 17925.7 Q 398104.3 18752.2 397604.05 19245.2 Q 397103.8 19738.2 396291.8 19738.2 Q 395436.3 19738.2 394878.05 19172.7 Q 394319.8 18607.2 394189.3 17157.2 Q 394102.3 16243.7 393768.8 15881.2 Q 393435.3 15518.7 392985.8 15518.7 Q 392289.8 15518.7 391796.8 16258.2 Q 391042.8 17374.7 391042.8 19680.2 Q 391042.8 21594.2 391651.8 23341.45 Q 392260.8 25088.7 393319.3 25944.2 Q 394116.8 26567.7 395204.3 26567.7 Q 395914.8 26567.7 396552.8 26234.2 Q 397190.8 25900.7 398060.8 24972.7  Z M 406550.2 14503.7 Q 408319.2 14503.7 409841.7 15417.2 Q 411364.2 16330.7 412154.45 18012.7 Q 412944.7 19694.7 412944.7 21695.7 Q 412944.7 24581.2 411480.2 26524.2 Q 409711.2 28873.2 406593.7 28873.2 Q 403534.2 28873.2 401881.2 26727.2 Q 400228.2 24581.2 400228.2 21753.7 Q 400228.2 18839.2 401917.45 16671.45 Q 403606.7 14503.7 406550.2 14503.7  Z M 406608.2 15533.2 Q 405868.7 15533.2 405339.45 16091.45 Q 404810.2 16649.7 404643.45 18295.45 Q 404476.7 19941.2 404476.7 22870.2 Q 404476.7 24421.7 404679.7 25770.2 Q 404839.2 26799.7 405361.2 27336.2 Q 405883.2 27872.7 406550.2 27872.7 Q 407202.7 27872.7 407637.7 27510.2 Q 408203.2 27017.2 408391.7 26132.7 Q 408681.7 24755.2 408681.7 20564.7 Q 408681.7 18099.7 408406.2 17178.95 Q 408130.7 16258.2 407594.2 15837.7 Q 407217.2 15533.2 406608.2 15533.2  Z M 420383.2 9950.7 L 420383.2 14909.7 L 423602.2 14909.7 L 423602.2 16345.2 L 420383.2 16345.2 L 420383.2 24711.7 Q 420383.2 25886.2 420491.95 26226.95 Q 420600.7 26567.7 420876.2 26777.95 Q 421151.7 26988.2 421383.7 26988.2 Q 422326.2 26988.2 423167.2 25552.7 L 423602.2 25871.7 Q 422427.7 28655.7 419788.7 28655.7 Q 418498.2 28655.7 417606.45 27937.95 Q 416714.7 27220.2 416468.2 26335.7 Q 416323.2 25842.7 416323.2 23667.7 L 416323.2 16345.2 L 414554.2 16345.2 L 414554.2 15837.7 Q 416381.2 14547.2 417664.45 13126.2 Q 418947.7 11705.2 419904.7 9950.7 L 420383.2 9950.7 Z M 428147.8 8341.2 Q 429090.3 8341.2 429742.8 9000.95 Q 430395.3 9660.7 430395.3 10588.7 Q 430395.3 11516.7 429735.55 12169.2 Q 429075.8 12821.7 428147.8 12821.7 Q 427219.8 12821.7 426567.3 12169.2 Q 425914.8 11516.7 425914.8 10588.7 Q 425914.8 9660.7 426567.3 9000.95 Q 427219.8 8341.2 428147.8 8341.2  Z M 430177.8 14909.7 L 430177.8 25654.2 Q 430177.8 27089.7 430511.3 27488.45 Q 430844.8 27887.2 431816.3 27945.2 L 431816.3 28467.2 L 424493.8 28467.2 L 424493.8 27945.2 Q 425392.8 27916.2 425827.8 27423.2 Q 426117.8 27089.7 426117.8 25654.2 L 426117.8 17737.2 Q 426117.8 16301.7 425784.3 15902.95 Q 425450.8 15504.2 424493.8 15446.2 L 424493.8 14909.7 L 430177.8 14909.7 Z M 440610.5 26466.2 Q 438131 28655.7 436159 28655.7 Q 434999 28655.7 434230.5 27894.45 Q 433462 27133.2 433462 25987.7 Q 433462 24436.2 434796 23196.45 Q 436130 21956.7 440610.5 19897.7 L 440610.5 18534.7 Q 440610.5 16997.7 440443.75 16598.95 Q 440277 16200.2 439813 15902.95 Q 439349 15605.7 438769 15605.7 Q 437826.5 15605.7 437217.5 16026.2 Q 436840.5 16287.2 436840.5 16635.2 Q 436840.5 16939.7 437246.5 17389.2 Q 437797.5 18012.7 437797.5 18592.7 Q 437797.5 19303.2 437268.25 19803.45 Q 436739 20303.7 435883.5 20303.7 Q 434970 20303.7 434353.75 19752.7 Q 433737.5 19201.7 433737.5 18462.2 Q 433737.5 17418.2 434564 16468.45 Q 435390.5 15518.7 436869.5 15011.2 Q 438348.5 14503.7 439943.5 14503.7 Q 441872 14503.7 442995.75 15322.95 Q 444119.5 16142.2 444453 17099.2 Q 444656 17708.2 444656 19897.7 L 444656 25161.2 Q 444656 26089.2 444728.5 26328.45 Q 444801 26567.7 444946 26683.7 Q 445091 26799.7 445279.5 26799.7 Q 445656.5 26799.7 446048 26263.2 L 446483 26611.2 Q 445758 27684.2 444982.25 28169.95 Q 444206.5 28655.7 443220.5 28655.7 Q 442060.5 28655.7 441408 28111.95 Q 440755.5 27568.2 440610.5 26466.2  Z M 440610.5 25407.7 L 440610.5 20869.2 Q 438856 21898.7 438000.5 23073.2 Q 437435 23856.2 437435 24653.7 Q 437435 25320.7 437913.5 25828.2 Q 438276 26219.7 438928.5 26219.7 Q 439653.5 26219.7 440610.5 25407.7  Z M 453515.5 14909.7 L 453515.5 16664.2 Q 454559.5 15533.2 455516.5 15018.45 Q 456473.5 14503.7 457575.5 14503.7 Q 458895 14503.7 459765 15235.95 Q 460635 15968.2 460925 17055.7 Q 461157 17882.2 461157 20231.2 L 461157 25509.2 Q 461157 27075.2 461439.75 27459.45 Q 461722.5 27843.7 462621.5 27945.2 L 462621.5 28467.2 L 455763 28467.2 L 455763 27945.2 Q 456531.5 27843.7 456865 27307.2 Q 457097 26944.7 457097 25509.2 L 457097 19477.2 Q 457097 17809.7 456966.5 17374.7 Q 456836 16939.7 456524.25 16700.45 Q 456212.5 16461.2 455835.5 16461.2 Q 454588.5 16461.2 453515.5 18244.7 L 453515.5 25509.2 Q 453515.5 27031.7 453798.25 27437.7 Q 454081 27843.7 454849.5 27945.2 L 454849.5 28467.2 L 447991 28467.2 L 447991 27945.2 Q 448846.5 27858.2 449209 27394.2 Q 449455.5 27075.2 449455.5 25509.2 L 449455.5 17853.2 Q 449455.5 16316.2 449172.75 15939.2 Q 448890 15562.2 447991 15446.2 L 447991 14909.7 L 453515.5 14909.7 Z M 471944.9 26466.2 Q 469465.4 28655.7 467493.4 28655.7 Q 466333.4 28655.7 465564.9 27894.45 Q 464796.4 27133.2 464796.4 25987.7 Q 464796.4 24436.2 466130.4 23196.45 Q 467464.4 21956.7 471944.9 19897.7 L 471944.9 18534.7 Q 471944.9 16997.7 471778.15 16598.95 Q 471611.4 16200.2 471147.4 15902.95 Q 470683.4 15605.7 470103.4 15605.7 Q 469160.9 15605.7 468551.9 16026.2 Q 468174.9 16287.2 468174.9 16635.2 Q 468174.9 16939.7 468580.9 17389.2 Q 469131.9 18012.7 469131.9 18592.7 Q 469131.9 19303.2 468602.65 19803.45 Q 468073.4 20303.7 467217.9 20303.7 Q 466304.4 20303.7 465688.15 19752.7 Q 465071.9 19201.7 465071.9 18462.2 Q 465071.9 17418.2 465898.4 16468.45 Q 466724.9 15518.7 468203.9 15011.2 Q 469682.9 14503.7 471277.9 14503.7 Q 473206.4 14503.7 474330.15 15322.95 Q 475453.9 16142.2 475787.4 17099.2 Q 475990.4 17708.2 475990.4 19897.7 L 475990.4 25161.2 Q 475990.4 26089.2 476062.9 26328.45 Q 476135.4 26567.7 476280.4 26683.7 Q 476425.4 26799.7 476613.9 26799.7 Q 476990.9 26799.7 477382.4 26263.2 L 477817.4 26611.2 Q 477092.4 27684.2 476316.65 28169.95 Q 475540.9 28655.7 474554.9 28655.7 Q 473394.9 28655.7 472742.4 28111.95 Q 472089.9 27568.2 471944.9 26466.2  Z M 471944.9 25407.7 L 471944.9 20869.2 Q 470190.4 21898.7 469334.9 23073.2 Q 468769.4 23856.2 468769.4 24653.7 Q 468769.4 25320.7 469247.9 25828.2 Q 469610.4 26219.7 470262.9 26219.7 Q 470987.9 26219.7 471944.9 25407.7  Z M 491244.4 34818.2 L 487213.4 34818.2 Q 487735.4 32918.7 487735.4 29453.2 L 487735.4 14851.7 Q 487735.4 12314.2 488184.9 11088.95 Q 488634.4 9863.7 489990.15 9109.7 Q 491345.9 8355.7 493607.9 8355.7 Q 496478.9 8355.7 497957.9 9602.7 Q 499436.9 10849.7 499436.9 12720.2 Q 499436.9 15228.7 496377.4 16664.2 Q 500234.4 18563.7 500234.4 22681.7 Q 500234.4 25204.7 498784.4 27038.95 Q 497334.4 28873.2 494811.4 28873.2 Q 493259.9 28873.2 491795.4 27727.7 L 491795.4 29917.2 Q 491795.4 32788.2 491244.4 34818.2  Z M 491795.4 26306.7 Q 492621.9 27481.2 493781.9 27481.2 Q 495014.4 27481.2 495601.65 26234.2 Q 496188.9 24987.2 496188.9 21840.7 Q 496188.9 18273.7 495130.4 17215.2 Q 494506.9 17563.2 493839.9 17563.2 Q 492636.4 17563.2 492636.4 16722.2 Q 492636.4 15895.7 493810.9 15895.7 Q 494535.9 15895.7 495130.4 16214.7 Q 495565.4 15025.7 495565.4 12952.2 Q 495565.4 10806.2 495144.9 10037.7 Q 494724.4 9269.2 493549.9 9269.2 Q 492563.9 9269.2 492179.65 9994.2 Q 491795.4 10719.2 491795.4 13140.7 L 491795.4 26306.7 Z M 510528.9 23145.7 L 502075.4 23145.7 L 502075.4 20144.2 L 510528.9 20144.2 L 510528.9 23145.7 Z M 517612 9950.7 L 517612 14909.7 L 520831 14909.7 L 520831 16345.2 L 517612 16345.2 L 517612 24711.7 Q 517612 25886.2 517720.75 26226.95 Q 517829.5 26567.7 518105 26777.95 Q 518380.5 26988.2 518612.5 26988.2 Q 519555 26988.2 520396 25552.7 L 520831 25871.7 Q 519656.5 28655.7 517017.5 28655.7 Q 515727 28655.7 514835.25 27937.95 Q 513943.5 27220.2 513697 26335.7 Q 513552 25842.7 513552 23667.7 L 513552 16345.2 L 511783 16345.2 L 511783 15837.7 Q 513610 14547.2 514893.25 13126.2 Q 516176.5 11705.2 517133.5 9950.7 L 517612 9950.7 Z M 535207.6 14909.7 L 535207.6 25523.7 Q 535207.6 27075.2 535497.6 27459.45 Q 535787.6 27843.7 536672.1 27945.2 L 536672.1 28467.2 L 531147.6 28467.2 L 531147.6 26654.7 Q 530176.1 27814.7 529204.6 28343.95 Q 528233.1 28873.2 527029.6 28873.2 Q 525884.1 28873.2 524992.35 28169.95 Q 524100.6 27466.7 523796.1 26524.2 Q 523491.6 25581.7 523491.6 23232.7 L 523491.6 17853.2 Q 523491.6 16316.2 523208.85 15939.2 Q 522926.1 15562.2 522027.1 15446.2 L 522027.1 14909.7 L 527551.6 14909.7 L 527551.6 24175.2 Q 527551.6 25625.2 527689.35 26045.7 Q 527827.1 26466.2 528124.35 26683.7 Q 528421.6 26901.2 528813.1 26901.2 Q 529335.1 26901.2 529755.6 26625.7 Q 530335.6 26248.7 531147.6 25103.2 L 531147.6 17853.2 Q 531147.6 16316.2 530864.85 15939.2 Q 530582.1 15562.2 529683.1 15446.2 L 529683.1 14909.7 L 535207.6 14909.7 Z M 543849.5 8805.2 L 543849.5 16272.7 Q 545560.5 14503.7 547590.5 14503.7 Q 548982.5 14503.7 550215 15322.95 Q 551447.5 16142.2 552143.5 17650.2 Q 552839.5 19158.2 552839.5 21130.2 Q 552839.5 23348.7 551955 25161.2 Q 551070.5 26973.7 549591.5 27923.45 Q 548112.5 28873.2 546213 28873.2 Q 545111 28873.2 544255.5 28525.2 Q 543400 28177.2 542573.5 27394.2 L 540326 28858.7 L 539833 28858.7 L 539833 11618.2 Q 539833 10443.7 539731.5 10168.2 Q 539586.5 9762.2 539274.75 9566.45 Q 538963 9370.7 538223.5 9341.7 L 538223.5 8805.2 L 543849.5 8805.2 Z M 543849.5 17563.2 L 543849.5 23595.2 Q 543849.5 25436.7 543936.5 25944.2 Q 544081.5 26799.7 544632.5 27328.95 Q 545183.5 27858.2 546039 27858.2 Q 546778.5 27858.2 547307.75 27437.7 Q 547837 27017.2 548192.25 25770.2 Q 548547.5 24523.2 548547.5 21275.2 Q 548547.5 18157.7 547764.5 16997.7 Q 547199 16156.7 546242 16156.7 Q 544995 16156.7 543849.5 17563.2  Z M 568180.4 14909.7 L 568180.4 25523.7 Q 568180.4 27075.2 568470.4 27459.45 Q 568760.4 27843.7 569644.9 27945.2 L 569644.9 28467.2 L 564120.4 28467.2 L 564120.4 26654.7 Q 563148.9 27814.7 562177.4 28343.95 Q 561205.9 28873.2 560002.4 28873.2 Q 558856.9 28873.2 557965.15 28169.95 Q 557073.4 27466.7 556768.9 26524.2 Q 556464.4 25581.7 556464.4 23232.7 L 556464.4 17853.2 Q 556464.4 16316.2 556181.65 15939.2 Q 555898.9 15562.2 554999.9 15446.2 L 554999.9 14909.7 L 560524.4 14909.7 L 560524.4 24175.2 Q 560524.4 25625.2 560662.15 26045.7 Q 560799.9 26466.2 561097.15 26683.7 Q 561394.4 26901.2 561785.9 26901.2 Q 562307.9 26901.2 562728.4 26625.7 Q 563308.4 26248.7 564120.4 25103.2 L 564120.4 17853.2 Q 564120.4 16316.2 563837.65 15939.2 Q 563554.9 15562.2 562655.9 15446.2 L 562655.9 14909.7 L 568180.4 14909.7 Z M 576880.3 8805.2 L 576880.3 25654.2 Q 576880.3 27089.7 577213.8 27488.45 Q 577547.3 27887.2 578518.8 27945.2 L 578518.8 28467.2 L 571196.3 28467.2 L 571196.3 27945.2 Q 572095.3 27916.2 572530.3 27423.2 Q 572820.3 27089.7 572820.3 25654.2 L 572820.3 11618.2 Q 572820.3 10197.2 572486.8 9798.45 Q 572153.3 9399.7 571196.3 9341.7 L 571196.3 8805.2 L 576880.3 8805.2 Z M 583079 8341.2 Q 584021.5 8341.2 584674 9000.95 Q 585326.5 9660.7 585326.5 10588.7 Q 585326.5 11516.7 584666.75 12169.2 Q 584007 12821.7 583079 12821.7 Q 582151 12821.7 581498.5 12169.2 Q 580846 11516.7 580846 10588.7 Q 580846 9660.7 581498.5 9000.95 Q 582151 8341.2 583079 8341.2  Z M 585109 14909.7 L 585109 25654.2 Q 585109 27089.7 585442.5 27488.45 Q 585776 27887.2 586747.5 27945.2 L 586747.5 28467.2 L 579425 28467.2 L 579425 27945.2 Q 580324 27916.2 580759 27423.2 Q 581049 27089.7 581049 25654.2 L 581049 17737.2 Q 581049 16301.7 580715.5 15902.95 Q 580382 15504.2 579425 15446.2 L 579425 14909.7 L 585109 14909.7 Z M 593598.7 14909.7 L 593598.7 16664.2 Q 594642.7 15533.2 595599.7 15018.45 Q 596556.7 14503.7 597658.7 14503.7 Q 598978.2 14503.7 599848.2 15235.95 Q 600718.2 15968.2 601008.2 17055.7 Q 601240.2 17882.2 601240.2 20231.2 L 601240.2 25509.2 Q 601240.2 27075.2 601522.95 27459.45 Q 601805.7 27843.7 602704.7 27945.2 L 602704.7 28467.2 L 595846.2 28467.2 L 595846.2 27945.2 Q 596614.7 27843.7 596948.2 27307.2 Q 597180.2 26944.7 597180.2 25509.2 L 597180.2 19477.2 Q 597180.2 17809.7 597049.7 17374.7 Q 596919.2 16939.7 596607.45 16700.45 Q 596295.7 16461.2 595918.7 16461.2 Q 594671.7 16461.2 593598.7 18244.7 L 593598.7 25509.2 Q 593598.7 27031.7 593881.45 27437.7 Q 594164.2 27843.7 594932.7 27945.2 L 594932.7 28467.2 L 588074.2 28467.2 L 588074.2 27945.2 Q 588929.7 27858.2 589292.2 27394.2 Q 589538.7 27075.2 589538.7 25509.2 L 589538.7 17853.2 Q 589538.7 16316.2 589255.95 15939.2 Q 588973.2 15562.2 588074.2 15446.2 L 588074.2 14909.7 L 593598.7 14909.7 Z M 620670.1 15069.2 L 625237.6 15069.2 L 625237.6 16664.2 L 622642.1 16664.2 Q 623352.6 17374.7 623628.1 17954.7 Q 623976.1 18737.7 623976.1 19593.2 Q 623976.1 21043.2 623171.35 22108.95 Q 622366.6 23174.7 620981.85 23776.45 Q 619597.1 24378.2 618524.1 24378.2 Q 618437.1 24378.2 616784.1 24305.7 Q 616131.6 24305.7 615689.35 24733.45 Q 615247.1 25161.2 615247.1 25755.7 Q 615247.1 26277.7 615645.85 26611.2 Q 616044.6 26944.7 616943.6 26944.7 L 619452.1 26915.7 Q 622497.1 26915.7 623642.6 27582.7 Q 625281.1 28510.7 625281.1 30439.2 Q 625281.1 31671.7 624527.1 32679.45 Q 623773.1 33687.2 622540.6 34165.7 Q 620670.1 34876.2 618234.1 34876.2 Q 616407.1 34876.2 614899.1 34520.95 Q 613391.1 34165.7 612738.6 33534.95 Q 612086.1 32904.2 612086.1 32208.2 Q 612086.1 31541.2 612586.35 31011.95 Q 613086.6 30482.7 614449.6 30120.2 Q 612564.6 29192.2 612564.6 27539.2 Q 612564.6 26538.7 613333.1 25596.2 Q 614101.6 24653.7 615769.1 23957.7 Q 613826.1 23247.2 612956.1 22087.2 Q 612086.1 20927.2 612086.1 19404.7 Q 612086.1 17418.2 613710.1 15960.95 Q 615334.1 14503.7 617886.1 14503.7 Q 619234.6 14503.7 620670.1 15069.2  Z M 618161.6 15402.7 Q 617320.6 15402.7 616740.6 16250.95 Q 616160.6 17099.2 616160.6 19767.2 Q 616160.6 21927.7 616733.35 22732.45 Q 617306.1 23537.2 618089.1 23537.2 Q 618959.1 23537.2 619539.1 22739.7 Q 620119.1 21942.2 620119.1 19636.7 Q 620119.1 17041.2 619466.6 16098.7 Q 619002.6 15402.7 618161.6 15402.7  Z M 617306.1 30468.2 Q 615827.1 30468.2 615348.6 30714.7 Q 614522.1 31164.2 614522.1 31932.7 Q 614522.1 32672.2 615377.6 33273.95 Q 616233.1 33875.7 618596.6 33875.7 Q 620612.1 33875.7 621764.85 33339.2 Q 622917.6 32802.7 622917.6 31831.2 Q 622917.6 31468.7 622700.1 31222.2 Q 622308.6 30787.2 621518.35 30627.7 Q 620728.1 30468.2 617306.1 30468.2  Z M 638302.1 21202.7 L 630863.6 21202.7 Q 630994.1 23899.7 632299.1 25465.7 Q 633299.6 26669.2 634706.1 26669.2 Q 635576.1 26669.2 636286.6 26183.45 Q 636997.1 25697.7 637809.1 24436.2 L 638302.1 24755.2 Q 637200.1 27002.7 635866.1 27937.95 Q 634532.1 28873.2 632777.6 28873.2 Q 629761.6 28873.2 628210.1 26553.2 Q 626963.1 24682.7 626963.1 21913.2 Q 626963.1 18520.2 628797.35 16511.95 Q 630631.6 14503.7 633096.6 14503.7 Q 635155.6 14503.7 636670.85 16192.95 Q 638186.1 17882.2 638302.1 21202.7  Z M 634735.1 20231.2 Q 634735.1 17896.7 634481.35 17026.7 Q 634227.6 16156.7 633691.1 15707.2 Q 633386.6 15446.2 632879.1 15446.2 Q 632125.1 15446.2 631646.6 16185.7 Q 630791.1 17476.2 630791.1 19723.7 L 630791.1 20231.2 L 634735.1 20231.2 Z M 645515.5 14909.7 L 645515.5 16664.2 Q 646559.5 15533.2 647516.5 15018.45 Q 648473.5 14503.7 649575.5 14503.7 Q 650895 14503.7 651765 15235.95 Q 652635 15968.2 652925 17055.7 Q 653157 17882.2 653157 20231.2 L 653157 25509.2 Q 653157 27075.2 653439.75 27459.45 Q 653722.5 27843.7 654621.5 27945.2 L 654621.5 28467.2 L 647763 28467.2 L 647763 27945.2 Q 648531.5 27843.7 648865 27307.2 Q 649097 26944.7 649097 25509.2 L 649097 19477.2 Q 649097 17809.7 648966.5 17374.7 Q 648836 16939.7 648524.25 16700.45 Q 648212.5 16461.2 647835.5 16461.2 Q 646588.5 16461.2 645515.5 18244.7 L 645515.5 25509.2 Q 645515.5 27031.7 645798.25 27437.7 Q 646081 27843.7 646849.5 27945.2 L 646849.5 28467.2 L 639991 28467.2 L 639991 27945.2 Q 640846.5 27858.2 641209 27394.2 Q 641455.5 27075.2 641455.5 25509.2 L 641455.5 17853.2 Q 641455.5 16316.2 641172.75 15939.2 Q 640890 15562.2 639991 15446.2 L 639991 14909.7 L 645515.5 14909.7 Z M 667946.9 21202.7 L 660508.4 21202.7 Q 660638.9 23899.7 661943.9 25465.7 Q 662944.4 26669.2 664350.9 26669.2 Q 665220.9 26669.2 665931.4 26183.45 Q 666641.9 25697.7 667453.9 24436.2 L 667946.9 24755.2 Q 666844.9 27002.7 665510.9 27937.95 Q 664176.9 28873.2 662422.4 28873.2 Q 659406.4 28873.2 657854.9 26553.2 Q 656607.9 24682.7 656607.9 21913.2 Q 656607.9 18520.2 658442.15 16511.95 Q 660276.4 14503.7 662741.4 14503.7 Q 664800.4 14503.7 666315.65 16192.95 Q 667830.9 17882.2 667946.9 21202.7  Z M 664379.9 20231.2 Q 664379.9 17896.7 664126.15 17026.7 Q 663872.4 16156.7 663335.9 15707.2 Q 663031.4 15446.2 662523.9 15446.2 Q 661769.9 15446.2 661291.4 16185.7 Q 660435.9 17476.2 660435.9 19723.7 L 660435.9 20231.2 L 664379.9 20231.2 Z M 16142 47728.9 L 16142 58342.9 Q 16142 59894.4 16432 60278.65 Q 16722 60662.9 17606.5 60764.4 L 17606.5 61286.4 L 12082 61286.4 L 12082 59473.9 Q 11110.5 60633.9 10139 61163.15 Q 9167.5 61692.4 7964 61692.4 Q 6818.5 61692.4 5926.75 60989.15 Q 5035 60285.9 4730.5 59343.4 Q 4426 58400.9 4426 56051.9 L 4426 50672.4 Q 4426 49135.4 4143.25 48758.4 Q 3860.5 48381.4 2961.5 48265.4 L 2961.5 47728.9 L 8486 47728.9 L 8486 56994.4 Q 8486 58444.4 8623.75 58864.9 Q 8761.5 59285.4 9058.75 59502.9 Q 9356 59720.4 9747.5 59720.4 Q 10269.5 59720.4 10690 59444.9 Q 11270 59067.9 12082 57922.4 L 12082 50672.4 Q 12082 49135.4 11799.25 48758.4 Q 11516.5 48381.4 10617.5 48265.4 L 10617.5 47728.9 L 16142 47728.9 Z M 28104.4 47351.9 L 28321.9 51977.4 L 27828.9 51977.4 Q 26944.4 49918.4 25994.65 49164.4 Q 25044.9 48410.4 24102.4 48410.4 Q 23507.9 48410.4 23087.4 48809.15 Q 22666.9 49207.9 22666.9 49729.9 Q 22666.9 50121.4 22956.9 50483.9 Q 23420.9 51078.4 25552.4 52521.15 Q 27683.9 53963.9 28358.15 54971.65 Q 29032.4 55979.4 29032.4 57226.4 Q 29032.4 58357.4 28466.9 59444.9 Q 27901.4 60532.4 26871.9 61112.4 Q 25842.4 61692.4 24595.4 61692.4 Q 23623.9 61692.4 21999.9 61083.4 Q 21564.9 60923.9 21405.4 60923.9 Q 20926.9 60923.9 20607.9 61648.9 L 20129.4 61648.9 L 19897.4 56776.9 L 20390.4 56776.9 Q 21042.9 58690.9 22181.15 59647.9 Q 23319.4 60604.9 24334.4 60604.9 Q 25030.4 60604.9 25472.65 60177.15 Q 25914.9 59749.4 25914.9 59140.4 Q 25914.9 58444.4 25479.9 57936.9 Q 25044.9 57429.4 23536.9 56399.9 Q 21318.4 54862.9 20665.9 54050.9 Q 19708.9 52861.9 19708.9 51426.4 Q 19708.9 49860.4 20789.15 48591.65 Q 21869.4 47322.9 23913.9 47322.9 Q 25015.9 47322.9 26045.4 47859.4 Q 26436.9 48076.9 26683.4 48076.9 Q 26944.4 48076.9 27103.9 47968.15 Q 27263.4 47859.4 27611.4 47351.9 L 28104.4 47351.9 Z M 34317.4 41160.4 Q 35259.9 41160.4 35912.4 41820.15 Q 36564.9 42479.9 36564.9 43407.9 Q 36564.9 44335.9 35905.15 44988.4 Q 35245.4 45640.9 34317.4 45640.9 Q 33389.4 45640.9 32736.9 44988.4 Q 32084.4 44335.9 32084.4 43407.9 Q 32084.4 42479.9 32736.9 41820.15 Q 33389.4 41160.4 34317.4 41160.4  Z M 36347.4 47728.9 L 36347.4 58473.4 Q 36347.4 59908.9 36680.9 60307.65 Q 37014.4 60706.4 37985.9 60764.4 L 37985.9 61286.4 L 30663.4 61286.4 L 30663.4 60764.4 Q 31562.4 60735.4 31997.4 60242.4 Q 32287.4 59908.9 32287.4 58473.4 L 32287.4 50556.4 Q 32287.4 49120.9 31953.9 48722.15 Q 31620.4 48323.4 30663.4 48265.4 L 30663.4 47728.9 L 36347.4 47728.9 Z M 44837.1 47728.9 L 44837.1 49483.4 Q 45881.1 48352.4 46838.1 47837.65 Q 47795.1 47322.9 48897.1 47322.9 Q 50216.6 47322.9 51086.6 48055.15 Q 51956.6 48787.4 52246.6 49874.9 Q 52478.6 50701.4 52478.6 53050.4 L 52478.6 58328.4 Q 52478.6 59894.4 52761.35 60278.65 Q 53044.1 60662.9 53943.1 60764.4 L 53943.1 61286.4 L 47084.6 61286.4 L 47084.6 60764.4 Q 47853.1 60662.9 48186.6 60126.4 Q 48418.6 59763.9 48418.6 58328.4 L 48418.6 52296.4 Q 48418.6 50628.9 48288.1 50193.9 Q 48157.6 49758.9 47845.85 49519.65 Q 47534.1 49280.4 47157.1 49280.4 Q 45910.1 49280.4 44837.1 51063.9 L 44837.1 58328.4 Q 44837.1 59850.9 45119.85 60256.9 Q 45402.6 60662.9 46171.1 60764.4 L 46171.1 61286.4 L 39312.6 61286.4 L 39312.6 60764.4 Q 40168.1 60677.4 40530.6 60213.4 Q 40777.1 59894.4 40777.1 58328.4 L 40777.1 50672.4 Q 40777.1 49135.4 40494.35 48758.4 Q 40211.6 48381.4 39312.6 48265.4 L 39312.6 47728.9 L 44837.1 47728.9 Z M 64484.5 47888.4 L 69052 47888.4 L 69052 49483.4 L 66456.5 49483.4 Q 67167 50193.9 67442.5 50773.9 Q 67790.5 51556.9 67790.5 52412.4 Q 67790.5 53862.4 66985.75 54928.15 Q 66181 55993.9 64796.25 56595.65 Q 63411.5 57197.4 62338.5 57197.4 Q 62251.5 57197.4 60598.5 57124.9 Q 59946 57124.9 59503.75 57552.65 Q 59061.5 57980.4 59061.5 58574.9 Q 59061.5 59096.9 59460.25 59430.4 Q 59859 59763.9 60758 59763.9 L 63266.5 59734.9 Q 66311.5 59734.9 67457 60401.9 Q 69095.5 61329.9 69095.5 63258.4 Q 69095.5 64490.9 68341.5 65498.65 Q 67587.5 66506.4 66355 66984.9 Q 64484.5 67695.4 62048.5 67695.4 Q 60221.5 67695.4 58713.5 67340.15 Q 57205.5 66984.9 56553 66354.15 Q 55900.5 65723.4 55900.5 65027.4 Q 55900.5 64360.4 56400.75 63831.15 Q 56901 63301.9 58264 62939.4 Q 56379 62011.4 56379 60358.4 Q 56379 59357.9 57147.5 58415.4 Q 57916 57472.9 59583.5 56776.9 Q 57640.5 56066.4 56770.5 54906.4 Q 55900.5 53746.4 55900.5 52223.9 Q 55900.5 50237.4 57524.5 48780.15 Q 59148.5 47322.9 61700.5 47322.9 Q 63049 47322.9 64484.5 47888.4  Z M 61976 48221.9 Q 61135 48221.9 60555 49070.15 Q 59975 49918.4 59975 52586.4 Q 59975 54746.9 60547.75 55551.65 Q 61120.5 56356.4 61903.5 56356.4 Q 62773.5 56356.4 63353.5 55558.9 Q 63933.5 54761.4 63933.5 52455.9 Q 63933.5 49860.4 63281 48917.9 Q 62817 48221.9 61976 48221.9  Z M 61120.5 63287.4 Q 59641.5 63287.4 59163 63533.9 Q 58336.5 63983.4 58336.5 64751.9 Q 58336.5 65491.4 59192 66093.15 Q 60047.5 66694.9 62411 66694.9 Q 64426.5 66694.9 65579.25 66158.4 Q 66732 65621.9 66732 64650.4 Q 66732 64287.9 66514.5 64041.4 Q 66123 63606.4 65332.75 63446.9 Q 64542.5 63287.4 61120.5 63287.4  Z M 83682.5 47728.9 L 83682.5 50802.9 Q 85031 48700.4 86046 48011.65 Q 87061 47322.9 88003.5 47322.9 Q 88815.5 47322.9 89301.25 47823.15 Q 89787 48323.4 89787 49236.9 Q 89787 50208.4 89315.75 50744.9 Q 88844.5 51281.4 88177.5 51281.4 Q 87409 51281.4 86843.5 50788.4 Q 86278 50295.4 86176.5 50237.4 Q 86031.5 50150.4 85843 50150.4 Q 85422.5 50150.4 85045.5 50469.4 Q 84451 50962.4 84146.5 51875.9 Q 83682.5 53282.4 83682.5 54978.9 L 83682.5 58096.4 L 83697 58908.4 Q 83697 59734.9 83798.5 59966.9 Q 83972.5 60358.4 84313.25 60539.65 Q 84654 60720.9 85466 60764.4 L 85466 61286.4 L 78143.5 61286.4 L 78143.5 60764.4 Q 79028 60691.9 79339.75 60278.65 Q 79651.5 59865.4 79651.5 58096.4 L 79651.5 50599.9 Q 79651.5 49439.9 79535.5 49120.9 Q 79390.5 48714.9 79115 48526.4 Q 78839.5 48337.9 78143.5 48265.4 L 78143.5 47728.9 L 83682.5 47728.9 Z M 102698.9 54021.9 L 95260.4 54021.9 Q 95390.9 56718.9 96695.9 58284.9 Q 97696.4 59488.4 99102.9 59488.4 Q 99972.9 59488.4 100683.4 59002.65 Q 101393.9 58516.9 102205.9 57255.4 L 102698.9 57574.4 Q 101596.9 59821.9 100262.9 60757.15 Q 98928.9 61692.4 97174.4 61692.4 Q 94158.4 61692.4 92606.9 59372.4 Q 91359.9 57501.9 91359.9 54732.4 Q 91359.9 51339.4 93194.15 49331.15 Q 95028.4 47322.9 97493.4 47322.9 Q 99552.4 47322.9 101067.65 49012.15 Q 102582.9 50701.4 102698.9 54021.9  Z M 99131.9 53050.4 Q 99131.9 50715.9 98878.15 49845.9 Q 98624.4 48975.9 98087.9 48526.4 Q 97783.4 48265.4 97275.9 48265.4 Q 96521.9 48265.4 96043.4 49004.9 Q 95187.9 50295.4 95187.9 52542.9 L 95187.9 53050.4 L 99131.9 53050.4 Z M 111855.3 59285.4 Q 109375.8 61474.9 107403.8 61474.9 Q 106243.8 61474.9 105475.3 60713.65 Q 104706.8 59952.4 104706.8 58806.9 Q 104706.8 57255.4 106040.8 56015.65 Q 107374.8 54775.9 111855.3 52716.9 L 111855.3 51353.9 Q 111855.3 49816.9 111688.55 49418.15 Q 111521.8 49019.4 111057.8 48722.15 Q 110593.8 48424.9 110013.8 48424.9 Q 109071.3 48424.9 108462.3 48845.4 Q 108085.3 49106.4 108085.3 49454.4 Q 108085.3 49758.9 108491.3 50208.4 Q 109042.3 50831.9 109042.3 51411.9 Q 109042.3 52122.4 108513.05 52622.65 Q 107983.8 53122.9 107128.3 53122.9 Q 106214.8 53122.9 105598.55 52571.9 Q 104982.3 52020.9 104982.3 51281.4 Q 104982.3 50237.4 105808.8 49287.65 Q 106635.3 48337.9 108114.3 47830.4 Q 109593.3 47322.9 111188.3 47322.9 Q 113116.8 47322.9 114240.55 48142.15 Q 115364.3 48961.4 115697.8 49918.4 Q 115900.8 50527.4 115900.8 52716.9 L 115900.8 57980.4 Q 115900.8 58908.4 115973.3 59147.65 Q 116045.8 59386.9 116190.8 59502.9 Q 116335.8 59618.9 116524.3 59618.9 Q 116901.3 59618.9 117292.8 59082.4 L 117727.8 59430.4 Q 117002.8 60503.4 116227.05 60989.15 Q 115451.3 61474.9 114465.3 61474.9 Q 113305.3 61474.9 112652.8 60931.15 Q 112000.3 60387.4 111855.3 59285.4  Z M 111855.3 58226.9 L 111855.3 53688.4 Q 110100.8 54717.9 109245.3 55892.4 Q 108679.8 56675.4 108679.8 57472.9 Q 108679.8 58139.9 109158.3 58647.4 Q 109520.8 59038.9 110173.3 59038.9 Q 110898.3 59038.9 111855.3 58226.9  Z M 124528.3 41624.4 L 124528.3 58473.4 Q 124528.3 59908.9 124861.8 60307.65 Q 125195.3 60706.4 126166.8 60764.4 L 126166.8 61286.4 L 118844.3 61286.4 L 118844.3 60764.4 Q 119743.3 60735.4 120178.3 60242.4 Q 120468.3 59908.9 120468.3 58473.4 L 120468.3 44437.4 Q 120468.3 43016.4 120134.8 42617.65 Q 119801.3 42218.9 118844.3 42160.9 L 118844.3 41624.4 L 124528.3 41624.4 Z M 135642.5 55964.9 L 127189 55964.9 L 127189 52963.4 L 135642.5 52963.4 L 135642.5 55964.9 Z M 142725.6 42769.9 L 142725.6 47728.9 L 145944.6 47728.9 L 145944.6 49164.4 L 142725.6 49164.4 L 142725.6 57530.9 Q 142725.6 58705.4 142834.35 59046.15 Q 142943.1 59386.9 143218.6 59597.15 Q 143494.1 59807.4 143726.1 59807.4 Q 144668.6 59807.4 145509.6 58371.9 L 145944.6 58690.9 Q 144770.1 61474.9 142131.1 61474.9 Q 140840.6 61474.9 139948.85 60757.15 Q 139057.1 60039.4 138810.6 59154.9 Q 138665.6 58661.9 138665.6 56486.9 L 138665.6 49164.4 L 136896.6 49164.4 L 136896.6 48656.9 Q 138723.6 47366.4 140006.85 45945.4 Q 141290.1 44524.4 142247.1 42769.9 L 142725.6 42769.9 Z M 150490.2 41160.4 Q 151432.7 41160.4 152085.2 41820.15 Q 152737.7 42479.9 152737.7 43407.9 Q 152737.7 44335.9 152077.95 44988.4 Q 151418.2 45640.9 150490.2 45640.9 Q 149562.2 45640.9 148909.7 44988.4 Q 148257.2 44335.9 148257.2 43407.9 Q 148257.2 42479.9 148909.7 41820.15 Q 149562.2 41160.4 150490.2 41160.4  Z M 152520.2 47728.9 L 152520.2 58473.4 Q 152520.2 59908.9 152853.7 60307.65 Q 153187.2 60706.4 154158.7 60764.4 L 154158.7 61286.4 L 146836.2 61286.4 L 146836.2 60764.4 Q 147735.2 60735.4 148170.2 60242.4 Q 148460.2 59908.9 148460.2 58473.4 L 148460.2 50556.4 Q 148460.2 49120.9 148126.7 48722.15 Q 147793.2 48323.4 146836.2 48265.4 L 146836.2 47728.9 L 152520.2 47728.9 Z M 161096.9 47728.9 L 161096.9 49512.4 Q 162213.4 48294.4 163163.15 47808.65 Q 164112.9 47322.9 165243.9 47322.9 Q 166548.9 47322.9 167433.4 47931.9 Q 168317.9 48540.9 168796.4 49787.9 Q 169956.4 48482.9 171022.15 47902.9 Q 172087.9 47322.9 173247.9 47322.9 Q 174654.4 47322.9 175488.15 47968.15 Q 176321.9 48613.4 176648.15 49606.65 Q 176974.4 50599.9 176974.4 52774.9 L 176974.4 58328.4 Q 176974.4 59894.4 177257.15 60271.4 Q 177539.9 60648.4 178438.9 60764.4 L 178438.9 61286.4 L 171435.4 61286.4 L 171435.4 60764.4 Q 172261.9 60691.9 172653.4 60126.4 Q 172914.4 59734.9 172914.4 58328.4 L 172914.4 52499.4 Q 172914.4 50686.9 172769.4 50193.9 Q 172624.4 49700.9 172312.65 49461.65 Q 172000.9 49222.4 171580.4 49222.4 Q 170956.9 49222.4 170318.9 49679.15 Q 169680.9 50135.9 169028.4 51049.4 L 169028.4 58328.4 Q 169028.4 59792.9 169274.9 60169.9 Q 169608.4 60706.4 170550.9 60764.4 L 170550.9 61286.4 L 163532.9 61286.4 L 163532.9 60764.4 Q 164098.4 60735.4 164424.65 60481.65 Q 164750.9 60227.9 164859.65 59872.65 Q 164968.4 59517.4 164968.4 58328.4 L 164968.4 52499.4 Q 164968.4 50657.9 164823.4 50193.9 Q 164678.4 49729.9 164337.65 49468.9 Q 163996.9 49207.9 163605.4 49207.9 Q 163025.4 49207.9 162546.9 49512.4 Q 161865.4 49961.9 161096.9 51049.4 L 161096.9 58328.4 Q 161096.9 59763.9 161379.65 60220.65 Q 161662.4 60677.4 162561.4 60764.4 L 162561.4 61286.4 L 155572.4 61286.4 L 155572.4 60764.4 Q 156427.9 60677.4 156790.4 60213.4 Q 157036.9 59894.4 157036.9 58328.4 L 157036.9 50672.4 Q 157036.9 49135.4 156754.15 48758.4 Q 156471.4 48381.4 155572.4 48265.4 L 155572.4 47728.9 L 161096.9 47728.9 Z M 191684.5 54021.9 L 184246 54021.9 Q 184376.5 56718.9 185681.5 58284.9 Q 186682 59488.4 188088.5 59488.4 Q 188958.5 59488.4 189669 59002.65 Q 190379.5 58516.9 191191.5 57255.4 L 191684.5 57574.4 Q 190582.5 59821.9 189248.5 60757.15 Q 187914.5 61692.4 186160 61692.4 Q 183144 61692.4 181592.5 59372.4 Q 180345.5 57501.9 180345.5 54732.4 Q 180345.5 51339.4 182179.75 49331.15 Q 184014 47322.9 186479 47322.9 Q 188538 47322.9 190053.25 49012.15 Q 191568.5 50701.4 191684.5 54021.9  Z M 188117.5 53050.4 Q 188117.5 50715.9 187863.75 49845.9 Q 187610 48975.9 187073.5 48526.4 Q 186769 48265.4 186261.5 48265.4 Q 185507.5 48265.4 185029 49004.9 Q 184173.5 50295.4 184173.5 52542.9 L 184173.5 53050.4 L 188117.5 53050.4 Z M 209888.9 59865.4 Q 209004.4 60793.4 208235.9 61170.4 Q 207220.9 61692.4 206118.9 61692.4 Q 203566.9 61692.4 202087.9 59415.9 Q 200913.4 57603.4 200913.4 55080.4 Q 200913.4 52977.9 201805.15 51129.15 Q 202696.9 49280.4 204255.65 48301.65 Q 205814.4 47322.9 207554.4 47322.9 Q 208714.4 47322.9 209620.65 47714.4 Q 210526.9 48105.9 211179.4 48903.4 L 213455.9 47322.9 L 213948.9 47322.9 L 213948.9 64882.4 Q 213948.9 66216.4 214180.9 66549.9 Q 214557.9 67086.4 215703.4 67100.9 L 215703.4 67637.4 L 207873.4 67637.4 L 207873.4 67100.9 Q 208772.4 67100.9 209178.4 66897.9 Q 209584.4 66694.9 209736.65 66361.4 Q 209888.9 66027.9 209888.9 64998.4 L 209888.9 59865.4 Z M 209888.9 58545.9 L 209888.9 52963.4 Q 209888.9 50628.9 209635.15 49874.9 Q 209381.4 49120.9 208699.9 48569.9 Q 208351.9 48294.4 207815.4 48294.4 Q 206713.4 48294.4 206104.4 49265.9 Q 205147.4 50759.4 205147.4 54819.4 Q 205147.4 57936.9 205973.9 59198.4 Q 206539.4 60053.9 207438.4 60053.9 Q 207960.4 60053.9 208620.15 59691.4 Q 209279.9 59328.9 209888.9 58545.9  Z M 230362.8 47728.9 L 230362.8 58342.9 Q 230362.8 59894.4 230652.8 60278.65 Q 230942.8 60662.9 231827.3 60764.4 L 231827.3 61286.4 L 226302.8 61286.4 L 226302.8 59473.9 Q 225331.3 60633.9 224359.8 61163.15 Q 223388.3 61692.4 222184.8 61692.4 Q 221039.3 61692.4 220147.55 60989.15 Q 219255.8 60285.9 218951.3 59343.4 Q 218646.8 58400.9 218646.8 56051.9 L 218646.8 50672.4 Q 218646.8 49135.4 218364.05 48758.4 Q 218081.3 48381.4 217182.3 48265.4 L 217182.3 47728.9 L 222706.8 47728.9 L 222706.8 56994.4 Q 222706.8 58444.4 222844.55 58864.9 Q 222982.3 59285.4 223279.55 59502.9 Q 223576.8 59720.4 223968.3 59720.4 Q 224490.3 59720.4 224910.8 59444.9 Q 225490.8 59067.9 226302.8 57922.4 L 226302.8 50672.4 Q 226302.8 49135.4 226020.05 48758.4 Q 225737.3 48381.4 224838.3 48265.4 L 224838.3 47728.9 L 230362.8 47728.9 Z M 241237.7 59285.4 Q 238758.2 61474.9 236786.2 61474.9 Q 235626.2 61474.9 234857.7 60713.65 Q 234089.2 59952.4 234089.2 58806.9 Q 234089.2 57255.4 235423.2 56015.65 Q 236757.2 54775.9 241237.7 52716.9 L 241237.7 51353.9 Q 241237.7 49816.9 241070.95 49418.15 Q 240904.2 49019.4 240440.2 48722.15 Q 239976.2 48424.9 239396.2 48424.9 Q 238453.7 48424.9 237844.7 48845.4 Q 237467.7 49106.4 237467.7 49454.4 Q 237467.7 49758.9 237873.7 50208.4 Q 238424.7 50831.9 238424.7 51411.9 Q 238424.7 52122.4 237895.45 52622.65 Q 237366.2 53122.9 236510.7 53122.9 Q 235597.2 53122.9 234980.95 52571.9 Q 234364.7 52020.9 234364.7 51281.4 Q 234364.7 50237.4 235191.2 49287.65 Q 236017.7 48337.9 237496.7 47830.4 Q 238975.7 47322.9 240570.7 47322.9 Q 242499.2 47322.9 243622.95 48142.15 Q 244746.7 48961.4 245080.2 49918.4 Q 245283.2 50527.4 245283.2 52716.9 L 245283.2 57980.4 Q 245283.2 58908.4 245355.7 59147.65 Q 245428.2 59386.9 245573.2 59502.9 Q 245718.2 59618.9 245906.7 59618.9 Q 246283.7 59618.9 246675.2 59082.4 L 247110.2 59430.4 Q 246385.2 60503.4 245609.45 60989.15 Q 244833.7 61474.9 243847.7 61474.9 Q 242687.7 61474.9 242035.2 60931.15 Q 241382.7 60387.4 241237.7 59285.4  Z M 241237.7 58226.9 L 241237.7 53688.4 Q 239483.2 54717.9 238627.7 55892.4 Q 238062.2 56675.4 238062.2 57472.9 Q 238062.2 58139.9 238540.7 58647.4 Q 238903.2 59038.9 239555.7 59038.9 Q 240280.7 59038.9 241237.7 58226.9  Z M 254142.7 47728.9 L 254142.7 49483.4 Q 255186.7 48352.4 256143.7 47837.65 Q 257100.7 47322.9 258202.7 47322.9 Q 259522.2 47322.9 260392.2 48055.15 Q 261262.2 48787.4 261552.2 49874.9 Q 261784.2 50701.4 261784.2 53050.4 L 261784.2 58328.4 Q 261784.2 59894.4 262066.95 60278.65 Q 262349.7 60662.9 263248.7 60764.4 L 263248.7 61286.4 L 256390.2 61286.4 L 256390.2 60764.4 Q 257158.7 60662.9 257492.2 60126.4 Q 257724.2 59763.9 257724.2 58328.4 L 257724.2 52296.4 Q 257724.2 50628.9 257593.7 50193.9 Q 257463.2 49758.9 257151.45 49519.65 Q 256839.7 49280.4 256462.7 49280.4 Q 255215.7 49280.4 254142.7 51063.9 L 254142.7 58328.4 Q 254142.7 59850.9 254425.45 60256.9 Q 254708.2 60662.9 255476.7 60764.4 L 255476.7 61286.4 L 248618.2 61286.4 L 248618.2 60764.4 Q 249473.7 60677.4 249836.2 60213.4 Q 250082.7 59894.4 250082.7 58328.4 L 250082.7 50672.4 Q 250082.7 49135.4 249799.95 48758.4 Q 249517.2 48381.4 248618.2 48265.4 L 248618.2 47728.9 L 254142.7 47728.9 Z M 270469.6 42769.9 L 270469.6 47728.9 L 273688.6 47728.9 L 273688.6 49164.4 L 270469.6 49164.4 L 270469.6 57530.9 Q 270469.6 58705.4 270578.35 59046.15 Q 270687.1 59386.9 270962.6 59597.15 Q 271238.1 59807.4 271470.1 59807.4 Q 272412.6 59807.4 273253.6 58371.9 L 273688.6 58690.9 Q 272514.1 61474.9 269875.1 61474.9 Q 268584.6 61474.9 267692.85 60757.15 Q 266801.1 60039.4 266554.6 59154.9 Q 266409.6 58661.9 266409.6 56486.9 L 266409.6 49164.4 L 264640.6 49164.4 L 264640.6 48656.9 Q 266467.6 47366.4 267750.85 45945.4 Q 269034.1 44524.4 269991.1 42769.9 L 270469.6 42769.9 Z M 278234.2 41160.4 Q 279176.7 41160.4 279829.2 41820.15 Q 280481.7 42479.9 280481.7 43407.9 Q 280481.7 44335.9 279821.95 44988.4 Q 279162.2 45640.9 278234.2 45640.9 Q 277306.2 45640.9 276653.7 44988.4 Q 276001.2 44335.9 276001.2 43407.9 Q 276001.2 42479.9 276653.7 41820.15 Q 277306.2 41160.4 278234.2 41160.4  Z M 280264.2 47728.9 L 280264.2 58473.4 Q 280264.2 59908.9 280597.7 60307.65 Q 280931.2 60706.4 281902.7 60764.4 L 281902.7 61286.4 L 274580.2 61286.4 L 274580.2 60764.4 Q 275479.2 60735.4 275914.2 60242.4 Q 276204.2 59908.9 276204.2 58473.4 L 276204.2 50556.4 Q 276204.2 49120.9 275870.7 48722.15 Q 275537.2 48323.4 274580.2 48265.4 L 274580.2 47728.9 L 280264.2 47728.9 Z M 288594.4 42769.9 L 288594.4 47728.9 L 291813.4 47728.9 L 291813.4 49164.4 L 288594.4 49164.4 L 288594.4 57530.9 Q 288594.4 58705.4 288703.15 59046.15 Q 288811.9 59386.9 289087.4 59597.15 Q 289362.9 59807.4 289594.9 59807.4 Q 290537.4 59807.4 291378.4 58371.9 L 291813.4 58690.9 Q 290638.9 61474.9 287999.9 61474.9 Q 286709.4 61474.9 285817.65 60757.15 Q 284925.9 60039.4 284679.4 59154.9 Q 284534.4 58661.9 284534.4 56486.9 L 284534.4 49164.4 L 282765.4 49164.4 L 282765.4 48656.9 Q 284592.4 47366.4 285875.65 45945.4 Q 287158.9 44524.4 288115.9 42769.9 L 288594.4 42769.9 Z M 300578.5 59285.4 Q 298099 61474.9 296127 61474.9 Q 294967 61474.9 294198.5 60713.65 Q 293430 59952.4 293430 58806.9 Q 293430 57255.4 294764 56015.65 Q 296098 54775.9 300578.5 52716.9 L 300578.5 51353.9 Q 300578.5 49816.9 300411.75 49418.15 Q 300245 49019.4 299781 48722.15 Q 299317 48424.9 298737 48424.9 Q 297794.5 48424.9 297185.5 48845.4 Q 296808.5 49106.4 296808.5 49454.4 Q 296808.5 49758.9 297214.5 50208.4 Q 297765.5 50831.9 297765.5 51411.9 Q 297765.5 52122.4 297236.25 52622.65 Q 296707 53122.9 295851.5 53122.9 Q 294938 53122.9 294321.75 52571.9 Q 293705.5 52020.9 293705.5 51281.4 Q 293705.5 50237.4 294532 49287.65 Q 295358.5 48337.9 296837.5 47830.4 Q 298316.5 47322.9 299911.5 47322.9 Q 301840 47322.9 302963.75 48142.15 Q 304087.5 48961.4 304421 49918.4 Q 304624 50527.4 304624 52716.9 L 304624 57980.4 Q 304624 58908.4 304696.5 59147.65 Q 304769 59386.9 304914 59502.9 Q 305059 59618.9 305247.5 59618.9 Q 305624.5 59618.9 306016 59082.4 L 306451 59430.4 Q 305726 60503.4 304950.25 60989.15 Q 304174.5 61474.9 303188.5 61474.9 Q 302028.5 61474.9 301376 60931.15 Q 300723.5 60387.4 300578.5 59285.4  Z M 300578.5 58226.9 L 300578.5 53688.4 Q 298824 54717.9 297968.5 55892.4 Q 297403 56675.4 297403 57472.9 Q 297403 58139.9 297881.5 58647.4 Q 298244 59038.9 298896.5 59038.9 Q 299621.5 59038.9 300578.5 58226.9  Z M 313324 42769.9 L 313324 47728.9 L 316543 47728.9 L 316543 49164.4 L 313324 49164.4 L 313324 57530.9 Q 313324 58705.4 313432.75 59046.15 Q 313541.5 59386.9 313817 59597.15 Q 314092.5 59807.4 314324.5 59807.4 Q 315267 59807.4 316108 58371.9 L 316543 58690.9 Q 315368.5 61474.9 312729.5 61474.9 Q 311439 61474.9 310547.25 60757.15 Q 309655.5 60039.4 309409 59154.9 Q 309264 58661.9 309264 56486.9 L 309264 49164.4 L 307495 49164.4 L 307495 48656.9 Q 309322 47366.4 310605.25 45945.4 Q 311888.5 44524.4 312845.5 42769.9 L 313324 42769.9 Z M 321088.6 41160.4 Q 322031.1 41160.4 322683.6 41820.15 Q 323336.1 42479.9 323336.1 43407.9 Q 323336.1 44335.9 322676.35 44988.4 Q 322016.6 45640.9 321088.6 45640.9 Q 320160.6 45640.9 319508.1 44988.4 Q 318855.6 44335.9 318855.6 43407.9 Q 318855.6 42479.9 319508.1 41820.15 Q 320160.6 41160.4 321088.6 41160.4  Z M 323118.6 47728.9 L 323118.6 58473.4 Q 323118.6 59908.9 323452.1 60307.65 Q 323785.6 60706.4 324757.1 60764.4 L 324757.1 61286.4 L 317434.6 61286.4 L 317434.6 60764.4 Q 318333.6 60735.4 318768.6 60242.4 Q 319058.6 59908.9 319058.6 58473.4 L 319058.6 50556.4 Q 319058.6 49120.9 318725.1 48722.15 Q 318391.6 48323.4 317434.6 48265.4 L 317434.6 47728.9 L 323118.6 47728.9 Z M 332188.3 61692.4 L 327620.8 51179.9 Q 326794.3 49280.4 326330.3 48772.9 Q 325996.8 48395.9 325344.3 48265.4 L 325344.3 47728.9 L 332550.8 47728.9 L 332550.8 48265.4 Q 331869.3 48265.4 331622.8 48511.9 Q 331274.8 48830.9 331274.8 49265.9 Q 331274.8 49802.4 331912.8 51281.4 L 334145.8 56370.9 L 335929.3 51977.4 Q 336697.8 50092.4 336697.8 49309.4 Q 336697.8 48859.9 336371.55 48577.15 Q 336045.3 48294.4 335218.8 48265.4 L 335218.8 47728.9 L 339655.8 47728.9 L 339655.8 48265.4 Q 339017.8 48352.4 338611.8 48743.9 Q 338205.8 49135.4 337393.8 51049.4 L 332869.8 61692.4 L 332188.3 61692.4 Z M 352401.3 54021.9 L 344962.8 54021.9 Q 345093.3 56718.9 346398.3 58284.9 Q 347398.8 59488.4 348805.3 59488.4 Q 349675.3 59488.4 350385.8 59002.65 Q 351096.3 58516.9 351908.3 57255.4 L 352401.3 57574.4 Q 351299.3 59821.9 349965.3 60757.15 Q 348631.3 61692.4 346876.8 61692.4 Q 343860.8 61692.4 342309.3 59372.4 Q 341062.3 57501.9 341062.3 54732.4 Q 341062.3 51339.4 342896.55 49331.15 Q 344730.8 47322.9 347195.8 47322.9 Q 349254.8 47322.9 350770.05 49012.15 Q 352285.3 50701.4 352401.3 54021.9  Z M 348834.3 53050.4 Q 348834.3 50715.9 348580.55 49845.9 Q 348326.8 48975.9 347790.3 48526.4 Q 347485.8 48265.4 346978.3 48265.4 Q 346224.3 48265.4 345745.8 49004.9 Q 344890.3 50295.4 344890.3 52542.9 L 344890.3 53050.4 L 348834.3 53050.4 Z M 368517.7 52383.4 L 368517.7 57835.4 Q 368517.7 59430.4 368713.45 59843.65 Q 368909.2 60256.9 369409.45 60503.4 Q 369909.7 60749.9 371243.7 60749.9 L 371243.7 61286.4 L 361253.2 61286.4 L 361253.2 60749.9 Q 362616.2 60749.9 363101.95 60496.15 Q 363587.7 60242.4 363783.45 59836.4 Q 363979.2 59430.4 363979.2 57835.4 L 363979.2 45075.4 Q 363979.2 43480.4 363783.45 43067.15 Q 363587.7 42653.9 363094.7 42407.4 Q 362601.7 42160.9 361253.2 42160.9 L 361253.2 41624.4 L 369822.7 41624.4 Q 374056.7 41624.4 375898.2 43132.4 Q 377739.7 44640.4 377739.7 46902.4 Q 377739.7 48816.4 376550.7 50179.4 Q 375361.7 51542.4 373273.7 52035.4 Q 371867.2 52383.4 368517.7 52383.4  Z M 368517.7 42755.4 L 368517.7 51252.4 Q 368996.2 51281.4 369242.7 51281.4 Q 371011.7 51281.4 371968.7 50230.15 Q 372925.7 49178.9 372925.7 46974.9 Q 372925.7 44785.4 371968.7 43770.4 Q 371011.7 42755.4 369112.2 42755.4 L 368517.7 42755.4 Z M 398445.5 41174.9 L 398445.5 47989.9 L 397880 47989.9 Q 397242 45321.9 395502 43900.9 Q 393762 42479.9 391558 42479.9 Q 389716.5 42479.9 388179.5 43538.4 Q 386642.5 44596.9 385932 46307.9 Q 385018.5 48497.4 385018.5 51179.9 Q 385018.5 53818.9 385685.5 55986.65 Q 386352.5 58154.4 387773.5 59263.65 Q 389194.5 60372.9 391456.5 60372.9 Q 393312.5 60372.9 394856.75 59560.9 Q 396401 58748.9 398112 56762.4 L 398112 58458.9 Q 396459 60184.4 394668.25 60960.15 Q 392877.5 61735.9 390485 61735.9 Q 387338.5 61735.9 384895.25 60474.4 Q 382452 59212.9 381125.25 56849.4 Q 379798.5 54485.9 379798.5 51817.9 Q 379798.5 49004.9 381270.25 46481.9 Q 382742 43958.9 385243.25 42566.9 Q 387744.5 41174.9 390557.5 41174.9 Q 392631 41174.9 394936.5 42073.9 Q 396270.5 42595.9 396633 42595.9 Q 397097 42595.9 397437.75 42255.15 Q 397778.5 41914.4 397880 41174.9 L 398445.5 41174.9 Z M 407913.6 52325.4 L 407913.6 57835.4 Q 407913.6 59430.4 408109.35 59843.65 Q 408305.1 60256.9 408798.1 60503.4 Q 409291.1 60749.9 410639.6 60749.9 L 410639.6 61286.4 L 400576.6 61286.4 L 400576.6 60749.9 Q 401939.6 60749.9 402425.35 60496.15 Q 402911.1 60242.4 403106.85 59836.4 Q 403302.6 59430.4 403302.6 57835.4 L 403302.6 45075.4 Q 403302.6 43480.4 403106.85 43067.15 Q 402911.1 42653.9 402418.1 42407.4 Q 401925.1 42160.9 400576.6 42160.9 L 400576.6 41624.4 L 409711.6 41624.4 Q 413278.6 41624.4 414931.6 42117.4 Q 416584.6 42610.4 417628.6 43937.15 Q 418672.6 45263.9 418672.6 47047.4 Q 418672.6 49222.4 417106.6 50643.4 Q 416106.1 51542.4 414308.1 51991.9 L 419035.1 58647.4 Q 419963.1 59937.9 420354.6 60256.9 Q 420949.1 60706.4 421732.1 60749.9 L 421732.1 61286.4 L 415540.6 61286.4 L 409204.1 52325.4 L 407913.6 52325.4 Z M 407913.6 42682.9 L 407913.6 51295.9 L 408740.1 51295.9 Q 410755.6 51295.9 411756.1 50926.15 Q 412756.6 50556.4 413329.35 49592.15 Q 413902.1 48627.9 413902.1 47076.4 Q 413902.1 44828.9 412850.85 43755.9 Q 411799.6 42682.9 409465.1 42682.9 L 407913.6 42682.9 Z M 435231.2 42769.9 L 435231.2 47728.9 L 438450.2 47728.9 L 438450.2 49164.4 L 435231.2 49164.4 L 435231.2 57530.9 Q 435231.2 58705.4 435339.95 59046.15 Q 435448.7 59386.9 435724.2 59597.15 Q 435999.7 59807.4 436231.7 59807.4 Q 437174.2 59807.4 438015.2 58371.9 L 438450.2 58690.9 Q 437275.7 61474.9 434636.7 61474.9 Q 433346.2 61474.9 432454.45 60757.15 Q 431562.7 60039.4 431316.2 59154.9 Q 431171.2 58661.9 431171.2 56486.9 L 431171.2 49164.4 L 429402.2 49164.4 L 429402.2 48656.9 Q 431229.2 47366.4 432512.45 45945.4 Q 433795.7 44524.4 434752.7 42769.9 L 435231.2 42769.9 Z M 451217.3 54021.9 L 443778.8 54021.9 Q 443909.3 56718.9 445214.3 58284.9 Q 446214.8 59488.4 447621.3 59488.4 Q 448491.3 59488.4 449201.8 59002.65 Q 449912.3 58516.9 450724.3 57255.4 L 451217.3 57574.4 Q 450115.3 59821.9 448781.3 60757.15 Q 447447.3 61692.4 445692.8 61692.4 Q 442676.8 61692.4 441125.3 59372.4 Q 439878.3 57501.9 439878.3 54732.4 Q 439878.3 51339.4 441712.55 49331.15 Q 443546.8 47322.9 446011.8 47322.9 Q 448070.8 47322.9 449586.05 49012.15 Q 451101.3 50701.4 451217.3 54021.9  Z M 447650.3 53050.4 Q 447650.3 50715.9 447396.55 49845.9 Q 447142.8 48975.9 446606.3 48526.4 Q 446301.8 48265.4 445794.3 48265.4 Q 445040.3 48265.4 444561.8 49004.9 Q 443706.3 50295.4 443706.3 52542.9 L 443706.3 53050.4 L 447650.3 53050.4 Z M 463955.2 57791.9 L 464404.7 58139.9 Q 463447.7 59937.9 462019.45 60815.15 Q 460591.2 61692.4 458981.7 61692.4 Q 456270.2 61692.4 454646.2 59647.9 Q 453022.2 57603.4 453022.2 54732.4 Q 453022.2 51962.9 454501.2 49860.4 Q 456284.7 47322.9 459416.7 47322.9 Q 461519.2 47322.9 462758.95 48381.4 Q 463998.7 49439.9 463998.7 50744.9 Q 463998.7 51571.4 463498.45 52064.4 Q 462998.2 52557.4 462186.2 52557.4 Q 461330.7 52557.4 460772.45 51991.9 Q 460214.2 51426.4 460083.7 49976.4 Q 459996.7 49062.9 459663.2 48700.4 Q 459329.7 48337.9 458880.2 48337.9 Q 458184.2 48337.9 457691.2 49077.4 Q 456937.2 50193.9 456937.2 52499.4 Q 456937.2 54413.4 457546.2 56160.65 Q 458155.2 57907.9 459213.7 58763.4 Q 460011.2 59386.9 461098.7 59386.9 Q 461809.2 59386.9 462447.2 59053.4 Q 463085.2 58719.9 463955.2 57791.9  Z M 471589.1 41624.4 L 471589.1 49468.9 Q 472705.6 48294.4 473633.6 47808.65 Q 474561.6 47322.9 475562.1 47322.9 Q 476838.1 47322.9 477744.35 48047.9 Q 478650.6 48772.9 478947.85 49751.65 Q 479245.1 50730.4 479245.1 53050.4 L 479245.1 58342.9 Q 479245.1 59894.4 479535.1 60278.65 Q 479825.1 60662.9 480709.6 60764.4 L 480709.6 61286.4 L 473836.6 61286.4 L 473836.6 60764.4 Q 474561.6 60662.9 474924.1 60184.4 Q 475185.1 59807.4 475185.1 58342.9 L 475185.1 52296.4 Q 475185.1 50614.4 475054.6 50186.65 Q 474924.1 49758.9 474612.35 49519.65 Q 474300.6 49280.4 473909.1 49280.4 Q 473329.1 49280.4 472778.1 49679.15 Q 472227.1 50077.9 471589.1 51078.4 L 471589.1 58342.9 Q 471589.1 59792.9 471806.6 60155.4 Q 472082.1 60648.4 472937.6 60764.4 L 472937.6 61286.4 L 466064.6 61286.4 L 466064.6 60764.4 Q 466920.1 60677.4 467282.6 60213.4 Q 467529.1 59894.4 467529.1 58342.9 L 467529.1 44567.9 Q 467529.1 43030.9 467246.35 42653.9 Q 466963.6 42276.9 466064.6 42160.9 L 466064.6 41624.4 L 471589.1 41624.4 Z M 488075.5 47728.9 L 488075.5 49483.4 Q 489119.5 48352.4 490076.5 47837.65 Q 491033.5 47322.9 492135.5 47322.9 Q 493455 47322.9 494325 48055.15 Q 495195 48787.4 495485 49874.9 Q 495717 50701.4 495717 53050.4 L 495717 58328.4 Q 495717 59894.4 495999.75 60278.65 Q 496282.5 60662.9 497181.5 60764.4 L 497181.5 61286.4 L 490323 61286.4 L 490323 60764.4 Q 491091.5 60662.9 491425 60126.4 Q 491657 59763.9 491657 58328.4 L 491657 52296.4 Q 491657 50628.9 491526.5 50193.9 Q 491396 49758.9 491084.25 49519.65 Q 490772.5 49280.4 490395.5 49280.4 Q 489148.5 49280.4 488075.5 51063.9 L 488075.5 58328.4 Q 488075.5 59850.9 488358.25 60256.9 Q 488641 60662.9 489409.5 60764.4 L 489409.5 61286.4 L 482551 61286.4 L 482551 60764.4 Q 483406.5 60677.4 483769 60213.4 Q 484015.5 59894.4 484015.5 58328.4 L 484015.5 50672.4 Q 484015.5 49135.4 483732.75 48758.4 Q 483450 48381.4 482551 48265.4 L 482551 47728.9 L 488075.5 47728.9 Z M 505417.4 47322.9 Q 507186.4 47322.9 508708.9 48236.4 Q 510231.4 49149.9 511021.65 50831.9 Q 511811.9 52513.9 511811.9 54514.9 Q 511811.9 57400.4 510347.4 59343.4 Q 508578.4 61692.4 505460.9 61692.4 Q 502401.4 61692.4 500748.4 59546.4 Q 499095.4 57400.4 499095.4 54572.9 Q 499095.4 51658.4 500784.65 49490.65 Q 502473.9 47322.9 505417.4 47322.9  Z M 505475.4 48352.4 Q 504735.9 48352.4 504206.65 48910.65 Q 503677.4 49468.9 503510.65 51114.65 Q 503343.9 52760.4 503343.9 55689.4 Q 503343.9 57240.9 503546.9 58589.4 Q 503706.4 59618.9 504228.4 60155.4 Q 504750.4 60691.9 505417.4 60691.9 Q 506069.9 60691.9 506504.9 60329.4 Q 507070.4 59836.4 507258.9 58951.9 Q 507548.9 57574.4 507548.9 53383.9 Q 507548.9 50918.9 507273.4 49998.15 Q 506997.9 49077.4 506461.4 48656.9 Q 506084.4 48352.4 505475.4 48352.4  Z M 519177.9 41624.4 L 519177.9 58473.4 Q 519177.9 59908.9 519511.4 60307.65 Q 519844.9 60706.4 520816.4 60764.4 L 520816.4 61286.4 L 513493.9 61286.4 L 513493.9 60764.4 Q 514392.9 60735.4 514827.9 60242.4 Q 515117.9 59908.9 515117.9 58473.4 L 515117.9 44437.4 Q 515117.9 43016.4 514784.4 42617.65 Q 514450.9 42218.9 513493.9 42160.9 L 513493.9 41624.4 L 519177.9 41624.4 Z M 528508.6 47322.9 Q 530277.6 47322.9 531800.1 48236.4 Q 533322.6 49149.9 534112.85 50831.9 Q 534903.1 52513.9 534903.1 54514.9 Q 534903.1 57400.4 533438.6 59343.4 Q 531669.6 61692.4 528552.1 61692.4 Q 525492.6 61692.4 523839.6 59546.4 Q 522186.6 57400.4 522186.6 54572.9 Q 522186.6 51658.4 523875.85 49490.65 Q 525565.1 47322.9 528508.6 47322.9  Z M 528566.6 48352.4 Q 527827.1 48352.4 527297.85 48910.65 Q 526768.6 49468.9 526601.85 51114.65 Q 526435.1 52760.4 526435.1 55689.4 Q 526435.1 57240.9 526638.1 58589.4 Q 526797.6 59618.9 527319.6 60155.4 Q 527841.6 60691.9 528508.6 60691.9 Q 529161.1 60691.9 529596.1 60329.4 Q 530161.6 59836.4 530350.1 58951.9 Q 530640.1 57574.4 530640.1 53383.9 Q 530640.1 50918.9 530364.6 49998.15 Q 530089.1 49077.4 529552.6 48656.9 Q 529175.6 48352.4 528566.6 48352.4  Z M 545662.1 47888.4 L 550229.6 47888.4 L 550229.6 49483.4 L 547634.1 49483.4 Q 548344.6 50193.9 548620.1 50773.9 Q 548968.1 51556.9 548968.1 52412.4 Q 548968.1 53862.4 548163.35 54928.15 Q 547358.6 55993.9 545973.85 56595.65 Q 544589.1 57197.4 543516.1 57197.4 Q 543429.1 57197.4 541776.1 57124.9 Q 541123.6 57124.9 540681.35 57552.65 Q 540239.1 57980.4 540239.1 58574.9 Q 540239.1 59096.9 540637.85 59430.4 Q 541036.6 59763.9 541935.6 59763.9 L 544444.1 59734.9 Q 547489.1 59734.9 548634.6 60401.9 Q 550273.1 61329.9 550273.1 63258.4 Q 550273.1 64490.9 549519.1 65498.65 Q 548765.1 66506.4 547532.6 66984.9 Q 545662.1 67695.4 543226.1 67695.4 Q 541399.1 67695.4 539891.1 67340.15 Q 538383.1 66984.9 537730.6 66354.15 Q 537078.1 65723.4 537078.1 65027.4 Q 537078.1 64360.4 537578.35 63831.15 Q 538078.6 63301.9 539441.6 62939.4 Q 537556.6 62011.4 537556.6 60358.4 Q 537556.6 59357.9 538325.1 58415.4 Q 539093.6 57472.9 540761.1 56776.9 Q 538818.1 56066.4 537948.1 54906.4 Q 537078.1 53746.4 537078.1 52223.9 Q 537078.1 50237.4 538702.1 48780.15 Q 540326.1 47322.9 542878.1 47322.9 Q 544226.6 47322.9 545662.1 47888.4  Z M 543153.6 48221.9 Q 542312.6 48221.9 541732.6 49070.15 Q 541152.6 49918.4 541152.6 52586.4 Q 541152.6 54746.9 541725.35 55551.65 Q 542298.1 56356.4 543081.1 56356.4 Q 543951.1 56356.4 544531.1 55558.9 Q 545111.1 54761.4 545111.1 52455.9 Q 545111.1 49860.4 544458.6 48917.9 Q 543994.6 48221.9 543153.6 48221.9  Z M 542298.1 63287.4 Q 540819.1 63287.4 540340.6 63533.9 Q 539514.1 63983.4 539514.1 64751.9 Q 539514.1 65491.4 540369.6 66093.15 Q 541225.1 66694.9 543588.6 66694.9 Q 545604.1 66694.9 546756.85 66158.4 Q 547909.6 65621.9 547909.6 64650.4 Q 547909.6 64287.9 547692.1 64041.4 Q 547300.6 63606.4 546510.35 63446.9 Q 545720.1 63287.4 542298.1 63287.4  Z M 558030.6 61837.4 L 553651.6 51788.9 Q 552665.6 49512.4 552194.35 48990.4 Q 551723.1 48468.4 551056.1 48265.4 L 551056.1 47728.9 L 558262.6 47728.9 L 558262.6 48265.4 Q 557552.1 48294.4 557262.1 48540.9 Q 556972.1 48787.4 556972.1 49135.4 Q 556972.1 49686.4 557697.1 51310.4 L 560017.1 56617.4 L 561597.6 52513.9 Q 562453.1 50324.4 562453.1 49468.9 Q 562453.1 48932.4 562097.85 48613.4 Q 561742.6 48294.4 560843.6 48265.4 L 560843.6 47728.9 L 565382.1 47728.9 L 565382.1 48265.4 Q 564715.1 48337.9 564294.6 48780.15 Q 563874.1 49222.4 562888.1 51788.9 L 559016.6 61837.4 Q 557552.1 65607.4 556841.6 66477.4 Q 555841.1 67695.4 554333.1 67695.4 Q 553129.6 67695.4 552382.85 67006.65 Q 551636.1 66317.9 551636.1 65346.4 Q 551636.1 64505.4 552150.85 63954.4 Q 552665.6 63403.4 553419.6 63403.4 Q 554144.6 63403.4 554586.85 63867.4 Q 555029.1 64331.4 555043.6 65302.9 Q 555058.1 65853.9 555174.1 66013.4 Q 555290.1 66172.9 555507.6 66172.9 Q 555855.6 66172.9 556247.1 65752.4 Q 556827.1 65143.4 557610.1 62968.4 L 558030.6 61837.4 Z " fill-rule="nonzero" style="fill:#76923c;;fill-opacity:1;"/>
</svg>