<svg version="1.1" x="0" y="0" width="100%" height="100%" viewBox="0 0 195840 25651.2" xmlns="http://www.w3.org/2000/svg">
  <path d="M 5126 14352.9 Q 4993 14922.9 4993 15464.4 Q 4993 18019.9 7406 18019.9 Q 8612.5 18019.9 9287 17274.15 Q 9961.5 16528.4 9961.5 15188.9 Q 9961.5 13858.9 9215.75 12942.15 Q 8470 12025.4 7377.5 12025.4 Q 7045 12025.4 6361 12167.9 L 6256.5 12196.4 L 6627 11160.9 L 6712.5 11160.9 Q 7083 11179.9 7301.5 11179.9 Q 8299 11179.9 8940.25 10576.65 Q 9581.5 9973.4 9581.5 9023.4 Q 9581.5 8092.4 8878.5 7436.9 Q 8175.5 6781.4 7178 6781.4 Q 6237.5 6781.4 5639 7303.9 Q 5040.5 7826.4 5040.5 8643.4 Q 5040.5 9165.9 5292.25 9484.15 Q 5544 9802.4 5952.5 9802.4 Q 6237.5 9802.4 6484.5 9574.4 L 6627 9650.4 Q 6275.5 10495.9 5240 10495.9 Q 4489.5 10495.9 3981.25 9973.4 Q 3473 9450.9 3473 8690.9 Q 3473 7949.9 4119 7256.4 Q 5211.5 6097.4 7501 6097.4 Q 9192 6097.4 10270.25 6900.15 Q 11348.5 7702.9 11348.5 8956.9 Q 11348.5 9868.9 10778.5 10548.15 Q 10208.5 11227.4 9239.5 11464.9 Q 9002 11531.4 9011.5 11607.4 Q 9021 11702.4 9211 11768.9 Q 11966 12633.4 11966 15198.4 Q 11966 16870.4 10764.25 17810.9 Q 9562.5 18751.4 7444 18751.4 Q 5506 18751.4 4432.5 17934.4 Q 3359 17117.4 3026.5 15397.9 L 3112 15369.4 Q 4299.5 14979.9 5126 14352.9  Z M 5971.5 14580.9 Q 5962 14656.9 5962 14685.4 Q 5857.5 15502.4 5857.5 15768.4 Q 5857.5 17145.9 7026 17753.9 L 7026 17848.9 Q 6389.5 17668.4 5990.5 17088.9 Q 5591.5 16509.4 5591.5 15749.4 Q 5591.5 15331.4 5724.5 14647.4 L 5734 14580.9 L 5971.5 14580.9 Z M 9363 13592.9 Q 8612.5 12851.9 7453.5 12851.9 Q 6969 12851.9 6636.5 12965.9 L 6560.5 12994.4 L 6484.5 12747.4 Q 7064 12604.9 7463 12604.9 Q 8869 12604.9 9420 13592.9 L 9363 13592.9 Z M 11472 12690.4 Q 12194 13421.9 12474.25 14020.4 Q 12754.5 14618.9 12754.5 15454.9 Q 12754.5 17288.4 11386.5 18414.15 Q 10018.5 19539.9 7776.5 19539.9 Q 5420.5 19539.9 4185.5 18228.9 L 4185.5 18171.9 L 4280.5 18247.9 Q 5791 19311.9 7738.5 19311.9 Q 9819 19311.9 11153.75 18228.9 Q 12488.5 17145.9 12488.5 15454.9 Q 12488.5 14742.4 12279.5 14215.15 Q 12070.5 13687.9 11472 12880.4 Q 11443.5 12842.4 11396 12775.9 L 11472 12690.4 Z M 10712 6828.9 Q 11282 6971.4 11723.75 7698.15 Q 12165.5 8424.9 12165.5 9213.4 Q 12165.5 10191.9 11538.5 10975.65 Q 10911.5 11759.4 9971 11958.9 L 9781 11768.9 Q 10750 11502.9 11329.5 10814.15 Q 11909 10125.4 11909 9241.9 Q 11909 8016.4 10788 6904.9 Q 10759.5 6885.9 10712 6828.9  Z M 9325 8823.9 L 9239.5 8700.4 Q 8470 7617.4 7320.5 7617.4 Q 6703 7617.4 6304 7954.65 Q 5905 8291.9 5905 8823.9 Q 5905 9203.9 6256.5 9450.9 Q 6266 9460.4 6294.5 9488.9 L 6190 9640.9 Q 5629.5 9403.4 5629.5 8804.9 Q 5629.5 8196.9 6109.25 7788.4 Q 6589 7379.9 7311 7379.9 Q 8080.5 7379.9 8631.5 7759.9 Q 9182.5 8139.9 9410.5 8823.9 L 9325 8823.9 Z M 7330 10106.4 Q 6684 11132.4 5601 11132.4 Q 4822 11132.4 4090.5 10381.9 L 4033.5 10334.4 L 4033.5 10277.4 Q 4109.5 10324.9 4119 10334.4 L 4442 10571.9 Q 4869.5 10904.4 5572.5 10904.4 Q 6028.5 10904.4 6456 10643.15 Q 6883.5 10381.9 7111.5 9973.4 L 7330 10106.4 Z M 15887.6 16205.4 Q 16400.6 16205.4 16761.6 16566.4 Q 17122.6 16927.4 17122.6 17440.4 Q 17122.6 17943.9 16761.6 18304.9 Q 16400.6 18665.9 15887.6 18665.9 Q 15384.1 18665.9 15023.1 18304.9 Q 14662.1 17943.9 14662.1 17440.4 Q 14662.1 16927.4 15023.1 16566.4 Q 15384.1 16205.4 15887.6 16205.4  Z M 17445.6 16604.4 Q 17968.1 17088.9 17968.1 17820.4 Q 17968.1 18466.4 17488.35 18950.9 Q 17008.6 19435.4 16372.1 19435.4 Q 15602.6 19435.4 15127.6 18865.4 L 15194.1 18798.9 Q 15802.1 19159.9 16296.1 19159.9 Q 16894.6 19159.9 17317.35 18746.65 Q 17740.1 18333.4 17740.1 17763.4 Q 17740.1 17221.9 17360.1 16670.9 L 17445.6 16604.4 Z M 28202.8 6439.4 Q 27708.8 7104.4 27414.3 7826.4 Q 26834.8 9251.4 26644.8 9574.4 L 26597.3 9631.4 Q 26559.3 9526.9 26540.3 9469.9 Q 26274.3 8614.9 26103.3 8282.4 Q 25932.3 7949.9 25590.3 7645.9 Q 24725.8 6876.4 23623.8 6876.4 Q 22607.3 6876.4 21932.8 7441.65 Q 21258.3 8006.9 21258.3 8861.9 Q 21258.3 10457.9 23661.8 11037.4 L 25267.3 11426.9 Q 28696.8 12253.4 28696.8 15046.4 Q 28696.8 16604.4 27523.55 17663.65 Q 26350.3 18722.9 24621.3 18722.9 Q 23538.3 18722.9 22198.8 18390.4 L 21087.3 18114.9 Q 20412.8 17953.4 19975.8 17953.4 Q 19396.3 17953.4 18778.8 18323.9 L 18702.8 18190.9 Q 19880.8 16414.4 20355.8 14808.9 L 20526.8 14856.4 Q 20726.3 16347.9 21723.8 17174.4 Q 22721.3 18000.9 24336.3 18000.9 Q 25609.3 18000.9 26359.8 17411.9 Q 27110.3 16822.9 27110.3 15825.4 Q 27110.3 14675.9 26065.3 13925.4 Q 25314.8 13393.4 22987.3 12937.4 Q 21191.8 12585.9 20384.3 11768.9 Q 19576.8 10951.9 19576.8 9498.4 Q 19576.8 7997.4 20655.05 7061.65 Q 21733.3 6125.9 23462.3 6125.9 Q 24573.8 6125.9 26055.8 6524.9 Q 26749.3 6714.9 27081.8 6714.9 Q 27547.3 6714.9 28098.3 6391.9 L 28202.8 6439.4 Z M 28791.8 6841.25 L 28706.3 6987.55 Q 28316.8 7658.25 28041.3 8271.95 Q 27376.3 9701.7 27290.8 9867 L 27243.3 9935.4 L 27015.3 9838.5 L 27053.3 9750.15 Q 27328.8 9107.95 27851.3 8077.2 L 28497.3 6793.75 L 28544.8 6717.75 L 28791.8 6841.25 Z M 26017.8 8728.9 Q 24972.8 7617.4 23775.8 7617.4 Q 23053.8 7617.4 22578.8 8035.4 Q 22103.8 8453.4 22103.8 9099.4 Q 22103.8 9802.4 23063.3 10543.4 L 23139.3 10590.9 L 23091.8 10666.9 Q 21837.8 10106.4 21837.8 9042.4 Q 21837.8 8301.4 22369.8 7835.9 Q 22901.8 7370.4 23756.8 7370.4 Q 24573.8 7370.4 25186.55 7717.15 Q 25799.3 8063.9 26084.3 8690.9 L 26017.8 8728.9 Z M 28202.8 12500.4 Q 29494.8 13478.9 29494.8 15179.4 Q 29494.8 16993.9 28088.8 18252.65 Q 26682.8 19511.4 24668.8 19511.4 Q 23642.8 19511.4 22816.3 19302.4 L 21296.3 18931.9 Q 20764.3 18798.9 20156.3 18798.9 Q 19614.8 18798.9 19158.8 19017.4 L 19044.8 18741.9 Q 19538.8 18513.9 20051.8 18513.9 Q 20621.8 18513.9 21353.3 18684.9 L 22816.3 19036.4 Q 23690.3 19245.4 24659.3 19245.4 Q 26559.3 19245.4 27894.05 18034.15 Q 29228.8 16822.9 29228.8 15103.4 Q 29228.8 13649.9 28202.8 12557.4 L 28202.8 12500.4 Z M 21438.8 15236.4 Q 21790.3 16946.4 23319.8 17658.9 L 23319.8 17734.9 Q 21552.8 17221.9 21182.3 15283.9 L 21438.8 15236.4 Z M 20251.3 12158.4 L 20574.3 12338.9 Q 20887.8 12899.4 22407.8 13269.9 L 23937.3 13649.9 Q 25495.3 14039.4 26013.05 14319.65 Q 26530.8 14599.9 26749.3 15169.9 L 26682.8 15207.9 Q 26255.3 14713.9 25756.55 14485.9 Q 25257.8 14257.9 23842.3 13925.4 Q 21790.3 13450.4 21087.3 13103.65 Q 20384.3 12756.9 20251.3 12158.4  Z M 40940.3 6334.9 L 39239.8 7693.4 L 39239.8 13830.4 Q 39239.8 15521.4 39130.55 16262.4 Q 39021.3 17003.4 38698.3 17478.4 Q 37881.3 18694.4 35525.3 18694.4 Q 33036.3 18694.4 32048.3 17478.4 Q 31259.8 16518.9 31259.8 13801.9 L 31259.8 7493.9 L 29967.8 6334.9 L 34451.8 6334.9 L 33159.8 7598.4 L 33159.8 13811.4 L 33178.8 15274.4 Q 33178.8 16689.9 33767.8 17283.65 Q 34356.8 17877.4 35753.3 17877.4 Q 37292.3 17877.4 37871.8 16974.9 Q 38337.3 16243.4 38337.3 13839.9 L 38375.3 7693.4 L 36893.3 6334.9 L 40940.3 6334.9 Z M 41263.3 6980.9 L 39971.3 8054.4 L 39971.3 13953.9 Q 39971.3 16851.4 39515.3 17734.9 Q 38584.3 19520.9 35876.8 19520.9 Q 33539.8 19520.9 32361.8 18352.4 L 32437.8 18390.4 L 32770.3 18580.4 Q 33938.8 19264.4 35772.3 19264.4 Q 38394.3 19264.4 39249.3 17611.4 Q 39705.3 16718.4 39705.3 14020.4 L 39705.3 7940.4 L 41120.8 6781.4 L 41263.3 6980.9 Z M 34850.8 6847.9 L 33919.8 7788.4 L 33919.8 14846.9 L 33910.3 15502.4 L 34204.8 16708.9 Q 34423.3 17069.9 35031.3 17582.9 L 35050.3 17668.4 Q 34252.3 17345.4 33948.3 16727.9 Q 33644.3 16110.4 33644.3 14818.4 L 33644.3 7693.4 L 34717.8 6648.4 L 34850.8 6847.9 Z M 41810.3 6334.9 L 46313.3 6334.9 L 45040.3 7626.9 L 45040.3 17516.4 L 46237.3 18523.4 L 41810.3 18523.4 L 43130.8 17430.9 L 43130.8 7522.4 L 41810.3 6334.9 Z M 46740.8 6876.4 L 45771.8 7835.9 L 45771.8 17539.2 L 47367.8 19302.4 L 42427.8 19302.4 L 42190.3 19074.4 L 46807.3 19074.4 L 45505.8 17635.15 L 45505.8 7750.4 L 46579.3 6686.4 L 46740.8 6876.4 Z M 57734 6629.4 L 57629.5 6809.9 Q 56774.5 8301.4 56147.5 9792.9 L 56062 10011.4 L 55938.5 9944.9 Q 55720 8500.9 54922 7655.4 Q 54124 6809.9 52993.5 6809.9 Q 51787 6809.9 50979.5 7864.4 Q 49963 9175.4 49963 12310.4 Q 49963 15008.4 50898.75 16537.9 Q 51834.5 18067.4 53497 18067.4 Q 54827 18067.4 55620.25 17179.15 Q 56413.5 16290.9 56565.5 14637.9 Q 56603.5 14238.9 56888.5 14238.9 Q 57259 14238.9 57259 14856.4 Q 57259 15777.9 56841 16765.9 Q 55957.5 18855.9 53193 18855.9 Q 50723 18855.9 49269.5 17122.15 Q 47816 15388.4 47816 12433.9 Q 47816 9707.4 49326.5 7864.4 Q 50837 6021.4 53079 6021.4 Q 54143 6021.4 55501.5 6543.9 Q 56214 6819.4 56679.5 6819.4 Q 57183 6819.4 57582 6543.9 L 57734 6629.4 Z M 54979 8272.9 Q 54114.5 7579.4 53345 7579.4 Q 50884.5 7579.4 50884.5 12272.4 Q 50884.5 14409.9 51454.5 15830.15 Q 52024.5 17250.4 53060 17668.4 L 53060 17763.4 Q 51939 17535.4 51269.25 16039.15 Q 50599.5 14542.9 50599.5 12253.4 Q 50599.5 7341.9 53297.5 7341.9 Q 54209.5 7341.9 54979 8149.4 L 54979 8272.9 Z M 58076 14799.4 Q 57924 17155.4 56760.25 18385.65 Q 55596.5 19615.9 53506.5 19615.9 Q 51920 19615.9 50552 18637.4 L 50552 18561.4 Q 51768 19359.4 53487.5 19359.4 Q 55368.5 19359.4 56556 18152.9 Q 57135.5 17563.9 57411 16832.4 Q 57686.5 16100.9 57781.5 14894.4 L 57800.5 14675.9 L 58076 14799.4 Z M 58427.5 7086.35 L 58323 7268.75 Q 57287.5 9050 56670 10514.9 L 56413.5 10390.45 L 56518 10151.05 Q 56993 9145 57354 8484.75 L 58114 7124.35 L 58209 6953.35 L 58427.5 7086.35 Z M 59064.7 6334.9 L 63567.7 6334.9 L 62294.7 7626.9 L 62294.7 17516.4 L 63491.7 18523.4 L 59064.7 18523.4 L 60385.2 17430.9 L 60385.2 7522.4 L 59064.7 6334.9 Z M 63995.2 6876.4 L 63026.2 7835.9 L 63026.2 17539.2 L 64622.2 19302.4 L 59682.2 19302.4 L 59444.7 19074.4 L 64061.7 19074.4 L 62760.2 17635.15 L 62760.2 7750.4 L 63833.7 6686.4 L 63995.2 6876.4 Z M 65288.9 6334.9 L 69031.9 6334.9 Q 71777.4 6334.9 73097.9 7389.4 Q 75064.4 8947.4 75064.4 12272.4 Q 75064.4 15720.9 73344.9 17259.9 Q 72565.9 17953.4 71601.65 18238.4 Q 70637.4 18523.4 69041.4 18523.4 L 65003.9 18523.4 L 66305.4 17525.9 L 66305.4 7435.95 L 65288.9 6334.9 Z M 68167.4 7142.4 L 68167.4 17791.9 L 68689.9 17791.9 L 68689.9 7767.5 Q 69183.9 7691.5 69592.4 7691.5 Q 70371.4 7691.5 70822.65 7848.25 Q 71273.9 8004.05 71729.9 8421.1 Q 70722.9 7948 69573.4 7948 Q 69326.4 7948 68927.4 7986 L 68927.4 17791.9 Q 69991.4 17791.9 70542.4 17616.15 Q 71093.4 17440.4 71587.4 16937.85 Q 72964.9 15542.3 72964.9 12248.65 Q 72964.9 9031 71473.4 7853.95 Q 70570.9 7142.4 68613.9 7142.4 L 68167.4 7142.4 Z M 65592.9 19302.4 L 65450.4 19074.4 L 68927.4 19074.4 Q 71492.4 19074.4 72822.4 18360 Q 75681.9 16836.2 75681.9 12465.25 Q 75681.9 9541.15 74399.4 8121.85 L 74019.4 7702.9 Q 74000.4 7683.9 73905.4 7569.9 Q 75919.4 8833.4 75919.4 12405.4 Q 75919.4 16157.9 73924.4 17934.4 Q 72394.9 19302.4 68927.4 19302.4 L 65592.9 19302.4 Z M 87026.7 6334.9 L 86874.7 6516.35 Q 85905.7 7708.6 85335.7 9253.3 Q 85240.7 9036.7 85193.2 8933.15 Q 84670.7 7801.7 84072.2 7472.05 Q 83473.7 7142.4 81925.2 7142.4 Q 81212.7 7142.4 80215.2 7189.9 L 80215.2 11531.4 L 80823.2 11531.4 L 80823.2 7688.65 Q 81545.2 7623.1 82200.7 7623.1 Q 83407.2 7623.1 83977.2 7877.7 Q 84547.2 8132.3 84993.7 8867.6 Q 84860.7 8773.55 84803.7 8726.05 Q 84034.2 8124.7 83692.2 8011.65 Q 83350.2 7898.6 82343.2 7898.6 Q 82039.2 7898.6 81260.2 7934.7 L 81060.7 7943.25 L 81060.7 11531.4 L 82808.7 11531.4 L 84034.2 9856.55 L 84034.2 13944.4 L 82808.7 12357.9 L 80215.2 12357.9 L 80215.2 17687.4 L 80823.2 17687.4 L 80823.2 12804.4 L 82884.7 12804.4 L 83131.7 13051.4 L 81060.7 13051.4 L 81060.7 17687.4 Q 82998.7 17687.4 83815.7 17411.9 Q 84632.7 17136.4 85098.2 16328.9 L 85601.7 15464.4 Q 85630.2 15407.4 85715.7 15255.4 Q 85962.7 16300.4 86328.45 16927.4 Q 86694.2 17554.4 87539.7 18390.4 L 76890.2 18390.4 L 78334.2 17288.4 L 78334.2 13051.4 Q 77536.2 13146.4 76890.2 13545.4 L 76757.2 13345.9 Q 77336.7 12927.9 78334.2 12804.4 L 78334.2 12357.9 Q 78172.7 12338.9 78106.2 12338.9 Q 77137.2 12338.9 76339.2 13051.4 Q 76776.2 11531.4 78334.2 11531.4 L 78334.2 7500.55 L 76890.2 6334.9 L 87026.7 6334.9 Z M 87482.7 6961.9 L 87416.2 7047.4 Q 86257.2 8605.4 85867.7 9659.9 L 85706.2 9460.4 Q 86342.7 7987.9 87349.7 6762.4 L 87482.7 6961.9 Z M 84689.7 10163.4 L 84689.7 14362.4 L 84452.2 14238.9 L 84452.2 10039.9 L 84689.7 10163.4 Z M 88622.7 18474 L 88128.7 19302.4 L 77754.7 19302.4 L 77602.7 19074.4 L 88005.2 19074.4 L 88328.2 18474 Q 86960.2 17205.75 86399.7 15766.5 L 86703.7 15880.5 Q 87226.2 17101.25 88470.7 18321.05 L 88622.7 18474 Z M 102596.4 6439.4 Q 102102.4 7104.4 101807.9 7826.4 Q 101228.4 9251.4 101038.4 9574.4 L 100990.9 9631.4 Q 100952.9 9526.9 100933.9 9469.9 Q 100667.9 8614.9 100496.9 8282.4 Q 100325.9 7949.9 99983.9 7645.9 Q 99119.4 6876.4 98017.4 6876.4 Q 97000.9 6876.4 96326.4 7441.65 Q 95651.9 8006.9 95651.9 8861.9 Q 95651.9 10457.9 98055.4 11037.4 L 99660.9 11426.9 Q 103090.4 12253.4 103090.4 15046.4 Q 103090.4 16604.4 101917.15 17663.65 Q 100743.9 18722.9 99014.9 18722.9 Q 97931.9 18722.9 96592.4 18390.4 L 95480.9 18114.9 Q 94806.4 17953.4 94369.4 17953.4 Q 93789.9 17953.4 93172.4 18323.9 L 93096.4 18190.9 Q 94274.4 16414.4 94749.4 14808.9 L 94920.4 14856.4 Q 95119.9 16347.9 96117.4 17174.4 Q 97114.9 18000.9 98729.9 18000.9 Q 100002.9 18000.9 100753.4 17411.9 Q 101503.9 16822.9 101503.9 15825.4 Q 101503.9 14675.9 100458.9 13925.4 Q 99708.4 13393.4 97380.9 12937.4 Q 95585.4 12585.9 94777.9 11768.9 Q 93970.4 10951.9 93970.4 9498.4 Q 93970.4 7997.4 95048.65 7061.65 Q 96126.9 6125.9 97855.9 6125.9 Q 98967.4 6125.9 100449.4 6524.9 Q 101142.9 6714.9 101475.4 6714.9 Q 101940.9 6714.9 102491.9 6391.9 L 102596.4 6439.4 Z M 103185.4 6841.25 L 103099.9 6987.55 Q 102710.4 7658.25 102434.9 8271.95 Q 101769.9 9701.7 101684.4 9867 L 101636.9 9935.4 L 101408.9 9838.5 L 101446.9 9750.15 Q 101722.4 9107.95 102244.9 8077.2 L 102890.9 6793.75 L 102938.4 6717.75 L 103185.4 6841.25 Z M 100411.4 8728.9 Q 99366.4 7617.4 98169.4 7617.4 Q 97447.4 7617.4 96972.4 8035.4 Q 96497.4 8453.4 96497.4 9099.4 Q 96497.4 9802.4 97456.9 10543.4 L 97532.9 10590.9 L 97485.4 10666.9 Q 96231.4 10106.4 96231.4 9042.4 Q 96231.4 8301.4 96763.4 7835.9 Q 97295.4 7370.4 98150.4 7370.4 Q 98967.4 7370.4 99580.15 7717.15 Q 100192.9 8063.9 100477.9 8690.9 L 100411.4 8728.9 Z M 102596.4 12500.4 Q 103888.4 13478.9 103888.4 15179.4 Q 103888.4 16993.9 102482.4 18252.65 Q 101076.4 19511.4 99062.4 19511.4 Q 98036.4 19511.4 97209.9 19302.4 L 95689.9 18931.9 Q 95157.9 18798.9 94549.9 18798.9 Q 94008.4 18798.9 93552.4 19017.4 L 93438.4 18741.9 Q 93932.4 18513.9 94445.4 18513.9 Q 95015.4 18513.9 95746.9 18684.9 L 97209.9 19036.4 Q 98083.9 19245.4 99052.9 19245.4 Q 100952.9 19245.4 102287.65 18034.15 Q 103622.4 16822.9 103622.4 15103.4 Q 103622.4 13649.9 102596.4 12557.4 L 102596.4 12500.4 Z M 95832.4 15236.4 Q 96183.9 16946.4 97713.4 17658.9 L 97713.4 17734.9 Q 95946.4 17221.9 95575.9 15283.9 L 95832.4 15236.4 Z M 94644.9 12158.4 L 94967.9 12338.9 Q 95281.4 12899.4 96801.4 13269.9 L 98330.9 13649.9 Q 99888.9 14039.4 100406.65 14319.65 Q 100924.4 14599.9 101142.9 15169.9 L 101076.4 15207.9 Q 100648.9 14713.9 100150.15 14485.9 Q 99651.4 14257.9 98235.9 13925.4 Q 96183.9 13450.4 95480.9 13103.65 Q 94777.9 12756.9 94644.9 12158.4  Z M 120473.4 3076.4 Q 119152.9 4529.9 118483.15 5973.9 Q 117813.4 7417.9 116901.4 10752.4 L 115257.9 16737.4 L 115447.9 17478.4 L 116616.4 18523.4 L 112284.4 18523.4 L 113528.9 17478.4 L 111847.4 11388.9 L 110213.4 17345.4 L 111847.4 19302.4 L 106992.9 19302.4 L 106802.9 19074.4 L 111324.9 19074.4 L 109899.9 17402.4 L 111695.4 10904.4 L 111381.9 9773.9 L 109434.4 16889.4 L 109586.4 17478.4 L 110697.9 18523.4 L 106356.4 18523.4 L 107648.4 17478.4 L 104883.9 7531.9 L 103458.9 6334.9 L 108104.4 6334.9 L 106802.9 7531.9 L 108978.4 15359.9 L 109310.9 14210.4 L 107477.4 7674.4 L 108341.9 6904.9 L 108560.4 7056.9 L 107771.9 7759.9 L 109434.4 13735.4 L 111467.4 6334.9 L 112360.4 6334.9 L 114830.4 15283.9 L 115134.4 14210.4 L 112949.4 6334.9 L 113215.4 6334.9 L 115257.9 13735.4 L 116150.9 10524.4 Q 116986.9 7503.4 116986.9 6591.4 Q 116986.9 5574.9 116036.9 4995.4 Q 117148.4 4643.9 118421.4 4035.9 Q 119694.4 3427.9 120321.4 2943.4 L 120473.4 3076.4 Z M 121043.4 3798.4 Q 119903.4 5054.3 119167.15 6634.15 Q 118430.9 8214 117661.4 11049.75 L 115979.9 17196.25 L 117803.9 19302.4 L 112930.4 19302.4 L 112711.9 19074.4 L 117224.4 19074.4 L 115685.4 17292.2 L 117433.4 10916.75 Q 118212.4 8081 118924.9 6553.4 Q 119637.4 5025.8 120824.9 3636.9 L 121043.4 3798.4 Z M 119787.9 6334.9 L 124290.9 6334.9 L 123017.9 7626.9 L 123017.9 17516.4 L 124214.9 18523.4 L 119787.9 18523.4 L 121108.4 17430.9 L 121108.4 7522.4 L 119787.9 6334.9 Z M 124718.4 6876.4 L 123749.4 7835.9 L 123749.4 17539.2 L 125345.4 19302.4 L 120405.4 19302.4 L 120167.9 19074.4 L 124784.9 19074.4 L 123483.4 17635.15 L 123483.4 7750.4 L 124556.9 6686.4 L 124718.4 6876.4 Z M 136319.6 6334.9 Q 136234.1 6496.4 136205.6 6552.45 L 135559.6 7689.6 Q 135227.1 8295.7 134942.1 9205.8 L 134923.1 9252.35 L 134828.1 9184.9 L 134799.6 9059.5 Q 134524.1 7957.5 134015.85 7531.9 Q 133507.6 7106.3 132462.6 7106.3 Q 132035.1 7106.3 131607.6 7142.4 L 131493.6 7142.4 L 131493.6 17487.9 L 132614.6 18523.4 L 128273.1 18523.4 L 129603.1 17411.9 L 129603.1 7926.15 L 128928.6 7911.9 Q 127950.1 7911.9 127536.85 8305.2 Q 127123.6 8698.5 127047.6 9688.4 L 126800.6 9688.4 Q 126905.1 8556 127375.35 8110.45 Q 127845.6 7664.9 128928.6 7664.9 L 129498.6 7674.4 L 129603.1 7674.4 L 129603.1 7200.35 Q 129118.6 7142.4 128681.6 7142.4 Q 127456.1 7142.4 126914.6 7650.65 Q 126373.1 8158.9 126316.1 9369.2 L 126202.1 9369.2 Q 125793.6 8050.6 124938.6 6429.9 L 124881.6 6334.9 L 136319.6 6334.9 Z M 136918.1 7066.4 Q 136262.6 7902.4 135540.6 9840.4 L 135502.6 9935.4 L 135293.6 9754.9 L 135322.1 9669.4 Q 136025.1 7702.9 136680.6 6933.4 L 136728.1 6876.4 L 136918.1 7066.4 Z M 134381.6 8415.4 Q 133650.1 7940.4 132671.6 7940.4 Q 132453.1 7940.4 132215.6 7968.9 L 132253.6 17539.2 L 133764.1 19302.4 L 128909.6 19302.4 L 128691.1 19074.4 L 133241.6 19074.4 L 131968.6 17616.15 L 131968.6 7693.4 L 132481.6 7683.9 Q 133403.1 7683.9 133787.85 7831.15 Q 134172.6 7978.4 134381.6 8415.4  Z M 146924.4 6629.4 L 146819.9 6809.9 Q 145964.9 8301.4 145337.9 9792.9 L 145252.4 10011.4 L 145128.9 9944.9 Q 144910.4 8500.9 144112.4 7655.4 Q 143314.4 6809.9 142183.9 6809.9 Q 140977.4 6809.9 140169.9 7864.4 Q 139153.4 9175.4 139153.4 12310.4 Q 139153.4 15008.4 140089.15 16537.9 Q 141024.9 18067.4 142687.4 18067.4 Q 144017.4 18067.4 144810.65 17179.15 Q 145603.9 16290.9 145755.9 14637.9 Q 145793.9 14238.9 146078.9 14238.9 Q 146449.4 14238.9 146449.4 14856.4 Q 146449.4 15777.9 146031.4 16765.9 Q 145147.9 18855.9 142383.4 18855.9 Q 139913.4 18855.9 138459.9 17122.15 Q 137006.4 15388.4 137006.4 12433.9 Q 137006.4 9707.4 138516.9 7864.4 Q 140027.4 6021.4 142269.4 6021.4 Q 143333.4 6021.4 144691.9 6543.9 Q 145404.4 6819.4 145869.9 6819.4 Q 146373.4 6819.4 146772.4 6543.9 L 146924.4 6629.4 Z M 144169.4 8272.9 Q 143304.9 7579.4 142535.4 7579.4 Q 140074.9 7579.4 140074.9 12272.4 Q 140074.9 14409.9 140644.9 15830.15 Q 141214.9 17250.4 142250.4 17668.4 L 142250.4 17763.4 Q 141129.4 17535.4 140459.65 16039.15 Q 139789.9 14542.9 139789.9 12253.4 Q 139789.9 7341.9 142487.9 7341.9 Q 143399.9 7341.9 144169.4 8149.4 L 144169.4 8272.9 Z M 147266.4 14799.4 Q 147114.4 17155.4 145950.65 18385.65 Q 144786.9 19615.9 142696.9 19615.9 Q 141110.4 19615.9 139742.4 18637.4 L 139742.4 18561.4 Q 140958.4 19359.4 142677.9 19359.4 Q 144558.9 19359.4 145746.4 18152.9 Q 146325.9 17563.9 146601.4 16832.4 Q 146876.9 16100.9 146971.9 14894.4 L 146990.9 14675.9 L 147266.4 14799.4 Z M 147617.9 7086.35 L 147513.4 7268.75 Q 146477.9 9050 145860.4 10514.9 L 145603.9 10390.45 L 145708.4 10151.05 Q 146183.4 9145 146544.4 8484.75 L 147304.4 7124.35 L 147399.4 6953.35 L 147617.9 7086.35 Z M 148483.1 6334.9 L 152948.1 6334.9 L 151656.1 7598.4 L 151656.1 11702.4 Q 151874.6 11740.4 152169.1 11759.4 L 152169.1 7693.4 L 153204.6 6667.4 L 153394.6 6838.4 L 152416.1 7807.4 L 152416.1 11768.9 L 152729.6 11797.4 Q 153461.1 11863.9 154145.1 11863.9 Q 155133.1 11863.9 155845.6 11768.9 L 155845.6 7398.9 L 154686.6 6334.9 L 159075.6 6334.9 L 157764.6 7598.4 L 157764.6 17497.4 L 158914.1 18523.4 L 154544.1 18523.4 L 155845.6 17411.9 L 155845.6 13383.9 Q 155047.6 13573.9 154202.1 13573.9 Q 153404.1 13573.9 152549.1 13488.4 L 152416.1 13478.9 L 152416.1 17497.4 L 153983.6 19302.4 L 149072.1 19302.4 L 148825.1 19074.4 L 153461.1 19074.4 L 152169.1 17630.4 L 152169.1 13260.4 L 152444.6 13279.4 Q 153698.6 13374.4 154259.1 13374.4 Q 155171.1 13374.4 155845.6 13127.4 L 155845.6 12785.4 Q 154952.6 12918.4 153765.1 12918.4 Q 153128.6 12918.4 152834.1 12889.9 L 151874.6 12804.4 Q 151817.6 12794.9 151656.1 12785.4 L 151656.1 17497.4 L 152872.1 18523.4 L 148483.1 18523.4 L 149756.1 17411.9 L 149756.1 13260.4 Q 148958.1 13260.4 148483.1 13887.4 L 148283.6 13792.4 Q 148834.6 13098.9 149756.1 13022.9 L 149756.1 12671.4 Q 148692.1 12671.4 148074.6 13478.9 L 147932.1 13383.9 Q 148492.6 12015.9 149756.1 11768.9 L 149756.1 7493.9 L 148483.1 6334.9 Z M 159474.6 6866.9 L 158505.6 7807.4 L 158505.6 17520.2 L 160082.6 19302.4 L 155152.1 19302.4 L 154914.6 19074.4 L 159541.1 19074.4 L 158268.1 17635.15 L 158268.1 7712.4 L 159322.6 6667.4 L 159474.6 6866.9 Z " fill-rule="nonzero" style="fill:#0766d2;;fill-opacity:1;"/>
</svg>