<svg version="1.1" x="0" y="0" width="100%" height="100%" viewBox="0 0 204800 71987.2" xmlns="http://www.w3.org/2000/svg">
  <path d="M 11948 14973.8 L 12173 19758.8 L 11663 19758.8 Q 10748 17628.8 9765.5 16848.8 Q 8783 16068.8 7808 16068.8 Q 7193 16068.8 6758 16481.3 Q 6323 16893.8 6323 17433.8 Q 6323 17838.8 6623 18213.8 Q 7103 18828.8 9308 20321.3 Q 11513 21813.8 12210.5 22856.3 Q 12908 23898.8 12908 25188.8 Q 12908 26358.8 12323 27483.8 Q 11738 28608.8 10673 29208.8 Q 9608 29808.8 8318 29808.8 Q 7313 29808.8 5633 29178.8 Q 5183 29013.8 5018 29013.8 Q 4523 29013.8 4193 29763.8 L 3698 29763.8 L 3458 24723.8 L 3968 24723.8 Q 4643 26703.8 5820.5 27693.8 Q 6998 28683.8 8048 28683.8 Q 8768 28683.8 9225.5 28241.3 Q 9683 27798.8 9683 27168.8 Q 9683 26448.8 9233 25923.8 Q 8783 25398.8 7223 24333.8 Q 4928 22743.8 4253 21903.8 Q 3263 20673.8 3263 19188.8 Q 3263 17568.8 4380.5 16256.3 Q 5498 14943.8 7613 14943.8 Q 8753 14943.8 9818 15498.8 Q 10223 15723.8 10478 15723.8 Q 10748 15723.8 10913 15611.3 Q 11078 15498.8 11438 14973.8 L 11948 14973.8 Z M 18387.6 8568.8 Q 19362.6 8568.8 20037.6 9251.3 Q 20712.6 9933.8 20712.6 10893.8 Q 20712.6 11853.8 20030.1 12528.8 Q 19347.6 13203.8 18387.6 13203.8 Q 17427.6 13203.8 16752.6 12528.8 Q 16077.6 11853.8 16077.6 10893.8 Q 16077.6 9933.8 16752.6 9251.3 Q 17427.6 8568.8 18387.6 8568.8  Z M 20487.6 15363.8 L 20487.6 26478.8 Q 20487.6 27963.8 20832.6 28376.3 Q 21177.6 28788.8 22182.6 28848.8 L 22182.6 29388.8 L 14607.6 29388.8 L 14607.6 28848.8 Q 15537.6 28818.8 15987.6 28308.8 Q 16287.6 27963.8 16287.6 26478.8 L 16287.6 18288.8 Q 16287.6 16803.8 15942.6 16391.3 Q 15597.6 15978.8 14607.6 15918.8 L 14607.6 15363.8 L 20487.6 15363.8 Z M 30636.8 20118.8 L 30636.8 25818.8 Q 30636.8 27468.8 30839.3 27896.3 Q 31041.8 28323.8 31551.8 28578.8 Q 32061.8 28833.8 33456.8 28833.8 L 33456.8 29388.8 L 23046.8 29388.8 L 23046.8 28833.8 Q 24456.8 28833.8 24959.3 28571.3 Q 25461.8 28308.8 25664.3 27888.8 Q 25866.8 27468.8 25866.8 25818.8 L 25866.8 12618.8 Q 25866.8 10968.8 25664.3 10541.3 Q 25461.8 10113.8 24951.8 9858.8 Q 24441.8 9603.8 23046.8 9603.8 L 23046.8 9048.8 L 32496.8 9048.8 Q 36186.8 9048.8 37896.8 9558.8 Q 39606.8 10068.8 40686.8 11441.3 Q 41766.8 12813.8 41766.8 14658.8 Q 41766.8 16908.8 40146.8 18378.8 Q 39111.8 19308.8 37251.8 19773.8 L 42141.8 26658.8 Q 43101.8 27993.8 43506.8 28323.8 Q 44121.8 28788.8 44931.8 28833.8 L 44931.8 29388.8 L 38526.8 29388.8 L 31971.8 20118.8 L 30636.8 20118.8 Z M 30636.8 10143.8 L 30636.8 19053.8 L 31491.8 19053.8 Q 33576.8 19053.8 34611.8 18671.3 Q 35646.8 18288.8 36239.3 17291.3 Q 36831.8 16293.8 36831.8 14688.8 Q 36831.8 12363.8 35744.3 11253.8 Q 34656.8 10143.8 32241.8 10143.8 L 30636.8 10143.8 Z M 52296.4 9048.8 L 62331.4 21663.8 L 62331.4 12918.8 Q 62331.4 11088.8 61806.4 10443.8 Q 61086.4 9573.8 59391.4 9603.8 L 59391.4 9048.8 L 66111.4 9048.8 L 66111.4 9603.8 Q 64821.4 9768.8 64378.9 10031.3 Q 63936.4 10293.8 63688.9 10886.3 Q 63441.4 11478.8 63441.4 12918.8 L 63441.4 29853.8 L 62931.4 29853.8 L 49176.4 12918.8 L 49176.4 25848.8 Q 49176.4 27603.8 49978.9 28218.8 Q 50781.4 28833.8 51816.4 28833.8 L 52296.4 28833.8 L 52296.4 29388.8 L 45081.4 29388.8 L 45081.4 28833.8 Q 46761.4 28818.8 47421.4 28143.8 Q 48081.4 27468.8 48081.4 25848.8 L 48081.4 11493.8 L 47646.4 10953.8 Q 47001.4 10143.8 46506.4 9888.8 Q 46011.4 9633.8 45081.4 9603.8 L 45081.4 9048.8 L 52296.4 9048.8 Z M 79596 23598.8 L 72411 23598.8 L 71556 25578.8 Q 71136 26568.8 71136 27213.8 Q 71136 28068.8 71826 28473.8 Q 72231 28713.8 73821 28833.8 L 73821 29388.8 L 67056 29388.8 L 67056 28833.8 Q 68151 28668.8 68856 27926.3 Q 69561 27183.8 70596 24858.8 L 77871 8628.8 L 78156 8628.8 L 85491 25308.8 Q 86541 27678.8 87216 28293.8 Q 87726 28758.8 88656 28833.8 L 88656 29388.8 L 78816 29388.8 L 78816 28833.8 L 79221 28833.8 Q 80406 28833.8 80886 28503.8 Q 81216 28263.8 81216 27813.8 Q 81216 27543.8 81126 27258.8 Q 81096 27123.8 80676 26133.8 L 79596 23598.8 Z M 79086 22488.8 L 76056 15483.8 L 72936 22488.8 L 79086 22488.8 Z M 103130.6 27963.8 L 103130.6 33183.8 Q 103130.6 34263.8 103303.1 34653.8 Q 103475.6 35043.8 103835.6 35223.8 Q 104195.6 35403.8 105245.6 35403.8 L 105245.6 35958.8 L 97250.6 35958.8 L 97250.6 35403.8 Q 98180.6 35373.8 98630.6 34878.8 Q 98930.6 34533.8 98930.6 33093.8 L 98930.6 18288.8 Q 98930.6 16803.8 98585.6 16391.3 Q 98240.6 15978.8 97250.6 15918.8 L 97250.6 15363.8 L 103130.6 15363.8 L 103130.6 17208.8 Q 103865.6 16128.8 104630.6 15648.8 Q 105725.6 14943.8 107015.6 14943.8 Q 108560.6 14943.8 109828.1 15918.8 Q 111095.6 16893.8 111755.6 18611.3 Q 112415.6 20328.8 112415.6 22308.8 Q 112415.6 24438.8 111733.1 26201.3 Q 111050.6 27963.8 109753.1 28886.3 Q 108455.6 29808.8 106865.6 29808.8 Q 105710.6 29808.8 104705.6 29298.8 Q 103955.6 28908.8 103130.6 27963.8  Z M 103130.6 26448.8 Q 104420.6 28278.8 105890.6 28278.8 Q 106700.6 28278.8 107225.6 27423.8 Q 108005.6 26163.8 108005.6 22623.8 Q 108005.6 18993.8 107150.6 17658.8 Q 106580.6 16773.8 105620.6 16773.8 Q 104105.6 16773.8 103130.6 18963.8 L 103130.6 26448.8 Z M 120240.2 9048.8 L 120240.2 26478.8 Q 120240.2 27963.8 120585.2 28376.3 Q 120930.2 28788.8 121935.2 28848.8 L 121935.2 29388.8 L 114360.2 29388.8 L 114360.2 28848.8 Q 115290.2 28818.8 115740.2 28308.8 Q 116040.2 27963.8 116040.2 26478.8 L 116040.2 11958.8 Q 116040.2 10488.8 115695.2 10076.3 Q 115350.2 9663.8 114360.2 9603.8 L 114360.2 9048.8 L 120240.2 9048.8 Z M 130989.4 27318.8 Q 128424.4 29583.8 126384.4 29583.8 Q 125184.4 29583.8 124389.4 28796.3 Q 123594.4 28008.8 123594.4 26823.8 Q 123594.4 25218.8 124974.4 23936.3 Q 126354.4 22653.8 130989.4 20523.8 L 130989.4 19113.8 Q 130989.4 17523.8 130816.9 17111.3 Q 130644.4 16698.8 130164.4 16391.3 Q 129684.4 16083.8 129084.4 16083.8 Q 128109.4 16083.8 127479.4 16518.8 Q 127089.4 16788.8 127089.4 17148.8 Q 127089.4 17463.8 127509.4 17928.8 Q 128079.4 18573.8 128079.4 19173.8 Q 128079.4 19908.8 127531.9 20426.3 Q 126984.4 20943.8 126099.4 20943.8 Q 125154.4 20943.8 124516.9 20373.8 Q 123879.4 19803.8 123879.4 19038.8 Q 123879.4 17958.8 124734.4 16976.3 Q 125589.4 15993.8 127119.4 15468.8 Q 128649.4 14943.8 130299.4 14943.8 Q 132294.4 14943.8 133456.9 15791.3 Q 134619.4 16638.8 134964.4 17628.8 Q 135174.4 18258.8 135174.4 20523.8 L 135174.4 25968.8 Q 135174.4 26928.8 135249.4 27176.3 Q 135324.4 27423.8 135474.4 27543.8 Q 135624.4 27663.8 135819.4 27663.8 Q 136209.4 27663.8 136614.4 27108.8 L 137064.4 27468.8 Q 136314.4 28578.8 135511.9 29081.3 Q 134709.4 29583.8 133689.4 29583.8 Q 132489.4 29583.8 131814.4 29021.3 Q 131139.4 28458.8 130989.4 27318.8  Z M 130989.4 26223.8 L 130989.4 21528.8 Q 129174.4 22593.8 128289.4 23808.8 Q 127704.4 24618.8 127704.4 25443.8 Q 127704.4 26133.8 128199.4 26658.8 Q 128574.4 27063.8 129249.4 27063.8 Q 129999.4 27063.8 130989.4 26223.8  Z M 147474.4 14973.8 L 147699.4 19758.8 L 147189.4 19758.8 Q 146274.4 17628.8 145291.9 16848.8 Q 144309.4 16068.8 143334.4 16068.8 Q 142719.4 16068.8 142284.4 16481.3 Q 141849.4 16893.8 141849.4 17433.8 Q 141849.4 17838.8 142149.4 18213.8 Q 142629.4 18828.8 144834.4 20321.3 Q 147039.4 21813.8 147736.9 22856.3 Q 148434.4 23898.8 148434.4 25188.8 Q 148434.4 26358.8 147849.4 27483.8 Q 147264.4 28608.8 146199.4 29208.8 Q 145134.4 29808.8 143844.4 29808.8 Q 142839.4 29808.8 141159.4 29178.8 Q 140709.4 29013.8 140544.4 29013.8 Q 140049.4 29013.8 139719.4 29763.8 L 139224.4 29763.8 L 138984.4 24723.8 L 139494.4 24723.8 Q 140169.4 26703.8 141346.9 27693.8 Q 142524.4 28683.8 143574.4 28683.8 Q 144294.4 28683.8 144751.9 28241.3 Q 145209.4 27798.8 145209.4 27168.8 Q 145209.4 26448.8 144759.4 25923.8 Q 144309.4 25398.8 142749.4 24333.8 Q 140454.4 22743.8 139779.4 21903.8 Q 138789.4 20673.8 138789.4 19188.8 Q 138789.4 17568.8 139906.9 16256.3 Q 141024.4 14943.8 143139.4 14943.8 Q 144279.4 14943.8 145344.4 15498.8 Q 145749.4 15723.8 146004.4 15723.8 Q 146274.4 15723.8 146439.4 15611.3 Q 146604.4 15498.8 146964.4 14973.8 L 147474.4 14973.8 Z M 156359 15363.8 L 156359 17208.8 Q 157514 15948.8 158496.5 15446.3 Q 159479 14943.8 160649 14943.8 Q 161999 14943.8 162914 15573.8 Q 163829 16203.8 164324 17493.8 Q 165524 16143.8 166626.5 15543.8 Q 167729 14943.8 168929 14943.8 Q 170384 14943.8 171246.5 15611.3 Q 172109 16278.8 172446.5 17306.3 Q 172784 18333.8 172784 20583.8 L 172784 26328.8 Q 172784 27948.8 173076.5 28338.8 Q 173369 28728.8 174299 28848.8 L 174299 29388.8 L 167054 29388.8 L 167054 28848.8 Q 167909 28773.8 168314 28188.8 Q 168584 27783.8 168584 26328.8 L 168584 20298.8 Q 168584 18423.8 168434 17913.8 Q 168284 17403.8 167961.5 17156.3 Q 167639 16908.8 167204 16908.8 Q 166559 16908.8 165899 17381.3 Q 165239 17853.8 164564 18798.8 L 164564 26328.8 Q 164564 27843.8 164819 28233.8 Q 165164 28788.8 166139 28848.8 L 166139 29388.8 L 158879 29388.8 L 158879 28848.8 Q 159464 28818.8 159801.5 28556.3 Q 160139 28293.8 160251.5 27926.3 Q 160364 27558.8 160364 26328.8 L 160364 20298.8 Q 160364 18393.8 160214 17913.8 Q 160064 17433.8 159711.5 17163.8 Q 159359 16893.8 158954 16893.8 Q 158354 16893.8 157859 17208.8 Q 157154 17673.8 156359 18798.8 L 156359 26328.8 Q 156359 27813.8 156651.5 28286.3 Q 156944 28758.8 157874 28848.8 L 157874 29388.8 L 150644 29388.8 L 150644 28848.8 Q 151529 28758.8 151904 28278.8 Q 152159 27948.8 152159 26328.8 L 152159 18408.8 Q 152159 16818.8 151866.5 16428.8 Q 151574 16038.8 150644 15918.8 L 150644 15363.8 L 156359 15363.8 Z M 179462.8 8568.8 Q 180437.8 8568.8 181112.8 9251.3 Q 181787.8 9933.8 181787.8 10893.8 Q 181787.8 11853.8 181105.3 12528.8 Q 180422.8 13203.8 179462.8 13203.8 Q 178502.8 13203.8 177827.8 12528.8 Q 177152.8 11853.8 177152.8 10893.8 Q 177152.8 9933.8 177827.8 9251.3 Q 178502.8 8568.8 179462.8 8568.8  Z M 181562.8 15363.8 L 181562.8 26478.8 Q 181562.8 27963.8 181907.8 28376.3 Q 182252.8 28788.8 183257.8 28848.8 L 183257.8 29388.8 L 175682.8 29388.8 L 175682.8 28848.8 Q 176612.8 28818.8 177062.8 28308.8 Q 177362.8 27963.8 177362.8 26478.8 L 177362.8 18288.8 Q 177362.8 16803.8 177017.8 16391.3 Q 176672.8 15978.8 175682.8 15918.8 L 175682.8 15363.8 L 181562.8 15363.8 Z M 198222 9048.8 L 198222 25188.8 Q 198222 26823.8 198312 27123.8 Q 198432 27618.8 198769.5 27858.8 Q 199107 28098.8 199947 28158.8 L 199947 28653.8 L 194022 29808.8 L 194022 27588.8 Q 192957 28878.8 192124.5 29343.8 Q 191292 29808.8 190242 29808.8 Q 187557 29808.8 185997 27408.8 Q 184737 25458.8 184737 22623.8 Q 184737 20358.8 185517 18566.3 Q 186297 16773.8 187654.5 15858.8 Q 189012 14943.8 190572 14943.8 Q 191577 14943.8 192357 15333.8 Q 193137 15723.8 194022 16698.8 L 194022 12468.8 Q 194022 10863.8 193887 10533.8 Q 193707 10098.8 193347 9888.8 Q 192987 9678.8 191997 9678.8 L 191997 9048.8 L 198222 9048.8 Z M 194022 18558.8 Q 192912 16428.8 191307 16428.8 Q 190752 16428.8 190392 16728.8 Q 189837 17193.8 189484.5 18363.8 Q 189132 19533.8 189132 21948.8 Q 189132 24603.8 189522 25878.8 Q 189912 27153.8 190587 27723.8 Q 190932 28008.8 191532 28008.8 Q 192852 28008.8 194022 25938.8 L 194022 18558.8 Z M 14528 59719.4 L 14993 60079.4 Q 14003 61939.4 12525.5 62846.9 Q 11048 63754.4 9383 63754.4 Q 6578 63754.4 4898 61639.4 Q 3218 59524.4 3218 56554.4 Q 3218 53689.4 4748 51514.4 Q 6593 48889.4 9833 48889.4 Q 12008 48889.4 13290.5 49984.4 Q 14573 51079.4 14573 52429.4 Q 14573 53284.4 14055.5 53794.4 Q 13538 54304.4 12698 54304.4 Q 11813 54304.4 11235.5 53719.4 Q 10658 53134.4 10523 51634.4 Q 10433 50689.4 10088 50314.4 Q 9743 49939.4 9278 49939.4 Q 8558 49939.4 8048 50704.4 Q 7268 51859.4 7268 54244.4 Q 7268 56224.4 7898 58031.9 Q 8528 59839.4 9623 60724.4 Q 10448 61369.4 11573 61369.4 Q 12308 61369.4 12968 61024.4 Q 13628 60679.4 14528 59719.4  Z M 23317.2 48889.4 Q 25147.2 48889.4 26722.2 49834.4 Q 28297.2 50779.4 29114.7 52519.4 Q 29932.2 54259.4 29932.2 56329.4 Q 29932.2 59314.4 28417.2 61324.4 Q 26587.2 63754.4 23362.2 63754.4 Q 20197.2 63754.4 18487.2 61534.4 Q 16777.2 59314.4 16777.2 56389.4 Q 16777.2 53374.4 18524.7 51131.9 Q 20272.2 48889.4 23317.2 48889.4  Z M 23377.2 49954.4 Q 22612.2 49954.4 22064.7 50531.9 Q 21517.2 51109.4 21344.7 52811.9 Q 21172.2 54514.4 21172.2 57544.4 Q 21172.2 59149.4 21382.2 60544.4 Q 21547.2 61609.4 22087.2 62164.4 Q 22627.2 62719.4 23317.2 62719.4 Q 23992.2 62719.4 24442.2 62344.4 Q 25027.2 61834.4 25222.2 60919.4 Q 25522.2 59494.4 25522.2 55159.4 Q 25522.2 52609.4 25237.2 51656.9 Q 24952.2 50704.4 24397.2 50269.4 Q 24007.2 49954.4 23377.2 49954.4  Z M 37792.2 49309.4 L 37792.2 51124.4 Q 38872.2 49954.4 39862.2 49421.9 Q 40852.2 48889.4 41992.2 48889.4 Q 43357.2 48889.4 44257.2 49646.9 Q 45157.2 50404.4 45457.2 51529.4 Q 45697.2 52384.4 45697.2 54814.4 L 45697.2 60274.4 Q 45697.2 61894.4 45989.7 62291.9 Q 46282.2 62689.4 47212.2 62794.4 L 47212.2 63334.4 L 40117.2 63334.4 L 40117.2 62794.4 Q 40912.2 62689.4 41257.2 62134.4 Q 41497.2 61759.4 41497.2 60274.4 L 41497.2 54034.4 Q 41497.2 52309.4 41362.2 51859.4 Q 41227.2 51409.4 40904.7 51161.9 Q 40582.2 50914.4 40192.2 50914.4 Q 38902.2 50914.4 37792.2 52759.4 L 37792.2 60274.4 Q 37792.2 61849.4 38084.7 62269.4 Q 38377.2 62689.4 39172.2 62794.4 L 39172.2 63334.4 L 32077.2 63334.4 L 32077.2 62794.4 Q 32962.2 62704.4 33337.2 62224.4 Q 33592.2 61894.4 33592.2 60274.4 L 33592.2 52354.4 Q 33592.2 50764.4 33299.7 50374.4 Q 33007.2 49984.4 32077.2 49864.4 L 32077.2 49309.4 L 37792.2 49309.4 Z M 57976.8 48919.4 L 58201.8 53704.4 L 57691.8 53704.4 Q 56776.8 51574.4 55794.3 50794.4 Q 54811.8 50014.4 53836.8 50014.4 Q 53221.8 50014.4 52786.8 50426.9 Q 52351.8 50839.4 52351.8 51379.4 Q 52351.8 51784.4 52651.8 52159.4 Q 53131.8 52774.4 55336.8 54266.9 Q 57541.8 55759.4 58239.3 56801.9 Q 58936.8 57844.4 58936.8 59134.4 Q 58936.8 60304.4 58351.8 61429.4 Q 57766.8 62554.4 56701.8 63154.4 Q 55636.8 63754.4 54346.8 63754.4 Q 53341.8 63754.4 51661.8 63124.4 Q 51211.8 62959.4 51046.8 62959.4 Q 50551.8 62959.4 50221.8 63709.4 L 49726.8 63709.4 L 49486.8 58669.4 L 49996.8 58669.4 Q 50671.8 60649.4 51849.3 61639.4 Q 53026.8 62629.4 54076.8 62629.4 Q 54796.8 62629.4 55254.3 62186.9 Q 55711.8 61744.4 55711.8 61114.4 Q 55711.8 60394.4 55261.8 59869.4 Q 54811.8 59344.4 53251.8 58279.4 Q 50956.8 56689.4 50281.8 55849.4 Q 49291.8 54619.4 49291.8 53134.4 Q 49291.8 51514.4 50409.3 50201.9 Q 51526.8 48889.4 53641.8 48889.4 Q 54781.8 48889.4 55846.8 49444.4 Q 56251.8 49669.4 56506.8 49669.4 Q 56776.8 49669.4 56941.8 49556.9 Q 57106.8 49444.4 57466.8 48919.4 L 57976.8 48919.4 Z M 66606.4 44179.4 L 66606.4 49309.4 L 69936.4 49309.4 L 69936.4 50794.4 L 66606.4 50794.4 L 66606.4 59449.4 Q 66606.4 60664.4 66718.9 61016.9 Q 66831.4 61369.4 67116.4 61586.9 Q 67401.4 61804.4 67641.4 61804.4 Q 68616.4 61804.4 69486.4 60319.4 L 69936.4 60649.4 Q 68721.4 63529.4 65991.4 63529.4 Q 64656.4 63529.4 63733.9 62786.9 Q 62811.4 62044.4 62556.4 61129.4 Q 62406.4 60619.4 62406.4 58369.4 L 62406.4 50794.4 L 60576.4 50794.4 L 60576.4 50269.4 Q 62466.4 48934.4 63793.9 47464.4 Q 65121.4 45994.4 66111.4 44179.4 L 66606.4 44179.4 Z M 77050.2 49309.4 L 77050.2 52489.4 Q 78445.2 50314.4 79495.2 49601.9 Q 80545.2 48889.4 81520.2 48889.4 Q 82360.2 48889.4 82862.7 49406.9 Q 83365.2 49924.4 83365.2 50869.4 Q 83365.2 51874.4 82877.7 52429.4 Q 82390.2 52984.4 81700.2 52984.4 Q 80905.2 52984.4 80320.2 52474.4 Q 79735.2 51964.4 79630.2 51904.4 Q 79480.2 51814.4 79285.2 51814.4 Q 78850.2 51814.4 78460.2 52144.4 Q 77845.2 52654.4 77530.2 53599.4 Q 77050.2 55054.4 77050.2 56809.4 L 77050.2 60034.4 L 77065.2 60874.4 Q 77065.2 61729.4 77170.2 61969.4 Q 77350.2 62374.4 77702.7 62561.9 Q 78055.2 62749.4 78895.2 62794.4 L 78895.2 63334.4 L 71320.2 63334.4 L 71320.2 62794.4 Q 72235.2 62719.4 72557.7 62291.9 Q 72880.2 61864.4 72880.2 60034.4 L 72880.2 52279.4 Q 72880.2 51079.4 72760.2 50749.4 Q 72610.2 50329.4 72325.2 50134.4 Q 72040.2 49939.4 71320.2 49864.4 L 71320.2 49309.4 L 77050.2 49309.4 Z M 98394.4 49309.4 L 98394.4 60289.4 Q 98394.4 61894.4 98694.4 62291.9 Q 98994.4 62689.4 99909.4 62794.4 L 99909.4 63334.4 L 94194.4 63334.4 L 94194.4 61459.4 Q 93189.4 62659.4 92184.4 63206.9 Q 91179.4 63754.4 89934.4 63754.4 Q 88749.4 63754.4 87826.9 63026.9 Q 86904.4 62299.4 86589.4 61324.4 Q 86274.4 60349.4 86274.4 57919.4 L 86274.4 52354.4 Q 86274.4 50764.4 85981.9 50374.4 Q 85689.4 49984.4 84759.4 49864.4 L 84759.4 49309.4 L 90474.4 49309.4 L 90474.4 58894.4 Q 90474.4 60394.4 90616.9 60829.4 Q 90759.4 61264.4 91066.9 61489.4 Q 91374.4 61714.4 91779.4 61714.4 Q 92319.4 61714.4 92754.4 61429.4 Q 93354.4 61039.4 94194.4 59854.4 L 94194.4 52354.4 Q 94194.4 50764.4 93901.9 50374.4 Q 93609.4 49984.4 92679.4 49864.4 L 92679.4 49309.4 L 98394.4 49309.4 Z M 113344 59719.4 L 113809 60079.4 Q 112819 61939.4 111341.5 62846.9 Q 109864 63754.4 108199 63754.4 Q 105394 63754.4 103714 61639.4 Q 102034 59524.4 102034 56554.4 Q 102034 53689.4 103564 51514.4 Q 105409 48889.4 108649 48889.4 Q 110824 48889.4 112106.5 49984.4 Q 113389 51079.4 113389 52429.4 Q 113389 53284.4 112871.5 53794.4 Q 112354 54304.4 111514 54304.4 Q 110629 54304.4 110051.5 53719.4 Q 109474 53134.4 109339 51634.4 Q 109249 50689.4 108904 50314.4 Q 108559 49939.4 108094 49939.4 Q 107374 49939.4 106864 50704.4 Q 106084 51859.4 106084 54244.4 Q 106084 56224.4 106714 58031.9 Q 107344 59839.4 108439 60724.4 Q 109264 61369.4 110389 61369.4 Q 111124 61369.4 111784 61024.4 Q 112444 60679.4 113344 59719.4  Z M 121083.2 44179.4 L 121083.2 49309.4 L 124413.2 49309.4 L 124413.2 50794.4 L 121083.2 50794.4 L 121083.2 59449.4 Q 121083.2 60664.4 121195.7 61016.9 Q 121308.2 61369.4 121593.2 61586.9 Q 121878.2 61804.4 122118.2 61804.4 Q 123093.2 61804.4 123963.2 60319.4 L 124413.2 60649.4 Q 123198.2 63529.4 120468.2 63529.4 Q 119133.2 63529.4 118210.7 62786.9 Q 117288.2 62044.4 117033.2 61129.4 Q 116883.2 60619.4 116883.2 58369.4 L 116883.2 50794.4 L 115053.2 50794.4 L 115053.2 50269.4 Q 116943.2 48934.4 118270.7 47464.4 Q 119598.2 45994.4 120588.2 44179.4 L 121083.2 44179.4 Z M 129082 42514.4 Q 130057 42514.4 130732 43196.9 Q 131407 43879.4 131407 44839.4 Q 131407 45799.4 130724.5 46474.4 Q 130042 47149.4 129082 47149.4 Q 128122 47149.4 127447 46474.4 Q 126772 45799.4 126772 44839.4 Q 126772 43879.4 127447 43196.9 Q 128122 42514.4 129082 42514.4  Z M 131182 49309.4 L 131182 60424.4 Q 131182 61909.4 131527 62321.9 Q 131872 62734.4 132877 62794.4 L 132877 63334.4 L 125302 63334.4 L 125302 62794.4 Q 126232 62764.4 126682 62254.4 Q 126982 61909.4 126982 60424.4 L 126982 52234.4 Q 126982 50749.4 126637 50336.9 Q 126292 49924.4 125302 49864.4 L 125302 49309.4 L 131182 49309.4 Z M 140821.2 48889.4 Q 142651.2 48889.4 144226.2 49834.4 Q 145801.2 50779.4 146618.7 52519.4 Q 147436.2 54259.4 147436.2 56329.4 Q 147436.2 59314.4 145921.2 61324.4 Q 144091.2 63754.4 140866.2 63754.4 Q 137701.2 63754.4 135991.2 61534.4 Q 134281.2 59314.4 134281.2 56389.4 Q 134281.2 53374.4 136028.7 51131.9 Q 137776.2 48889.4 140821.2 48889.4  Z M 140881.2 49954.4 Q 140116.2 49954.4 139568.7 50531.9 Q 139021.2 51109.4 138848.7 52811.9 Q 138676.2 54514.4 138676.2 57544.4 Q 138676.2 59149.4 138886.2 60544.4 Q 139051.2 61609.4 139591.2 62164.4 Q 140131.2 62719.4 140821.2 62719.4 Q 141496.2 62719.4 141946.2 62344.4 Q 142531.2 61834.4 142726.2 60919.4 Q 143026.2 59494.4 143026.2 55159.4 Q 143026.2 52609.4 142741.2 51656.9 Q 142456.2 50704.4 141901.2 50269.4 Q 141511.2 49954.4 140881.2 49954.4  Z M 155296.2 49309.4 L 155296.2 51124.4 Q 156376.2 49954.4 157366.2 49421.9 Q 158356.2 48889.4 159496.2 48889.4 Q 160861.2 48889.4 161761.2 49646.9 Q 162661.2 50404.4 162961.2 51529.4 Q 163201.2 52384.4 163201.2 54814.4 L 163201.2 60274.4 Q 163201.2 61894.4 163493.7 62291.9 Q 163786.2 62689.4 164716.2 62794.4 L 164716.2 63334.4 L 157621.2 63334.4 L 157621.2 62794.4 Q 158416.2 62689.4 158761.2 62134.4 Q 159001.2 61759.4 159001.2 60274.4 L 159001.2 54034.4 Q 159001.2 52309.4 158866.2 51859.4 Q 158731.2 51409.4 158408.7 51161.9 Q 158086.2 50914.4 157696.2 50914.4 Q 156406.2 50914.4 155296.2 52759.4 L 155296.2 60274.4 Q 155296.2 61849.4 155588.7 62269.4 Q 155881.2 62689.4 156676.2 62794.4 L 156676.2 63334.4 L 149581.2 63334.4 L 149581.2 62794.4 Q 150466.2 62704.4 150841.2 62224.4 Q 151096.2 61894.4 151096.2 60274.4 L 151096.2 52354.4 Q 151096.2 50764.4 150803.7 50374.4 Q 150511.2 49984.4 149581.2 49864.4 L 149581.2 49309.4 L 155296.2 49309.4 Z " fill-rule="nonzero" style="fill:#4f6128;;fill-opacity:1;"/>
</svg>