<svg version="1.1" x="0" y="0" width="100%" height="100%" viewBox="0 0 312166.4 81100.8" xmlns="http://www.w3.org/2000/svg">
  <path d="M 18402 9445 L 18589 17129 L 17892 17129 Q 17399 14239 15469.5 12479.5 Q 13540 10720 11296 10720 Q 9562 10720 8550.5 11646.5 Q 7539 12573 7539 13780 Q 7539 14545 7896 15140 Q 8389 15939 9477 16721 Q 10276 17282 13166 18710 Q 17212 20699 18623 22467 Q 20017 24235 20017 26513 Q 20017 29403 17764.5 31485.5 Q 15512 33568 12044 33568 Q 10956 33568 9987 33347 Q 9018 33126 7556 32514 Q 6740 32174 6213 32174 Q 5771 32174 5278 32514 Q 4785 32854 4479 33551 L 3850 33551 L 3850 24847 L 4479 24847 Q 5227 28519 7360.5 30448.5 Q 9494 32378 11959 32378 Q 13863 32378 14993.5 31341 Q 16124 30304 16124 28927 Q 16124 28111 15690.5 27346 Q 15257 26581 14373 25892.5 Q 13489 25204 11245 24099 Q 8100 22552 6723 21464 Q 5346 20376 4606.5 19033 Q 3867 17690 3867 16075 Q 3867 13321 5890 11383 Q 7913 9445 10990 9445 Q 12112 9445 13166 9717 Q 13965 9921 15112.5 10473.5 Q 16260 11026 16719 11026 Q 17161 11026 17416 10754 Q 17671 10482 17892 9445 L 18402 9445 Z M 37925.6 17129 L 37925.6 29573 Q 37925.6 31392 38265.6 31842.5 Q 38605.6 32293 39642.6 32412 L 39642.6 33024 L 33165.6 33024 L 33165.6 30899 Q 32026.6 32259 30887.6 32879.5 Q 29748.6 33500 28337.6 33500 Q 26994.6 33500 25949.1 32675.5 Q 24903.6 31851 24546.6 30746 Q 24189.6 29641 24189.6 26887 L 24189.6 20580 Q 24189.6 18778 23858.1 18336 Q 23526.6 17894 22472.6 17758 L 22472.6 17129 L 28949.6 17129 L 28949.6 27992 Q 28949.6 29692 29111.1 30185 Q 29272.6 30678 29621.1 30933 Q 29969.6 31188 30428.6 31188 Q 31040.6 31188 31533.6 30865 Q 32213.6 30423 33165.6 29080 L 33165.6 20580 Q 33165.6 18778 32834.1 18336 Q 32502.6 17894 31448.6 17758 L 31448.6 17129 L 37925.6 17129 Z M 48082.2 31409 L 48082.2 37325 Q 48082.2 38549 48277.7 38991 Q 48473.2 39433 48881.2 39637 Q 49289.2 39841 50479.2 39841 L 50479.2 40470 L 41418.2 40470 L 41418.2 39841 Q 42472.2 39807 42982.2 39246 Q 43322.2 38855 43322.2 37223 L 43322.2 20444 Q 43322.2 18761 42931.2 18293.5 Q 42540.2 17826 41418.2 17758 L 41418.2 17129 L 48082.2 17129 L 48082.2 19220 Q 48915.2 17996 49782.2 17452 Q 51023.2 16653 52485.2 16653 Q 54236.2 16653 55672.7 17758 Q 57109.2 18863 57857.2 20809.5 Q 58605.2 22756 58605.2 25000 Q 58605.2 27414 57831.7 29411.5 Q 57058.2 31409 55587.7 32454.5 Q 54117.2 33500 52315.2 33500 Q 51006.2 33500 49867.2 32922 Q 49017.2 32480 48082.2 31409  Z M 48082.2 29692 Q 49544.2 31766 51210.2 31766 Q 52128.2 31766 52723.2 30797 Q 53607.2 29369 53607.2 25357 Q 53607.2 21243 52638.2 19730 Q 51992.2 18727 50904.2 18727 Q 49187.2 18727 48082.2 21209 L 48082.2 29692 Z M 67435.8 31409 L 67435.8 37325 Q 67435.8 38549 67631.3 38991 Q 67826.8 39433 68234.8 39637 Q 68642.8 39841 69832.8 39841 L 69832.8 40470 L 60771.8 40470 L 60771.8 39841 Q 61825.8 39807 62335.8 39246 Q 62675.8 38855 62675.8 37223 L 62675.8 20444 Q 62675.8 18761 62284.8 18293.5 Q 61893.8 17826 60771.8 17758 L 60771.8 17129 L 67435.8 17129 L 67435.8 19220 Q 68268.8 17996 69135.8 17452 Q 70376.8 16653 71838.8 16653 Q 73589.8 16653 75026.3 17758 Q 76462.8 18863 77210.8 20809.5 Q 77958.8 22756 77958.8 25000 Q 77958.8 27414 77185.3 29411.5 Q 76411.8 31409 74941.3 32454.5 Q 73470.8 33500 71668.8 33500 Q 70359.8 33500 69220.8 32922 Q 68370.8 32480 67435.8 31409  Z M 67435.8 29692 Q 68897.8 31766 70563.8 31766 Q 71481.8 31766 72076.8 30797 Q 72960.8 29369 72960.8 25357 Q 72960.8 21243 71991.8 19730 Q 71345.8 18727 70257.8 18727 Q 68540.8 18727 67435.8 21209 L 67435.8 29692 Z M 88132.4 16653 Q 90206.4 16653 91991.4 17724 Q 93776.4 18795 94702.9 20767 Q 95629.4 22739 95629.4 25085 Q 95629.4 28468 93912.4 30746 Q 91838.4 33500 88183.4 33500 Q 84596.4 33500 82658.4 30984 Q 80720.4 28468 80720.4 25153 Q 80720.4 21736 82700.9 19194.5 Q 84681.4 16653 88132.4 16653  Z M 88200.4 17860 Q 87333.4 17860 86712.9 18514.5 Q 86092.4 19169 85896.9 21098.5 Q 85701.4 23028 85701.4 26462 Q 85701.4 28281 85939.4 29862 Q 86126.4 31069 86738.4 31698 Q 87350.4 32327 88132.4 32327 Q 88897.4 32327 89407.4 31902 Q 90070.4 31324 90291.4 30287 Q 90631.4 28672 90631.4 23759 Q 90631.4 20869 90308.4 19789.5 Q 89985.4 18710 89356.4 18217 Q 88914.4 17860 88200.4 17860  Z M 104639.4 17129 L 104639.4 20733 Q 106220.4 18268 107410.4 17460.5 Q 108600.4 16653 109705.4 16653 Q 110657.4 16653 111226.9 17239.5 Q 111796.4 17826 111796.4 18897 Q 111796.4 20036 111243.9 20665 Q 110691.4 21294 109909.4 21294 Q 109008.4 21294 108345.4 20716 Q 107682.4 20138 107563.4 20070 Q 107393.4 19968 107172.4 19968 Q 106679.4 19968 106237.4 20342 Q 105540.4 20920 105183.4 21991 Q 104639.4 23640 104639.4 25629 L 104639.4 29284 L 104656.4 30236 Q 104656.4 31205 104775.4 31477 Q 104979.4 31936 105378.9 32148.5 Q 105778.4 32361 106730.4 32412 L 106730.4 33024 L 98145.4 33024 L 98145.4 32412 Q 99182.4 32327 99547.9 31842.5 Q 99913.4 31358 99913.4 29284 L 99913.4 20495 Q 99913.4 19135 99777.4 18761 Q 99607.4 18285 99284.4 18064 Q 98961.4 17843 98145.4 17758 L 98145.4 17129 L 104639.4 17129 Z M 119761.6 11315 L 119761.6 17129 L 123535.6 17129 L 123535.6 18812 L 119761.6 18812 L 119761.6 28621 Q 119761.6 29998 119889.1 30397.5 Q 120016.6 30797 120339.6 31043.5 Q 120662.6 31290 120934.6 31290 Q 122039.6 31290 123025.6 29607 L 123535.6 29981 Q 122158.6 33245 119064.6 33245 Q 117551.6 33245 116506.1 32403.5 Q 115460.6 31562 115171.6 30525 Q 115001.6 29947 115001.6 27397 L 115001.6 18812 L 112927.6 18812 L 112927.6 18217 Q 115069.6 16704 116574.1 15038 Q 118078.6 13372 119200.6 11315 L 119761.6 11315 Z M 138489.8 24507 L 129768.8 24507 Q 129921.8 27669 131451.8 29505 Q 132624.8 30916 134273.8 30916 Q 135293.8 30916 136126.8 30346.5 Q 136959.8 29777 137911.8 28298 L 138489.8 28672 Q 137197.8 31307 135633.8 32403.5 Q 134069.8 33500 132012.8 33500 Q 128476.8 33500 126657.8 30780 Q 125195.8 28587 125195.8 25340 Q 125195.8 21362 127346.3 19007.5 Q 129496.8 16653 132386.8 16653 Q 134800.8 16653 136577.3 18633.5 Q 138353.8 20614 138489.8 24507  Z M 134307.8 23368 Q 134307.8 20631 134010.3 19611 Q 133712.8 18591 133083.8 18064 Q 132726.8 17758 132131.8 17758 Q 131247.8 17758 130686.8 18625 Q 129683.8 20138 129683.8 22773 L 129683.8 23368 L 134307.8 23368 Z M 155890 9972 L 155890 28264 Q 155890 30117 155992 30457 Q 156128 31018 156510.5 31290 Q 156893 31562 157845 31630 L 157845 32191 L 151130 33500 L 151130 30984 Q 149923 32446 148979.5 32973 Q 148036 33500 146846 33500 Q 143803 33500 142035 30780 Q 140607 28570 140607 25357 Q 140607 22790 141491 20758.5 Q 142375 18727 143913.5 17690 Q 145452 16653 147220 16653 Q 148359 16653 149243 17095 Q 150127 17537 151130 18642 L 151130 13848 Q 151130 12029 150977 11655 Q 150773 11162 150365 10924 Q 149957 10686 148835 10686 L 148835 9972 L 155890 9972 Z M 151130 20750 Q 149872 18336 148053 18336 Q 147424 18336 147016 18676 Q 146387 19203 145987.5 20529 Q 145588 21855 145588 24592 Q 145588 27601 146030 29046 Q 146472 30491 147237 31137 Q 147628 31460 148308 31460 Q 149804 31460 151130 29114 L 151130 20750 Z M 165944.6 9972 L 165944.6 18727 Q 167950.6 16653 170330.6 16653 Q 171962.6 16653 173407.6 17613.5 Q 174852.6 18574 175668.6 20342 Q 176484.6 22110 176484.6 24422 Q 176484.6 27023 175447.6 29148 Q 174410.6 31273 172676.6 32386.5 Q 170942.6 33500 168715.6 33500 Q 167423.6 33500 166420.6 33092 Q 165417.6 32684 164448.6 31766 L 161813.6 33483 L 161235.6 33483 L 161235.6 13270 Q 161235.6 11893 161116.6 11570 Q 160946.6 11094 160581.1 10864.5 Q 160215.6 10635 159348.6 10601 L 159348.6 9972 L 165944.6 9972 Z M 165944.6 20240 L 165944.6 27312 Q 165944.6 29471 166046.6 30066 Q 166216.6 31069 166862.6 31689.5 Q 167508.6 32310 168511.6 32310 Q 169378.6 32310 169999.1 31817 Q 170619.6 31324 171036.1 29862 Q 171452.6 28400 171452.6 24592 Q 171452.6 20937 170534.6 19577 Q 169871.6 18591 168749.6 18591 Q 167287.6 18591 165944.6 20240  Z M 182969.2 9428 Q 184074.2 9428 184839.2 10201.5 Q 185604.2 10975 185604.2 12063 Q 185604.2 13151 184830.7 13916 Q 184057.2 14681 182969.2 14681 Q 181881.2 14681 181116.2 13916 Q 180351.2 13151 180351.2 12063 Q 180351.2 10975 181116.2 10201.5 Q 181881.2 9428 182969.2 9428  Z M 185349.2 17129 L 185349.2 29726 Q 185349.2 31409 185740.2 31876.5 Q 186131.2 32344 187270.2 32412 L 187270.2 33024 L 178685.2 33024 L 178685.2 32412 Q 179739.2 32378 180249.2 31800 Q 180589.2 31409 180589.2 29726 L 180589.2 20444 Q 180589.2 18761 180198.2 18293.5 Q 179807.2 17826 178685.2 17758 L 178685.2 17129 L 185349.2 17129 Z M 196266.8 16653 Q 198340.8 16653 200125.8 17724 Q 201910.8 18795 202837.3 20767 Q 203763.8 22739 203763.8 25085 Q 203763.8 28468 202046.8 30746 Q 199972.8 33500 196317.8 33500 Q 192730.8 33500 190792.8 30984 Q 188854.8 28468 188854.8 25153 Q 188854.8 21736 190835.3 19194.5 Q 192815.8 16653 196266.8 16653  Z M 196334.8 17860 Q 195467.8 17860 194847.3 18514.5 Q 194226.8 19169 194031.3 21098.5 Q 193835.8 23028 193835.8 26462 Q 193835.8 28281 194073.8 29862 Q 194260.8 31069 194872.8 31698 Q 195484.8 32327 196266.8 32327 Q 197031.8 32327 197541.8 31902 Q 198204.8 31324 198425.8 30287 Q 198765.8 28672 198765.8 23759 Q 198765.8 20869 198442.8 19789.5 Q 198119.8 18710 197490.8 18217 Q 197048.8 17860 196334.8 17860  Z M 212773.8 17129 L 212773.8 19220 Q 214082.8 17792 215196.3 17222.5 Q 216309.8 16653 217635.8 16653 Q 219165.8 16653 220202.8 17367 Q 221239.8 18081 221800.8 19543 Q 223160.8 18013 224410.3 17333 Q 225659.8 16653 227019.8 16653 Q 228668.8 16653 229646.3 17409.5 Q 230623.8 18166 231006.3 19330.5 Q 231388.8 20495 231388.8 23045 L 231388.8 29556 Q 231388.8 31392 231720.3 31834 Q 232051.8 32276 233105.8 32412 L 233105.8 33024 L 224894.8 33024 L 224894.8 32412 Q 225863.8 32327 226322.8 31664 Q 226628.8 31205 226628.8 29556 L 226628.8 22722 Q 226628.8 20597 226458.8 20019 Q 226288.8 19441 225923.3 19160.5 Q 225557.8 18880 225064.8 18880 Q 224333.8 18880 223585.8 19415.5 Q 222837.8 19951 222072.8 21022 L 222072.8 29556 Q 222072.8 31273 222361.8 31715 Q 222752.8 32344 223857.8 32412 L 223857.8 33024 L 215629.8 33024 L 215629.8 32412 Q 216292.8 32378 216675.3 32080.5 Q 217057.8 31783 217185.3 31366.5 Q 217312.8 30950 217312.8 29556 L 217312.8 22722 Q 217312.8 20563 217142.8 20019 Q 216972.8 19475 216573.3 19169 Q 216173.8 18863 215714.8 18863 Q 215034.8 18863 214473.8 19220 Q 213674.8 19747 212773.8 21022 L 212773.8 29556 Q 212773.8 31239 213105.3 31774.5 Q 213436.8 32310 214490.8 32412 L 214490.8 33024 L 206296.8 33024 L 206296.8 32412 Q 207299.8 32310 207724.8 31766 Q 208013.8 31392 208013.8 29556 L 208013.8 20580 Q 208013.8 18778 207682.3 18336 Q 207350.8 17894 206296.8 17758 L 206296.8 17129 L 212773.8 17129 Z M 242654 16653 Q 244728 16653 246513 17724 Q 248298 18795 249224.5 20767 Q 250151 22739 250151 25085 Q 250151 28468 248434 30746 Q 246360 33500 242705 33500 Q 239118 33500 237180 30984 Q 235242 28468 235242 25153 Q 235242 21736 237222.5 19194.5 Q 239203 16653 242654 16653  Z M 242722 17860 Q 241855 17860 241234.5 18514.5 Q 240614 19169 240418.5 21098.5 Q 240223 23028 240223 26462 Q 240223 28281 240461 29862 Q 240648 31069 241260 31698 Q 241872 32327 242654 32327 Q 243419 32327 243929 31902 Q 244592 31324 244813 30287 Q 245153 28672 245153 23759 Q 245153 20869 244830 19789.5 Q 244507 18710 243878 18217 Q 243436 17860 242722 17860  Z M 258787 9972 L 258787 29726 Q 258787 31409 259178 31876.5 Q 259569 32344 260708 32412 L 260708 33024 L 252123 33024 L 252123 32412 Q 253177 32378 253687 31800 Q 254027 31409 254027 29726 L 254027 13270 Q 254027 11604 253636 11136.5 Q 253245 10669 252123 10601 L 252123 9972 L 258787 9972 Z M 275654.6 24507 L 266933.6 24507 Q 267086.6 27669 268616.6 29505 Q 269789.6 30916 271438.6 30916 Q 272458.6 30916 273291.6 30346.5 Q 274124.6 29777 275076.6 28298 L 275654.6 28672 Q 274362.6 31307 272798.6 32403.5 Q 271234.6 33500 269177.6 33500 Q 265641.6 33500 263822.6 30780 Q 262360.6 28587 262360.6 25340 Q 262360.6 21362 264511.1 19007.5 Q 266661.6 16653 269551.6 16653 Q 271965.6 16653 273742.1 18633.5 Q 275518.6 20614 275654.6 24507  Z M 271472.6 23368 Q 271472.6 20631 271175.1 19611 Q 270877.6 18591 270248.6 18064 Q 269891.6 17758 269296.6 17758 Q 268412.6 17758 267851.6 18625 Q 266848.6 20138 266848.6 22773 L 266848.6 23368 L 271472.6 23368 Z M 290572.8 28927 L 291099.8 29335 Q 289977.8 31443 288303.3 32471.5 Q 286628.8 33500 284741.8 33500 Q 281562.8 33500 279658.8 31103 Q 277754.8 28706 277754.8 25340 Q 277754.8 22093 279488.8 19628 Q 281579.8 16653 285251.8 16653 Q 287716.8 16653 289170.3 17894 Q 290623.8 19135 290623.8 20665 Q 290623.8 21634 290037.3 22212 Q 289450.8 22790 288498.8 22790 Q 287495.8 22790 286841.3 22127 Q 286186.8 21464 286033.8 19764 Q 285931.8 18693 285540.8 18268 Q 285149.8 17843 284622.8 17843 Q 283806.8 17843 283228.8 18710 Q 282344.8 20019 282344.8 22722 Q 282344.8 24966 283058.8 27014.5 Q 283772.8 29063 285013.8 30066 Q 285948.8 30797 287223.8 30797 Q 288056.8 30797 288804.8 30406 Q 289552.8 30015 290572.8 28927  Z M 302601 26785 L 292690 26785 L 292690 23266 L 302601 23266 L 302601 26785 Z M 18572 55631.4 L 18572 68075.4 Q 18572 69894.4 18912 70344.9 Q 19252 70795.4 20289 70914.4 L 20289 71526.4 L 13812 71526.4 L 13812 69401.4 Q 12673 70761.4 11534 71381.9 Q 10395 72002.4 8984 72002.4 Q 7641 72002.4 6595.5 71177.9 Q 5550 70353.4 5193 69248.4 Q 4836 68143.4 4836 65389.4 L 4836 59082.4 Q 4836 57280.4 4504.5 56838.4 Q 4173 56396.4 3119 56260.4 L 3119 55631.4 L 9596 55631.4 L 9596 66494.4 Q 9596 68194.4 9757.5 68687.4 Q 9919 69180.4 10267.5 69435.4 Q 10616 69690.4 11075 69690.4 Q 11687 69690.4 12180 69367.4 Q 12860 68925.4 13812 67582.4 L 13812 59082.4 Q 13812 57280.4 13480.5 56838.4 Q 13149 56396.4 12095 56260.4 L 12095 55631.4 L 18572 55631.4 Z M 28796.6 48474.4 L 28796.6 68228.4 Q 28796.6 69911.4 29187.6 70378.9 Q 29578.6 70846.4 30717.6 70914.4 L 30717.6 71526.4 L 22132.6 71526.4 L 22132.6 70914.4 Q 23186.6 70880.4 23696.6 70302.4 Q 24036.6 69911.4 24036.6 68228.4 L 24036.6 51772.4 Q 24036.6 50106.4 23645.6 49638.9 Q 23254.6 49171.4 22132.6 49103.4 L 22132.6 48474.4 L 28796.6 48474.4 Z M 40972.2 69180.4 Q 38065.2 71747.4 35753.2 71747.4 Q 34393.2 71747.4 33492.2 70854.9 Q 32591.2 69962.4 32591.2 68619.4 Q 32591.2 66800.4 34155.2 65346.9 Q 35719.2 63893.4 40972.2 61479.4 L 40972.2 59881.4 Q 40972.2 58079.4 40776.7 57611.9 Q 40581.2 57144.4 40037.2 56795.9 Q 39493.2 56447.4 38813.2 56447.4 Q 37708.2 56447.4 36994.2 56940.4 Q 36552.2 57246.4 36552.2 57654.4 Q 36552.2 58011.4 37028.2 58538.4 Q 37674.2 59269.4 37674.2 59949.4 Q 37674.2 60782.4 37053.7 61368.9 Q 36433.2 61955.4 35430.2 61955.4 Q 34359.2 61955.4 33636.7 61309.4 Q 32914.2 60663.4 32914.2 59796.4 Q 32914.2 58572.4 33883.2 57458.9 Q 34852.2 56345.4 36586.2 55750.4 Q 38320.2 55155.4 40190.2 55155.4 Q 42451.2 55155.4 43768.7 56115.9 Q 45086.2 57076.4 45477.2 58198.4 Q 45715.2 58912.4 45715.2 61479.4 L 45715.2 67650.4 Q 45715.2 68738.4 45800.2 69018.9 Q 45885.2 69299.4 46055.2 69435.4 Q 46225.2 69571.4 46446.2 69571.4 Q 46888.2 69571.4 47347.2 68942.4 L 47857.2 69350.4 Q 47007.2 70608.4 46097.7 71177.9 Q 45188.2 71747.4 44032.2 71747.4 Q 42672.2 71747.4 41907.2 71109.9 Q 41142.2 70472.4 40972.2 69180.4  Z M 40972.2 67939.4 L 40972.2 62618.4 Q 38915.2 63825.4 37912.2 65202.4 Q 37249.2 66120.4 37249.2 67055.4 Q 37249.2 67837.4 37810.2 68432.4 Q 38235.2 68891.4 39000.2 68891.4 Q 39850.2 68891.4 40972.2 67939.4  Z M 56204.2 55631.4 L 56204.2 59235.4 Q 57785.2 56770.4 58975.2 55962.9 Q 60165.2 55155.4 61270.2 55155.4 Q 62222.2 55155.4 62791.7 55741.9 Q 63361.2 56328.4 63361.2 57399.4 Q 63361.2 58538.4 62808.7 59167.4 Q 62256.2 59796.4 61474.2 59796.4 Q 60573.2 59796.4 59910.2 59218.4 Q 59247.2 58640.4 59128.2 58572.4 Q 58958.2 58470.4 58737.2 58470.4 Q 58244.2 58470.4 57802.2 58844.4 Q 57105.2 59422.4 56748.2 60493.4 Q 56204.2 62142.4 56204.2 64131.4 L 56204.2 67786.4 L 56221.2 68738.4 Q 56221.2 69707.4 56340.2 69979.4 Q 56544.2 70438.4 56943.7 70650.9 Q 57343.2 70863.4 58295.2 70914.4 L 58295.2 71526.4 L 49710.2 71526.4 L 49710.2 70914.4 Q 50747.2 70829.4 51112.7 70344.9 Q 51478.2 69860.4 51478.2 67786.4 L 51478.2 58997.4 Q 51478.2 57637.4 51342.2 57263.4 Q 51172.2 56787.4 50849.2 56566.4 Q 50526.2 56345.4 49710.2 56260.4 L 49710.2 55631.4 L 56204.2 55631.4 Z M 82036.4 49800.4 L 82036.4 59184.4 L 82495.4 59184.4 Q 84688.4 59184.4 85674.4 57807.4 Q 86660.4 56430.4 86932.4 53744.4 L 87578.4 53744.4 L 87578.4 65814.4 L 86932.4 65814.4 Q 86728.4 63842.4 86073.9 62584.4 Q 85419.4 61326.4 84552.4 60892.9 Q 83685.4 60459.4 82036.4 60459.4 L 82036.4 66953.4 Q 82036.4 68857.4 82197.9 69282.4 Q 82359.4 69707.4 82801.4 69979.4 Q 83243.4 70251.4 84229.4 70251.4 L 85606.4 70251.4 Q 88836.4 70251.4 90782.9 68755.4 Q 92729.4 67259.4 93579.4 64199.4 L 94208.4 64199.4 L 93171.4 71526.4 L 73247.4 71526.4 L 73247.4 70897.4 L 74012.4 70897.4 Q 75015.4 70897.4 75627.4 70540.4 Q 76069.4 70302.4 76307.4 69724.4 Q 76494.4 69316.4 76494.4 67582.4 L 76494.4 52418.4 Q 76494.4 50854.4 76409.4 50497.4 Q 76239.4 49902.4 75780.4 49579.4 Q 75134.4 49103.4 74012.4 49103.4 L 73247.4 49103.4 L 73247.4 48474.4 L 92542.4 48474.4 L 92542.4 55291.4 L 91896.4 55291.4 Q 91403.4 52792.4 90510.9 51704.4 Q 89618.4 50616.4 87986.4 50106.4 Q 87034.4 49800.4 84416.4 49800.4 L 82036.4 49800.4 Z M 103139 48474.4 L 103139 68228.4 Q 103139 69911.4 103530 70378.9 Q 103921 70846.4 105060 70914.4 L 105060 71526.4 L 96475 71526.4 L 96475 70914.4 Q 97529 70880.4 98039 70302.4 Q 98379 69911.4 98379 68228.4 L 98379 51772.4 Q 98379 50106.4 97988 49638.9 Q 97597 49171.4 96475 49103.4 L 96475 48474.4 L 103139 48474.4 Z M 110367.6 47930.4 Q 111472.6 47930.4 112237.6 48703.9 Q 113002.6 49477.4 113002.6 50565.4 Q 113002.6 51653.4 112229.1 52418.4 Q 111455.6 53183.4 110367.6 53183.4 Q 109279.6 53183.4 108514.6 52418.4 Q 107749.6 51653.4 107749.6 50565.4 Q 107749.6 49477.4 108514.6 48703.9 Q 109279.6 47930.4 110367.6 47930.4  Z M 112747.6 55631.4 L 112747.6 68228.4 Q 112747.6 69911.4 113138.6 70378.9 Q 113529.6 70846.4 114668.6 70914.4 L 114668.6 71526.4 L 106083.6 71526.4 L 106083.6 70914.4 Q 107137.6 70880.4 107647.6 70302.4 Q 107987.6 69911.4 107987.6 68228.4 L 107987.6 58946.4 Q 107987.6 57263.4 107596.6 56795.9 Q 107205.6 56328.4 106083.6 56260.4 L 106083.6 55631.4 L 112747.6 55631.4 Z M 129139.2 67429.4 L 129666.2 67837.4 Q 128544.2 69945.4 126869.7 70973.9 Q 125195.2 72002.4 123308.2 72002.4 Q 120129.2 72002.4 118225.2 69605.4 Q 116321.2 67208.4 116321.2 63842.4 Q 116321.2 60595.4 118055.2 58130.4 Q 120146.2 55155.4 123818.2 55155.4 Q 126283.2 55155.4 127736.7 56396.4 Q 129190.2 57637.4 129190.2 59167.4 Q 129190.2 60136.4 128603.7 60714.4 Q 128017.2 61292.4 127065.2 61292.4 Q 126062.2 61292.4 125407.7 60629.4 Q 124753.2 59966.4 124600.2 58266.4 Q 124498.2 57195.4 124107.2 56770.4 Q 123716.2 56345.4 123189.2 56345.4 Q 122373.2 56345.4 121795.2 57212.4 Q 120911.2 58521.4 120911.2 61224.4 Q 120911.2 63468.4 121625.2 65516.9 Q 122339.2 67565.4 123580.2 68568.4 Q 124515.2 69299.4 125790.2 69299.4 Q 126623.2 69299.4 127371.2 68908.4 Q 128119.2 68517.4 129139.2 67429.4  Z M 135404.4 47930.4 Q 136509.4 47930.4 137274.4 48703.9 Q 138039.4 49477.4 138039.4 50565.4 Q 138039.4 51653.4 137265.9 52418.4 Q 136492.4 53183.4 135404.4 53183.4 Q 134316.4 53183.4 133551.4 52418.4 Q 132786.4 51653.4 132786.4 50565.4 Q 132786.4 49477.4 133551.4 48703.9 Q 134316.4 47930.4 135404.4 47930.4  Z M 137784.4 55631.4 L 137784.4 68228.4 Q 137784.4 69911.4 138175.4 70378.9 Q 138566.4 70846.4 139705.4 70914.4 L 139705.4 71526.4 L 131120.4 71526.4 L 131120.4 70914.4 Q 132174.4 70880.4 132684.4 70302.4 Q 133024.4 69911.4 133024.4 68228.4 L 133024.4 58946.4 Q 133024.4 57263.4 132633.4 56795.9 Q 132242.4 56328.4 131120.4 56260.4 L 131120.4 55631.4 L 137784.4 55631.4 Z M 147512 49817.4 L 147512 55631.4 L 151286 55631.4 L 151286 57314.4 L 147512 57314.4 L 147512 67123.4 Q 147512 68500.4 147639.5 68899.9 Q 147767 69299.4 148090 69545.9 Q 148413 69792.4 148685 69792.4 Q 149790 69792.4 150776 68109.4 L 151286 68483.4 Q 149909 71747.4 146815 71747.4 Q 145302 71747.4 144256.5 70905.9 Q 143211 70064.4 142922 69027.4 Q 142752 68449.4 142752 65899.4 L 142752 57314.4 L 140678 57314.4 L 140678 56719.4 Q 142820 55206.4 144324.5 53540.4 Q 145829 51874.4 146951 49817.4 L 147512 49817.4 Z M 160273.2 55155.4 Q 162347.2 55155.4 164132.2 56226.4 Q 165917.2 57297.4 166843.7 59269.4 Q 167770.2 61241.4 167770.2 63587.4 Q 167770.2 66970.4 166053.2 69248.4 Q 163979.2 72002.4 160324.2 72002.4 Q 156737.2 72002.4 154799.2 69486.4 Q 152861.2 66970.4 152861.2 63655.4 Q 152861.2 60238.4 154841.7 57696.9 Q 156822.2 55155.4 160273.2 55155.4  Z M 160341.2 56362.4 Q 159474.2 56362.4 158853.7 57016.9 Q 158233.2 57671.4 158037.7 59600.9 Q 157842.2 61530.4 157842.2 64964.4 Q 157842.2 66783.4 158080.2 68364.4 Q 158267.2 69571.4 158879.2 70200.4 Q 159491.2 70829.4 160273.2 70829.4 Q 161038.2 70829.4 161548.2 70404.4 Q 162211.2 69826.4 162432.2 68789.4 Q 162772.2 67174.4 162772.2 62261.4 Q 162772.2 59371.4 162449.2 58291.9 Q 162126.2 57212.4 161497.2 56719.4 Q 161055.2 56362.4 160341.2 56362.4  Z M 176780.2 55631.4 L 176780.2 59235.4 Q 178361.2 56770.4 179551.2 55962.9 Q 180741.2 55155.4 181846.2 55155.4 Q 182798.2 55155.4 183367.7 55741.9 Q 183937.2 56328.4 183937.2 57399.4 Q 183937.2 58538.4 183384.7 59167.4 Q 182832.2 59796.4 182050.2 59796.4 Q 181149.2 59796.4 180486.2 59218.4 Q 179823.2 58640.4 179704.2 58572.4 Q 179534.2 58470.4 179313.2 58470.4 Q 178820.2 58470.4 178378.2 58844.4 Q 177681.2 59422.4 177324.2 60493.4 Q 176780.2 62142.4 176780.2 64131.4 L 176780.2 67786.4 L 176797.2 68738.4 Q 176797.2 69707.4 176916.2 69979.4 Q 177120.2 70438.4 177519.7 70650.9 Q 177919.2 70863.4 178871.2 70914.4 L 178871.2 71526.4 L 170286.2 71526.4 L 170286.2 70914.4 Q 171323.2 70829.4 171688.7 70344.9 Q 172054.2 69860.4 172054.2 67786.4 L 172054.2 58997.4 Q 172054.2 57637.4 171918.2 57263.4 Q 171748.2 56787.4 171425.2 56566.4 Q 171102.2 56345.4 170286.2 56260.4 L 170286.2 55631.4 L 176780.2 55631.4 Z " fill-rule="nonzero" style="fill:#76923c;;fill-opacity:1;"/>
</svg>