<svg version="1.1" x="0" y="0" width="100%" height="100%" viewBox="0 0 681420.8 69734.4" xmlns="http://www.w3.org/2000/svg">
  <path d="M 10066.5 19564.2 L 10066.5 25016.2 Q 10066.5 26611.2 10262.25 27024.45 Q 10458 27437.7 10958.25 27684.2 Q 11458.5 27930.7 12792.5 27930.7 L 12792.5 28467.2 L 2802 28467.2 L 2802 27930.7 Q 4165 27930.7 4650.75 27676.95 Q 5136.5 27423.2 5332.25 27017.2 Q 5528 26611.2 5528 25016.2 L 5528 12256.2 Q 5528 10661.2 5332.25 10247.95 Q 5136.5 9834.7 4643.5 9588.2 Q 4150.5 9341.7 2802 9341.7 L 2802 8805.2 L 11371.5 8805.2 Q 15605.5 8805.2 17447 10313.2 Q 19288.5 11821.2 19288.5 14083.2 Q 19288.5 15997.2 18099.5 17360.2 Q 16910.5 18723.2 14822.5 19216.2 Q 13416 19564.2 10066.5 19564.2  Z M 10066.5 9936.2 L 10066.5 18433.2 Q 10545 18462.2 10791.5 18462.2 Q 12560.5 18462.2 13517.5 17410.95 Q 14474.5 16359.7 14474.5 14155.7 Q 14474.5 11966.2 13517.5 10951.2 Q 12560.5 9936.2 10661 9936.2 L 10066.5 9936.2 Z M 26480.3 8805.2 L 26480.3 25654.2 Q 26480.3 27089.7 26813.8 27488.45 Q 27147.3 27887.2 28118.8 27945.2 L 28118.8 28467.2 L 20796.3 28467.2 L 20796.3 27945.2 Q 21695.3 27916.2 22130.3 27423.2 Q 22420.3 27089.7 22420.3 25654.2 L 22420.3 11618.2 Q 22420.3 10197.2 22086.8 9798.45 Q 21753.3 9399.7 20796.3 9341.7 L 20796.3 8805.2 L 26480.3 8805.2 Z M 36898.5 26466.2 Q 34419 28655.7 32447 28655.7 Q 31287 28655.7 30518.5 27894.45 Q 29750 27133.2 29750 25987.7 Q 29750 24436.2 31084 23196.45 Q 32418 21956.7 36898.5 19897.7 L 36898.5 18534.7 Q 36898.5 16997.7 36731.75 16598.95 Q 36565 16200.2 36101 15902.95 Q 35637 15605.7 35057 15605.7 Q 34114.5 15605.7 33505.5 16026.2 Q 33128.5 16287.2 33128.5 16635.2 Q 33128.5 16939.7 33534.5 17389.2 Q 34085.5 18012.7 34085.5 18592.7 Q 34085.5 19303.2 33556.25 19803.45 Q 33027 20303.7 32171.5 20303.7 Q 31258 20303.7 30641.75 19752.7 Q 30025.5 19201.7 30025.5 18462.2 Q 30025.5 17418.2 30852 16468.45 Q 31678.5 15518.7 33157.5 15011.2 Q 34636.5 14503.7 36231.5 14503.7 Q 38160 14503.7 39283.75 15322.95 Q 40407.5 16142.2 40741 17099.2 Q 40944 17708.2 40944 19897.7 L 40944 25161.2 Q 40944 26089.2 41016.5 26328.45 Q 41089 26567.7 41234 26683.7 Q 41379 26799.7 41567.5 26799.7 Q 41944.5 26799.7 42336 26263.2 L 42771 26611.2 Q 42046 27684.2 41270.25 28169.95 Q 40494.5 28655.7 39508.5 28655.7 Q 38348.5 28655.7 37696 28111.95 Q 37043.5 27568.2 36898.5 26466.2  Z M 36898.5 25407.7 L 36898.5 20869.2 Q 35144 21898.7 34288.5 23073.2 Q 33723 23856.2 33723 24653.7 Q 33723 25320.7 34201.5 25828.2 Q 34564 26219.7 35216.5 26219.7 Q 35941.5 26219.7 36898.5 25407.7  Z M 49803.5 14909.7 L 49803.5 16664.2 Q 50847.5 15533.2 51804.5 15018.45 Q 52761.5 14503.7 53863.5 14503.7 Q 55183 14503.7 56053 15235.95 Q 56923 15968.2 57213 17055.7 Q 57445 17882.2 57445 20231.2 L 57445 25509.2 Q 57445 27075.2 57727.75 27459.45 Q 58010.5 27843.7 58909.5 27945.2 L 58909.5 28467.2 L 52051 28467.2 L 52051 27945.2 Q 52819.5 27843.7 53153 27307.2 Q 53385 26944.7 53385 25509.2 L 53385 19477.2 Q 53385 17809.7 53254.5 17374.7 Q 53124 16939.7 52812.25 16700.45 Q 52500.5 16461.2 52123.5 16461.2 Q 50876.5 16461.2 49803.5 18244.7 L 49803.5 25509.2 Q 49803.5 27031.7 50086.25 27437.7 Q 50369 27843.7 51137.5 27945.2 L 51137.5 28467.2 L 44279 28467.2 L 44279 27945.2 Q 45134.5 27858.2 45497 27394.2 Q 45743.5 27075.2 45743.5 25509.2 L 45743.5 17853.2 Q 45743.5 16316.2 45460.75 15939.2 Q 45178 15562.2 44279 15446.2 L 44279 14909.7 L 49803.5 14909.7 Z M 66130.4 9950.7 L 66130.4 14909.7 L 69349.4 14909.7 L 69349.4 16345.2 L 66130.4 16345.2 L 66130.4 24711.7 Q 66130.4 25886.2 66239.15 26226.95 Q 66347.9 26567.7 66623.4 26777.95 Q 66898.9 26988.2 67130.9 26988.2 Q 68073.4 26988.2 68914.4 25552.7 L 69349.4 25871.7 Q 68174.9 28655.7 65535.9 28655.7 Q 64245.4 28655.7 63353.65 27937.95 Q 62461.9 27220.2 62215.4 26335.7 Q 62070.4 25842.7 62070.4 23667.7 L 62070.4 16345.2 L 60301.4 16345.2 L 60301.4 15837.7 Q 62128.4 14547.2 63411.65 13126.2 Q 64694.9 11705.2 65651.9 9950.7 L 66130.4 9950.7 Z M 84175.5 28873.2 L 79608 18360.7 Q 78781.5 16461.2 78317.5 15953.7 Q 77984 15576.7 77331.5 15446.2 L 77331.5 14909.7 L 84538 14909.7 L 84538 15446.2 Q 83856.5 15446.2 83610 15692.7 Q 83262 16011.7 83262 16446.7 Q 83262 16983.2 83900 18462.2 L 86133 23551.7 L 87916.5 19158.2 Q 88685 17273.2 88685 16490.2 Q 88685 16040.7 88358.75 15757.95 Q 88032.5 15475.2 87206 15446.2 L 87206 14909.7 L 91643 14909.7 L 91643 15446.2 Q 91005 15533.2 90599 15924.7 Q 90193 16316.2 89381 18230.2 L 84857 28873.2 L 84175.5 28873.2 Z M 100386.5 26466.2 Q 97907 28655.7 95935 28655.7 Q 94775 28655.7 94006.5 27894.45 Q 93238 27133.2 93238 25987.7 Q 93238 24436.2 94572 23196.45 Q 95906 21956.7 100386.5 19897.7 L 100386.5 18534.7 Q 100386.5 16997.7 100219.75 16598.95 Q 100053 16200.2 99589 15902.95 Q 99125 15605.7 98545 15605.7 Q 97602.5 15605.7 96993.5 16026.2 Q 96616.5 16287.2 96616.5 16635.2 Q 96616.5 16939.7 97022.5 17389.2 Q 97573.5 18012.7 97573.5 18592.7 Q 97573.5 19303.2 97044.25 19803.45 Q 96515 20303.7 95659.5 20303.7 Q 94746 20303.7 94129.75 19752.7 Q 93513.5 19201.7 93513.5 18462.2 Q 93513.5 17418.2 94340 16468.45 Q 95166.5 15518.7 96645.5 15011.2 Q 98124.5 14503.7 99719.5 14503.7 Q 101648 14503.7 102771.75 15322.95 Q 103895.5 16142.2 104229 17099.2 Q 104432 17708.2 104432 19897.7 L 104432 25161.2 Q 104432 26089.2 104504.5 26328.45 Q 104577 26567.7 104722 26683.7 Q 104867 26799.7 105055.5 26799.7 Q 105432.5 26799.7 105824 26263.2 L 106259 26611.2 Q 105534 27684.2 104758.25 28169.95 Q 103982.5 28655.7 102996.5 28655.7 Q 101836.5 28655.7 101184 28111.95 Q 100531.5 27568.2 100386.5 26466.2  Z M 100386.5 25407.7 L 100386.5 20869.2 Q 98632 21898.7 97776.5 23073.2 Q 97211 23856.2 97211 24653.7 Q 97211 25320.7 97689.5 25828.2 Q 98052 26219.7 98704.5 26219.7 Q 99429.5 26219.7 100386.5 25407.7  Z M 118816 24972.7 L 119265.5 25320.7 Q 118308.5 27118.7 116880.25 27995.95 Q 115452 28873.2 113842.5 28873.2 Q 111131 28873.2 109507 26828.7 Q 107883 24784.2 107883 21913.2 Q 107883 19143.7 109362 17041.2 Q 111145.5 14503.7 114277.5 14503.7 Q 116380 14503.7 117619.75 15562.2 Q 118859.5 16620.7 118859.5 17925.7 Q 118859.5 18752.2 118359.25 19245.2 Q 117859 19738.2 117047 19738.2 Q 116191.5 19738.2 115633.25 19172.7 Q 115075 18607.2 114944.5 17157.2 Q 114857.5 16243.7 114524 15881.2 Q 114190.5 15518.7 113741 15518.7 Q 113045 15518.7 112552 16258.2 Q 111798 17374.7 111798 19680.2 Q 111798 21594.2 112407 23341.45 Q 113016 25088.7 114074.5 25944.2 Q 114872 26567.7 115959.5 26567.7 Q 116670 26567.7 117308 26234.2 Q 117946 25900.7 118816 24972.7  Z M 131974.4 24972.7 L 132423.9 25320.7 Q 131466.9 27118.7 130038.65 27995.95 Q 128610.4 28873.2 127000.9 28873.2 Q 124289.4 28873.2 122665.4 26828.7 Q 121041.4 24784.2 121041.4 21913.2 Q 121041.4 19143.7 122520.4 17041.2 Q 124303.9 14503.7 127435.9 14503.7 Q 129538.4 14503.7 130778.15 15562.2 Q 132017.9 16620.7 132017.9 17925.7 Q 132017.9 18752.2 131517.65 19245.2 Q 131017.4 19738.2 130205.4 19738.2 Q 129349.9 19738.2 128791.65 19172.7 Q 128233.4 18607.2 128102.9 17157.2 Q 128015.9 16243.7 127682.4 15881.2 Q 127348.9 15518.7 126899.4 15518.7 Q 126203.4 15518.7 125710.4 16258.2 Q 124956.4 17374.7 124956.4 19680.2 Q 124956.4 21594.2 125565.4 23341.45 Q 126174.4 25088.7 127232.9 25944.2 Q 128030.4 26567.7 129117.9 26567.7 Q 129828.4 26567.7 130466.4 26234.2 Q 131104.4 25900.7 131974.4 24972.7  Z M 137331.8 8341.2 Q 138274.3 8341.2 138926.8 9000.95 Q 139579.3 9660.7 139579.3 10588.7 Q 139579.3 11516.7 138919.55 12169.2 Q 138259.8 12821.7 137331.8 12821.7 Q 136403.8 12821.7 135751.3 12169.2 Q 135098.8 11516.7 135098.8 10588.7 Q 135098.8 9660.7 135751.3 9000.95 Q 136403.8 8341.2 137331.8 8341.2  Z M 139361.8 14909.7 L 139361.8 25654.2 Q 139361.8 27089.7 139695.3 27488.45 Q 140028.8 27887.2 141000.3 27945.2 L 141000.3 28467.2 L 133677.8 28467.2 L 133677.8 27945.2 Q 134576.8 27916.2 135011.8 27423.2 Q 135301.8 27089.7 135301.8 25654.2 L 135301.8 17737.2 Q 135301.8 16301.7 134968.3 15902.95 Q 134634.8 15504.2 133677.8 15446.2 L 133677.8 14909.7 L 139361.8 14909.7 Z M 147851.5 14909.7 L 147851.5 16664.2 Q 148895.5 15533.2 149852.5 15018.45 Q 150809.5 14503.7 151911.5 14503.7 Q 153231 14503.7 154101 15235.95 Q 154971 15968.2 155261 17055.7 Q 155493 17882.2 155493 20231.2 L 155493 25509.2 Q 155493 27075.2 155775.75 27459.45 Q 156058.5 27843.7 156957.5 27945.2 L 156957.5 28467.2 L 150099 28467.2 L 150099 27945.2 Q 150867.5 27843.7 151201 27307.2 Q 151433 26944.7 151433 25509.2 L 151433 19477.2 Q 151433 17809.7 151302.5 17374.7 Q 151172 16939.7 150860.25 16700.45 Q 150548.5 16461.2 150171.5 16461.2 Q 148924.5 16461.2 147851.5 18244.7 L 147851.5 25509.2 Q 147851.5 27031.7 148134.25 27437.7 Q 148417 27843.7 149185.5 27945.2 L 149185.5 28467.2 L 142327 28467.2 L 142327 27945.2 Q 143182.5 27858.2 143545 27394.2 Q 143791.5 27075.2 143791.5 25509.2 L 143791.5 17853.2 Q 143791.5 16316.2 143508.75 15939.2 Q 143226 15562.2 142327 15446.2 L 142327 14909.7 L 147851.5 14909.7 Z M 170282.9 21202.7 L 162844.4 21202.7 Q 162974.9 23899.7 164279.9 25465.7 Q 165280.4 26669.2 166686.9 26669.2 Q 167556.9 26669.2 168267.4 26183.45 Q 168977.9 25697.7 169789.9 24436.2 L 170282.9 24755.2 Q 169180.9 27002.7 167846.9 27937.95 Q 166512.9 28873.2 164758.4 28873.2 Q 161742.4 28873.2 160190.9 26553.2 Q 158943.9 24682.7 158943.9 21913.2 Q 158943.9 18520.2 160778.15 16511.95 Q 162612.4 14503.7 165077.4 14503.7 Q 167136.4 14503.7 168651.65 16192.95 Q 170166.9 17882.2 170282.9 21202.7  Z M 166715.9 20231.2 Q 166715.9 17896.7 166462.15 17026.7 Q 166208.4 16156.7 165671.9 15707.2 Q 165367.4 15446.2 164859.9 15446.2 Q 164105.9 15446.2 163627.4 16185.7 Q 162771.9 17476.2 162771.9 19723.7 L 162771.9 20231.2 L 166715.9 20231.2 Z M 184630.3 27089.7 L 184630.3 32135.7 Q 184630.3 33179.7 184797.05 33556.7 Q 184963.8 33933.7 185311.8 34107.7 Q 185659.8 34281.7 186674.8 34281.7 L 186674.8 34818.2 L 178946.3 34818.2 L 178946.3 34281.7 Q 179845.3 34252.7 180280.3 33774.2 Q 180570.3 33440.7 180570.3 32048.7 L 180570.3 17737.2 Q 180570.3 16301.7 180236.8 15902.95 Q 179903.3 15504.2 178946.3 15446.2 L 178946.3 14909.7 L 184630.3 14909.7 L 184630.3 16693.2 Q 185340.8 15649.2 186080.3 15185.2 Q 187138.8 14503.7 188385.8 14503.7 Q 189879.3 14503.7 191104.55 15446.2 Q 192329.8 16388.7 192967.8 18048.95 Q 193605.8 19709.2 193605.8 21623.2 Q 193605.8 23682.2 192946.05 25385.95 Q 192286.3 27089.7 191032.05 27981.45 Q 189777.8 28873.2 188240.8 28873.2 Q 187124.3 28873.2 186152.8 28380.2 Q 185427.8 28003.2 184630.3 27089.7  Z M 184630.3 25625.2 Q 185877.3 27394.2 187298.3 27394.2 Q 188081.3 27394.2 188588.8 26567.7 Q 189342.8 25349.7 189342.8 21927.7 Q 189342.8 18418.7 188516.3 17128.2 Q 187965.3 16272.7 187037.3 16272.7 Q 185572.8 16272.7 184630.3 18389.7 L 184630.3 25625.2 Z M 201493.7 14909.7 L 201493.7 17983.7 Q 202842.2 15881.2 203857.2 15192.45 Q 204872.2 14503.7 205814.7 14503.7 Q 206626.7 14503.7 207112.45 15003.95 Q 207598.2 15504.2 207598.2 16417.7 Q 207598.2 17389.2 207126.95 17925.7 Q 206655.7 18462.2 205988.7 18462.2 Q 205220.2 18462.2 204654.7 17969.2 Q 204089.2 17476.2 203987.7 17418.2 Q 203842.7 17331.2 203654.2 17331.2 Q 203233.7 17331.2 202856.7 17650.2 Q 202262.2 18143.2 201957.7 19056.7 Q 201493.7 20463.2 201493.7 22159.7 L 201493.7 25277.2 L 201508.2 26089.2 Q 201508.2 26915.7 201609.7 27147.7 Q 201783.7 27539.2 202124.45 27720.45 Q 202465.2 27901.7 203277.2 27945.2 L 203277.2 28467.2 L 195954.7 28467.2 L 195954.7 27945.2 Q 196839.2 27872.7 197150.95 27459.45 Q 197462.7 27046.2 197462.7 25277.2 L 197462.7 17780.7 Q 197462.7 16620.7 197346.7 16301.7 Q 197201.7 15895.7 196926.2 15707.2 Q 196650.7 15518.7 195954.7 15446.2 L 195954.7 14909.7 L 201493.7 14909.7 Z M 220510.1 21202.7 L 213071.6 21202.7 Q 213202.1 23899.7 214507.1 25465.7 Q 215507.6 26669.2 216914.1 26669.2 Q 217784.1 26669.2 218494.6 26183.45 Q 219205.1 25697.7 220017.1 24436.2 L 220510.1 24755.2 Q 219408.1 27002.7 218074.1 27937.95 Q 216740.1 28873.2 214985.6 28873.2 Q 211969.6 28873.2 210418.1 26553.2 Q 209171.1 24682.7 209171.1 21913.2 Q 209171.1 18520.2 211005.35 16511.95 Q 212839.6 14503.7 215304.6 14503.7 Q 217363.6 14503.7 218878.85 16192.95 Q 220394.1 17882.2 220510.1 21202.7  Z M 216943.1 20231.2 Q 216943.1 17896.7 216689.35 17026.7 Q 216435.6 16156.7 215899.1 15707.2 Q 215594.6 15446.2 215087.1 15446.2 Q 214333.1 15446.2 213854.6 16185.7 Q 212999.1 17476.2 212999.1 19723.7 L 212999.1 20231.2 L 216943.1 20231.2 Z M 230362.5 23145.7 L 221909 23145.7 L 221909 20144.2 L 230362.5 20144.2 L 230362.5 23145.7 Z M 238185.1 28873.2 L 233617.6 18360.7 Q 232791.1 16461.2 232327.1 15953.7 Q 231993.6 15576.7 231341.1 15446.2 L 231341.1 14909.7 L 238547.6 14909.7 L 238547.6 15446.2 Q 237866.1 15446.2 237619.6 15692.7 Q 237271.6 16011.7 237271.6 16446.7 Q 237271.6 16983.2 237909.6 18462.2 L 240142.6 23551.7 L 241926.1 19158.2 Q 242694.6 17273.2 242694.6 16490.2 Q 242694.6 16040.7 242368.35 15757.95 Q 242042.1 15475.2 241215.6 15446.2 L 241215.6 14909.7 L 245652.6 14909.7 L 245652.6 15446.2 Q 245014.6 15533.2 244608.6 15924.7 Q 244202.6 16316.2 243390.6 18230.2 L 238866.6 28873.2 L 238185.1 28873.2 Z M 254396.1 26466.2 Q 251916.6 28655.7 249944.6 28655.7 Q 248784.6 28655.7 248016.1 27894.45 Q 247247.6 27133.2 247247.6 25987.7 Q 247247.6 24436.2 248581.6 23196.45 Q 249915.6 21956.7 254396.1 19897.7 L 254396.1 18534.7 Q 254396.1 16997.7 254229.35 16598.95 Q 254062.6 16200.2 253598.6 15902.95 Q 253134.6 15605.7 252554.6 15605.7 Q 251612.1 15605.7 251003.1 16026.2 Q 250626.1 16287.2 250626.1 16635.2 Q 250626.1 16939.7 251032.1 17389.2 Q 251583.1 18012.7 251583.1 18592.7 Q 251583.1 19303.2 251053.85 19803.45 Q 250524.6 20303.7 249669.1 20303.7 Q 248755.6 20303.7 248139.35 19752.7 Q 247523.1 19201.7 247523.1 18462.2 Q 247523.1 17418.2 248349.6 16468.45 Q 249176.1 15518.7 250655.1 15011.2 Q 252134.1 14503.7 253729.1 14503.7 Q 255657.6 14503.7 256781.35 15322.95 Q 257905.1 16142.2 258238.6 17099.2 Q 258441.6 17708.2 258441.6 19897.7 L 258441.6 25161.2 Q 258441.6 26089.2 258514.1 26328.45 Q 258586.6 26567.7 258731.6 26683.7 Q 258876.6 26799.7 259065.1 26799.7 Q 259442.1 26799.7 259833.6 26263.2 L 260268.6 26611.2 Q 259543.6 27684.2 258767.85 28169.95 Q 257992.1 28655.7 257006.1 28655.7 Q 255846.1 28655.7 255193.6 28111.95 Q 254541.1 27568.2 254396.1 26466.2  Z M 254396.1 25407.7 L 254396.1 20869.2 Q 252641.6 21898.7 251786.1 23073.2 Q 251220.6 23856.2 251220.6 24653.7 Q 251220.6 25320.7 251699.1 25828.2 Q 252061.6 26219.7 252714.1 26219.7 Q 253439.1 26219.7 254396.1 25407.7  Z M 272825.6 24972.7 L 273275.1 25320.7 Q 272318.1 27118.7 270889.85 27995.95 Q 269461.6 28873.2 267852.1 28873.2 Q 265140.6 28873.2 263516.6 26828.7 Q 261892.6 24784.2 261892.6 21913.2 Q 261892.6 19143.7 263371.6 17041.2 Q 265155.1 14503.7 268287.1 14503.7 Q 270389.6 14503.7 271629.35 15562.2 Q 272869.1 16620.7 272869.1 17925.7 Q 272869.1 18752.2 272368.85 19245.2 Q 271868.6 19738.2 271056.6 19738.2 Q 270201.1 19738.2 269642.85 19172.7 Q 269084.6 18607.2 268954.1 17157.2 Q 268867.1 16243.7 268533.6 15881.2 Q 268200.1 15518.7 267750.6 15518.7 Q 267054.6 15518.7 266561.6 16258.2 Q 265807.6 17374.7 265807.6 19680.2 Q 265807.6 21594.2 266416.6 23341.45 Q 267025.6 25088.7 268084.1 25944.2 Q 268881.6 26567.7 269969.1 26567.7 Q 270679.6 26567.7 271317.6 26234.2 Q 271955.6 25900.7 272825.6 24972.7  Z M 285984 24972.7 L 286433.5 25320.7 Q 285476.5 27118.7 284048.25 27995.95 Q 282620 28873.2 281010.5 28873.2 Q 278299 28873.2 276675 26828.7 Q 275051 24784.2 275051 21913.2 Q 275051 19143.7 276530 17041.2 Q 278313.5 14503.7 281445.5 14503.7 Q 283548 14503.7 284787.75 15562.2 Q 286027.5 16620.7 286027.5 17925.7 Q 286027.5 18752.2 285527.25 19245.2 Q 285027 19738.2 284215 19738.2 Q 283359.5 19738.2 282801.25 19172.7 Q 282243 18607.2 282112.5 17157.2 Q 282025.5 16243.7 281692 15881.2 Q 281358.5 15518.7 280909 15518.7 Q 280213 15518.7 279720 16258.2 Q 278966 17374.7 278966 19680.2 Q 278966 21594.2 279575 23341.45 Q 280184 25088.7 281242.5 25944.2 Q 282040 26567.7 283127.5 26567.7 Q 283838 26567.7 284476 26234.2 Q 285114 25900.7 285984 24972.7  Z M 291341.4 8341.2 Q 292283.9 8341.2 292936.4 9000.95 Q 293588.9 9660.7 293588.9 10588.7 Q 293588.9 11516.7 292929.15 12169.2 Q 292269.4 12821.7 291341.4 12821.7 Q 290413.4 12821.7 289760.9 12169.2 Q 289108.4 11516.7 289108.4 10588.7 Q 289108.4 9660.7 289760.9 9000.95 Q 290413.4 8341.2 291341.4 8341.2  Z M 293371.4 14909.7 L 293371.4 25654.2 Q 293371.4 27089.7 293704.9 27488.45 Q 294038.4 27887.2 295009.9 27945.2 L 295009.9 28467.2 L 287687.4 28467.2 L 287687.4 27945.2 Q 288586.4 27916.2 289021.4 27423.2 Q 289311.4 27089.7 289311.4 25654.2 L 289311.4 17737.2 Q 289311.4 16301.7 288977.9 15902.95 Q 288644.4 15504.2 287687.4 15446.2 L 287687.4 14909.7 L 293371.4 14909.7 Z M 301861.1 14909.7 L 301861.1 16664.2 Q 302905.1 15533.2 303862.1 15018.45 Q 304819.1 14503.7 305921.1 14503.7 Q 307240.6 14503.7 308110.6 15235.95 Q 308980.6 15968.2 309270.6 17055.7 Q 309502.6 17882.2 309502.6 20231.2 L 309502.6 25509.2 Q 309502.6 27075.2 309785.35 27459.45 Q 310068.1 27843.7 310967.1 27945.2 L 310967.1 28467.2 L 304108.6 28467.2 L 304108.6 27945.2 Q 304877.1 27843.7 305210.6 27307.2 Q 305442.6 26944.7 305442.6 25509.2 L 305442.6 19477.2 Q 305442.6 17809.7 305312.1 17374.7 Q 305181.6 16939.7 304869.85 16700.45 Q 304558.1 16461.2 304181.1 16461.2 Q 302934.1 16461.2 301861.1 18244.7 L 301861.1 25509.2 Q 301861.1 27031.7 302143.85 27437.7 Q 302426.6 27843.7 303195.1 27945.2 L 303195.1 28467.2 L 296336.6 28467.2 L 296336.6 27945.2 Q 297192.1 27858.2 297554.6 27394.2 Q 297801.1 27075.2 297801.1 25509.2 L 297801.1 17853.2 Q 297801.1 16316.2 297518.35 15939.2 Q 297235.6 15562.2 296336.6 15446.2 L 296336.6 14909.7 L 301861.1 14909.7 Z M 320290.5 26466.2 Q 317811 28655.7 315839 28655.7 Q 314679 28655.7 313910.5 27894.45 Q 313142 27133.2 313142 25987.7 Q 313142 24436.2 314476 23196.45 Q 315810 21956.7 320290.5 19897.7 L 320290.5 18534.7 Q 320290.5 16997.7 320123.75 16598.95 Q 319957 16200.2 319493 15902.95 Q 319029 15605.7 318449 15605.7 Q 317506.5 15605.7 316897.5 16026.2 Q 316520.5 16287.2 316520.5 16635.2 Q 316520.5 16939.7 316926.5 17389.2 Q 317477.5 18012.7 317477.5 18592.7 Q 317477.5 19303.2 316948.25 19803.45 Q 316419 20303.7 315563.5 20303.7 Q 314650 20303.7 314033.75 19752.7 Q 313417.5 19201.7 313417.5 18462.2 Q 313417.5 17418.2 314244 16468.45 Q 315070.5 15518.7 316549.5 15011.2 Q 318028.5 14503.7 319623.5 14503.7 Q 321552 14503.7 322675.75 15322.95 Q 323799.5 16142.2 324133 17099.2 Q 324336 17708.2 324336 19897.7 L 324336 25161.2 Q 324336 26089.2 324408.5 26328.45 Q 324481 26567.7 324626 26683.7 Q 324771 26799.7 324959.5 26799.7 Q 325336.5 26799.7 325728 26263.2 L 326163 26611.2 Q 325438 27684.2 324662.25 28169.95 Q 323886.5 28655.7 322900.5 28655.7 Q 321740.5 28655.7 321088 28111.95 Q 320435.5 27568.2 320290.5 26466.2  Z M 320290.5 25407.7 L 320290.5 20869.2 Q 318536 21898.7 317680.5 23073.2 Q 317115 23856.2 317115 24653.7 Q 317115 25320.7 317593.5 25828.2 Q 317956 26219.7 318608.5 26219.7 Q 319333.5 26219.7 320290.5 25407.7  Z M 333036 9950.7 L 333036 14909.7 L 336255 14909.7 L 336255 16345.2 L 333036 16345.2 L 333036 24711.7 Q 333036 25886.2 333144.75 26226.95 Q 333253.5 26567.7 333529 26777.95 Q 333804.5 26988.2 334036.5 26988.2 Q 334979 26988.2 335820 25552.7 L 336255 25871.7 Q 335080.5 28655.7 332441.5 28655.7 Q 331151 28655.7 330259.25 27937.95 Q 329367.5 27220.2 329121 26335.7 Q 328976 25842.7 328976 23667.7 L 328976 16345.2 L 327207 16345.2 L 327207 15837.7 Q 329034 14547.2 330317.25 13126.2 Q 331600.5 11705.2 332557.5 9950.7 L 333036 9950.7 Z M 340800.6 8341.2 Q 341743.1 8341.2 342395.6 9000.95 Q 343048.1 9660.7 343048.1 10588.7 Q 343048.1 11516.7 342388.35 12169.2 Q 341728.6 12821.7 340800.6 12821.7 Q 339872.6 12821.7 339220.1 12169.2 Q 338567.6 11516.7 338567.6 10588.7 Q 338567.6 9660.7 339220.1 9000.95 Q 339872.6 8341.2 340800.6 8341.2  Z M 342830.6 14909.7 L 342830.6 25654.2 Q 342830.6 27089.7 343164.1 27488.45 Q 343497.6 27887.2 344469.1 27945.2 L 344469.1 28467.2 L 337146.6 28467.2 L 337146.6 27945.2 Q 338045.6 27916.2 338480.6 27423.2 Q 338770.6 27089.7 338770.6 25654.2 L 338770.6 17737.2 Q 338770.6 16301.7 338437.1 15902.95 Q 338103.6 15504.2 337146.6 15446.2 L 337146.6 14909.7 L 342830.6 14909.7 Z M 352175.8 14503.7 Q 353944.8 14503.7 355467.3 15417.2 Q 356989.8 16330.7 357780.05 18012.7 Q 358570.3 19694.7 358570.3 21695.7 Q 358570.3 24581.2 357105.8 26524.2 Q 355336.8 28873.2 352219.3 28873.2 Q 349159.8 28873.2 347506.8 26727.2 Q 345853.8 24581.2 345853.8 21753.7 Q 345853.8 18839.2 347543.05 16671.45 Q 349232.3 14503.7 352175.8 14503.7  Z M 352233.8 15533.2 Q 351494.3 15533.2 350965.05 16091.45 Q 350435.8 16649.7 350269.05 18295.45 Q 350102.3 19941.2 350102.3 22870.2 Q 350102.3 24421.7 350305.3 25770.2 Q 350464.8 26799.7 350986.8 27336.2 Q 351508.8 27872.7 352175.8 27872.7 Q 352828.3 27872.7 353263.3 27510.2 Q 353828.8 27017.2 354017.3 26132.7 Q 354307.3 24755.2 354307.3 20564.7 Q 354307.3 18099.7 354031.8 17178.95 Q 353756.3 16258.2 353219.8 15837.7 Q 352842.8 15533.2 352233.8 15533.2  Z M 366168.3 14909.7 L 366168.3 16664.2 Q 367212.3 15533.2 368169.3 15018.45 Q 369126.3 14503.7 370228.3 14503.7 Q 371547.8 14503.7 372417.8 15235.95 Q 373287.8 15968.2 373577.8 17055.7 Q 373809.8 17882.2 373809.8 20231.2 L 373809.8 25509.2 Q 373809.8 27075.2 374092.55 27459.45 Q 374375.3 27843.7 375274.3 27945.2 L 375274.3 28467.2 L 368415.8 28467.2 L 368415.8 27945.2 Q 369184.3 27843.7 369517.8 27307.2 Q 369749.8 26944.7 369749.8 25509.2 L 369749.8 19477.2 Q 369749.8 17809.7 369619.3 17374.7 Q 369488.8 16939.7 369177.05 16700.45 Q 368865.3 16461.2 368488.3 16461.2 Q 367241.3 16461.2 366168.3 18244.7 L 366168.3 25509.2 Q 366168.3 27031.7 366451.05 27437.7 Q 366733.8 27843.7 367502.3 27945.2 L 367502.3 28467.2 L 360643.8 28467.2 L 360643.8 27945.2 Q 361499.3 27858.2 361861.8 27394.2 Q 362108.3 27075.2 362108.3 25509.2 L 362108.3 17853.2 Q 362108.3 16316.2 361825.55 15939.2 Q 361542.8 15562.2 360643.8 15446.2 L 360643.8 14909.7 L 366168.3 14909.7 Z M 389919.2 9950.7 L 389919.2 14909.7 L 393138.2 14909.7 L 393138.2 16345.2 L 389919.2 16345.2 L 389919.2 24711.7 Q 389919.2 25886.2 390027.95 26226.95 Q 390136.7 26567.7 390412.2 26777.95 Q 390687.7 26988.2 390919.7 26988.2 Q 391862.2 26988.2 392703.2 25552.7 L 393138.2 25871.7 Q 391963.7 28655.7 389324.7 28655.7 Q 388034.2 28655.7 387142.45 27937.95 Q 386250.7 27220.2 386004.2 26335.7 Q 385859.2 25842.7 385859.2 23667.7 L 385859.2 16345.2 L 384090.2 16345.2 L 384090.2 15837.7 Q 385917.2 14547.2 387200.45 13126.2 Q 388483.7 11705.2 389440.7 9950.7 L 389919.2 9950.7 Z M 400815.8 14503.7 Q 402584.8 14503.7 404107.3 15417.2 Q 405629.8 16330.7 406420.05 18012.7 Q 407210.3 19694.7 407210.3 21695.7 Q 407210.3 24581.2 405745.8 26524.2 Q 403976.8 28873.2 400859.3 28873.2 Q 397799.8 28873.2 396146.8 26727.2 Q 394493.8 24581.2 394493.8 21753.7 Q 394493.8 18839.2 396183.05 16671.45 Q 397872.3 14503.7 400815.8 14503.7  Z M 400873.8 15533.2 Q 400134.3 15533.2 399605.05 16091.45 Q 399075.8 16649.7 398909.05 18295.45 Q 398742.3 19941.2 398742.3 22870.2 Q 398742.3 24421.7 398945.3 25770.2 Q 399104.8 26799.7 399626.8 27336.2 Q 400148.8 27872.7 400815.8 27872.7 Q 401468.3 27872.7 401903.3 27510.2 Q 402468.8 27017.2 402657.3 26132.7 Q 402947.3 24755.2 402947.3 20564.7 Q 402947.3 18099.7 402671.8 17178.95 Q 402396.3 16258.2 401859.8 15837.7 Q 401482.8 15533.2 400873.8 15533.2  Z M 419955.8 8341.2 Q 420898.3 8341.2 421550.8 9000.95 Q 422203.3 9660.7 422203.3 10588.7 Q 422203.3 11516.7 421543.55 12169.2 Q 420883.8 12821.7 419955.8 12821.7 Q 419027.8 12821.7 418375.3 12169.2 Q 417722.8 11516.7 417722.8 10588.7 Q 417722.8 9660.7 418375.3 9000.95 Q 419027.8 8341.2 419955.8 8341.2  Z M 421985.8 14909.7 L 421985.8 25654.2 Q 421985.8 27089.7 422319.3 27488.45 Q 422652.8 27887.2 423624.3 27945.2 L 423624.3 28467.2 L 416301.8 28467.2 L 416301.8 27945.2 Q 417200.8 27916.2 417635.8 27423.2 Q 417925.8 27089.7 417925.8 25654.2 L 417925.8 17737.2 Q 417925.8 16301.7 417592.3 15902.95 Q 417258.8 15504.2 416301.8 15446.2 L 416301.8 14909.7 L 421985.8 14909.7 Z M 430562.5 14909.7 L 430562.5 16693.2 Q 431679 15475.2 432628.75 14989.45 Q 433578.5 14503.7 434709.5 14503.7 Q 436014.5 14503.7 436899 15112.7 Q 437783.5 15721.7 438262 16968.7 Q 439422 15663.7 440487.75 15083.7 Q 441553.5 14503.7 442713.5 14503.7 Q 444120 14503.7 444953.75 15148.95 Q 445787.5 15794.2 446113.75 16787.45 Q 446440 17780.7 446440 19955.7 L 446440 25509.2 Q 446440 27075.2 446722.75 27452.2 Q 447005.5 27829.2 447904.5 27945.2 L 447904.5 28467.2 L 440901 28467.2 L 440901 27945.2 Q 441727.5 27872.7 442119 27307.2 Q 442380 26915.7 442380 25509.2 L 442380 19680.2 Q 442380 17867.7 442235 17374.7 Q 442090 16881.7 441778.25 16642.45 Q 441466.5 16403.2 441046 16403.2 Q 440422.5 16403.2 439784.5 16859.95 Q 439146.5 17316.7 438494 18230.2 L 438494 25509.2 Q 438494 26973.7 438740.5 27350.7 Q 439074 27887.2 440016.5 27945.2 L 440016.5 28467.2 L 432998.5 28467.2 L 432998.5 27945.2 Q 433564 27916.2 433890.25 27662.45 Q 434216.5 27408.7 434325.25 27053.45 Q 434434 26698.2 434434 25509.2 L 434434 19680.2 Q 434434 17838.7 434289 17374.7 Q 434144 16910.7 433803.25 16649.7 Q 433462.5 16388.7 433071 16388.7 Q 432491 16388.7 432012.5 16693.2 Q 431331 17142.7 430562.5 18230.2 L 430562.5 25509.2 Q 430562.5 26944.7 430845.25 27401.45 Q 431128 27858.2 432027 27945.2 L 432027 28467.2 L 425038 28467.2 L 425038 27945.2 Q 425893.5 27858.2 426256 27394.2 Q 426502.5 27075.2 426502.5 25509.2 L 426502.5 17853.2 Q 426502.5 16316.2 426219.75 15939.2 Q 425937 15562.2 425038 15446.2 L 425038 14909.7 L 430562.5 14909.7 Z M 454915.1 27089.7 L 454915.1 32135.7 Q 454915.1 33179.7 455081.85 33556.7 Q 455248.6 33933.7 455596.6 34107.7 Q 455944.6 34281.7 456959.6 34281.7 L 456959.6 34818.2 L 449231.1 34818.2 L 449231.1 34281.7 Q 450130.1 34252.7 450565.1 33774.2 Q 450855.1 33440.7 450855.1 32048.7 L 450855.1 17737.2 Q 450855.1 16301.7 450521.6 15902.95 Q 450188.1 15504.2 449231.1 15446.2 L 449231.1 14909.7 L 454915.1 14909.7 L 454915.1 16693.2 Q 455625.6 15649.2 456365.1 15185.2 Q 457423.6 14503.7 458670.6 14503.7 Q 460164.1 14503.7 461389.35 15446.2 Q 462614.6 16388.7 463252.6 18048.95 Q 463890.6 19709.2 463890.6 21623.2 Q 463890.6 23682.2 463230.85 25385.95 Q 462571.1 27089.7 461316.85 27981.45 Q 460062.6 28873.2 458525.6 28873.2 Q 457409.1 28873.2 456437.6 28380.2 Q 455712.6 28003.2 454915.1 27089.7  Z M 454915.1 25625.2 Q 456162.1 27394.2 457583.1 27394.2 Q 458366.1 27394.2 458873.6 26567.7 Q 459627.6 25349.7 459627.6 21927.7 Q 459627.6 18418.7 458801.1 17128.2 Q 458250.1 16272.7 457322.1 16272.7 Q 455857.6 16272.7 454915.1 18389.7 L 454915.1 25625.2 Z M 471778.5 14909.7 L 471778.5 17983.7 Q 473127 15881.2 474142 15192.45 Q 475157 14503.7 476099.5 14503.7 Q 476911.5 14503.7 477397.25 15003.95 Q 477883 15504.2 477883 16417.7 Q 477883 17389.2 477411.75 17925.7 Q 476940.5 18462.2 476273.5 18462.2 Q 475505 18462.2 474939.5 17969.2 Q 474374 17476.2 474272.5 17418.2 Q 474127.5 17331.2 473939 17331.2 Q 473518.5 17331.2 473141.5 17650.2 Q 472547 18143.2 472242.5 19056.7 Q 471778.5 20463.2 471778.5 22159.7 L 471778.5 25277.2 L 471793 26089.2 Q 471793 26915.7 471894.5 27147.7 Q 472068.5 27539.2 472409.25 27720.45 Q 472750 27901.7 473562 27945.2 L 473562 28467.2 L 466239.5 28467.2 L 466239.5 27945.2 Q 467124 27872.7 467435.75 27459.45 Q 467747.5 27046.2 467747.5 25277.2 L 467747.5 17780.7 Q 467747.5 16620.7 467631.5 16301.7 Q 467486.5 15895.7 467211 15707.2 Q 466935.5 15518.7 466239.5 15446.2 L 466239.5 14909.7 L 471778.5 14909.7 Z M 485705.4 14503.7 Q 487474.4 14503.7 488996.9 15417.2 Q 490519.4 16330.7 491309.65 18012.7 Q 492099.9 19694.7 492099.9 21695.7 Q 492099.9 24581.2 490635.4 26524.2 Q 488866.4 28873.2 485748.9 28873.2 Q 482689.4 28873.2 481036.4 26727.2 Q 479383.4 24581.2 479383.4 21753.7 Q 479383.4 18839.2 481072.65 16671.45 Q 482761.9 14503.7 485705.4 14503.7  Z M 485763.4 15533.2 Q 485023.9 15533.2 484494.65 16091.45 Q 483965.4 16649.7 483798.65 18295.45 Q 483631.9 19941.2 483631.9 22870.2 Q 483631.9 24421.7 483834.9 25770.2 Q 483994.4 26799.7 484516.4 27336.2 Q 485038.4 27872.7 485705.4 27872.7 Q 486357.9 27872.7 486792.9 27510.2 Q 487358.4 27017.2 487546.9 26132.7 Q 487836.9 24755.2 487836.9 20564.7 Q 487836.9 18099.7 487561.4 17178.95 Q 487285.9 16258.2 486749.4 15837.7 Q 486372.4 15533.2 485763.4 15533.2  Z M 500277.9 28873.2 L 495710.4 18360.7 Q 494883.9 16461.2 494419.9 15953.7 Q 494086.4 15576.7 493433.9 15446.2 L 493433.9 14909.7 L 500640.4 14909.7 L 500640.4 15446.2 Q 499958.9 15446.2 499712.4 15692.7 Q 499364.4 16011.7 499364.4 16446.7 Q 499364.4 16983.2 500002.4 18462.2 L 502235.4 23551.7 L 504018.9 19158.2 Q 504787.4 17273.2 504787.4 16490.2 Q 504787.4 16040.7 504461.15 15757.95 Q 504134.9 15475.2 503308.4 15446.2 L 503308.4 14909.7 L 507745.4 14909.7 L 507745.4 15446.2 Q 507107.4 15533.2 506701.4 15924.7 Q 506295.4 16316.2 505483.4 18230.2 L 500959.4 28873.2 L 500277.9 28873.2 Z M 520490.9 21202.7 L 513052.4 21202.7 Q 513182.9 23899.7 514487.9 25465.7 Q 515488.4 26669.2 516894.9 26669.2 Q 517764.9 26669.2 518475.4 26183.45 Q 519185.9 25697.7 519997.9 24436.2 L 520490.9 24755.2 Q 519388.9 27002.7 518054.9 27937.95 Q 516720.9 28873.2 514966.4 28873.2 Q 511950.4 28873.2 510398.9 26553.2 Q 509151.9 24682.7 509151.9 21913.2 Q 509151.9 18520.2 510986.15 16511.95 Q 512820.4 14503.7 515285.4 14503.7 Q 517344.4 14503.7 518859.65 16192.95 Q 520374.9 17882.2 520490.9 21202.7  Z M 516923.9 20231.2 Q 516923.9 17896.7 516670.15 17026.7 Q 516416.4 16156.7 515879.9 15707.2 Q 515575.4 15446.2 515067.9 15446.2 Q 514313.9 15446.2 513835.4 16185.7 Q 512979.9 17476.2 512979.9 19723.7 L 512979.9 20231.2 L 516923.9 20231.2 Z M 535983.8 14503.7 Q 537752.8 14503.7 539275.3 15417.2 Q 540797.8 16330.7 541588.05 18012.7 Q 542378.3 19694.7 542378.3 21695.7 Q 542378.3 24581.2 540913.8 26524.2 Q 539144.8 28873.2 536027.3 28873.2 Q 532967.8 28873.2 531314.8 26727.2 Q 529661.8 24581.2 529661.8 21753.7 Q 529661.8 18839.2 531351.05 16671.45 Q 533040.3 14503.7 535983.8 14503.7  Z M 536041.8 15533.2 Q 535302.3 15533.2 534773.05 16091.45 Q 534243.8 16649.7 534077.05 18295.45 Q 533910.3 19941.2 533910.3 22870.2 Q 533910.3 24421.7 534113.3 25770.2 Q 534272.8 26799.7 534794.8 27336.2 Q 535316.8 27872.7 535983.8 27872.7 Q 536636.3 27872.7 537071.3 27510.2 Q 537636.8 27017.2 537825.3 26132.7 Q 538115.3 24755.2 538115.3 20564.7 Q 538115.3 18099.7 537839.8 17178.95 Q 537564.3 16258.2 537027.8 15837.7 Q 536650.8 15533.2 536041.8 15533.2  Z M 550556.3 28873.2 L 545988.8 18360.7 Q 545162.3 16461.2 544698.3 15953.7 Q 544364.8 15576.7 543712.3 15446.2 L 543712.3 14909.7 L 550918.8 14909.7 L 550918.8 15446.2 Q 550237.3 15446.2 549990.8 15692.7 Q 549642.8 16011.7 549642.8 16446.7 Q 549642.8 16983.2 550280.8 18462.2 L 552513.8 23551.7 L 554297.3 19158.2 Q 555065.8 17273.2 555065.8 16490.2 Q 555065.8 16040.7 554739.55 15757.95 Q 554413.3 15475.2 553586.8 15446.2 L 553586.8 14909.7 L 558023.8 14909.7 L 558023.8 15446.2 Q 557385.8 15533.2 556979.8 15924.7 Q 556573.8 16316.2 555761.8 18230.2 L 551237.8 28873.2 L 550556.3 28873.2 Z M 570769.3 21202.7 L 563330.8 21202.7 Q 563461.3 23899.7 564766.3 25465.7 Q 565766.8 26669.2 567173.3 26669.2 Q 568043.3 26669.2 568753.8 26183.45 Q 569464.3 25697.7 570276.3 24436.2 L 570769.3 24755.2 Q 569667.3 27002.7 568333.3 27937.95 Q 566999.3 28873.2 565244.8 28873.2 Q 562228.8 28873.2 560677.3 26553.2 Q 559430.3 24682.7 559430.3 21913.2 Q 559430.3 18520.2 561264.55 16511.95 Q 563098.8 14503.7 565563.8 14503.7 Q 567622.8 14503.7 569138.05 16192.95 Q 570653.3 17882.2 570769.3 21202.7  Z M 567202.3 20231.2 Q 567202.3 17896.7 566948.55 17026.7 Q 566694.8 16156.7 566158.3 15707.2 Q 565853.8 15446.2 565346.3 15446.2 Q 564592.3 15446.2 564113.8 16185.7 Q 563258.3 17476.2 563258.3 19723.7 L 563258.3 20231.2 L 567202.3 20231.2 Z M 578069.7 14909.7 L 578069.7 17983.7 Q 579418.2 15881.2 580433.2 15192.45 Q 581448.2 14503.7 582390.7 14503.7 Q 583202.7 14503.7 583688.45 15003.95 Q 584174.2 15504.2 584174.2 16417.7 Q 584174.2 17389.2 583702.95 17925.7 Q 583231.7 18462.2 582564.7 18462.2 Q 581796.2 18462.2 581230.7 17969.2 Q 580665.2 17476.2 580563.7 17418.2 Q 580418.7 17331.2 580230.2 17331.2 Q 579809.7 17331.2 579432.7 17650.2 Q 578838.2 18143.2 578533.7 19056.7 Q 578069.7 20463.2 578069.7 22159.7 L 578069.7 25277.2 L 578084.2 26089.2 Q 578084.2 26915.7 578185.7 27147.7 Q 578359.7 27539.2 578700.45 27720.45 Q 579041.2 27901.7 579853.2 27945.2 L 579853.2 28467.2 L 572530.7 28467.2 L 572530.7 27945.2 Q 573415.2 27872.7 573726.95 27459.45 Q 574038.7 27046.2 574038.7 25277.2 L 574038.7 17780.7 Q 574038.7 16620.7 573922.7 16301.7 Q 573777.7 15895.7 573502.2 15707.2 Q 573226.7 15518.7 572530.7 15446.2 L 572530.7 14909.7 L 578069.7 14909.7 Z M 593084.1 26466.2 Q 590604.6 28655.7 588632.6 28655.7 Q 587472.6 28655.7 586704.1 27894.45 Q 585935.6 27133.2 585935.6 25987.7 Q 585935.6 24436.2 587269.6 23196.45 Q 588603.6 21956.7 593084.1 19897.7 L 593084.1 18534.7 Q 593084.1 16997.7 592917.35 16598.95 Q 592750.6 16200.2 592286.6 15902.95 Q 591822.6 15605.7 591242.6 15605.7 Q 590300.1 15605.7 589691.1 16026.2 Q 589314.1 16287.2 589314.1 16635.2 Q 589314.1 16939.7 589720.1 17389.2 Q 590271.1 18012.7 590271.1 18592.7 Q 590271.1 19303.2 589741.85 19803.45 Q 589212.6 20303.7 588357.1 20303.7 Q 587443.6 20303.7 586827.35 19752.7 Q 586211.1 19201.7 586211.1 18462.2 Q 586211.1 17418.2 587037.6 16468.45 Q 587864.1 15518.7 589343.1 15011.2 Q 590822.1 14503.7 592417.1 14503.7 Q 594345.6 14503.7 595469.35 15322.95 Q 596593.1 16142.2 596926.6 17099.2 Q 597129.6 17708.2 597129.6 19897.7 L 597129.6 25161.2 Q 597129.6 26089.2 597202.1 26328.45 Q 597274.6 26567.7 597419.6 26683.7 Q 597564.6 26799.7 597753.1 26799.7 Q 598130.1 26799.7 598521.6 26263.2 L 598956.6 26611.2 Q 598231.6 27684.2 597455.85 28169.95 Q 596680.1 28655.7 595694.1 28655.7 Q 594534.1 28655.7 593881.6 28111.95 Q 593229.1 27568.2 593084.1 26466.2  Z M 593084.1 25407.7 L 593084.1 20869.2 Q 591329.6 21898.7 590474.1 23073.2 Q 589908.6 23856.2 589908.6 24653.7 Q 589908.6 25320.7 590387.1 25828.2 Q 590749.6 26219.7 591402.1 26219.7 Q 592127.1 26219.7 593084.1 25407.7  Z M 605757.1 8805.2 L 605757.1 25654.2 Q 605757.1 27089.7 606090.6 27488.45 Q 606424.1 27887.2 607395.6 27945.2 L 607395.6 28467.2 L 600073.1 28467.2 L 600073.1 27945.2 Q 600972.1 27916.2 601407.1 27423.2 Q 601697.1 27089.7 601697.1 25654.2 L 601697.1 11618.2 Q 601697.1 10197.2 601363.6 9798.45 Q 601030.1 9399.7 600073.1 9341.7 L 600073.1 8805.2 L 605757.1 8805.2 Z M 614000.3 8805.2 L 614000.3 25654.2 Q 614000.3 27089.7 614333.8 27488.45 Q 614667.3 27887.2 615638.8 27945.2 L 615638.8 28467.2 L 608316.3 28467.2 L 608316.3 27945.2 Q 609215.3 27916.2 609650.3 27423.2 Q 609940.3 27089.7 609940.3 25654.2 L 609940.3 11618.2 Q 609940.3 10197.2 609606.8 9798.45 Q 609273.3 9399.7 608316.3 9341.7 L 608316.3 8805.2 L 614000.3 8805.2 Z M 14112 57791.9 L 14561.5 58139.9 Q 13604.5 59937.9 12176.25 60815.15 Q 10748 61692.4 9138.5 61692.4 Q 6427 61692.4 4803 59647.9 Q 3179 57603.4 3179 54732.4 Q 3179 51962.9 4658 49860.4 Q 6441.5 47322.9 9573.5 47322.9 Q 11676 47322.9 12915.75 48381.4 Q 14155.5 49439.9 14155.5 50744.9 Q 14155.5 51571.4 13655.25 52064.4 Q 13155 52557.4 12343 52557.4 Q 11487.5 52557.4 10929.25 51991.9 Q 10371 51426.4 10240.5 49976.4 Q 10153.5 49062.9 9820 48700.4 Q 9486.5 48337.9 9037 48337.9 Q 8341 48337.9 7848 49077.4 Q 7094 50193.9 7094 52499.4 Q 7094 54413.4 7703 56160.65 Q 8312 57907.9 9370.5 58763.4 Q 10168 59386.9 11255.5 59386.9 Q 11966 59386.9 12604 59053.4 Q 13242 58719.9 14112 57791.9  Z M 21832.9 47728.9 L 21832.9 50802.9 Q 23181.4 48700.4 24196.4 48011.65 Q 25211.4 47322.9 26153.9 47322.9 Q 26965.9 47322.9 27451.65 47823.15 Q 27937.4 48323.4 27937.4 49236.9 Q 27937.4 50208.4 27466.15 50744.9 Q 26994.9 51281.4 26327.9 51281.4 Q 25559.4 51281.4 24993.9 50788.4 Q 24428.4 50295.4 24326.9 50237.4 Q 24181.9 50150.4 23993.4 50150.4 Q 23572.9 50150.4 23195.9 50469.4 Q 22601.4 50962.4 22296.9 51875.9 Q 21832.9 53282.4 21832.9 54978.9 L 21832.9 58096.4 L 21847.4 58908.4 Q 21847.4 59734.9 21948.9 59966.9 Q 22122.9 60358.4 22463.65 60539.65 Q 22804.4 60720.9 23616.4 60764.4 L 23616.4 61286.4 L 16293.9 61286.4 L 16293.9 60764.4 Q 17178.4 60691.9 17490.15 60278.65 Q 17801.9 59865.4 17801.9 58096.4 L 17801.9 50599.9 Q 17801.9 49439.9 17685.9 49120.9 Q 17540.9 48714.9 17265.4 48526.4 Q 16989.9 48337.9 16293.9 48265.4 L 16293.9 47728.9 L 21832.9 47728.9 Z M 35759.8 47322.9 Q 37528.8 47322.9 39051.3 48236.4 Q 40573.8 49149.9 41364.05 50831.9 Q 42154.3 52513.9 42154.3 54514.9 Q 42154.3 57400.4 40689.8 59343.4 Q 38920.8 61692.4 35803.3 61692.4 Q 32743.8 61692.4 31090.8 59546.4 Q 29437.8 57400.4 29437.8 54572.9 Q 29437.8 51658.4 31127.05 49490.65 Q 32816.3 47322.9 35759.8 47322.9  Z M 35817.8 48352.4 Q 35078.3 48352.4 34549.05 48910.65 Q 34019.8 49468.9 33853.05 51114.65 Q 33686.3 52760.4 33686.3 55689.4 Q 33686.3 57240.9 33889.3 58589.4 Q 34048.8 59618.9 34570.8 60155.4 Q 35092.8 60691.9 35759.8 60691.9 Q 36412.3 60691.9 36847.3 60329.4 Q 37412.8 59836.4 37601.3 58951.9 Q 37891.3 57574.4 37891.3 53383.9 Q 37891.3 50918.9 37615.8 49998.15 Q 37340.3 49077.4 36803.8 48656.9 Q 36426.8 48352.4 35817.8 48352.4  Z M 49462.3 59908.9 L 49462.3 64954.9 Q 49462.3 65998.9 49629.05 66375.9 Q 49795.8 66752.9 50143.8 66926.9 Q 50491.8 67100.9 51506.8 67100.9 L 51506.8 67637.4 L 43778.3 67637.4 L 43778.3 67100.9 Q 44677.3 67071.9 45112.3 66593.4 Q 45402.3 66259.9 45402.3 64867.9 L 45402.3 50556.4 Q 45402.3 49120.9 45068.8 48722.15 Q 44735.3 48323.4 43778.3 48265.4 L 43778.3 47728.9 L 49462.3 47728.9 L 49462.3 49512.4 Q 50172.8 48468.4 50912.3 48004.4 Q 51970.8 47322.9 53217.8 47322.9 Q 54711.3 47322.9 55936.55 48265.4 Q 57161.8 49207.9 57799.8 50868.15 Q 58437.8 52528.4 58437.8 54442.4 Q 58437.8 56501.4 57778.05 58205.15 Q 57118.3 59908.9 55864.05 60800.65 Q 54609.8 61692.4 53072.8 61692.4 Q 51956.3 61692.4 50984.8 61199.4 Q 50259.8 60822.4 49462.3 59908.9  Z M 49462.3 58444.4 Q 50709.3 60213.4 52130.3 60213.4 Q 52913.3 60213.4 53420.8 59386.9 Q 54174.8 58168.9 54174.8 54746.9 Q 54174.8 51237.9 53348.3 49947.4 Q 52797.3 49091.9 51869.3 49091.9 Q 50404.8 49091.9 49462.3 51208.9 L 49462.3 58444.4 Z M 73749.7 47728.9 L 73749.7 50802.9 Q 75098.2 48700.4 76113.2 48011.65 Q 77128.2 47322.9 78070.7 47322.9 Q 78882.7 47322.9 79368.45 47823.15 Q 79854.2 48323.4 79854.2 49236.9 Q 79854.2 50208.4 79382.95 50744.9 Q 78911.7 51281.4 78244.7 51281.4 Q 77476.2 51281.4 76910.7 50788.4 Q 76345.2 50295.4 76243.7 50237.4 Q 76098.7 50150.4 75910.2 50150.4 Q 75489.7 50150.4 75112.7 50469.4 Q 74518.2 50962.4 74213.7 51875.9 Q 73749.7 53282.4 73749.7 54978.9 L 73749.7 58096.4 L 73764.2 58908.4 Q 73764.2 59734.9 73865.7 59966.9 Q 74039.7 60358.4 74380.45 60539.65 Q 74721.2 60720.9 75533.2 60764.4 L 75533.2 61286.4 L 68210.7 61286.4 L 68210.7 60764.4 Q 69095.2 60691.9 69406.95 60278.65 Q 69718.7 59865.4 69718.7 58096.4 L 69718.7 50599.9 Q 69718.7 49439.9 69602.7 49120.9 Q 69457.7 48714.9 69182.2 48526.4 Q 68906.7 48337.9 68210.7 48265.4 L 68210.7 47728.9 L 73749.7 47728.9 Z M 92766.1 54021.9 L 85327.6 54021.9 Q 85458.1 56718.9 86763.1 58284.9 Q 87763.6 59488.4 89170.1 59488.4 Q 90040.1 59488.4 90750.6 59002.65 Q 91461.1 58516.9 92273.1 57255.4 L 92766.1 57574.4 Q 91664.1 59821.9 90330.1 60757.15 Q 88996.1 61692.4 87241.6 61692.4 Q 84225.6 61692.4 82674.1 59372.4 Q 81427.1 57501.9 81427.1 54732.4 Q 81427.1 51339.4 83261.35 49331.15 Q 85095.6 47322.9 87560.6 47322.9 Q 89619.6 47322.9 91134.85 49012.15 Q 92650.1 50701.4 92766.1 54021.9  Z M 89199.1 53050.4 Q 89199.1 50715.9 88945.35 49845.9 Q 88691.6 48975.9 88155.1 48526.4 Q 87850.6 48265.4 87343.1 48265.4 Q 86589.1 48265.4 86110.6 49004.9 Q 85255.1 50295.4 85255.1 52542.9 L 85255.1 53050.4 L 89199.1 53050.4 Z M 103010 47351.9 L 103227.5 51977.4 L 102734.5 51977.4 Q 101850 49918.4 100900.25 49164.4 Q 99950.5 48410.4 99008 48410.4 Q 98413.5 48410.4 97993 48809.15 Q 97572.5 49207.9 97572.5 49729.9 Q 97572.5 50121.4 97862.5 50483.9 Q 98326.5 51078.4 100458 52521.15 Q 102589.5 53963.9 103263.75 54971.65 Q 103938 55979.4 103938 57226.4 Q 103938 58357.4 103372.5 59444.9 Q 102807 60532.4 101777.5 61112.4 Q 100748 61692.4 99501 61692.4 Q 98529.5 61692.4 96905.5 61083.4 Q 96470.5 60923.9 96311 60923.9 Q 95832.5 60923.9 95513.5 61648.9 L 95035 61648.9 L 94803 56776.9 L 95296 56776.9 Q 95948.5 58690.9 97086.75 59647.9 Q 98225 60604.9 99240 60604.9 Q 99936 60604.9 100378.25 60177.15 Q 100820.5 59749.4 100820.5 59140.4 Q 100820.5 58444.4 100385.5 57936.9 Q 99950.5 57429.4 98442.5 56399.9 Q 96224 54862.9 95571.5 54050.9 Q 94614.5 52861.9 94614.5 51426.4 Q 94614.5 49860.4 95694.75 48591.65 Q 96775 47322.9 98819.5 47322.9 Q 99921.5 47322.9 100951 47859.4 Q 101342.5 48076.9 101589 48076.9 Q 101850 48076.9 102009.5 47968.15 Q 102169 47859.4 102517 47351.9 L 103010 47351.9 Z M 109223 41160.4 Q 110165.5 41160.4 110818 41820.15 Q 111470.5 42479.9 111470.5 43407.9 Q 111470.5 44335.9 110810.75 44988.4 Q 110151 45640.9 109223 45640.9 Q 108295 45640.9 107642.5 44988.4 Q 106990 44335.9 106990 43407.9 Q 106990 42479.9 107642.5 41820.15 Q 108295 41160.4 109223 41160.4  Z M 111253 47728.9 L 111253 58473.4 Q 111253 59908.9 111586.5 60307.65 Q 111920 60706.4 112891.5 60764.4 L 112891.5 61286.4 L 105569 61286.4 L 105569 60764.4 Q 106468 60735.4 106903 60242.4 Q 107193 59908.9 107193 58473.4 L 107193 50556.4 Q 107193 49120.9 106859.5 48722.15 Q 106526 48323.4 105569 48265.4 L 105569 47728.9 L 111253 47728.9 Z M 122773.2 47351.9 L 122990.7 51977.4 L 122497.7 51977.4 Q 121613.2 49918.4 120663.45 49164.4 Q 119713.7 48410.4 118771.2 48410.4 Q 118176.7 48410.4 117756.2 48809.15 Q 117335.7 49207.9 117335.7 49729.9 Q 117335.7 50121.4 117625.7 50483.9 Q 118089.7 51078.4 120221.2 52521.15 Q 122352.7 53963.9 123026.95 54971.65 Q 123701.2 55979.4 123701.2 57226.4 Q 123701.2 58357.4 123135.7 59444.9 Q 122570.2 60532.4 121540.7 61112.4 Q 120511.2 61692.4 119264.2 61692.4 Q 118292.7 61692.4 116668.7 61083.4 Q 116233.7 60923.9 116074.2 60923.9 Q 115595.7 60923.9 115276.7 61648.9 L 114798.2 61648.9 L 114566.2 56776.9 L 115059.2 56776.9 Q 115711.7 58690.9 116849.95 59647.9 Q 117988.2 60604.9 119003.2 60604.9 Q 119699.2 60604.9 120141.45 60177.15 Q 120583.7 59749.4 120583.7 59140.4 Q 120583.7 58444.4 120148.7 57936.9 Q 119713.7 57429.4 118205.7 56399.9 Q 115987.2 54862.9 115334.7 54050.9 Q 114377.7 52861.9 114377.7 51426.4 Q 114377.7 49860.4 115457.95 48591.65 Q 116538.2 47322.9 118582.7 47322.9 Q 119684.7 47322.9 120714.2 47859.4 Q 121105.7 48076.9 121352.2 48076.9 Q 121613.2 48076.9 121772.7 47968.15 Q 121932.2 47859.4 122280.2 47351.9 L 122773.2 47351.9 Z M 131103.2 42769.9 L 131103.2 47728.9 L 134322.2 47728.9 L 134322.2 49164.4 L 131103.2 49164.4 L 131103.2 57530.9 Q 131103.2 58705.4 131211.95 59046.15 Q 131320.7 59386.9 131596.2 59597.15 Q 131871.7 59807.4 132103.7 59807.4 Q 133046.2 59807.4 133887.2 58371.9 L 134322.2 58690.9 Q 133147.7 61474.9 130508.7 61474.9 Q 129218.2 61474.9 128326.45 60757.15 Q 127434.7 60039.4 127188.2 59154.9 Q 127043.2 58661.9 127043.2 56486.9 L 127043.2 49164.4 L 125274.2 49164.4 L 125274.2 48656.9 Q 127101.2 47366.4 128384.45 45945.4 Q 129667.7 44524.4 130624.7 42769.9 L 131103.2 42769.9 Z M 143087.3 59285.4 Q 140607.8 61474.9 138635.8 61474.9 Q 137475.8 61474.9 136707.3 60713.65 Q 135938.8 59952.4 135938.8 58806.9 Q 135938.8 57255.4 137272.8 56015.65 Q 138606.8 54775.9 143087.3 52716.9 L 143087.3 51353.9 Q 143087.3 49816.9 142920.55 49418.15 Q 142753.8 49019.4 142289.8 48722.15 Q 141825.8 48424.9 141245.8 48424.9 Q 140303.3 48424.9 139694.3 48845.4 Q 139317.3 49106.4 139317.3 49454.4 Q 139317.3 49758.9 139723.3 50208.4 Q 140274.3 50831.9 140274.3 51411.9 Q 140274.3 52122.4 139745.05 52622.65 Q 139215.8 53122.9 138360.3 53122.9 Q 137446.8 53122.9 136830.55 52571.9 Q 136214.3 52020.9 136214.3 51281.4 Q 136214.3 50237.4 137040.8 49287.65 Q 137867.3 48337.9 139346.3 47830.4 Q 140825.3 47322.9 142420.3 47322.9 Q 144348.8 47322.9 145472.55 48142.15 Q 146596.3 48961.4 146929.8 49918.4 Q 147132.8 50527.4 147132.8 52716.9 L 147132.8 57980.4 Q 147132.8 58908.4 147205.3 59147.65 Q 147277.8 59386.9 147422.8 59502.9 Q 147567.8 59618.9 147756.3 59618.9 Q 148133.3 59618.9 148524.8 59082.4 L 148959.8 59430.4 Q 148234.8 60503.4 147459.05 60989.15 Q 146683.3 61474.9 145697.3 61474.9 Q 144537.3 61474.9 143884.8 60931.15 Q 143232.3 60387.4 143087.3 59285.4  Z M 143087.3 58226.9 L 143087.3 53688.4 Q 141332.8 54717.9 140477.3 55892.4 Q 139911.8 56675.4 139911.8 57472.9 Q 139911.8 58139.9 140390.3 58647.4 Q 140752.8 59038.9 141405.3 59038.9 Q 142130.3 59038.9 143087.3 58226.9  Z M 155992.3 47728.9 L 155992.3 49483.4 Q 157036.3 48352.4 157993.3 47837.65 Q 158950.3 47322.9 160052.3 47322.9 Q 161371.8 47322.9 162241.8 48055.15 Q 163111.8 48787.4 163401.8 49874.9 Q 163633.8 50701.4 163633.8 53050.4 L 163633.8 58328.4 Q 163633.8 59894.4 163916.55 60278.65 Q 164199.3 60662.9 165098.3 60764.4 L 165098.3 61286.4 L 158239.8 61286.4 L 158239.8 60764.4 Q 159008.3 60662.9 159341.8 60126.4 Q 159573.8 59763.9 159573.8 58328.4 L 159573.8 52296.4 Q 159573.8 50628.9 159443.3 50193.9 Q 159312.8 49758.9 159001.05 49519.65 Q 158689.3 49280.4 158312.3 49280.4 Q 157065.3 49280.4 155992.3 51063.9 L 155992.3 58328.4 Q 155992.3 59850.9 156275.05 60256.9 Q 156557.8 60662.9 157326.3 60764.4 L 157326.3 61286.4 L 150467.8 61286.4 L 150467.8 60764.4 Q 151323.3 60677.4 151685.8 60213.4 Q 151932.3 59894.4 151932.3 58328.4 L 151932.3 50672.4 Q 151932.3 49135.4 151649.55 48758.4 Q 151366.8 48381.4 150467.8 48265.4 L 150467.8 47728.9 L 155992.3 47728.9 Z M 178003.2 57791.9 L 178452.7 58139.9 Q 177495.7 59937.9 176067.45 60815.15 Q 174639.2 61692.4 173029.7 61692.4 Q 170318.2 61692.4 168694.2 59647.9 Q 167070.2 57603.4 167070.2 54732.4 Q 167070.2 51962.9 168549.2 49860.4 Q 170332.7 47322.9 173464.7 47322.9 Q 175567.2 47322.9 176806.95 48381.4 Q 178046.7 49439.9 178046.7 50744.9 Q 178046.7 51571.4 177546.45 52064.4 Q 177046.2 52557.4 176234.2 52557.4 Q 175378.7 52557.4 174820.45 51991.9 Q 174262.2 51426.4 174131.7 49976.4 Q 174044.7 49062.9 173711.2 48700.4 Q 173377.7 48337.9 172928.2 48337.9 Q 172232.2 48337.9 171739.2 49077.4 Q 170985.2 50193.9 170985.2 52499.4 Q 170985.2 54413.4 171594.2 56160.65 Q 172203.2 57907.9 173261.7 58763.4 Q 174059.2 59386.9 175146.7 59386.9 Q 175857.2 59386.9 176495.2 59053.4 Q 177133.2 58719.9 178003.2 57791.9  Z M 191582.1 54021.9 L 184143.6 54021.9 Q 184274.1 56718.9 185579.1 58284.9 Q 186579.6 59488.4 187986.1 59488.4 Q 188856.1 59488.4 189566.6 59002.65 Q 190277.1 58516.9 191089.1 57255.4 L 191582.1 57574.4 Q 190480.1 59821.9 189146.1 60757.15 Q 187812.1 61692.4 186057.6 61692.4 Q 183041.6 61692.4 181490.1 59372.4 Q 180243.1 57501.9 180243.1 54732.4 Q 180243.1 51339.4 182077.35 49331.15 Q 183911.6 47322.9 186376.6 47322.9 Q 188435.6 47322.9 189950.85 49012.15 Q 191466.1 50701.4 191582.1 54021.9  Z M 188015.1 53050.4 Q 188015.1 50715.9 187761.35 49845.9 Q 187507.6 48975.9 186971.1 48526.4 Q 186666.6 48265.4 186159.1 48265.4 Q 185405.1 48265.4 184926.6 49004.9 Q 184071.1 50295.4 184071.1 52542.9 L 184071.1 53050.4 L 188015.1 53050.4 Z " fill-rule="nonzero" style="fill:#76923c;;fill-opacity:1;"/>
</svg>