<svg version="1.1" x="0" y="0" width="100%" height="100%" viewBox="0 0 231321.6 275968" xmlns="http://www.w3.org/2000/svg">
  <path d="M 22496 36560 L 11000 36560 L 9632 39728 Q 8960 41312 8960 42344 Q 8960 43712 10064 44360 Q 10712 44744 13256 44936 L 13256 45824 L 2432 45824 L 2432 44936 Q 4184 44672 5312 43484 Q 6440 42296 8096 38576 L 19736 12608 L 20192 12608 L 31928 39296 Q 33608 43088 34688 44072 Q 35504 44816 36992 44936 L 36992 45824 L 21248 45824 L 21248 44936 L 21896 44936 Q 23792 44936 24560 44408 Q 25088 44024 25088 43304 Q 25088 42872 24944 42416 Q 24896 42200 24224 40616 L 22496 36560 Z M 21680 34784 L 16832 23576 L 11840 34784 L 21680 34784 Z M 48497.6 23384 L 48497.6 26336 Q 50345.6 24320 51917.6 23516 Q 53489.6 22712 55361.6 22712 Q 57521.6 22712 58985.6 23720 Q 60449.6 24728 61241.6 26792 Q 63161.6 24632 64925.6 23672 Q 66689.6 22712 68609.6 22712 Q 70937.6 22712 72317.6 23780 Q 73697.6 24848 74237.6 26492 Q 74777.6 28136 74777.6 31736 L 74777.6 40928 Q 74777.6 43520 75245.6 44144 Q 75713.6 44768 77201.6 44960 L 77201.6 45824 L 65609.6 45824 L 65609.6 44960 Q 66977.6 44840 67625.6 43904 Q 68057.6 43256 68057.6 40928 L 68057.6 31280 Q 68057.6 28280 67817.6 27464 Q 67577.6 26648 67061.6 26252 Q 66545.6 25856 65849.6 25856 Q 64817.6 25856 63761.6 26612 Q 62705.6 27368 61625.6 28880 L 61625.6 40928 Q 61625.6 43352 62033.6 43976 Q 62585.6 44864 64145.6 44960 L 64145.6 45824 L 52529.6 45824 L 52529.6 44960 Q 53465.6 44912 54005.6 44492 Q 54545.6 44072 54725.6 43484 Q 54905.6 42896 54905.6 40928 L 54905.6 31280 Q 54905.6 28232 54665.6 27464 Q 54425.6 26696 53861.6 26264 Q 53297.6 25832 52649.6 25832 Q 51689.6 25832 50897.6 26336 Q 49769.6 27080 48497.6 28880 L 48497.6 40928 Q 48497.6 43304 48965.6 44060 Q 49433.6 44816 50921.6 44960 L 50921.6 45824 L 39353.6 45824 L 39353.6 44960 Q 40769.6 44816 41369.6 44048 Q 41777.6 43520 41777.6 40928 L 41777.6 28256 Q 41777.6 25712 41309.6 25088 Q 40841.6 24464 39353.6 24272 L 39353.6 23384 L 48497.6 23384 Z M 88782.4 43544 L 88782.4 51896 Q 88782.4 53624 89058.4 54248 Q 89334.4 54872 89910.4 55160 Q 90486.4 55448 92166.4 55448 L 92166.4 56336 L 79374.4 56336 L 79374.4 55448 Q 80862.4 55400 81582.4 54608 Q 82062.4 54056 82062.4 51752 L 82062.4 28064 Q 82062.4 25688 81510.4 25028 Q 80958.4 24368 79374.4 24272 L 79374.4 23384 L 88782.4 23384 L 88782.4 26336 Q 89958.4 24608 91182.4 23840 Q 92934.4 22712 94998.4 22712 Q 97470.4 22712 99498.4 24272 Q 101526.4 25832 102582.4 28580 Q 103638.4 31328 103638.4 34496 Q 103638.4 37904 102546.4 40724 Q 101454.4 43544 99378.4 45020 Q 97302.4 46496 94758.4 46496 Q 92910.4 46496 91302.4 45680 Q 90102.4 45056 88782.4 43544  Z M 88782.4 41120 Q 90846.4 44048 93198.4 44048 Q 94494.4 44048 95334.4 42680 Q 96582.4 40664 96582.4 35000 Q 96582.4 29192 95214.4 27056 Q 94302.4 25640 92766.4 25640 Q 90342.4 25640 88782.4 29144 L 88782.4 41120 Z M 116168 13280 L 116168 41168 Q 116168 43544 116720 44204 Q 117272 44864 118880 44960 L 118880 45824 L 106760 45824 L 106760 44960 Q 108248 44912 108968 44096 Q 109448 43544 109448 41168 L 109448 17936 Q 109448 15584 108896 14924 Q 108344 14264 106760 14168 L 106760 13280 L 116168 13280 Z M 126403.2 12512 Q 127963.2 12512 129043.2 13604 Q 130123.2 14696 130123.2 16232 Q 130123.2 17768 129031.2 18848 Q 127939.2 19928 126403.2 19928 Q 124867.2 19928 123787.2 18848 Q 122707.2 17768 122707.2 16232 Q 122707.2 14696 123787.2 13604 Q 124867.2 12512 126403.2 12512  Z M 129763.2 23384 L 129763.2 41168 Q 129763.2 43544 130315.2 44204 Q 130867.2 44864 132475.2 44960 L 132475.2 45824 L 120355.2 45824 L 120355.2 44960 Q 121843.2 44912 122563.2 44096 Q 123043.2 43544 123043.2 41168 L 123043.2 28064 Q 123043.2 25688 122491.2 25028 Q 121939.2 24368 120355.2 24272 L 120355.2 23384 L 129763.2 23384 Z M 144462.4 25736 L 144462.4 41312 Q 144462.4 43568 144942.4 44144 Q 145710.4 45032 147774.4 44960 L 147774.4 45824 L 134550.4 45824 L 134550.4 44960 Q 136062.4 44936 136698.4 44612 Q 137334.4 44288 137574.4 43712 Q 137814.4 43136 137814.4 41312 L 137814.4 25736 L 134550.4 25736 L 134550.4 23384 L 137814.4 23384 L 137814.4 21728 L 137790.4 20600 Q 137790.4 17144 140322.4 14840 Q 142854.4 12536 147174.4 12536 Q 150126.4 12536 151554.4 13640 Q 152982.4 14744 152982.4 16088 Q 152982.4 17168 152094.4 17960 Q 151206.4 18752 149742.4 18752 Q 148494.4 18752 147762.4 18104 Q 147030.4 17456 147030.4 16664 Q 147030.4 16448 147174.4 15776 Q 147270.4 15368 147270.4 15008 Q 147270.4 14504 146982.4 14264 Q 146598.4 13904 146046.4 13904 Q 145350.4 13904 144882.4 14480 Q 144414.4 15056 144414.4 16328 L 144462.4 20528 L 144462.4 23384 L 147774.4 23384 L 147774.4 25736 L 144462.4 25736 Z M 156355.2 12512 Q 157915.2 12512 158995.2 13604 Q 160075.2 14696 160075.2 16232 Q 160075.2 17768 158983.2 18848 Q 157891.2 19928 156355.2 19928 Q 154819.2 19928 153739.2 18848 Q 152659.2 17768 152659.2 16232 Q 152659.2 14696 153739.2 13604 Q 154819.2 12512 156355.2 12512  Z M 159715.2 23384 L 159715.2 41168 Q 159715.2 43544 160267.2 44204 Q 160819.2 44864 162427.2 44960 L 162427.2 45824 L 150307.2 45824 L 150307.2 44960 Q 151795.2 44912 152515.2 44096 Q 152995.2 43544 152995.2 41168 L 152995.2 28064 Q 152995.2 25688 152443.2 25028 Q 151891.2 24368 150307.2 24272 L 150307.2 23384 L 159715.2 23384 Z M 182886.4 40040 L 183630.4 40616 Q 182046.4 43592 179682.4 45044 Q 177318.4 46496 174654.4 46496 Q 170166.4 46496 167478.4 43112 Q 164790.4 39728 164790.4 34976 Q 164790.4 30392 167238.4 26912 Q 170190.4 22712 175374.4 22712 Q 178854.4 22712 180906.4 24464 Q 182958.4 26216 182958.4 28376 Q 182958.4 29744 182130.4 30560 Q 181302.4 31376 179958.4 31376 Q 178542.4 31376 177618.4 30440 Q 176694.4 29504 176478.4 27104 Q 176334.4 25592 175782.4 24992 Q 175230.4 24392 174486.4 24392 Q 173334.4 24392 172518.4 25616 Q 171270.4 27464 171270.4 31280 Q 171270.4 34448 172278.4 37340 Q 173286.4 40232 175038.4 41648 Q 176358.4 42680 178158.4 42680 Q 179334.4 42680 180390.4 42128 Q 181446.4 41576 182886.4 40040  Z M 198769.6 42512 Q 194665.6 46136 191401.6 46136 Q 189481.6 46136 188209.6 44876 Q 186937.6 43616 186937.6 41720 Q 186937.6 39152 189145.6 37100 Q 191353.6 35048 198769.6 31640 L 198769.6 29384 Q 198769.6 26840 198493.6 26180 Q 198217.6 25520 197449.6 25028 Q 196681.6 24536 195721.6 24536 Q 194161.6 24536 193153.6 25232 Q 192529.6 25664 192529.6 26240 Q 192529.6 26744 193201.6 27488 Q 194113.6 28520 194113.6 29480 Q 194113.6 30656 193237.6 31484 Q 192361.6 32312 190945.6 32312 Q 189433.6 32312 188413.6 31400 Q 187393.6 30488 187393.6 29264 Q 187393.6 27536 188761.6 25964 Q 190129.6 24392 192577.6 23552 Q 195025.6 22712 197665.6 22712 Q 200857.6 22712 202717.6 24068 Q 204577.6 25424 205129.6 27008 Q 205465.6 28016 205465.6 31640 L 205465.6 40352 Q 205465.6 41888 205585.6 42284 Q 205705.6 42680 205945.6 42872 Q 206185.6 43064 206497.6 43064 Q 207121.6 43064 207769.6 42176 L 208489.6 42752 Q 207289.6 44528 206005.6 45332 Q 204721.6 46136 203089.6 46136 Q 201169.6 46136 200089.6 45236 Q 199009.6 44336 198769.6 42512  Z M 198769.6 40760 L 198769.6 33248 Q 195865.6 34952 194449.6 36896 Q 193513.6 38192 193513.6 39512 Q 193513.6 40616 194305.6 41456 Q 194905.6 42104 195985.6 42104 Q 197185.6 42104 198769.6 40760  Z M 219865.6 15176 L 219865.6 23384 L 225193.6 23384 L 225193.6 25760 L 219865.6 25760 L 219865.6 39608 Q 219865.6 41552 220045.6 42116 Q 220225.6 42680 220681.6 43028 Q 221137.6 43376 221521.6 43376 Q 223081.6 43376 224473.6 41000 L 225193.6 41528 Q 223249.6 46136 218881.6 46136 Q 216745.6 46136 215269.6 44948 Q 213793.6 43760 213385.6 42296 Q 213145.6 41480 213145.6 37880 L 213145.6 25760 L 210217.6 25760 L 210217.6 24920 Q 213241.6 22784 215365.6 20432 Q 217489.6 18080 219073.6 15176 L 219865.6 15176 Z M 9104 66886.4 Q 10664 66886.4 11744 67978.4 Q 12824 69070.4 12824 70606.4 Q 12824 72142.4 11732 73222.4 Q 10640 74302.4 9104 74302.4 Q 7568 74302.4 6488 73222.4 Q 5408 72142.4 5408 70606.4 Q 5408 69070.4 6488 67978.4 Q 7568 66886.4 9104 66886.4  Z M 12464 77758.4 L 12464 95542.4 Q 12464 97918.4 13016 98578.4 Q 13568 99238.4 15176 99334.4 L 15176 100198.4 L 3056 100198.4 L 3056 99334.4 Q 4544 99286.4 5264 98470.4 Q 5744 97918.4 5744 95542.4 L 5744 82438.4 Q 5744 80062.4 5192 79402.4 Q 4640 78742.4 3056 78646.4 L 3056 77758.4 L 12464 77758.4 Z M 27907.2 77086.4 Q 30835.2 77086.4 33355.2 78598.4 Q 35875.2 80110.4 37183.2 82894.4 Q 38491.2 85678.4 38491.2 88990.4 Q 38491.2 93766.4 36067.2 96982.4 Q 33139.2 100870.4 27979.2 100870.4 Q 22915.2 100870.4 20179.2 97318.4 Q 17443.2 93766.4 17443.2 89086.4 Q 17443.2 84262.4 20239.2 80674.4 Q 23035.2 77086.4 27907.2 77086.4  Z M 28003.2 78790.4 Q 26779.2 78790.4 25903.2 79714.4 Q 25027.2 80638.4 24751.2 83362.4 Q 24475.2 86086.4 24475.2 90934.4 Q 24475.2 93502.4 24811.2 95734.4 Q 25075.2 97438.4 25939.2 98326.4 Q 26803.2 99214.4 27907.2 99214.4 Q 28987.2 99214.4 29707.2 98614.4 Q 30643.2 97798.4 30955.2 96334.4 Q 31435.2 94054.4 31435.2 87118.4 Q 31435.2 83038.4 30979.2 81514.4 Q 30523.2 79990.4 29635.2 79294.4 Q 29011.2 78790.4 28003.2 78790.4  Z M 51067.2 77758.4 L 51067.2 80662.4 Q 52795.2 78790.4 54379.2 77938.4 Q 55963.2 77086.4 57787.2 77086.4 Q 59971.2 77086.4 61411.2 78298.4 Q 62851.2 79510.4 63331.2 81310.4 Q 63715.2 82678.4 63715.2 86566.4 L 63715.2 95302.4 Q 63715.2 97894.4 64183.2 98530.4 Q 64651.2 99166.4 66139.2 99334.4 L 66139.2 100198.4 L 54787.2 100198.4 L 54787.2 99334.4 Q 56059.2 99166.4 56611.2 98278.4 Q 56995.2 97678.4 56995.2 95302.4 L 56995.2 85318.4 Q 56995.2 82558.4 56779.2 81838.4 Q 56563.2 81118.4 56047.2 80722.4 Q 55531.2 80326.4 54907.2 80326.4 Q 52843.2 80326.4 51067.2 83278.4 L 51067.2 95302.4 Q 51067.2 97822.4 51535.2 98494.4 Q 52003.2 99166.4 53275.2 99334.4 L 53275.2 100198.4 L 41923.2 100198.4 L 41923.2 99334.4 Q 43339.2 99190.4 43939.2 98422.4 Q 44347.2 97894.4 44347.2 95302.4 L 44347.2 82630.4 Q 44347.2 80086.4 43879.2 79462.4 Q 43411.2 78838.4 41923.2 78646.4 L 41923.2 77758.4 L 51067.2 77758.4 Z M 90164.8 67654.4 L 90164.8 80014.4 Q 92996.8 77086.4 96356.8 77086.4 Q 98660.8 77086.4 100700.8 78442.4 Q 102740.8 79798.4 103892.8 82294.4 Q 105044.8 84790.4 105044.8 88054.4 Q 105044.8 91726.4 103580.8 94726.4 Q 102116.8 97726.4 99668.8 99298.4 Q 97220.8 100870.4 94076.8 100870.4 Q 92252.8 100870.4 90836.8 100294.4 Q 89420.8 99718.4 88052.8 98422.4 L 84332.8 100846.4 L 83516.8 100846.4 L 83516.8 72310.4 Q 83516.8 70366.4 83348.8 69910.4 Q 83108.8 69238.4 82592.8 68914.4 Q 82076.8 68590.4 80852.8 68542.4 L 80852.8 67654.4 L 90164.8 67654.4 Z M 90164.8 82150.4 L 90164.8 92134.4 Q 90164.8 95182.4 90308.8 96022.4 Q 90548.8 97438.4 91460.8 98314.4 Q 92372.8 99190.4 93788.8 99190.4 Q 95012.8 99190.4 95888.8 98494.4 Q 96764.8 97798.4 97352.8 95734.4 Q 97940.8 93670.4 97940.8 88294.4 Q 97940.8 83134.4 96644.8 81214.4 Q 95708.8 79822.4 94124.8 79822.4 Q 92060.8 79822.4 90164.8 82150.4  Z M 121150.4 96886.4 Q 117046.4 100510.4 113782.4 100510.4 Q 111862.4 100510.4 110590.4 99250.4 Q 109318.4 97990.4 109318.4 96094.4 Q 109318.4 93526.4 111526.4 91474.4 Q 113734.4 89422.4 121150.4 86014.4 L 121150.4 83758.4 Q 121150.4 81214.4 120874.4 80554.4 Q 120598.4 79894.4 119830.4 79402.4 Q 119062.4 78910.4 118102.4 78910.4 Q 116542.4 78910.4 115534.4 79606.4 Q 114910.4 80038.4 114910.4 80614.4 Q 114910.4 81118.4 115582.4 81862.4 Q 116494.4 82894.4 116494.4 83854.4 Q 116494.4 85030.4 115618.4 85858.4 Q 114742.4 86686.4 113326.4 86686.4 Q 111814.4 86686.4 110794.4 85774.4 Q 109774.4 84862.4 109774.4 83638.4 Q 109774.4 81910.4 111142.4 80338.4 Q 112510.4 78766.4 114958.4 77926.4 Q 117406.4 77086.4 120046.4 77086.4 Q 123238.4 77086.4 125098.4 78442.4 Q 126958.4 79798.4 127510.4 81382.4 Q 127846.4 82390.4 127846.4 86014.4 L 127846.4 94726.4 Q 127846.4 96262.4 127966.4 96658.4 Q 128086.4 97054.4 128326.4 97246.4 Q 128566.4 97438.4 128878.4 97438.4 Q 129502.4 97438.4 130150.4 96550.4 L 130870.4 97126.4 Q 129670.4 98902.4 128386.4 99706.4 Q 127102.4 100510.4 125470.4 100510.4 Q 123550.4 100510.4 122470.4 99610.4 Q 121390.4 98710.4 121150.4 96886.4  Z M 121150.4 95134.4 L 121150.4 87622.4 Q 118246.4 89326.4 116830.4 91270.4 Q 115894.4 92566.4 115894.4 93886.4 Q 115894.4 94990.4 116686.4 95830.4 Q 117286.4 96478.4 118366.4 96478.4 Q 119566.4 96478.4 121150.4 95134.4  Z M 147526.4 77134.4 L 147886.4 84790.4 L 147070.4 84790.4 Q 145606.4 81382.4 144034.4 80134.4 Q 142462.4 78886.4 140902.4 78886.4 Q 139918.4 78886.4 139222.4 79546.4 Q 138526.4 80206.4 138526.4 81070.4 Q 138526.4 81718.4 139006.4 82318.4 Q 139774.4 83302.4 143302.4 85690.4 Q 146830.4 88078.4 147946.4 89746.4 Q 149062.4 91414.4 149062.4 93478.4 Q 149062.4 95350.4 148126.4 97150.4 Q 147190.4 98950.4 145486.4 99910.4 Q 143782.4 100870.4 141718.4 100870.4 Q 140110.4 100870.4 137422.4 99862.4 Q 136702.4 99598.4 136438.4 99598.4 Q 135646.4 99598.4 135118.4 100798.4 L 134326.4 100798.4 L 133942.4 92734.4 L 134758.4 92734.4 Q 135838.4 95902.4 137722.4 97486.4 Q 139606.4 99070.4 141286.4 99070.4 Q 142438.4 99070.4 143170.4 98362.4 Q 143902.4 97654.4 143902.4 96646.4 Q 143902.4 95494.4 143182.4 94654.4 Q 142462.4 93814.4 139966.4 92110.4 Q 136294.4 89566.4 135214.4 88222.4 Q 133630.4 86254.4 133630.4 83878.4 Q 133630.4 81286.4 135418.4 79186.4 Q 137206.4 77086.4 140590.4 77086.4 Q 142414.4 77086.4 144118.4 77974.4 Q 144766.4 78334.4 145174.4 78334.4 Q 145606.4 78334.4 145870.4 78154.4 Q 146134.4 77974.4 146710.4 77134.4 L 147526.4 77134.4 Z M 171448 88174.4 L 159136 88174.4 Q 159352 92638.4 161512 95230.4 Q 163168 97222.4 165496 97222.4 Q 166936 97222.4 168112 96418.4 Q 169288 95614.4 170632 93526.4 L 171448 94054.4 Q 169624 97774.4 167416 99322.4 Q 165208 100870.4 162304 100870.4 Q 157312 100870.4 154744 97030.4 Q 152680 93934.4 152680 89350.4 Q 152680 83734.4 155716 80410.4 Q 158752 77086.4 162832 77086.4 Q 166240 77086.4 168748 79882.4 Q 171256 82678.4 171448 88174.4  Z M 165544 86566.4 Q 165544 82702.4 165124 81262.4 Q 164704 79822.4 163816 79078.4 Q 163312 78646.4 162472 78646.4 Q 161224 78646.4 160432 79870.4 Q 159016 82006.4 159016 85726.4 L 159016 86566.4 L 165544 86566.4 Z M 196067.2 67654.4 L 196067.2 93478.4 Q 196067.2 96094.4 196211.2 96574.4 Q 196403.2 97366.4 196943.2 97750.4 Q 197483.2 98134.4 198827.2 98230.4 L 198827.2 99022.4 L 189347.2 100870.4 L 189347.2 97318.4 Q 187643.2 99382.4 186311.2 100126.4 Q 184979.2 100870.4 183299.2 100870.4 Q 179003.2 100870.4 176507.2 97030.4 Q 174491.2 93910.4 174491.2 89374.4 Q 174491.2 85750.4 175739.2 82882.4 Q 176987.2 80014.4 179159.2 78550.4 Q 181331.2 77086.4 183827.2 77086.4 Q 185435.2 77086.4 186683.2 77710.4 Q 187931.2 78334.4 189347.2 79894.4 L 189347.2 73126.4 Q 189347.2 70558.4 189131.2 70030.4 Q 188843.2 69334.4 188267.2 68998.4 Q 187691.2 68662.4 186107.2 68662.4 L 186107.2 67654.4 L 196067.2 67654.4 Z M 189347.2 82870.4 Q 187571.2 79462.4 185003.2 79462.4 Q 184115.2 79462.4 183539.2 79942.4 Q 182651.2 80686.4 182087.2 82558.4 Q 181523.2 84430.4 181523.2 88294.4 Q 181523.2 92542.4 182147.2 94582.4 Q 182771.2 96622.4 183851.2 97534.4 Q 184403.2 97990.4 185363.2 97990.4 Q 187475.2 97990.4 189347.2 94678.4 L 189347.2 82870.4 Z M 14288 131460.8 Q 17216 131460.8 19736 132972.8 Q 22256 134484.8 23564 137268.8 Q 24872 140052.8 24872 143364.8 Q 24872 148140.8 22448 151356.8 Q 19520 155244.8 14360 155244.8 Q 9296 155244.8 6560 151692.8 Q 3824 148140.8 3824 143460.8 Q 3824 138636.8 6620 135048.8 Q 9416 131460.8 14288 131460.8  Z M 14384 133164.8 Q 13160 133164.8 12284 134088.8 Q 11408 135012.8 11132 137736.8 Q 10856 140460.8 10856 145308.8 Q 10856 147876.8 11192 150108.8 Q 11456 151812.8 12320 152700.8 Q 13184 153588.8 14288 153588.8 Q 15368 153588.8 16088 152988.8 Q 17024 152172.8 17336 150708.8 Q 17816 148428.8 17816 141492.8 Q 17816 137412.8 17360 135888.8 Q 16904 134364.8 16016 133668.8 Q 15392 133164.8 14384 133164.8  Z M 37448 132132.8 L 37448 135036.8 Q 39176 133164.8 40760 132312.8 Q 42344 131460.8 44168 131460.8 Q 46352 131460.8 47792 132672.8 Q 49232 133884.8 49712 135684.8 Q 50096 137052.8 50096 140940.8 L 50096 149676.8 Q 50096 152268.8 50564 152904.8 Q 51032 153540.8 52520 153708.8 L 52520 154572.8 L 41168 154572.8 L 41168 153708.8 Q 42440 153540.8 42992 152652.8 Q 43376 152052.8 43376 149676.8 L 43376 139692.8 Q 43376 136932.8 43160 136212.8 Q 42944 135492.8 42428 135096.8 Q 41912 134700.8 41288 134700.8 Q 39224 134700.8 37448 137652.8 L 37448 149676.8 Q 37448 152196.8 37916 152868.8 Q 38384 153540.8 39656 153708.8 L 39656 154572.8 L 28304 154572.8 L 28304 153708.8 Q 29720 153564.8 30320 152796.8 Q 30728 152268.8 30728 149676.8 L 30728 137004.8 Q 30728 134460.8 30260 133836.8 Q 29792 133212.8 28304 133020.8 L 28304 132132.8 L 37448 132132.8 Z M 82041.6 131508.8 L 82401.6 139164.8 L 81585.6 139164.8 Q 80121.6 135756.8 78549.6 134508.8 Q 76977.6 133260.8 75417.6 133260.8 Q 74433.6 133260.8 73737.6 133920.8 Q 73041.6 134580.8 73041.6 135444.8 Q 73041.6 136092.8 73521.6 136692.8 Q 74289.6 137676.8 77817.6 140064.8 Q 81345.6 142452.8 82461.6 144120.8 Q 83577.6 145788.8 83577.6 147852.8 Q 83577.6 149724.8 82641.6 151524.8 Q 81705.6 153324.8 80001.6 154284.8 Q 78297.6 155244.8 76233.6 155244.8 Q 74625.6 155244.8 71937.6 154236.8 Q 71217.6 153972.8 70953.6 153972.8 Q 70161.6 153972.8 69633.6 155172.8 L 68841.6 155172.8 L 68457.6 147108.8 L 69273.6 147108.8 Q 70353.6 150276.8 72237.6 151860.8 Q 74121.6 153444.8 75801.6 153444.8 Q 76953.6 153444.8 77685.6 152736.8 Q 78417.6 152028.8 78417.6 151020.8 Q 78417.6 149868.8 77697.6 149028.8 Q 76977.6 148188.8 74481.6 146484.8 Q 70809.6 143940.8 69729.6 142596.8 Q 68145.6 140628.8 68145.6 138252.8 Q 68145.6 135660.8 69933.6 133560.8 Q 71721.6 131460.8 75105.6 131460.8 Q 76929.6 131460.8 78633.6 132348.8 Q 79281.6 132708.8 79689.6 132708.8 Q 80121.6 132708.8 80385.6 132528.8 Q 80649.6 132348.8 81225.6 131508.8 L 82041.6 131508.8 Z M 95643.2 152292.8 L 95643.2 160644.8 Q 95643.2 162372.8 95919.2 162996.8 Q 96195.2 163620.8 96771.2 163908.8 Q 97347.2 164196.8 99027.2 164196.8 L 99027.2 165084.8 L 86235.2 165084.8 L 86235.2 164196.8 Q 87723.2 164148.8 88443.2 163356.8 Q 88923.2 162804.8 88923.2 160500.8 L 88923.2 136812.8 Q 88923.2 134436.8 88371.2 133776.8 Q 87819.2 133116.8 86235.2 133020.8 L 86235.2 132132.8 L 95643.2 132132.8 L 95643.2 135084.8 Q 96819.2 133356.8 98043.2 132588.8 Q 99795.2 131460.8 101859.2 131460.8 Q 104331.2 131460.8 106359.2 133020.8 Q 108387.2 134580.8 109443.2 137328.8 Q 110499.2 140076.8 110499.2 143244.8 Q 110499.2 146652.8 109407.2 149472.8 Q 108315.2 152292.8 106239.2 153768.8 Q 104163.2 155244.8 101619.2 155244.8 Q 99771.2 155244.8 98163.2 154428.8 Q 96963.2 153804.8 95643.2 152292.8  Z M 95643.2 149868.8 Q 97707.2 152796.8 100059.2 152796.8 Q 101355.2 152796.8 102195.2 151428.8 Q 103443.2 149412.8 103443.2 143748.8 Q 103443.2 137940.8 102075.2 135804.8 Q 101163.2 134388.8 99627.2 134388.8 Q 97203.2 134388.8 95643.2 137892.8 L 95643.2 149868.8 Z M 133252.8 142548.8 L 120940.8 142548.8 Q 121156.8 147012.8 123316.8 149604.8 Q 124972.8 151596.8 127300.8 151596.8 Q 128740.8 151596.8 129916.8 150792.8 Q 131092.8 149988.8 132436.8 147900.8 L 133252.8 148428.8 Q 131428.8 152148.8 129220.8 153696.8 Q 127012.8 155244.8 124108.8 155244.8 Q 119116.8 155244.8 116548.8 151404.8 Q 114484.8 148308.8 114484.8 143724.8 Q 114484.8 138108.8 117520.8 134784.8 Q 120556.8 131460.8 124636.8 131460.8 Q 128044.8 131460.8 130552.8 134256.8 Q 133060.8 137052.8 133252.8 142548.8  Z M 127348.8 140940.8 Q 127348.8 137076.8 126928.8 135636.8 Q 126508.8 134196.8 125620.8 133452.8 Q 125116.8 133020.8 124276.8 133020.8 Q 123028.8 133020.8 122236.8 134244.8 Q 120820.8 136380.8 120820.8 140100.8 L 120820.8 140940.8 L 127348.8 140940.8 Z M 154368 148788.8 L 155112 149364.8 Q 153528 152340.8 151164 153792.8 Q 148800 155244.8 146136 155244.8 Q 141648 155244.8 138960 151860.8 Q 136272 148476.8 136272 143724.8 Q 136272 139140.8 138720 135660.8 Q 141672 131460.8 146856 131460.8 Q 150336 131460.8 152388 133212.8 Q 154440 134964.8 154440 137124.8 Q 154440 138492.8 153612 139308.8 Q 152784 140124.8 151440 140124.8 Q 150024 140124.8 149100 139188.8 Q 148176 138252.8 147960 135852.8 Q 147816 134340.8 147264 133740.8 Q 146712 133140.8 145968 133140.8 Q 144816 133140.8 144000 134364.8 Q 142752 136212.8 142752 140028.8 Q 142752 143196.8 143760 146088.8 Q 144768 148980.8 146520 150396.8 Q 147840 151428.8 149640 151428.8 Q 150816 151428.8 151872 150876.8 Q 152928 150324.8 154368 148788.8  Z M 163267.2 121260.8 Q 164827.2 121260.8 165907.2 122352.8 Q 166987.2 123444.8 166987.2 124980.8 Q 166987.2 126516.8 165895.2 127596.8 Q 164803.2 128676.8 163267.2 128676.8 Q 161731.2 128676.8 160651.2 127596.8 Q 159571.2 126516.8 159571.2 124980.8 Q 159571.2 123444.8 160651.2 122352.8 Q 161731.2 121260.8 163267.2 121260.8  Z M 166627.2 132132.8 L 166627.2 149916.8 Q 166627.2 152292.8 167179.2 152952.8 Q 167731.2 153612.8 169339.2 153708.8 L 169339.2 154572.8 L 157219.2 154572.8 L 157219.2 153708.8 Q 158707.2 153660.8 159427.2 152844.8 Q 159907.2 152292.8 159907.2 149916.8 L 159907.2 136812.8 Q 159907.2 134436.8 159355.2 133776.8 Q 158803.2 133116.8 157219.2 133020.8 L 157219.2 132132.8 L 166627.2 132132.8 Z M 181326.4 134484.8 L 181326.4 150060.8 Q 181326.4 152316.8 181806.4 152892.8 Q 182574.4 153780.8 184638.4 153708.8 L 184638.4 154572.8 L 171414.4 154572.8 L 171414.4 153708.8 Q 172926.4 153684.8 173562.4 153360.8 Q 174198.4 153036.8 174438.4 152460.8 Q 174678.4 151884.8 174678.4 150060.8 L 174678.4 134484.8 L 171414.4 134484.8 L 171414.4 132132.8 L 174678.4 132132.8 L 174678.4 130476.8 L 174654.4 129348.8 Q 174654.4 125892.8 177186.4 123588.8 Q 179718.4 121284.8 184038.4 121284.8 Q 186990.4 121284.8 188418.4 122388.8 Q 189846.4 123492.8 189846.4 124836.8 Q 189846.4 125916.8 188958.4 126708.8 Q 188070.4 127500.8 186606.4 127500.8 Q 185358.4 127500.8 184626.4 126852.8 Q 183894.4 126204.8 183894.4 125412.8 Q 183894.4 125196.8 184038.4 124524.8 Q 184134.4 124116.8 184134.4 123756.8 Q 184134.4 123252.8 183846.4 123012.8 Q 183462.4 122652.8 182910.4 122652.8 Q 182214.4 122652.8 181746.4 123228.8 Q 181278.4 123804.8 181278.4 125076.8 L 181326.4 129276.8 L 181326.4 132132.8 L 184638.4 132132.8 L 184638.4 134484.8 L 181326.4 134484.8 Z M 193219.2 121260.8 Q 194779.2 121260.8 195859.2 122352.8 Q 196939.2 123444.8 196939.2 124980.8 Q 196939.2 126516.8 195847.2 127596.8 Q 194755.2 128676.8 193219.2 128676.8 Q 191683.2 128676.8 190603.2 127596.8 Q 189523.2 126516.8 189523.2 124980.8 Q 189523.2 123444.8 190603.2 122352.8 Q 191683.2 121260.8 193219.2 121260.8  Z M 196579.2 132132.8 L 196579.2 149916.8 Q 196579.2 152292.8 197131.2 152952.8 Q 197683.2 153612.8 199291.2 153708.8 L 199291.2 154572.8 L 187171.2 154572.8 L 187171.2 153708.8 Q 188659.2 153660.8 189379.2 152844.8 Q 189859.2 152292.8 189859.2 149916.8 L 189859.2 136812.8 Q 189859.2 134436.8 189307.2 133776.8 Q 188755.2 133116.8 187171.2 133020.8 L 187171.2 132132.8 L 196579.2 132132.8 Z M 219750.4 148788.8 L 220494.4 149364.8 Q 218910.4 152340.8 216546.4 153792.8 Q 214182.4 155244.8 211518.4 155244.8 Q 207030.4 155244.8 204342.4 151860.8 Q 201654.4 148476.8 201654.4 143724.8 Q 201654.4 139140.8 204102.4 135660.8 Q 207054.4 131460.8 212238.4 131460.8 Q 215718.4 131460.8 217770.4 133212.8 Q 219822.4 134964.8 219822.4 137124.8 Q 219822.4 138492.8 218994.4 139308.8 Q 218166.4 140124.8 216822.4 140124.8 Q 215406.4 140124.8 214482.4 139188.8 Q 213558.4 138252.8 213342.4 135852.8 Q 213198.4 134340.8 212646.4 133740.8 Q 212094.4 133140.8 211350.4 133140.8 Q 210198.4 133140.8 209382.4 134364.8 Q 208134.4 136212.8 208134.4 140028.8 Q 208134.4 143196.8 209142.4 146088.8 Q 210150.4 148980.8 211902.4 150396.8 Q 213222.4 151428.8 215022.4 151428.8 Q 216198.4 151428.8 217254.4 150876.8 Q 218310.4 150324.8 219750.4 148788.8  Z M 18104 186771.2 L 25664 186771.2 L 25664 189411.2 L 21368 189411.2 Q 22544 190587.2 23000 191547.2 Q 23576 192843.2 23576 194259.2 Q 23576 196659.2 22244 198423.2 Q 20912 200187.2 18620 201183.2 Q 16328 202179.2 14552 202179.2 Q 14408 202179.2 11672 202059.2 Q 10592 202059.2 9860 202767.2 Q 9128 203475.2 9128 204459.2 Q 9128 205323.2 9788 205875.2 Q 10448 206427.2 11936 206427.2 L 16088 206379.2 Q 21128 206379.2 23024 207483.2 Q 25736 209019.2 25736 212211.2 Q 25736 214251.2 24488 215919.2 Q 23240 217587.2 21200 218379.2 Q 18104 219555.2 14072 219555.2 Q 11048 219555.2 8552 218967.2 Q 6056 218379.2 4976 217335.2 Q 3896 216291.2 3896 215139.2 Q 3896 214035.2 4724 213159.2 Q 5552 212283.2 7808 211683.2 Q 4688 210147.2 4688 207411.2 Q 4688 205755.2 5960 204195.2 Q 7232 202635.2 9992 201483.2 Q 6776 200307.2 5336 198387.2 Q 3896 196467.2 3896 193947.2 Q 3896 190659.2 6584 188247.2 Q 9272 185835.2 13496 185835.2 Q 15728 185835.2 18104 186771.2  Z M 13952 187323.2 Q 12560 187323.2 11600 188727.2 Q 10640 190131.2 10640 194547.2 Q 10640 198123.2 11588 199455.2 Q 12536 200787.2 13832 200787.2 Q 15272 200787.2 16232 199467.2 Q 17192 198147.2 17192 194331.2 Q 17192 190035.2 16112 188475.2 Q 15344 187323.2 13952 187323.2  Z M 12536 212259.2 Q 10088 212259.2 9296 212667.2 Q 7928 213411.2 7928 214683.2 Q 7928 215907.2 9344 216903.2 Q 10760 217899.2 14672 217899.2 Q 18008 217899.2 19916 217011.2 Q 21824 216123.2 21824 214515.2 Q 21824 213915.2 21464 213507.2 Q 20816 212787.2 19508 212523.2 Q 18200 212259.2 12536 212259.2  Z M 47288 196923.2 L 34976 196923.2 Q 35192 201387.2 37352 203979.2 Q 39008 205971.2 41336 205971.2 Q 42776 205971.2 43952 205167.2 Q 45128 204363.2 46472 202275.2 L 47288 202803.2 Q 45464 206523.2 43256 208071.2 Q 41048 209619.2 38144 209619.2 Q 33152 209619.2 30584 205779.2 Q 28520 202683.2 28520 198099.2 Q 28520 192483.2 31556 189159.2 Q 34592 185835.2 38672 185835.2 Q 42080 185835.2 44588 188631.2 Q 47096 191427.2 47288 196923.2  Z M 41384 195315.2 Q 41384 191451.2 40964 190011.2 Q 40544 188571.2 39656 187827.2 Q 39152 187395.2 38312 187395.2 Q 37064 187395.2 36272 188619.2 Q 34856 190755.2 34856 194475.2 L 34856 195315.2 L 41384 195315.2 Z M 59259.2 186507.2 L 59259.2 189411.2 Q 60987.2 187539.2 62571.2 186687.2 Q 64155.2 185835.2 65979.2 185835.2 Q 68163.2 185835.2 69603.2 187047.2 Q 71043.2 188259.2 71523.2 190059.2 Q 71907.2 191427.2 71907.2 195315.2 L 71907.2 204051.2 Q 71907.2 206643.2 72375.2 207279.2 Q 72843.2 207915.2 74331.2 208083.2 L 74331.2 208947.2 L 62979.2 208947.2 L 62979.2 208083.2 Q 64251.2 207915.2 64803.2 207027.2 Q 65187.2 206427.2 65187.2 204051.2 L 65187.2 194067.2 Q 65187.2 191307.2 64971.2 190587.2 Q 64755.2 189867.2 64239.2 189471.2 Q 63723.2 189075.2 63099.2 189075.2 Q 61035.2 189075.2 59259.2 192027.2 L 59259.2 204051.2 Q 59259.2 206571.2 59727.2 207243.2 Q 60195.2 207915.2 61467.2 208083.2 L 61467.2 208947.2 L 50115.2 208947.2 L 50115.2 208083.2 Q 51531.2 207939.2 52131.2 207171.2 Q 52539.2 206643.2 52539.2 204051.2 L 52539.2 191379.2 Q 52539.2 188835.2 52071.2 188211.2 Q 51603.2 187587.2 50115.2 187395.2 L 50115.2 186507.2 L 59259.2 186507.2 Z M 96388.8 196923.2 L 84076.8 196923.2 Q 84292.8 201387.2 86452.8 203979.2 Q 88108.8 205971.2 90436.8 205971.2 Q 91876.8 205971.2 93052.8 205167.2 Q 94228.8 204363.2 95572.8 202275.2 L 96388.8 202803.2 Q 94564.8 206523.2 92356.8 208071.2 Q 90148.8 209619.2 87244.8 209619.2 Q 82252.8 209619.2 79684.8 205779.2 Q 77620.8 202683.2 77620.8 198099.2 Q 77620.8 192483.2 80656.8 189159.2 Q 83692.8 185835.2 87772.8 185835.2 Q 91180.8 185835.2 93688.8 188631.2 Q 96196.8 191427.2 96388.8 196923.2  Z M 90484.8 195315.2 Q 90484.8 191451.2 90064.8 190011.2 Q 89644.8 188571.2 88756.8 187827.2 Q 88252.8 187395.2 87412.8 187395.2 Q 86164.8 187395.2 85372.8 188619.2 Q 83956.8 190755.2 83956.8 194475.2 L 83956.8 195315.2 L 90484.8 195315.2 Z M 13544 243233.6 L 13544 258809.6 Q 13544 261065.6 14024 261641.6 Q 14792 262529.6 16856 262457.6 L 16856 263321.6 L 3632 263321.6 L 3632 262457.6 Q 5144 262433.6 5780 262109.6 Q 6416 261785.6 6656 261209.6 Q 6896 260633.6 6896 258809.6 L 6896 243233.6 L 3632 243233.6 L 3632 240881.6 L 6896 240881.6 L 6896 239225.6 L 6872 238097.6 Q 6872 234641.6 9404 232337.6 Q 11936 230033.6 16256 230033.6 Q 19208 230033.6 20636 231137.6 Q 22064 232241.6 22064 233585.6 Q 22064 234665.6 21176 235457.6 Q 20288 236249.6 18824 236249.6 Q 17576 236249.6 16844 235601.6 Q 16112 234953.6 16112 234161.6 Q 16112 233945.6 16256 233273.6 Q 16352 232865.6 16352 232505.6 Q 16352 232001.6 16064 231761.6 Q 15680 231401.6 15128 231401.6 Q 14432 231401.6 13964 231977.6 Q 13496 232553.6 13496 233825.6 L 13544 238025.6 L 13544 240881.6 L 16856 240881.6 L 16856 243233.6 L 13544 243233.6 Z M 29348.8 240881.6 L 29348.8 245969.6 Q 31580.8 242489.6 33260.8 241349.6 Q 34940.8 240209.6 36500.8 240209.6 Q 37844.8 240209.6 38648.8 241037.6 Q 39452.8 241865.6 39452.8 243377.6 Q 39452.8 244985.6 38672.8 245873.6 Q 37892.8 246761.6 36788.8 246761.6 Q 35516.8 246761.6 34580.8 245945.6 Q 33644.8 245129.6 33476.8 245033.6 Q 33236.8 244889.6 32924.8 244889.6 Q 32228.8 244889.6 31604.8 245417.6 Q 30620.8 246233.6 30116.8 247745.6 Q 29348.8 250073.6 29348.8 252881.6 L 29348.8 258041.6 L 29372.8 259385.6 Q 29372.8 260753.6 29540.8 261137.6 Q 29828.8 261785.6 30392.8 262085.6 Q 30956.8 262385.6 32300.8 262457.6 L 32300.8 263321.6 L 20180.8 263321.6 L 20180.8 262457.6 Q 21644.8 262337.6 22160.8 261653.6 Q 22676.8 260969.6 22676.8 258041.6 L 22676.8 245633.6 Q 22676.8 243713.6 22484.8 243185.6 Q 22244.8 242513.6 21788.8 242201.6 Q 21332.8 241889.6 20180.8 241769.6 L 20180.8 240881.6 L 29348.8 240881.6 Z M 54232 260009.6 Q 50128 263633.6 46864 263633.6 Q 44944 263633.6 43672 262373.6 Q 42400 261113.6 42400 259217.6 Q 42400 256649.6 44608 254597.6 Q 46816 252545.6 54232 249137.6 L 54232 246881.6 Q 54232 244337.6 53956 243677.6 Q 53680 243017.6 52912 242525.6 Q 52144 242033.6 51184 242033.6 Q 49624 242033.6 48616 242729.6 Q 47992 243161.6 47992 243737.6 Q 47992 244241.6 48664 244985.6 Q 49576 246017.6 49576 246977.6 Q 49576 248153.6 48700 248981.6 Q 47824 249809.6 46408 249809.6 Q 44896 249809.6 43876 248897.6 Q 42856 247985.6 42856 246761.6 Q 42856 245033.6 44224 243461.6 Q 45592 241889.6 48040 241049.6 Q 50488 240209.6 53128 240209.6 Q 56320 240209.6 58180 241565.6 Q 60040 242921.6 60592 244505.6 Q 60928 245513.6 60928 249137.6 L 60928 257849.6 Q 60928 259385.6 61048 259781.6 Q 61168 260177.6 61408 260369.6 Q 61648 260561.6 61960 260561.6 Q 62584 260561.6 63232 259673.6 L 63952 260249.6 Q 62752 262025.6 61468 262829.6 Q 60184 263633.6 58552 263633.6 Q 56632 263633.6 55552 262733.6 Q 54472 261833.6 54232 260009.6  Z M 54232 258257.6 L 54232 250745.6 Q 51328 252449.6 49912 254393.6 Q 48976 255689.6 48976 257009.6 Q 48976 258113.6 49768 258953.6 Q 50368 259601.6 51448 259601.6 Q 52648 259601.6 54232 258257.6  Z M 80824 241145.6 L 88384 241145.6 L 88384 243785.6 L 84088 243785.6 Q 85264 244961.6 85720 245921.6 Q 86296 247217.6 86296 248633.6 Q 86296 251033.6 84964 252797.6 Q 83632 254561.6 81340 255557.6 Q 79048 256553.6 77272 256553.6 Q 77128 256553.6 74392 256433.6 Q 73312 256433.6 72580 257141.6 Q 71848 257849.6 71848 258833.6 Q 71848 259697.6 72508 260249.6 Q 73168 260801.6 74656 260801.6 L 78808 260753.6 Q 83848 260753.6 85744 261857.6 Q 88456 263393.6 88456 266585.6 Q 88456 268625.6 87208 270293.6 Q 85960 271961.6 83920 272753.6 Q 80824 273929.6 76792 273929.6 Q 73768 273929.6 71272 273341.6 Q 68776 272753.6 67696 271709.6 Q 66616 270665.6 66616 269513.6 Q 66616 268409.6 67444 267533.6 Q 68272 266657.6 70528 266057.6 Q 67408 264521.6 67408 261785.6 Q 67408 260129.6 68680 258569.6 Q 69952 257009.6 72712 255857.6 Q 69496 254681.6 68056 252761.6 Q 66616 250841.6 66616 248321.6 Q 66616 245033.6 69304 242621.6 Q 71992 240209.6 76216 240209.6 Q 78448 240209.6 80824 241145.6  Z M 76672 241697.6 Q 75280 241697.6 74320 243101.6 Q 73360 244505.6 73360 248921.6 Q 73360 252497.6 74308 253829.6 Q 75256 255161.6 76552 255161.6 Q 77992 255161.6 78952 253841.6 Q 79912 252521.6 79912 248705.6 Q 79912 244409.6 78832 242849.6 Q 78064 241697.6 76672 241697.6  Z M 75256 266633.6 Q 72808 266633.6 72016 267041.6 Q 70648 267785.6 70648 269057.6 Q 70648 270281.6 72064 271277.6 Q 73480 272273.6 77392 272273.6 Q 80728 272273.6 82636 271385.6 Q 84544 270497.6 84544 268889.6 Q 84544 268289.6 84184 267881.6 Q 83536 267161.6 82228 266897.6 Q 80920 266633.6 75256 266633.6  Z M 100312 240881.6 L 100312 243833.6 Q 102160 241817.6 103732 241013.6 Q 105304 240209.6 107176 240209.6 Q 109336 240209.6 110800 241217.6 Q 112264 242225.6 113056 244289.6 Q 114976 242129.6 116740 241169.6 Q 118504 240209.6 120424 240209.6 Q 122752 240209.6 124132 241277.6 Q 125512 242345.6 126052 243989.6 Q 126592 245633.6 126592 249233.6 L 126592 258425.6 Q 126592 261017.6 127060 261641.6 Q 127528 262265.6 129016 262457.6 L 129016 263321.6 L 117424 263321.6 L 117424 262457.6 Q 118792 262337.6 119440 261401.6 Q 119872 260753.6 119872 258425.6 L 119872 248777.6 Q 119872 245777.6 119632 244961.6 Q 119392 244145.6 118876 243749.6 Q 118360 243353.6 117664 243353.6 Q 116632 243353.6 115576 244109.6 Q 114520 244865.6 113440 246377.6 L 113440 258425.6 Q 113440 260849.6 113848 261473.6 Q 114400 262361.6 115960 262457.6 L 115960 263321.6 L 104344 263321.6 L 104344 262457.6 Q 105280 262409.6 105820 261989.6 Q 106360 261569.6 106540 260981.6 Q 106720 260393.6 106720 258425.6 L 106720 248777.6 Q 106720 245729.6 106480 244961.6 Q 106240 244193.6 105676 243761.6 Q 105112 243329.6 104464 243329.6 Q 103504 243329.6 102712 243833.6 Q 101584 244577.6 100312 246377.6 L 100312 258425.6 Q 100312 260801.6 100780 261557.6 Q 101248 262313.6 102736 262457.6 L 102736 263321.6 L 91168 263321.6 L 91168 262457.6 Q 92584 262313.6 93184 261545.6 Q 93592 261017.6 93592 258425.6 L 93592 245753.6 Q 93592 243209.6 93124 242585.6 Q 92656 241961.6 91168 241769.6 L 91168 240881.6 L 100312 240881.6 Z M 150916.8 251297.6 L 138604.8 251297.6 Q 138820.8 255761.6 140980.8 258353.6 Q 142636.8 260345.6 144964.8 260345.6 Q 146404.8 260345.6 147580.8 259541.6 Q 148756.8 258737.6 150100.8 256649.6 L 150916.8 257177.6 Q 149092.8 260897.6 146884.8 262445.6 Q 144676.8 263993.6 141772.8 263993.6 Q 136780.8 263993.6 134212.8 260153.6 Q 132148.8 257057.6 132148.8 252473.6 Q 132148.8 246857.6 135184.8 243533.6 Q 138220.8 240209.6 142300.8 240209.6 Q 145708.8 240209.6 148216.8 243005.6 Q 150724.8 245801.6 150916.8 251297.6  Z M 145012.8 249689.6 Q 145012.8 245825.6 144592.8 244385.6 Q 144172.8 242945.6 143284.8 242201.6 Q 142780.8 241769.6 141940.8 241769.6 Q 140692.8 241769.6 139900.8 242993.6 Q 138484.8 245129.6 138484.8 248849.6 L 138484.8 249689.6 L 145012.8 249689.6 Z M 162888 240881.6 L 162888 243785.6 Q 164616 241913.6 166200 241061.6 Q 167784 240209.6 169608 240209.6 Q 171792 240209.6 173232 241421.6 Q 174672 242633.6 175152 244433.6 Q 175536 245801.6 175536 249689.6 L 175536 258425.6 Q 175536 261017.6 176004 261653.6 Q 176472 262289.6 177960 262457.6 L 177960 263321.6 L 166608 263321.6 L 166608 262457.6 Q 167880 262289.6 168432 261401.6 Q 168816 260801.6 168816 258425.6 L 168816 248441.6 Q 168816 245681.6 168600 244961.6 Q 168384 244241.6 167868 243845.6 Q 167352 243449.6 166728 243449.6 Q 164664 243449.6 162888 246401.6 L 162888 258425.6 Q 162888 260945.6 163356 261617.6 Q 163824 262289.6 165096 262457.6 L 165096 263321.6 L 153744 263321.6 L 153744 262457.6 Q 155160 262313.6 155760 261545.6 Q 156168 261017.6 156168 258425.6 L 156168 245753.6 Q 156168 243209.6 155700 242585.6 Q 155232 241961.6 153744 241769.6 L 153744 240881.6 L 162888 240881.6 Z M 189913.6 232673.6 L 189913.6 240881.6 L 195241.6 240881.6 L 195241.6 243257.6 L 189913.6 243257.6 L 189913.6 257105.6 Q 189913.6 259049.6 190093.6 259613.6 Q 190273.6 260177.6 190729.6 260525.6 Q 191185.6 260873.6 191569.6 260873.6 Q 193129.6 260873.6 194521.6 258497.6 L 195241.6 259025.6 Q 193297.6 263633.6 188929.6 263633.6 Q 186793.6 263633.6 185317.6 262445.6 Q 183841.6 261257.6 183433.6 259793.6 Q 183193.6 258977.6 183193.6 255377.6 L 183193.6 243257.6 L 180265.6 243257.6 L 180265.6 242417.6 Q 183289.6 240281.6 185413.6 237929.6 Q 187537.6 235577.6 189121.6 232673.6 L 189913.6 232673.6 Z M 211526.4 240257.6 L 211886.4 247913.6 L 211070.4 247913.6 Q 209606.4 244505.6 208034.4 243257.6 Q 206462.4 242009.6 204902.4 242009.6 Q 203918.4 242009.6 203222.4 242669.6 Q 202526.4 243329.6 202526.4 244193.6 Q 202526.4 244841.6 203006.4 245441.6 Q 203774.4 246425.6 207302.4 248813.6 Q 210830.4 251201.6 211946.4 252869.6 Q 213062.4 254537.6 213062.4 256601.6 Q 213062.4 258473.6 212126.4 260273.6 Q 211190.4 262073.6 209486.4 263033.6 Q 207782.4 263993.6 205718.4 263993.6 Q 204110.4 263993.6 201422.4 262985.6 Q 200702.4 262721.6 200438.4 262721.6 Q 199646.4 262721.6 199118.4 263921.6 L 198326.4 263921.6 L 197942.4 255857.6 L 198758.4 255857.6 Q 199838.4 259025.6 201722.4 260609.6 Q 203606.4 262193.6 205286.4 262193.6 Q 206438.4 262193.6 207170.4 261485.6 Q 207902.4 260777.6 207902.4 259769.6 Q 207902.4 258617.6 207182.4 257777.6 Q 206462.4 256937.6 203966.4 255233.6 Q 200294.4 252689.6 199214.4 251345.6 Q 197630.4 249377.6 197630.4 247001.6 Q 197630.4 244409.6 199418.4 242309.6 Q 201206.4 240209.6 204590.4 240209.6 Q 206414.4 240209.6 208118.4 241097.6 Q 208766.4 241457.6 209174.4 241457.6 Q 209606.4 241457.6 209870.4 241277.6 Q 210134.4 241097.6 210710.4 240257.6 L 211526.4 240257.6 Z " fill-rule="nonzero" style="fill:#fac08f;;fill-opacity:1;"/>
</svg>