<svg version="1.1" x="0" y="0" width="100%" height="100%" viewBox="0 0 176896 105932.8" xmlns="http://www.w3.org/2000/svg">
  <path d="M 11948 14973.8 L 12173 19758.8 L 11663 19758.8 Q 10748 17628.8 9765.5 16848.8 Q 8783 16068.8 7808 16068.8 Q 7193 16068.8 6758 16481.3 Q 6323 16893.8 6323 17433.8 Q 6323 17838.8 6623 18213.8 Q 7103 18828.8 9308 20321.3 Q 11513 21813.8 12210.5 22856.3 Q 12908 23898.8 12908 25188.8 Q 12908 26358.8 12323 27483.8 Q 11738 28608.8 10673 29208.8 Q 9608 29808.8 8318 29808.8 Q 7313 29808.8 5633 29178.8 Q 5183 29013.8 5018 29013.8 Q 4523 29013.8 4193 29763.8 L 3698 29763.8 L 3458 24723.8 L 3968 24723.8 Q 4643 26703.8 5820.5 27693.8 Q 6998 28683.8 8048 28683.8 Q 8768 28683.8 9225.5 28241.3 Q 9683 27798.8 9683 27168.8 Q 9683 26448.8 9233 25923.8 Q 8783 25398.8 7223 24333.8 Q 4928 22743.8 4253 21903.8 Q 3263 20673.8 3263 19188.8 Q 3263 17568.8 4380.5 16256.3 Q 5498 14943.8 7613 14943.8 Q 8753 14943.8 9818 15498.8 Q 10223 15723.8 10478 15723.8 Q 10748 15723.8 10913 15611.3 Q 11078 15498.8 11438 14973.8 L 11948 14973.8 Z M 18387.6 8568.8 Q 19362.6 8568.8 20037.6 9251.3 Q 20712.6 9933.8 20712.6 10893.8 Q 20712.6 11853.8 20030.1 12528.8 Q 19347.6 13203.8 18387.6 13203.8 Q 17427.6 13203.8 16752.6 12528.8 Q 16077.6 11853.8 16077.6 10893.8 Q 16077.6 9933.8 16752.6 9251.3 Q 17427.6 8568.8 18387.6 8568.8  Z M 20487.6 15363.8 L 20487.6 26478.8 Q 20487.6 27963.8 20832.6 28376.3 Q 21177.6 28788.8 22182.6 28848.8 L 22182.6 29388.8 L 14607.6 29388.8 L 14607.6 28848.8 Q 15537.6 28818.8 15987.6 28308.8 Q 16287.6 27963.8 16287.6 26478.8 L 16287.6 18288.8 Q 16287.6 16803.8 15942.6 16391.3 Q 15597.6 15978.8 14607.6 15918.8 L 14607.6 15363.8 L 20487.6 15363.8 Z M 30636.8 20118.8 L 30636.8 25818.8 Q 30636.8 27468.8 30839.3 27896.3 Q 31041.8 28323.8 31551.8 28578.8 Q 32061.8 28833.8 33456.8 28833.8 L 33456.8 29388.8 L 23046.8 29388.8 L 23046.8 28833.8 Q 24456.8 28833.8 24959.3 28571.3 Q 25461.8 28308.8 25664.3 27888.8 Q 25866.8 27468.8 25866.8 25818.8 L 25866.8 12618.8 Q 25866.8 10968.8 25664.3 10541.3 Q 25461.8 10113.8 24951.8 9858.8 Q 24441.8 9603.8 23046.8 9603.8 L 23046.8 9048.8 L 32496.8 9048.8 Q 36186.8 9048.8 37896.8 9558.8 Q 39606.8 10068.8 40686.8 11441.3 Q 41766.8 12813.8 41766.8 14658.8 Q 41766.8 16908.8 40146.8 18378.8 Q 39111.8 19308.8 37251.8 19773.8 L 42141.8 26658.8 Q 43101.8 27993.8 43506.8 28323.8 Q 44121.8 28788.8 44931.8 28833.8 L 44931.8 29388.8 L 38526.8 29388.8 L 31971.8 20118.8 L 30636.8 20118.8 Z M 30636.8 10143.8 L 30636.8 19053.8 L 31491.8 19053.8 Q 33576.8 19053.8 34611.8 18671.3 Q 35646.8 18288.8 36239.3 17291.3 Q 36831.8 16293.8 36831.8 14688.8 Q 36831.8 12363.8 35744.3 11253.8 Q 34656.8 10143.8 32241.8 10143.8 L 30636.8 10143.8 Z M 52296.4 9048.8 L 62331.4 21663.8 L 62331.4 12918.8 Q 62331.4 11088.8 61806.4 10443.8 Q 61086.4 9573.8 59391.4 9603.8 L 59391.4 9048.8 L 66111.4 9048.8 L 66111.4 9603.8 Q 64821.4 9768.8 64378.9 10031.3 Q 63936.4 10293.8 63688.9 10886.3 Q 63441.4 11478.8 63441.4 12918.8 L 63441.4 29853.8 L 62931.4 29853.8 L 49176.4 12918.8 L 49176.4 25848.8 Q 49176.4 27603.8 49978.9 28218.8 Q 50781.4 28833.8 51816.4 28833.8 L 52296.4 28833.8 L 52296.4 29388.8 L 45081.4 29388.8 L 45081.4 28833.8 Q 46761.4 28818.8 47421.4 28143.8 Q 48081.4 27468.8 48081.4 25848.8 L 48081.4 11493.8 L 47646.4 10953.8 Q 47001.4 10143.8 46506.4 9888.8 Q 46011.4 9633.8 45081.4 9603.8 L 45081.4 9048.8 L 52296.4 9048.8 Z M 79596 23598.8 L 72411 23598.8 L 71556 25578.8 Q 71136 26568.8 71136 27213.8 Q 71136 28068.8 71826 28473.8 Q 72231 28713.8 73821 28833.8 L 73821 29388.8 L 67056 29388.8 L 67056 28833.8 Q 68151 28668.8 68856 27926.3 Q 69561 27183.8 70596 24858.8 L 77871 8628.8 L 78156 8628.8 L 85491 25308.8 Q 86541 27678.8 87216 28293.8 Q 87726 28758.8 88656 28833.8 L 88656 29388.8 L 78816 29388.8 L 78816 28833.8 L 79221 28833.8 Q 80406 28833.8 80886 28503.8 Q 81216 28263.8 81216 27813.8 Q 81216 27543.8 81126 27258.8 Q 81096 27123.8 80676 26133.8 L 79596 23598.8 Z M 79086 22488.8 L 76056 15483.8 L 72936 22488.8 L 79086 22488.8 Z M 11948 48919.4 L 12173 53704.4 L 11663 53704.4 Q 10748 51574.4 9765.5 50794.4 Q 8783 50014.4 7808 50014.4 Q 7193 50014.4 6758 50426.9 Q 6323 50839.4 6323 51379.4 Q 6323 51784.4 6623 52159.4 Q 7103 52774.4 9308 54266.9 Q 11513 55759.4 12210.5 56801.9 Q 12908 57844.4 12908 59134.4 Q 12908 60304.4 12323 61429.4 Q 11738 62554.4 10673 63154.4 Q 9608 63754.4 8318 63754.4 Q 7313 63754.4 5633 63124.4 Q 5183 62959.4 5018 62959.4 Q 4523 62959.4 4193 63709.4 L 3698 63709.4 L 3458 58669.4 L 3968 58669.4 Q 4643 60649.4 5820.5 61639.4 Q 6998 62629.4 8048 62629.4 Q 8768 62629.4 9225.5 62186.9 Q 9683 61744.4 9683 61114.4 Q 9683 60394.4 9233 59869.4 Q 8783 59344.4 7223 58279.4 Q 4928 56689.4 4253 55849.4 Q 3263 54619.4 3263 53134.4 Q 3263 51514.4 4380.5 50201.9 Q 5498 48889.4 7613 48889.4 Q 8753 48889.4 9818 49444.4 Q 10223 49669.4 10478 49669.4 Q 10748 49669.4 10913 49556.9 Q 11078 49444.4 11438 48919.4 L 11948 48919.4 Z M 26892.6 55819.4 L 19197.6 55819.4 Q 19332.6 58609.4 20682.6 60229.4 Q 21717.6 61474.4 23172.6 61474.4 Q 24072.6 61474.4 24807.6 60971.9 Q 25542.6 60469.4 26382.6 59164.4 L 26892.6 59494.4 Q 25752.6 61819.4 24372.6 62786.9 Q 22992.6 63754.4 21177.6 63754.4 Q 18057.6 63754.4 16452.6 61354.4 Q 15162.6 59419.4 15162.6 56554.4 Q 15162.6 53044.4 17060.1 50966.9 Q 18957.6 48889.4 21507.6 48889.4 Q 23637.6 48889.4 25205.1 50636.9 Q 26772.6 52384.4 26892.6 55819.4  Z M 23202.6 54814.4 Q 23202.6 52399.4 22940.1 51499.4 Q 22677.6 50599.4 22122.6 50134.4 Q 21807.6 49864.4 21282.6 49864.4 Q 20502.6 49864.4 20007.6 50629.4 Q 19122.6 51964.4 19122.6 54289.4 L 19122.6 54814.4 L 23202.6 54814.4 Z M 38051.8 61864.4 Q 37136.8 62824.4 36341.8 63214.4 Q 35291.8 63754.4 34151.8 63754.4 Q 31511.8 63754.4 29981.8 61399.4 Q 28766.8 59524.4 28766.8 56914.4 Q 28766.8 54739.4 29689.3 52826.9 Q 30611.8 50914.4 32224.3 49901.9 Q 33836.8 48889.4 35636.8 48889.4 Q 36836.8 48889.4 37774.3 49294.4 Q 38711.8 49699.4 39386.8 50524.4 L 41741.8 48889.4 L 42251.8 48889.4 L 42251.8 67054.4 Q 42251.8 68434.4 42491.8 68779.4 Q 42881.8 69334.4 44066.8 69349.4 L 44066.8 69904.4 L 35966.8 69904.4 L 35966.8 69349.4 Q 36896.8 69349.4 37316.8 69139.4 Q 37736.8 68929.4 37894.3 68584.4 Q 38051.8 68239.4 38051.8 67174.4 L 38051.8 61864.4 Z M 38051.8 60499.4 L 38051.8 54724.4 Q 38051.8 52309.4 37789.3 51529.4 Q 37526.8 50749.4 36821.8 50179.4 Q 36461.8 49894.4 35906.8 49894.4 Q 34766.8 49894.4 34136.8 50899.4 Q 33146.8 52444.4 33146.8 56644.4 Q 33146.8 59869.4 34001.8 61174.4 Q 34586.8 62059.4 35516.8 62059.4 Q 36056.8 62059.4 36739.3 61684.4 Q 37421.8 61309.4 38051.8 60499.4  Z M 59226.4 49309.4 L 59226.4 60289.4 Q 59226.4 61894.4 59526.4 62291.9 Q 59826.4 62689.4 60741.4 62794.4 L 60741.4 63334.4 L 55026.4 63334.4 L 55026.4 61459.4 Q 54021.4 62659.4 53016.4 63206.9 Q 52011.4 63754.4 50766.4 63754.4 Q 49581.4 63754.4 48658.9 63026.9 Q 47736.4 62299.4 47421.4 61324.4 Q 47106.4 60349.4 47106.4 57919.4 L 47106.4 52354.4 Q 47106.4 50764.4 46813.9 50374.4 Q 46521.4 49984.4 45591.4 49864.4 L 45591.4 49309.4 L 51306.4 49309.4 L 51306.4 58894.4 Q 51306.4 60394.4 51448.9 60829.4 Q 51591.4 61264.4 51898.9 61489.4 Q 52206.4 61714.4 52611.4 61714.4 Q 53151.4 61714.4 53586.4 61429.4 Q 54186.4 61039.4 55026.4 59854.4 L 55026.4 52354.4 Q 55026.4 50764.4 54733.9 50374.4 Q 54441.4 49984.4 53511.4 49864.4 L 53511.4 49309.4 L 59226.4 49309.4 Z M 74611 55819.4 L 66916 55819.4 Q 67051 58609.4 68401 60229.4 Q 69436 61474.4 70891 61474.4 Q 71791 61474.4 72526 60971.9 Q 73261 60469.4 74101 59164.4 L 74611 59494.4 Q 73471 61819.4 72091 62786.9 Q 70711 63754.4 68896 63754.4 Q 65776 63754.4 64171 61354.4 Q 62881 59419.4 62881 56554.4 Q 62881 53044.4 64778.5 50966.9 Q 66676 48889.4 69226 48889.4 Q 71356 48889.4 72923.5 50636.9 Q 74491 52384.4 74611 55819.4  Z M 70921 54814.4 Q 70921 52399.4 70658.5 51499.4 Q 70396 50599.4 69841 50134.4 Q 69526 49864.4 69001 49864.4 Q 68221 49864.4 67726 50629.4 Q 66841 51964.4 66841 54289.4 L 66841 54814.4 L 70921 54814.4 Z M 82080.2 49309.4 L 82080.2 51124.4 Q 83160.2 49954.4 84150.2 49421.9 Q 85140.2 48889.4 86280.2 48889.4 Q 87645.2 48889.4 88545.2 49646.9 Q 89445.2 50404.4 89745.2 51529.4 Q 89985.2 52384.4 89985.2 54814.4 L 89985.2 60274.4 Q 89985.2 61894.4 90277.7 62291.9 Q 90570.2 62689.4 91500.2 62794.4 L 91500.2 63334.4 L 84405.2 63334.4 L 84405.2 62794.4 Q 85200.2 62689.4 85545.2 62134.4 Q 85785.2 61759.4 85785.2 60274.4 L 85785.2 54034.4 Q 85785.2 52309.4 85650.2 51859.4 Q 85515.2 51409.4 85192.7 51161.9 Q 84870.2 50914.4 84480.2 50914.4 Q 83190.2 50914.4 82080.2 52759.4 L 82080.2 60274.4 Q 82080.2 61849.4 82372.7 62269.4 Q 82665.2 62689.4 83460.2 62794.4 L 83460.2 63334.4 L 76365.2 63334.4 L 76365.2 62794.4 Q 77250.2 62704.4 77625.2 62224.4 Q 77880.2 61894.4 77880.2 60274.4 L 77880.2 52354.4 Q 77880.2 50764.4 77587.7 50374.4 Q 77295.2 49984.4 76365.2 49864.4 L 76365.2 49309.4 L 82080.2 49309.4 Z M 104844.8 59719.4 L 105309.8 60079.4 Q 104319.8 61939.4 102842.3 62846.9 Q 101364.8 63754.4 99699.8 63754.4 Q 96894.8 63754.4 95214.8 61639.4 Q 93534.8 59524.4 93534.8 56554.4 Q 93534.8 53689.4 95064.8 51514.4 Q 96909.8 48889.4 100149.8 48889.4 Q 102324.8 48889.4 103607.3 49984.4 Q 104889.8 51079.4 104889.8 52429.4 Q 104889.8 53284.4 104372.3 53794.4 Q 103854.8 54304.4 103014.8 54304.4 Q 102129.8 54304.4 101552.3 53719.4 Q 100974.8 53134.4 100839.8 51634.4 Q 100749.8 50689.4 100404.8 50314.4 Q 100059.8 49939.4 99594.8 49939.4 Q 98874.8 49939.4 98364.8 50704.4 Q 97584.8 51859.4 97584.8 54244.4 Q 97584.8 56224.4 98214.8 58031.9 Q 98844.8 59839.4 99939.8 60724.4 Q 100764.8 61369.4 101889.8 61369.4 Q 102624.8 61369.4 103284.8 61024.4 Q 103944.8 60679.4 104844.8 59719.4  Z M 118899 55819.4 L 111204 55819.4 Q 111339 58609.4 112689 60229.4 Q 113724 61474.4 115179 61474.4 Q 116079 61474.4 116814 60971.9 Q 117549 60469.4 118389 59164.4 L 118899 59494.4 Q 117759 61819.4 116379 62786.9 Q 114999 63754.4 113184 63754.4 Q 110064 63754.4 108459 61354.4 Q 107169 59419.4 107169 56554.4 Q 107169 53044.4 109066.5 50966.9 Q 110964 48889.4 113514 48889.4 Q 115644 48889.4 117211.5 50636.9 Q 118779 52384.4 118899 55819.4  Z M 115209 54814.4 Q 115209 52399.4 114946.5 51499.4 Q 114684 50599.4 114129 50134.4 Q 113814 49864.4 113289 49864.4 Q 112509 49864.4 112014 50629.4 Q 111129 51964.4 111129 54289.4 L 111129 54814.4 L 115209 54814.4 Z M 16718 76940 L 16718 93080 Q 16718 94715 16808 95015 Q 16928 95510 17265.5 95750 Q 17603 95990 18443 96050 L 18443 96545 L 12518 97700 L 12518 95480 Q 11453 96770 10620.5 97235 Q 9788 97700 8738 97700 Q 6053 97700 4493 95300 Q 3233 93350 3233 90515 Q 3233 88250 4013 86457.5 Q 4793 84665 6150.5 83750 Q 7508 82835 9068 82835 Q 10073 82835 10853 83225 Q 11633 83615 12518 84590 L 12518 80360 Q 12518 78755 12383 78425 Q 12203 77990 11843 77780 Q 11483 77570 10493 77570 L 10493 76940 L 16718 76940 Z M 12518 86450 Q 11408 84320 9803 84320 Q 9248 84320 8888 84620 Q 8333 85085 7980.5 86255 Q 7628 87425 7628 89840 Q 7628 92495 8018 93770 Q 8408 95045 9083 95615 Q 9428 95900 10028 95900 Q 11348 95900 12518 93830 L 12518 86450 Z M 32012.6 89765 L 24317.6 89765 Q 24452.6 92555 25802.6 94175 Q 26837.6 95420 28292.6 95420 Q 29192.6 95420 29927.6 94917.5 Q 30662.6 94415 31502.6 93110 L 32012.6 93440 Q 30872.6 95765 29492.6 96732.5 Q 28112.6 97700 26297.6 97700 Q 23177.6 97700 21572.6 95300 Q 20282.6 93365 20282.6 90500 Q 20282.6 86990 22180.1 84912.5 Q 24077.6 82835 26627.6 82835 Q 28757.6 82835 30325.1 84582.5 Q 31892.6 86330 32012.6 89765  Z M 28322.6 88760 Q 28322.6 86345 28060.1 85445 Q 27797.6 84545 27242.6 84080 Q 26927.6 83810 26402.6 83810 Q 25622.6 83810 25127.6 84575 Q 24242.6 85910 24242.6 88235 L 24242.6 88760 L 28322.6 88760 Z M 42616.8 82865 L 42841.8 87650 L 42331.8 87650 Q 41416.8 85520 40434.3 84740 Q 39451.8 83960 38476.8 83960 Q 37861.8 83960 37426.8 84372.5 Q 36991.8 84785 36991.8 85325 Q 36991.8 85730 37291.8 86105 Q 37771.8 86720 39976.8 88212.5 Q 42181.8 89705 42879.3 90747.5 Q 43576.8 91790 43576.8 93080 Q 43576.8 94250 42991.8 95375 Q 42406.8 96500 41341.8 97100 Q 40276.8 97700 38986.8 97700 Q 37981.8 97700 36301.8 97070 Q 35851.8 96905 35686.8 96905 Q 35191.8 96905 34861.8 97655 L 34366.8 97655 L 34126.8 92615 L 34636.8 92615 Q 35311.8 94595 36489.3 95585 Q 37666.8 96575 38716.8 96575 Q 39436.8 96575 39894.3 96132.5 Q 40351.8 95690 40351.8 95060 Q 40351.8 94340 39901.8 93815 Q 39451.8 93290 37891.8 92225 Q 35596.8 90635 34921.8 89795 Q 33931.8 88565 33931.8 87080 Q 33931.8 85460 35049.3 84147.5 Q 36166.8 82835 38281.8 82835 Q 39421.8 82835 40486.8 83390 Q 40891.8 83615 41146.8 83615 Q 41416.8 83615 41581.8 83502.5 Q 41746.8 83390 42106.8 82865 L 42616.8 82865 Z M 49056.4 76460 Q 50031.4 76460 50706.4 77142.5 Q 51381.4 77825 51381.4 78785 Q 51381.4 79745 50698.9 80420 Q 50016.4 81095 49056.4 81095 Q 48096.4 81095 47421.4 80420 Q 46746.4 79745 46746.4 78785 Q 46746.4 77825 47421.4 77142.5 Q 48096.4 76460 49056.4 76460  Z M 51156.4 83255 L 51156.4 94370 Q 51156.4 95855 51501.4 96267.5 Q 51846.4 96680 52851.4 96740 L 52851.4 97280 L 45276.4 97280 L 45276.4 96740 Q 46206.4 96710 46656.4 96200 Q 46956.4 95855 46956.4 94370 L 46956.4 86180 Q 46956.4 84695 46611.4 84282.5 Q 46266.4 83870 45276.4 83810 L 45276.4 83255 L 51156.4 83255 Z M 63180.6 83420 L 67905.6 83420 L 67905.6 85070 L 65220.6 85070 Q 65955.6 85805 66240.6 86405 Q 66600.6 87215 66600.6 88100 Q 66600.6 89600 65768.1 90702.5 Q 64935.6 91805 63503.1 92427.5 Q 62070.6 93050 60960.6 93050 Q 60870.6 93050 59160.6 92975 Q 58485.6 92975 58028.1 93417.5 Q 57570.6 93860 57570.6 94475 Q 57570.6 95015 57983.1 95360 Q 58395.6 95705 59325.6 95705 L 61920.6 95675 Q 65070.6 95675 66255.6 96365 Q 67950.6 97325 67950.6 99320 Q 67950.6 100595 67170.6 101637.5 Q 66390.6 102680 65115.6 103175 Q 63180.6 103910 60660.6 103910 Q 58770.6 103910 57210.6 103542.5 Q 55650.6 103175 54975.6 102522.5 Q 54300.6 101870 54300.6 101150 Q 54300.6 100460 54818.1 99912.5 Q 55335.6 99365 56745.6 98990 Q 54795.6 98030 54795.6 96320 Q 54795.6 95285 55590.6 94310 Q 56385.6 93335 58110.6 92615 Q 56100.6 91880 55200.6 90680 Q 54300.6 89480 54300.6 87905 Q 54300.6 85850 55980.6 84342.5 Q 57660.6 82835 60300.6 82835 Q 61695.6 82835 63180.6 83420  Z M 60585.6 83765 Q 59715.6 83765 59115.6 84642.5 Q 58515.6 85520 58515.6 88280 Q 58515.6 90515 59108.1 91347.5 Q 59700.6 92180 60510.6 92180 Q 61410.6 92180 62010.6 91355 Q 62610.6 90530 62610.6 88145 Q 62610.6 85460 61935.6 84485 Q 61455.6 83765 60585.6 83765  Z M 59700.6 99350 Q 58170.6 99350 57675.6 99605 Q 56820.6 100070 56820.6 100865 Q 56820.6 101630 57705.6 102252.5 Q 58590.6 102875 61035.6 102875 Q 63120.6 102875 64313.1 102320 Q 65505.6 101765 65505.6 100760 Q 65505.6 100385 65280.6 100130 Q 64875.6 99680 64058.1 99515 Q 63240.6 99350 59700.6 99350  Z M 75270.6 83255 L 75270.6 85070 Q 76350.6 83900 77340.6 83367.5 Q 78330.6 82835 79470.6 82835 Q 80835.6 82835 81735.6 83592.5 Q 82635.6 84350 82935.6 85475 Q 83175.6 86330 83175.6 88760 L 83175.6 94220 Q 83175.6 95840 83468.1 96237.5 Q 83760.6 96635 84690.6 96740 L 84690.6 97280 L 77595.6 97280 L 77595.6 96740 Q 78390.6 96635 78735.6 96080 Q 78975.6 95705 78975.6 94220 L 78975.6 87980 Q 78975.6 86255 78840.6 85805 Q 78705.6 85355 78383.1 85107.5 Q 78060.6 84860 77670.6 84860 Q 76380.6 84860 75270.6 86705 L 75270.6 94220 Q 75270.6 95795 75563.1 96215 Q 75855.6 96635 76650.6 96740 L 76650.6 97280 L 69555.6 97280 L 69555.6 96740 Q 70440.6 96650 70815.6 96170 Q 71070.6 95840 71070.6 94220 L 71070.6 86300 Q 71070.6 84710 70778.1 84320 Q 70485.6 83930 69555.6 83810 L 69555.6 83255 L 75270.6 83255 Z " fill-rule="nonzero" style="fill:#974806;;fill-opacity:1;"/>
</svg>