<svg version="1.1" x="0" y="0" width="100%" height="100%" viewBox="0 0 478976 422041.6" xmlns="http://www.w3.org/2000/svg">
  <path d="M 13384.5 26837 L 13384.5 34545 Q 13384.5 36800 13661.25 37384.25 Q 13938 37968.5 14645.25 38317 Q 15352.5 38665.5 17238.5 38665.5 L 17238.5 39424 L 3114 39424 L 3114 38665.5 Q 5041 38665.5 5727.75 38306.75 Q 6414.5 37948 6691.25 37374 Q 6968 36800 6968 34545 L 6968 16505 Q 6968 14250 6691.25 13665.75 Q 6414.5 13081.5 5717.5 12733 Q 5020.5 12384.5 3114 12384.5 L 3114 11626 L 15229.5 11626 Q 21215.5 11626 23819 13758 Q 26422.5 15890 26422.5 19088 Q 26422.5 21794 24741.5 23721 Q 23060.5 25648 20108.5 26345 Q 18120 26837 13384.5 26837  Z M 13384.5 13225 L 13384.5 25238 Q 14061 25279 14409.5 25279 Q 16910.5 25279 18263.5 23792.75 Q 19616.5 22306.5 19616.5 19190.5 Q 19616.5 16095 18263.5 14660 Q 16910.5 13225 14225 13225 L 13384.5 13225 Z M 39640.5 36595 Q 36135 39690.5 33347 39690.5 Q 31707 39690.5 30620.5 38614.25 Q 29534 37538 29534 35918.5 Q 29534 33725 31420 31972.25 Q 33306 30219.5 39640.5 27308.5 L 39640.5 25381.5 Q 39640.5 23208.5 39404.75 22644.75 Q 39169 22081 38513 21660.75 Q 37857 21240.5 37037 21240.5 Q 35704.5 21240.5 34843.5 21835 Q 34310.5 22204 34310.5 22696 Q 34310.5 23126.5 34884.5 23762 Q 35663.5 24643.5 35663.5 25463.5 Q 35663.5 26468 34915.25 27175.25 Q 34167 27882.5 32957.5 27882.5 Q 31666 27882.5 30794.75 27103.5 Q 29923.5 26324.5 29923.5 25279 Q 29923.5 23803 31092 22460.25 Q 32260.5 21117.5 34351.5 20400 Q 36442.5 19682.5 38697.5 19682.5 Q 41424 19682.5 43012.75 20840.75 Q 44601.5 21999 45073 23352 Q 45360 24213 45360 27308.5 L 45360 34750 Q 45360 36062 45462.5 36400.25 Q 45565 36738.5 45770 36902.5 Q 45975 37066.5 46241.5 37066.5 Q 46774.5 37066.5 47328 36308 L 47943 36800 Q 46918 38317 45821.25 39003.75 Q 44724.5 39690.5 43330.5 39690.5 Q 41690.5 39690.5 40768 38921.75 Q 39845.5 38153 39640.5 36595  Z M 39640.5 35098.5 L 39640.5 28682 Q 37160 30137.5 35950.5 31798 Q 35151 32905 35151 34032.5 Q 35151 34975.5 35827.5 35693 Q 36340 36246.5 37262.5 36246.5 Q 38287.5 36246.5 39640.5 35098.5  Z M 58008.5 20256.5 L 58008.5 24602.5 Q 59915 21630 61350 20656.25 Q 62785 19682.5 64117.5 19682.5 Q 65265.5 19682.5 65952.25 20389.75 Q 66639 21097 66639 22388.5 Q 66639 23762 65972.75 24520.5 Q 65306.5 25279 64363.5 25279 Q 63277 25279 62477.5 24582 Q 61678 23885 61534.5 23803 Q 61329.5 23680 61063 23680 Q 60468.5 23680 59935.5 24131 Q 59095 24828 58664.5 26119.5 Q 58008.5 28108 58008.5 30506.5 L 58008.5 34914 L 58029 36062 Q 58029 37230.5 58172.5 37558.5 Q 58418.5 38112 58900.25 38368.25 Q 59382 38624.5 60530 38686 L 60530 39424 L 50177.5 39424 L 50177.5 38686 Q 51428 38583.5 51868.75 37999.25 Q 52309.5 37415 52309.5 34914 L 52309.5 24315.5 Q 52309.5 22675.5 52145.5 22224.5 Q 51940.5 21650.5 51551 21384 Q 51161.5 21117.5 50177.5 21015 L 50177.5 20256.5 L 58008.5 20256.5 Z M 76245.6 13245.5 L 76245.6 20256.5 L 80796.6 20256.5 L 80796.6 22286 L 76245.6 22286 L 76245.6 34114.5 Q 76245.6 35775 76399.35 36256.75 Q 76553.1 36738.5 76942.6 37035.75 Q 77332.1 37333 77660.1 37333 Q 78992.6 37333 80181.6 35303.5 L 80796.6 35754.5 Q 79136.1 39690.5 75405.1 39690.5 Q 73580.6 39690.5 72319.85 38675.75 Q 71059.1 37661 70710.6 36410.5 Q 70505.6 35713.5 70505.6 32638.5 L 70505.6 22286 L 68004.6 22286 L 68004.6 21568.5 Q 70587.6 19744 72401.85 17735 Q 74216.1 15726 75569.1 13245.5 L 76245.6 13245.5 Z M 94876.7 11052 L 94876.7 33786.5 Q 94876.7 36349 95102.2 37056.25 Q 95327.7 37763.5 96045.2 38214.5 Q 96762.7 38665.5 98341.2 38665.5 L 98976.7 38665.5 L 98976.7 39424 L 84339.7 39424 L 84339.7 38665.5 L 85077.7 38665.5 Q 86861.2 38665.5 87619.7 38255.5 Q 88378.2 37845.5 88644.7 37128 Q 88911.2 36410.5 88911.2 33786.5 L 88911.2 19375 Q 88911.2 17448 88726.7 16966.25 Q 88542.2 16484.5 88039.95 16146.25 Q 87537.7 15808 86881.7 15808 Q 85836.2 15808 84339.7 16464 L 83970.7 15726 L 94200.2 11052 L 94876.7 11052 Z M 119702.2 19703 Q 121116.7 19703 122110.95 20697.25 Q 123105.2 21691.5 123105.2 23106 Q 123105.2 24520.5 122110.95 25514.75 Q 121116.7 26509 119702.2 26509 Q 118287.7 26509 117293.45 25514.75 Q 116299.2 24520.5 116299.2 23106 Q 116299.2 21691.5 117293.45 20697.25 Q 118287.7 19703 119702.2 19703  Z M 119681.7 33110 Q 121116.7 33110 122110.95 34114.5 Q 123105.2 35119 123105.2 36533.5 Q 123105.2 37948 122100.7 38942.25 Q 121096.2 39936.5 119681.7 39936.5 Q 118267.2 39936.5 117272.95 38942.25 Q 116278.7 37948 116278.7 36533.5 Q 116278.7 35119 117272.95 34114.5 Q 118267.2 33110 119681.7 33110  Z M 148706.3 13225 L 148706.3 24643.5 L 149505.8 24643.5 Q 151350.8 24643.5 152519.3 24090 Q 153687.8 23536.5 154497.55 22224.5 Q 155307.3 20912.5 155553.3 18678 L 156270.8 18678 L 156270.8 32638.5 L 155553.3 32638.5 Q 155163.8 28682 153431.55 27421.25 Q 151699.3 26160.5 149505.8 26160.5 L 148706.3 26160.5 L 148706.3 34668 Q 148706.3 36800 148942.05 37333 Q 149177.8 37866 149864.55 38265.75 Q 150551.3 38665.5 151719.8 38665.5 L 152642.3 38665.5 L 152642.3 39424 L 138107.8 39424 L 138107.8 38665.5 L 139030.3 38665.5 Q 140239.8 38665.5 140977.8 38235 Q 141510.8 37948 141797.8 37251 Q 142023.3 36759 142023.3 34668 L 142023.3 16382 Q 142023.3 14250 141797.8 13717 Q 141572.3 13184 140885.55 12784.25 Q 140198.8 12384.5 139030.3 12384.5 L 138107.8 12384.5 L 138107.8 11626 L 161559.8 11626 L 161559.8 19600.5 L 160719.3 19600.5 Q 160432.3 16792 159253.55 15439 Q 158074.8 14086 155840.3 13532.5 Q 154610.3 13225 151289.3 13225 L 148706.3 13225 Z M 174757.3 36595 Q 171251.8 39690.5 168463.8 39690.5 Q 166823.8 39690.5 165737.3 38614.25 Q 164650.8 37538 164650.8 35918.5 Q 164650.8 33725 166536.8 31972.25 Q 168422.8 30219.5 174757.3 27308.5 L 174757.3 25381.5 Q 174757.3 23208.5 174521.55 22644.75 Q 174285.8 22081 173629.8 21660.75 Q 172973.8 21240.5 172153.8 21240.5 Q 170821.3 21240.5 169960.3 21835 Q 169427.3 22204 169427.3 22696 Q 169427.3 23126.5 170001.3 23762 Q 170780.3 24643.5 170780.3 25463.5 Q 170780.3 26468 170032.05 27175.25 Q 169283.8 27882.5 168074.3 27882.5 Q 166782.8 27882.5 165911.55 27103.5 Q 165040.3 26324.5 165040.3 25279 Q 165040.3 23803 166208.8 22460.25 Q 167377.3 21117.5 169468.3 20400 Q 171559.3 19682.5 173814.3 19682.5 Q 176540.8 19682.5 178129.55 20840.75 Q 179718.3 21999 180189.8 23352 Q 180476.8 24213 180476.8 27308.5 L 180476.8 34750 Q 180476.8 36062 180579.3 36400.25 Q 180681.8 36738.5 180886.8 36902.5 Q 181091.8 37066.5 181358.3 37066.5 Q 181891.3 37066.5 182444.8 36308 L 183059.8 36800 Q 182034.8 38317 180938.05 39003.75 Q 179841.3 39690.5 178447.3 39690.5 Q 176807.3 39690.5 175884.8 38921.75 Q 174962.3 38153 174757.3 36595  Z M 174757.3 35098.5 L 174757.3 28682 Q 172276.8 30137.5 171067.3 31798 Q 170267.8 32905 170267.8 34032.5 Q 170267.8 34975.5 170944.3 35693 Q 171456.8 36246.5 172379.3 36246.5 Q 173404.3 36246.5 174757.3 35098.5  Z M 192674.3 11626 L 192674.3 35447 Q 192674.3 37476.5 193145.8 38040.25 Q 193617.3 38604 194990.8 38686 L 194990.8 39424 L 184638.3 39424 L 184638.3 38686 Q 185909.3 38645 186524.3 37948 Q 186934.3 37476.5 186934.3 35447 L 186934.3 15603 Q 186934.3 13594 186462.8 13030.25 Q 185991.3 12466.5 184638.3 12384.5 L 184638.3 11626 L 192674.3 11626 Z M 212435.2 34483.5 L 213070.7 34975.5 Q 211717.7 37517.5 209698.45 38757.75 Q 207679.2 39998 205403.7 39998 Q 201570.2 39998 199274.2 37107.5 Q 196978.2 34217 196978.2 30158 Q 196978.2 26242.5 199069.2 23270 Q 201590.7 19682.5 206018.7 19682.5 Q 208991.2 19682.5 210743.95 21179 Q 212496.7 22675.5 212496.7 24520.5 Q 212496.7 25689 211789.45 26386 Q 211082.2 27083 209934.2 27083 Q 208724.7 27083 207935.45 26283.5 Q 207146.2 25484 206961.7 23434 Q 206838.7 22142.5 206367.2 21630 Q 205895.7 21117.5 205260.2 21117.5 Q 204276.2 21117.5 203579.2 22163 Q 202513.2 23741.5 202513.2 27001 Q 202513.2 29707 203374.2 32177.25 Q 204235.2 34647.5 205731.7 35857 Q 206859.2 36738.5 208396.7 36738.5 Q 209401.2 36738.5 210303.2 36267 Q 211205.2 35795.5 212435.2 34483.5  Z M 224419.8 19682.5 Q 226920.8 19682.5 229073.3 20974 Q 231225.8 22265.5 232343.05 24643.5 Q 233460.3 27021.5 233460.3 29850.5 Q 233460.3 33930 231389.8 36677 Q 228888.8 39998 224481.3 39998 Q 220155.8 39998 217818.8 36964 Q 215481.8 33930 215481.8 29932.5 Q 215481.8 25812 217870.05 22747.25 Q 220258.3 19682.5 224419.8 19682.5  Z M 224501.8 21138 Q 223456.3 21138 222708.05 21927.25 Q 221959.8 22716.5 221724.05 25043.25 Q 221488.3 27370 221488.3 31511 Q 221488.3 33704.5 221775.3 35611 Q 222000.8 37066.5 222738.8 37825 Q 223476.8 38583.5 224419.8 38583.5 Q 225342.3 38583.5 225957.3 38071 Q 226756.8 37374 227023.3 36123.5 Q 227433.3 34176 227433.3 28251.5 Q 227433.3 24766.5 227043.8 23464.75 Q 226654.3 22163 225895.8 21568.5 Q 225362.8 21138 224501.8 21138  Z M 244202.3 20256.5 L 244202.3 22737 Q 245678.3 21138 247031.3 20410.25 Q 248384.3 19682.5 249942.3 19682.5 Q 251807.8 19682.5 253037.8 20717.75 Q 254267.8 21753 254677.8 23290.5 Q 255005.8 24459 255005.8 27780 L 255005.8 35242 Q 255005.8 37456 255405.55 37999.25 Q 255805.3 38542.5 257076.3 38686 L 257076.3 39424 L 247379.8 39424 L 247379.8 38686 Q 248466.3 38542.5 248937.8 37784 Q 249265.8 37271.5 249265.8 35242 L 249265.8 26714 Q 249265.8 24356.5 249081.3 23741.5 Q 248896.8 23126.5 248456.05 22788.25 Q 248015.3 22450 247482.3 22450 Q 245719.3 22450 244202.3 24971.5 L 244202.3 35242 Q 244202.3 37394.5 244602.05 37968.5 Q 245001.8 38542.5 246088.3 38686 L 246088.3 39424 L 236391.8 39424 L 236391.8 38686 Q 237601.3 38563 238113.8 37907 Q 238462.3 37456 238462.3 35242 L 238462.3 24418 Q 238462.3 22245 238062.55 21712 Q 237662.8 21179 236391.8 21015 L 236391.8 20256.5 L 244202.3 20256.5 Z M 264331 10970 Q 265663.5 10970 266586 11902.75 Q 267508.5 12835.5 267508.5 14147.5 Q 267508.5 15459.5 266575.75 16382 Q 265643 17304.5 264331 17304.5 Q 263019 17304.5 262096.5 16382 Q 261174 15459.5 261174 14147.5 Q 261174 12835.5 262096.5 11902.75 Q 263019 10970 264331 10970  Z M 267201 20256.5 L 267201 35447 Q 267201 37476.5 267672.5 38040.25 Q 268144 38604 269517.5 38686 L 269517.5 39424 L 259165 39424 L 259165 38686 Q 260436 38645 261051 37948 Q 261461 37476.5 261461 35447 L 261461 24254 Q 261461 22224.5 260989.5 21660.75 Q 260518 21097 259165 21015 L 259165 20256.5 L 267201 20256.5 Z M 286982.4 34483.5 L 287617.9 34975.5 Q 286264.9 37517.5 284245.65 38757.75 Q 282226.4 39998 279950.9 39998 Q 276117.4 39998 273821.4 37107.5 Q 271525.4 34217 271525.4 30158 Q 271525.4 26242.5 273616.4 23270 Q 276137.9 19682.5 280565.9 19682.5 Q 283538.4 19682.5 285291.15 21179 Q 287043.9 22675.5 287043.9 24520.5 Q 287043.9 25689 286336.65 26386 Q 285629.4 27083 284481.4 27083 Q 283271.9 27083 282482.65 26283.5 Q 281693.4 25484 281508.9 23434 Q 281385.9 22142.5 280914.4 21630 Q 280442.9 21117.5 279807.4 21117.5 Q 278823.4 21117.5 278126.4 22163 Q 277060.4 23741.5 277060.4 27001 Q 277060.4 29707 277921.4 32177.25 Q 278782.4 34647.5 280278.9 35857 Q 281406.4 36738.5 282943.9 36738.5 Q 283948.4 36738.5 284850.4 36267 Q 285752.4 35795.5 286982.4 34483.5  Z M 316474 31511 L 306654.5 31511 L 305486 34217 Q 304912 35570 304912 36451.5 Q 304912 37620 305855 38173.5 Q 306408.5 38501.5 308581.5 38665.5 L 308581.5 39424 L 299336 39424 L 299336 38665.5 Q 300832.5 38440 301796 37425.25 Q 302759.5 36410.5 304174 33233 L 314116.5 11052 L 314506 11052 L 324530.5 33848 Q 325965.5 37087 326888 37927.5 Q 327585 38563 328856 38665.5 L 328856 39424 L 315408 39424 L 315408 38665.5 L 315961.5 38665.5 Q 317581 38665.5 318237 38214.5 Q 318688 37886.5 318688 37271.5 Q 318688 36902.5 318565 36513 Q 318524 36328.5 317950 34975.5 L 316474 31511 Z M 315777 29994 L 311636 20420.5 L 307372 29994 L 315777 29994 Z M 346374.4 34483.5 L 347009.9 34975.5 Q 345656.9 37517.5 343637.65 38757.75 Q 341618.4 39998 339342.9 39998 Q 335509.4 39998 333213.4 37107.5 Q 330917.4 34217 330917.4 30158 Q 330917.4 26242.5 333008.4 23270 Q 335529.9 19682.5 339957.9 19682.5 Q 342930.4 19682.5 344683.15 21179 Q 346435.9 22675.5 346435.9 24520.5 Q 346435.9 25689 345728.65 26386 Q 345021.4 27083 343873.4 27083 Q 342663.9 27083 341874.65 26283.5 Q 341085.4 25484 340900.9 23434 Q 340777.9 22142.5 340306.4 21630 Q 339834.9 21117.5 339199.4 21117.5 Q 338215.4 21117.5 337518.4 22163 Q 336452.4 23741.5 336452.4 27001 Q 336452.4 29707 337313.4 32177.25 Q 338174.4 34647.5 339670.9 35857 Q 340798.4 36738.5 342335.9 36738.5 Q 343340.4 36738.5 344242.4 36267 Q 345144.4 35795.5 346374.4 34483.5  Z M 353931 10970 Q 355263.5 10970 356186 11902.75 Q 357108.5 12835.5 357108.5 14147.5 Q 357108.5 15459.5 356175.75 16382 Q 355243 17304.5 353931 17304.5 Q 352619 17304.5 351696.5 16382 Q 350774 15459.5 350774 14147.5 Q 350774 12835.5 351696.5 11902.75 Q 352619 10970 353931 10970  Z M 356801 20256.5 L 356801 35447 Q 356801 37476.5 357272.5 38040.25 Q 357744 38604 359117.5 38686 L 359117.5 39424 L 348765 39424 L 348765 38686 Q 350036 38645 350651 37948 Q 351061 37476.5 351061 35447 L 351061 24254 Q 351061 22224.5 350589.5 21660.75 Q 350118 21097 348765 21015 L 348765 20256.5 L 356801 20256.5 Z M 379575.4 11626 L 379575.4 33684 Q 379575.4 35918.5 379698.4 36328.5 Q 379862.4 37005 380323.65 37333 Q 380784.9 37661 381932.9 37743 L 381932.9 38419.5 L 373835.4 39998 L 373835.4 36964 Q 372379.9 38727 371242.15 39362.5 Q 370104.4 39998 368669.4 39998 Q 364999.9 39998 362867.9 36718 Q 361145.9 34053 361145.9 30178.5 Q 361145.9 27083 362211.9 24633.25 Q 363277.9 22183.5 365133.15 20933 Q 366988.4 19682.5 369120.4 19682.5 Q 370493.9 19682.5 371559.9 20215.5 Q 372625.9 20748.5 373835.4 22081 L 373835.4 16300 Q 373835.4 14106.5 373650.9 13655.5 Q 373404.9 13061 372912.9 12774 Q 372420.9 12487 371067.9 12487 L 371067.9 11626 L 379575.4 11626 Z M 373835.4 24623 Q 372318.4 21712 370124.9 21712 Q 369366.4 21712 368874.4 22122 Q 368115.9 22757.5 367634.15 24356.5 Q 367152.4 25955.5 367152.4 29256 Q 367152.4 32884.5 367685.4 34627 Q 368218.4 36369.5 369140.9 37148.5 Q 369612.4 37538 370432.4 37538 Q 372236.4 37538 373835.4 34709 L 373835.4 24623 Z M 395850.1 31900.5 L 383898.6 31900.5 L 383898.6 27657 L 395850.1 27657 L 395850.1 31900.5 Z M 8075 57408.4 Q 9407.5 57408.4 10330 58341.15 Q 11252.5 59273.9 11252.5 60585.9 Q 11252.5 61897.9 10319.75 62820.4 Q 9387 63742.9 8075 63742.9 Q 6763 63742.9 5840.5 62820.4 Q 4918 61897.9 4918 60585.9 Q 4918 59273.9 5840.5 58341.15 Q 6763 57408.4 8075 57408.4  Z M 10945 66694.9 L 10945 81885.4 Q 10945 83914.9 11416.5 84478.65 Q 11888 85042.4 13261.5 85124.4 L 13261.5 85862.4 L 2909 85862.4 L 2909 85124.4 Q 4180 85083.4 4795 84386.4 Q 5205 83914.9 5205 81885.4 L 5205 70692.4 Q 5205 68662.9 4733.5 68099.15 Q 4262 67535.4 2909 67453.4 L 2909 66694.9 L 10945 66694.9 Z M 22915.9 66694.9 L 22915.9 69175.4 Q 24391.9 67576.4 25744.9 66848.65 Q 27097.9 66120.9 28655.9 66120.9 Q 30521.4 66120.9 31751.4 67156.15 Q 32981.4 68191.4 33391.4 69728.9 Q 33719.4 70897.4 33719.4 74218.4 L 33719.4 81680.4 Q 33719.4 83894.4 34119.15 84437.65 Q 34518.9 84980.9 35789.9 85124.4 L 35789.9 85862.4 L 26093.4 85862.4 L 26093.4 85124.4 Q 27179.9 84980.9 27651.4 84222.4 Q 27979.4 83709.9 27979.4 81680.4 L 27979.4 73152.4 Q 27979.4 70794.9 27794.9 70179.9 Q 27610.4 69564.9 27169.65 69226.65 Q 26728.9 68888.4 26195.9 68888.4 Q 24432.9 68888.4 22915.9 71409.9 L 22915.9 81680.4 Q 22915.9 83832.9 23315.65 84406.9 Q 23715.4 84980.9 24801.9 85124.4 L 24801.9 85862.4 L 15105.4 85862.4 L 15105.4 85124.4 Q 16314.9 85001.4 16827.4 84345.4 Q 17175.9 83894.4 17175.9 81680.4 L 17175.9 70856.4 Q 17175.9 68683.4 16776.15 68150.4 Q 16376.4 67617.4 15105.4 67453.4 L 15105.4 66694.9 L 22915.9 66694.9 Z M 57066.6 58064.4 L 57066.6 80122.4 Q 57066.6 82356.9 57189.6 82766.9 Q 57353.6 83443.4 57814.85 83771.4 Q 58276.1 84099.4 59424.1 84181.4 L 59424.1 84857.9 L 51326.6 86436.4 L 51326.6 83402.4 Q 49871.1 85165.4 48733.35 85800.9 Q 47595.6 86436.4 46160.6 86436.4 Q 42491.1 86436.4 40359.1 83156.4 Q 38637.1 80491.4 38637.1 76616.9 Q 38637.1 73521.4 39703.1 71071.65 Q 40769.1 68621.9 42624.35 67371.4 Q 44479.6 66120.9 46611.6 66120.9 Q 47985.1 66120.9 49051.1 66653.9 Q 50117.1 67186.9 51326.6 68519.4 L 51326.6 62738.4 Q 51326.6 60544.9 51142.1 60093.9 Q 50896.1 59499.4 50404.1 59212.4 Q 49912.1 58925.4 48559.1 58925.4 L 48559.1 58064.4 L 57066.6 58064.4 Z M 51326.6 71061.4 Q 49809.6 68150.4 47616.1 68150.4 Q 46857.6 68150.4 46365.6 68560.4 Q 45607.1 69195.9 45125.35 70794.9 Q 44643.6 72393.9 44643.6 75694.4 Q 44643.6 79322.9 45176.6 81065.4 Q 45709.6 82807.9 46632.1 83586.9 Q 47103.6 83976.4 47923.6 83976.4 Q 49727.6 83976.4 51326.6 81147.4 L 51326.6 71061.4 Z M 80290.8 66694.9 L 80290.8 81700.9 Q 80290.8 83894.4 80700.8 84437.65 Q 81110.8 84980.9 82361.3 85124.4 L 82361.3 85862.4 L 74550.8 85862.4 L 74550.8 83299.9 Q 73177.3 84939.9 71803.8 85688.15 Q 70430.3 86436.4 68728.8 86436.4 Q 67109.3 86436.4 65848.55 85442.15 Q 64587.8 84447.9 64157.3 83115.4 Q 63726.8 81782.9 63726.8 78461.9 L 63726.8 70856.4 Q 63726.8 68683.4 63327.05 68150.4 Q 62927.3 67617.4 61656.3 67453.4 L 61656.3 66694.9 L 69466.8 66694.9 L 69466.8 79794.4 Q 69466.8 81844.4 69661.55 82438.9 Q 69856.3 83033.4 70276.55 83340.9 Q 70696.8 83648.4 71250.3 83648.4 Q 71988.3 83648.4 72582.8 83258.9 Q 73402.8 82725.9 74550.8 81106.4 L 74550.8 70856.4 Q 74550.8 68683.4 74151.05 68150.4 Q 73751.3 67617.4 72480.3 67453.4 L 72480.3 66694.9 L 80290.8 66694.9 Z M 100768 80921.9 L 101403.5 81413.9 Q 100050.5 83955.9 98031.25 85196.15 Q 96012 86436.4 93736.5 86436.4 Q 89903 86436.4 87607 83545.9 Q 85311 80655.4 85311 76596.4 Q 85311 72680.9 87402 69708.4 Q 89923.5 66120.9 94351.5 66120.9 Q 97324 66120.9 99076.75 67617.4 Q 100829.5 69113.9 100829.5 70958.9 Q 100829.5 72127.4 100122.25 72824.4 Q 99415 73521.4 98267 73521.4 Q 97057.5 73521.4 96268.25 72721.9 Q 95479 71922.4 95294.5 69872.4 Q 95171.5 68580.9 94700 68068.4 Q 94228.5 67555.9 93593 67555.9 Q 92609 67555.9 91912 68601.4 Q 90846 70179.9 90846 73439.4 Q 90846 76145.4 91707 78615.65 Q 92568 81085.9 94064.5 82295.4 Q 95192 83176.9 96729.5 83176.9 Q 97734 83176.9 98636 82705.4 Q 99538 82233.9 100768 80921.9  Z M 108324.6 57408.4 Q 109657.1 57408.4 110579.6 58341.15 Q 111502.1 59273.9 111502.1 60585.9 Q 111502.1 61897.9 110569.35 62820.4 Q 109636.6 63742.9 108324.6 63742.9 Q 107012.6 63742.9 106090.1 62820.4 Q 105167.6 61897.9 105167.6 60585.9 Q 105167.6 59273.9 106090.1 58341.15 Q 107012.6 57408.4 108324.6 57408.4  Z M 111194.6 66694.9 L 111194.6 81885.4 Q 111194.6 83914.9 111666.1 84478.65 Q 112137.6 85042.4 113511.1 85124.4 L 113511.1 85862.4 L 103158.6 85862.4 L 103158.6 85124.4 Q 104429.6 85083.4 105044.6 84386.4 Q 105454.6 83914.9 105454.6 81885.4 L 105454.6 70692.4 Q 105454.6 68662.9 104983.1 68099.15 Q 104511.6 67535.4 103158.6 67453.4 L 103158.6 66694.9 L 111194.6 66694.9 Z M 122755.5 58064.4 L 122755.5 68621.9 Q 125174.5 66120.9 128044.5 66120.9 Q 130012.5 66120.9 131755 67279.15 Q 133497.5 68437.4 134481.5 70569.4 Q 135465.5 72701.4 135465.5 75489.4 Q 135465.5 78625.9 134215 81188.4 Q 132964.5 83750.9 130873.5 85093.65 Q 128782.5 86436.4 126097 86436.4 Q 124539 86436.4 123329.5 85944.4 Q 122120 85452.4 120951.5 84345.4 L 117774 86415.9 L 117077 86415.9 L 117077 62041.4 Q 117077 60380.9 116933.5 59991.4 Q 116728.5 59417.4 116287.75 59140.65 Q 115847 58863.9 114801.5 58822.9 L 114801.5 58064.4 L 122755.5 58064.4 Z M 122755.5 70446.4 L 122755.5 78974.4 Q 122755.5 81577.9 122878.5 82295.4 Q 123083.5 83504.9 123862.5 84253.15 Q 124641.5 85001.4 125851 85001.4 Q 126896.5 85001.4 127644.75 84406.9 Q 128393 83812.4 128895.25 82049.4 Q 129397.5 80286.4 129397.5 75694.4 Q 129397.5 71286.9 128290.5 69646.9 Q 127491 68457.9 126138 68457.9 Q 124375 68457.9 122755.5 70446.4  Z M 146184.7 58064.4 L 146184.7 81885.4 Q 146184.7 83914.9 146656.2 84478.65 Q 147127.7 85042.4 148501.2 85124.4 L 148501.2 85862.4 L 138148.7 85862.4 L 138148.7 85124.4 Q 139419.7 85083.4 140034.7 84386.4 Q 140444.7 83914.9 140444.7 81885.4 L 140444.7 62041.4 Q 140444.7 60032.4 139973.2 59468.65 Q 139501.7 58904.9 138148.7 58822.9 L 138148.7 58064.4 L 146184.7 58064.4 Z M 166540.1 75591.9 L 156023.6 75591.9 Q 156208.1 79404.9 158053.1 81618.9 Q 159467.6 83320.4 161456.1 83320.4 Q 162686.1 83320.4 163690.6 82633.65 Q 164695.1 81946.9 165843.1 80163.4 L 166540.1 80614.4 Q 164982.1 83791.9 163096.1 85114.15 Q 161210.1 86436.4 158729.6 86436.4 Q 154465.6 86436.4 152272.1 83156.4 Q 150509.1 80511.9 150509.1 76596.4 Q 150509.1 71799.4 153102.35 68960.15 Q 155695.6 66120.9 159180.6 66120.9 Q 162091.6 66120.9 164233.85 68509.15 Q 166376.1 70897.4 166540.1 75591.9  Z M 161497.1 74218.4 Q 161497.1 70917.9 161138.35 69687.9 Q 160779.6 68457.9 160021.1 67822.4 Q 159590.6 67453.4 158873.1 67453.4 Q 157807.1 67453.4 157130.6 68498.9 Q 155921.1 70323.4 155921.1 73500.9 L 155921.1 74218.4 L 161497.1 74218.4 Z M 189307.7 73275.4 L 189307.7 80983.4 Q 189307.7 83238.4 189584.45 83822.65 Q 189861.2 84406.9 190568.45 84755.4 Q 191275.7 85103.9 193161.7 85103.9 L 193161.7 85862.4 L 179037.2 85862.4 L 179037.2 85103.9 Q 180964.2 85103.9 181650.95 84745.15 Q 182337.7 84386.4 182614.45 83812.4 Q 182891.2 83238.4 182891.2 80983.4 L 182891.2 62943.4 Q 182891.2 60688.4 182614.45 60104.15 Q 182337.7 59519.9 181640.7 59171.4 Q 180943.7 58822.9 179037.2 58822.9 L 179037.2 58064.4 L 191152.7 58064.4 Q 197138.7 58064.4 199742.2 60196.4 Q 202345.7 62328.4 202345.7 65526.4 Q 202345.7 68232.4 200664.7 70159.4 Q 198983.7 72086.4 196031.7 72783.4 Q 194043.2 73275.4 189307.7 73275.4  Z M 189307.7 59663.4 L 189307.7 71676.4 Q 189984.2 71717.4 190332.7 71717.4 Q 192833.7 71717.4 194186.7 70231.15 Q 195539.7 68744.9 195539.7 65628.9 Q 195539.7 62533.4 194186.7 61098.4 Q 192833.7 59663.4 190148.2 59663.4 L 189307.7 59663.4 Z M 212939.7 66694.9 L 212939.7 71040.9 Q 214846.2 68068.4 216281.2 67094.65 Q 217716.2 66120.9 219048.7 66120.9 Q 220196.7 66120.9 220883.45 66828.15 Q 221570.2 67535.4 221570.2 68826.9 Q 221570.2 70200.4 220903.95 70958.9 Q 220237.7 71717.4 219294.7 71717.4 Q 218208.2 71717.4 217408.7 71020.4 Q 216609.2 70323.4 216465.7 70241.4 Q 216260.7 70118.4 215994.2 70118.4 Q 215399.7 70118.4 214866.7 70569.4 Q 214026.2 71266.4 213595.7 72557.9 Q 212939.7 74546.4 212939.7 76944.9 L 212939.7 81352.4 L 212960.2 82500.4 Q 212960.2 83668.9 213103.7 83996.9 Q 213349.7 84550.4 213831.45 84806.65 Q 214313.2 85062.9 215461.2 85124.4 L 215461.2 85862.4 L 205108.7 85862.4 L 205108.7 85124.4 Q 206359.2 85021.9 206799.95 84437.65 Q 207240.7 83853.4 207240.7 81352.4 L 207240.7 70753.9 Q 207240.7 69113.9 207076.7 68662.9 Q 206871.7 68088.9 206482.2 67822.4 Q 206092.7 67555.9 205108.7 67453.4 L 205108.7 66694.9 L 212939.7 66694.9 Z M 232611.8 66120.9 Q 235112.8 66120.9 237265.3 67412.4 Q 239417.8 68703.9 240535.05 71081.9 Q 241652.3 73459.9 241652.3 76288.9 Q 241652.3 80368.4 239581.8 83115.4 Q 237080.8 86436.4 232673.3 86436.4 Q 228347.8 86436.4 226010.8 83402.4 Q 223673.8 80368.4 223673.8 76370.9 Q 223673.8 72250.4 226062.05 69185.65 Q 228450.3 66120.9 232611.8 66120.9  Z M 232693.8 67576.4 Q 231648.3 67576.4 230900.05 68365.65 Q 230151.8 69154.9 229916.05 71481.65 Q 229680.3 73808.4 229680.3 77949.4 Q 229680.3 80142.9 229967.3 82049.4 Q 230192.8 83504.9 230930.8 84263.4 Q 231668.8 85021.9 232611.8 85021.9 Q 233534.3 85021.9 234149.3 84509.4 Q 234948.8 83812.4 235215.3 82561.9 Q 235625.3 80614.4 235625.3 74689.9 Q 235625.3 71204.9 235235.8 69903.15 Q 234846.3 68601.4 234087.8 68006.9 Q 233554.8 67576.4 232693.8 67576.4  Z M 252517.3 66694.9 L 252517.3 69216.4 Q 254095.8 67494.4 255438.55 66807.65 Q 256781.3 66120.9 258380.3 66120.9 Q 260225.3 66120.9 261475.8 66981.9 Q 262726.3 67842.9 263402.8 69605.9 Q 265042.8 67760.9 266549.55 66940.9 Q 268056.3 66120.9 269696.3 66120.9 Q 271684.8 66120.9 272863.55 67033.15 Q 274042.3 67945.4 274503.55 69349.65 Q 274964.8 70753.9 274964.8 73828.9 L 274964.8 81680.4 Q 274964.8 83894.4 275364.55 84427.4 Q 275764.3 84960.4 277035.3 85124.4 L 277035.3 85862.4 L 267133.8 85862.4 L 267133.8 85124.4 Q 268302.3 85021.9 268855.8 84222.4 Q 269224.8 83668.9 269224.8 81680.4 L 269224.8 73439.4 Q 269224.8 70876.9 269019.8 70179.9 Q 268814.8 69482.9 268374.05 69144.65 Q 267933.3 68806.4 267338.8 68806.4 Q 266457.3 68806.4 265555.3 69452.15 Q 264653.3 70097.9 263730.8 71389.4 L 263730.8 81680.4 Q 263730.8 83750.9 264079.3 84283.9 Q 264550.8 85042.4 265883.3 85124.4 L 265883.3 85862.4 L 255961.3 85862.4 L 255961.3 85124.4 Q 256760.8 85083.4 257222.05 84724.65 Q 257683.3 84365.9 257837.05 83863.65 Q 257990.8 83361.4 257990.8 81680.4 L 257990.8 73439.4 Q 257990.8 70835.9 257785.8 70179.9 Q 257580.8 69523.9 257099.05 69154.9 Q 256617.3 68785.9 256063.8 68785.9 Q 255243.8 68785.9 254567.3 69216.4 Q 253603.8 69851.9 252517.3 71389.4 L 252517.3 81680.4 Q 252517.3 83709.9 252917.05 84355.65 Q 253316.8 85001.4 254587.8 85124.4 L 254587.8 85862.4 L 244706.8 85862.4 L 244706.8 85124.4 Q 245916.3 85001.4 246428.8 84345.4 Q 246777.3 83894.4 246777.3 81680.4 L 246777.3 70856.4 Q 246777.3 68683.4 246377.55 68150.4 Q 245977.8 67617.4 244706.8 67453.4 L 244706.8 66694.9 L 252517.3 66694.9 Z M 288573.4 66120.9 Q 291074.4 66120.9 293226.9 67412.4 Q 295379.4 68703.9 296496.65 71081.9 Q 297613.9 73459.9 297613.9 76288.9 Q 297613.9 80368.4 295543.4 83115.4 Q 293042.4 86436.4 288634.9 86436.4 Q 284309.4 86436.4 281972.4 83402.4 Q 279635.4 80368.4 279635.4 76370.9 Q 279635.4 72250.4 282023.65 69185.65 Q 284411.9 66120.9 288573.4 66120.9  Z M 288655.4 67576.4 Q 287609.9 67576.4 286861.65 68365.65 Q 286113.4 69154.9 285877.65 71481.65 Q 285641.9 73808.4 285641.9 77949.4 Q 285641.9 80142.9 285928.9 82049.4 Q 286154.4 83504.9 286892.4 84263.4 Q 287630.4 85021.9 288573.4 85021.9 Q 289495.9 85021.9 290110.9 84509.4 Q 290910.4 83812.4 291176.9 82561.9 Q 291586.9 80614.4 291586.9 74689.9 Q 291586.9 71204.9 291197.4 69903.15 Q 290807.9 68601.4 290049.4 68006.9 Q 289516.4 67576.4 288655.4 67576.4  Z M 308130.4 59683.9 L 308130.4 66694.9 L 312681.4 66694.9 L 312681.4 68724.4 L 308130.4 68724.4 L 308130.4 80552.9 Q 308130.4 82213.4 308284.15 82695.15 Q 308437.9 83176.9 308827.4 83474.15 Q 309216.9 83771.4 309544.9 83771.4 Q 310877.4 83771.4 312066.4 81741.9 L 312681.4 82192.9 Q 311020.9 86128.9 307289.9 86128.9 Q 305465.4 86128.9 304204.65 85114.15 Q 302943.9 84099.4 302595.4 82848.9 Q 302390.4 82151.9 302390.4 79076.9 L 302390.4 68724.4 L 299889.4 68724.4 L 299889.4 68006.9 Q 302472.4 66182.4 304286.65 64173.4 Q 306100.9 62164.4 307453.9 59683.9 L 308130.4 59683.9 Z M 330738.5 75591.9 L 320222 75591.9 Q 320406.5 79404.9 322251.5 81618.9 Q 323666 83320.4 325654.5 83320.4 Q 326884.5 83320.4 327889 82633.65 Q 328893.5 81946.9 330041.5 80163.4 L 330738.5 80614.4 Q 329180.5 83791.9 327294.5 85114.15 Q 325408.5 86436.4 322928 86436.4 Q 318664 86436.4 316470.5 83156.4 Q 314707.5 80511.9 314707.5 76596.4 Q 314707.5 71799.4 317300.75 68960.15 Q 319894 66120.9 323379 66120.9 Q 326290 66120.9 328432.25 68509.15 Q 330574.5 70897.4 330738.5 75591.9  Z M 325695.5 74218.4 Q 325695.5 70917.9 325336.75 69687.9 Q 324978 68457.9 324219.5 67822.4 Q 323789 67453.4 323071.5 67453.4 Q 322005.5 67453.4 321329 68498.9 Q 320119.5 70323.4 320119.5 73500.9 L 320119.5 74218.4 L 325695.5 74218.4 Z M 341042.1 66694.9 L 341042.1 71040.9 Q 342948.6 68068.4 344383.6 67094.65 Q 345818.6 66120.9 347151.1 66120.9 Q 348299.1 66120.9 348985.85 66828.15 Q 349672.6 67535.4 349672.6 68826.9 Q 349672.6 70200.4 349006.35 70958.9 Q 348340.1 71717.4 347397.1 71717.4 Q 346310.6 71717.4 345511.1 71020.4 Q 344711.6 70323.4 344568.1 70241.4 Q 344363.1 70118.4 344096.6 70118.4 Q 343502.1 70118.4 342969.1 70569.4 Q 342128.6 71266.4 341698.1 72557.9 Q 341042.1 74546.4 341042.1 76944.9 L 341042.1 81352.4 L 341062.6 82500.4 Q 341062.6 83668.9 341206.1 83996.9 Q 341452.1 84550.4 341933.85 84806.65 Q 342415.6 85062.9 343563.6 85124.4 L 343563.6 85862.4 L 333211.1 85862.4 L 333211.1 85124.4 Q 334461.6 85021.9 334902.35 84437.65 Q 335343.1 83853.4 335343.1 81352.4 L 335343.1 70753.9 Q 335343.1 69113.9 335179.1 68662.9 Q 334974.1 68088.9 334584.6 67822.4 Q 334195.1 67555.9 333211.1 67453.4 L 333211.1 66694.9 L 341042.1 66694.9 Z M 13384.5 212590.6 L 13384.5 220298.6 Q 13384.5 222553.6 13661.25 223137.85 Q 13938 223722.1 14645.25 224070.6 Q 15352.5 224419.1 17238.5 224419.1 L 17238.5 225177.6 L 3114 225177.6 L 3114 224419.1 Q 5041 224419.1 5727.75 224060.35 Q 6414.5 223701.6 6691.25 223127.6 Q 6968 222553.6 6968 220298.6 L 6968 202258.6 Q 6968 200003.6 6691.25 199419.35 Q 6414.5 198835.1 5717.5 198486.6 Q 5020.5 198138.1 3114 198138.1 L 3114 197379.6 L 15229.5 197379.6 Q 21215.5 197379.6 23819 199511.6 Q 26422.5 201643.6 26422.5 204841.6 Q 26422.5 207547.6 24741.5 209474.6 Q 23060.5 211401.6 20108.5 212098.6 Q 18120 212590.6 13384.5 212590.6  Z M 13384.5 198978.6 L 13384.5 210991.6 Q 14061 211032.6 14409.5 211032.6 Q 16910.5 211032.6 18263.5 209546.35 Q 19616.5 208060.1 19616.5 204944.1 Q 19616.5 201848.6 18263.5 200413.6 Q 16910.5 198978.6 14225 198978.6 L 13384.5 198978.6 Z M 39640.5 222348.6 Q 36135 225444.1 33347 225444.1 Q 31707 225444.1 30620.5 224367.85 Q 29534 223291.6 29534 221672.1 Q 29534 219478.6 31420 217725.85 Q 33306 215973.1 39640.5 213062.1 L 39640.5 211135.1 Q 39640.5 208962.1 39404.75 208398.35 Q 39169 207834.6 38513 207414.35 Q 37857 206994.1 37037 206994.1 Q 35704.5 206994.1 34843.5 207588.6 Q 34310.5 207957.6 34310.5 208449.6 Q 34310.5 208880.1 34884.5 209515.6 Q 35663.5 210397.1 35663.5 211217.1 Q 35663.5 212221.6 34915.25 212928.85 Q 34167 213636.1 32957.5 213636.1 Q 31666 213636.1 30794.75 212857.1 Q 29923.5 212078.1 29923.5 211032.6 Q 29923.5 209556.6 31092 208213.85 Q 32260.5 206871.1 34351.5 206153.6 Q 36442.5 205436.1 38697.5 205436.1 Q 41424 205436.1 43012.75 206594.35 Q 44601.5 207752.6 45073 209105.6 Q 45360 209966.6 45360 213062.1 L 45360 220503.6 Q 45360 221815.6 45462.5 222153.85 Q 45565 222492.1 45770 222656.1 Q 45975 222820.1 46241.5 222820.1 Q 46774.5 222820.1 47328 222061.6 L 47943 222553.6 Q 46918 224070.6 45821.25 224757.35 Q 44724.5 225444.1 43330.5 225444.1 Q 41690.5 225444.1 40768 224675.35 Q 39845.5 223906.6 39640.5 222348.6  Z M 39640.5 220852.1 L 39640.5 214435.6 Q 37160 215891.1 35950.5 217551.6 Q 35151 218658.6 35151 219786.1 Q 35151 220729.1 35827.5 221446.6 Q 36340 222000.1 37262.5 222000.1 Q 38287.5 222000.1 39640.5 220852.1  Z M 58008.5 206010.1 L 58008.5 210356.1 Q 59915 207383.6 61350 206409.85 Q 62785 205436.1 64117.5 205436.1 Q 65265.5 205436.1 65952.25 206143.35 Q 66639 206850.6 66639 208142.1 Q 66639 209515.6 65972.75 210274.1 Q 65306.5 211032.6 64363.5 211032.6 Q 63277 211032.6 62477.5 210335.6 Q 61678 209638.6 61534.5 209556.6 Q 61329.5 209433.6 61063 209433.6 Q 60468.5 209433.6 59935.5 209884.6 Q 59095 210581.6 58664.5 211873.1 Q 58008.5 213861.6 58008.5 216260.1 L 58008.5 220667.6 L 58029 221815.6 Q 58029 222984.1 58172.5 223312.1 Q 58418.5 223865.6 58900.25 224121.85 Q 59382 224378.1 60530 224439.6 L 60530 225177.6 L 50177.5 225177.6 L 50177.5 224439.6 Q 51428 224337.1 51868.75 223752.85 Q 52309.5 223168.6 52309.5 220667.6 L 52309.5 210069.1 Q 52309.5 208429.1 52145.5 207978.1 Q 51940.5 207404.1 51551 207137.6 Q 51161.5 206871.1 50177.5 206768.6 L 50177.5 206010.1 L 58008.5 206010.1 Z M 76245.6 198999.1 L 76245.6 206010.1 L 80796.6 206010.1 L 80796.6 208039.6 L 76245.6 208039.6 L 76245.6 219868.1 Q 76245.6 221528.6 76399.35 222010.35 Q 76553.1 222492.1 76942.6 222789.35 Q 77332.1 223086.6 77660.1 223086.6 Q 78992.6 223086.6 80181.6 221057.1 L 80796.6 221508.1 Q 79136.1 225444.1 75405.1 225444.1 Q 73580.6 225444.1 72319.85 224429.35 Q 71059.1 223414.6 70710.6 222164.1 Q 70505.6 221467.1 70505.6 218392.1 L 70505.6 208039.6 L 68004.6 208039.6 L 68004.6 207322.1 Q 70587.6 205497.6 72401.85 203488.6 Q 74216.1 201479.6 75569.1 198999.1 L 76245.6 198999.1 Z M 98587.2 225177.6 L 82228.2 225177.6 L 82228.2 224726.6 Q 89751.7 215768.1 91360.95 212672.6 Q 92970.2 209577.1 92970.2 206625.1 Q 92970.2 204472.6 91637.7 203047.85 Q 90305.2 201623.1 88378.2 201623.1 Q 85221.2 201623.1 83478.7 204780.1 L 82720.2 204513.6 Q 83827.2 200577.6 86082.2 198691.6 Q 88337.2 196805.6 91289.2 196805.6 Q 93400.7 196805.6 95143.2 197789.6 Q 96885.7 198773.6 97869.7 200485.35 Q 98853.7 202197.1 98853.7 203693.6 Q 98853.7 206420.1 97336.7 209228.6 Q 95266.2 213021.1 88296.2 219806.6 L 94302.7 219806.6 Q 96516.7 219806.6 97182.95 219622.1 Q 97849.2 219437.6 98279.7 218996.85 Q 98710.2 218556.1 99407.2 217141.6 L 100145.2 217141.6 L 98587.2 225177.6 Z M 119702.2 205456.6 Q 121116.7 205456.6 122110.95 206450.85 Q 123105.2 207445.1 123105.2 208859.6 Q 123105.2 210274.1 122110.95 211268.35 Q 121116.7 212262.6 119702.2 212262.6 Q 118287.7 212262.6 117293.45 211268.35 Q 116299.2 210274.1 116299.2 208859.6 Q 116299.2 207445.1 117293.45 206450.85 Q 118287.7 205456.6 119702.2 205456.6  Z M 119681.7 218863.6 Q 121116.7 218863.6 122110.95 219868.1 Q 123105.2 220872.6 123105.2 222287.1 Q 123105.2 223701.6 122100.7 224695.85 Q 121096.2 225690.1 119681.7 225690.1 Q 118267.2 225690.1 117272.95 224695.85 Q 116278.7 223701.6 116278.7 222287.1 Q 116278.7 220872.6 117272.95 219868.1 Q 118267.2 218863.6 119681.7 218863.6  Z M 152539.8 224419.1 L 152539.8 225177.6 L 138005.3 225177.6 L 138005.3 224419.1 L 138927.8 224419.1 Q 140137.3 224419.1 140875.3 223988.6 Q 141408.3 223701.6 141695.3 223004.6 Q 141920.8 222512.6 141920.8 220421.6 L 141920.8 202135.6 Q 141920.8 200003.6 141695.3 199470.6 Q 141469.8 198937.6 140783.05 198537.85 Q 140096.3 198138.1 138927.8 198138.1 L 138005.3 198138.1 L 138005.3 197379.6 L 152539.8 197379.6 L 152539.8 198138.1 L 151617.3 198138.1 Q 150407.8 198138.1 149669.8 198568.6 Q 149136.8 198855.6 148829.3 199552.6 Q 148603.8 200044.6 148603.8 202135.6 L 148603.8 220421.6 Q 148603.8 222553.6 148839.55 223086.6 Q 149075.3 223619.6 149762.05 224019.35 Q 150448.8 224419.1 151617.3 224419.1 L 152539.8 224419.1 Z M 162743.1 206010.1 L 162743.1 208490.6 Q 164219.1 206891.6 165572.1 206163.85 Q 166925.1 205436.1 168483.1 205436.1 Q 170348.6 205436.1 171578.6 206471.35 Q 172808.6 207506.6 173218.6 209044.1 Q 173546.6 210212.6 173546.6 213533.6 L 173546.6 220995.6 Q 173546.6 223209.6 173946.35 223752.85 Q 174346.1 224296.1 175617.1 224439.6 L 175617.1 225177.6 L 165920.6 225177.6 L 165920.6 224439.6 Q 167007.1 224296.1 167478.6 223537.6 Q 167806.6 223025.1 167806.6 220995.6 L 167806.6 212467.6 Q 167806.6 210110.1 167622.1 209495.1 Q 167437.6 208880.1 166996.85 208541.85 Q 166556.1 208203.6 166023.1 208203.6 Q 164260.1 208203.6 162743.1 210725.1 L 162743.1 220995.6 Q 162743.1 223148.1 163142.85 223722.1 Q 163542.6 224296.1 164629.1 224439.6 L 164629.1 225177.6 L 154932.6 225177.6 L 154932.6 224439.6 Q 156142.1 224316.6 156654.6 223660.6 Q 157003.1 223209.6 157003.1 220995.6 L 157003.1 210171.6 Q 157003.1 207998.6 156603.35 207465.6 Q 156203.6 206932.6 154932.6 206768.6 L 154932.6 206010.1 L 162743.1 206010.1 Z M 186910.3 225751.6 L 180452.8 210889.1 Q 179284.3 208203.6 178628.3 207486.1 Q 178156.8 206953.1 177234.3 206768.6 L 177234.3 206010.1 L 187422.8 206010.1 L 187422.8 206768.6 Q 186459.3 206768.6 186110.8 207117.1 Q 185618.8 207568.1 185618.8 208183.1 Q 185618.8 208941.6 186520.8 211032.6 L 189677.8 218228.1 L 192199.3 212016.6 Q 193285.8 209351.6 193285.8 208244.6 Q 193285.8 207609.1 192824.55 207209.35 Q 192363.3 206809.6 191194.8 206768.6 L 191194.8 206010.1 L 197467.8 206010.1 L 197467.8 206768.6 Q 196565.8 206891.6 195991.8 207445.1 Q 195417.8 207998.6 194269.8 210704.6 L 187873.8 225751.6 L 186910.3 225751.6 Z M 215487.3 214907.1 L 204970.8 214907.1 Q 205155.3 218720.1 207000.3 220934.1 Q 208414.8 222635.6 210403.3 222635.6 Q 211633.3 222635.6 212637.8 221948.85 Q 213642.3 221262.1 214790.3 219478.6 L 215487.3 219929.6 Q 213929.3 223107.1 212043.3 224429.35 Q 210157.3 225751.6 207676.8 225751.6 Q 203412.8 225751.6 201219.3 222471.6 Q 199456.3 219827.1 199456.3 215911.6 Q 199456.3 211114.6 202049.55 208275.35 Q 204642.8 205436.1 208127.8 205436.1 Q 211038.8 205436.1 213181.05 207824.35 Q 215323.3 210212.6 215487.3 214907.1  Z M 210444.3 213533.6 Q 210444.3 210233.1 210085.55 209003.1 Q 209726.8 207773.1 208968.3 207137.6 Q 208537.8 206768.6 207820.3 206768.6 Q 206754.3 206768.6 206077.8 207814.1 Q 204868.3 209638.6 204868.3 212816.1 L 204868.3 213533.6 L 210444.3 213533.6 Z M 225790.9 206010.1 L 225790.9 210356.1 Q 227697.4 207383.6 229132.4 206409.85 Q 230567.4 205436.1 231899.9 205436.1 Q 233047.9 205436.1 233734.65 206143.35 Q 234421.4 206850.6 234421.4 208142.1 Q 234421.4 209515.6 233755.15 210274.1 Q 233088.9 211032.6 232145.9 211032.6 Q 231059.4 211032.6 230259.9 210335.6 Q 229460.4 209638.6 229316.9 209556.6 Q 229111.9 209433.6 228845.4 209433.6 Q 228250.9 209433.6 227717.9 209884.6 Q 226877.4 210581.6 226446.9 211873.1 Q 225790.9 213861.6 225790.9 216260.1 L 225790.9 220667.6 L 225811.4 221815.6 Q 225811.4 222984.1 225954.9 223312.1 Q 226200.9 223865.6 226682.65 224121.85 Q 227164.4 224378.1 228312.4 224439.6 L 228312.4 225177.6 L 217959.9 225177.6 L 217959.9 224439.6 Q 219210.4 224337.1 219651.15 223752.85 Q 220091.9 223168.6 220091.9 220667.6 L 220091.9 210069.1 Q 220091.9 208429.1 219927.9 207978.1 Q 219722.9 207404.1 219333.4 207137.6 Q 218943.9 206871.1 217959.9 206768.6 L 217959.9 206010.1 L 225790.9 206010.1 Z M 244028 198999.1 L 244028 206010.1 L 248579 206010.1 L 248579 208039.6 L 244028 208039.6 L 244028 219868.1 Q 244028 221528.6 244181.75 222010.35 Q 244335.5 222492.1 244725 222789.35 Q 245114.5 223086.6 245442.5 223086.6 Q 246775 223086.6 247964 221057.1 L 248579 221508.1 Q 246918.5 225444.1 243187.5 225444.1 Q 241363 225444.1 240102.25 224429.35 Q 238841.5 223414.6 238493 222164.1 Q 238288 221467.1 238288 218392.1 L 238288 208039.6 L 235787 208039.6 L 235787 207322.1 Q 238370 205497.6 240184.25 203488.6 Q 241998.5 201479.6 243351.5 198999.1 L 244028 198999.1 Z M 266636.1 214907.1 L 256119.6 214907.1 Q 256304.1 218720.1 258149.1 220934.1 Q 259563.6 222635.6 261552.1 222635.6 Q 262782.1 222635.6 263786.6 221948.85 Q 264791.1 221262.1 265939.1 219478.6 L 266636.1 219929.6 Q 265078.1 223107.1 263192.1 224429.35 Q 261306.1 225751.6 258825.6 225751.6 Q 254561.6 225751.6 252368.1 222471.6 Q 250605.1 219827.1 250605.1 215911.6 Q 250605.1 211114.6 253198.35 208275.35 Q 255791.6 205436.1 259276.6 205436.1 Q 262187.6 205436.1 264329.85 207824.35 Q 266472.1 210212.6 266636.1 214907.1  Z M 261593.1 213533.6 Q 261593.1 210233.1 261234.35 209003.1 Q 260875.6 207773.1 260117.1 207137.6 Q 259686.6 206768.6 258969.1 206768.6 Q 257903.1 206768.6 257226.6 207814.1 Q 256017.1 209638.6 256017.1 212816.1 L 256017.1 213533.6 L 261593.1 213533.6 Z M 276939.7 206010.1 L 276939.7 210356.1 Q 278846.2 207383.6 280281.2 206409.85 Q 281716.2 205436.1 283048.7 205436.1 Q 284196.7 205436.1 284883.45 206143.35 Q 285570.2 206850.6 285570.2 208142.1 Q 285570.2 209515.6 284903.95 210274.1 Q 284237.7 211032.6 283294.7 211032.6 Q 282208.2 211032.6 281408.7 210335.6 Q 280609.2 209638.6 280465.7 209556.6 Q 280260.7 209433.6 279994.2 209433.6 Q 279399.7 209433.6 278866.7 209884.6 Q 278026.2 210581.6 277595.7 211873.1 Q 276939.7 213861.6 276939.7 216260.1 L 276939.7 220667.6 L 276960.2 221815.6 Q 276960.2 222984.1 277103.7 223312.1 Q 277349.7 223865.6 277831.45 224121.85 Q 278313.2 224378.1 279461.2 224439.6 L 279461.2 225177.6 L 269108.7 225177.6 L 269108.7 224439.6 Q 270359.2 224337.1 270799.95 223752.85 Q 271240.7 223168.6 271240.7 220667.6 L 271240.7 210069.1 Q 271240.7 208429.1 271076.7 207978.1 Q 270871.7 207404.1 270482.2 207137.6 Q 270092.7 206871.1 269108.7 206768.6 L 269108.7 206010.1 L 276939.7 206010.1 Z M 13384.5 351905.8 L 13384.5 359613.8 Q 13384.5 361868.8 13661.25 362453.05 Q 13938 363037.3 14645.25 363385.8 Q 15352.5 363734.3 17238.5 363734.3 L 17238.5 364492.8 L 3114 364492.8 L 3114 363734.3 Q 5041 363734.3 5727.75 363375.55 Q 6414.5 363016.8 6691.25 362442.8 Q 6968 361868.8 6968 359613.8 L 6968 341573.8 Q 6968 339318.8 6691.25 338734.55 Q 6414.5 338150.3 5717.5 337801.8 Q 5020.5 337453.3 3114 337453.3 L 3114 336694.8 L 15229.5 336694.8 Q 21215.5 336694.8 23819 338826.8 Q 26422.5 340958.8 26422.5 344156.8 Q 26422.5 346862.8 24741.5 348789.8 Q 23060.5 350716.8 20108.5 351413.8 Q 18120 351905.8 13384.5 351905.8  Z M 13384.5 338293.8 L 13384.5 350306.8 Q 14061 350347.8 14409.5 350347.8 Q 16910.5 350347.8 18263.5 348861.55 Q 19616.5 347375.3 19616.5 344259.3 Q 19616.5 341163.8 18263.5 339728.8 Q 16910.5 338293.8 14225 338293.8 L 13384.5 338293.8 Z M 39640.5 361663.8 Q 36135 364759.3 33347 364759.3 Q 31707 364759.3 30620.5 363683.05 Q 29534 362606.8 29534 360987.3 Q 29534 358793.8 31420 357041.05 Q 33306 355288.3 39640.5 352377.3 L 39640.5 350450.3 Q 39640.5 348277.3 39404.75 347713.55 Q 39169 347149.8 38513 346729.55 Q 37857 346309.3 37037 346309.3 Q 35704.5 346309.3 34843.5 346903.8 Q 34310.5 347272.8 34310.5 347764.8 Q 34310.5 348195.3 34884.5 348830.8 Q 35663.5 349712.3 35663.5 350532.3 Q 35663.5 351536.8 34915.25 352244.05 Q 34167 352951.3 32957.5 352951.3 Q 31666 352951.3 30794.75 352172.3 Q 29923.5 351393.3 29923.5 350347.8 Q 29923.5 348871.8 31092 347529.05 Q 32260.5 346186.3 34351.5 345468.8 Q 36442.5 344751.3 38697.5 344751.3 Q 41424 344751.3 43012.75 345909.55 Q 44601.5 347067.8 45073 348420.8 Q 45360 349281.8 45360 352377.3 L 45360 359818.8 Q 45360 361130.8 45462.5 361469.05 Q 45565 361807.3 45770 361971.3 Q 45975 362135.3 46241.5 362135.3 Q 46774.5 362135.3 47328 361376.8 L 47943 361868.8 Q 46918 363385.8 45821.25 364072.55 Q 44724.5 364759.3 43330.5 364759.3 Q 41690.5 364759.3 40768 363990.55 Q 39845.5 363221.8 39640.5 361663.8  Z M 39640.5 360167.3 L 39640.5 353750.8 Q 37160 355206.3 35950.5 356866.8 Q 35151 357973.8 35151 359101.3 Q 35151 360044.3 35827.5 360761.8 Q 36340 361315.3 37262.5 361315.3 Q 38287.5 361315.3 39640.5 360167.3  Z M 58008.5 345325.3 L 58008.5 349671.3 Q 59915 346698.8 61350 345725.05 Q 62785 344751.3 64117.5 344751.3 Q 65265.5 344751.3 65952.25 345458.55 Q 66639 346165.8 66639 347457.3 Q 66639 348830.8 65972.75 349589.3 Q 65306.5 350347.8 64363.5 350347.8 Q 63277 350347.8 62477.5 349650.8 Q 61678 348953.8 61534.5 348871.8 Q 61329.5 348748.8 61063 348748.8 Q 60468.5 348748.8 59935.5 349199.8 Q 59095 349896.8 58664.5 351188.3 Q 58008.5 353176.8 58008.5 355575.3 L 58008.5 359982.8 L 58029 361130.8 Q 58029 362299.3 58172.5 362627.3 Q 58418.5 363180.8 58900.25 363437.05 Q 59382 363693.3 60530 363754.8 L 60530 364492.8 L 50177.5 364492.8 L 50177.5 363754.8 Q 51428 363652.3 51868.75 363068.05 Q 52309.5 362483.8 52309.5 359982.8 L 52309.5 349384.3 Q 52309.5 347744.3 52145.5 347293.3 Q 51940.5 346719.3 51551 346452.8 Q 51161.5 346186.3 50177.5 346083.8 L 50177.5 345325.3 L 58008.5 345325.3 Z M 76245.6 338314.3 L 76245.6 345325.3 L 80796.6 345325.3 L 80796.6 347354.8 L 76245.6 347354.8 L 76245.6 359183.3 Q 76245.6 360843.8 76399.35 361325.55 Q 76553.1 361807.3 76942.6 362104.55 Q 77332.1 362401.8 77660.1 362401.8 Q 78992.6 362401.8 80181.6 360372.3 L 80796.6 360823.3 Q 79136.1 364759.3 75405.1 364759.3 Q 73580.6 364759.3 72319.85 363744.55 Q 71059.1 362729.8 70710.6 361479.3 Q 70505.6 360782.3 70505.6 357707.3 L 70505.6 347354.8 L 68004.6 347354.8 L 68004.6 346637.3 Q 70587.6 344812.8 72401.85 342803.8 Q 74216.1 340794.8 75569.1 338314.3 L 76245.6 338314.3 Z M 87414.7 350552.8 L 87414.7 349835.3 Q 89751.7 349158.8 90653.7 348574.55 Q 91555.7 347990.3 92211.7 346791.05 Q 92867.7 345591.8 92867.7 344361.8 Q 92867.7 342660.3 91627.45 341440.55 Q 90387.2 340220.8 88542.2 340220.8 Q 85672.2 340220.8 83663.2 343254.8 L 82904.7 342988.3 Q 84380.7 339564.8 86686.95 337842.8 Q 88993.2 336120.8 91822.2 336120.8 Q 94712.7 336120.8 96588.45 337883.8 Q 98464.2 339646.8 98464.2 342004.3 Q 98464.2 343541.8 97592.95 344966.55 Q 96721.7 346391.3 94856.2 347477.8 Q 97254.7 348646.3 98515.45 350358.05 Q 99776.2 352069.8 99776.2 354652.8 Q 99776.2 358998.8 96629.45 362043.05 Q 93482.7 365087.3 88193.7 365087.3 Q 84667.7 365087.3 83048.2 363918.8 Q 81879.7 363098.8 81879.7 361807.3 Q 81879.7 360864.3 82556.2 360198.05 Q 83232.7 359531.8 84114.2 359531.8 Q 84790.7 359531.8 85385.2 359818.8 Q 85713.2 359982.8 87711.95 361612.55 Q 89710.7 363242.3 91453.2 363242.3 Q 92970.2 363242.3 94056.7 362043.05 Q 95143.2 360843.8 95143.2 358998.8 Q 95143.2 356190.3 93175.2 353822.55 Q 91207.2 351454.8 87414.7 350552.8  Z M 119702.2 344771.8 Q 121116.7 344771.8 122110.95 345766.05 Q 123105.2 346760.3 123105.2 348174.8 Q 123105.2 349589.3 122110.95 350583.55 Q 121116.7 351577.8 119702.2 351577.8 Q 118287.7 351577.8 117293.45 350583.55 Q 116299.2 349589.3 116299.2 348174.8 Q 116299.2 346760.3 117293.45 345766.05 Q 118287.7 344771.8 119702.2 344771.8  Z M 119681.7 358178.8 Q 121116.7 358178.8 122110.95 359183.3 Q 123105.2 360187.8 123105.2 361602.3 Q 123105.2 363016.8 122100.7 364011.05 Q 121096.2 365005.3 119681.7 365005.3 Q 118267.2 365005.3 117272.95 364011.05 Q 116278.7 363016.8 116278.7 361602.3 Q 116278.7 360187.8 117272.95 359183.3 Q 118267.2 358178.8 119681.7 358178.8  Z M 163650.8 336694.8 L 163650.8 344218.3 L 162912.8 344218.3 Q 162256.8 341614.8 161457.3 340477.05 Q 160657.8 339339.3 159263.8 338662.8 Q 158484.8 338293.8 156537.3 338293.8 L 154466.8 338293.8 L 154466.8 359736.8 Q 154466.8 361868.8 154702.55 362401.8 Q 154938.3 362934.8 155625.05 363334.55 Q 156311.8 363734.3 157500.8 363734.3 L 158423.3 363734.3 L 158423.3 364492.8 L 143868.3 364492.8 L 143868.3 363734.3 L 144790.8 363734.3 Q 146000.3 363734.3 146738.3 363303.8 Q 147271.3 363016.8 147578.8 362319.8 Q 147804.3 361827.8 147804.3 359736.8 L 147804.3 338293.8 L 145795.3 338293.8 Q 142986.8 338293.8 141715.8 339482.8 Q 139932.3 341143.3 139460.8 344218.3 L 138681.8 344218.3 L 138681.8 336694.8 L 163650.8 336694.8 Z M 175575 344751.3 Q 178076 344751.3 180228.5 346042.8 Q 182381 347334.3 183498.25 349712.3 Q 184615.5 352090.3 184615.5 354919.3 Q 184615.5 358998.8 182545 361745.8 Q 180044 365066.8 175636.5 365066.8 Q 171311 365066.8 168974 362032.8 Q 166637 358998.8 166637 355001.3 Q 166637 350880.8 169025.25 347816.05 Q 171413.5 344751.3 175575 344751.3  Z M 175657 346206.8 Q 174611.5 346206.8 173863.25 346996.05 Q 173115 347785.3 172879.25 350112.05 Q 172643.5 352438.8 172643.5 356579.8 Q 172643.5 358773.3 172930.5 360679.8 Q 173156 362135.3 173894 362893.8 Q 174632 363652.3 175575 363652.3 Q 176497.5 363652.3 177112.5 363139.8 Q 177912 362442.8 178178.5 361192.3 Q 178588.5 359244.8 178588.5 353320.3 Q 178588.5 349835.3 178199 348533.55 Q 177809.5 347231.8 177051 346637.3 Q 176518 346206.8 175657 346206.8  Z M 198863 352746.3 L 202184 359060.3 Q 203906 362360.8 204910.5 363242.3 Q 205464 363713.8 206427.5 363754.8 L 206427.5 364492.8 L 195747 364492.8 L 195747 363754.8 Q 196997.5 363652.3 197294.75 363426.8 Q 197592 363201.3 197592 362811.8 Q 197592 362237.8 196936 361007.8 L 195275.5 357891.8 L 193861 359962.3 Q 192897.5 361376.8 192774.5 361643.3 Q 192610.5 362032.8 192610.5 362340.3 Q 192610.5 362811.8 192805.25 363129.55 Q 193000 363447.3 193338.25 363601.05 Q 193676.5 363754.8 194578.5 363754.8 L 194578.5 364492.8 L 187075.5 364492.8 L 187075.5 363754.8 Q 188469.5 363754.8 189627.75 362986.05 Q 190786 362217.3 193000 358957.8 L 194578.5 356620.8 L 191278 350511.8 Q 189658.5 347518.8 188859 346842.3 Q 188059.5 346165.8 187075.5 346083.8 L 187075.5 345325.3 L 197694.5 345325.3 L 197694.5 346083.8 L 197141 346104.3 L 196075 346473.3 Q 195911 346616.8 195911 346944.8 Q 195911 347252.3 196013.5 347580.3 Q 196075 347723.8 196587.5 348687.3 L 198084 351475.3 L 198863 350368.3 Q 200503 348113.3 200503 347211.3 Q 200503 346780.8 200144.25 346483.55 Q 199785.5 346186.3 198863 346083.8 L 198863 345325.3 L 205648.5 345325.3 L 205648.5 346083.8 Q 204398 346124.8 203311.5 346852.55 Q 202225 347580.3 200872 349671.3 L 198863 352746.3 Z M 213131 336038.8 Q 214463.5 336038.8 215386 336971.55 Q 216308.5 337904.3 216308.5 339216.3 Q 216308.5 340528.3 215375.75 341450.8 Q 214443 342373.3 213131 342373.3 Q 211819 342373.3 210896.5 341450.8 Q 209974 340528.3 209974 339216.3 Q 209974 337904.3 210896.5 336971.55 Q 211819 336038.8 213131 336038.8  Z M 216001 345325.3 L 216001 360515.8 Q 216001 362545.3 216472.5 363109.05 Q 216944 363672.8 218317.5 363754.8 L 218317.5 364492.8 L 207965 364492.8 L 207965 363754.8 Q 209236 363713.8 209851 363016.8 Q 210261 362545.3 210261 360515.8 L 210261 349322.8 Q 210261 347293.3 209789.5 346729.55 Q 209318 346165.8 207965 346083.8 L 207965 345325.3 L 216001 345325.3 Z M 227971.9 345325.3 L 227971.9 347805.8 Q 229447.9 346206.8 230800.9 345479.05 Q 232153.9 344751.3 233711.9 344751.3 Q 235577.4 344751.3 236807.4 345786.55 Q 238037.4 346821.8 238447.4 348359.3 Q 238775.4 349527.8 238775.4 352848.8 L 238775.4 360310.8 Q 238775.4 362524.8 239175.15 363068.05 Q 239574.9 363611.3 240845.9 363754.8 L 240845.9 364492.8 L 231149.4 364492.8 L 231149.4 363754.8 Q 232235.9 363611.3 232707.4 362852.8 Q 233035.4 362340.3 233035.4 360310.8 L 233035.4 351782.8 Q 233035.4 349425.3 232850.9 348810.3 Q 232666.4 348195.3 232225.65 347857.05 Q 231784.9 347518.8 231251.9 347518.8 Q 229488.9 347518.8 227971.9 350040.3 L 227971.9 360310.8 Q 227971.9 362463.3 228371.65 363037.3 Q 228771.4 363611.3 229857.9 363754.8 L 229857.9 364492.8 L 220161.4 364492.8 L 220161.4 363754.8 Q 221370.9 363631.8 221883.4 362975.8 Q 222231.9 362524.8 222231.9 360310.8 L 222231.9 349486.8 Q 222231.9 347313.8 221832.15 346780.8 Q 221432.4 346247.8 220161.4 346083.8 L 220161.4 345325.3 L 227971.9 345325.3 Z M 263906.1 351905.8 L 263906.1 359613.8 Q 263906.1 361868.8 264182.85 362453.05 Q 264459.6 363037.3 265166.85 363385.8 Q 265874.1 363734.3 267760.1 363734.3 L 267760.1 364492.8 L 253635.6 364492.8 L 253635.6 363734.3 Q 255562.6 363734.3 256249.35 363375.55 Q 256936.1 363016.8 257212.85 362442.8 Q 257489.6 361868.8 257489.6 359613.8 L 257489.6 341573.8 Q 257489.6 339318.8 257212.85 338734.55 Q 256936.1 338150.3 256239.1 337801.8 Q 255542.1 337453.3 253635.6 337453.3 L 253635.6 336694.8 L 265751.1 336694.8 Q 271737.1 336694.8 274340.6 338826.8 Q 276944.1 340958.8 276944.1 344156.8 Q 276944.1 346862.8 275263.1 348789.8 Q 273582.1 350716.8 270630.1 351413.8 Q 268641.6 351905.8 263906.1 351905.8  Z M 263906.1 338293.8 L 263906.1 350306.8 Q 264582.6 350347.8 264931.1 350347.8 Q 267432.1 350347.8 268785.1 348861.55 Q 270138.1 347375.3 270138.1 344259.3 Q 270138.1 341163.8 268785.1 339728.8 Q 267432.1 338293.8 264746.6 338293.8 L 263906.1 338293.8 Z M 287538.1 345325.3 L 287538.1 349671.3 Q 289444.6 346698.8 290879.6 345725.05 Q 292314.6 344751.3 293647.1 344751.3 Q 294795.1 344751.3 295481.85 345458.55 Q 296168.6 346165.8 296168.6 347457.3 Q 296168.6 348830.8 295502.35 349589.3 Q 294836.1 350347.8 293893.1 350347.8 Q 292806.6 350347.8 292007.1 349650.8 Q 291207.6 348953.8 291064.1 348871.8 Q 290859.1 348748.8 290592.6 348748.8 Q 289998.1 348748.8 289465.1 349199.8 Q 288624.6 349896.8 288194.1 351188.3 Q 287538.1 353176.8 287538.1 355575.3 L 287538.1 359982.8 L 287558.6 361130.8 Q 287558.6 362299.3 287702.1 362627.3 Q 287948.1 363180.8 288429.85 363437.05 Q 288911.6 363693.3 290059.6 363754.8 L 290059.6 364492.8 L 279707.1 364492.8 L 279707.1 363754.8 Q 280957.6 363652.3 281398.35 363068.05 Q 281839.1 362483.8 281839.1 359982.8 L 281839.1 349384.3 Q 281839.1 347744.3 281675.1 347293.3 Q 281470.1 346719.3 281080.6 346452.8 Q 280691.1 346186.3 279707.1 346083.8 L 279707.1 345325.3 L 287538.1 345325.3 Z M 307210.2 344751.3 Q 309711.2 344751.3 311863.7 346042.8 Q 314016.2 347334.3 315133.45 349712.3 Q 316250.7 352090.3 316250.7 354919.3 Q 316250.7 358998.8 314180.2 361745.8 Q 311679.2 365066.8 307271.7 365066.8 Q 302946.2 365066.8 300609.2 362032.8 Q 298272.2 358998.8 298272.2 355001.3 Q 298272.2 350880.8 300660.45 347816.05 Q 303048.7 344751.3 307210.2 344751.3  Z M 307292.2 346206.8 Q 306246.7 346206.8 305498.45 346996.05 Q 304750.2 347785.3 304514.45 350112.05 Q 304278.7 352438.8 304278.7 356579.8 Q 304278.7 358773.3 304565.7 360679.8 Q 304791.2 362135.3 305529.2 362893.8 Q 306267.2 363652.3 307210.2 363652.3 Q 308132.7 363652.3 308747.7 363139.8 Q 309547.2 362442.8 309813.7 361192.3 Q 310223.7 359244.8 310223.7 353320.3 Q 310223.7 349835.3 309834.2 348533.55 Q 309444.7 347231.8 308686.2 346637.3 Q 308153.2 346206.8 307292.2 346206.8  Z M 326767.2 338314.3 L 326767.2 345325.3 L 331318.2 345325.3 L 331318.2 347354.8 L 326767.2 347354.8 L 326767.2 359183.3 Q 326767.2 360843.8 326920.95 361325.55 Q 327074.7 361807.3 327464.2 362104.55 Q 327853.7 362401.8 328181.7 362401.8 Q 329514.2 362401.8 330703.2 360372.3 L 331318.2 360823.3 Q 329657.7 364759.3 325926.7 364759.3 Q 324102.2 364759.3 322841.45 363744.55 Q 321580.7 362729.8 321232.2 361479.3 Q 321027.2 360782.3 321027.2 357707.3 L 321027.2 347354.8 L 318526.2 347354.8 L 318526.2 346637.3 Q 321109.2 344812.8 322923.45 342803.8 Q 324737.7 340794.8 326090.7 338314.3 L 326767.2 338314.3 Z M 349375.3 354222.3 L 338858.8 354222.3 Q 339043.3 358035.3 340888.3 360249.3 Q 342302.8 361950.8 344291.3 361950.8 Q 345521.3 361950.8 346525.8 361264.05 Q 347530.3 360577.3 348678.3 358793.8 L 349375.3 359244.8 Q 347817.3 362422.3 345931.3 363744.55 Q 344045.3 365066.8 341564.8 365066.8 Q 337300.8 365066.8 335107.3 361786.8 Q 333344.3 359142.3 333344.3 355226.8 Q 333344.3 350429.8 335937.55 347590.55 Q 338530.8 344751.3 342015.8 344751.3 Q 344926.8 344751.3 347069.05 347139.55 Q 349211.3 349527.8 349375.3 354222.3  Z M 344332.3 352848.8 Q 344332.3 349548.3 343973.55 348318.3 Q 343614.8 347088.3 342856.3 346452.8 Q 342425.8 346083.8 341708.3 346083.8 Q 340642.3 346083.8 339965.8 347129.3 Q 338756.3 348953.8 338756.3 352131.3 L 338756.3 352848.8 L 344332.3 352848.8 Z M 356337.4 336038.8 Q 357669.9 336038.8 358592.4 336971.55 Q 359514.9 337904.3 359514.9 339216.3 Q 359514.9 340528.3 358582.15 341450.8 Q 357649.4 342373.3 356337.4 342373.3 Q 355025.4 342373.3 354102.9 341450.8 Q 353180.4 340528.3 353180.4 339216.3 Q 353180.4 337904.3 354102.9 336971.55 Q 355025.4 336038.8 356337.4 336038.8  Z M 359207.4 345325.3 L 359207.4 360515.8 Q 359207.4 362545.3 359678.9 363109.05 Q 360150.4 363672.8 361523.9 363754.8 L 361523.9 364492.8 L 351171.4 364492.8 L 351171.4 363754.8 Q 352442.4 363713.8 353057.4 363016.8 Q 353467.4 362545.3 353467.4 360515.8 L 353467.4 349322.8 Q 353467.4 347293.3 352995.9 346729.55 Q 352524.4 346165.8 351171.4 346083.8 L 351171.4 345325.3 L 359207.4 345325.3 Z M 371178.3 345325.3 L 371178.3 347805.8 Q 372654.3 346206.8 374007.3 345479.05 Q 375360.3 344751.3 376918.3 344751.3 Q 378783.8 344751.3 380013.8 345786.55 Q 381243.8 346821.8 381653.8 348359.3 Q 381981.8 349527.8 381981.8 352848.8 L 381981.8 360310.8 Q 381981.8 362524.8 382381.55 363068.05 Q 382781.3 363611.3 384052.3 363754.8 L 384052.3 364492.8 L 374355.8 364492.8 L 374355.8 363754.8 Q 375442.3 363611.3 375913.8 362852.8 Q 376241.8 362340.3 376241.8 360310.8 L 376241.8 351782.8 Q 376241.8 349425.3 376057.3 348810.3 Q 375872.8 348195.3 375432.05 347857.05 Q 374991.3 347518.8 374458.3 347518.8 Q 372695.3 347518.8 371178.3 350040.3 L 371178.3 360310.8 Q 371178.3 362463.3 371578.05 363037.3 Q 371977.8 363611.3 373064.3 363754.8 L 373064.3 364492.8 L 363367.8 364492.8 L 363367.8 363754.8 Q 364577.3 363631.8 365089.8 362975.8 Q 365438.3 362524.8 365438.3 360310.8 L 365438.3 349486.8 Q 365438.3 347313.8 365038.55 346780.8 Q 364638.8 346247.8 363367.8 346083.8 L 363367.8 345325.3 L 371178.3 345325.3 Z M 31014.5 382497.7 L 31014.5 392296.7 L 30256 392296.7 Q 28882.5 388278.7 26135.5 386187.7 Q 23388.5 384096.7 20129 384096.7 Q 17013 384096.7 14942.5 385849.45 Q 12872 387602.2 12011 390738.7 Q 11150 393875.2 11150 397175.7 Q 11150 401173.2 12093 404186.7 Q 13036 407200.2 15137.25 408614.7 Q 17238.5 410029.2 20129 410029.2 Q 21133.5 410029.2 22189.25 409813.95 Q 23245 409598.7 24352 409188.7 L 24352 403407.7 Q 24352 401767.7 24126.5 401285.95 Q 23901 400804.2 23193.75 400414.7 Q 22486.5 400025.2 21482 400025.2 L 20764.5 400025.2 L 20764.5 399266.7 L 34274 399266.7 L 34274 400025.2 Q 32736.5 400127.7 32131.75 400445.45 Q 31527 400763.2 31199 401501.2 Q 31014.5 401890.7 31014.5 403407.7 L 31014.5 409188.7 Q 28349.5 410377.7 25469.25 410982.45 Q 22589 411587.2 19493.5 411587.2 Q 15537 411587.2 12923.25 410510.95 Q 10309.5 409434.7 8310.75 407681.95 Q 6312 405929.2 5184.5 403735.7 Q 3749.5 400906.7 3749.5 397401.2 Q 3749.5 391128.2 8157 386802.7 Q 12564.5 382477.2 19247.5 382477.2 Q 21318 382477.2 22978.5 382805.2 Q 23880.5 382969.2 25899.75 383737.95 Q 27919 384506.7 28288 384506.7 Q 28862 384506.7 29354 384086.45 Q 29846 383666.2 30256 382497.7 L 31014.5 382497.7 Z M 52312.9 400660.7 L 41796.4 400660.7 Q 41980.9 404473.7 43825.9 406687.7 Q 45240.4 408389.2 47228.9 408389.2 Q 48458.9 408389.2 49463.4 407702.45 Q 50467.9 407015.7 51615.9 405232.2 L 52312.9 405683.2 Q 50754.9 408860.7 48868.9 410182.95 Q 46982.9 411505.2 44502.4 411505.2 Q 40238.4 411505.2 38044.9 408225.2 Q 36281.9 405580.7 36281.9 401665.2 Q 36281.9 396868.2 38875.15 394028.95 Q 41468.4 391189.7 44953.4 391189.7 Q 47864.4 391189.7 50006.65 393577.95 Q 52148.9 395966.2 52312.9 400660.7  Z M 47269.9 399287.2 Q 47269.9 395986.7 46911.15 394756.7 Q 46552.4 393526.7 45793.9 392891.2 Q 45363.4 392522.2 44645.9 392522.2 Q 43579.9 392522.2 42903.4 393567.7 Q 41693.9 395392.2 41693.9 398569.7 L 41693.9 399287.2 L 47269.9 399287.2 Z M 62493.5 391763.7 L 62493.5 394244.2 Q 63969.5 392645.2 65322.5 391917.45 Q 66675.5 391189.7 68233.5 391189.7 Q 70099 391189.7 71329 392224.95 Q 72559 393260.2 72969 394797.7 Q 73297 395966.2 73297 399287.2 L 73297 406749.2 Q 73297 408963.2 73696.75 409506.45 Q 74096.5 410049.7 75367.5 410193.2 L 75367.5 410931.2 L 65671 410931.2 L 65671 410193.2 Q 66757.5 410049.7 67229 409291.2 Q 67557 408778.7 67557 406749.2 L 67557 398221.2 Q 67557 395863.7 67372.5 395248.7 Q 67188 394633.7 66747.25 394295.45 Q 66306.5 393957.2 65773.5 393957.2 Q 64010.5 393957.2 62493.5 396478.7 L 62493.5 406749.2 Q 62493.5 408901.7 62893.25 409475.7 Q 63293 410049.7 64379.5 410193.2 L 64379.5 410931.2 L 54683 410931.2 L 54683 410193.2 Q 55892.5 410070.2 56405 409414.2 Q 56753.5 408963.2 56753.5 406749.2 L 56753.5 395925.2 Q 56753.5 393752.2 56353.75 393219.2 Q 55954 392686.2 54683 392522.2 L 54683 391763.7 L 62493.5 391763.7 Z M 94245.7 400660.7 L 83729.2 400660.7 Q 83913.7 404473.7 85758.7 406687.7 Q 87173.2 408389.2 89161.7 408389.2 Q 90391.7 408389.2 91396.2 407702.45 Q 92400.7 407015.7 93548.7 405232.2 L 94245.7 405683.2 Q 92687.7 408860.7 90801.7 410182.95 Q 88915.7 411505.2 86435.2 411505.2 Q 82171.2 411505.2 79977.7 408225.2 Q 78214.7 405580.7 78214.7 401665.2 Q 78214.7 396868.2 80807.95 394028.95 Q 83401.2 391189.7 86886.2 391189.7 Q 89797.2 391189.7 91939.45 393577.95 Q 94081.7 395966.2 94245.7 400660.7  Z M 89202.7 399287.2 Q 89202.7 395986.7 88843.95 394756.7 Q 88485.2 393526.7 87726.7 392891.2 Q 87296.2 392522.2 86578.7 392522.2 Q 85512.7 392522.2 84836.2 393567.7 Q 83626.7 395392.2 83626.7 398569.7 L 83626.7 399287.2 L 89202.7 399287.2 Z " fill-rule="nonzero" style="fill:#c2c937;;fill-opacity:1;"/>
</svg>