<svg version="1.1" x="0" y="0" width="100%" height="100%" viewBox="0 0 193996.8 31232" xmlns="http://www.w3.org/2000/svg">
  <path d="M 9968 12378.4 L 10148 16206.4 L 9740 16206.4 Q 9008 14502.4 8222 13878.4 Q 7436 13254.4 6656 13254.4 Q 6164 13254.4 5816 13584.4 Q 5468 13914.4 5468 14346.4 Q 5468 14670.4 5708 14970.4 Q 6092 15462.4 7856 16656.4 Q 9620 17850.4 10178 18684.4 Q 10736 19518.4 10736 20550.4 Q 10736 21486.4 10268 22386.4 Q 9800 23286.4 8948 23766.4 Q 8096 24246.4 7064 24246.4 Q 6260 24246.4 4916 23742.4 Q 4556 23610.4 4424 23610.4 Q 4028 23610.4 3764 24210.4 L 3368 24210.4 L 3176 20178.4 L 3584 20178.4 Q 4124 21762.4 5066 22554.4 Q 6008 23346.4 6848 23346.4 Q 7424 23346.4 7790 22992.4 Q 8156 22638.4 8156 22134.4 Q 8156 21558.4 7796 21138.4 Q 7436 20718.4 6188 19866.4 Q 4352 18594.4 3812 17922.4 Q 3020 16938.4 3020 15750.4 Q 3020 14454.4 3914 13404.4 Q 4808 12354.4 6500 12354.4 Q 7412 12354.4 8264 12798.4 Q 8588 12978.4 8792 12978.4 Q 9008 12978.4 9140 12888.4 Q 9272 12798.4 9560 12378.4 L 9968 12378.4 Z M 16983.2 7638.4 L 16983.2 14130.4 Q 17907.2 13158.4 18675.2 12756.4 Q 19443.2 12354.4 20271.2 12354.4 Q 21327.2 12354.4 22077.2 12954.4 Q 22827.2 13554.4 23073.2 14364.4 Q 23319.2 15174.4 23319.2 17094.4 L 23319.2 21474.4 Q 23319.2 22758.4 23559.2 23076.4 Q 23799.2 23394.4 24531.2 23478.4 L 24531.2 23910.4 L 18843.2 23910.4 L 18843.2 23478.4 Q 19443.2 23394.4 19743.2 22998.4 Q 19959.2 22686.4 19959.2 21474.4 L 19959.2 16470.4 Q 19959.2 15078.4 19851.2 14724.4 Q 19743.2 14370.4 19485.2 14172.4 Q 19227.2 13974.4 18903.2 13974.4 Q 18423.2 13974.4 17967.2 14304.4 Q 17511.2 14634.4 16983.2 15462.4 L 16983.2 21474.4 Q 16983.2 22674.4 17163.2 22974.4 Q 17391.2 23382.4 18099.2 23478.4 L 18099.2 23910.4 L 12411.2 23910.4 L 12411.2 23478.4 Q 13119.2 23406.4 13419.2 23022.4 Q 13623.2 22758.4 13623.2 21474.4 L 13623.2 10074.4 Q 13623.2 8802.4 13389.2 8490.4 Q 13155.2 8178.4 12411.2 8082.4 L 12411.2 7638.4 L 16983.2 7638.4 Z M 31718.4 16494.4 L 31718.4 21054.4 Q 31718.4 22374.4 31880.4 22716.4 Q 32042.4 23058.4 32450.4 23262.4 Q 32858.4 23466.4 33974.4 23466.4 L 33974.4 23910.4 L 25646.4 23910.4 L 25646.4 23466.4 Q 26774.4 23466.4 27176.4 23256.4 Q 27578.4 23046.4 27740.4 22710.4 Q 27902.4 22374.4 27902.4 21054.4 L 27902.4 10494.4 Q 27902.4 9174.4 27740.4 8832.4 Q 27578.4 8490.4 27170.4 8286.4 Q 26762.4 8082.4 25646.4 8082.4 L 25646.4 7638.4 L 33206.4 7638.4 Q 36158.4 7638.4 37526.4 8046.4 Q 38894.4 8454.4 39758.4 9552.4 Q 40622.4 10650.4 40622.4 12126.4 Q 40622.4 13926.4 39326.4 15102.4 Q 38498.4 15846.4 37010.4 16218.4 L 40922.4 21726.4 Q 41690.4 22794.4 42014.4 23058.4 Q 42506.4 23430.4 43154.4 23466.4 L 43154.4 23910.4 L 38030.4 23910.4 L 32786.4 16494.4 L 31718.4 16494.4 Z M 31718.4 8514.4 L 31718.4 15642.4 L 32402.4 15642.4 Q 34070.4 15642.4 34898.4 15336.4 Q 35726.4 15030.4 36200.4 14232.4 Q 36674.4 13434.4 36674.4 12150.4 Q 36674.4 10290.4 35804.4 9402.4 Q 34934.4 8514.4 33002.4 8514.4 L 31718.4 8514.4 Z M 49025.6 7638.4 L 57053.6 17730.4 L 57053.6 10734.4 Q 57053.6 9270.4 56633.6 8754.4 Q 56057.6 8058.4 54701.6 8082.4 L 54701.6 7638.4 L 60077.6 7638.4 L 60077.6 8082.4 Q 59045.6 8214.4 58691.6 8424.4 Q 58337.6 8634.4 58139.6 9108.4 Q 57941.6 9582.4 57941.6 10734.4 L 57941.6 24282.4 L 57533.6 24282.4 L 46529.6 10734.4 L 46529.6 21078.4 Q 46529.6 22482.4 47171.6 22974.4 Q 47813.6 23466.4 48641.6 23466.4 L 49025.6 23466.4 L 49025.6 23910.4 L 43253.6 23910.4 L 43253.6 23466.4 Q 44597.6 23454.4 45125.6 22914.4 Q 45653.6 22374.4 45653.6 21078.4 L 45653.6 9594.4 L 45305.6 9162.4 Q 44789.6 8514.4 44393.6 8310.4 Q 43997.6 8106.4 43253.6 8082.4 L 43253.6 7638.4 L 49025.6 7638.4 Z M 70844.8 19278.4 L 65096.8 19278.4 L 64412.8 20862.4 Q 64076.8 21654.4 64076.8 22170.4 Q 64076.8 22854.4 64628.8 23178.4 Q 64952.8 23370.4 66224.8 23466.4 L 66224.8 23910.4 L 60812.8 23910.4 L 60812.8 23466.4 Q 61688.8 23334.4 62252.8 22740.4 Q 62816.8 22146.4 63644.8 20286.4 L 69464.8 7302.4 L 69692.8 7302.4 L 75560.8 20646.4 Q 76400.8 22542.4 76940.8 23034.4 Q 77348.8 23406.4 78092.8 23466.4 L 78092.8 23910.4 L 70220.8 23910.4 L 70220.8 23466.4 L 70544.8 23466.4 Q 71492.8 23466.4 71876.8 23202.4 Q 72140.8 23010.4 72140.8 22650.4 Q 72140.8 22434.4 72068.8 22206.4 Q 72044.8 22098.4 71708.8 21306.4 L 70844.8 19278.4 Z M 70436.8 18390.4 L 68012.8 12786.4 L 65516.8 18390.4 L 70436.8 18390.4 Z M 84804 23910.4 L 84804 23466.4 L 85344 23466.4 Q 86052 23466.4 86430 23244.4 Q 86808 23022.4 86988 22638.4 Q 87096 22386.4 87096 21126.4 L 87096 10422.4 Q 87096 9174.4 86964 8862.4 Q 86832 8550.4 86430 8316.4 Q 86028 8082.4 85344 8082.4 L 84804 8082.4 L 84804 7638.4 L 92088 7638.4 Q 95004 7638.4 96780 8430.4 Q 98952 9402.4 100074 11370.4 Q 101196 13338.4 101196 15822.4 Q 101196 17538.4 100644 18984.4 Q 100092 20430.4 99216 21372.4 Q 98340 22314.4 97194 22884.4 Q 96048 23454.4 94392 23766.4 Q 93660 23910.4 92088 23910.4 L 84804 23910.4 Z M 91008 8562.4 L 91008 21258.4 Q 91008 22266.4 91104 22494.4 Q 91200 22722.4 91428 22842.4 Q 91752 23022.4 92364 23022.4 Q 94368 23022.4 95424 21654.4 Q 96864 19806.4 96864 15918.4 Q 96864 12786.4 95880 10914.4 Q 95100 9450.4 93876 8922.4 Q 93012 8550.4 91008 8562.4  Z M 112527.2 17898.4 L 106371.2 17898.4 Q 106479.2 20130.4 107559.2 21426.4 Q 108387.2 22422.4 109551.2 22422.4 Q 110271.2 22422.4 110859.2 22020.4 Q 111447.2 21618.4 112119.2 20574.4 L 112527.2 20838.4 Q 111615.2 22698.4 110511.2 23472.4 Q 109407.2 24246.4 107955.2 24246.4 Q 105459.2 24246.4 104175.2 22326.4 Q 103143.2 20778.4 103143.2 18486.4 Q 103143.2 15678.4 104661.2 14016.4 Q 106179.2 12354.4 108219.2 12354.4 Q 109923.2 12354.4 111177.2 13752.4 Q 112431.2 15150.4 112527.2 17898.4  Z M 109575.2 17094.4 Q 109575.2 15162.4 109365.2 14442.4 Q 109155.2 13722.4 108711.2 13350.4 Q 108459.2 13134.4 108039.2 13134.4 Q 107415.2 13134.4 107019.2 13746.4 Q 106311.2 14814.4 106311.2 16674.4 L 106311.2 17094.4 L 109575.2 17094.4 Z M 121020.8 12378.4 L 121200.8 16206.4 L 120792.8 16206.4 Q 120060.8 14502.4 119274.8 13878.4 Q 118488.8 13254.4 117708.8 13254.4 Q 117216.8 13254.4 116868.8 13584.4 Q 116520.8 13914.4 116520.8 14346.4 Q 116520.8 14670.4 116760.8 14970.4 Q 117144.8 15462.4 118908.8 16656.4 Q 120672.8 17850.4 121230.8 18684.4 Q 121788.8 19518.4 121788.8 20550.4 Q 121788.8 21486.4 121320.8 22386.4 Q 120852.8 23286.4 120000.8 23766.4 Q 119148.8 24246.4 118116.8 24246.4 Q 117312.8 24246.4 115968.8 23742.4 Q 115608.8 23610.4 115476.8 23610.4 Q 115080.8 23610.4 114816.8 24210.4 L 114420.8 24210.4 L 114228.8 20178.4 L 114636.8 20178.4 Q 115176.8 21762.4 116118.8 22554.4 Q 117060.8 23346.4 117900.8 23346.4 Q 118476.8 23346.4 118842.8 22992.4 Q 119208.8 22638.4 119208.8 22134.4 Q 119208.8 21558.4 118848.8 21138.4 Q 118488.8 20718.4 117240.8 19866.4 Q 115404.8 18594.4 114864.8 17922.4 Q 114072.8 16938.4 114072.8 15750.4 Q 114072.8 14454.4 114966.8 13404.4 Q 115860.8 12354.4 117552.8 12354.4 Q 118464.8 12354.4 119316.8 12798.4 Q 119640.8 12978.4 119844.8 12978.4 Q 120060.8 12978.4 120192.8 12888.4 Q 120324.8 12798.4 120612.8 12378.4 L 121020.8 12378.4 Z M 126152 7254.4 Q 126932 7254.4 127472 7800.4 Q 128012 8346.4 128012 9114.4 Q 128012 9882.4 127466 10422.4 Q 126920 10962.4 126152 10962.4 Q 125384 10962.4 124844 10422.4 Q 124304 9882.4 124304 9114.4 Q 124304 8346.4 124844 7800.4 Q 125384 7254.4 126152 7254.4  Z M 127832 12690.4 L 127832 21582.4 Q 127832 22770.4 128108 23100.4 Q 128384 23430.4 129188 23478.4 L 129188 23910.4 L 123128 23910.4 L 123128 23478.4 Q 123872 23454.4 124232 23046.4 Q 124472 22770.4 124472 21582.4 L 124472 15030.4 Q 124472 13842.4 124196 13512.4 Q 123920 13182.4 123128 13134.4 L 123128 12690.4 L 127832 12690.4 Z M 137461.6 12822.4 L 141241.6 12822.4 L 141241.6 14142.4 L 139093.6 14142.4 Q 139681.6 14730.4 139909.6 15210.4 Q 140197.6 15858.4 140197.6 16566.4 Q 140197.6 17766.4 139531.6 18648.4 Q 138865.6 19530.4 137719.6 20028.4 Q 136573.6 20526.4 135685.6 20526.4 Q 135613.6 20526.4 134245.6 20466.4 Q 133705.6 20466.4 133339.6 20820.4 Q 132973.6 21174.4 132973.6 21666.4 Q 132973.6 22098.4 133303.6 22374.4 Q 133633.6 22650.4 134377.6 22650.4 L 136453.6 22626.4 Q 138973.6 22626.4 139921.6 23178.4 Q 141277.6 23946.4 141277.6 25542.4 Q 141277.6 26562.4 140653.6 27396.4 Q 140029.6 28230.4 139009.6 28626.4 Q 137461.6 29214.4 135445.6 29214.4 Q 133933.6 29214.4 132685.6 28920.4 Q 131437.6 28626.4 130897.6 28104.4 Q 130357.6 27582.4 130357.6 27006.4 Q 130357.6 26454.4 130771.6 26016.4 Q 131185.6 25578.4 132313.6 25278.4 Q 130753.6 24510.4 130753.6 23142.4 Q 130753.6 22314.4 131389.6 21534.4 Q 132025.6 20754.4 133405.6 20178.4 Q 131797.6 19590.4 131077.6 18630.4 Q 130357.6 17670.4 130357.6 16410.4 Q 130357.6 14766.4 131701.6 13560.4 Q 133045.6 12354.4 135157.6 12354.4 Q 136273.6 12354.4 137461.6 12822.4  Z M 135385.6 13098.4 Q 134689.6 13098.4 134209.6 13800.4 Q 133729.6 14502.4 133729.6 16710.4 Q 133729.6 18498.4 134203.6 19164.4 Q 134677.6 19830.4 135325.6 19830.4 Q 136045.6 19830.4 136525.6 19170.4 Q 137005.6 18510.4 137005.6 16602.4 Q 137005.6 14454.4 136465.6 13674.4 Q 136081.6 13098.4 135385.6 13098.4  Z M 134677.6 25566.4 Q 133453.6 25566.4 133057.6 25770.4 Q 132373.6 26142.4 132373.6 26778.4 Q 132373.6 27390.4 133081.6 27888.4 Q 133789.6 28386.4 135745.6 28386.4 Q 137413.6 28386.4 138367.6 27942.4 Q 139321.6 27498.4 139321.6 26694.4 Q 139321.6 26394.4 139141.6 26190.4 Q 138817.6 25830.4 138163.6 25698.4 Q 137509.6 25566.4 134677.6 25566.4  Z M 147133.6 12690.4 L 147133.6 14142.4 Q 147997.6 13206.4 148789.6 12780.4 Q 149581.6 12354.4 150493.6 12354.4 Q 151585.6 12354.4 152305.6 12960.4 Q 153025.6 13566.4 153265.6 14466.4 Q 153457.6 15150.4 153457.6 17094.4 L 153457.6 21462.4 Q 153457.6 22758.4 153691.6 23076.4 Q 153925.6 23394.4 154669.6 23478.4 L 154669.6 23910.4 L 148993.6 23910.4 L 148993.6 23478.4 Q 149629.6 23394.4 149905.6 22950.4 Q 150097.6 22650.4 150097.6 21462.4 L 150097.6 16470.4 Q 150097.6 15090.4 149989.6 14730.4 Q 149881.6 14370.4 149623.6 14172.4 Q 149365.6 13974.4 149053.6 13974.4 Q 148021.6 13974.4 147133.6 15450.4 L 147133.6 21462.4 Q 147133.6 22722.4 147367.6 23058.4 Q 147601.6 23394.4 148237.6 23478.4 L 148237.6 23910.4 L 142561.6 23910.4 L 142561.6 23478.4 Q 143269.6 23406.4 143569.6 23022.4 Q 143773.6 22758.4 143773.6 21462.4 L 143773.6 15126.4 Q 143773.6 13854.4 143539.6 13542.4 Q 143305.6 13230.4 142561.6 13134.4 L 142561.6 12690.4 L 147133.6 12690.4 Z " fill-rule="nonzero" style="fill:#76923c;;fill-opacity:1;"/>
</svg>