<svg version="1.1" x="0" y="0" width="100%" height="100%" viewBox="0 0 231372.8 275968" xmlns="http://www.w3.org/2000/svg">
  <path d="M 20048 44936 L 20048 45824 L 3032 45824 L 3032 44936 L 4112 44936 Q 5528 44936 6392 44432 Q 7016 44096 7352 43280 Q 7616 42704 7616 40256 L 7616 18848 Q 7616 16352 7352 15728 Q 7088 15104 6284 14636 Q 5480 14168 4112 14168 L 3032 14168 L 3032 13280 L 20048 13280 L 20048 14168 L 18968 14168 Q 17552 14168 16688 14672 Q 16064 15008 15704 15824 Q 15440 16400 15440 18848 L 15440 40256 Q 15440 42752 15716 43376 Q 15992 44000 16796 44468 Q 17600 44936 18968 44936 L 20048 44936 Z M 36985.6 22760 L 37345.6 30416 L 36529.6 30416 Q 35065.6 27008 33493.6 25760 Q 31921.6 24512 30361.6 24512 Q 29377.6 24512 28681.6 25172 Q 27985.6 25832 27985.6 26696 Q 27985.6 27344 28465.6 27944 Q 29233.6 28928 32761.6 31316 Q 36289.6 33704 37405.6 35372 Q 38521.6 37040 38521.6 39104 Q 38521.6 40976 37585.6 42776 Q 36649.6 44576 34945.6 45536 Q 33241.6 46496 31177.6 46496 Q 29569.6 46496 26881.6 45488 Q 26161.6 45224 25897.6 45224 Q 25105.6 45224 24577.6 46424 L 23785.6 46424 L 23401.6 38360 L 24217.6 38360 Q 25297.6 41528 27181.6 43112 Q 29065.6 44696 30745.6 44696 Q 31897.6 44696 32629.6 43988 Q 33361.6 43280 33361.6 42272 Q 33361.6 41120 32641.6 40280 Q 31921.6 39440 29425.6 37736 Q 25753.6 35192 24673.6 33848 Q 23089.6 31880 23089.6 29504 Q 23089.6 26912 24877.6 24812 Q 26665.6 22712 30049.6 22712 Q 31873.6 22712 33577.6 23600 Q 34225.6 23960 34633.6 23960 Q 35065.6 23960 35329.6 23780 Q 35593.6 23600 36169.6 22760 L 36985.6 22760 Z M 52483.2 22712 Q 55411.2 22712 57931.2 24224 Q 60451.2 25736 61759.2 28520 Q 63067.2 31304 63067.2 34616 Q 63067.2 39392 60643.2 42608 Q 57715.2 46496 52555.2 46496 Q 47491.2 46496 44755.2 42944 Q 42019.2 39392 42019.2 34712 Q 42019.2 29888 44815.2 26300 Q 47611.2 22712 52483.2 22712  Z M 52579.2 24416 Q 51355.2 24416 50479.2 25340 Q 49603.2 26264 49327.2 28988 Q 49051.2 31712 49051.2 36560 Q 49051.2 39128 49387.2 41360 Q 49651.2 43064 50515.2 43952 Q 51379.2 44840 52483.2 44840 Q 53563.2 44840 54283.2 44240 Q 55219.2 43424 55531.2 41960 Q 56011.2 39680 56011.2 32744 Q 56011.2 28664 55555.2 27140 Q 55099.2 25616 54211.2 24920 Q 53587.2 24416 52579.2 24416  Z M 75259.2 13280 L 75259.2 41168 Q 75259.2 43544 75811.2 44204 Q 76363.2 44864 77971.2 44960 L 77971.2 45824 L 65851.2 45824 L 65851.2 44960 Q 67339.2 44912 68059.2 44096 Q 68539.2 43544 68539.2 41168 L 68539.2 17936 Q 68539.2 15584 67987.2 14924 Q 67435.2 14264 65851.2 14168 L 65851.2 13280 L 75259.2 13280 Z M 92478.4 42512 Q 88374.4 46136 85110.4 46136 Q 83190.4 46136 81918.4 44876 Q 80646.4 43616 80646.4 41720 Q 80646.4 39152 82854.4 37100 Q 85062.4 35048 92478.4 31640 L 92478.4 29384 Q 92478.4 26840 92202.4 26180 Q 91926.4 25520 91158.4 25028 Q 90390.4 24536 89430.4 24536 Q 87870.4 24536 86862.4 25232 Q 86238.4 25664 86238.4 26240 Q 86238.4 26744 86910.4 27488 Q 87822.4 28520 87822.4 29480 Q 87822.4 30656 86946.4 31484 Q 86070.4 32312 84654.4 32312 Q 83142.4 32312 82122.4 31400 Q 81102.4 30488 81102.4 29264 Q 81102.4 27536 82470.4 25964 Q 83838.4 24392 86286.4 23552 Q 88734.4 22712 91374.4 22712 Q 94566.4 22712 96426.4 24068 Q 98286.4 25424 98838.4 27008 Q 99174.4 28016 99174.4 31640 L 99174.4 40352 Q 99174.4 41888 99294.4 42284 Q 99414.4 42680 99654.4 42872 Q 99894.4 43064 100206.4 43064 Q 100830.4 43064 101478.4 42176 L 102198.4 42752 Q 100998.4 44528 99714.4 45332 Q 98430.4 46136 96798.4 46136 Q 94878.4 46136 93798.4 45236 Q 92718.4 44336 92478.4 42512  Z M 92478.4 40760 L 92478.4 33248 Q 89574.4 34952 88158.4 36896 Q 87222.4 38192 87222.4 39512 Q 87222.4 40616 88014.4 41456 Q 88614.4 42104 89694.4 42104 Q 90894.4 42104 92478.4 40760  Z M 113574.4 15176 L 113574.4 23384 L 118902.4 23384 L 118902.4 25760 L 113574.4 25760 L 113574.4 39608 Q 113574.4 41552 113754.4 42116 Q 113934.4 42680 114390.4 43028 Q 114846.4 43376 115230.4 43376 Q 116790.4 43376 118182.4 41000 L 118902.4 41528 Q 116958.4 46136 112590.4 46136 Q 110454.4 46136 108978.4 44948 Q 107502.4 43760 107094.4 42296 Q 106854.4 41480 106854.4 37880 L 106854.4 25760 L 103926.4 25760 L 103926.4 24920 Q 106950.4 22784 109074.4 20432 Q 111198.4 18080 112782.4 15176 L 113574.4 15176 Z M 126403.2 12512 Q 127963.2 12512 129043.2 13604 Q 130123.2 14696 130123.2 16232 Q 130123.2 17768 129031.2 18848 Q 127939.2 19928 126403.2 19928 Q 124867.2 19928 123787.2 18848 Q 122707.2 17768 122707.2 16232 Q 122707.2 14696 123787.2 13604 Q 124867.2 12512 126403.2 12512  Z M 129763.2 23384 L 129763.2 41168 Q 129763.2 43544 130315.2 44204 Q 130867.2 44864 132475.2 44960 L 132475.2 45824 L 120355.2 45824 L 120355.2 44960 Q 121843.2 44912 122563.2 44096 Q 123043.2 43544 123043.2 41168 L 123043.2 28064 Q 123043.2 25688 122491.2 25028 Q 121939.2 24368 120355.2 24272 L 120355.2 23384 L 129763.2 23384 Z M 145206.4 22712 Q 148134.4 22712 150654.4 24224 Q 153174.4 25736 154482.4 28520 Q 155790.4 31304 155790.4 34616 Q 155790.4 39392 153366.4 42608 Q 150438.4 46496 145278.4 46496 Q 140214.4 46496 137478.4 42944 Q 134742.4 39392 134742.4 34712 Q 134742.4 29888 137538.4 26300 Q 140334.4 22712 145206.4 22712  Z M 145302.4 24416 Q 144078.4 24416 143202.4 25340 Q 142326.4 26264 142050.4 28988 Q 141774.4 31712 141774.4 36560 Q 141774.4 39128 142110.4 41360 Q 142374.4 43064 143238.4 43952 Q 144102.4 44840 145206.4 44840 Q 146286.4 44840 147006.4 44240 Q 147942.4 43424 148254.4 41960 Q 148734.4 39680 148734.4 32744 Q 148734.4 28664 148278.4 27140 Q 147822.4 25616 146934.4 24920 Q 146310.4 24416 145302.4 24416  Z M 168366.4 23384 L 168366.4 26288 Q 170094.4 24416 171678.4 23564 Q 173262.4 22712 175086.4 22712 Q 177270.4 22712 178710.4 23924 Q 180150.4 25136 180630.4 26936 Q 181014.4 28304 181014.4 32192 L 181014.4 40928 Q 181014.4 43520 181482.4 44156 Q 181950.4 44792 183438.4 44960 L 183438.4 45824 L 172086.4 45824 L 172086.4 44960 Q 173358.4 44792 173910.4 43904 Q 174294.4 43304 174294.4 40928 L 174294.4 30944 Q 174294.4 28184 174078.4 27464 Q 173862.4 26744 173346.4 26348 Q 172830.4 25952 172206.4 25952 Q 170142.4 25952 168366.4 28904 L 168366.4 40928 Q 168366.4 43448 168834.4 44120 Q 169302.4 44792 170574.4 44960 L 170574.4 45824 L 159222.4 45824 L 159222.4 44960 Q 160638.4 44816 161238.4 44048 Q 161646.4 43520 161646.4 40928 L 161646.4 28256 Q 161646.4 25712 161178.4 25088 Q 160710.4 24464 159222.4 24272 L 159222.4 23384 L 168366.4 23384 Z M 16088 96886.4 Q 11984 100510.4 8720 100510.4 Q 6800 100510.4 5528 99250.4 Q 4256 97990.4 4256 96094.4 Q 4256 93526.4 6464 91474.4 Q 8672 89422.4 16088 86014.4 L 16088 83758.4 Q 16088 81214.4 15812 80554.4 Q 15536 79894.4 14768 79402.4 Q 14000 78910.4 13040 78910.4 Q 11480 78910.4 10472 79606.4 Q 9848 80038.4 9848 80614.4 Q 9848 81118.4 10520 81862.4 Q 11432 82894.4 11432 83854.4 Q 11432 85030.4 10556 85858.4 Q 9680 86686.4 8264 86686.4 Q 6752 86686.4 5732 85774.4 Q 4712 84862.4 4712 83638.4 Q 4712 81910.4 6080 80338.4 Q 7448 78766.4 9896 77926.4 Q 12344 77086.4 14984 77086.4 Q 18176 77086.4 20036 78442.4 Q 21896 79798.4 22448 81382.4 Q 22784 82390.4 22784 86014.4 L 22784 94726.4 Q 22784 96262.4 22904 96658.4 Q 23024 97054.4 23264 97246.4 Q 23504 97438.4 23816 97438.4 Q 24440 97438.4 25088 96550.4 L 25808 97126.4 Q 24608 98902.4 23324 99706.4 Q 22040 100510.4 20408 100510.4 Q 18488 100510.4 17408 99610.4 Q 16328 98710.4 16088 96886.4  Z M 16088 95134.4 L 16088 87622.4 Q 13184 89326.4 11768 91270.4 Q 10832 92566.4 10832 93886.4 Q 10832 94990.4 11624 95830.4 Q 12224 96478.4 13304 96478.4 Q 14504 96478.4 16088 95134.4  Z M 37448 77758.4 L 37448 80662.4 Q 39176 78790.4 40760 77938.4 Q 42344 77086.4 44168 77086.4 Q 46352 77086.4 47792 78298.4 Q 49232 79510.4 49712 81310.4 Q 50096 82678.4 50096 86566.4 L 50096 95302.4 Q 50096 97894.4 50564 98530.4 Q 51032 99166.4 52520 99334.4 L 52520 100198.4 L 41168 100198.4 L 41168 99334.4 Q 42440 99166.4 42992 98278.4 Q 43376 97678.4 43376 95302.4 L 43376 85318.4 Q 43376 82558.4 43160 81838.4 Q 42944 81118.4 42428 80722.4 Q 41912 80326.4 41288 80326.4 Q 39224 80326.4 37448 83278.4 L 37448 95302.4 Q 37448 97822.4 37916 98494.4 Q 38384 99166.4 39656 99334.4 L 39656 100198.4 L 28304 100198.4 L 28304 99334.4 Q 29720 99190.4 30320 98422.4 Q 30728 97894.4 30728 95302.4 L 30728 82630.4 Q 30728 80086.4 30260 79462.4 Q 29792 78838.4 28304 78646.4 L 28304 77758.4 L 37448 77758.4 Z M 77385.6 67654.4 L 77385.6 93478.4 Q 77385.6 96094.4 77529.6 96574.4 Q 77721.6 97366.4 78261.6 97750.4 Q 78801.6 98134.4 80145.6 98230.4 L 80145.6 99022.4 L 70665.6 100870.4 L 70665.6 97318.4 Q 68961.6 99382.4 67629.6 100126.4 Q 66297.6 100870.4 64617.6 100870.4 Q 60321.6 100870.4 57825.6 97030.4 Q 55809.6 93910.4 55809.6 89374.4 Q 55809.6 85750.4 57057.6 82882.4 Q 58305.6 80014.4 60477.6 78550.4 Q 62649.6 77086.4 65145.6 77086.4 Q 66753.6 77086.4 68001.6 77710.4 Q 69249.6 78334.4 70665.6 79894.4 L 70665.6 73126.4 Q 70665.6 70558.4 70449.6 70030.4 Q 70161.6 69334.4 69585.6 68998.4 Q 69009.6 68662.4 67425.6 68662.4 L 67425.6 67654.4 L 77385.6 67654.4 Z M 70665.6 82870.4 Q 68889.6 79462.4 66321.6 79462.4 Q 65433.6 79462.4 64857.6 79942.4 Q 63969.6 80686.4 63405.6 82558.4 Q 62841.6 84430.4 62841.6 88294.4 Q 62841.6 92542.4 63465.6 94582.4 Q 64089.6 96622.4 65169.6 97534.4 Q 65721.6 97990.4 66681.6 97990.4 Q 68793.6 97990.4 70665.6 94678.4 L 70665.6 82870.4 Z M 22016 148788.8 L 22760 149364.8 Q 21176 152340.8 18812 153792.8 Q 16448 155244.8 13784 155244.8 Q 9296 155244.8 6608 151860.8 Q 3920 148476.8 3920 143724.8 Q 3920 139140.8 6368 135660.8 Q 9320 131460.8 14504 131460.8 Q 17984 131460.8 20036 133212.8 Q 22088 134964.8 22088 137124.8 Q 22088 138492.8 21260 139308.8 Q 20432 140124.8 19088 140124.8 Q 17672 140124.8 16748 139188.8 Q 15824 138252.8 15608 135852.8 Q 15464 134340.8 14912 133740.8 Q 14360 133140.8 13616 133140.8 Q 12464 133140.8 11648 134364.8 Q 10400 136212.8 10400 140028.8 Q 10400 143196.8 11408 146088.8 Q 12416 148980.8 14168 150396.8 Q 15488 151428.8 17288 151428.8 Q 18464 151428.8 19520 150876.8 Q 20576 150324.8 22016 148788.8  Z M 47187.2 132132.8 L 47187.2 149700.8 Q 47187.2 152268.8 47667.2 152904.8 Q 48147.2 153540.8 49611.2 153708.8 L 49611.2 154572.8 L 40467.2 154572.8 L 40467.2 151572.8 Q 38859.2 153492.8 37251.2 154368.8 Q 35643.2 155244.8 33651.2 155244.8 Q 31755.2 155244.8 30279.2 154080.8 Q 28803.2 152916.8 28299.2 151356.8 Q 27795.2 149796.8 27795.2 145908.8 L 27795.2 137004.8 Q 27795.2 134460.8 27327.2 133836.8 Q 26859.2 133212.8 25371.2 133020.8 L 25371.2 132132.8 L 34515.2 132132.8 L 34515.2 147468.8 Q 34515.2 149868.8 34743.2 150564.8 Q 34971.2 151260.8 35463.2 151620.8 Q 35955.2 151980.8 36603.2 151980.8 Q 37467.2 151980.8 38163.2 151524.8 Q 39123.2 150900.8 40467.2 149004.8 L 40467.2 137004.8 Q 40467.2 134460.8 39999.2 133836.8 Q 39531.2 133212.8 38043.2 133020.8 L 38043.2 132132.8 L 47187.2 132132.8 Z M 61588.8 122028.8 L 61588.8 149916.8 Q 61588.8 152292.8 62140.8 152952.8 Q 62692.8 153612.8 64300.8 153708.8 L 64300.8 154572.8 L 52180.8 154572.8 L 52180.8 153708.8 Q 53668.8 153660.8 54388.8 152844.8 Q 54868.8 152292.8 54868.8 149916.8 L 54868.8 126684.8 Q 54868.8 124332.8 54316.8 123672.8 Q 53764.8 123012.8 52180.8 122916.8 L 52180.8 122028.8 L 61588.8 122028.8 Z M 75328 123924.8 L 75328 132132.8 L 80656 132132.8 L 80656 134508.8 L 75328 134508.8 L 75328 148356.8 Q 75328 150300.8 75508 150864.8 Q 75688 151428.8 76144 151776.8 Q 76600 152124.8 76984 152124.8 Q 78544 152124.8 79936 149748.8 L 80656 150276.8 Q 78712 154884.8 74344 154884.8 Q 72208 154884.8 70732 153696.8 Q 69256 152508.8 68848 151044.8 Q 68608 150228.8 68608 146628.8 L 68608 134508.8 L 65680 134508.8 L 65680 133668.8 Q 68704 131532.8 70828 129180.8 Q 72952 126828.8 74536 123924.8 L 75328 123924.8 Z M 104428.8 132132.8 L 104428.8 149700.8 Q 104428.8 152268.8 104908.8 152904.8 Q 105388.8 153540.8 106852.8 153708.8 L 106852.8 154572.8 L 97708.8 154572.8 L 97708.8 151572.8 Q 96100.8 153492.8 94492.8 154368.8 Q 92884.8 155244.8 90892.8 155244.8 Q 88996.8 155244.8 87520.8 154080.8 Q 86044.8 152916.8 85540.8 151356.8 Q 85036.8 149796.8 85036.8 145908.8 L 85036.8 137004.8 Q 85036.8 134460.8 84568.8 133836.8 Q 84100.8 133212.8 82612.8 133020.8 L 82612.8 132132.8 L 91756.8 132132.8 L 91756.8 147468.8 Q 91756.8 149868.8 91984.8 150564.8 Q 92212.8 151260.8 92704.8 151620.8 Q 93196.8 151980.8 93844.8 151980.8 Q 94708.8 151980.8 95404.8 151524.8 Q 96364.8 150900.8 97708.8 149004.8 L 97708.8 137004.8 Q 97708.8 134460.8 97240.8 133836.8 Q 96772.8 133212.8 95284.8 133020.8 L 95284.8 132132.8 L 104428.8 132132.8 Z M 119358.4 132132.8 L 119358.4 137220.8 Q 121590.4 133740.8 123270.4 132600.8 Q 124950.4 131460.8 126510.4 131460.8 Q 127854.4 131460.8 128658.4 132288.8 Q 129462.4 133116.8 129462.4 134628.8 Q 129462.4 136236.8 128682.4 137124.8 Q 127902.4 138012.8 126798.4 138012.8 Q 125526.4 138012.8 124590.4 137196.8 Q 123654.4 136380.8 123486.4 136284.8 Q 123246.4 136140.8 122934.4 136140.8 Q 122238.4 136140.8 121614.4 136668.8 Q 120630.4 137484.8 120126.4 138996.8 Q 119358.4 141324.8 119358.4 144132.8 L 119358.4 149292.8 L 119382.4 150636.8 Q 119382.4 152004.8 119550.4 152388.8 Q 119838.4 153036.8 120402.4 153336.8 Q 120966.4 153636.8 122310.4 153708.8 L 122310.4 154572.8 L 110190.4 154572.8 L 110190.4 153708.8 Q 111654.4 153588.8 112170.4 152904.8 Q 112686.4 152220.8 112686.4 149292.8 L 112686.4 136884.8 Q 112686.4 134964.8 112494.4 134436.8 Q 112254.4 133764.8 111798.4 133452.8 Q 111342.4 133140.8 110190.4 133020.8 L 110190.4 132132.8 L 119358.4 132132.8 Z M 150865.6 142548.8 L 138553.6 142548.8 Q 138769.6 147012.8 140929.6 149604.8 Q 142585.6 151596.8 144913.6 151596.8 Q 146353.6 151596.8 147529.6 150792.8 Q 148705.6 149988.8 150049.6 147900.8 L 150865.6 148428.8 Q 149041.6 152148.8 146833.6 153696.8 Q 144625.6 155244.8 141721.6 155244.8 Q 136729.6 155244.8 134161.6 151404.8 Q 132097.6 148308.8 132097.6 143724.8 Q 132097.6 138108.8 135133.6 134784.8 Q 138169.6 131460.8 142249.6 131460.8 Q 145657.6 131460.8 148165.6 134256.8 Q 150673.6 137052.8 150865.6 142548.8  Z M 144961.6 140940.8 Q 144961.6 137076.8 144541.6 135636.8 Q 144121.6 134196.8 143233.6 133452.8 Q 142729.6 133020.8 141889.6 133020.8 Q 140641.6 133020.8 139849.6 134244.8 Q 138433.6 136380.8 138433.6 140100.8 L 138433.6 140940.8 L 144961.6 140940.8 Z M 176540.8 131460.8 Q 179468.8 131460.8 181988.8 132972.8 Q 184508.8 134484.8 185816.8 137268.8 Q 187124.8 140052.8 187124.8 143364.8 Q 187124.8 148140.8 184700.8 151356.8 Q 181772.8 155244.8 176612.8 155244.8 Q 171548.8 155244.8 168812.8 151692.8 Q 166076.8 148140.8 166076.8 143460.8 Q 166076.8 138636.8 168872.8 135048.8 Q 171668.8 131460.8 176540.8 131460.8  Z M 176636.8 133164.8 Q 175412.8 133164.8 174536.8 134088.8 Q 173660.8 135012.8 173384.8 137736.8 Q 173108.8 140460.8 173108.8 145308.8 Q 173108.8 147876.8 173444.8 150108.8 Q 173708.8 151812.8 174572.8 152700.8 Q 175436.8 153588.8 176540.8 153588.8 Q 177620.8 153588.8 178340.8 152988.8 Q 179276.8 152172.8 179588.8 150708.8 Q 180068.8 148428.8 180068.8 141492.8 Q 180068.8 137412.8 179612.8 135888.8 Q 179156.8 134364.8 178268.8 133668.8 Q 177644.8 133164.8 176636.8 133164.8  Z M 200372.8 134484.8 L 200372.8 150060.8 Q 200372.8 152316.8 200852.8 152892.8 Q 201620.8 153780.8 203684.8 153708.8 L 203684.8 154572.8 L 190460.8 154572.8 L 190460.8 153708.8 Q 191972.8 153684.8 192608.8 153360.8 Q 193244.8 153036.8 193484.8 152460.8 Q 193724.8 151884.8 193724.8 150060.8 L 193724.8 134484.8 L 190460.8 134484.8 L 190460.8 132132.8 L 193724.8 132132.8 L 193724.8 130476.8 L 193700.8 129348.8 Q 193700.8 125892.8 196232.8 123588.8 Q 198764.8 121284.8 203084.8 121284.8 Q 206036.8 121284.8 207464.8 122388.8 Q 208892.8 123492.8 208892.8 124836.8 Q 208892.8 125916.8 208004.8 126708.8 Q 207116.8 127500.8 205652.8 127500.8 Q 204404.8 127500.8 203672.8 126852.8 Q 202940.8 126204.8 202940.8 125412.8 Q 202940.8 125196.8 203084.8 124524.8 Q 203180.8 124116.8 203180.8 123756.8 Q 203180.8 123252.8 202892.8 123012.8 Q 202508.8 122652.8 201956.8 122652.8 Q 201260.8 122652.8 200792.8 123228.8 Q 200324.8 123804.8 200324.8 125076.8 L 200372.8 129276.8 L 200372.8 132132.8 L 203684.8 132132.8 L 203684.8 134484.8 L 200372.8 134484.8 Z M 13544 188859.2 L 13544 204435.2 Q 13544 206691.2 14024 207267.2 Q 14792 208155.2 16856 208083.2 L 16856 208947.2 L 3632 208947.2 L 3632 208083.2 Q 5144 208059.2 5780 207735.2 Q 6416 207411.2 6656 206835.2 Q 6896 206259.2 6896 204435.2 L 6896 188859.2 L 3632 188859.2 L 3632 186507.2 L 6896 186507.2 L 6896 184851.2 L 6872 183723.2 Q 6872 180267.2 9404 177963.2 Q 11936 175659.2 16256 175659.2 Q 19208 175659.2 20636 176763.2 Q 22064 177867.2 22064 179211.2 Q 22064 180291.2 21176 181083.2 Q 20288 181875.2 18824 181875.2 Q 17576 181875.2 16844 181227.2 Q 16112 180579.2 16112 179787.2 Q 16112 179571.2 16256 178899.2 Q 16352 178491.2 16352 178131.2 Q 16352 177627.2 16064 177387.2 Q 15680 177027.2 15128 177027.2 Q 14432 177027.2 13964 177603.2 Q 13496 178179.2 13496 179451.2 L 13544 183651.2 L 13544 186507.2 L 16856 186507.2 L 16856 188859.2 L 13544 188859.2 Z M 41708.8 186507.2 L 41708.8 204075.2 Q 41708.8 206643.2 42188.8 207279.2 Q 42668.8 207915.2 44132.8 208083.2 L 44132.8 208947.2 L 34988.8 208947.2 L 34988.8 205947.2 Q 33380.8 207867.2 31772.8 208743.2 Q 30164.8 209619.2 28172.8 209619.2 Q 26276.8 209619.2 24800.8 208455.2 Q 23324.8 207291.2 22820.8 205731.2 Q 22316.8 204171.2 22316.8 200283.2 L 22316.8 191379.2 Q 22316.8 188835.2 21848.8 188211.2 Q 21380.8 187587.2 19892.8 187395.2 L 19892.8 186507.2 L 29036.8 186507.2 L 29036.8 201843.2 Q 29036.8 204243.2 29264.8 204939.2 Q 29492.8 205635.2 29984.8 205995.2 Q 30476.8 206355.2 31124.8 206355.2 Q 31988.8 206355.2 32684.8 205899.2 Q 33644.8 205275.2 34988.8 203379.2 L 34988.8 191379.2 Q 34988.8 188835.2 34520.8 188211.2 Q 34052.8 187587.2 32564.8 187395.2 L 32564.8 186507.2 L 41708.8 186507.2 Z M 56494.4 186507.2 L 56494.4 189411.2 Q 58222.4 187539.2 59806.4 186687.2 Q 61390.4 185835.2 63214.4 185835.2 Q 65398.4 185835.2 66838.4 187047.2 Q 68278.4 188259.2 68758.4 190059.2 Q 69142.4 191427.2 69142.4 195315.2 L 69142.4 204051.2 Q 69142.4 206643.2 69610.4 207279.2 Q 70078.4 207915.2 71566.4 208083.2 L 71566.4 208947.2 L 60214.4 208947.2 L 60214.4 208083.2 Q 61486.4 207915.2 62038.4 207027.2 Q 62422.4 206427.2 62422.4 204051.2 L 62422.4 194067.2 Q 62422.4 191307.2 62206.4 190587.2 Q 61990.4 189867.2 61474.4 189471.2 Q 60958.4 189075.2 60334.4 189075.2 Q 58270.4 189075.2 56494.4 192027.2 L 56494.4 204051.2 Q 56494.4 206571.2 56962.4 207243.2 Q 57430.4 207915.2 58702.4 208083.2 L 58702.4 208947.2 L 47350.4 208947.2 L 47350.4 208083.2 Q 48766.4 207939.2 49366.4 207171.2 Q 49774.4 206643.2 49774.4 204051.2 L 49774.4 191379.2 Q 49774.4 188835.2 49306.4 188211.2 Q 48838.4 187587.2 47350.4 187395.2 L 47350.4 186507.2 L 56494.4 186507.2 Z M 89016 186771.2 L 96576 186771.2 L 96576 189411.2 L 92280 189411.2 Q 93456 190587.2 93912 191547.2 Q 94488 192843.2 94488 194259.2 Q 94488 196659.2 93156 198423.2 Q 91824 200187.2 89532 201183.2 Q 87240 202179.2 85464 202179.2 Q 85320 202179.2 82584 202059.2 Q 81504 202059.2 80772 202767.2 Q 80040 203475.2 80040 204459.2 Q 80040 205323.2 80700 205875.2 Q 81360 206427.2 82848 206427.2 L 87000 206379.2 Q 92040 206379.2 93936 207483.2 Q 96648 209019.2 96648 212211.2 Q 96648 214251.2 95400 215919.2 Q 94152 217587.2 92112 218379.2 Q 89016 219555.2 84984 219555.2 Q 81960 219555.2 79464 218967.2 Q 76968 218379.2 75888 217335.2 Q 74808 216291.2 74808 215139.2 Q 74808 214035.2 75636 213159.2 Q 76464 212283.2 78720 211683.2 Q 75600 210147.2 75600 207411.2 Q 75600 205755.2 76872 204195.2 Q 78144 202635.2 80904 201483.2 Q 77688 200307.2 76248 198387.2 Q 74808 196467.2 74808 193947.2 Q 74808 190659.2 77496 188247.2 Q 80184 185835.2 84408 185835.2 Q 86640 185835.2 89016 186771.2  Z M 84864 187323.2 Q 83472 187323.2 82512 188727.2 Q 81552 190131.2 81552 194547.2 Q 81552 198123.2 82500 199455.2 Q 83448 200787.2 84744 200787.2 Q 86184 200787.2 87144 199467.2 Q 88104 198147.2 88104 194331.2 Q 88104 190035.2 87024 188475.2 Q 86256 187323.2 84864 187323.2  Z M 83448 212259.2 Q 81000 212259.2 80208 212667.2 Q 78840 213411.2 78840 214683.2 Q 78840 215907.2 80256 216903.2 Q 81672 217899.2 85584 217899.2 Q 88920 217899.2 90828 217011.2 Q 92736 216123.2 92736 214515.2 Q 92736 213915.2 92376 213507.2 Q 91728 212787.2 90420 212523.2 Q 89112 212259.2 83448 212259.2  Z M 120864 186507.2 L 120864 204075.2 Q 120864 206643.2 121344 207279.2 Q 121824 207915.2 123288 208083.2 L 123288 208947.2 L 114144 208947.2 L 114144 205947.2 Q 112536 207867.2 110928 208743.2 Q 109320 209619.2 107328 209619.2 Q 105432 209619.2 103956 208455.2 Q 102480 207291.2 101976 205731.2 Q 101472 204171.2 101472 200283.2 L 101472 191379.2 Q 101472 188835.2 101004 188211.2 Q 100536 187587.2 99048 187395.2 L 99048 186507.2 L 108192 186507.2 L 108192 201843.2 Q 108192 204243.2 108420 204939.2 Q 108648 205635.2 109140 205995.2 Q 109632 206355.2 110280 206355.2 Q 111144 206355.2 111840 205899.2 Q 112800 205275.2 114144 203379.2 L 114144 191379.2 Q 114144 188835.2 113676 188211.2 Q 113208 187587.2 111720 187395.2 L 111720 186507.2 L 120864 186507.2 Z M 140665.6 185883.2 L 141025.6 193539.2 L 140209.6 193539.2 Q 138745.6 190131.2 137173.6 188883.2 Q 135601.6 187635.2 134041.6 187635.2 Q 133057.6 187635.2 132361.6 188295.2 Q 131665.6 188955.2 131665.6 189819.2 Q 131665.6 190467.2 132145.6 191067.2 Q 132913.6 192051.2 136441.6 194439.2 Q 139969.6 196827.2 141085.6 198495.2 Q 142201.6 200163.2 142201.6 202227.2 Q 142201.6 204099.2 141265.6 205899.2 Q 140329.6 207699.2 138625.6 208659.2 Q 136921.6 209619.2 134857.6 209619.2 Q 133249.6 209619.2 130561.6 208611.2 Q 129841.6 208347.2 129577.6 208347.2 Q 128785.6 208347.2 128257.6 209547.2 L 127465.6 209547.2 L 127081.6 201483.2 L 127897.6 201483.2 Q 128977.6 204651.2 130861.6 206235.2 Q 132745.6 207819.2 134425.6 207819.2 Q 135577.6 207819.2 136309.6 207111.2 Q 137041.6 206403.2 137041.6 205395.2 Q 137041.6 204243.2 136321.6 203403.2 Q 135601.6 202563.2 133105.6 200859.2 Q 129433.6 198315.2 128353.6 196971.2 Q 126769.6 195003.2 126769.6 192627.2 Q 126769.6 190035.2 128557.6 187935.2 Q 130345.6 185835.2 133729.6 185835.2 Q 135553.6 185835.2 137257.6 186723.2 Q 137905.6 187083.2 138313.6 187083.2 Q 138745.6 187083.2 139009.6 186903.2 Q 139273.6 186723.2 139849.6 185883.2 L 140665.6 185883.2 Z M 13544 243233.6 L 13544 258809.6 Q 13544 261065.6 14024 261641.6 Q 14792 262529.6 16856 262457.6 L 16856 263321.6 L 3632 263321.6 L 3632 262457.6 Q 5144 262433.6 5780 262109.6 Q 6416 261785.6 6656 261209.6 Q 6896 260633.6 6896 258809.6 L 6896 243233.6 L 3632 243233.6 L 3632 240881.6 L 6896 240881.6 L 6896 239225.6 L 6872 238097.6 Q 6872 234641.6 9404 232337.6 Q 11936 230033.6 16256 230033.6 Q 19208 230033.6 20636 231137.6 Q 22064 232241.6 22064 233585.6 Q 22064 234665.6 21176 235457.6 Q 20288 236249.6 18824 236249.6 Q 17576 236249.6 16844 235601.6 Q 16112 234953.6 16112 234161.6 Q 16112 233945.6 16256 233273.6 Q 16352 232865.6 16352 232505.6 Q 16352 232001.6 16064 231761.6 Q 15680 231401.6 15128 231401.6 Q 14432 231401.6 13964 231977.6 Q 13496 232553.6 13496 233825.6 L 13544 238025.6 L 13544 240881.6 L 16856 240881.6 L 16856 243233.6 L 13544 243233.6 Z M 29348.8 240881.6 L 29348.8 245969.6 Q 31580.8 242489.6 33260.8 241349.6 Q 34940.8 240209.6 36500.8 240209.6 Q 37844.8 240209.6 38648.8 241037.6 Q 39452.8 241865.6 39452.8 243377.6 Q 39452.8 244985.6 38672.8 245873.6 Q 37892.8 246761.6 36788.8 246761.6 Q 35516.8 246761.6 34580.8 245945.6 Q 33644.8 245129.6 33476.8 245033.6 Q 33236.8 244889.6 32924.8 244889.6 Q 32228.8 244889.6 31604.8 245417.6 Q 30620.8 246233.6 30116.8 247745.6 Q 29348.8 250073.6 29348.8 252881.6 L 29348.8 258041.6 L 29372.8 259385.6 Q 29372.8 260753.6 29540.8 261137.6 Q 29828.8 261785.6 30392.8 262085.6 Q 30956.8 262385.6 32300.8 262457.6 L 32300.8 263321.6 L 20180.8 263321.6 L 20180.8 262457.6 Q 21644.8 262337.6 22160.8 261653.6 Q 22676.8 260969.6 22676.8 258041.6 L 22676.8 245633.6 Q 22676.8 243713.6 22484.8 243185.6 Q 22244.8 242513.6 21788.8 242201.6 Q 21332.8 241889.6 20180.8 241769.6 L 20180.8 240881.6 L 29348.8 240881.6 Z M 52432 240209.6 Q 55360 240209.6 57880 241721.6 Q 60400 243233.6 61708 246017.6 Q 63016 248801.6 63016 252113.6 Q 63016 256889.6 60592 260105.6 Q 57664 263993.6 52504 263993.6 Q 47440 263993.6 44704 260441.6 Q 41968 256889.6 41968 252209.6 Q 41968 247385.6 44764 243797.6 Q 47560 240209.6 52432 240209.6  Z M 52528 241913.6 Q 51304 241913.6 50428 242837.6 Q 49552 243761.6 49276 246485.6 Q 49000 249209.6 49000 254057.6 Q 49000 256625.6 49336 258857.6 Q 49600 260561.6 50464 261449.6 Q 51328 262337.6 52432 262337.6 Q 53512 262337.6 54232 261737.6 Q 55168 260921.6 55480 259457.6 Q 55960 257177.6 55960 250241.6 Q 55960 246161.6 55504 244637.6 Q 55048 243113.6 54160 242417.6 Q 53536 241913.6 52528 241913.6  Z M 75736 240881.6 L 75736 243833.6 Q 77584 241817.6 79156 241013.6 Q 80728 240209.6 82600 240209.6 Q 84760 240209.6 86224 241217.6 Q 87688 242225.6 88480 244289.6 Q 90400 242129.6 92164 241169.6 Q 93928 240209.6 95848 240209.6 Q 98176 240209.6 99556 241277.6 Q 100936 242345.6 101476 243989.6 Q 102016 245633.6 102016 249233.6 L 102016 258425.6 Q 102016 261017.6 102484 261641.6 Q 102952 262265.6 104440 262457.6 L 104440 263321.6 L 92848 263321.6 L 92848 262457.6 Q 94216 262337.6 94864 261401.6 Q 95296 260753.6 95296 258425.6 L 95296 248777.6 Q 95296 245777.6 95056 244961.6 Q 94816 244145.6 94300 243749.6 Q 93784 243353.6 93088 243353.6 Q 92056 243353.6 91000 244109.6 Q 89944 244865.6 88864 246377.6 L 88864 258425.6 Q 88864 260849.6 89272 261473.6 Q 89824 262361.6 91384 262457.6 L 91384 263321.6 L 79768 263321.6 L 79768 262457.6 Q 80704 262409.6 81244 261989.6 Q 81784 261569.6 81964 260981.6 Q 82144 260393.6 82144 258425.6 L 82144 248777.6 Q 82144 245729.6 81904 244961.6 Q 81664 244193.6 81100 243761.6 Q 80536 243329.6 79888 243329.6 Q 78928 243329.6 78136 243833.6 Q 77008 244577.6 75736 246377.6 L 75736 258425.6 Q 75736 260801.6 76204 261557.6 Q 76672 262313.6 78160 262457.6 L 78160 263321.6 L 66592 263321.6 L 66592 262457.6 Q 68008 262313.6 68608 261545.6 Q 69016 261017.6 69016 258425.6 L 69016 245753.6 Q 69016 243209.6 68548 242585.6 Q 68080 241961.6 66592 241769.6 L 66592 240881.6 L 75736 240881.6 Z M 133804.8 240257.6 L 134164.8 247913.6 L 133348.8 247913.6 Q 131884.8 244505.6 130312.8 243257.6 Q 128740.8 242009.6 127180.8 242009.6 Q 126196.8 242009.6 125500.8 242669.6 Q 124804.8 243329.6 124804.8 244193.6 Q 124804.8 244841.6 125284.8 245441.6 Q 126052.8 246425.6 129580.8 248813.6 Q 133108.8 251201.6 134224.8 252869.6 Q 135340.8 254537.6 135340.8 256601.6 Q 135340.8 258473.6 134404.8 260273.6 Q 133468.8 262073.6 131764.8 263033.6 Q 130060.8 263993.6 127996.8 263993.6 Q 126388.8 263993.6 123700.8 262985.6 Q 122980.8 262721.6 122716.8 262721.6 Q 121924.8 262721.6 121396.8 263921.6 L 120604.8 263921.6 L 120220.8 255857.6 L 121036.8 255857.6 Q 122116.8 259025.6 124000.8 260609.6 Q 125884.8 262193.6 127564.8 262193.6 Q 128716.8 262193.6 129448.8 261485.6 Q 130180.8 260777.6 130180.8 259769.6 Q 130180.8 258617.6 129460.8 257777.6 Q 128740.8 256937.6 126244.8 255233.6 Q 122572.8 252689.6 121492.8 251345.6 Q 119908.8 249377.6 119908.8 247001.6 Q 119908.8 244409.6 121696.8 242309.6 Q 123484.8 240209.6 126868.8 240209.6 Q 128692.8 240209.6 130396.8 241097.6 Q 131044.8 241457.6 131452.8 241457.6 Q 131884.8 241457.6 132148.8 241277.6 Q 132412.8 241097.6 132988.8 240257.6 L 133804.8 240257.6 Z M 149302.4 240209.6 Q 152230.4 240209.6 154750.4 241721.6 Q 157270.4 243233.6 158578.4 246017.6 Q 159886.4 248801.6 159886.4 252113.6 Q 159886.4 256889.6 157462.4 260105.6 Q 154534.4 263993.6 149374.4 263993.6 Q 144310.4 263993.6 141574.4 260441.6 Q 138838.4 256889.6 138838.4 252209.6 Q 138838.4 247385.6 141634.4 243797.6 Q 144430.4 240209.6 149302.4 240209.6  Z M 149398.4 241913.6 Q 148174.4 241913.6 147298.4 242837.6 Q 146422.4 243761.6 146146.4 246485.6 Q 145870.4 249209.6 145870.4 254057.6 Q 145870.4 256625.6 146206.4 258857.6 Q 146470.4 260561.6 147334.4 261449.6 Q 148198.4 262337.6 149302.4 262337.6 Q 150382.4 262337.6 151102.4 261737.6 Q 152038.4 260921.6 152350.4 259457.6 Q 152830.4 257177.6 152830.4 250241.6 Q 152830.4 246161.6 152374.4 244637.6 Q 151918.4 243113.6 151030.4 242417.6 Q 150406.4 241913.6 149398.4 241913.6  Z M 168694.4 230009.6 Q 170254.4 230009.6 171334.4 231101.6 Q 172414.4 232193.6 172414.4 233729.6 Q 172414.4 235265.6 171322.4 236345.6 Q 170230.4 237425.6 168694.4 237425.6 Q 167158.4 237425.6 166078.4 236345.6 Q 164998.4 235265.6 164998.4 233729.6 Q 164998.4 232193.6 166078.4 231101.6 Q 167158.4 230009.6 168694.4 230009.6  Z M 172054.4 240881.6 L 172054.4 258665.6 Q 172054.4 261041.6 172606.4 261701.6 Q 173158.4 262361.6 174766.4 262457.6 L 174766.4 263321.6 L 162646.4 263321.6 L 162646.4 262457.6 Q 164134.4 262409.6 164854.4 261593.6 Q 165334.4 261041.6 165334.4 258665.6 L 165334.4 245561.6 Q 165334.4 243185.6 164782.4 242525.6 Q 164230.4 241865.6 162646.4 241769.6 L 162646.4 240881.6 L 172054.4 240881.6 Z M 185697.6 230777.6 L 185697.6 258665.6 Q 185697.6 261041.6 186249.6 261701.6 Q 186801.6 262361.6 188409.6 262457.6 L 188409.6 263321.6 L 176289.6 263321.6 L 176289.6 262457.6 Q 177777.6 262409.6 178497.6 261593.6 Q 178977.6 261041.6 178977.6 258665.6 L 178977.6 235433.6 Q 178977.6 233081.6 178425.6 232421.6 Q 177873.6 231761.6 176289.6 231665.6 L 176289.6 230777.6 L 185697.6 230777.6 Z " fill-rule="nonzero" style="fill:#d99694;;fill-opacity:1;"/>
</svg>