<svg version="1.1" x="0" y="0" width="100%" height="100%" viewBox="0 0 220876.8 51865.6" xmlns="http://www.w3.org/2000/svg">
  <path d="M 22628 11809.2 Q 21536 13279.2 20885 14875.2 Q 19604 18025.2 19184 18739.2 L 19079 18865.2 Q 18995 18634.2 18953 18508.2 Q 18365 16618.2 17987 15883.2 Q 17609 15148.2 16853 14476.2 Q 14942 12775.2 12506 12775.2 Q 10259 12775.2 8768 14024.7 Q 7277 15274.2 7277 17164.2 Q 7277 20692.2 12590 21973.2 L 16139 22834.2 Q 23720 24661.2 23720 30835.2 Q 23720 34279.2 21126.5 36620.7 Q 18533 38962.2 14711 38962.2 Q 12317 38962.2 9356 38227.2 L 6899 37618.2 Q 5408 37261.2 4442 37261.2 Q 3161 37261.2 1796 38080.2 L 1628 37786.2 Q 4232 33859.2 5282 30310.2 L 5660 30415.2 Q 6101 33712.2 8306 35539.2 Q 10511 37366.2 14081 37366.2 Q 16895 37366.2 18554 36064.2 Q 20213 34762.2 20213 32557.2 Q 20213 30016.2 17903 28357.2 Q 16244 27181.2 11099 26173.2 Q 7130 25396.2 5345 23590.2 Q 3560 21784.2 3560 18571.2 Q 3560 15253.2 5943.5 13184.7 Q 8327 11116.2 12149 11116.2 Q 14606 11116.2 17882 11998.2 Q 19415 12418.2 20150 12418.2 Q 21179 12418.2 22397 11704.2 L 22628 11809.2 Z M 23930 12697.5 L 23741 13020.9 Q 22880 14503.5 22271 15860.1 Q 20801 19020.6 20612 19386 L 20507 19537.2 L 20003 19323 L 20087 19127.7 Q 20696 17708.1 21851 15429.6 L 23279 12592.5 L 23384 12424.5 L 23930 12697.5 Z M 17798 16870.2 Q 15488 14413.2 12842 14413.2 Q 11246 14413.2 10196 15337.2 Q 9146 16261.2 9146 17689.2 Q 9146 19243.2 11267 20881.2 L 11435 20986.2 L 11330 21154.2 Q 8558 19915.2 8558 17563.2 Q 8558 15925.2 9734 14896.2 Q 10910 13867.2 12800 13867.2 Q 14606 13867.2 15960.5 14633.7 Q 17315 15400.2 17945 16786.2 L 17798 16870.2 Z M 22628 25207.2 Q 25484 27370.2 25484 31129.2 Q 25484 35140.2 22376 37922.7 Q 19268 40705.2 14816 40705.2 Q 12548 40705.2 10721 40243.2 L 7361 39424.2 Q 6185 39130.2 4841 39130.2 Q 3644 39130.2 2636 39613.2 L 2384 39004.2 Q 3476 38500.2 4610 38500.2 Q 5870 38500.2 7487 38878.2 L 10721 39655.2 Q 12653 40117.2 14795 40117.2 Q 18995 40117.2 21945.5 37439.7 Q 24896 34762.2 24896 30961.2 Q 24896 27748.2 22628 25333.2 L 22628 25207.2 Z M 7676 31255.2 Q 8453 35035.2 11834 36610.2 L 11834 36778.2 Q 7928 35644.2 7109 31360.2 L 7676 31255.2 Z M 5051 24451.2 L 5765 24850.2 Q 6458 26089.2 9818 26908.2 L 13199 27748.2 Q 16643 28609.2 17787.5 29228.7 Q 18932 29848.2 19415 31108.2 L 19268 31192.2 Q 18323 30100.2 17220.5 29596.2 Q 16118 29092.2 12989 28357.2 Q 8453 27307.2 6899 26540.7 Q 5345 25774.2 5051 24451.2  Z M 50132 11578.2 Q 49943 11935.2 49880 12059.1 L 48452 14572.8 Q 47717 15912.6 47087 17924.4 L 47045 18027.3 L 46835 17878.2 L 46772 17601 Q 46163 15165 45039.5 14224.2 Q 43916 13283.4 41606 13283.4 Q 40661 13283.4 39716 13363.2 L 39464 13363.2 L 39464 36232.2 L 41942 38521.2 L 32345 38521.2 L 35285 36064.2 L 35285 15095.7 L 33794 15064.2 Q 31631 15064.2 30717.5 15933.6 Q 29804 16803 29636 18991.2 L 29090 18991.2 Q 29321 16488 30360.5 15503.1 Q 31400 14518.2 33794 14518.2 L 35054 14539.2 L 35285 14539.2 L 35285 13491.3 Q 34214 13363.2 33248 13363.2 Q 30539 13363.2 29342 14486.7 Q 28145 15610.2 28019 18285.6 L 27767 18285.6 Q 26864 15370.8 24974 11788.2 L 24848 11578.2 L 50132 11578.2 Z M 51455 13195.2 Q 50006 15043.2 48410 19327.2 L 48326 19537.2 L 47864 19138.2 L 47927 18949.2 Q 49481 14602.2 50930 12901.2 L 51035 12775.2 L 51455 13195.2 Z M 45848 16177.2 Q 44231 15127.2 42068 15127.2 Q 41585 15127.2 41060 15190.2 L 41144 36345.6 L 44483 40243.2 L 33752 40243.2 L 33269 39739.2 L 43328 39739.2 L 40514 36515.7 L 40514 14581.2 L 41648 14560.2 Q 43685 14560.2 44535.5 14885.7 Q 45386 15211.2 45848 16177.2  Z M 74364.2 11578.2 L 74028.2 11979.3 Q 71886.2 14614.8 70626.2 18029.4 Q 70416.2 17550.6 70311.2 17321.7 Q 69156.2 14820.6 67833.2 14091.9 Q 66510.2 13363.2 63087.2 13363.2 Q 61512.2 13363.2 59307.2 13468.2 L 59307.2 23065.2 L 60651.2 23065.2 L 60651.2 14570.7 Q 62247.2 14425.8 63696.2 14425.8 Q 66363.2 14425.8 67623.2 14988.6 Q 68883.2 15551.4 69870.2 17176.8 Q 69576.2 16968.9 69450.2 16863.9 Q 67749.2 15534.6 66993.2 15284.7 Q 66237.2 15034.8 64011.2 15034.8 Q 63339.2 15034.8 61617.2 15114.6 L 61176.2 15133.5 L 61176.2 23065.2 L 65040.2 23065.2 L 67749.2 19362.9 L 67749.2 28399.2 L 65040.2 24892.2 L 59307.2 24892.2 L 59307.2 36673.2 L 60651.2 36673.2 L 60651.2 25879.2 L 65208.2 25879.2 L 65754.2 26425.2 L 61176.2 26425.2 L 61176.2 36673.2 Q 65460.2 36673.2 67266.2 36064.2 Q 69072.2 35455.2 70101.2 33670.2 L 71214.2 31759.2 Q 71277.2 31633.2 71466.2 31297.2 Q 72012.2 33607.2 72820.7 34993.2 Q 73629.2 36379.2 75498.2 38227.2 L 51957.2 38227.2 L 55149.2 35791.2 L 55149.2 26425.2 Q 53385.2 26635.2 51957.2 27517.2 L 51663.2 27076.2 Q 52944.2 26152.2 55149.2 25879.2 L 55149.2 24892.2 Q 54792.2 24850.2 54645.2 24850.2 Q 52503.2 24850.2 50739.2 26425.2 Q 51705.2 23065.2 55149.2 23065.2 L 55149.2 14154.9 L 51957.2 11578.2 L 74364.2 11578.2 Z M 75372.2 12964.2 L 75225.2 13153.2 Q 72663.2 16597.2 71802.2 18928.2 L 71445.2 18487.2 Q 72852.2 15232.2 75078.2 12523.2 L 75372.2 12964.2 Z M 69198.2 20041.2 L 69198.2 29323.2 L 68673.2 29050.2 L 68673.2 19768.2 L 69198.2 20041.2 Z M 77892.2 38412 L 76800.2 40243.2 L 53868.2 40243.2 L 53532.2 39739.2 L 76527.2 39739.2 L 77241.2 38412 Q 74217.2 35608.5 72978.2 32427 L 73650.2 32679 Q 74805.2 35377.5 77556.2 38073.9 L 77892.2 38412 Z M 79502.6 11578.2 L 88931.6 11578.2 Q 94937.6 11578.2 97478.6 13237.2 Q 100712.6 15316.2 100712.6 19012.2 Q 100712.6 21259.2 99473.6 22918.2 Q 98234.6 24577.2 96008.6 25312.2 Q 93782.6 26047.2 88931.6 26047.2 L 86348.6 26047.2 L 86348.6 36211.2 L 88910.6 38521.2 L 79145.6 38521.2 L 82064.6 36064.2 L 82064.6 27643.2 Q 81812.6 27622.2 81707.6 27622.2 Q 80195.6 27622.2 78809.6 28273.2 L 78620.6 27895.2 Q 80027.6 27097.2 81140.6 27097.2 L 81896.6 27097.2 L 82064.6 27076.2 L 82064.6 26047.2 Q 81581.6 25984.2 81413.6 25984.2 Q 79166.6 25984.2 77822.6 27076.2 L 77612.6 26761.2 Q 78893.6 24409.2 81728.6 24409.2 L 82064.6 24409.2 L 82064.6 13934.4 L 79502.6 11578.2 Z M 86348.6 13466.1 L 86348.6 24262.2 L 86621.6 24262.2 L 87167.6 24283.2 Q 87251.6 24283.2 87440.6 24262.2 L 87440.6 14896.2 L 89750.6 14896.2 Q 92438.6 14896.2 93541.1 15368.7 Q 94643.6 15841.2 95420.6 17332.2 Q 94643.6 16261.2 93478.1 15830.7 Q 92312.6 15400.2 90191.6 15400.2 L 88028.6 15400.2 L 88028.6 24262.2 Q 92186.6 24262.2 94129.1 23010.6 Q 96071.6 21759 96071.6 19081.5 Q 96071.6 16082.7 94339.1 14721.9 Q 92606.6 13363.2 88763.6 13363.2 Q 87776.6 13363.2 86348.6 13466.1  Z M 99641.6 13825.2 Q 100922.6 14455.2 101699.6 16044.9 Q 102476.6 17632.5 102476.6 19650.6 Q 102476.6 24213.9 98948.6 26213.1 Q 96281.6 27727.2 89834.6 27727.2 Q 88763.6 27727.2 88028.6 27685.2 L 88028.6 36389.7 L 91325.6 40243.2 L 80804.6 40243.2 L 80237.6 39739.2 L 90128.6 39739.2 L 87440.6 36620.7 L 87440.6 27116.1 Q 89267.6 27223.2 91325.6 27223.2 Q 96743.6 27223.2 99368.6 25310.1 Q 101993.6 23394.9 101993.6 19440.6 Q 101993.6 17800.5 101489.6 16590.9 Q 100985.6 15381.3 99641.6 13825.2  Z M 123440.8 11809.2 Q 122348.8 13279.2 121697.8 14875.2 Q 120416.8 18025.2 119996.8 18739.2 L 119891.8 18865.2 Q 119807.8 18634.2 119765.8 18508.2 Q 119177.8 16618.2 118799.8 15883.2 Q 118421.8 15148.2 117665.8 14476.2 Q 115754.8 12775.2 113318.8 12775.2 Q 111071.8 12775.2 109580.8 14024.7 Q 108089.8 15274.2 108089.8 17164.2 Q 108089.8 20692.2 113402.8 21973.2 L 116951.8 22834.2 Q 124532.8 24661.2 124532.8 30835.2 Q 124532.8 34279.2 121939.3 36620.7 Q 119345.8 38962.2 115523.8 38962.2 Q 113129.8 38962.2 110168.8 38227.2 L 107711.8 37618.2 Q 106220.8 37261.2 105254.8 37261.2 Q 103973.8 37261.2 102608.8 38080.2 L 102440.8 37786.2 Q 105044.8 33859.2 106094.8 30310.2 L 106472.8 30415.2 Q 106913.8 33712.2 109118.8 35539.2 Q 111323.8 37366.2 114893.8 37366.2 Q 117707.8 37366.2 119366.8 36064.2 Q 121025.8 34762.2 121025.8 32557.2 Q 121025.8 30016.2 118715.8 28357.2 Q 117056.8 27181.2 111911.8 26173.2 Q 107942.8 25396.2 106157.8 23590.2 Q 104372.8 21784.2 104372.8 18571.2 Q 104372.8 15253.2 106756.3 13184.7 Q 109139.8 11116.2 112961.8 11116.2 Q 115418.8 11116.2 118694.8 11998.2 Q 120227.8 12418.2 120962.8 12418.2 Q 121991.8 12418.2 123209.8 11704.2 L 123440.8 11809.2 Z M 124742.8 12697.5 L 124553.8 13020.9 Q 123692.8 14503.5 123083.8 15860.1 Q 121613.8 19020.6 121424.8 19386 L 121319.8 19537.2 L 120815.8 19323 L 120899.8 19127.7 Q 121508.8 17708.1 122663.8 15429.6 L 124091.8 12592.5 L 124196.8 12424.5 L 124742.8 12697.5 Z M 118610.8 16870.2 Q 116300.8 14413.2 113654.8 14413.2 Q 112058.8 14413.2 111008.8 15337.2 Q 109958.8 16261.2 109958.8 17689.2 Q 109958.8 19243.2 112079.8 20881.2 L 112247.8 20986.2 L 112142.8 21154.2 Q 109370.8 19915.2 109370.8 17563.2 Q 109370.8 15925.2 110546.8 14896.2 Q 111722.8 13867.2 113612.8 13867.2 Q 115418.8 13867.2 116773.3 14633.7 Q 118127.8 15400.2 118757.8 16786.2 L 118610.8 16870.2 Z M 123440.8 25207.2 Q 126296.8 27370.2 126296.8 31129.2 Q 126296.8 35140.2 123188.8 37922.7 Q 120080.8 40705.2 115628.8 40705.2 Q 113360.8 40705.2 111533.8 40243.2 L 108173.8 39424.2 Q 106997.8 39130.2 105653.8 39130.2 Q 104456.8 39130.2 103448.8 39613.2 L 103196.8 39004.2 Q 104288.8 38500.2 105422.8 38500.2 Q 106682.8 38500.2 108299.8 38878.2 L 111533.8 39655.2 Q 113465.8 40117.2 115607.8 40117.2 Q 119807.8 40117.2 122758.3 37439.7 Q 125708.8 34762.2 125708.8 30961.2 Q 125708.8 27748.2 123440.8 25333.2 L 123440.8 25207.2 Z M 108488.8 31255.2 Q 109265.8 35035.2 112646.8 36610.2 L 112646.8 36778.2 Q 108740.8 35644.2 107921.8 31360.2 L 108488.8 31255.2 Z M 105863.8 24451.2 L 106577.8 24850.2 Q 107270.8 26089.2 110630.8 26908.2 L 114011.8 27748.2 Q 117455.8 28609.2 118600.3 29228.7 Q 119744.8 29848.2 120227.8 31108.2 L 120080.8 31192.2 Q 119135.8 30100.2 118033.3 29596.2 Q 116930.8 29092.2 113801.8 28357.2 Q 109265.8 27307.2 107711.8 26540.7 Q 106157.8 25774.2 105863.8 24451.2  Z M 142187.8 17920.2 Q 143321.8 17920.2 144119.8 18718.2 Q 144917.8 19516.2 144917.8 20650.2 Q 144917.8 21763.2 144119.8 22561.2 Q 143321.8 23359.2 142187.8 23359.2 Q 141074.8 23359.2 140276.8 22561.2 Q 139478.8 21763.2 139478.8 20650.2 Q 139478.8 19516.2 140276.8 18718.2 Q 141074.8 17920.2 142187.8 17920.2  Z M 145631.8 18781.2 Q 146786.8 19873.2 146786.8 21469.2 Q 146786.8 22897.2 145726.3 23968.2 Q 144665.8 25039.2 143258.8 25039.2 Q 141557.8 25039.2 140507.8 23800.2 L 140654.8 23632.2 Q 141998.8 24430.2 143090.8 24430.2 Q 144413.8 24430.2 145348.3 23527.2 Q 146282.8 22624.2 146282.8 21364.2 Q 146282.8 20167.2 145442.8 18949.2 L 145631.8 18781.2 Z M 142187.8 33397.2 Q 143321.8 33397.2 144119.8 34195.2 Q 144917.8 34993.2 144917.8 36127.2 Q 144917.8 37240.2 144119.8 38038.2 Q 143321.8 38836.2 142187.8 38836.2 Q 141074.8 38836.2 140276.8 38038.2 Q 139478.8 37240.2 139478.8 36127.2 Q 139478.8 34993.2 140276.8 34195.2 Q 141074.8 33397.2 142187.8 33397.2  Z M 145631.8 34279.2 Q 146786.8 35350.2 146786.8 36967.2 Q 146786.8 38395.2 145726.3 39466.2 Q 144665.8 40537.2 143258.8 40537.2 Q 141557.8 40537.2 140507.8 39277.2 L 140654.8 39130.2 Q 141998.8 39928.2 143090.8 39928.2 Q 144413.8 39928.2 145348.3 39014.7 Q 146282.8 38101.2 146282.8 36841.2 Q 146282.8 35644.2 145442.8 34426.2 L 145631.8 34279.2 Z " fill-rule="nonzero" style="fill:#9bbb59;;fill-opacity:1;"/>
</svg>