<svg version="1.1" x="0" y="0" width="100%" height="100%" viewBox="0 0 151654.4 25651.2" xmlns="http://www.w3.org/2000/svg">
  <path d="M 8574.5 6524.9 L 8574.5 17535.4 L 9733.5 18523.4 L 5639 18523.4 L 6845.5 17535.4 L 6845.5 9175.4 Q 6294.5 9460.4 5734 9460.4 Q 4860 9460.4 4385 8747.9 L 4461 8747.9 Q 5040.5 9222.9 5715 9222.9 Q 6351.5 9222.9 6845.5 8890.4 L 6845.5 8301.4 Q 6199.5 8776.4 5335 8776.4 Q 4860 8776.4 4541.75 8557.9 Q 4223.5 8339.4 4223.5 8016.4 Q 4223.5 7541.4 4670 7522.4 Q 5069 7503.4 5069 7883.4 Q 5069 7949.9 5050 8016.4 Q 5040.5 8063.9 5040.5 8082.9 Q 5050 8234.9 5297 8234.9 Q 5924 8234.9 6532 7750.4 Q 7140 7265.9 7444 6524.9 L 8574.5 6524.9 Z M 9049.5 6695.9 L 9306 6819.4 L 9306 17559.15 L 10835.5 19302.4 L 5971.5 19302.4 L 5762.5 19074.4 L 10284.5 19074.4 L 9049.5 17635.15 L 9049.5 6695.9 Z M 15887.6 16205.4 Q 16400.6 16205.4 16761.6 16566.4 Q 17122.6 16927.4 17122.6 17440.4 Q 17122.6 17943.9 16761.6 18304.9 Q 16400.6 18665.9 15887.6 18665.9 Q 15384.1 18665.9 15023.1 18304.9 Q 14662.1 17943.9 14662.1 17440.4 Q 14662.1 16927.4 15023.1 16566.4 Q 15384.1 16205.4 15887.6 16205.4  Z M 17445.6 16604.4 Q 17968.1 17088.9 17968.1 17820.4 Q 17968.1 18466.4 17488.35 18950.9 Q 17008.6 19435.4 16372.1 19435.4 Q 15602.6 19435.4 15127.6 18865.4 L 15194.1 18798.9 Q 15802.1 19159.9 16296.1 19159.9 Q 16894.6 19159.9 17317.35 18746.65 Q 17740.1 18333.4 17740.1 17763.4 Q 17740.1 17221.9 17360.1 16670.9 L 17445.6 16604.4 Z M 19567.3 6334.9 L 23310.3 6334.9 Q 26055.8 6334.9 27376.3 7389.4 Q 29342.8 8947.4 29342.8 12272.4 Q 29342.8 15720.9 27623.3 17259.9 Q 26844.3 17953.4 25880.05 18238.4 Q 24915.8 18523.4 23319.8 18523.4 L 19282.3 18523.4 L 20583.8 17525.9 L 20583.8 7435.95 L 19567.3 6334.9 Z M 22445.8 7142.4 L 22445.8 17791.9 L 22968.3 17791.9 L 22968.3 7767.5 Q 23462.3 7691.5 23870.8 7691.5 Q 24649.8 7691.5 25101.05 7848.25 Q 25552.3 8004.05 26008.3 8421.1 Q 25001.3 7948 23851.8 7948 Q 23604.8 7948 23205.8 7986 L 23205.8 17791.9 Q 24269.8 17791.9 24820.8 17616.15 Q 25371.8 17440.4 25865.8 16937.85 Q 27243.3 15542.3 27243.3 12248.65 Q 27243.3 9031 25751.8 7853.95 Q 24849.3 7142.4 22892.3 7142.4 L 22445.8 7142.4 Z M 19871.3 19302.4 L 19728.8 19074.4 L 23205.8 19074.4 Q 25770.8 19074.4 27100.8 18360 Q 29960.3 16836.2 29960.3 12465.25 Q 29960.3 9541.15 28677.8 8121.85 L 28297.8 7702.9 Q 28278.8 7683.9 28183.8 7569.9 Q 30197.8 8833.4 30197.8 12405.4 Q 30197.8 16157.9 28202.8 17934.4 Q 26673.3 19302.4 23205.8 19302.4 L 19871.3 19302.4 Z M 41305.1 6334.9 L 41153.1 6516.35 Q 40184.1 7708.6 39614.1 9253.3 Q 39519.1 9036.7 39471.6 8933.15 Q 38949.1 7801.7 38350.6 7472.05 Q 37752.1 7142.4 36203.6 7142.4 Q 35491.1 7142.4 34493.6 7189.9 L 34493.6 11531.4 L 35101.6 11531.4 L 35101.6 7688.65 Q 35823.6 7623.1 36479.1 7623.1 Q 37685.6 7623.1 38255.6 7877.7 Q 38825.6 8132.3 39272.1 8867.6 Q 39139.1 8773.55 39082.1 8726.05 Q 38312.6 8124.7 37970.6 8011.65 Q 37628.6 7898.6 36621.6 7898.6 Q 36317.6 7898.6 35538.6 7934.7 L 35339.1 7943.25 L 35339.1 11531.4 L 37087.1 11531.4 L 38312.6 9856.55 L 38312.6 13944.4 L 37087.1 12357.9 L 34493.6 12357.9 L 34493.6 17687.4 L 35101.6 17687.4 L 35101.6 12804.4 L 37163.1 12804.4 L 37410.1 13051.4 L 35339.1 13051.4 L 35339.1 17687.4 Q 37277.1 17687.4 38094.1 17411.9 Q 38911.1 17136.4 39376.6 16328.9 L 39880.1 15464.4 Q 39908.6 15407.4 39994.1 15255.4 Q 40241.1 16300.4 40606.85 16927.4 Q 40972.6 17554.4 41818.1 18390.4 L 31168.6 18390.4 L 32612.6 17288.4 L 32612.6 13051.4 Q 31814.6 13146.4 31168.6 13545.4 L 31035.6 13345.9 Q 31615.1 12927.9 32612.6 12804.4 L 32612.6 12357.9 Q 32451.1 12338.9 32384.6 12338.9 Q 31415.6 12338.9 30617.6 13051.4 Q 31054.6 11531.4 32612.6 11531.4 L 32612.6 7500.55 L 31168.6 6334.9 L 41305.1 6334.9 Z M 41761.1 6961.9 L 41694.6 7047.4 Q 40535.6 8605.4 40146.1 9659.9 L 39984.6 9460.4 Q 40621.1 7987.9 41628.1 6762.4 L 41761.1 6961.9 Z M 38968.1 10163.4 L 38968.1 14362.4 L 38730.6 14238.9 L 38730.6 10039.9 L 38968.1 10163.4 Z M 42901.1 18474 L 42407.1 19302.4 L 32033.1 19302.4 L 31881.1 19074.4 L 42283.6 19074.4 L 42606.6 18474 Q 41238.6 17205.75 40678.1 15766.5 L 40982.1 15880.5 Q 41504.6 17101.25 42749.1 18321.05 L 42901.1 18474 Z M 53682.8 6334.9 Q 53597.3 6496.4 53568.8 6552.45 L 52922.8 7689.6 Q 52590.3 8295.7 52305.3 9205.8 L 52286.3 9252.35 L 52191.3 9184.9 L 52162.8 9059.5 Q 51887.3 7957.5 51379.05 7531.9 Q 50870.8 7106.3 49825.8 7106.3 Q 49398.3 7106.3 48970.8 7142.4 L 48856.8 7142.4 L 48856.8 17487.9 L 49977.8 18523.4 L 45636.3 18523.4 L 46966.3 17411.9 L 46966.3 7926.15 L 46291.8 7911.9 Q 45313.3 7911.9 44900.05 8305.2 Q 44486.8 8698.5 44410.8 9688.4 L 44163.8 9688.4 Q 44268.3 8556 44738.55 8110.45 Q 45208.8 7664.9 46291.8 7664.9 L 46861.8 7674.4 L 46966.3 7674.4 L 46966.3 7200.35 Q 46481.8 7142.4 46044.8 7142.4 Q 44819.3 7142.4 44277.8 7650.65 Q 43736.3 8158.9 43679.3 9369.2 L 43565.3 9369.2 Q 43156.8 8050.6 42301.8 6429.9 L 42244.8 6334.9 L 53682.8 6334.9 Z M 54281.3 7066.4 Q 53625.8 7902.4 52903.8 9840.4 L 52865.8 9935.4 L 52656.8 9754.9 L 52685.3 9669.4 Q 53388.3 7702.9 54043.8 6933.4 L 54091.3 6876.4 L 54281.3 7066.4 Z M 51744.8 8415.4 Q 51013.3 7940.4 50034.8 7940.4 Q 49816.3 7940.4 49578.8 7968.9 L 49616.8 17539.2 L 51127.3 19302.4 L 46272.8 19302.4 L 46054.3 19074.4 L 50604.8 19074.4 L 49331.8 17616.15 L 49331.8 7693.4 L 49844.8 7683.9 Q 50766.3 7683.9 51151.05 7831.15 Q 51535.8 7978.4 51744.8 8415.4  Z M 64601.1 6334.9 L 64449.1 6516.35 Q 63480.1 7708.6 62910.1 9253.3 Q 62815.1 9036.7 62767.6 8933.15 Q 62245.1 7801.7 61646.6 7472.05 Q 61048.1 7142.4 59499.6 7142.4 Q 58787.1 7142.4 57789.6 7189.9 L 57789.6 11531.4 L 58397.6 11531.4 L 58397.6 7688.65 Q 59119.6 7623.1 59775.1 7623.1 Q 60981.6 7623.1 61551.6 7877.7 Q 62121.6 8132.3 62568.1 8867.6 Q 62435.1 8773.55 62378.1 8726.05 Q 61608.6 8124.7 61266.6 8011.65 Q 60924.6 7898.6 59917.6 7898.6 Q 59613.6 7898.6 58834.6 7934.7 L 58635.1 7943.25 L 58635.1 11531.4 L 60383.1 11531.4 L 61608.6 9856.55 L 61608.6 13944.4 L 60383.1 12357.9 L 57789.6 12357.9 L 57789.6 17687.4 L 58397.6 17687.4 L 58397.6 12804.4 L 60459.1 12804.4 L 60706.1 13051.4 L 58635.1 13051.4 L 58635.1 17687.4 Q 60573.1 17687.4 61390.1 17411.9 Q 62207.1 17136.4 62672.6 16328.9 L 63176.1 15464.4 Q 63204.6 15407.4 63290.1 15255.4 Q 63537.1 16300.4 63902.85 16927.4 Q 64268.6 17554.4 65114.1 18390.4 L 54464.6 18390.4 L 55908.6 17288.4 L 55908.6 13051.4 Q 55110.6 13146.4 54464.6 13545.4 L 54331.6 13345.9 Q 54911.1 12927.9 55908.6 12804.4 L 55908.6 12357.9 Q 55747.1 12338.9 55680.6 12338.9 Q 54711.6 12338.9 53913.6 13051.4 Q 54350.6 11531.4 55908.6 11531.4 L 55908.6 7500.55 L 54464.6 6334.9 L 64601.1 6334.9 Z M 65057.1 6961.9 L 64990.6 7047.4 Q 63831.6 8605.4 63442.1 9659.9 L 63280.6 9460.4 Q 63917.1 7987.9 64924.1 6762.4 L 65057.1 6961.9 Z M 62264.1 10163.4 L 62264.1 14362.4 L 62026.6 14238.9 L 62026.6 10039.9 L 62264.1 10163.4 Z M 66197.1 18474 L 65703.1 19302.4 L 55329.1 19302.4 L 55177.1 19074.4 L 65579.6 19074.4 L 65902.6 18474 Q 64534.6 17205.75 63974.1 15766.5 L 64278.1 15880.5 Q 64800.6 17101.25 66045.1 18321.05 L 66197.1 18474 Z M 76370.8 6629.4 L 76266.3 6809.9 Q 75411.3 8301.4 74784.3 9792.9 L 74698.8 10011.4 L 74575.3 9944.9 Q 74356.8 8500.9 73558.8 7655.4 Q 72760.8 6809.9 71630.3 6809.9 Q 70423.8 6809.9 69616.3 7864.4 Q 68599.8 9175.4 68599.8 12310.4 Q 68599.8 15008.4 69535.55 16537.9 Q 70471.3 18067.4 72133.8 18067.4 Q 73463.8 18067.4 74257.05 17179.15 Q 75050.3 16290.9 75202.3 14637.9 Q 75240.3 14238.9 75525.3 14238.9 Q 75895.8 14238.9 75895.8 14856.4 Q 75895.8 15777.9 75477.8 16765.9 Q 74594.3 18855.9 71829.8 18855.9 Q 69359.8 18855.9 67906.3 17122.15 Q 66452.8 15388.4 66452.8 12433.9 Q 66452.8 9707.4 67963.3 7864.4 Q 69473.8 6021.4 71715.8 6021.4 Q 72779.8 6021.4 74138.3 6543.9 Q 74850.8 6819.4 75316.3 6819.4 Q 75819.8 6819.4 76218.8 6543.9 L 76370.8 6629.4 Z M 73615.8 8272.9 Q 72751.3 7579.4 71981.8 7579.4 Q 69521.3 7579.4 69521.3 12272.4 Q 69521.3 14409.9 70091.3 15830.15 Q 70661.3 17250.4 71696.8 17668.4 L 71696.8 17763.4 Q 70575.8 17535.4 69906.05 16039.15 Q 69236.3 14542.9 69236.3 12253.4 Q 69236.3 7341.9 71934.3 7341.9 Q 72846.3 7341.9 73615.8 8149.4 L 73615.8 8272.9 Z M 76712.8 14799.4 Q 76560.8 17155.4 75397.05 18385.65 Q 74233.3 19615.9 72143.3 19615.9 Q 70556.8 19615.9 69188.8 18637.4 L 69188.8 18561.4 Q 70404.8 19359.4 72124.3 19359.4 Q 74005.3 19359.4 75192.8 18152.9 Q 75772.3 17563.9 76047.8 16832.4 Q 76323.3 16100.9 76418.3 14894.4 L 76437.3 14675.9 L 76712.8 14799.4 Z M 77064.3 7086.35 L 76959.8 7268.75 Q 75924.3 9050 75306.8 10514.9 L 75050.3 10390.45 L 75154.8 10151.05 Q 75629.8 9145 75990.8 8484.75 L 76750.8 7124.35 L 76845.8 6953.35 L 77064.3 7086.35 Z M 88294 6334.9 Q 88208.5 6496.4 88180 6552.45 L 87534 7689.6 Q 87201.5 8295.7 86916.5 9205.8 L 86897.5 9252.35 L 86802.5 9184.9 L 86774 9059.5 Q 86498.5 7957.5 85990.25 7531.9 Q 85482 7106.3 84437 7106.3 Q 84009.5 7106.3 83582 7142.4 L 83468 7142.4 L 83468 17487.9 L 84589 18523.4 L 80247.5 18523.4 L 81577.5 17411.9 L 81577.5 7926.15 L 80903 7911.9 Q 79924.5 7911.9 79511.25 8305.2 Q 79098 8698.5 79022 9688.4 L 78775 9688.4 Q 78879.5 8556 79349.75 8110.45 Q 79820 7664.9 80903 7664.9 L 81473 7674.4 L 81577.5 7674.4 L 81577.5 7200.35 Q 81093 7142.4 80656 7142.4 Q 79430.5 7142.4 78889 7650.65 Q 78347.5 8158.9 78290.5 9369.2 L 78176.5 9369.2 Q 77768 8050.6 76913 6429.9 L 76856 6334.9 L 88294 6334.9 Z M 88892.5 7066.4 Q 88237 7902.4 87515 9840.4 L 87477 9935.4 L 87268 9754.9 L 87296.5 9669.4 Q 87999.5 7702.9 88655 6933.4 L 88702.5 6876.4 L 88892.5 7066.4 Z M 86356 8415.4 Q 85624.5 7940.4 84646 7940.4 Q 84427.5 7940.4 84190 7968.9 L 84228 17539.2 L 85738.5 19302.4 L 80884 19302.4 L 80665.5 19074.4 L 85216 19074.4 L 83943 17616.15 L 83943 7693.4 L 84456 7683.9 Q 85377.5 7683.9 85762.25 7831.15 Q 86147 7978.4 86356 8415.4  Z M 88914.3 6334.9 L 93417.3 6334.9 L 92144.3 7626.9 L 92144.3 17516.4 L 93341.3 18523.4 L 88914.3 18523.4 L 90234.8 17430.9 L 90234.8 7522.4 L 88914.3 6334.9 Z M 93844.8 6876.4 L 92875.8 7835.9 L 92875.8 17539.2 L 94471.8 19302.4 L 89531.8 19302.4 L 89294.3 19074.4 L 93911.3 19074.4 L 92609.8 17635.15 L 92609.8 7750.4 L 93683.3 6686.4 L 93844.8 6876.4 Z M 102216 8453.4 L 102054.5 8358.4 Q 101142.5 7854.9 100382.5 7854.9 Q 97884 7854.9 97884 12766.4 Q 97884 16357.4 99432.5 17525.9 L 99347 17620.9 Q 98397 16946.4 97993.25 15849.15 Q 97589.5 14751.9 97589.5 12880.4 Q 97589.5 7607.9 100363.5 7607.9 Q 101627 7607.9 102216 8453.4  Z M 100183 6211.4 Q 102491.5 6211.4 103873.75 7959.4 Q 105256 9707.4 105256 12633.4 Q 105256 15397.9 103892.75 17041.4 Q 102529.5 18684.9 100230.5 18684.9 Q 98416 18684.9 97000.5 17525.9 Q 94920 15815.9 94920 12462.4 Q 94920 9593.4 96345 7902.4 Q 97770 6211.4 100183 6211.4  Z M 100183 7028.4 Q 96972 7028.4 96972 12671.4 Q 96972 17886.9 100135.5 17886.9 Q 101608 17886.9 102377.5 16504.65 Q 103147 15122.4 103147 12462.4 Q 103147 9450.9 102406 8263.4 Q 101627 7028.4 100183 7028.4  Z M 103213.5 6695.9 Q 104572 7351.4 105360.5 8937.9 Q 106149 10524.4 106149 12604.9 Q 106149 15663.9 104595.75 17544.9 Q 103042.5 19425.9 100515.5 19425.9 Q 98900.5 19425.9 97494.5 18333.4 L 97494.5 18285.9 Q 98672.5 19150.4 100449 19150.4 Q 102833.5 19150.4 104363 17354.9 Q 105892.5 15559.4 105892.5 12766.4 Q 105892.5 10685.9 105194.25 9127.9 Q 104496 7569.9 103213.5 6800.4 L 103213.5 6695.9 Z M 117827.4 6334.9 Q 116744.4 6895.4 116430.9 7360.9 Q 115955.9 8082.9 115955.9 9536.4 L 115955.9 10153.9 L 115955.9 18523.4 L 114350.4 18523.4 L 109866.4 9821.4 L 109866.4 14979.9 L 109856.9 15407.4 L 109970.9 16775.4 Q 110160.9 17725.4 110835.4 18181.4 L 110911.4 18247.9 Q 109600.4 17810.9 109600.4 15445.4 L 109609.9 14552.4 L 109609.9 9355.9 L 109096.9 8358.4 L 109096.9 13830.4 Q 109096.9 16433.4 109438.9 17240.9 Q 109780.9 18048.4 111044.4 18418.9 L 111870.9 19302.4 L 106721.9 19302.4 L 106569.9 19074.4 L 111329.4 19074.4 L 110835.4 18523.4 L 106408.4 18523.4 Q 107567.4 18105.4 107947.4 17402.4 Q 108327.4 16699.4 108327.4 14989.4 L 108327.4 7389.4 L 107063.9 6334.9 L 111870.9 6334.9 L 110521.9 7237.4 L 115119.9 16205.4 L 115119.9 15065.4 L 111177.4 7389.4 L 112507.4 6486.9 L 112687.9 6667.4 L 111509.9 7465.4 L 115119.9 14552.4 L 115119.9 10115.9 L 115119.9 9612.4 Q 115119.9 7959.4 114849.15 7403.65 Q 114578.4 6847.9 113514.4 6334.9 L 117827.4 6334.9 Z M 118159.9 7037.9 L 117988.9 7322.9 Q 117257.4 7493.9 116996.15 7954.65 Q 116734.9 8415.4 116734.9 9507.9 L 116734.9 19302.4 L 114692.4 19302.4 L 114568.9 19074.4 L 116478.4 19074.4 L 116478.4 9602.9 Q 116478.4 8263.4 116825.15 7736.15 Q 117171.9 7208.9 118159.9 7037.9  Z " fill-rule="nonzero" style="fill:#0766d2;;fill-opacity:1;"/>
</svg>