<svg version="1.1" x="0" y="0" width="100%" height="100%" viewBox="0 0 681420.8 69734.4" xmlns="http://www.w3.org/2000/svg">
  <path d="M 12908.5 8355.7 Q 16736.5 8355.7 19542.25 11262.95 Q 22348 14170.2 22348 18520.2 Q 22348 23000.7 19520.5 25958.7 Q 16693 28916.7 12676.5 28916.7 Q 8616.5 28916.7 5854.25 26031.2 Q 3092 23145.7 3092 18563.7 Q 3092 13880.2 6282 10922.2 Q 9051.5 8355.7 12908.5 8355.7  Z M 12633 9414.2 Q 9994 9414.2 8399 11371.7 Q 6412.5 13807.7 6412.5 18505.7 Q 6412.5 23319.7 8471.5 25915.2 Q 10052 27887.2 12647.5 27887.2 Q 15417 27887.2 17222.25 25726.7 Q 19027.5 23566.2 19027.5 18911.7 Q 19027.5 13865.7 17041 11386.2 Q 15446 9414.2 12633 9414.2  Z M 35600.6 28467.2 L 28002.6 11922.7 L 28002.6 25059.7 Q 28002.6 26872.2 28394.1 27321.7 Q 28930.6 27930.7 30090.6 27930.7 L 30786.6 27930.7 L 30786.6 28467.2 L 23942.6 28467.2 L 23942.6 27930.7 L 24638.6 27930.7 Q 25885.6 27930.7 26407.6 27176.7 Q 26726.6 26712.7 26726.6 25059.7 L 26726.6 12212.7 Q 26726.6 10907.7 26436.6 10327.7 Q 26233.6 9907.2 25689.85 9624.45 Q 25146.1 9341.7 23942.6 9341.7 L 23942.6 8805.2 L 29510.6 8805.2 L 36644.6 24189.7 L 43662.6 8805.2 L 49230.6 8805.2 L 49230.6 9341.7 L 48549.1 9341.7 Q 47287.6 9341.7 46765.6 10095.7 Q 46446.6 10559.7 46446.6 12212.7 L 46446.6 25059.7 Q 46446.6 26872.2 46852.6 27321.7 Q 47389.1 27930.7 48549.1 27930.7 L 49230.6 27930.7 L 49230.6 28467.2 L 40878.6 28467.2 L 40878.6 27930.7 L 41574.6 27930.7 Q 42836.1 27930.7 43343.6 27176.7 Q 43662.6 26712.7 43662.6 25059.7 L 43662.6 11922.7 L 36079.1 28467.2 L 35600.6 28467.2 Z M 70900.6 8805.2 L 70900.6 9341.7 Q 69856.6 9530.2 69320.1 10008.7 Q 68551.6 10719.2 67957.1 12183.7 L 61098.6 28916.7 L 60562.1 28916.7 L 53196.1 11966.2 Q 52630.6 10661.2 52398.6 10371.2 Q 52036.1 9921.7 51506.85 9667.95 Q 50977.6 9414.2 50078.6 9341.7 L 50078.6 8805.2 L 58111.6 8805.2 L 58111.6 9341.7 Q 56748.6 9472.2 56342.6 9805.7 Q 55936.6 10139.2 55936.6 10661.2 Q 55936.6 11386.2 56603.6 12923.2 L 61606.1 24450.7 L 66246.1 13068.2 Q 66927.6 11386.2 66927.6 10733.7 Q 66927.6 10313.2 66507.1 9928.95 Q 66086.6 9544.7 65086.1 9385.2 Q 65013.6 9370.7 64839.6 9341.7 L 64839.6 8805.2 L 70900.6 8805.2 Z M 80731.2 14793.7 L 80731.2 19317.7 L 80252.7 19317.7 Q 79701.7 17186.2 78838.95 16417.7 Q 77976.2 15649.2 76642.2 15649.2 Q 75627.2 15649.2 75003.7 16185.7 Q 74380.2 16722.2 74380.2 17374.7 Q 74380.2 18186.7 74844.2 18766.7 Q 75293.7 19361.2 76671.2 20028.2 L 78788.2 21057.7 Q 81731.7 22493.2 81731.7 24842.2 Q 81731.7 26654.7 80361.45 27763.95 Q 78991.2 28873.2 77294.7 28873.2 Q 76076.7 28873.2 74510.7 28438.2 Q 74032.2 28293.2 73727.7 28293.2 Q 73394.2 28293.2 73205.7 28670.2 L 72727.2 28670.2 L 72727.2 23928.7 L 73205.7 23928.7 Q 73611.7 25958.7 74757.2 26988.2 Q 75902.7 28017.7 77323.7 28017.7 Q 78324.2 28017.7 78954.95 27430.45 Q 79585.7 26843.2 79585.7 26016.7 Q 79585.7 25016.2 78882.45 24334.7 Q 78179.2 23653.2 76076.7 22609.2 Q 73974.2 21565.2 73321.7 20724.2 Q 72669.2 19897.7 72669.2 18636.2 Q 72669.2 16997.7 73792.95 15895.7 Q 74916.7 14793.7 76700.2 14793.7 Q 77483.2 14793.7 78599.7 15127.2 Q 79339.2 15344.7 79585.7 15344.7 Q 79817.7 15344.7 79948.2 15243.2 Q 80078.7 15141.7 80252.7 14793.7 L 80731.2 14793.7 Z M 102372.2 23421.2 Q 101835.7 26045.7 100269.7 27459.45 Q 98703.7 28873.2 96804.2 28873.2 Q 94542.2 28873.2 92860.2 26973.7 Q 91178.2 25074.2 91178.2 21840.7 Q 91178.2 18708.7 93041.45 16751.2 Q 94904.7 14793.7 97514.7 14793.7 Q 99472.2 14793.7 100733.7 15830.45 Q 101995.2 16867.2 101995.2 17983.7 Q 101995.2 18534.7 101639.95 18875.45 Q 101284.7 19216.2 100646.7 19216.2 Q 99791.2 19216.2 99356.2 18665.2 Q 99109.7 18360.7 99029.95 17505.2 Q 98950.2 16649.7 98442.7 16200.2 Q 97935.2 15765.2 97036.2 15765.2 Q 95586.2 15765.2 94701.7 16838.2 Q 93527.2 18259.2 93527.2 20593.7 Q 93527.2 22971.7 94694.45 24791.45 Q 95861.7 26611.2 97848.2 26611.2 Q 99269.2 26611.2 100400.2 25639.7 Q 101197.7 24972.7 101951.7 23218.2 L 102372.2 23421.2 Z M 111775.1 26553.2 Q 109730.6 28133.7 109208.6 28380.2 Q 108425.6 28742.7 107541.1 28742.7 Q 106163.6 28742.7 105271.85 27800.2 Q 104380.1 26857.7 104380.1 25320.7 Q 104380.1 24349.2 104815.1 23638.7 Q 105409.6 22652.7 106881.35 21782.7 Q 108353.1 20912.7 111775.1 19665.7 L 111775.1 19143.7 Q 111775.1 17157.2 111144.35 16417.7 Q 110513.6 15678.2 109310.1 15678.2 Q 108396.6 15678.2 107860.1 16171.2 Q 107309.1 16664.2 107309.1 17302.2 L 107338.1 18143.2 Q 107338.1 18810.2 106997.35 19172.7 Q 106656.6 19535.2 106105.6 19535.2 Q 105569.1 19535.2 105228.35 19158.2 Q 104887.6 18781.2 104887.6 18128.7 Q 104887.6 16881.7 106163.6 15837.7 Q 107439.6 14793.7 109745.1 14793.7 Q 111514.1 14793.7 112645.1 15388.2 Q 113500.6 15837.7 113906.6 16794.7 Q 114167.6 17418.2 114167.6 19346.7 L 114167.6 23856.2 Q 114167.6 25755.7 114240.1 26183.45 Q 114312.6 26611.2 114479.35 26756.2 Q 114646.1 26901.2 114863.6 26901.2 Q 115095.6 26901.2 115269.6 26799.7 Q 115574.1 26611.2 116444.1 25741.2 L 116444.1 26553.2 Q 114820.1 28728.2 113341.1 28728.2 Q 112630.6 28728.2 112210.1 28235.2 Q 111789.6 27742.2 111775.1 26553.2  Z M 111775.1 25610.7 L 111775.1 20550.2 Q 109585.6 21420.2 108947.6 21782.7 Q 107802.1 22420.7 107309.1 23116.7 Q 106816.1 23812.7 106816.1 24639.2 Q 106816.1 25683.2 107439.6 26371.95 Q 108063.1 27060.7 108875.1 27060.7 Q 109977.1 27060.7 111775.1 25610.7  Z M 121294 14793.7 L 121294 17780.7 Q 122961.5 14793.7 124716 14793.7 Q 125513.5 14793.7 126035.5 15279.45 Q 126557.5 15765.2 126557.5 16403.2 Q 126557.5 16968.7 126180.5 17360.2 Q 125803.5 17751.7 125281.5 17751.7 Q 124774 17751.7 124143.25 17251.45 Q 123512.5 16751.2 123208 16751.2 Q 122947 16751.2 122642.5 17041.2 Q 121990 17635.7 121294 18998.7 L 121294 25364.2 Q 121294 26466.2 121569.5 27031.7 Q 121758 27423.2 122236.5 27684.2 Q 122715 27945.2 123614 27945.2 L 123614 28467.2 L 116813.5 28467.2 L 116813.5 27945.2 Q 117828.5 27945.2 118321.5 27626.2 Q 118684 27394.2 118829 26886.7 Q 118901.5 26640.2 118901.5 25480.2 L 118901.5 20332.7 Q 118901.5 18012.7 118807.25 17570.45 Q 118713 17128.2 118459.25 16925.2 Q 118205.5 16722.2 117828.5 16722.2 Q 117379 16722.2 116813.5 16939.7 L 116668.5 16417.7 L 120685 14793.7 L 121294 14793.7 Z M 131175.6 14793.7 L 131175.6 17780.7 Q 132843.1 14793.7 134597.6 14793.7 Q 135395.1 14793.7 135917.1 15279.45 Q 136439.1 15765.2 136439.1 16403.2 Q 136439.1 16968.7 136062.1 17360.2 Q 135685.1 17751.7 135163.1 17751.7 Q 134655.6 17751.7 134024.85 17251.45 Q 133394.1 16751.2 133089.6 16751.2 Q 132828.6 16751.2 132524.1 17041.2 Q 131871.6 17635.7 131175.6 18998.7 L 131175.6 25364.2 Q 131175.6 26466.2 131451.1 27031.7 Q 131639.6 27423.2 132118.1 27684.2 Q 132596.6 27945.2 133495.6 27945.2 L 133495.6 28467.2 L 126695.1 28467.2 L 126695.1 27945.2 Q 127710.1 27945.2 128203.1 27626.2 Q 128565.6 27394.2 128710.6 26886.7 Q 128783.1 26640.2 128783.1 25480.2 L 128783.1 20332.7 Q 128783.1 18012.7 128688.85 17570.45 Q 128594.6 17128.2 128340.85 16925.2 Q 128087.1 16722.2 127710.1 16722.2 Q 127260.6 16722.2 126695.1 16939.7 L 126550.1 16417.7 L 130566.6 14793.7 L 131175.6 14793.7 Z M 136417.2 15185.2 L 142608.7 15185.2 L 142608.7 15721.7 L 142304.2 15721.7 Q 141651.7 15721.7 141325.45 16004.45 Q 140999.2 16287.2 140999.2 16707.7 Q 140999.2 17273.2 141477.7 18273.7 L 144711.2 24972.7 L 147683.7 17635.7 Q 147930.2 17041.2 147930.2 16461.2 Q 147930.2 16200.2 147828.7 16069.7 Q 147712.7 15910.2 147466.2 15815.95 Q 147219.7 15721.7 146596.2 15721.7 L 146596.2 15185.2 L 150917.2 15185.2 L 150917.2 15721.7 Q 150380.7 15779.7 150090.7 15953.7 Q 149800.7 16127.7 149452.7 16606.2 Q 149322.2 16809.2 148959.7 17722.7 L 143551.2 30975.7 Q 142768.2 32904.2 141499.45 33890.2 Q 140230.7 34876.2 139056.2 34876.2 Q 138200.7 34876.2 137649.7 34383.2 Q 137098.7 33890.2 137098.7 33252.2 Q 137098.7 32643.2 137497.45 32273.45 Q 137896.2 31903.7 138592.2 31903.7 Q 139070.7 31903.7 139897.2 32222.7 Q 140477.2 32440.2 140622.2 32440.2 Q 141057.2 32440.2 141571.95 31990.7 Q 142086.7 31541.2 142608.7 30250.7 L 143551.2 27945.2 L 138780.7 17925.7 Q 138563.2 17476.2 138084.7 16809.2 Q 137722.2 16301.7 137490.2 16127.7 Q 137156.7 15895.7 136417.2 15721.7 L 136417.2 15185.2 Z M 168027.2 14793.7 L 168027.2 19317.7 L 167548.7 19317.7 Q 166997.7 17186.2 166134.95 16417.7 Q 165272.2 15649.2 163938.2 15649.2 Q 162923.2 15649.2 162299.7 16185.7 Q 161676.2 16722.2 161676.2 17374.7 Q 161676.2 18186.7 162140.2 18766.7 Q 162589.7 19361.2 163967.2 20028.2 L 166084.2 21057.7 Q 169027.7 22493.2 169027.7 24842.2 Q 169027.7 26654.7 167657.45 27763.95 Q 166287.2 28873.2 164590.7 28873.2 Q 163372.7 28873.2 161806.7 28438.2 Q 161328.2 28293.2 161023.7 28293.2 Q 160690.2 28293.2 160501.7 28670.2 L 160023.2 28670.2 L 160023.2 23928.7 L 160501.7 23928.7 Q 160907.7 25958.7 162053.2 26988.2 Q 163198.7 28017.7 164619.7 28017.7 Q 165620.2 28017.7 166250.95 27430.45 Q 166881.7 26843.2 166881.7 26016.7 Q 166881.7 25016.2 166178.45 24334.7 Q 165475.2 23653.2 163372.7 22609.2 Q 161270.2 21565.2 160617.7 20724.2 Q 159965.2 19897.7 159965.2 18636.2 Q 159965.2 16997.7 161088.95 15895.7 Q 162212.7 14793.7 163996.2 14793.7 Q 164779.2 14793.7 165895.7 15127.2 Q 166635.2 15344.7 166881.7 15344.7 Q 167113.7 15344.7 167244.2 15243.2 Q 167374.7 15141.7 167548.7 14793.7 L 168027.2 14793.7 Z M 174341.7 7848.2 Q 174950.7 7848.2 175378.45 8275.95 Q 175806.2 8703.7 175806.2 9312.7 Q 175806.2 9921.7 175378.45 10356.7 Q 174950.7 10791.7 174341.7 10791.7 Q 173732.7 10791.7 173297.7 10356.7 Q 172862.7 9921.7 172862.7 9312.7 Q 172862.7 8703.7 173290.45 8275.95 Q 173718.2 7848.2 174341.7 7848.2  Z M 175545.2 14793.7 L 175545.2 25465.7 Q 175545.2 26712.7 175726.45 27125.95 Q 175907.7 27539.2 176262.95 27742.2 Q 176618.2 27945.2 177560.7 27945.2 L 177560.7 28467.2 L 171108.2 28467.2 L 171108.2 27945.2 Q 172079.7 27945.2 172413.2 27756.7 Q 172746.7 27568.2 172942.45 27133.2 Q 173138.2 26698.2 173138.2 25465.7 L 173138.2 20347.2 Q 173138.2 18186.7 173007.7 17548.7 Q 172906.2 17084.7 172688.7 16903.45 Q 172471.2 16722.2 172094.2 16722.2 Q 171688.2 16722.2 171108.2 16939.7 L 170905.2 16417.7 L 174907.2 14793.7 L 175545.2 14793.7 Z M 198346.4 28467.2 L 193097.4 28467.2 L 186441.9 19274.2 Q 185702.4 19303.2 185238.4 19303.2 Q 185049.9 19303.2 184832.4 19295.95 Q 184614.9 19288.7 184382.9 19274.2 L 184382.9 24987.2 Q 184382.9 26843.2 184788.9 27292.7 Q 185339.9 27930.7 186441.9 27930.7 L 187210.4 27930.7 L 187210.4 28467.2 L 178785.9 28467.2 L 178785.9 27930.7 L 179525.4 27930.7 Q 180772.4 27930.7 181308.9 27118.7 Q 181613.4 26669.2 181613.4 24987.2 L 181613.4 12285.2 Q 181613.4 10429.2 181207.4 9979.7 Q 180641.9 9341.7 179525.4 9341.7 L 178785.9 9341.7 L 178785.9 8805.2 L 185948.9 8805.2 Q 189080.9 8805.2 190567.15 9261.95 Q 192053.4 9718.7 193090.15 10943.95 Q 194126.9 12169.2 194126.9 13865.7 Q 194126.9 15678.2 192945.15 17012.2 Q 191763.4 18346.2 189283.9 18897.2 L 193343.9 24537.7 Q 194735.9 26480.7 195736.4 27118.7 Q 196736.9 27756.7 198346.4 27930.7 L 198346.4 28467.2 Z M 184382.9 18360.7 Q 184658.4 18360.7 184861.4 18367.95 Q 185064.4 18375.2 185194.9 18375.2 Q 188007.9 18375.2 189436.15 17157.2 Q 190864.4 15939.2 190864.4 14054.2 Q 190864.4 12212.7 189711.65 11059.95 Q 188558.9 9907.2 186659.4 9907.2 Q 185818.4 9907.2 184382.9 10182.7 L 184382.9 18360.7 Z M 197650.1 8805.2 L 202986.1 8805.2 L 215006.6 23551.7 L 215006.6 12212.7 Q 215006.6 10400.2 214600.6 9950.7 Q 214064.1 9341.7 212904.1 9341.7 L 212222.6 9341.7 L 212222.6 8805.2 L 219066.6 8805.2 L 219066.6 9341.7 L 218370.6 9341.7 Q 217123.6 9341.7 216601.6 10095.7 Q 216282.6 10559.7 216282.6 12212.7 L 216282.6 28786.2 L 215760.6 28786.2 L 202797.6 12952.2 L 202797.6 25059.7 Q 202797.6 26872.2 203189.1 27321.7 Q 203740.1 27930.7 204885.6 27930.7 L 205581.6 27930.7 L 205581.6 28467.2 L 198737.6 28467.2 L 198737.6 27930.7 L 199419.1 27930.7 Q 200680.6 27930.7 201202.6 27176.7 Q 201521.6 26712.7 201521.6 25059.7 L 201521.6 11386.2 Q 200666.1 10385.7 200223.85 10066.7 Q 199781.6 9747.7 198926.1 9472.2 Q 198505.6 9341.7 197650.1 9341.7 L 197650.1 8805.2 Z M 233029.7 21884.2 L 225417.2 21884.2 L 224083.2 24987.2 Q 223590.2 26132.7 223590.2 26698.2 Q 223590.2 27147.7 224017.95 27488.45 Q 224445.7 27829.2 225866.7 27930.7 L 225866.7 28467.2 L 219675.2 28467.2 L 219675.2 27930.7 Q 220907.7 27713.2 221270.2 27365.2 Q 222009.7 26669.2 222908.7 24537.7 L 229825.2 8355.7 L 230332.7 8355.7 L 237176.7 24711.7 Q 238003.2 26683.7 238677.45 27270.95 Q 239351.7 27858.2 240555.2 27930.7 L 240555.2 28467.2 L 232797.7 28467.2 L 232797.7 27930.7 Q 233972.2 27872.7 234385.45 27539.2 Q 234798.7 27205.7 234798.7 26727.2 Q 234798.7 26089.2 234218.7 24711.7 L 233029.7 21884.2 Z M 232623.7 20811.2 L 229288.7 12865.2 L 225866.7 20811.2 L 232623.7 20811.2 Z M 253053.8 10820.7 L 253053.8 15185.2 L 256156.8 15185.2 L 256156.8 16200.2 L 253053.8 16200.2 L 253053.8 24813.2 Q 253053.8 26103.7 253423.55 26553.2 Q 253793.3 27002.7 254373.3 27002.7 Q 254851.8 27002.7 255301.3 26705.45 Q 255750.8 26408.2 255997.3 25828.2 L 256562.8 25828.2 Q 256055.3 27249.2 255127.3 27966.95 Q 254199.3 28684.7 253213.3 28684.7 Q 252546.3 28684.7 251908.3 28314.95 Q 251270.3 27945.2 250965.8 27256.45 Q 250661.3 26567.7 250661.3 25132.2 L 250661.3 16200.2 L 248558.8 16200.2 L 248558.8 15721.7 Q 249356.3 15402.7 250190.05 14641.45 Q 251023.8 13880.2 251676.3 12836.2 Q 252009.8 12285.2 252604.3 10820.7 L 253053.8 10820.7 Z M 263936 14793.7 Q 266952 14793.7 268779 17084.7 Q 270330.5 19042.2 270330.5 21579.7 Q 270330.5 23363.2 269475 25190.2 Q 268619.5 27017.2 267118.75 27945.2 Q 265618 28873.2 263776.5 28873.2 Q 260775 28873.2 259006 26480.7 Q 257512.5 24465.2 257512.5 21956.7 Q 257512.5 20129.7 258418.75 18324.45 Q 259325 16519.2 260804 15656.45 Q 262283 14793.7 263936 14793.7  Z M 263486.5 15736.2 Q 262718 15736.2 261942.25 16192.95 Q 261166.5 16649.7 260688 17795.2 Q 260209.5 18940.7 260209.5 20738.7 Q 260209.5 23638.7 261362.25 25741.2 Q 262515 27843.7 264400 27843.7 Q 265806.5 27843.7 266720 26683.7 Q 267633.5 25523.7 267633.5 22696.2 Q 267633.5 19158.2 266111 17128.2 Q 265081.5 15736.2 263486.5 15736.2  Z M 288296 14793.7 L 288296 19317.7 L 287817.5 19317.7 Q 287266.5 17186.2 286403.75 16417.7 Q 285541 15649.2 284207 15649.2 Q 283192 15649.2 282568.5 16185.7 Q 281945 16722.2 281945 17374.7 Q 281945 18186.7 282409 18766.7 Q 282858.5 19361.2 284236 20028.2 L 286353 21057.7 Q 289296.5 22493.2 289296.5 24842.2 Q 289296.5 26654.7 287926.25 27763.95 Q 286556 28873.2 284859.5 28873.2 Q 283641.5 28873.2 282075.5 28438.2 Q 281597 28293.2 281292.5 28293.2 Q 280959 28293.2 280770.5 28670.2 L 280292 28670.2 L 280292 23928.7 L 280770.5 23928.7 Q 281176.5 25958.7 282322 26988.2 Q 283467.5 28017.7 284888.5 28017.7 Q 285889 28017.7 286519.75 27430.45 Q 287150.5 26843.2 287150.5 26016.7 Q 287150.5 25016.2 286447.25 24334.7 Q 285744 23653.2 283641.5 22609.2 Q 281539 21565.2 280886.5 20724.2 Q 280234 19897.7 280234 18636.2 Q 280234 16997.7 281357.75 15895.7 Q 282481.5 14793.7 284265 14793.7 Q 285048 14793.7 286164.5 15127.2 Q 286904 15344.7 287150.5 15344.7 Q 287382.5 15344.7 287513 15243.2 Q 287643.5 15141.7 287817.5 14793.7 L 288296 14793.7 Z M 294610.5 7848.2 Q 295219.5 7848.2 295647.25 8275.95 Q 296075 8703.7 296075 9312.7 Q 296075 9921.7 295647.25 10356.7 Q 295219.5 10791.7 294610.5 10791.7 Q 294001.5 10791.7 293566.5 10356.7 Q 293131.5 9921.7 293131.5 9312.7 Q 293131.5 8703.7 293559.25 8275.95 Q 293987 7848.2 294610.5 7848.2  Z M 295814 14793.7 L 295814 25465.7 Q 295814 26712.7 295995.25 27125.95 Q 296176.5 27539.2 296531.75 27742.2 Q 296887 27945.2 297829.5 27945.2 L 297829.5 28467.2 L 291377 28467.2 L 291377 27945.2 Q 292348.5 27945.2 292682 27756.7 Q 293015.5 27568.2 293211.25 27133.2 Q 293407 26698.2 293407 25465.7 L 293407 20347.2 Q 293407 18186.7 293276.5 17548.7 Q 293175 17084.7 292957.5 16903.45 Q 292740 16722.2 292363 16722.2 Q 291957 16722.2 291377 16939.7 L 291174 16417.7 L 295176 14793.7 L 295814 14793.7 Z M 304042.7 7848.2 L 304042.7 25465.7 Q 304042.7 26712.7 304223.95 27118.7 Q 304405.2 27524.7 304782.2 27734.95 Q 305159.2 27945.2 306188.7 27945.2 L 306188.7 28467.2 L 299678.2 28467.2 L 299678.2 27945.2 Q 300591.7 27945.2 300925.2 27756.7 Q 301258.7 27568.2 301447.2 27133.2 Q 301635.7 26698.2 301635.7 25465.7 L 301635.7 13401.7 Q 301635.7 11154.2 301534.2 10639.45 Q 301432.7 10124.7 301207.95 9936.2 Q 300983.2 9747.7 300635.2 9747.7 Q 300258.2 9747.7 299678.2 9979.7 L 299431.7 9472.2 L 303390.2 7848.2 L 304042.7 7848.2 Z M 309951.4 20187.7 Q 309936.9 23145.7 311386.9 24827.7 Q 312836.9 26509.7 314794.4 26509.7 Q 316099.4 26509.7 317063.65 25791.95 Q 318027.9 25074.2 318680.4 23334.2 L 319129.9 23624.2 Q 318825.4 25610.7 317360.9 27241.95 Q 315896.4 28873.2 313692.4 28873.2 Q 311299.9 28873.2 309596.15 27009.95 Q 307892.4 25146.7 307892.4 22000.2 Q 307892.4 18592.7 309639.65 16685.95 Q 311386.9 14779.2 314025.9 14779.2 Q 316258.9 14779.2 317694.4 16250.95 Q 319129.9 17722.7 319129.9 20187.7 L 309951.4 20187.7 Z M 309951.4 19346.7 L 316099.4 19346.7 Q 316026.9 18070.7 315794.9 17548.7 Q 315432.4 16736.7 314714.65 16272.7 Q 313996.9 15808.7 313213.9 15808.7 Q 312010.4 15808.7 311060.65 16743.95 Q 310110.9 17679.2 309951.4 19346.7  Z M 324748.3 17606.7 Q 327082.8 14793.7 329199.8 14793.7 Q 330287.3 14793.7 331070.3 15337.45 Q 331853.3 15881.2 332317.3 17128.2 Q 332636.3 17998.2 332636.3 19796.2 L 332636.3 25465.7 Q 332636.3 26727.2 332839.3 27176.7 Q 332998.8 27539.2 333354.05 27742.2 Q 333709.3 27945.2 334666.3 27945.2 L 334666.3 28467.2 L 328097.8 28467.2 L 328097.8 27945.2 L 328373.3 27945.2 Q 329301.3 27945.2 329671.05 27662.45 Q 330040.8 27379.7 330185.8 26828.7 Q 330243.8 26611.2 330243.8 25465.7 L 330243.8 20028.2 Q 330243.8 18215.7 329772.55 17396.45 Q 329301.3 16577.2 328184.8 16577.2 Q 326459.3 16577.2 324748.3 18462.2 L 324748.3 25465.7 Q 324748.3 26814.2 324907.8 27133.2 Q 325110.8 27553.7 325466.05 27749.45 Q 325821.3 27945.2 326908.8 27945.2 L 326908.8 28467.2 L 320340.3 28467.2 L 320340.3 27945.2 L 320630.3 27945.2 Q 321645.3 27945.2 322000.55 27430.45 Q 322355.8 26915.7 322355.8 25465.7 L 322355.8 20535.7 Q 322355.8 18143.2 322247.05 17621.2 Q 322138.3 17099.2 321913.55 16910.7 Q 321688.8 16722.2 321311.8 16722.2 Q 320905.8 16722.2 320340.3 16939.7 L 320122.8 16417.7 L 324124.8 14793.7 L 324748.3 14793.7 L 324748.3 17606.7 Z M 347005.8 23421.2 Q 346469.3 26045.7 344903.3 27459.45 Q 343337.3 28873.2 341437.8 28873.2 Q 339175.8 28873.2 337493.8 26973.7 Q 335811.8 25074.2 335811.8 21840.7 Q 335811.8 18708.7 337675.05 16751.2 Q 339538.3 14793.7 342148.3 14793.7 Q 344105.8 14793.7 345367.3 15830.45 Q 346628.8 16867.2 346628.8 17983.7 Q 346628.8 18534.7 346273.55 18875.45 Q 345918.3 19216.2 345280.3 19216.2 Q 344424.8 19216.2 343989.8 18665.2 Q 343743.3 18360.7 343663.55 17505.2 Q 343583.8 16649.7 343076.3 16200.2 Q 342568.8 15765.2 341669.8 15765.2 Q 340219.8 15765.2 339335.3 16838.2 Q 338160.8 18259.2 338160.8 20593.7 Q 338160.8 22971.7 339328.05 24791.45 Q 340495.3 26611.2 342481.8 26611.2 Q 343902.8 26611.2 345033.8 25639.7 Q 345831.3 24972.7 346585.3 23218.2 L 347005.8 23421.2 Z M 351116.2 20187.7 Q 351101.7 23145.7 352551.7 24827.7 Q 354001.7 26509.7 355959.2 26509.7 Q 357264.2 26509.7 358228.45 25791.95 Q 359192.7 25074.2 359845.2 23334.2 L 360294.7 23624.2 Q 359990.2 25610.7 358525.7 27241.95 Q 357061.2 28873.2 354857.2 28873.2 Q 352464.7 28873.2 350760.95 27009.95 Q 349057.2 25146.7 349057.2 22000.2 Q 349057.2 18592.7 350804.45 16685.95 Q 352551.7 14779.2 355190.7 14779.2 Q 357423.7 14779.2 358859.2 16250.95 Q 360294.7 17722.7 360294.7 20187.7 L 351116.2 20187.7 Z M 351116.2 19346.7 L 357264.2 19346.7 Q 357191.7 18070.7 356959.7 17548.7 Q 356597.2 16736.7 355879.45 16272.7 Q 355161.7 15808.7 354378.7 15808.7 Q 353175.2 15808.7 352225.45 16743.95 Q 351275.7 17679.2 351116.2 19346.7  Z M 373322.6 10820.7 L 373322.6 15185.2 L 376425.6 15185.2 L 376425.6 16200.2 L 373322.6 16200.2 L 373322.6 24813.2 Q 373322.6 26103.7 373692.35 26553.2 Q 374062.1 27002.7 374642.1 27002.7 Q 375120.6 27002.7 375570.1 26705.45 Q 376019.6 26408.2 376266.1 25828.2 L 376831.6 25828.2 Q 376324.1 27249.2 375396.1 27966.95 Q 374468.1 28684.7 373482.1 28684.7 Q 372815.1 28684.7 372177.1 28314.95 Q 371539.1 27945.2 371234.6 27256.45 Q 370930.1 26567.7 370930.1 25132.2 L 370930.1 16200.2 L 368827.6 16200.2 L 368827.6 15721.7 Q 369625.1 15402.7 370458.85 14641.45 Q 371292.6 13880.2 371945.1 12836.2 Q 372278.6 12285.2 372873.1 10820.7 L 373322.6 10820.7 Z M 381609.3 7848.2 L 381609.3 17563.2 Q 383218.8 15794.2 384161.3 15293.95 Q 385103.8 14793.7 386046.3 14793.7 Q 387177.3 14793.7 387989.3 15417.2 Q 388801.3 16040.7 389192.8 17374.7 Q 389468.3 18302.7 389468.3 20767.7 L 389468.3 25465.7 Q 389468.3 26727.2 389671.3 27191.2 Q 389816.3 27539.2 390164.3 27742.2 Q 390512.3 27945.2 391440.3 27945.2 L 391440.3 28467.2 L 384915.3 28467.2 L 384915.3 27945.2 L 385219.8 27945.2 Q 386147.8 27945.2 386510.3 27662.45 Q 386872.8 27379.7 387017.8 26828.7 Q 387061.3 26596.7 387061.3 25465.7 L 387061.3 20767.7 Q 387061.3 18592.7 386836.55 17911.2 Q 386611.8 17229.7 386118.8 16888.95 Q 385625.8 16548.2 384929.8 16548.2 Q 384219.3 16548.2 383450.8 16925.2 Q 382682.3 17302.2 381609.3 18447.7 L 381609.3 25465.7 Q 381609.3 26828.7 381761.55 27162.2 Q 381913.8 27495.7 382327.05 27720.45 Q 382740.3 27945.2 383755.3 27945.2 L 383755.3 28467.2 L 377172.3 28467.2 L 377172.3 27945.2 Q 378056.8 27945.2 378564.3 27669.7 Q 378854.3 27524.7 379028.3 27118.7 Q 379202.3 26712.7 379202.3 25465.7 L 379202.3 13445.2 Q 379202.3 11168.7 379093.55 10646.7 Q 378984.8 10124.7 378760.05 9936.2 Q 378535.3 9747.7 378158.3 9747.7 Q 377853.8 9747.7 377172.3 9979.7 L 376969.3 9472.2 L 380942.3 7848.2 L 381609.3 7848.2 Z M 394789.8 20187.7 Q 394775.3 23145.7 396225.3 24827.7 Q 397675.3 26509.7 399632.8 26509.7 Q 400937.8 26509.7 401902.05 25791.95 Q 402866.3 25074.2 403518.8 23334.2 L 403968.3 23624.2 Q 403663.8 25610.7 402199.3 27241.95 Q 400734.8 28873.2 398530.8 28873.2 Q 396138.3 28873.2 394434.55 27009.95 Q 392730.8 25146.7 392730.8 22000.2 Q 392730.8 18592.7 394478.05 16685.95 Q 396225.3 14779.2 398864.3 14779.2 Q 401097.3 14779.2 402532.8 16250.95 Q 403968.3 17722.7 403968.3 20187.7 L 394789.8 20187.7 Z M 394789.8 19346.7 L 400937.8 19346.7 Q 400865.3 18070.7 400633.3 17548.7 Q 400270.8 16736.7 399553.05 16272.7 Q 398835.3 15808.7 398052.3 15808.7 Q 396848.8 15808.7 395899.05 16743.95 Q 394949.3 17679.2 394789.8 19346.7  Z M 418286.7 9878.2 L 418286.7 17606.7 L 421868.2 17606.7 Q 423100.7 17606.7 423673.45 17062.95 Q 424246.2 16519.2 424434.7 14909.7 L 424971.2 14909.7 L 424971.2 21565.2 L 424434.7 21565.2 Q 424420.2 20419.7 424137.45 19883.2 Q 423854.7 19346.7 423354.45 19078.45 Q 422854.2 18810.2 421868.2 18810.2 L 418286.7 18810.2 L 418286.7 24987.2 Q 418286.7 26480.7 418475.2 26959.2 Q 418620.2 27321.7 419084.2 27582.7 Q 419722.2 27930.7 420418.2 27930.7 L 421128.7 27930.7 L 421128.7 28467.2 L 412689.7 28467.2 L 412689.7 27930.7 L 413385.7 27930.7 Q 414603.7 27930.7 415154.7 27220.2 Q 415502.7 26756.2 415502.7 24987.2 L 415502.7 12285.2 Q 415502.7 10791.7 415314.2 10313.2 Q 415169.2 9950.7 414719.7 9689.7 Q 414096.2 9341.7 413385.7 9341.7 L 412689.7 9341.7 L 412689.7 8805.2 L 427320.2 8805.2 L 427508.7 13126.2 L 427001.2 13126.2 Q 426624.2 11748.7 426123.95 11103.45 Q 425623.7 10458.2 424891.45 10168.2 Q 424159.2 9878.2 422622.2 9878.2 L 418286.7 9878.2 Z M 432409.6 25654.2 Q 433091.1 25654.2 433555.1 26125.45 Q 434019.1 26596.7 434019.1 27263.7 Q 434019.1 27930.7 433547.85 28401.95 Q 433076.6 28873.2 432409.6 28873.2 Q 431742.6 28873.2 431271.35 28401.95 Q 430800.1 27930.7 430800.1 27263.7 Q 430800.1 26582.2 431271.35 26118.2 Q 431742.6 25654.2 432409.6 25654.2  Z M 450969.6 14793.7 Q 453985.6 14793.7 455812.6 17084.7 Q 457364.1 19042.2 457364.1 21579.7 Q 457364.1 23363.2 456508.6 25190.2 Q 455653.1 27017.2 454152.35 27945.2 Q 452651.6 28873.2 450810.1 28873.2 Q 447808.6 28873.2 446039.6 26480.7 Q 444546.1 24465.2 444546.1 21956.7 Q 444546.1 20129.7 445452.35 18324.45 Q 446358.6 16519.2 447837.6 15656.45 Q 449316.6 14793.7 450969.6 14793.7  Z M 450520.1 15736.2 Q 449751.6 15736.2 448975.85 16192.95 Q 448200.1 16649.7 447721.6 17795.2 Q 447243.1 18940.7 447243.1 20738.7 Q 447243.1 23638.7 448395.85 25741.2 Q 449548.6 27843.7 451433.6 27843.7 Q 452840.1 27843.7 453753.6 26683.7 Q 454667.1 25523.7 454667.1 22696.2 Q 454667.1 19158.2 453144.6 17128.2 Q 452115.1 15736.2 450520.1 15736.2  Z M 458785.1 15185.2 L 465034.6 15185.2 L 465034.6 15721.7 Q 464440.1 15721.7 464200.85 15924.7 Q 463961.6 16127.7 463961.6 16461.2 Q 463961.6 16809.2 464469.1 17534.2 Q 464628.6 17766.2 464947.6 18259.2 L 465890.1 19767.2 L 466977.6 18259.2 Q 468021.6 16823.7 468021.6 16446.7 Q 468021.6 16142.2 467775.1 15931.95 Q 467528.6 15721.7 466977.6 15721.7 L 466977.6 15185.2 L 471472.6 15185.2 L 471472.6 15721.7 Q 470762.1 15765.2 470240.1 16113.2 Q 469529.6 16606.2 468297.1 18259.2 L 466484.6 20680.7 L 469790.6 25436.7 Q 471008.6 27191.2 471530.6 27546.45 Q 472052.6 27901.7 472879.1 27945.2 L 472879.1 28467.2 L 466615.1 28467.2 L 466615.1 27945.2 Q 467267.6 27945.2 467630.1 27655.2 Q 467905.6 27452.2 467905.6 27118.7 Q 467905.6 26785.2 466977.6 25436.7 L 465034.6 22594.7 L 462903.1 25436.7 Q 461917.1 26756.2 461917.1 27002.7 Q 461917.1 27350.7 462243.35 27633.45 Q 462569.6 27916.2 463222.1 27945.2 L 463222.1 28467.2 L 458886.6 28467.2 L 458886.6 27945.2 Q 459408.6 27872.7 459800.1 27582.7 Q 460351.1 27162.2 461656.1 25436.7 L 464440.1 21739.2 L 461917.1 18085.2 Q 460844.1 16519.2 460256.85 16120.45 Q 459669.6 15721.7 458785.1 15721.7 L 458785.1 15185.2 Z M 473415.6 15185.2 L 479607.1 15185.2 L 479607.1 15721.7 L 479302.6 15721.7 Q 478650.1 15721.7 478323.85 16004.45 Q 477997.6 16287.2 477997.6 16707.7 Q 477997.6 17273.2 478476.1 18273.7 L 481709.6 24972.7 L 484682.1 17635.7 Q 484928.6 17041.2 484928.6 16461.2 Q 484928.6 16200.2 484827.1 16069.7 Q 484711.1 15910.2 484464.6 15815.95 Q 484218.1 15721.7 483594.6 15721.7 L 483594.6 15185.2 L 487915.6 15185.2 L 487915.6 15721.7 Q 487379.1 15779.7 487089.1 15953.7 Q 486799.1 16127.7 486451.1 16606.2 Q 486320.6 16809.2 485958.1 17722.7 L 480549.6 30975.7 Q 479766.6 32904.2 478497.85 33890.2 Q 477229.1 34876.2 476054.6 34876.2 Q 475199.1 34876.2 474648.1 34383.2 Q 474097.1 33890.2 474097.1 33252.2 Q 474097.1 32643.2 474495.85 32273.45 Q 474894.6 31903.7 475590.6 31903.7 Q 476069.1 31903.7 476895.6 32222.7 Q 477475.6 32440.2 477620.6 32440.2 Q 478055.6 32440.2 478570.35 31990.7 Q 479085.1 31541.2 479607.1 30250.7 L 480549.6 27945.2 L 475779.1 17925.7 Q 475561.6 17476.2 475083.1 16809.2 Q 474720.6 16301.7 474488.6 16127.7 Q 474155.1 15895.7 473415.6 15721.7 L 473415.6 15185.2 Z M 497601.6 14793.7 L 497601.6 19317.7 L 497123.1 19317.7 Q 496572.1 17186.2 495709.35 16417.7 Q 494846.6 15649.2 493512.6 15649.2 Q 492497.6 15649.2 491874.1 16185.7 Q 491250.6 16722.2 491250.6 17374.7 Q 491250.6 18186.7 491714.6 18766.7 Q 492164.1 19361.2 493541.6 20028.2 L 495658.6 21057.7 Q 498602.1 22493.2 498602.1 24842.2 Q 498602.1 26654.7 497231.85 27763.95 Q 495861.6 28873.2 494165.1 28873.2 Q 492947.1 28873.2 491381.1 28438.2 Q 490902.6 28293.2 490598.1 28293.2 Q 490264.6 28293.2 490076.1 28670.2 L 489597.6 28670.2 L 489597.6 23928.7 L 490076.1 23928.7 Q 490482.1 25958.7 491627.6 26988.2 Q 492773.1 28017.7 494194.1 28017.7 Q 495194.6 28017.7 495825.35 27430.45 Q 496456.1 26843.2 496456.1 26016.7 Q 496456.1 25016.2 495752.85 24334.7 Q 495049.6 23653.2 492947.1 22609.2 Q 490844.6 21565.2 490192.1 20724.2 Q 489539.6 19897.7 489539.6 18636.2 Q 489539.6 16997.7 490663.35 15895.7 Q 491787.1 14793.7 493570.6 14793.7 Q 494353.6 14793.7 495470.1 15127.2 Q 496209.6 15344.7 496456.1 15344.7 Q 496688.1 15344.7 496818.6 15243.2 Q 496949.1 15141.7 497123.1 14793.7 L 497601.6 14793.7 Z M 499580.6 16504.7 L 503669.6 14851.7 L 504220.6 14851.7 L 504220.6 17954.7 Q 505250.1 16200.2 506286.85 15496.95 Q 507323.6 14793.7 508469.1 14793.7 Q 510470.1 14793.7 511804.1 16359.7 Q 513442.6 18273.7 513442.6 21347.7 Q 513442.6 24784.2 511470.6 27031.7 Q 509846.6 28873.2 507381.6 28873.2 Q 506308.6 28873.2 505525.6 28568.7 Q 504945.6 28351.2 504220.6 27698.7 L 504220.6 31744.2 Q 504220.6 33107.2 504387.35 33476.95 Q 504554.1 33846.7 504967.35 34064.2 Q 505380.6 34281.7 506468.1 34281.7 L 506468.1 34818.2 L 499508.1 34818.2 L 499508.1 34281.7 L 499870.6 34281.7 Q 500668.1 34296.2 501233.6 33977.2 Q 501509.1 33817.7 501661.35 33462.45 Q 501813.6 33107.2 501813.6 31657.2 L 501813.6 19100.2 Q 501813.6 17809.7 501697.6 17461.7 Q 501581.6 17113.7 501327.85 16939.7 Q 501074.1 16765.7 500639.1 16765.7 Q 500291.1 16765.7 499754.6 16968.7 L 499580.6 16504.7 Z M 504220.6 18810.2 L 504220.6 23769.2 Q 504220.6 25378.7 504351.1 25886.2 Q 504554.1 26727.2 505344.35 27365.2 Q 506134.6 28003.2 507338.1 28003.2 Q 508788.1 28003.2 509687.1 26872.2 Q 510861.6 25393.2 510861.6 22710.7 Q 510861.6 19665.7 509527.6 18027.2 Q 508599.6 16896.2 507323.6 16896.2 Q 506627.6 16896.2 505946.1 17244.2 Q 505424.1 17505.2 504220.6 18810.2  Z M 521881.6 14793.7 Q 524897.6 14793.7 526724.6 17084.7 Q 528276.1 19042.2 528276.1 21579.7 Q 528276.1 23363.2 527420.6 25190.2 Q 526565.1 27017.2 525064.35 27945.2 Q 523563.6 28873.2 521722.1 28873.2 Q 518720.6 28873.2 516951.6 26480.7 Q 515458.1 24465.2 515458.1 21956.7 Q 515458.1 20129.7 516364.35 18324.45 Q 517270.6 16519.2 518749.6 15656.45 Q 520228.6 14793.7 521881.6 14793.7  Z M 521432.1 15736.2 Q 520663.6 15736.2 519887.85 16192.95 Q 519112.1 16649.7 518633.6 17795.2 Q 518155.1 18940.7 518155.1 20738.7 Q 518155.1 23638.7 519307.85 25741.2 Q 520460.6 27843.7 522345.6 27843.7 Q 523752.1 27843.7 524665.6 26683.7 Q 525579.1 25523.7 525579.1 22696.2 Q 525579.1 19158.2 524056.6 17128.2 Q 523027.1 15736.2 521432.1 15736.2  Z M 534119.6 14793.7 L 534119.6 17780.7 Q 535787.1 14793.7 537541.6 14793.7 Q 538339.1 14793.7 538861.1 15279.45 Q 539383.1 15765.2 539383.1 16403.2 Q 539383.1 16968.7 539006.1 17360.2 Q 538629.1 17751.7 538107.1 17751.7 Q 537599.6 17751.7 536968.85 17251.45 Q 536338.1 16751.2 536033.6 16751.2 Q 535772.6 16751.2 535468.1 17041.2 Q 534815.6 17635.7 534119.6 18998.7 L 534119.6 25364.2 Q 534119.6 26466.2 534395.1 27031.7 Q 534583.6 27423.2 535062.1 27684.2 Q 535540.6 27945.2 536439.6 27945.2 L 536439.6 28467.2 L 529639.1 28467.2 L 529639.1 27945.2 Q 530654.1 27945.2 531147.1 27626.2 Q 531509.6 27394.2 531654.6 26886.7 Q 531727.1 26640.2 531727.1 25480.2 L 531727.1 20332.7 Q 531727.1 18012.7 531632.85 17570.45 Q 531538.6 17128.2 531284.85 16925.2 Q 531031.1 16722.2 530654.1 16722.2 Q 530204.6 16722.2 529639.1 16939.7 L 529494.1 16417.7 L 533510.6 14793.7 L 534119.6 14793.7 Z M 551758.7 15185.2 L 551758.7 23232.7 Q 551758.7 25538.2 551867.45 26052.95 Q 551976.2 26567.7 552215.45 26770.7 Q 552454.7 26973.7 552773.7 26973.7 Q 553223.2 26973.7 553788.7 26727.2 L 553991.7 27234.7 L 550018.7 28873.2 L 549366.2 28873.2 L 549366.2 26060.2 Q 547655.2 27916.2 546756.2 28394.7 Q 545857.2 28873.2 544856.7 28873.2 Q 543740.2 28873.2 542920.95 28227.95 Q 542101.7 27582.7 541782.7 26567.7 Q 541463.7 25552.7 541463.7 23696.7 L 541463.7 17766.2 Q 541463.7 16823.7 541260.7 16461.2 Q 541057.7 16098.7 540658.95 15902.95 Q 540260.2 15707.2 539216.2 15721.7 L 539216.2 15185.2 L 543870.7 15185.2 L 543870.7 24073.7 Q 543870.7 25929.7 544515.95 26509.7 Q 545161.2 27089.7 546074.7 27089.7 Q 546698.2 27089.7 547488.45 26698.2 Q 548278.7 26306.7 549366.2 25204.7 L 549366.2 17679.2 Q 549366.2 16548.2 548952.95 16149.45 Q 548539.7 15750.7 547234.7 15721.7 L 547234.7 15185.2 L 551758.7 15185.2 Z M 558907.2 17621.2 Q 560357.2 16171.2 560618.2 15953.7 Q 561270.7 15402.7 562024.7 15098.2 Q 562778.7 14793.7 563518.2 14793.7 Q 564765.2 14793.7 565664.2 15518.7 Q 566563.2 16243.7 566867.7 17621.2 Q 568361.2 15881.2 569390.7 15337.45 Q 570420.2 14793.7 571507.7 14793.7 Q 572566.2 14793.7 573385.45 15337.45 Q 574204.7 15881.2 574683.2 17113.7 Q 575002.2 17954.7 575002.2 19752.7 L 575002.2 25465.7 Q 575002.2 26712.7 575190.7 27176.7 Q 575335.7 27495.7 575727.2 27720.45 Q 576118.7 27945.2 577003.2 27945.2 L 577003.2 28467.2 L 570449.2 28467.2 L 570449.2 27945.2 L 570724.7 27945.2 Q 571580.2 27945.2 572058.7 27611.7 Q 572392.2 27379.7 572537.2 26872.2 Q 572595.2 26625.7 572595.2 25465.7 L 572595.2 19752.7 Q 572595.2 18128.7 572203.7 17461.7 Q 571638.2 16533.7 570391.2 16533.7 Q 569622.7 16533.7 568846.95 16917.95 Q 568071.2 17302.2 566969.2 18346.2 L 566940.2 18505.7 L 566969.2 19129.2 L 566969.2 25465.7 Q 566969.2 26828.7 567121.45 27162.2 Q 567273.7 27495.7 567694.2 27720.45 Q 568114.7 27945.2 569129.7 27945.2 L 569129.7 28467.2 L 562416.2 28467.2 L 562416.2 27945.2 Q 563518.2 27945.2 563931.45 27684.2 Q 564344.7 27423.2 564504.2 26901.2 Q 564576.7 26654.7 564576.7 25465.7 L 564576.7 19752.7 Q 564576.7 18128.7 564098.2 17418.2 Q 563460.2 16490.2 562314.7 16490.2 Q 561531.7 16490.2 560763.2 16910.7 Q 559559.7 17548.7 558907.2 18346.2 L 558907.2 25465.7 Q 558907.2 26770.7 559088.45 27162.2 Q 559269.7 27553.7 559624.95 27749.45 Q 559980.2 27945.2 561067.7 27945.2 L 561067.7 28467.2 L 554499.2 28467.2 L 554499.2 27945.2 Q 555412.7 27945.2 555775.2 27749.45 Q 556137.7 27553.7 556326.2 27125.95 Q 556514.7 26698.2 556514.7 25465.7 L 556514.7 20390.7 Q 556514.7 18201.2 556384.2 17563.2 Q 556282.7 17084.7 556065.2 16903.45 Q 555847.7 16722.2 555470.7 16722.2 Q 555064.7 16722.2 554499.2 16939.7 L 554281.7 16417.7 L 558283.7 14793.7 L 558907.2 14793.7 L 558907.2 17621.2 Z M 598165.9 8355.7 L 598165.9 15156.2 L 597629.4 15156.2 Q 597368.4 13198.7 596694.15 12038.7 Q 596019.9 10878.7 594772.9 10197.2 Q 593525.9 9515.7 592191.9 9515.7 Q 590683.9 9515.7 589697.9 10436.45 Q 588711.9 11357.2 588711.9 12531.7 Q 588711.9 13430.7 589335.4 14170.2 Q 590234.4 15257.7 593612.9 17070.2 Q 596367.9 18549.2 597375.65 19339.45 Q 598383.4 20129.7 598927.15 21202.7 Q 599470.9 22275.7 599470.9 23450.2 Q 599470.9 25683.2 597738.15 27299.95 Q 596005.4 28916.7 593279.4 28916.7 Q 592423.9 28916.7 591669.9 28786.2 Q 591220.4 28713.7 589806.65 28256.95 Q 588392.9 27800.2 588015.9 27800.2 Q 587653.4 27800.2 587443.15 28017.7 Q 587232.9 28235.2 587131.4 28916.7 L 586594.9 28916.7 L 586594.9 22174.2 L 587131.4 22174.2 Q 587508.4 24291.2 588146.4 25342.45 Q 588784.4 26393.7 590096.65 27089.7 Q 591408.9 27785.7 592974.9 27785.7 Q 594787.4 27785.7 595838.65 26828.7 Q 596889.9 25871.7 596889.9 24566.7 Q 596889.9 23841.7 596491.15 23102.2 Q 596092.4 22362.7 595251.4 21724.7 Q 594685.9 21289.7 592162.9 19875.95 Q 589639.9 18462.2 588574.15 17621.2 Q 587508.4 16780.2 586957.4 15765.2 Q 586406.4 14750.2 586406.4 13532.2 Q 586406.4 11415.2 588030.4 9885.45 Q 589654.4 8355.7 592162.9 8355.7 Q 593728.9 8355.7 595483.4 9124.2 Q 596295.4 9486.7 596628.9 9486.7 Q 597005.9 9486.7 597245.15 9261.95 Q 597484.4 9037.2 597629.4 8355.7 L 598165.9 8355.7 Z M 605517.3 23624.2 Q 604299.3 23029.7 603646.8 21963.95 Q 602994.3 20898.2 602994.3 19607.7 Q 602994.3 17635.7 604480.55 16214.7 Q 605966.8 14793.7 608286.8 14793.7 Q 610186.3 14793.7 611578.3 15721.7 L 614391.3 15721.7 Q 615014.8 15721.7 615116.3 15757.95 Q 615217.8 15794.2 615261.3 15881.2 Q 615348.3 16011.7 615348.3 16345.2 Q 615348.3 16722.2 615275.8 16867.2 Q 615232.3 16939.7 615123.55 16983.2 Q 615014.8 17026.7 614391.3 17026.7 L 612665.8 17026.7 Q 613477.8 18070.7 613477.8 19694.7 Q 613477.8 21550.7 612056.8 22870.2 Q 610635.8 24189.7 608243.3 24189.7 Q 607257.3 24189.7 606227.8 23899.7 Q 605589.8 24450.7 605365.05 24863.95 Q 605140.3 25277.2 605140.3 25567.2 Q 605140.3 25813.7 605379.55 26045.7 Q 605618.8 26277.7 606314.8 26379.2 Q 606720.8 26437.2 608344.8 26480.7 Q 611331.8 26553.2 612216.3 26683.7 Q 613564.8 26872.2 614369.55 27684.2 Q 615174.3 28496.2 615174.3 29685.2 Q 615174.3 31323.7 613637.3 32759.2 Q 611375.3 34876.2 607735.8 34876.2 Q 604937.3 34876.2 603008.8 33614.7 Q 601921.3 32889.7 601921.3 32106.7 Q 601921.3 31758.7 602080.8 31410.7 Q 602327.3 30874.2 603095.8 29917.2 Q 603197.3 29786.7 604574.8 28351.2 Q 603820.8 27901.7 603509.05 27546.45 Q 603197.3 27191.2 603197.3 26741.7 Q 603197.3 26234.2 603610.55 25552.7 Q 604023.8 24871.2 605517.3 23624.2  Z M 608040.3 15489.7 Q 606967.3 15489.7 606242.3 16345.2 Q 605517.3 17200.7 605517.3 18969.7 Q 605517.3 21260.7 606503.3 22522.2 Q 607257.3 23479.2 608417.3 23479.2 Q 609519.3 23479.2 610229.8 22652.7 Q 610940.3 21826.2 610940.3 20057.2 Q 610940.3 17751.7 609939.8 16446.7 Q 609200.3 15489.7 608040.3 15489.7  Z M 605372.3 28467.2 Q 604690.8 29206.7 604342.8 29844.7 Q 603994.8 30482.7 603994.8 31019.2 Q 603994.8 31715.2 604835.8 32237.2 Q 606285.8 33136.2 609026.3 33136.2 Q 611636.3 33136.2 612876.05 32215.45 Q 614115.8 31294.7 614115.8 30250.7 Q 614115.8 29496.7 613376.3 29177.7 Q 612622.3 28858.7 610389.3 28800.7 Q 607126.8 28713.7 605372.3 28467.2  Z M 619045.8 20187.7 Q 619031.3 23145.7 620481.3 24827.7 Q 621931.3 26509.7 623888.8 26509.7 Q 625193.8 26509.7 626158.05 25791.95 Q 627122.3 25074.2 627774.8 23334.2 L 628224.3 23624.2 Q 627919.8 25610.7 626455.3 27241.95 Q 624990.8 28873.2 622786.8 28873.2 Q 620394.3 28873.2 618690.55 27009.95 Q 616986.8 25146.7 616986.8 22000.2 Q 616986.8 18592.7 618734.05 16685.95 Q 620481.3 14779.2 623120.3 14779.2 Q 625353.3 14779.2 626788.8 16250.95 Q 628224.3 17722.7 628224.3 20187.7 L 619045.8 20187.7 Z M 619045.8 19346.7 L 625193.8 19346.7 Q 625121.3 18070.7 624889.3 17548.7 Q 624526.8 16736.7 623809.05 16272.7 Q 623091.3 15808.7 622308.3 15808.7 Q 621104.8 15808.7 620155.05 16743.95 Q 619205.3 17679.2 619045.8 19346.7  Z M 632523.2 10733.7 L 637308.2 8399.2 L 637786.7 8399.2 L 637786.7 25001.7 Q 637786.7 26654.7 637924.45 27060.7 Q 638062.2 27466.7 638497.2 27684.2 Q 638932.2 27901.7 640266.2 27930.7 L 640266.2 28467.2 L 632871.2 28467.2 L 632871.2 27930.7 Q 634263.2 27901.7 634669.2 27691.45 Q 635075.2 27481.2 635234.7 27125.95 Q 635394.2 26770.7 635394.2 25001.7 L 635394.2 14387.7 Q 635394.2 12241.7 635249.2 11632.7 Q 635147.7 11168.7 634879.45 10951.2 Q 634611.2 10733.7 634234.2 10733.7 Q 633697.7 10733.7 632740.7 11183.2 L 632523.2 10733.7 Z M 6528.5 56443.4 Q 5310.5 55848.9 4658 54783.15 Q 4005.5 53717.4 4005.5 52426.9 Q 4005.5 50454.9 5491.75 49033.9 Q 6978 47612.9 9298 47612.9 Q 11197.5 47612.9 12589.5 48540.9 L 15402.5 48540.9 Q 16026 48540.9 16127.5 48577.15 Q 16229 48613.4 16272.5 48700.4 Q 16359.5 48830.9 16359.5 49164.4 Q 16359.5 49541.4 16287 49686.4 Q 16243.5 49758.9 16134.75 49802.4 Q 16026 49845.9 15402.5 49845.9 L 13677 49845.9 Q 14489 50889.9 14489 52513.9 Q 14489 54369.9 13068 55689.4 Q 11647 57008.9 9254.5 57008.9 Q 8268.5 57008.9 7239 56718.9 Q 6601 57269.9 6376.25 57683.15 Q 6151.5 58096.4 6151.5 58386.4 Q 6151.5 58632.9 6390.75 58864.9 Q 6630 59096.9 7326 59198.4 Q 7732 59256.4 9356 59299.9 Q 12343 59372.4 13227.5 59502.9 Q 14576 59691.4 15380.75 60503.4 Q 16185.5 61315.4 16185.5 62504.4 Q 16185.5 64142.9 14648.5 65578.4 Q 12386.5 67695.4 8747 67695.4 Q 5948.5 67695.4 4020 66433.9 Q 2932.5 65708.9 2932.5 64925.9 Q 2932.5 64577.9 3092 64229.9 Q 3338.5 63693.4 4107 62736.4 Q 4208.5 62605.9 5586 61170.4 Q 4832 60720.9 4520.25 60365.65 Q 4208.5 60010.4 4208.5 59560.9 Q 4208.5 59053.4 4621.75 58371.9 Q 5035 57690.4 6528.5 56443.4  Z M 9051.5 48308.9 Q 7978.5 48308.9 7253.5 49164.4 Q 6528.5 50019.9 6528.5 51788.9 Q 6528.5 54079.9 7514.5 55341.4 Q 8268.5 56298.4 9428.5 56298.4 Q 10530.5 56298.4 11241 55471.9 Q 11951.5 54645.4 11951.5 52876.4 Q 11951.5 50570.9 10951 49265.9 Q 10211.5 48308.9 9051.5 48308.9  Z M 6383.5 61286.4 Q 5702 62025.9 5354 62663.9 Q 5006 63301.9 5006 63838.4 Q 5006 64534.4 5847 65056.4 Q 7297 65955.4 10037.5 65955.4 Q 12647.5 65955.4 13887.25 65034.65 Q 15127 64113.9 15127 63069.9 Q 15127 62315.9 14387.5 61996.9 Q 13633.5 61677.9 11400.5 61619.9 Q 8138 61532.9 6383.5 61286.4  Z M 20057 53006.9 Q 20042.5 55964.9 21492.5 57646.9 Q 22942.5 59328.9 24900 59328.9 Q 26205 59328.9 27169.25 58611.15 Q 28133.5 57893.4 28786 56153.4 L 29235.5 56443.4 Q 28931 58429.9 27466.5 60061.15 Q 26002 61692.4 23798 61692.4 Q 21405.5 61692.4 19701.75 59829.15 Q 17998 57965.9 17998 54819.4 Q 17998 51411.9 19745.25 49505.15 Q 21492.5 47598.4 24131.5 47598.4 Q 26364.5 47598.4 27800 49070.15 Q 29235.5 50541.9 29235.5 53006.9 L 20057 53006.9 Z M 20057 52165.9 L 26205 52165.9 Q 26132.5 50889.9 25900.5 50367.9 Q 25538 49555.9 24820.25 49091.9 Q 24102.5 48627.9 23319.5 48627.9 Q 22116 48627.9 21166.25 49563.15 Q 20216.5 50498.4 20057 52165.9  Z M 34853.9 50425.9 Q 37188.4 47612.9 39305.4 47612.9 Q 40392.9 47612.9 41175.9 48156.65 Q 41958.9 48700.4 42422.9 49947.4 Q 42741.9 50817.4 42741.9 52615.4 L 42741.9 58284.9 Q 42741.9 59546.4 42944.9 59995.9 Q 43104.4 60358.4 43459.65 60561.4 Q 43814.9 60764.4 44771.9 60764.4 L 44771.9 61286.4 L 38203.4 61286.4 L 38203.4 60764.4 L 38478.9 60764.4 Q 39406.9 60764.4 39776.65 60481.65 Q 40146.4 60198.9 40291.4 59647.9 Q 40349.4 59430.4 40349.4 58284.9 L 40349.4 52847.4 Q 40349.4 51034.9 39878.15 50215.65 Q 39406.9 49396.4 38290.4 49396.4 Q 36564.9 49396.4 34853.9 51281.4 L 34853.9 58284.9 Q 34853.9 59633.4 35013.4 59952.4 Q 35216.4 60372.9 35571.65 60568.65 Q 35926.9 60764.4 37014.4 60764.4 L 37014.4 61286.4 L 30445.9 61286.4 L 30445.9 60764.4 L 30735.9 60764.4 Q 31750.9 60764.4 32106.15 60249.65 Q 32461.4 59734.9 32461.4 58284.9 L 32461.4 53354.9 Q 32461.4 50962.4 32352.65 50440.4 Q 32243.9 49918.4 32019.15 49729.9 Q 31794.4 49541.4 31417.4 49541.4 Q 31011.4 49541.4 30445.9 49758.9 L 30228.4 49236.9 L 34230.4 47612.9 L 34853.9 47612.9 L 34853.9 50425.9 Z M 48063.4 53006.9 Q 48048.9 55964.9 49498.9 57646.9 Q 50948.9 59328.9 52906.4 59328.9 Q 54211.4 59328.9 55175.65 58611.15 Q 56139.9 57893.4 56792.4 56153.4 L 57241.9 56443.4 Q 56937.4 58429.9 55472.9 60061.15 Q 54008.4 61692.4 51804.4 61692.4 Q 49411.9 61692.4 47708.15 59829.15 Q 46004.4 57965.9 46004.4 54819.4 Q 46004.4 51411.9 47751.65 49505.15 Q 49498.9 47598.4 52137.9 47598.4 Q 54370.9 47598.4 55806.4 49070.15 Q 57241.9 50541.9 57241.9 53006.9 L 48063.4 53006.9 Z M 48063.4 52165.9 L 54211.4 52165.9 Q 54138.9 50889.9 53906.9 50367.9 Q 53544.4 49555.9 52826.65 49091.9 Q 52108.9 48627.9 51325.9 48627.9 Q 50122.4 48627.9 49172.65 49563.15 Q 48222.9 50498.4 48063.4 52165.9  Z " fill-rule="nonzero" style="fill:#4f6128;;fill-opacity:1;"/>
</svg>