<svg version="1.1" x="0" y="0" width="100%" height="100%" viewBox="0 0 681420.8 43724.8" xmlns="http://www.w3.org/2000/svg">
  <path d="M 18480.5 9673.1 L 18480.5 17880.6 L 17833 17880.6 Q 17518 15518.1 16704.25 14118.1 Q 15890.5 12718.1 14385.5 11895.6 Q 12880.5 11073.1 11270.5 11073.1 Q 9450.5 11073.1 8260.5 12184.35 Q 7070.5 13295.6 7070.5 14713.1 Q 7070.5 15798.1 7823 16690.6 Q 8908 18003.1 12985.5 20190.6 Q 16310.5 21975.6 17526.75 22929.35 Q 18743 23883.1 19399.25 25178.1 Q 20055.5 26473.1 20055.5 27890.6 Q 20055.5 30585.6 17964.25 32536.85 Q 15873 34488.1 12583 34488.1 Q 11550.5 34488.1 10640.5 34330.6 Q 10098 34243.1 8391.75 33691.85 Q 6685.5 33140.6 6230.5 33140.6 Q 5793 33140.6 5539.25 33403.1 Q 5285.5 33665.6 5163 34488.1 L 4515.5 34488.1 L 4515.5 26350.6 L 5163 26350.6 Q 5618 28905.6 6388 30174.35 Q 7158 31443.1 8741.75 32283.1 Q 10325.5 33123.1 12215.5 33123.1 Q 14403 33123.1 15671.75 31968.1 Q 16940.5 30813.1 16940.5 29238.1 Q 16940.5 28363.1 16459.25 27470.6 Q 15978 26578.1 14963 25808.1 Q 14280.5 25283.1 11235.5 23576.85 Q 8190.5 21870.6 6904.25 20855.6 Q 5618 19840.6 4953 18615.6 Q 4288 17390.6 4288 15920.6 Q 4288 13365.6 6248 11519.35 Q 8208 9673.1 11235.5 9673.1 Q 13125.5 9673.1 15243 10600.6 Q 16223 11038.1 16625.5 11038.1 Q 17080.5 11038.1 17369.25 10766.85 Q 17658 10495.6 17833 9673.1 L 18480.5 9673.1 Z M 37137.3 17915.6 L 37137.3 27628.1 Q 37137.3 30410.6 37268.55 31031.85 Q 37399.8 31653.1 37688.55 31898.1 Q 37977.3 32143.1 38362.3 32143.1 Q 38904.8 32143.1 39587.3 31845.6 L 39832.3 32458.1 L 35037.3 34435.6 L 34249.8 34435.6 L 34249.8 31040.6 Q 32184.8 33280.6 31099.8 33858.1 Q 30014.8 34435.6 28807.3 34435.6 Q 27459.8 34435.6 26471.05 33656.85 Q 25482.3 32878.1 25097.3 31653.1 Q 24712.3 30428.1 24712.3 28188.1 L 24712.3 21030.6 Q 24712.3 19893.1 24467.3 19455.6 Q 24222.3 19018.1 23741.05 18781.85 Q 23259.8 18545.6 21999.8 18563.1 L 21999.8 17915.6 L 27617.3 17915.6 L 27617.3 28643.1 Q 27617.3 30883.1 28396.05 31583.1 Q 29174.8 32283.1 30277.3 32283.1 Q 31029.8 32283.1 31983.55 31810.6 Q 32937.3 31338.1 34249.8 30008.1 L 34249.8 20925.6 Q 34249.8 19560.6 33751.05 19079.35 Q 33252.3 18598.1 31677.3 18563.1 L 31677.3 17915.6 L 37137.3 17915.6 Z M 54619.8 27855.6 Q 53972.3 31023.1 52082.3 32729.35 Q 50192.3 34435.6 47899.8 34435.6 Q 45169.8 34435.6 43139.8 32143.1 Q 41109.8 29850.6 41109.8 25948.1 Q 41109.8 22168.1 43358.55 19805.6 Q 45607.3 17443.1 48757.3 17443.1 Q 51119.8 17443.1 52642.3 18694.35 Q 54164.8 19945.6 54164.8 21293.1 Q 54164.8 21958.1 53736.05 22369.35 Q 53307.3 22780.6 52537.3 22780.6 Q 51504.8 22780.6 50979.8 22115.6 Q 50682.3 21748.1 50586.05 20715.6 Q 50489.8 19683.1 49877.3 19140.6 Q 49264.8 18615.6 48179.8 18615.6 Q 46429.8 18615.6 45362.3 19910.6 Q 43944.8 21625.6 43944.8 24443.1 Q 43944.8 27313.1 45353.55 29509.35 Q 46762.3 31705.6 49159.8 31705.6 Q 50874.8 31705.6 52239.8 30533.1 Q 53202.3 29728.1 54112.3 27610.6 L 54619.8 27855.6 Z M 60954.3 9060.6 Q 61689.3 9060.6 62205.55 9576.85 Q 62721.8 10093.1 62721.8 10828.1 Q 62721.8 11563.1 62205.55 12088.1 Q 61689.3 12613.1 60954.3 12613.1 Q 60219.3 12613.1 59694.3 12088.1 Q 59169.3 11563.1 59169.3 10828.1 Q 59169.3 10093.1 59685.55 9576.85 Q 60201.8 9060.6 60954.3 9060.6  Z M 62406.8 17443.1 L 62406.8 30323.1 Q 62406.8 31828.1 62625.55 32326.85 Q 62844.3 32825.6 63273.05 33070.6 Q 63701.8 33315.6 64839.3 33315.6 L 64839.3 33945.6 L 57051.8 33945.6 L 57051.8 33315.6 Q 58224.3 33315.6 58626.8 33088.1 Q 59029.3 32860.6 59265.55 32335.6 Q 59501.8 31810.6 59501.8 30323.1 L 59501.8 24145.6 Q 59501.8 21538.1 59344.3 20768.1 Q 59221.8 20208.1 58959.3 19989.35 Q 58696.8 19770.6 58241.8 19770.6 Q 57751.8 19770.6 57051.8 20033.1 L 56806.8 19403.1 L 61636.8 17443.1 L 62406.8 17443.1 Z M 78132.1 32143.1 Q 76959.6 33368.1 75839.6 33901.85 Q 74719.6 34435.6 73424.6 34435.6 Q 70799.6 34435.6 68839.6 32239.35 Q 66879.6 30043.1 66879.6 26595.6 Q 66879.6 23148.1 69049.6 20286.85 Q 71219.6 17425.6 74632.1 17425.6 Q 76749.6 17425.6 78132.1 18773.1 L 78132.1 15815.6 Q 78132.1 13068.1 78000.85 12438.1 Q 77869.6 11808.1 77589.6 11580.6 Q 77309.6 11353.1 76889.6 11353.1 Q 76434.6 11353.1 75682.1 11633.1 L 75454.6 11020.6 L 80232.1 9060.6 L 81019.6 9060.6 L 81019.6 27593.1 Q 81019.6 30410.6 81150.85 31031.85 Q 81282.1 31653.1 81570.85 31898.1 Q 81859.6 32143.1 82244.6 32143.1 Q 82717.1 32143.1 83504.6 31845.6 L 83697.1 32458.1 L 78937.1 34435.6 L 78132.1 34435.6 L 78132.1 32143.1 Z M 78132.1 30918.1 L 78132.1 22658.1 Q 78027.1 21468.1 77502.1 20488.1 Q 76977.1 19508.1 76110.85 19009.35 Q 75244.6 18510.6 74422.1 18510.6 Q 72882.1 18510.6 71674.6 19893.1 Q 70082.1 21713.1 70082.1 25213.1 Q 70082.1 28748.1 71622.1 30629.35 Q 73162.1 32510.6 75052.1 32510.6 Q 76644.6 32510.6 78132.1 30918.1  Z M 87424.6 23953.1 Q 87407.1 27523.1 89157.1 29553.1 Q 90907.1 31583.1 93269.6 31583.1 Q 94844.6 31583.1 96008.35 30716.85 Q 97172.1 29850.6 97959.6 27750.6 L 98502.1 28100.6 Q 98134.6 30498.1 96367.1 32466.85 Q 94599.6 34435.6 91939.6 34435.6 Q 89052.1 34435.6 86995.85 32186.85 Q 84939.6 29938.1 84939.6 26140.6 Q 84939.6 22028.1 87048.35 19726.85 Q 89157.1 17425.6 92342.1 17425.6 Q 95037.1 17425.6 96769.6 19201.85 Q 98502.1 20978.1 98502.1 23953.1 L 87424.6 23953.1 Z M 87424.6 22938.1 L 94844.6 22938.1 Q 94757.1 21398.1 94477.1 20768.1 Q 94039.6 19788.1 93173.35 19228.1 Q 92307.1 18668.1 91362.1 18668.1 Q 89909.6 18668.1 88763.35 19796.85 Q 87617.1 20925.6 87424.6 22938.1  Z M 124874.1 9673.1 L 124874.1 17880.6 L 124226.6 17880.6 Q 123911.6 15518.1 123097.85 14118.1 Q 122284.1 12718.1 120779.1 11895.6 Q 119274.1 11073.1 117664.1 11073.1 Q 115844.1 11073.1 114654.1 12184.35 Q 113464.1 13295.6 113464.1 14713.1 Q 113464.1 15798.1 114216.6 16690.6 Q 115301.6 18003.1 119379.1 20190.6 Q 122704.1 21975.6 123920.35 22929.35 Q 125136.6 23883.1 125792.85 25178.1 Q 126449.1 26473.1 126449.1 27890.6 Q 126449.1 30585.6 124357.85 32536.85 Q 122266.6 34488.1 118976.6 34488.1 Q 117944.1 34488.1 117034.1 34330.6 Q 116491.6 34243.1 114785.35 33691.85 Q 113079.1 33140.6 112624.1 33140.6 Q 112186.6 33140.6 111932.85 33403.1 Q 111679.1 33665.6 111556.6 34488.1 L 110909.1 34488.1 L 110909.1 26350.6 L 111556.6 26350.6 Q 112011.6 28905.6 112781.6 30174.35 Q 113551.6 31443.1 115135.35 32283.1 Q 116719.1 33123.1 118609.1 33123.1 Q 120796.6 33123.1 122065.35 31968.1 Q 123334.1 30813.1 123334.1 29238.1 Q 123334.1 28363.1 122852.85 27470.6 Q 122371.6 26578.1 121356.6 25808.1 Q 120674.1 25283.1 117629.1 23576.85 Q 114584.1 21870.6 113297.85 20855.6 Q 112011.6 19840.6 111346.6 18615.6 Q 110681.6 17390.6 110681.6 15920.6 Q 110681.6 13365.6 112641.6 11519.35 Q 114601.6 9673.1 117629.1 9673.1 Q 119519.1 9673.1 121636.6 10600.6 Q 122616.6 11038.1 123019.1 11038.1 Q 123474.1 11038.1 123762.85 10766.85 Q 124051.6 10495.6 124226.6 9673.1 L 124874.1 9673.1 Z M 128585.9 17915.6 L 135305.9 17915.6 L 135305.9 18563.1 Q 134378.4 18633.1 134089.65 18895.6 Q 133800.9 19158.1 133800.9 19648.1 Q 133800.9 20190.6 134098.4 20960.6 L 137528.4 30183.1 L 140975.9 22675.6 L 140065.9 20313.1 Q 139645.9 19263.1 138963.4 18860.6 Q 138578.4 18615.6 137528.4 18563.1 L 137528.4 17915.6 L 145158.4 17915.6 L 145158.4 18563.1 Q 143898.4 18615.6 143373.4 19018.1 Q 143023.4 19298.1 143023.4 19910.6 Q 143023.4 20260.6 143163.4 20628.1 L 146803.4 29833.1 L 150180.9 20960.6 Q 150530.9 20015.6 150530.9 19455.6 Q 150530.9 19123.1 150189.65 18860.6 Q 149848.4 18598.1 148850.9 18563.1 L 148850.9 17915.6 L 153908.4 17915.6 L 153908.4 18563.1 Q 152385.9 18790.6 151668.4 20628.1 L 146313.4 34435.6 L 145595.9 34435.6 L 141588.4 24198.1 L 136915.9 34435.6 L 136268.4 34435.6 L 131123.4 20960.6 Q 130615.9 19683.1 130125.9 19236.85 Q 129635.9 18790.6 128585.9 18563.1 L 128585.9 17915.6 Z M 159411.9 9060.6 Q 160146.9 9060.6 160663.15 9576.85 Q 161179.4 10093.1 161179.4 10828.1 Q 161179.4 11563.1 160663.15 12088.1 Q 160146.9 12613.1 159411.9 12613.1 Q 158676.9 12613.1 158151.9 12088.1 Q 157626.9 11563.1 157626.9 10828.1 Q 157626.9 10093.1 158143.15 9576.85 Q 158659.4 9060.6 159411.9 9060.6  Z M 160864.4 17443.1 L 160864.4 30323.1 Q 160864.4 31828.1 161083.15 32326.85 Q 161301.9 32825.6 161730.65 33070.6 Q 162159.4 33315.6 163296.9 33315.6 L 163296.9 33945.6 L 155509.4 33945.6 L 155509.4 33315.6 Q 156681.9 33315.6 157084.4 33088.1 Q 157486.9 32860.6 157723.15 32335.6 Q 157959.4 31810.6 157959.4 30323.1 L 157959.4 24145.6 Q 157959.4 21538.1 157801.9 20768.1 Q 157679.4 20208.1 157416.9 19989.35 Q 157154.4 19770.6 156699.4 19770.6 Q 156209.4 19770.6 155509.4 20033.1 L 155264.4 19403.1 L 160094.4 17443.1 L 160864.4 17443.1 Z M 169922.2 12648.1 L 169922.2 17915.6 L 173667.2 17915.6 L 173667.2 19140.6 L 169922.2 19140.6 L 169922.2 29535.6 Q 169922.2 31093.1 170368.45 31635.6 Q 170814.7 32178.1 171514.7 32178.1 Q 172092.2 32178.1 172634.7 31819.35 Q 173177.2 31460.6 173474.7 30760.6 L 174157.2 30760.6 Q 173544.7 32475.6 172424.7 33341.85 Q 171304.7 34208.1 170114.7 34208.1 Q 169309.7 34208.1 168539.7 33761.85 Q 167769.7 33315.6 167402.2 32484.35 Q 167034.7 31653.1 167034.7 29920.6 L 167034.7 19140.6 L 164497.2 19140.6 L 164497.2 18563.1 Q 165459.7 18178.1 166465.95 17259.35 Q 167472.2 16340.6 168259.7 15080.6 Q 168662.2 14415.6 169379.7 12648.1 L 169922.2 12648.1 Z M 188815 27855.6 Q 188167.5 31023.1 186277.5 32729.35 Q 184387.5 34435.6 182095 34435.6 Q 179365 34435.6 177335 32143.1 Q 175305 29850.6 175305 25948.1 Q 175305 22168.1 177553.75 19805.6 Q 179802.5 17443.1 182952.5 17443.1 Q 185315 17443.1 186837.5 18694.35 Q 188360 19945.6 188360 21293.1 Q 188360 21958.1 187931.25 22369.35 Q 187502.5 22780.6 186732.5 22780.6 Q 185700 22780.6 185175 22115.6 Q 184877.5 21748.1 184781.25 20715.6 Q 184685 19683.1 184072.5 19140.6 Q 183460 18615.6 182375 18615.6 Q 180625 18615.6 179557.5 19910.6 Q 178140 21625.6 178140 24443.1 Q 178140 27313.1 179548.75 29509.35 Q 180957.5 31705.6 183355 31705.6 Q 185070 31705.6 186435 30533.1 Q 187397.5 29728.1 188307.5 27610.6 L 188815 27855.6 Z M 195779.5 9060.6 L 195779.5 20785.6 Q 197722 18650.6 198859.5 18046.85 Q 199997 17443.1 201134.5 17443.1 Q 202499.5 17443.1 203479.5 18195.6 Q 204459.5 18948.1 204932 20558.1 Q 205264.5 21678.1 205264.5 24653.1 L 205264.5 30323.1 Q 205264.5 31845.6 205509.5 32405.6 Q 205684.5 32825.6 206104.5 33070.6 Q 206524.5 33315.6 207644.5 33315.6 L 207644.5 33945.6 L 199769.5 33945.6 L 199769.5 33315.6 L 200137 33315.6 Q 201257 33315.6 201694.5 32974.35 Q 202132 32633.1 202307 31968.1 Q 202359.5 31688.1 202359.5 30323.1 L 202359.5 24653.1 Q 202359.5 22028.1 202088.25 21205.6 Q 201817 20383.1 201222 19971.85 Q 200627 19560.6 199787 19560.6 Q 198929.5 19560.6 198002 20015.6 Q 197074.5 20470.6 195779.5 21853.1 L 195779.5 30323.1 Q 195779.5 31968.1 195963.25 32370.6 Q 196147 32773.1 196645.75 33044.35 Q 197144.5 33315.6 198369.5 33315.6 L 198369.5 33945.6 L 190424.5 33945.6 L 190424.5 33315.6 Q 191492 33315.6 192104.5 32983.1 Q 192454.5 32808.1 192664.5 32318.1 Q 192874.5 31828.1 192874.5 30323.1 L 192874.5 15815.6 Q 192874.5 13068.1 192743.25 12438.1 Q 192612 11808.1 192340.75 11580.6 Q 192069.5 11353.1 191614.5 11353.1 Q 191247 11353.1 190424.5 11633.1 L 190179.5 11020.6 L 194974.5 9060.6 L 195779.5 9060.6 Z " fill-rule="nonzero" style="fill:#4f6128;;fill-opacity:1;"/>
</svg>