<svg version="1.1" x="0" y="0" width="100%" height="100%" viewBox="0 0 229324.8 275968" xmlns="http://www.w3.org/2000/svg">
  <path d="M 15440 15152 L 15440 28400 L 16088 28400 Q 19184 28400 20576 26456 Q 21968 24512 22352 20720 L 23264 20720 L 23264 37760 L 22352 37760 Q 22064 34976 21140 33200 Q 20216 31424 18992 30812 Q 17768 30200 15440 30200 L 15440 39368 Q 15440 42056 15668 42656 Q 15896 43256 16520 43640 Q 17144 44024 18536 44024 L 20480 44024 Q 25040 44024 27788 41912 Q 30536 39800 31736 35480 L 32624 35480 L 31160 45824 L 3032 45824 L 3032 44936 L 4112 44936 Q 5528 44936 6392 44432 Q 7016 44096 7352 43280 Q 7616 42704 7616 40256 L 7616 18848 Q 7616 16640 7496 16136 Q 7256 15296 6608 14840 Q 5696 14168 4112 14168 L 3032 14168 L 3032 13280 L 30272 13280 L 30272 22904 L 29360 22904 Q 28664 19376 27404 17840 Q 26144 16304 23840 15584 Q 22496 15152 18800 15152 L 15440 15152 Z M 49744 32072 L 53632 39464 Q 55648 43328 56824 44360 Q 57472 44912 58600 44960 L 58600 45824 L 46096 45824 L 46096 44960 Q 47560 44840 47908 44576 Q 48256 44312 48256 43856 Q 48256 43184 47488 41744 L 45544 38096 L 43888 40520 Q 42760 42176 42616 42488 Q 42424 42944 42424 43304 Q 42424 43856 42652 44228 Q 42880 44600 43276 44780 Q 43672 44960 44728 44960 L 44728 45824 L 35944 45824 L 35944 44960 Q 37576 44960 38932 44060 Q 40288 43160 42880 39344 L 44728 36608 L 40864 29456 Q 38968 25952 38032 25160 Q 37096 24368 35944 24272 L 35944 23384 L 48376 23384 L 48376 24272 L 47728 24296 L 46480 24728 Q 46288 24896 46288 25280 Q 46288 25640 46408 26024 Q 46480 26192 47080 27320 L 48832 30584 L 49744 29288 Q 51664 26648 51664 25592 Q 51664 25088 51244 24740 Q 50824 24392 49744 24272 L 49744 23384 L 57688 23384 L 57688 24272 Q 56224 24320 54952 25172 Q 53680 26024 52096 28472 L 49744 32072 Z M 69952 15176 L 69952 23384 L 75280 23384 L 75280 25760 L 69952 25760 L 69952 39608 Q 69952 41552 70132 42116 Q 70312 42680 70768 43028 Q 71224 43376 71608 43376 Q 73168 43376 74560 41000 L 75280 41528 Q 73336 46136 68968 46136 Q 66832 46136 65356 44948 Q 63880 43760 63472 42296 Q 63232 41480 63232 37880 L 63232 25760 L 60304 25760 L 60304 24920 Q 63328 22784 65452 20432 Q 67576 18080 69160 15176 L 69952 15176 Z M 86692.8 23384 L 86692.8 28472 Q 88924.8 24992 90604.8 23852 Q 92284.8 22712 93844.8 22712 Q 95188.8 22712 95992.8 23540 Q 96796.8 24368 96796.8 25880 Q 96796.8 27488 96016.8 28376 Q 95236.8 29264 94132.8 29264 Q 92860.8 29264 91924.8 28448 Q 90988.8 27632 90820.8 27536 Q 90580.8 27392 90268.8 27392 Q 89572.8 27392 88948.8 27920 Q 87964.8 28736 87460.8 30248 Q 86692.8 32576 86692.8 35384 L 86692.8 40544 L 86716.8 41888 Q 86716.8 43256 86884.8 43640 Q 87172.8 44288 87736.8 44588 Q 88300.8 44888 89644.8 44960 L 89644.8 45824 L 77524.8 45824 L 77524.8 44960 Q 78988.8 44840 79504.8 44156 Q 80020.8 43472 80020.8 40544 L 80020.8 28136 Q 80020.8 26216 79828.8 25688 Q 79588.8 25016 79132.8 24704 Q 78676.8 24392 77524.8 24272 L 77524.8 23384 L 86692.8 23384 Z M 111576 42512 Q 107472 46136 104208 46136 Q 102288 46136 101016 44876 Q 99744 43616 99744 41720 Q 99744 39152 101952 37100 Q 104160 35048 111576 31640 L 111576 29384 Q 111576 26840 111300 26180 Q 111024 25520 110256 25028 Q 109488 24536 108528 24536 Q 106968 24536 105960 25232 Q 105336 25664 105336 26240 Q 105336 26744 106008 27488 Q 106920 28520 106920 29480 Q 106920 30656 106044 31484 Q 105168 32312 103752 32312 Q 102240 32312 101220 31400 Q 100200 30488 100200 29264 Q 100200 27536 101568 25964 Q 102936 24392 105384 23552 Q 107832 22712 110472 22712 Q 113664 22712 115524 24068 Q 117384 25424 117936 27008 Q 118272 28016 118272 31640 L 118272 40352 Q 118272 41888 118392 42284 Q 118512 42680 118752 42872 Q 118992 43064 119304 43064 Q 119928 43064 120576 42176 L 121296 42752 Q 120096 44528 118812 45332 Q 117528 46136 115896 46136 Q 113976 46136 112896 45236 Q 111816 44336 111576 42512  Z M 111576 40760 L 111576 33248 Q 108672 34952 107256 36896 Q 106320 38192 106320 39512 Q 106320 40616 107112 41456 Q 107712 42104 108792 42104 Q 109992 42104 111576 40760  Z M 142080 40040 L 142824 40616 Q 141240 43592 138876 45044 Q 136512 46496 133848 46496 Q 129360 46496 126672 43112 Q 123984 39728 123984 34976 Q 123984 30392 126432 26912 Q 129384 22712 134568 22712 Q 138048 22712 140100 24464 Q 142152 26216 142152 28376 Q 142152 29744 141324 30560 Q 140496 31376 139152 31376 Q 137736 31376 136812 30440 Q 135888 29504 135672 27104 Q 135528 25592 134976 24992 Q 134424 24392 133680 24392 Q 132528 24392 131712 25616 Q 130464 27464 130464 31280 Q 130464 34448 131472 37340 Q 132480 40232 134232 41648 Q 135552 42680 137352 42680 Q 138528 42680 139584 42128 Q 140640 41576 142080 40040  Z M 154483.2 15176 L 154483.2 23384 L 159811.2 23384 L 159811.2 25760 L 154483.2 25760 L 154483.2 39608 Q 154483.2 41552 154663.2 42116 Q 154843.2 42680 155299.2 43028 Q 155755.2 43376 156139.2 43376 Q 157699.2 43376 159091.2 41000 L 159811.2 41528 Q 157867.2 46136 153499.2 46136 Q 151363.2 46136 149887.2 44948 Q 148411.2 43760 148003.2 42296 Q 147763.2 41480 147763.2 37880 L 147763.2 25760 L 144835.2 25760 L 144835.2 24920 Q 147859.2 22784 149983.2 20432 Q 152107.2 18080 153691.2 15176 L 154483.2 15176 Z M 167312 12512 Q 168872 12512 169952 13604 Q 171032 14696 171032 16232 Q 171032 17768 169940 18848 Q 168848 19928 167312 19928 Q 165776 19928 164696 18848 Q 163616 17768 163616 16232 Q 163616 14696 164696 13604 Q 165776 12512 167312 12512  Z M 170672 23384 L 170672 41168 Q 170672 43544 171224 44204 Q 171776 44864 173384 44960 L 173384 45824 L 161264 45824 L 161264 44960 Q 162752 44912 163472 44096 Q 163952 43544 163952 41168 L 163952 28064 Q 163952 25688 163400 25028 Q 162848 24368 161264 24272 L 161264 23384 L 170672 23384 Z M 186115.2 22712 Q 189043.2 22712 191563.2 24224 Q 194083.2 25736 195391.2 28520 Q 196699.2 31304 196699.2 34616 Q 196699.2 39392 194275.2 42608 Q 191347.2 46496 186187.2 46496 Q 181123.2 46496 178387.2 42944 Q 175651.2 39392 175651.2 34712 Q 175651.2 29888 178447.2 26300 Q 181243.2 22712 186115.2 22712  Z M 186211.2 24416 Q 184987.2 24416 184111.2 25340 Q 183235.2 26264 182959.2 28988 Q 182683.2 31712 182683.2 36560 Q 182683.2 39128 183019.2 41360 Q 183283.2 43064 184147.2 43952 Q 185011.2 44840 186115.2 44840 Q 187195.2 44840 187915.2 44240 Q 188851.2 43424 189163.2 41960 Q 189643.2 39680 189643.2 32744 Q 189643.2 28664 189187.2 27140 Q 188731.2 25616 187843.2 24920 Q 187219.2 24416 186211.2 24416  Z M 209275.2 23384 L 209275.2 26288 Q 211003.2 24416 212587.2 23564 Q 214171.2 22712 215995.2 22712 Q 218179.2 22712 219619.2 23924 Q 221059.2 25136 221539.2 26936 Q 221923.2 28304 221923.2 32192 L 221923.2 40928 Q 221923.2 43520 222391.2 44156 Q 222859.2 44792 224347.2 44960 L 224347.2 45824 L 212995.2 45824 L 212995.2 44960 Q 214267.2 44792 214819.2 43904 Q 215203.2 43304 215203.2 40928 L 215203.2 30944 Q 215203.2 28184 214987.2 27464 Q 214771.2 26744 214255.2 26348 Q 213739.2 25952 213115.2 25952 Q 211051.2 25952 209275.2 28904 L 209275.2 40928 Q 209275.2 43448 209743.2 44120 Q 210211.2 44792 211483.2 44960 L 211483.2 45824 L 200131.2 45824 L 200131.2 44960 Q 201547.2 44816 202147.2 44048 Q 202555.2 43520 202555.2 40928 L 202555.2 28256 Q 202555.2 25712 202087.2 25088 Q 201619.2 24464 200131.2 24272 L 200131.2 23384 L 209275.2 23384 Z M 14288 77086.4 Q 17216 77086.4 19736 78598.4 Q 22256 80110.4 23564 82894.4 Q 24872 85678.4 24872 88990.4 Q 24872 93766.4 22448 96982.4 Q 19520 100870.4 14360 100870.4 Q 9296 100870.4 6560 97318.4 Q 3824 93766.4 3824 89086.4 Q 3824 84262.4 6620 80674.4 Q 9416 77086.4 14288 77086.4  Z M 14384 78790.4 Q 13160 78790.4 12284 79714.4 Q 11408 80638.4 11132 83362.4 Q 10856 86086.4 10856 90934.4 Q 10856 93502.4 11192 95734.4 Q 11456 97438.4 12320 98326.4 Q 13184 99214.4 14288 99214.4 Q 15368 99214.4 16088 98614.4 Q 17024 97798.4 17336 96334.4 Q 17816 94054.4 17816 87118.4 Q 17816 83038.4 17360 81514.4 Q 16904 79990.4 16016 79294.4 Q 15392 78790.4 14384 78790.4  Z M 38120 80110.4 L 38120 95686.4 Q 38120 97942.4 38600 98518.4 Q 39368 99406.4 41432 99334.4 L 41432 100198.4 L 28208 100198.4 L 28208 99334.4 Q 29720 99310.4 30356 98986.4 Q 30992 98662.4 31232 98086.4 Q 31472 97510.4 31472 95686.4 L 31472 80110.4 L 28208 80110.4 L 28208 77758.4 L 31472 77758.4 L 31472 76102.4 L 31448 74974.4 Q 31448 71518.4 33980 69214.4 Q 36512 66910.4 40832 66910.4 Q 43784 66910.4 45212 68014.4 Q 46640 69118.4 46640 70462.4 Q 46640 71542.4 45752 72334.4 Q 44864 73126.4 43400 73126.4 Q 42152 73126.4 41420 72478.4 Q 40688 71830.4 40688 71038.4 Q 40688 70822.4 40832 70150.4 Q 40928 69742.4 40928 69382.4 Q 40928 68878.4 40640 68638.4 Q 40256 68278.4 39704 68278.4 Q 39008 68278.4 38540 68854.4 Q 38072 69430.4 38072 70702.4 L 38120 74902.4 L 38120 77758.4 L 41432 77758.4 L 41432 80110.4 L 38120 80110.4 Z M 65804.8 69550.4 L 65804.8 77758.4 L 71132.8 77758.4 L 71132.8 80134.4 L 65804.8 80134.4 L 65804.8 93982.4 Q 65804.8 95926.4 65984.8 96490.4 Q 66164.8 97054.4 66620.8 97402.4 Q 67076.8 97750.4 67460.8 97750.4 Q 69020.8 97750.4 70412.8 95374.4 L 71132.8 95902.4 Q 69188.8 100510.4 64820.8 100510.4 Q 62684.8 100510.4 61208.8 99322.4 Q 59732.8 98134.4 59324.8 96670.4 Q 59084.8 95854.4 59084.8 92254.4 L 59084.8 80134.4 L 56156.8 80134.4 L 56156.8 79294.4 Q 59180.8 77158.4 61304.8 74806.4 Q 63428.8 72454.4 65012.8 69550.4 L 65804.8 69550.4 Z M 82401.6 67654.4 L 82401.6 80638.4 Q 84249.6 78694.4 85785.6 77890.4 Q 87321.6 77086.4 88977.6 77086.4 Q 91089.6 77086.4 92589.6 78286.4 Q 94089.6 79486.4 94581.6 81106.4 Q 95073.6 82726.4 95073.6 86566.4 L 95073.6 95326.4 Q 95073.6 97894.4 95553.6 98530.4 Q 96033.6 99166.4 97497.6 99334.4 L 97497.6 100198.4 L 86121.6 100198.4 L 86121.6 99334.4 Q 87321.6 99166.4 87921.6 98374.4 Q 88353.6 97750.4 88353.6 95326.4 L 88353.6 85318.4 Q 88353.6 82534.4 88137.6 81826.4 Q 87921.6 81118.4 87405.6 80722.4 Q 86889.6 80326.4 86241.6 80326.4 Q 85281.6 80326.4 84369.6 80986.4 Q 83457.6 81646.4 82401.6 83302.4 L 82401.6 95326.4 Q 82401.6 97726.4 82761.6 98326.4 Q 83217.6 99142.4 84633.6 99334.4 L 84633.6 100198.4 L 73257.6 100198.4 L 73257.6 99334.4 Q 74673.6 99190.4 75273.6 98422.4 Q 75681.6 97894.4 75681.6 95326.4 L 75681.6 72526.4 Q 75681.6 69982.4 75213.6 69358.4 Q 74745.6 68734.4 73257.6 68542.4 L 73257.6 67654.4 L 82401.6 67654.4 Z M 119531.2 88174.4 L 107219.2 88174.4 Q 107435.2 92638.4 109595.2 95230.4 Q 111251.2 97222.4 113579.2 97222.4 Q 115019.2 97222.4 116195.2 96418.4 Q 117371.2 95614.4 118715.2 93526.4 L 119531.2 94054.4 Q 117707.2 97774.4 115499.2 99322.4 Q 113291.2 100870.4 110387.2 100870.4 Q 105395.2 100870.4 102827.2 97030.4 Q 100763.2 93934.4 100763.2 89350.4 Q 100763.2 83734.4 103799.2 80410.4 Q 106835.2 77086.4 110915.2 77086.4 Q 114323.2 77086.4 116831.2 79882.4 Q 119339.2 82678.4 119531.2 88174.4  Z M 113627.2 86566.4 Q 113627.2 82702.4 113207.2 81262.4 Q 112787.2 79822.4 111899.2 79078.4 Q 111395.2 78646.4 110555.2 78646.4 Q 109307.2 78646.4 108515.2 79870.4 Q 107099.2 82006.4 107099.2 85726.4 L 107099.2 86566.4 L 113627.2 86566.4 Z M 18104 132396.8 L 25664 132396.8 L 25664 135036.8 L 21368 135036.8 Q 22544 136212.8 23000 137172.8 Q 23576 138468.8 23576 139884.8 Q 23576 142284.8 22244 144048.8 Q 20912 145812.8 18620 146808.8 Q 16328 147804.8 14552 147804.8 Q 14408 147804.8 11672 147684.8 Q 10592 147684.8 9860 148392.8 Q 9128 149100.8 9128 150084.8 Q 9128 150948.8 9788 151500.8 Q 10448 152052.8 11936 152052.8 L 16088 152004.8 Q 21128 152004.8 23024 153108.8 Q 25736 154644.8 25736 157836.8 Q 25736 159876.8 24488 161544.8 Q 23240 163212.8 21200 164004.8 Q 18104 165180.8 14072 165180.8 Q 11048 165180.8 8552 164592.8 Q 6056 164004.8 4976 162960.8 Q 3896 161916.8 3896 160764.8 Q 3896 159660.8 4724 158784.8 Q 5552 157908.8 7808 157308.8 Q 4688 155772.8 4688 153036.8 Q 4688 151380.8 5960 149820.8 Q 7232 148260.8 9992 147108.8 Q 6776 145932.8 5336 144012.8 Q 3896 142092.8 3896 139572.8 Q 3896 136284.8 6584 133872.8 Q 9272 131460.8 13496 131460.8 Q 15728 131460.8 18104 132396.8  Z M 13952 132948.8 Q 12560 132948.8 11600 134352.8 Q 10640 135756.8 10640 140172.8 Q 10640 143748.8 11588 145080.8 Q 12536 146412.8 13832 146412.8 Q 15272 146412.8 16232 145092.8 Q 17192 143772.8 17192 139956.8 Q 17192 135660.8 16112 134100.8 Q 15344 132948.8 13952 132948.8  Z M 12536 157884.8 Q 10088 157884.8 9296 158292.8 Q 7928 159036.8 7928 160308.8 Q 7928 161532.8 9344 162528.8 Q 10760 163524.8 14672 163524.8 Q 18008 163524.8 19916 162636.8 Q 21824 161748.8 21824 160140.8 Q 21824 159540.8 21464 159132.8 Q 20816 158412.8 19508 158148.8 Q 18200 157884.8 12536 157884.8  Z M 47288 142548.8 L 34976 142548.8 Q 35192 147012.8 37352 149604.8 Q 39008 151596.8 41336 151596.8 Q 42776 151596.8 43952 150792.8 Q 45128 149988.8 46472 147900.8 L 47288 148428.8 Q 45464 152148.8 43256 153696.8 Q 41048 155244.8 38144 155244.8 Q 33152 155244.8 30584 151404.8 Q 28520 148308.8 28520 143724.8 Q 28520 138108.8 31556 134784.8 Q 34592 131460.8 38672 131460.8 Q 42080 131460.8 44588 134256.8 Q 47096 137052.8 47288 142548.8  Z M 41384 140940.8 Q 41384 137076.8 40964 135636.8 Q 40544 134196.8 39656 133452.8 Q 39152 133020.8 38312 133020.8 Q 37064 133020.8 36272 134244.8 Q 34856 136380.8 34856 140100.8 L 34856 140940.8 L 41384 140940.8 Z M 59259.2 132132.8 L 59259.2 135036.8 Q 60987.2 133164.8 62571.2 132312.8 Q 64155.2 131460.8 65979.2 131460.8 Q 68163.2 131460.8 69603.2 132672.8 Q 71043.2 133884.8 71523.2 135684.8 Q 71907.2 137052.8 71907.2 140940.8 L 71907.2 149676.8 Q 71907.2 152268.8 72375.2 152904.8 Q 72843.2 153540.8 74331.2 153708.8 L 74331.2 154572.8 L 62979.2 154572.8 L 62979.2 153708.8 Q 64251.2 153540.8 64803.2 152652.8 Q 65187.2 152052.8 65187.2 149676.8 L 65187.2 139692.8 Q 65187.2 136932.8 64971.2 136212.8 Q 64755.2 135492.8 64239.2 135096.8 Q 63723.2 134700.8 63099.2 134700.8 Q 61035.2 134700.8 59259.2 137652.8 L 59259.2 149676.8 Q 59259.2 152196.8 59727.2 152868.8 Q 60195.2 153540.8 61467.2 153708.8 L 61467.2 154572.8 L 50115.2 154572.8 L 50115.2 153708.8 Q 51531.2 153564.8 52131.2 152796.8 Q 52539.2 152268.8 52539.2 149676.8 L 52539.2 137004.8 Q 52539.2 134460.8 52071.2 133836.8 Q 51603.2 133212.8 50115.2 133020.8 L 50115.2 132132.8 L 59259.2 132132.8 Z M 87964.8 131460.8 Q 90892.8 131460.8 93412.8 132972.8 Q 95932.8 134484.8 97240.8 137268.8 Q 98548.8 140052.8 98548.8 143364.8 Q 98548.8 148140.8 96124.8 151356.8 Q 93196.8 155244.8 88036.8 155244.8 Q 82972.8 155244.8 80236.8 151692.8 Q 77500.8 148140.8 77500.8 143460.8 Q 77500.8 138636.8 80296.8 135048.8 Q 83092.8 131460.8 87964.8 131460.8  Z M 88060.8 133164.8 Q 86836.8 133164.8 85960.8 134088.8 Q 85084.8 135012.8 84808.8 137736.8 Q 84532.8 140460.8 84532.8 145308.8 Q 84532.8 147876.8 84868.8 150108.8 Q 85132.8 151812.8 85996.8 152700.8 Q 86860.8 153588.8 87964.8 153588.8 Q 89044.8 153588.8 89764.8 152988.8 Q 90700.8 152172.8 91012.8 150708.8 Q 91492.8 148428.8 91492.8 141492.8 Q 91492.8 137412.8 91036.8 135888.8 Q 90580.8 134364.8 89692.8 133668.8 Q 89068.8 133164.8 88060.8 133164.8  Z M 111268.8 132132.8 L 111268.8 135084.8 Q 113116.8 133068.8 114688.8 132264.8 Q 116260.8 131460.8 118132.8 131460.8 Q 120292.8 131460.8 121756.8 132468.8 Q 123220.8 133476.8 124012.8 135540.8 Q 125932.8 133380.8 127696.8 132420.8 Q 129460.8 131460.8 131380.8 131460.8 Q 133708.8 131460.8 135088.8 132528.8 Q 136468.8 133596.8 137008.8 135240.8 Q 137548.8 136884.8 137548.8 140484.8 L 137548.8 149676.8 Q 137548.8 152268.8 138016.8 152892.8 Q 138484.8 153516.8 139972.8 153708.8 L 139972.8 154572.8 L 128380.8 154572.8 L 128380.8 153708.8 Q 129748.8 153588.8 130396.8 152652.8 Q 130828.8 152004.8 130828.8 149676.8 L 130828.8 140028.8 Q 130828.8 137028.8 130588.8 136212.8 Q 130348.8 135396.8 129832.8 135000.8 Q 129316.8 134604.8 128620.8 134604.8 Q 127588.8 134604.8 126532.8 135360.8 Q 125476.8 136116.8 124396.8 137628.8 L 124396.8 149676.8 Q 124396.8 152100.8 124804.8 152724.8 Q 125356.8 153612.8 126916.8 153708.8 L 126916.8 154572.8 L 115300.8 154572.8 L 115300.8 153708.8 Q 116236.8 153660.8 116776.8 153240.8 Q 117316.8 152820.8 117496.8 152232.8 Q 117676.8 151644.8 117676.8 149676.8 L 117676.8 140028.8 Q 117676.8 136980.8 117436.8 136212.8 Q 117196.8 135444.8 116632.8 135012.8 Q 116068.8 134580.8 115420.8 134580.8 Q 114460.8 134580.8 113668.8 135084.8 Q 112540.8 135828.8 111268.8 137628.8 L 111268.8 149676.8 Q 111268.8 152052.8 111736.8 152808.8 Q 112204.8 153564.8 113692.8 153708.8 L 113692.8 154572.8 L 102124.8 154572.8 L 102124.8 153708.8 Q 103540.8 153564.8 104140.8 152796.8 Q 104548.8 152268.8 104548.8 149676.8 L 104548.8 137004.8 Q 104548.8 134460.8 104080.8 133836.8 Q 103612.8 133212.8 102124.8 133020.8 L 102124.8 132132.8 L 111268.8 132132.8 Z M 161873.6 142548.8 L 149561.6 142548.8 Q 149777.6 147012.8 151937.6 149604.8 Q 153593.6 151596.8 155921.6 151596.8 Q 157361.6 151596.8 158537.6 150792.8 Q 159713.6 149988.8 161057.6 147900.8 L 161873.6 148428.8 Q 160049.6 152148.8 157841.6 153696.8 Q 155633.6 155244.8 152729.6 155244.8 Q 147737.6 155244.8 145169.6 151404.8 Q 143105.6 148308.8 143105.6 143724.8 Q 143105.6 138108.8 146141.6 134784.8 Q 149177.6 131460.8 153257.6 131460.8 Q 156665.6 131460.8 159173.6 134256.8 Q 161681.6 137052.8 161873.6 142548.8  Z M 155969.6 140940.8 Q 155969.6 137076.8 155549.6 135636.8 Q 155129.6 134196.8 154241.6 133452.8 Q 153737.6 133020.8 152897.6 133020.8 Q 151649.6 133020.8 150857.6 134244.8 Q 149441.6 136380.8 149441.6 140100.8 L 149441.6 140940.8 L 155969.6 140940.8 Z M 187548.8 131460.8 Q 190476.8 131460.8 192996.8 132972.8 Q 195516.8 134484.8 196824.8 137268.8 Q 198132.8 140052.8 198132.8 143364.8 Q 198132.8 148140.8 195708.8 151356.8 Q 192780.8 155244.8 187620.8 155244.8 Q 182556.8 155244.8 179820.8 151692.8 Q 177084.8 148140.8 177084.8 143460.8 Q 177084.8 138636.8 179880.8 135048.8 Q 182676.8 131460.8 187548.8 131460.8  Z M 187644.8 133164.8 Q 186420.8 133164.8 185544.8 134088.8 Q 184668.8 135012.8 184392.8 137736.8 Q 184116.8 140460.8 184116.8 145308.8 Q 184116.8 147876.8 184452.8 150108.8 Q 184716.8 151812.8 185580.8 152700.8 Q 186444.8 153588.8 187548.8 153588.8 Q 188628.8 153588.8 189348.8 152988.8 Q 190284.8 152172.8 190596.8 150708.8 Q 191076.8 148428.8 191076.8 141492.8 Q 191076.8 137412.8 190620.8 135888.8 Q 190164.8 134364.8 189276.8 133668.8 Q 188652.8 133164.8 187644.8 133164.8  Z M 211380.8 134484.8 L 211380.8 150060.8 Q 211380.8 152316.8 211860.8 152892.8 Q 212628.8 153780.8 214692.8 153708.8 L 214692.8 154572.8 L 201468.8 154572.8 L 201468.8 153708.8 Q 202980.8 153684.8 203616.8 153360.8 Q 204252.8 153036.8 204492.8 152460.8 Q 204732.8 151884.8 204732.8 150060.8 L 204732.8 134484.8 L 201468.8 134484.8 L 201468.8 132132.8 L 204732.8 132132.8 L 204732.8 130476.8 L 204708.8 129348.8 Q 204708.8 125892.8 207240.8 123588.8 Q 209772.8 121284.8 214092.8 121284.8 Q 217044.8 121284.8 218472.8 122388.8 Q 219900.8 123492.8 219900.8 124836.8 Q 219900.8 125916.8 219012.8 126708.8 Q 218124.8 127500.8 216660.8 127500.8 Q 215412.8 127500.8 214680.8 126852.8 Q 213948.8 126204.8 213948.8 125412.8 Q 213948.8 125196.8 214092.8 124524.8 Q 214188.8 124116.8 214188.8 123756.8 Q 214188.8 123252.8 213900.8 123012.8 Q 213516.8 122652.8 212964.8 122652.8 Q 212268.8 122652.8 211800.8 123228.8 Q 211332.8 123804.8 211332.8 125076.8 L 211380.8 129276.8 L 211380.8 132132.8 L 214692.8 132132.8 L 214692.8 134484.8 L 211380.8 134484.8 Z M 22016 203163.2 L 22760 203739.2 Q 21176 206715.2 18812 208167.2 Q 16448 209619.2 13784 209619.2 Q 9296 209619.2 6608 206235.2 Q 3920 202851.2 3920 198099.2 Q 3920 193515.2 6368 190035.2 Q 9320 185835.2 14504 185835.2 Q 17984 185835.2 20036 187587.2 Q 22088 189339.2 22088 191499.2 Q 22088 192867.2 21260 193683.2 Q 20432 194499.2 19088 194499.2 Q 17672 194499.2 16748 193563.2 Q 15824 192627.2 15608 190227.2 Q 15464 188715.2 14912 188115.2 Q 14360 187515.2 13616 187515.2 Q 12464 187515.2 11648 188739.2 Q 10400 190587.2 10400 194403.2 Q 10400 197571.2 11408 200463.2 Q 12416 203355.2 14168 204771.2 Q 15488 205803.2 17288 205803.2 Q 18464 205803.2 19520 205251.2 Q 20576 204699.2 22016 203163.2  Z M 47187.2 186507.2 L 47187.2 204075.2 Q 47187.2 206643.2 47667.2 207279.2 Q 48147.2 207915.2 49611.2 208083.2 L 49611.2 208947.2 L 40467.2 208947.2 L 40467.2 205947.2 Q 38859.2 207867.2 37251.2 208743.2 Q 35643.2 209619.2 33651.2 209619.2 Q 31755.2 209619.2 30279.2 208455.2 Q 28803.2 207291.2 28299.2 205731.2 Q 27795.2 204171.2 27795.2 200283.2 L 27795.2 191379.2 Q 27795.2 188835.2 27327.2 188211.2 Q 26859.2 187587.2 25371.2 187395.2 L 25371.2 186507.2 L 34515.2 186507.2 L 34515.2 201843.2 Q 34515.2 204243.2 34743.2 204939.2 Q 34971.2 205635.2 35463.2 205995.2 Q 35955.2 206355.2 36603.2 206355.2 Q 37467.2 206355.2 38163.2 205899.2 Q 39123.2 205275.2 40467.2 203379.2 L 40467.2 191379.2 Q 40467.2 188835.2 39999.2 188211.2 Q 39531.2 187587.2 38043.2 187395.2 L 38043.2 186507.2 L 47187.2 186507.2 Z M 61588.8 176403.2 L 61588.8 204291.2 Q 61588.8 206667.2 62140.8 207327.2 Q 62692.8 207987.2 64300.8 208083.2 L 64300.8 208947.2 L 52180.8 208947.2 L 52180.8 208083.2 Q 53668.8 208035.2 54388.8 207219.2 Q 54868.8 206667.2 54868.8 204291.2 L 54868.8 181059.2 Q 54868.8 178707.2 54316.8 178047.2 Q 53764.8 177387.2 52180.8 177291.2 L 52180.8 176403.2 L 61588.8 176403.2 Z M 75328 178299.2 L 75328 186507.2 L 80656 186507.2 L 80656 188883.2 L 75328 188883.2 L 75328 202731.2 Q 75328 204675.2 75508 205239.2 Q 75688 205803.2 76144 206151.2 Q 76600 206499.2 76984 206499.2 Q 78544 206499.2 79936 204123.2 L 80656 204651.2 Q 78712 209259.2 74344 209259.2 Q 72208 209259.2 70732 208071.2 Q 69256 206883.2 68848 205419.2 Q 68608 204603.2 68608 201003.2 L 68608 188883.2 L 65680 188883.2 L 65680 188043.2 Q 68704 185907.2 70828 183555.2 Q 72952 181203.2 74536 178299.2 L 75328 178299.2 Z M 104428.8 186507.2 L 104428.8 204075.2 Q 104428.8 206643.2 104908.8 207279.2 Q 105388.8 207915.2 106852.8 208083.2 L 106852.8 208947.2 L 97708.8 208947.2 L 97708.8 205947.2 Q 96100.8 207867.2 94492.8 208743.2 Q 92884.8 209619.2 90892.8 209619.2 Q 88996.8 209619.2 87520.8 208455.2 Q 86044.8 207291.2 85540.8 205731.2 Q 85036.8 204171.2 85036.8 200283.2 L 85036.8 191379.2 Q 85036.8 188835.2 84568.8 188211.2 Q 84100.8 187587.2 82612.8 187395.2 L 82612.8 186507.2 L 91756.8 186507.2 L 91756.8 201843.2 Q 91756.8 204243.2 91984.8 204939.2 Q 92212.8 205635.2 92704.8 205995.2 Q 93196.8 206355.2 93844.8 206355.2 Q 94708.8 206355.2 95404.8 205899.2 Q 96364.8 205275.2 97708.8 203379.2 L 97708.8 191379.2 Q 97708.8 188835.2 97240.8 188211.2 Q 96772.8 187587.2 95284.8 187395.2 L 95284.8 186507.2 L 104428.8 186507.2 Z M 119358.4 186507.2 L 119358.4 191595.2 Q 121590.4 188115.2 123270.4 186975.2 Q 124950.4 185835.2 126510.4 185835.2 Q 127854.4 185835.2 128658.4 186663.2 Q 129462.4 187491.2 129462.4 189003.2 Q 129462.4 190611.2 128682.4 191499.2 Q 127902.4 192387.2 126798.4 192387.2 Q 125526.4 192387.2 124590.4 191571.2 Q 123654.4 190755.2 123486.4 190659.2 Q 123246.4 190515.2 122934.4 190515.2 Q 122238.4 190515.2 121614.4 191043.2 Q 120630.4 191859.2 120126.4 193371.2 Q 119358.4 195699.2 119358.4 198507.2 L 119358.4 203667.2 L 119382.4 205011.2 Q 119382.4 206379.2 119550.4 206763.2 Q 119838.4 207411.2 120402.4 207711.2 Q 120966.4 208011.2 122310.4 208083.2 L 122310.4 208947.2 L 110190.4 208947.2 L 110190.4 208083.2 Q 111654.4 207963.2 112170.4 207279.2 Q 112686.4 206595.2 112686.4 203667.2 L 112686.4 191259.2 Q 112686.4 189339.2 112494.4 188811.2 Q 112254.4 188139.2 111798.4 187827.2 Q 111342.4 187515.2 110190.4 187395.2 L 110190.4 186507.2 L 119358.4 186507.2 Z M 150865.6 196923.2 L 138553.6 196923.2 Q 138769.6 201387.2 140929.6 203979.2 Q 142585.6 205971.2 144913.6 205971.2 Q 146353.6 205971.2 147529.6 205167.2 Q 148705.6 204363.2 150049.6 202275.2 L 150865.6 202803.2 Q 149041.6 206523.2 146833.6 208071.2 Q 144625.6 209619.2 141721.6 209619.2 Q 136729.6 209619.2 134161.6 205779.2 Q 132097.6 202683.2 132097.6 198099.2 Q 132097.6 192483.2 135133.6 189159.2 Q 138169.6 185835.2 142249.6 185835.2 Q 145657.6 185835.2 148165.6 188631.2 Q 150673.6 191427.2 150865.6 196923.2  Z M 144961.6 195315.2 Q 144961.6 191451.2 144541.6 190011.2 Q 144121.6 188571.2 143233.6 187827.2 Q 142729.6 187395.2 141889.6 187395.2 Q 140641.6 187395.2 139849.6 188619.2 Q 138433.6 190755.2 138433.6 194475.2 L 138433.6 195315.2 L 144961.6 195315.2 Z M 175484.8 176403.2 L 175484.8 202227.2 Q 175484.8 204843.2 175628.8 205323.2 Q 175820.8 206115.2 176360.8 206499.2 Q 176900.8 206883.2 178244.8 206979.2 L 178244.8 207771.2 L 168764.8 209619.2 L 168764.8 206067.2 Q 167060.8 208131.2 165728.8 208875.2 Q 164396.8 209619.2 162716.8 209619.2 Q 158420.8 209619.2 155924.8 205779.2 Q 153908.8 202659.2 153908.8 198123.2 Q 153908.8 194499.2 155156.8 191631.2 Q 156404.8 188763.2 158576.8 187299.2 Q 160748.8 185835.2 163244.8 185835.2 Q 164852.8 185835.2 166100.8 186459.2 Q 167348.8 187083.2 168764.8 188643.2 L 168764.8 181875.2 Q 168764.8 179307.2 168548.8 178779.2 Q 168260.8 178083.2 167684.8 177747.2 Q 167108.8 177411.2 165524.8 177411.2 L 165524.8 176403.2 L 175484.8 176403.2 Z M 168764.8 191619.2 Q 166988.8 188211.2 164420.8 188211.2 Q 163532.8 188211.2 162956.8 188691.2 Q 162068.8 189435.2 161504.8 191307.2 Q 160940.8 193179.2 160940.8 197043.2 Q 160940.8 201291.2 161564.8 203331.2 Q 162188.8 205371.2 163268.8 206283.2 Q 163820.8 206739.2 164780.8 206739.2 Q 166892.8 206739.2 168764.8 203427.2 L 168764.8 191619.2 Z M 13544 243233.6 L 13544 258809.6 Q 13544 261065.6 14024 261641.6 Q 14792 262529.6 16856 262457.6 L 16856 263321.6 L 3632 263321.6 L 3632 262457.6 Q 5144 262433.6 5780 262109.6 Q 6416 261785.6 6656 261209.6 Q 6896 260633.6 6896 258809.6 L 6896 243233.6 L 3632 243233.6 L 3632 240881.6 L 6896 240881.6 L 6896 239225.6 L 6872 238097.6 Q 6872 234641.6 9404 232337.6 Q 11936 230033.6 16256 230033.6 Q 19208 230033.6 20636 231137.6 Q 22064 232241.6 22064 233585.6 Q 22064 234665.6 21176 235457.6 Q 20288 236249.6 18824 236249.6 Q 17576 236249.6 16844 235601.6 Q 16112 234953.6 16112 234161.6 Q 16112 233945.6 16256 233273.6 Q 16352 232865.6 16352 232505.6 Q 16352 232001.6 16064 231761.6 Q 15680 231401.6 15128 231401.6 Q 14432 231401.6 13964 231977.6 Q 13496 232553.6 13496 233825.6 L 13544 238025.6 L 13544 240881.6 L 16856 240881.6 L 16856 243233.6 L 13544 243233.6 Z M 41708.8 240881.6 L 41708.8 258449.6 Q 41708.8 261017.6 42188.8 261653.6 Q 42668.8 262289.6 44132.8 262457.6 L 44132.8 263321.6 L 34988.8 263321.6 L 34988.8 260321.6 Q 33380.8 262241.6 31772.8 263117.6 Q 30164.8 263993.6 28172.8 263993.6 Q 26276.8 263993.6 24800.8 262829.6 Q 23324.8 261665.6 22820.8 260105.6 Q 22316.8 258545.6 22316.8 254657.6 L 22316.8 245753.6 Q 22316.8 243209.6 21848.8 242585.6 Q 21380.8 241961.6 19892.8 241769.6 L 19892.8 240881.6 L 29036.8 240881.6 L 29036.8 256217.6 Q 29036.8 258617.6 29264.8 259313.6 Q 29492.8 260009.6 29984.8 260369.6 Q 30476.8 260729.6 31124.8 260729.6 Q 31988.8 260729.6 32684.8 260273.6 Q 33644.8 259649.6 34988.8 257753.6 L 34988.8 245753.6 Q 34988.8 243209.6 34520.8 242585.6 Q 34052.8 241961.6 32564.8 241769.6 L 32564.8 240881.6 L 41708.8 240881.6 Z M 56494.4 240881.6 L 56494.4 243785.6 Q 58222.4 241913.6 59806.4 241061.6 Q 61390.4 240209.6 63214.4 240209.6 Q 65398.4 240209.6 66838.4 241421.6 Q 68278.4 242633.6 68758.4 244433.6 Q 69142.4 245801.6 69142.4 249689.6 L 69142.4 258425.6 Q 69142.4 261017.6 69610.4 261653.6 Q 70078.4 262289.6 71566.4 262457.6 L 71566.4 263321.6 L 60214.4 263321.6 L 60214.4 262457.6 Q 61486.4 262289.6 62038.4 261401.6 Q 62422.4 260801.6 62422.4 258425.6 L 62422.4 248441.6 Q 62422.4 245681.6 62206.4 244961.6 Q 61990.4 244241.6 61474.4 243845.6 Q 60958.4 243449.6 60334.4 243449.6 Q 58270.4 243449.6 56494.4 246401.6 L 56494.4 258425.6 Q 56494.4 260945.6 56962.4 261617.6 Q 57430.4 262289.6 58702.4 262457.6 L 58702.4 263321.6 L 47350.4 263321.6 L 47350.4 262457.6 Q 48766.4 262313.6 49366.4 261545.6 Q 49774.4 261017.6 49774.4 258425.6 L 49774.4 245753.6 Q 49774.4 243209.6 49306.4 242585.6 Q 48838.4 241961.6 47350.4 241769.6 L 47350.4 240881.6 L 56494.4 240881.6 Z M 89016 241145.6 L 96576 241145.6 L 96576 243785.6 L 92280 243785.6 Q 93456 244961.6 93912 245921.6 Q 94488 247217.6 94488 248633.6 Q 94488 251033.6 93156 252797.6 Q 91824 254561.6 89532 255557.6 Q 87240 256553.6 85464 256553.6 Q 85320 256553.6 82584 256433.6 Q 81504 256433.6 80772 257141.6 Q 80040 257849.6 80040 258833.6 Q 80040 259697.6 80700 260249.6 Q 81360 260801.6 82848 260801.6 L 87000 260753.6 Q 92040 260753.6 93936 261857.6 Q 96648 263393.6 96648 266585.6 Q 96648 268625.6 95400 270293.6 Q 94152 271961.6 92112 272753.6 Q 89016 273929.6 84984 273929.6 Q 81960 273929.6 79464 273341.6 Q 76968 272753.6 75888 271709.6 Q 74808 270665.6 74808 269513.6 Q 74808 268409.6 75636 267533.6 Q 76464 266657.6 78720 266057.6 Q 75600 264521.6 75600 261785.6 Q 75600 260129.6 76872 258569.6 Q 78144 257009.6 80904 255857.6 Q 77688 254681.6 76248 252761.6 Q 74808 250841.6 74808 248321.6 Q 74808 245033.6 77496 242621.6 Q 80184 240209.6 84408 240209.6 Q 86640 240209.6 89016 241145.6  Z M 84864 241697.6 Q 83472 241697.6 82512 243101.6 Q 81552 244505.6 81552 248921.6 Q 81552 252497.6 82500 253829.6 Q 83448 255161.6 84744 255161.6 Q 86184 255161.6 87144 253841.6 Q 88104 252521.6 88104 248705.6 Q 88104 244409.6 87024 242849.6 Q 86256 241697.6 84864 241697.6  Z M 83448 266633.6 Q 81000 266633.6 80208 267041.6 Q 78840 267785.6 78840 269057.6 Q 78840 270281.6 80256 271277.6 Q 81672 272273.6 85584 272273.6 Q 88920 272273.6 90828 271385.6 Q 92736 270497.6 92736 268889.6 Q 92736 268289.6 92376 267881.6 Q 91728 267161.6 90420 266897.6 Q 89112 266633.6 83448 266633.6  Z M 120864 240881.6 L 120864 258449.6 Q 120864 261017.6 121344 261653.6 Q 121824 262289.6 123288 262457.6 L 123288 263321.6 L 114144 263321.6 L 114144 260321.6 Q 112536 262241.6 110928 263117.6 Q 109320 263993.6 107328 263993.6 Q 105432 263993.6 103956 262829.6 Q 102480 261665.6 101976 260105.6 Q 101472 258545.6 101472 254657.6 L 101472 245753.6 Q 101472 243209.6 101004 242585.6 Q 100536 241961.6 99048 241769.6 L 99048 240881.6 L 108192 240881.6 L 108192 256217.6 Q 108192 258617.6 108420 259313.6 Q 108648 260009.6 109140 260369.6 Q 109632 260729.6 110280 260729.6 Q 111144 260729.6 111840 260273.6 Q 112800 259649.6 114144 257753.6 L 114144 245753.6 Q 114144 243209.6 113676 242585.6 Q 113208 241961.6 111720 241769.6 L 111720 240881.6 L 120864 240881.6 Z M 140665.6 240257.6 L 141025.6 247913.6 L 140209.6 247913.6 Q 138745.6 244505.6 137173.6 243257.6 Q 135601.6 242009.6 134041.6 242009.6 Q 133057.6 242009.6 132361.6 242669.6 Q 131665.6 243329.6 131665.6 244193.6 Q 131665.6 244841.6 132145.6 245441.6 Q 132913.6 246425.6 136441.6 248813.6 Q 139969.6 251201.6 141085.6 252869.6 Q 142201.6 254537.6 142201.6 256601.6 Q 142201.6 258473.6 141265.6 260273.6 Q 140329.6 262073.6 138625.6 263033.6 Q 136921.6 263993.6 134857.6 263993.6 Q 133249.6 263993.6 130561.6 262985.6 Q 129841.6 262721.6 129577.6 262721.6 Q 128785.6 262721.6 128257.6 263921.6 L 127465.6 263921.6 L 127081.6 255857.6 L 127897.6 255857.6 Q 128977.6 259025.6 130861.6 260609.6 Q 132745.6 262193.6 134425.6 262193.6 Q 135577.6 262193.6 136309.6 261485.6 Q 137041.6 260777.6 137041.6 259769.6 Q 137041.6 258617.6 136321.6 257777.6 Q 135601.6 256937.6 133105.6 255233.6 Q 129433.6 252689.6 128353.6 251345.6 Q 126769.6 249377.6 126769.6 247001.6 Q 126769.6 244409.6 128557.6 242309.6 Q 130345.6 240209.6 133729.6 240209.6 Q 135553.6 240209.6 137257.6 241097.6 Q 137905.6 241457.6 138313.6 241457.6 Q 138745.6 241457.6 139009.6 241277.6 Q 139273.6 241097.6 139849.6 240257.6 L 140665.6 240257.6 Z " fill-rule="nonzero" style="fill:#92cddc;;fill-opacity:1;"/>
</svg>