<svg version="1.1" x="0" y="0" width="100%" height="100%" viewBox="0 0 140697.6 25651.2" xmlns="http://www.w3.org/2000/svg">
  <path d="M 8356 6524.9 L 8346.5 6610.4 Q 8042.5 8196.9 6826.5 10400.9 Q 5610.5 12604.9 4052.5 14390.9 L 3995.5 14457.4 L 3995.5 14694.9 L 4489.5 14694.9 L 4546.5 14628.4 Q 6237.5 12699.9 7220.75 10956.65 Q 8204 9213.4 8926 6847.9 L 8954.5 6771.9 L 9154 6895.4 L 9116 7018.9 Q 7691 11740.4 4793.5 14694.9 L 8166 14694.9 L 8166 10524.4 Q 8204 10505.4 8223 10495.9 Q 9296.5 9811.9 9762 9051.9 L 9942.5 9051.9 L 9942.5 14694.9 L 10408 14694.9 L 10408 9422.4 L 10664.5 9479.4 L 10664.5 14694.9 Q 11500.5 14694.9 11928 14960.9 Q 12355.5 15226.9 12355.5 15749.4 Q 12355.5 16043.9 12175 16238.65 Q 11994.5 16433.4 11719 16433.4 Q 11111 16433.4 11111 15977.4 Q 11111 15806.4 11177.5 15720.9 L 11244 15644.9 Q 11263 15606.9 11263 15568.9 Q 11263 15340.9 10769 15340.9 L 10598 15340.9 L 9942.5 15340.9 L 9942.5 17525.9 L 11063.5 18523.4 L 6997.5 18523.4 L 8166 17582.9 L 8166 16100.9 L 2893.5 16100.9 L 2684.5 15853.9 L 8166 15853.9 L 8166 15340.9 L 2570.5 15340.9 L 2570.5 15017.9 L 2618 14960.9 Q 3986 13355.4 4993 10842.65 Q 6000 8329.9 6000 6524.9 L 8356 6524.9 Z M 12317.5 15008.4 Q 12612 15046.4 12840 15336.15 Q 13068 15625.9 13068 15967.9 Q 13068 16385.9 12821 16666.15 Q 12574 16946.4 12213 16946.4 Q 11861.5 16946.4 11472 16718.4 L 11472 16604.4 Q 11842.5 16784.9 12099 16784.9 Q 12431.5 16784.9 12654.75 16547.4 Q 12878 16309.9 12878 15948.9 Q 12878 15701.9 12806.75 15578.4 Q 12735.5 15454.9 12374.5 15065.4 Q 12355.5 15046.4 12317.5 15008.4  Z M 12175 19302.4 L 7396.5 19302.4 L 7178 19074.4 L 11643 19074.4 L 10408 17617.1 L 10408 15948.9 L 10664.5 15948.9 L 10664.5 17530.65 L 12175 19302.4 Z M 15887.6 16205.4 Q 16400.6 16205.4 16761.6 16566.4 Q 17122.6 16927.4 17122.6 17440.4 Q 17122.6 17943.9 16761.6 18304.9 Q 16400.6 18665.9 15887.6 18665.9 Q 15384.1 18665.9 15023.1 18304.9 Q 14662.1 17943.9 14662.1 17440.4 Q 14662.1 16927.4 15023.1 16566.4 Q 15384.1 16205.4 15887.6 16205.4  Z M 17445.6 16604.4 Q 17968.1 17088.9 17968.1 17820.4 Q 17968.1 18466.4 17488.35 18950.9 Q 17008.6 19435.4 16372.1 19435.4 Q 15602.6 19435.4 15127.6 18865.4 L 15194.1 18798.9 Q 15802.1 19159.9 16296.1 19159.9 Q 16894.6 19159.9 17317.35 18746.65 Q 17740.1 18333.4 17740.1 17763.4 Q 17740.1 17221.9 17360.1 16670.9 L 17445.6 16604.4 Z M 19814.3 6334.9 L 24079.8 6334.9 Q 26796.8 6334.9 27946.3 7085.4 Q 29409.3 8025.9 29409.3 9697.9 Q 29409.3 10714.4 28848.8 11464.9 Q 28288.3 12215.4 27281.3 12547.9 Q 26274.3 12880.4 24079.8 12880.4 L 22911.3 12880.4 L 22911.3 17478.4 L 24070.3 18523.4 L 19652.8 18523.4 L 20973.3 17411.9 L 20973.3 13602.4 Q 20859.3 13592.9 20811.8 13592.9 Q 20127.8 13592.9 19500.8 13887.4 L 19415.3 13716.4 Q 20051.8 13355.4 20555.3 13355.4 L 20897.3 13355.4 L 20973.3 13345.9 L 20973.3 12880.4 Q 20754.8 12851.9 20678.8 12851.9 Q 19662.3 12851.9 19054.3 13345.9 L 18959.3 13203.4 Q 19538.8 12139.4 20821.3 12139.4 L 20973.3 12139.4 L 20973.3 7400.8 L 19814.3 6334.9 Z M 22911.3 7188.95 L 22911.3 12072.9 L 23034.8 12072.9 L 23281.8 12082.4 Q 23319.8 12082.4 23405.3 12072.9 L 23405.3 7835.9 L 24450.3 7835.9 Q 25666.3 7835.9 26165.05 8049.65 Q 26663.8 8263.4 27015.3 8937.9 Q 26663.8 8453.4 26136.55 8258.65 Q 25609.3 8063.9 24649.8 8063.9 L 23671.3 8063.9 L 23671.3 12072.9 Q 25552.3 12072.9 26431.05 11506.7 Q 27309.8 10940.5 27309.8 9729.25 Q 27309.8 8372.65 26526.05 7757.05 Q 25742.3 7142.4 24003.8 7142.4 Q 23557.3 7142.4 22911.3 7188.95  Z M 28924.8 7351.4 Q 29504.3 7636.4 29855.8 8355.55 Q 30207.3 9073.75 30207.3 9986.7 Q 30207.3 12051.05 28611.3 12955.45 Q 27404.8 13640.4 24488.3 13640.4 Q 24003.8 13640.4 23671.3 13621.4 L 23671.3 17559.15 L 25162.8 19302.4 L 20403.3 19302.4 L 20146.8 19074.4 L 24621.3 19074.4 L 23405.3 17663.65 L 23405.3 13363.95 Q 24231.8 13412.4 25162.8 13412.4 Q 27613.8 13412.4 28801.3 12546.95 Q 29988.8 11680.55 29988.8 9891.7 Q 29988.8 9149.75 29760.8 8602.55 Q 29532.8 8055.35 28924.8 7351.4  Z M 31197.6 7474.9 Q 33449.1 6173.4 36042.6 6173.4 Q 38056.6 6173.4 39362.85 7047.4 Q 40669.1 7921.4 40669.1 9270.4 Q 40669.1 10372.4 39814.1 11222.65 Q 38959.1 12072.9 37477.1 12452.9 Q 38132.6 14258.85 39258.35 15969.8 Q 40384.1 17680.75 41514.6 18593.7 L 41372.1 18641.2 Q 39956.6 19123.8 38598.1 20005.4 L 38455.6 20100.4 L 38408.1 19796.4 Q 37800.1 16119.9 36707.6 13564.4 L 36669.6 13469.4 Q 36014.1 13773.4 34912.1 13953.9 L 34836.1 13963.4 L 34836.1 17516.4 L 36508.1 19302.4 L 31596.6 19302.4 L 31444.6 19074.4 L 35966.6 19074.4 L 34589.1 17582.9 L 34589.1 13754.4 L 34788.6 13725.9 Q 35871.6 13611.9 36603.1 13298.4 Q 36546.1 13184.4 36536.6 13155.9 L 36441.6 12880.4 Q 36432.1 12851.9 36394.1 12766.4 Q 35805.1 12937.4 34171.1 13136.9 L 34066.6 13155.9 L 34066.6 17392.9 L 35149.6 18523.4 L 30950.6 18523.4 L 32185.6 17392.9 L 32185.6 14200.9 L 32109.6 14210.4 Q 31558.6 14333.9 31112.1 14485.9 L 31036.1 14514.4 L 30950.6 14324.4 Q 31368.6 14162.9 31606.1 14105.9 L 32109.6 13982.4 L 32185.6 13963.4 L 32185.6 13469.4 Q 31625.1 13469.4 30789.1 13716.4 L 30684.6 13754.4 Q 30703.6 13621.4 30874.6 13136.9 Q 30893.6 13098.9 31007.6 12709.4 Q 31017.1 12680.9 31036.1 12623.9 Q 31463.6 12652.4 31701.1 12652.4 Q 31957.6 12652.4 32176.1 12623.9 L 32176.1 7949.9 Q 31739.1 7683.9 31273.6 7503.4 L 31197.6 7474.9 Z M 34066.6 7227.9 L 34066.6 12348.4 Q 34342.1 12348.4 34589.1 12300.9 L 34589.1 7626.9 Q 35111.6 7484.4 35843.1 7484.4 Q 37695.6 7484.4 38360.6 8700.4 Q 37657.6 8130.4 37125.6 7916.65 Q 36593.6 7702.9 35852.6 7702.9 Q 35273.1 7702.9 34836.1 7816.9 L 34836.1 12300.9 L 34940.6 12281.9 Q 36812.1 11939.9 37719.35 11203.65 Q 38626.6 10467.4 38626.6 9289.4 Q 38626.6 8234.9 37809.6 7546.15 Q 36992.6 6857.4 35748.1 6857.4 Q 34750.6 6857.4 34066.6 7227.9  Z M 38655.1 12927.9 Q 39253.6 14884.9 40773.6 16756.4 Q 41723.6 17924.9 43177.1 18855.9 Q 41001.6 19435.4 39092.1 20622.9 L 39006.6 20679.9 L 38816.6 20527.9 Q 40631.1 19340.4 42683.1 18779.9 Q 39947.1 16955.9 38379.6 12946.9 L 38322.6 12785.4 Q 41229.6 11683.4 41229.6 9422.4 Q 41229.6 8491.4 40479.1 7389.4 Q 41438.6 8263.4 41438.6 9612.4 Q 41438.6 11797.4 38655.1 12927.9  Z M 53388.3 6334.9 L 53236.3 6516.35 Q 52267.3 7708.6 51697.3 9253.3 Q 51602.3 9036.7 51554.8 8933.15 Q 51032.3 7801.7 50433.8 7472.05 Q 49835.3 7142.4 48286.8 7142.4 Q 47574.3 7142.4 46576.8 7189.9 L 46576.8 11531.4 L 47184.8 11531.4 L 47184.8 7688.65 Q 47906.8 7623.1 48562.3 7623.1 Q 49768.8 7623.1 50338.8 7877.7 Q 50908.8 8132.3 51355.3 8867.6 Q 51222.3 8773.55 51165.3 8726.05 Q 50395.8 8124.7 50053.8 8011.65 Q 49711.8 7898.6 48704.8 7898.6 Q 48400.8 7898.6 47621.8 7934.7 L 47422.3 7943.25 L 47422.3 11531.4 L 49170.3 11531.4 L 50395.8 9856.55 L 50395.8 13944.4 L 49170.3 12357.9 L 46576.8 12357.9 L 46576.8 17687.4 L 47184.8 17687.4 L 47184.8 12804.4 L 49246.3 12804.4 L 49493.3 13051.4 L 47422.3 13051.4 L 47422.3 17687.4 Q 49360.3 17687.4 50177.3 17411.9 Q 50994.3 17136.4 51459.8 16328.9 L 51963.3 15464.4 Q 51991.8 15407.4 52077.3 15255.4 Q 52324.3 16300.4 52690.05 16927.4 Q 53055.8 17554.4 53901.3 18390.4 L 43251.8 18390.4 L 44695.8 17288.4 L 44695.8 13051.4 Q 43897.8 13146.4 43251.8 13545.4 L 43118.8 13345.9 Q 43698.3 12927.9 44695.8 12804.4 L 44695.8 12357.9 Q 44534.3 12338.9 44467.8 12338.9 Q 43498.8 12338.9 42700.8 13051.4 Q 43137.8 11531.4 44695.8 11531.4 L 44695.8 7500.55 L 43251.8 6334.9 L 53388.3 6334.9 Z M 53844.3 6961.9 L 53777.8 7047.4 Q 52618.8 8605.4 52229.3 9659.9 L 52067.8 9460.4 Q 52704.3 7987.9 53711.3 6762.4 L 53844.3 6961.9 Z M 51051.3 10163.4 L 51051.3 14362.4 L 50813.8 14238.9 L 50813.8 10039.9 L 51051.3 10163.4 Z M 54984.3 18474 L 54490.3 19302.4 L 44116.3 19302.4 L 43964.3 19074.4 L 54366.8 19074.4 L 54689.8 18474 Q 53321.8 17205.75 52761.3 15766.5 L 53065.3 15880.5 Q 53587.8 17101.25 54832.3 18321.05 L 54984.3 18474 Z M 67856 3332.9 L 67960.5 3437.4 Q 66716 4634.4 65927.5 6002.4 Q 65139 7370.4 64037 10277.4 L 61263 17535.4 L 62393.5 18523.4 L 58014 18523.4 L 59268 17487.9 L 55791 7588.9 L 54328 6334.9 L 59040 6334.9 L 57700.5 7674.4 L 60835.5 16594.9 L 61206 15711.4 L 58403.5 7807.4 L 59372.5 6847.9 L 59543.5 7028.4 L 58698 7864.4 L 61329.5 15378.9 L 63343.5 10001.9 Q 64246 7607.9 64246 6648.4 Q 64246 5679.4 63533.5 4985.9 L 63714 4947.9 Q 66478.5 4415.9 67856 3332.9  Z M 68369 3912.4 L 68454.5 4130.9 Q 66640 5549.25 64711.5 10602.3 L 62032.5 17597.15 L 63514.5 19302.4 L 58612.5 19302.4 L 58403.5 19074.4 L 62954 19074.4 L 61757 17663.65 L 64483.5 10535.8 L 64996.5 9184.9 Q 65680.5 7433.1 66611.5 5982.45 Q 67542.5 4530.85 68369 3912.4  Z M 77503.5 6334.9 L 77351.5 6516.35 Q 76382.5 7708.6 75812.5 9253.3 Q 75717.5 9036.7 75670 8933.15 Q 75147.5 7801.7 74549 7472.05 Q 73950.5 7142.4 72402 7142.4 Q 71689.5 7142.4 70692 7189.9 L 70692 11531.4 L 71300 11531.4 L 71300 7688.65 Q 72022 7623.1 72677.5 7623.1 Q 73884 7623.1 74454 7877.7 Q 75024 8132.3 75470.5 8867.6 Q 75337.5 8773.55 75280.5 8726.05 Q 74511 8124.7 74169 8011.65 Q 73827 7898.6 72820 7898.6 Q 72516 7898.6 71737 7934.7 L 71537.5 7943.25 L 71537.5 11531.4 L 73285.5 11531.4 L 74511 9856.55 L 74511 13944.4 L 73285.5 12357.9 L 70692 12357.9 L 70692 17687.4 L 71300 17687.4 L 71300 12804.4 L 73361.5 12804.4 L 73608.5 13051.4 L 71537.5 13051.4 L 71537.5 17687.4 Q 73475.5 17687.4 74292.5 17411.9 Q 75109.5 17136.4 75575 16328.9 L 76078.5 15464.4 Q 76107 15407.4 76192.5 15255.4 Q 76439.5 16300.4 76805.25 16927.4 Q 77171 17554.4 78016.5 18390.4 L 67367 18390.4 L 68811 17288.4 L 68811 13051.4 Q 68013 13146.4 67367 13545.4 L 67234 13345.9 Q 67813.5 12927.9 68811 12804.4 L 68811 12357.9 Q 68649.5 12338.9 68583 12338.9 Q 67614 12338.9 66816 13051.4 Q 67253 11531.4 68811 11531.4 L 68811 7500.55 L 67367 6334.9 L 77503.5 6334.9 Z M 77959.5 6961.9 L 77893 7047.4 Q 76734 8605.4 76344.5 9659.9 L 76183 9460.4 Q 76819.5 7987.9 77826.5 6762.4 L 77959.5 6961.9 Z M 75166.5 10163.4 L 75166.5 14362.4 L 74929 14238.9 L 74929 10039.9 L 75166.5 10163.4 Z M 79099.5 18474 L 78605.5 19302.4 L 68231.5 19302.4 L 68079.5 19074.4 L 78482 19074.4 L 78805 18474 Q 77437 17205.75 76876.5 15766.5 L 77180.5 15880.5 Q 77703 17101.25 78947.5 18321.05 L 79099.5 18474 Z M 90128.2 6334.9 Q 89045.2 6895.4 88731.7 7360.9 Q 88256.7 8082.9 88256.7 9536.4 L 88256.7 10153.9 L 88256.7 18523.4 L 86651.2 18523.4 L 82167.2 9821.4 L 82167.2 14979.9 L 82157.7 15407.4 L 82271.7 16775.4 Q 82461.7 17725.4 83136.2 18181.4 L 83212.2 18247.9 Q 81901.2 17810.9 81901.2 15445.4 L 81910.7 14552.4 L 81910.7 9355.9 L 81397.7 8358.4 L 81397.7 13830.4 Q 81397.7 16433.4 81739.7 17240.9 Q 82081.7 18048.4 83345.2 18418.9 L 84171.7 19302.4 L 79022.7 19302.4 L 78870.7 19074.4 L 83630.2 19074.4 L 83136.2 18523.4 L 78709.2 18523.4 Q 79868.2 18105.4 80248.2 17402.4 Q 80628.2 16699.4 80628.2 14989.4 L 80628.2 7389.4 L 79364.7 6334.9 L 84171.7 6334.9 L 82822.7 7237.4 L 87420.7 16205.4 L 87420.7 15065.4 L 83478.2 7389.4 L 84808.2 6486.9 L 84988.7 6667.4 L 83810.7 7465.4 L 87420.7 14552.4 L 87420.7 10115.9 L 87420.7 9612.4 Q 87420.7 7959.4 87149.95 7403.65 Q 86879.2 6847.9 85815.2 6334.9 L 90128.2 6334.9 Z M 90460.7 7037.9 L 90289.7 7322.9 Q 89558.2 7493.9 89296.95 7954.65 Q 89035.7 8415.4 89035.7 9507.9 L 89035.7 19302.4 L 86993.2 19302.4 L 86869.7 19074.4 L 88779.2 19074.4 L 88779.2 9602.9 Q 88779.2 8263.4 89125.95 7736.15 Q 89472.7 7208.9 90460.7 7037.9  Z M 101554.8 6334.9 Q 101469.3 6496.4 101440.8 6552.45 L 100794.8 7689.6 Q 100462.3 8295.7 100177.3 9205.8 L 100158.3 9252.35 L 100063.3 9184.9 L 100034.8 9059.5 Q 99759.3 7957.5 99251.05 7531.9 Q 98742.8 7106.3 97697.8 7106.3 Q 97270.3 7106.3 96842.8 7142.4 L 96728.8 7142.4 L 96728.8 17487.9 L 97849.8 18523.4 L 93508.3 18523.4 L 94838.3 17411.9 L 94838.3 7926.15 L 94163.8 7911.9 Q 93185.3 7911.9 92772.05 8305.2 Q 92358.8 8698.5 92282.8 9688.4 L 92035.8 9688.4 Q 92140.3 8556 92610.55 8110.45 Q 93080.8 7664.9 94163.8 7664.9 L 94733.8 7674.4 L 94838.3 7674.4 L 94838.3 7200.35 Q 94353.8 7142.4 93916.8 7142.4 Q 92691.3 7142.4 92149.8 7650.65 Q 91608.3 8158.9 91551.3 9369.2 L 91437.3 9369.2 Q 91028.8 8050.6 90173.8 6429.9 L 90116.8 6334.9 L 101554.8 6334.9 Z M 102153.3 7066.4 Q 101497.8 7902.4 100775.8 9840.4 L 100737.8 9935.4 L 100528.8 9754.9 L 100557.3 9669.4 Q 101260.3 7702.9 101915.8 6933.4 L 101963.3 6876.4 L 102153.3 7066.4 Z M 99616.8 8415.4 Q 98885.3 7940.4 97906.8 7940.4 Q 97688.3 7940.4 97450.8 7968.9 L 97488.8 17539.2 L 98999.3 19302.4 L 94144.8 19302.4 L 93926.3 19074.4 L 98476.8 19074.4 L 97203.8 17616.15 L 97203.8 7693.4 L 97716.8 7683.9 Q 98638.3 7683.9 99023.05 7831.15 Q 99407.8 7978.4 99616.8 8415.4  Z M 102175.1 6334.9 L 106678.1 6334.9 L 105405.1 7626.9 L 105405.1 17516.4 L 106602.1 18523.4 L 102175.1 18523.4 L 103495.6 17430.9 L 103495.6 7522.4 L 102175.1 6334.9 Z M 107105.6 6876.4 L 106136.6 7835.9 L 106136.6 17539.2 L 107732.6 19302.4 L 102792.6 19302.4 L 102555.1 19074.4 L 107172.1 19074.4 L 105870.6 17635.15 L 105870.6 7750.4 L 106944.1 6686.4 L 107105.6 6876.4 Z M 115476.8 8453.4 L 115315.3 8358.4 Q 114403.3 7854.9 113643.3 7854.9 Q 111144.8 7854.9 111144.8 12766.4 Q 111144.8 16357.4 112693.3 17525.9 L 112607.8 17620.9 Q 111657.8 16946.4 111254.05 15849.15 Q 110850.3 14751.9 110850.3 12880.4 Q 110850.3 7607.9 113624.3 7607.9 Q 114887.8 7607.9 115476.8 8453.4  Z M 113443.8 6211.4 Q 115752.3 6211.4 117134.55 7959.4 Q 118516.8 9707.4 118516.8 12633.4 Q 118516.8 15397.9 117153.55 17041.4 Q 115790.3 18684.9 113491.3 18684.9 Q 111676.8 18684.9 110261.3 17525.9 Q 108180.8 15815.9 108180.8 12462.4 Q 108180.8 9593.4 109605.8 7902.4 Q 111030.8 6211.4 113443.8 6211.4  Z M 113443.8 7028.4 Q 110232.8 7028.4 110232.8 12671.4 Q 110232.8 17886.9 113396.3 17886.9 Q 114868.8 17886.9 115638.3 16504.65 Q 116407.8 15122.4 116407.8 12462.4 Q 116407.8 9450.9 115666.8 8263.4 Q 114887.8 7028.4 113443.8 7028.4  Z M 116474.3 6695.9 Q 117832.8 7351.4 118621.3 8937.9 Q 119409.8 10524.4 119409.8 12604.9 Q 119409.8 15663.9 117856.55 17544.9 Q 116303.3 19425.9 113776.3 19425.9 Q 112161.3 19425.9 110755.3 18333.4 L 110755.3 18285.9 Q 111933.3 19150.4 113709.8 19150.4 Q 116094.3 19150.4 117623.8 17354.9 Q 119153.3 15559.4 119153.3 12766.4 Q 119153.3 10685.9 118455.05 9127.9 Q 117756.8 7569.9 116474.3 6800.4 L 116474.3 6695.9 Z M 131088.2 6334.9 Q 130005.2 6895.4 129691.7 7360.9 Q 129216.7 8082.9 129216.7 9536.4 L 129216.7 10153.9 L 129216.7 18523.4 L 127611.2 18523.4 L 123127.2 9821.4 L 123127.2 14979.9 L 123117.7 15407.4 L 123231.7 16775.4 Q 123421.7 17725.4 124096.2 18181.4 L 124172.2 18247.9 Q 122861.2 17810.9 122861.2 15445.4 L 122870.7 14552.4 L 122870.7 9355.9 L 122357.7 8358.4 L 122357.7 13830.4 Q 122357.7 16433.4 122699.7 17240.9 Q 123041.7 18048.4 124305.2 18418.9 L 125131.7 19302.4 L 119982.7 19302.4 L 119830.7 19074.4 L 124590.2 19074.4 L 124096.2 18523.4 L 119669.2 18523.4 Q 120828.2 18105.4 121208.2 17402.4 Q 121588.2 16699.4 121588.2 14989.4 L 121588.2 7389.4 L 120324.7 6334.9 L 125131.7 6334.9 L 123782.7 7237.4 L 128380.7 16205.4 L 128380.7 15065.4 L 124438.2 7389.4 L 125768.2 6486.9 L 125948.7 6667.4 L 124770.7 7465.4 L 128380.7 14552.4 L 128380.7 10115.9 L 128380.7 9612.4 Q 128380.7 7959.4 128109.95 7403.65 Q 127839.2 6847.9 126775.2 6334.9 L 131088.2 6334.9 Z M 131420.7 7037.9 L 131249.7 7322.9 Q 130518.2 7493.9 130256.95 7954.65 Q 129995.7 8415.4 129995.7 9507.9 L 129995.7 19302.4 L 127953.2 19302.4 L 127829.7 19074.4 L 129739.2 19074.4 L 129739.2 9602.9 Q 129739.2 8263.4 130085.95 7736.15 Q 130432.7 7208.9 131420.7 7037.9  Z " fill-rule="nonzero" style="fill:#0766d2;;fill-opacity:1;"/>
</svg>