<svg version="1.1" x="0" y="0" width="100%" height="100%" viewBox="0 0 681420.8 69734.4" xmlns="http://www.w3.org/2000/svg">
  <path d="M 13517.5 8529.7 Q 18215.5 8355.7 21151.75 11270.2 Q 24088 14184.7 24088 18563.7 Q 24088 22304.7 21898.5 25146.7 Q 18998.5 28916.7 13706 28916.7 Q 8399 28916.7 5499 25320.7 Q 3208 22478.7 3208 18578.2 Q 3208 14199.2 6187.75 11277.45 Q 9167.5 8355.7 13517.5 8529.7  Z M 13691.5 9457.7 Q 10994.5 9457.7 9588 12212.7 Q 8442.5 14474.7 8442.5 18708.7 Q 8442.5 23740.2 10211.5 26147.2 Q 11444 27829.2 13662.5 27829.2 Q 15156 27829.2 16156.5 27104.2 Q 17432.5 26176.2 18143 24138.95 Q 18853.5 22101.7 18853.5 18824.7 Q 18853.5 14924.2 18128.5 12988.45 Q 17403.5 11052.7 16279.75 10255.2 Q 15156 9457.7 13691.5 9457.7  Z M 39291.2 21768.2 L 44627.2 8805.2 L 52631.2 8805.2 L 52631.2 9341.7 L 51993.2 9341.7 Q 51123.2 9341.7 50601.2 9646.2 Q 50238.7 9849.2 50021.2 10327.7 Q 49861.7 10675.7 49861.7 12140.2 L 49861.7 25103.2 Q 49861.7 26611.2 50021.2 26988.2 Q 50180.7 27365.2 50673.7 27647.95 Q 51166.7 27930.7 51993.2 27930.7 L 52631.2 27930.7 L 52631.2 28467.2 L 42365.2 28467.2 L 42365.2 27930.7 L 43003.2 27930.7 Q 43873.2 27930.7 44395.2 27626.2 Q 44757.7 27423.2 44975.2 26930.2 Q 45134.7 26582.2 45134.7 25103.2 L 45134.7 10530.7 L 37594.7 28467.2 L 37246.7 28467.2 L 29590.7 10661.2 L 29590.7 24508.7 Q 29590.7 25958.7 29663.2 26292.2 Q 29851.7 27017.2 30482.45 27473.95 Q 31113.2 27930.7 32461.7 27930.7 L 32461.7 28467.2 L 25733.7 28467.2 L 25733.7 27930.7 L 25936.7 27930.7 Q 26589.2 27945.2 27154.7 27720.45 Q 27720.2 27495.7 28010.2 27118.7 Q 28300.2 26741.7 28459.7 26060.2 Q 28488.7 25900.7 28488.7 24581.2 L 28488.7 12140.2 Q 28488.7 10646.7 28329.2 10276.95 Q 28169.7 9907.2 27676.7 9624.45 Q 27183.7 9341.7 26357.2 9341.7 L 25733.7 9341.7 L 25733.7 8805.2 L 33766.7 8805.2 L 39291.2 21768.2 Z M 74286.6 8805.2 L 74286.6 9341.7 Q 73213.6 9515.7 72372.6 10487.2 Q 71763.6 11212.2 70560.1 13894.7 L 63788.6 28916.7 L 63310.1 28916.7 L 56567.6 13285.7 Q 55349.6 10458.2 54936.35 9965.2 Q 54523.1 9472.2 53377.6 9341.7 L 53377.6 8805.2 L 62802.6 8805.2 L 62802.6 9341.7 L 62483.6 9341.7 Q 61207.6 9341.7 60743.6 9660.7 Q 60410.1 9878.2 60410.1 10298.7 Q 60410.1 10559.7 60526.1 10914.95 Q 60642.1 11270.2 61309.1 12821.7 L 65499.6 22609.2 L 69385.6 13894.7 Q 70081.6 12314.2 70241.1 11777.7 Q 70400.6 11241.2 70400.6 10864.2 Q 70400.6 10429.2 70168.6 10095.7 Q 69936.6 9762.2 69487.1 9588.2 Q 68863.6 9341.7 67834.1 9341.7 L 67834.1 8805.2 L 74286.6 8805.2 Z M 84117.2 14532.7 L 84334.7 19158.2 L 83841.7 19158.2 Q 82957.2 17099.2 82007.45 16345.2 Q 81057.7 15591.2 80115.2 15591.2 Q 79520.7 15591.2 79100.2 15989.95 Q 78679.7 16388.7 78679.7 16910.7 Q 78679.7 17302.2 78969.7 17664.7 Q 79433.7 18259.2 81565.2 19701.95 Q 83696.7 21144.7 84370.95 22152.45 Q 85045.2 23160.2 85045.2 24407.2 Q 85045.2 25538.2 84479.7 26625.7 Q 83914.2 27713.2 82884.7 28293.2 Q 81855.2 28873.2 80608.2 28873.2 Q 79636.7 28873.2 78012.7 28264.2 Q 77577.7 28104.7 77418.2 28104.7 Q 76939.7 28104.7 76620.7 28829.7 L 76142.2 28829.7 L 75910.2 23957.7 L 76403.2 23957.7 Q 77055.7 25871.7 78193.95 26828.7 Q 79332.2 27785.7 80347.2 27785.7 Q 81043.2 27785.7 81485.45 27357.95 Q 81927.7 26930.2 81927.7 26321.2 Q 81927.7 25625.2 81492.7 25117.7 Q 81057.7 24610.2 79549.7 23580.7 Q 77331.2 22043.7 76678.7 21231.7 Q 75721.7 20042.7 75721.7 18607.2 Q 75721.7 17041.2 76801.95 15772.45 Q 77882.2 14503.7 79926.7 14503.7 Q 81028.7 14503.7 82058.2 15040.2 Q 82449.7 15257.7 82696.2 15257.7 Q 82957.2 15257.7 83116.7 15148.95 Q 83276.2 15040.2 83624.2 14532.7 L 84117.2 14532.7 Z M 105555.2 24972.7 L 106004.7 25320.7 Q 105047.7 27118.7 103619.45 27995.95 Q 102191.2 28873.2 100581.7 28873.2 Q 97870.2 28873.2 96246.2 26828.7 Q 94622.2 24784.2 94622.2 21913.2 Q 94622.2 19143.7 96101.2 17041.2 Q 97884.7 14503.7 101016.7 14503.7 Q 103119.2 14503.7 104358.95 15562.2 Q 105598.7 16620.7 105598.7 17925.7 Q 105598.7 18752.2 105098.45 19245.2 Q 104598.2 19738.2 103786.2 19738.2 Q 102930.7 19738.2 102372.45 19172.7 Q 101814.2 18607.2 101683.7 17157.2 Q 101596.7 16243.7 101263.2 15881.2 Q 100929.7 15518.7 100480.2 15518.7 Q 99784.2 15518.7 99291.2 16258.2 Q 98537.2 17374.7 98537.2 19680.2 Q 98537.2 21594.2 99146.2 23341.45 Q 99755.2 25088.7 100813.7 25944.2 Q 101611.2 26567.7 102698.7 26567.7 Q 103409.2 26567.7 104047.2 26234.2 Q 104685.2 25900.7 105555.2 24972.7  Z M 115132.1 26466.2 Q 112652.6 28655.7 110680.6 28655.7 Q 109520.6 28655.7 108752.1 27894.45 Q 107983.6 27133.2 107983.6 25987.7 Q 107983.6 24436.2 109317.6 23196.45 Q 110651.6 21956.7 115132.1 19897.7 L 115132.1 18534.7 Q 115132.1 16997.7 114965.35 16598.95 Q 114798.6 16200.2 114334.6 15902.95 Q 113870.6 15605.7 113290.6 15605.7 Q 112348.1 15605.7 111739.1 16026.2 Q 111362.1 16287.2 111362.1 16635.2 Q 111362.1 16939.7 111768.1 17389.2 Q 112319.1 18012.7 112319.1 18592.7 Q 112319.1 19303.2 111789.85 19803.45 Q 111260.6 20303.7 110405.1 20303.7 Q 109491.6 20303.7 108875.35 19752.7 Q 108259.1 19201.7 108259.1 18462.2 Q 108259.1 17418.2 109085.6 16468.45 Q 109912.1 15518.7 111391.1 15011.2 Q 112870.1 14503.7 114465.1 14503.7 Q 116393.6 14503.7 117517.35 15322.95 Q 118641.1 16142.2 118974.6 17099.2 Q 119177.6 17708.2 119177.6 19897.7 L 119177.6 25161.2 Q 119177.6 26089.2 119250.1 26328.45 Q 119322.6 26567.7 119467.6 26683.7 Q 119612.6 26799.7 119801.1 26799.7 Q 120178.1 26799.7 120569.6 26263.2 L 121004.6 26611.2 Q 120279.6 27684.2 119503.85 28169.95 Q 118728.1 28655.7 117742.1 28655.7 Q 116582.1 28655.7 115929.6 28111.95 Q 115277.1 27568.2 115132.1 26466.2  Z M 115132.1 25407.7 L 115132.1 20869.2 Q 113377.6 21898.7 112522.1 23073.2 Q 111956.6 23856.2 111956.6 24653.7 Q 111956.6 25320.7 112435.1 25828.2 Q 112797.6 26219.7 113450.1 26219.7 Q 114175.1 26219.7 115132.1 25407.7  Z M 128124.1 14909.7 L 128124.1 17983.7 Q 129472.6 15881.2 130487.6 15192.45 Q 131502.6 14503.7 132445.1 14503.7 Q 133257.1 14503.7 133742.85 15003.95 Q 134228.6 15504.2 134228.6 16417.7 Q 134228.6 17389.2 133757.35 17925.7 Q 133286.1 18462.2 132619.1 18462.2 Q 131850.6 18462.2 131285.1 17969.2 Q 130719.6 17476.2 130618.1 17418.2 Q 130473.1 17331.2 130284.6 17331.2 Q 129864.1 17331.2 129487.1 17650.2 Q 128892.6 18143.2 128588.1 19056.7 Q 128124.1 20463.2 128124.1 22159.7 L 128124.1 25277.2 L 128138.6 26089.2 Q 128138.6 26915.7 128240.1 27147.7 Q 128414.1 27539.2 128754.85 27720.45 Q 129095.6 27901.7 129907.6 27945.2 L 129907.6 28467.2 L 122585.1 28467.2 L 122585.1 27945.2 Q 123469.6 27872.7 123781.35 27459.45 Q 124093.1 27046.2 124093.1 25277.2 L 124093.1 17780.7 Q 124093.1 16620.7 123977.1 16301.7 Q 123832.1 15895.7 123556.6 15707.2 Q 123281.1 15518.7 122585.1 15446.2 L 122585.1 14909.7 L 128124.1 14909.7 Z M 141282.5 14909.7 L 141282.5 17983.7 Q 142631 15881.2 143646 15192.45 Q 144661 14503.7 145603.5 14503.7 Q 146415.5 14503.7 146901.25 15003.95 Q 147387 15504.2 147387 16417.7 Q 147387 17389.2 146915.75 17925.7 Q 146444.5 18462.2 145777.5 18462.2 Q 145009 18462.2 144443.5 17969.2 Q 143878 17476.2 143776.5 17418.2 Q 143631.5 17331.2 143443 17331.2 Q 143022.5 17331.2 142645.5 17650.2 Q 142051 18143.2 141746.5 19056.7 Q 141282.5 20463.2 141282.5 22159.7 L 141282.5 25277.2 L 141297 26089.2 Q 141297 26915.7 141398.5 27147.7 Q 141572.5 27539.2 141913.25 27720.45 Q 142254 27901.7 143066 27945.2 L 143066 28467.2 L 135743.5 28467.2 L 135743.5 27945.2 Q 136628 27872.7 136939.75 27459.45 Q 137251.5 27046.2 137251.5 25277.2 L 137251.5 17780.7 Q 137251.5 16620.7 137135.5 16301.7 Q 136990.5 15895.7 136715 15707.2 Q 136439.5 15518.7 135743.5 15446.2 L 135743.5 14909.7 L 141282.5 14909.7 Z M 155035.4 29018.2 L 150656.4 18969.7 Q 149670.4 16693.2 149199.15 16171.2 Q 148727.9 15649.2 148060.9 15446.2 L 148060.9 14909.7 L 155267.4 14909.7 L 155267.4 15446.2 Q 154556.9 15475.2 154266.9 15721.7 Q 153976.9 15968.2 153976.9 16316.2 Q 153976.9 16867.2 154701.9 18491.2 L 157021.9 23798.2 L 158602.4 19694.7 Q 159457.9 17505.2 159457.9 16649.7 Q 159457.9 16113.2 159102.65 15794.2 Q 158747.4 15475.2 157848.4 15446.2 L 157848.4 14909.7 L 162386.9 14909.7 L 162386.9 15446.2 Q 161719.9 15518.7 161299.4 15960.95 Q 160878.9 16403.2 159892.9 18969.7 L 156021.4 29018.2 Q 154556.9 32788.2 153846.4 33658.2 Q 152845.9 34876.2 151337.9 34876.2 Q 150134.4 34876.2 149387.65 34187.45 Q 148640.9 33498.7 148640.9 32527.2 Q 148640.9 31686.2 149155.65 31135.2 Q 149670.4 30584.2 150424.4 30584.2 Q 151149.4 30584.2 151591.65 31048.2 Q 152033.9 31512.2 152048.4 32483.7 Q 152062.9 33034.7 152178.9 33194.2 Q 152294.9 33353.7 152512.4 33353.7 Q 152860.4 33353.7 153251.9 32933.2 Q 153831.9 32324.2 154614.9 30149.2 L 155035.4 29018.2 Z M 179656.4 14532.7 L 179873.9 19158.2 L 179380.9 19158.2 Q 178496.4 17099.2 177546.65 16345.2 Q 176596.9 15591.2 175654.4 15591.2 Q 175059.9 15591.2 174639.4 15989.95 Q 174218.9 16388.7 174218.9 16910.7 Q 174218.9 17302.2 174508.9 17664.7 Q 174972.9 18259.2 177104.4 19701.95 Q 179235.9 21144.7 179910.15 22152.45 Q 180584.4 23160.2 180584.4 24407.2 Q 180584.4 25538.2 180018.9 26625.7 Q 179453.4 27713.2 178423.9 28293.2 Q 177394.4 28873.2 176147.4 28873.2 Q 175175.9 28873.2 173551.9 28264.2 Q 173116.9 28104.7 172957.4 28104.7 Q 172478.9 28104.7 172159.9 28829.7 L 171681.4 28829.7 L 171449.4 23957.7 L 171942.4 23957.7 Q 172594.9 25871.7 173733.15 26828.7 Q 174871.4 27785.7 175886.4 27785.7 Q 176582.4 27785.7 177024.65 27357.95 Q 177466.9 26930.2 177466.9 26321.2 Q 177466.9 25625.2 177031.9 25117.7 Q 176596.9 24610.2 175088.9 23580.7 Q 172870.4 22043.7 172217.9 21231.7 Q 171260.9 20042.7 171260.9 18607.2 Q 171260.9 17041.2 172341.15 15772.45 Q 173421.4 14503.7 175465.9 14503.7 Q 176567.9 14503.7 177597.4 15040.2 Q 177988.9 15257.7 178235.4 15257.7 Q 178496.4 15257.7 178655.9 15148.95 Q 178815.4 15040.2 179163.4 14532.7 L 179656.4 14532.7 Z M 185869.4 8341.2 Q 186811.9 8341.2 187464.4 9000.95 Q 188116.9 9660.7 188116.9 10588.7 Q 188116.9 11516.7 187457.15 12169.2 Q 186797.4 12821.7 185869.4 12821.7 Q 184941.4 12821.7 184288.9 12169.2 Q 183636.4 11516.7 183636.4 10588.7 Q 183636.4 9660.7 184288.9 9000.95 Q 184941.4 8341.2 185869.4 8341.2  Z M 187899.4 14909.7 L 187899.4 25654.2 Q 187899.4 27089.7 188232.9 27488.45 Q 188566.4 27887.2 189537.9 27945.2 L 189537.9 28467.2 L 182215.4 28467.2 L 182215.4 27945.2 Q 183114.4 27916.2 183549.4 27423.2 Q 183839.4 27089.7 183839.4 25654.2 L 183839.4 17737.2 Q 183839.4 16301.7 183505.9 15902.95 Q 183172.4 15504.2 182215.4 15446.2 L 182215.4 14909.7 L 187899.4 14909.7 Z M 197737.6 19506.2 L 197737.6 25016.2 Q 197737.6 26611.2 197933.35 27024.45 Q 198129.1 27437.7 198622.1 27684.2 Q 199115.1 27930.7 200463.6 27930.7 L 200463.6 28467.2 L 190400.6 28467.2 L 190400.6 27930.7 Q 191763.6 27930.7 192249.35 27676.95 Q 192735.1 27423.2 192930.85 27017.2 Q 193126.6 26611.2 193126.6 25016.2 L 193126.6 12256.2 Q 193126.6 10661.2 192930.85 10247.95 Q 192735.1 9834.7 192242.1 9588.2 Q 191749.1 9341.7 190400.6 9341.7 L 190400.6 8805.2 L 199535.6 8805.2 Q 203102.6 8805.2 204755.6 9298.2 Q 206408.6 9791.2 207452.6 11117.95 Q 208496.6 12444.7 208496.6 14228.2 Q 208496.6 16403.2 206930.6 17824.2 Q 205930.1 18723.2 204132.1 19172.7 L 208859.1 25828.2 Q 209787.1 27118.7 210178.6 27437.7 Q 210773.1 27887.2 211556.1 27930.7 L 211556.1 28467.2 L 205364.6 28467.2 L 199028.1 19506.2 L 197737.6 19506.2 Z M 197737.6 9863.7 L 197737.6 18476.7 L 198564.1 18476.7 Q 200579.6 18476.7 201580.1 18106.95 Q 202580.6 17737.2 203153.35 16772.95 Q 203726.1 15808.7 203726.1 14257.2 Q 203726.1 12009.7 202674.85 10936.7 Q 201623.6 9863.7 199289.1 9863.7 L 197737.6 9863.7 Z M 218646.2 8805.2 L 228346.7 20999.7 L 228346.7 12546.2 Q 228346.7 10777.2 227839.2 10153.7 Q 227143.2 9312.7 225504.7 9341.7 L 225504.7 8805.2 L 232000.7 8805.2 L 232000.7 9341.7 Q 230753.7 9501.2 230325.95 9754.95 Q 229898.2 10008.7 229658.95 10581.45 Q 229419.7 11154.2 229419.7 12546.2 L 229419.7 28916.7 L 228926.7 28916.7 L 215630.2 12546.2 L 215630.2 25045.2 Q 215630.2 26741.7 216405.95 27336.2 Q 217181.7 27930.7 218182.2 27930.7 L 218646.2 27930.7 L 218646.2 28467.2 L 211671.7 28467.2 L 211671.7 27930.7 Q 213295.7 27916.2 213933.7 27263.7 Q 214571.7 26611.2 214571.7 25045.2 L 214571.7 11168.7 L 214151.2 10646.7 Q 213527.7 9863.7 213049.2 9617.2 Q 212570.7 9370.7 211671.7 9341.7 L 211671.7 8805.2 L 218646.2 8805.2 Z M 245006.8 22870.2 L 238061.3 22870.2 L 237234.8 24784.2 Q 236828.8 25741.2 236828.8 26364.7 Q 236828.8 27191.2 237495.8 27582.7 Q 237887.3 27814.7 239424.3 27930.7 L 239424.3 28467.2 L 232884.8 28467.2 L 232884.8 27930.7 Q 233943.3 27771.2 234624.8 27053.45 Q 235306.3 26335.7 236306.8 24088.2 L 243339.3 8399.2 L 243614.8 8399.2 L 250705.3 24523.2 Q 251720.3 26814.2 252372.8 27408.7 Q 252865.8 27858.2 253764.8 27930.7 L 253764.8 28467.2 L 244252.8 28467.2 L 244252.8 27930.7 L 244644.3 27930.7 Q 245789.8 27930.7 246253.8 27611.7 Q 246572.8 27379.7 246572.8 26944.7 Q 246572.8 26683.7 246485.8 26408.2 Q 246456.8 26277.7 246050.8 25320.7 L 245006.8 22870.2 Z M 244513.8 21797.2 L 241584.8 15025.7 L 238568.8 21797.2 L 244513.8 21797.2 Z M 267858.4 9950.7 L 267858.4 14909.7 L 271077.4 14909.7 L 271077.4 16345.2 L 267858.4 16345.2 L 267858.4 24711.7 Q 267858.4 25886.2 267967.15 26226.95 Q 268075.9 26567.7 268351.4 26777.95 Q 268626.9 26988.2 268858.9 26988.2 Q 269801.4 26988.2 270642.4 25552.7 L 271077.4 25871.7 Q 269902.9 28655.7 267263.9 28655.7 Q 265973.4 28655.7 265081.65 27937.95 Q 264189.9 27220.2 263943.4 26335.7 Q 263798.4 25842.7 263798.4 23667.7 L 263798.4 16345.2 L 262029.4 16345.2 L 262029.4 15837.7 Q 263856.4 14547.2 265139.65 13126.2 Q 266422.9 11705.2 267379.9 9950.7 L 267858.4 9950.7 Z M 278755 14503.7 Q 280524 14503.7 282046.5 15417.2 Q 283569 16330.7 284359.25 18012.7 Q 285149.5 19694.7 285149.5 21695.7 Q 285149.5 24581.2 283685 26524.2 Q 281916 28873.2 278798.5 28873.2 Q 275739 28873.2 274086 26727.2 Q 272433 24581.2 272433 21753.7 Q 272433 18839.2 274122.25 16671.45 Q 275811.5 14503.7 278755 14503.7  Z M 278813 15533.2 Q 278073.5 15533.2 277544.25 16091.45 Q 277015 16649.7 276848.25 18295.45 Q 276681.5 19941.2 276681.5 22870.2 Q 276681.5 24421.7 276884.5 25770.2 Q 277044 26799.7 277566 27336.2 Q 278088 27872.7 278755 27872.7 Q 279407.5 27872.7 279842.5 27510.2 Q 280408 27017.2 280596.5 26132.7 Q 280886.5 24755.2 280886.5 20564.7 Q 280886.5 18099.7 280611 17178.95 Q 280335.5 16258.2 279799 15837.7 Q 279422 15533.2 278813 15533.2  Z M 303202 14532.7 L 303419.5 19158.2 L 302926.5 19158.2 Q 302042 17099.2 301092.25 16345.2 Q 300142.5 15591.2 299200 15591.2 Q 298605.5 15591.2 298185 15989.95 Q 297764.5 16388.7 297764.5 16910.7 Q 297764.5 17302.2 298054.5 17664.7 Q 298518.5 18259.2 300650 19701.95 Q 302781.5 21144.7 303455.75 22152.45 Q 304130 23160.2 304130 24407.2 Q 304130 25538.2 303564.5 26625.7 Q 302999 27713.2 301969.5 28293.2 Q 300940 28873.2 299693 28873.2 Q 298721.5 28873.2 297097.5 28264.2 Q 296662.5 28104.7 296503 28104.7 Q 296024.5 28104.7 295705.5 28829.7 L 295227 28829.7 L 294995 23957.7 L 295488 23957.7 Q 296140.5 25871.7 297278.75 26828.7 Q 298417 27785.7 299432 27785.7 Q 300128 27785.7 300570.25 27357.95 Q 301012.5 26930.2 301012.5 26321.2 Q 301012.5 25625.2 300577.5 25117.7 Q 300142.5 24610.2 298634.5 23580.7 Q 296416 22043.7 295763.5 21231.7 Q 294806.5 20042.7 294806.5 18607.2 Q 294806.5 17041.2 295886.75 15772.45 Q 296967 14503.7 299011.5 14503.7 Q 300113.5 14503.7 301143 15040.2 Q 301534.5 15257.7 301781 15257.7 Q 302042 15257.7 302201.5 15148.95 Q 302361 15040.2 302709 14532.7 L 303202 14532.7 Z M 309415 8341.2 Q 310357.5 8341.2 311010 9000.95 Q 311662.5 9660.7 311662.5 10588.7 Q 311662.5 11516.7 311002.75 12169.2 Q 310343 12821.7 309415 12821.7 Q 308487 12821.7 307834.5 12169.2 Q 307182 11516.7 307182 10588.7 Q 307182 9660.7 307834.5 9000.95 Q 308487 8341.2 309415 8341.2  Z M 311445 14909.7 L 311445 25654.2 Q 311445 27089.7 311778.5 27488.45 Q 312112 27887.2 313083.5 27945.2 L 313083.5 28467.2 L 305761 28467.2 L 305761 27945.2 Q 306660 27916.2 307095 27423.2 Q 307385 27089.7 307385 25654.2 L 307385 17737.2 Q 307385 16301.7 307051.5 15902.95 Q 306718 15504.2 305761 15446.2 L 305761 14909.7 L 311445 14909.7 Z M 319702.7 8805.2 L 319702.7 25654.2 Q 319702.7 27089.7 320036.2 27488.45 Q 320369.7 27887.2 321341.2 27945.2 L 321341.2 28467.2 L 314018.7 28467.2 L 314018.7 27945.2 Q 314917.7 27916.2 315352.7 27423.2 Q 315642.7 27089.7 315642.7 25654.2 L 315642.7 11618.2 Q 315642.7 10197.2 315309.2 9798.45 Q 314975.7 9399.7 314018.7 9341.7 L 314018.7 8805.2 L 319702.7 8805.2 Z M 334122.9 21202.7 L 326684.4 21202.7 Q 326814.9 23899.7 328119.9 25465.7 Q 329120.4 26669.2 330526.9 26669.2 Q 331396.9 26669.2 332107.4 26183.45 Q 332817.9 25697.7 333629.9 24436.2 L 334122.9 24755.2 Q 333020.9 27002.7 331686.9 27937.95 Q 330352.9 28873.2 328598.4 28873.2 Q 325582.4 28873.2 324030.9 26553.2 Q 322783.9 24682.7 322783.9 21913.2 Q 322783.9 18520.2 324618.15 16511.95 Q 326452.4 14503.7 328917.4 14503.7 Q 330976.4 14503.7 332491.65 16192.95 Q 334006.9 17882.2 334122.9 21202.7  Z M 330555.9 20231.2 Q 330555.9 17896.7 330302.15 17026.7 Q 330048.4 16156.7 329511.9 15707.2 Q 329207.4 15446.2 328699.9 15446.2 Q 327945.9 15446.2 327467.4 16185.7 Q 326611.9 17476.2 326611.9 19723.7 L 326611.9 20231.2 L 330555.9 20231.2 Z M 341336.3 14909.7 L 341336.3 16664.2 Q 342380.3 15533.2 343337.3 15018.45 Q 344294.3 14503.7 345396.3 14503.7 Q 346715.8 14503.7 347585.8 15235.95 Q 348455.8 15968.2 348745.8 17055.7 Q 348977.8 17882.2 348977.8 20231.2 L 348977.8 25509.2 Q 348977.8 27075.2 349260.55 27459.45 Q 349543.3 27843.7 350442.3 27945.2 L 350442.3 28467.2 L 343583.8 28467.2 L 343583.8 27945.2 Q 344352.3 27843.7 344685.8 27307.2 Q 344917.8 26944.7 344917.8 25509.2 L 344917.8 19477.2 Q 344917.8 17809.7 344787.3 17374.7 Q 344656.8 16939.7 344345.05 16700.45 Q 344033.3 16461.2 343656.3 16461.2 Q 342409.3 16461.2 341336.3 18244.7 L 341336.3 25509.2 Q 341336.3 27031.7 341619.05 27437.7 Q 341901.8 27843.7 342670.3 27945.2 L 342670.3 28467.2 L 335811.8 28467.2 L 335811.8 27945.2 Q 336667.3 27858.2 337029.8 27394.2 Q 337276.3 27075.2 337276.3 25509.2 L 337276.3 17853.2 Q 337276.3 16316.2 336993.55 15939.2 Q 336710.8 15562.2 335811.8 15446.2 L 335811.8 14909.7 L 341336.3 14909.7 Z M 363347.2 24972.7 L 363796.7 25320.7 Q 362839.7 27118.7 361411.45 27995.95 Q 359983.2 28873.2 358373.7 28873.2 Q 355662.2 28873.2 354038.2 26828.7 Q 352414.2 24784.2 352414.2 21913.2 Q 352414.2 19143.7 353893.2 17041.2 Q 355676.7 14503.7 358808.7 14503.7 Q 360911.2 14503.7 362150.95 15562.2 Q 363390.7 16620.7 363390.7 17925.7 Q 363390.7 18752.2 362890.45 19245.2 Q 362390.2 19738.2 361578.2 19738.2 Q 360722.7 19738.2 360164.45 19172.7 Q 359606.2 18607.2 359475.7 17157.2 Q 359388.7 16243.7 359055.2 15881.2 Q 358721.7 15518.7 358272.2 15518.7 Q 357576.2 15518.7 357083.2 16258.2 Q 356329.2 17374.7 356329.2 19680.2 Q 356329.2 21594.2 356938.2 23341.45 Q 357547.2 25088.7 358605.7 25944.2 Q 359403.2 26567.7 360490.7 26567.7 Q 361201.2 26567.7 361839.2 26234.2 Q 362477.2 25900.7 363347.2 24972.7  Z M 376926.1 21202.7 L 369487.6 21202.7 Q 369618.1 23899.7 370923.1 25465.7 Q 371923.6 26669.2 373330.1 26669.2 Q 374200.1 26669.2 374910.6 26183.45 Q 375621.1 25697.7 376433.1 24436.2 L 376926.1 24755.2 Q 375824.1 27002.7 374490.1 27937.95 Q 373156.1 28873.2 371401.6 28873.2 Q 368385.6 28873.2 366834.1 26553.2 Q 365587.1 24682.7 365587.1 21913.2 Q 365587.1 18520.2 367421.35 16511.95 Q 369255.6 14503.7 371720.6 14503.7 Q 373779.6 14503.7 375294.85 16192.95 Q 376810.1 17882.2 376926.1 21202.7  Z M 373359.1 20231.2 Q 373359.1 17896.7 373105.35 17026.7 Q 372851.6 16156.7 372315.1 15707.2 Q 372010.6 15446.2 371503.1 15446.2 Q 370749.1 15446.2 370270.6 16185.7 Q 369415.1 17476.2 369415.1 19723.7 L 369415.1 20231.2 L 373359.1 20231.2 Z M 391404 9950.7 L 391404 14909.7 L 394623 14909.7 L 394623 16345.2 L 391404 16345.2 L 391404 24711.7 Q 391404 25886.2 391512.75 26226.95 Q 391621.5 26567.7 391897 26777.95 Q 392172.5 26988.2 392404.5 26988.2 Q 393347 26988.2 394188 25552.7 L 394623 25871.7 Q 393448.5 28655.7 390809.5 28655.7 Q 389519 28655.7 388627.25 27937.95 Q 387735.5 27220.2 387489 26335.7 Q 387344 25842.7 387344 23667.7 L 387344 16345.2 L 385575 16345.2 L 385575 15837.7 Q 387402 14547.2 388685.25 13126.2 Q 389968.5 11705.2 390925.5 9950.7 L 391404 9950.7 Z M 401445.1 8805.2 L 401445.1 16649.7 Q 402561.6 15475.2 403489.6 14989.45 Q 404417.6 14503.7 405418.1 14503.7 Q 406694.1 14503.7 407600.35 15228.7 Q 408506.6 15953.7 408803.85 16932.45 Q 409101.1 17911.2 409101.1 20231.2 L 409101.1 25523.7 Q 409101.1 27075.2 409391.1 27459.45 Q 409681.1 27843.7 410565.6 27945.2 L 410565.6 28467.2 L 403692.6 28467.2 L 403692.6 27945.2 Q 404417.6 27843.7 404780.1 27365.2 Q 405041.1 26988.2 405041.1 25523.7 L 405041.1 19477.2 Q 405041.1 17795.2 404910.6 17367.45 Q 404780.1 16939.7 404468.35 16700.45 Q 404156.6 16461.2 403765.1 16461.2 Q 403185.1 16461.2 402634.1 16859.95 Q 402083.1 17258.7 401445.1 18259.2 L 401445.1 25523.7 Q 401445.1 26973.7 401662.6 27336.2 Q 401938.1 27829.2 402793.6 27945.2 L 402793.6 28467.2 L 395920.6 28467.2 L 395920.6 27945.2 Q 396776.1 27858.2 397138.6 27394.2 Q 397385.1 27075.2 397385.1 25523.7 L 397385.1 11748.7 Q 397385.1 10211.7 397102.35 9834.7 Q 396819.6 9457.7 395920.6 9341.7 L 395920.6 8805.2 L 401445.1 8805.2 Z M 423876.5 21202.7 L 416438 21202.7 Q 416568.5 23899.7 417873.5 25465.7 Q 418874 26669.2 420280.5 26669.2 Q 421150.5 26669.2 421861 26183.45 Q 422571.5 25697.7 423383.5 24436.2 L 423876.5 24755.2 Q 422774.5 27002.7 421440.5 27937.95 Q 420106.5 28873.2 418352 28873.2 Q 415336 28873.2 413784.5 26553.2 Q 412537.5 24682.7 412537.5 21913.2 Q 412537.5 18520.2 414371.75 16511.95 Q 416206 14503.7 418671 14503.7 Q 420730 14503.7 422245.25 16192.95 Q 423760.5 17882.2 423876.5 21202.7  Z M 420309.5 20231.2 Q 420309.5 17896.7 420055.75 17026.7 Q 419802 16156.7 419265.5 15707.2 Q 418961 15446.2 418453.5 15446.2 Q 417699.5 15446.2 417221 16185.7 Q 416365.5 17476.2 416365.5 19723.7 L 416365.5 20231.2 L 420309.5 20231.2 Z M 440137.9 9936.2 L 440137.9 18012.7 L 440703.4 18012.7 Q 442008.4 18012.7 442834.9 17621.2 Q 443661.4 17229.7 444234.15 16301.7 Q 444806.9 15373.7 444980.9 13793.2 L 445488.4 13793.2 L 445488.4 23667.7 L 444980.9 23667.7 Q 444705.4 20869.2 443480.15 19977.45 Q 442254.9 19085.7 440703.4 19085.7 L 440137.9 19085.7 L 440137.9 25103.2 Q 440137.9 26611.2 440304.65 26988.2 Q 440471.4 27365.2 440957.15 27647.95 Q 441442.9 27930.7 442269.4 27930.7 L 442921.9 27930.7 L 442921.9 28467.2 L 432641.4 28467.2 L 432641.4 27930.7 L 433293.9 27930.7 Q 434149.4 27930.7 434671.4 27626.2 Q 435048.4 27423.2 435251.4 26930.2 Q 435410.9 26582.2 435410.9 25103.2 L 435410.9 12169.2 Q 435410.9 10661.2 435251.4 10284.2 Q 435091.9 9907.2 434606.15 9624.45 Q 434120.4 9341.7 433293.9 9341.7 L 432641.4 9341.7 L 432641.4 8805.2 L 449229.4 8805.2 L 449229.4 14445.7 L 448634.9 14445.7 Q 448431.9 12459.2 447598.15 11502.2 Q 446764.4 10545.2 445183.9 10153.7 Q 444313.9 9936.2 441964.9 9936.2 L 440137.9 9936.2 Z M 453811.2 24001.2 Q 454826.2 24001.2 455529.45 24711.7 Q 456232.7 25422.2 456232.7 26422.7 Q 456232.7 27423.2 455522.2 28126.45 Q 454811.7 28829.7 453811.2 28829.7 Q 452810.7 28829.7 452107.45 28126.45 Q 451404.2 27423.2 451404.2 26422.7 Q 451404.2 25422.2 452107.45 24711.7 Q 452810.7 24001.2 453811.2 24001.2  Z M 472342.2 14503.7 Q 474111.2 14503.7 475633.7 15417.2 Q 477156.2 16330.7 477946.45 18012.7 Q 478736.7 19694.7 478736.7 21695.7 Q 478736.7 24581.2 477272.2 26524.2 Q 475503.2 28873.2 472385.7 28873.2 Q 469326.2 28873.2 467673.2 26727.2 Q 466020.2 24581.2 466020.2 21753.7 Q 466020.2 18839.2 467709.45 16671.45 Q 469398.7 14503.7 472342.2 14503.7  Z M 472400.2 15533.2 Q 471660.7 15533.2 471131.45 16091.45 Q 470602.2 16649.7 470435.45 18295.45 Q 470268.7 19941.2 470268.7 22870.2 Q 470268.7 24421.7 470471.7 25770.2 Q 470631.2 26799.7 471153.2 27336.2 Q 471675.2 27872.7 472342.2 27872.7 Q 472994.7 27872.7 473429.7 27510.2 Q 473995.2 27017.2 474183.7 26132.7 Q 474473.7 24755.2 474473.7 20564.7 Q 474473.7 18099.7 474198.2 17178.95 Q 473922.7 16258.2 473386.2 15837.7 Q 473009.2 15533.2 472400.2 15533.2  Z M 488814.2 20158.7 L 491163.2 24624.7 Q 492381.2 26959.2 493091.7 27582.7 Q 493483.2 27916.2 494164.7 27945.2 L 494164.7 28467.2 L 486610.2 28467.2 L 486610.2 27945.2 Q 487494.7 27872.7 487704.95 27713.2 Q 487915.2 27553.7 487915.2 27278.2 Q 487915.2 26872.2 487451.2 26002.2 L 486276.7 23798.2 L 485276.2 25262.7 Q 484594.7 26263.2 484507.7 26451.7 Q 484391.7 26727.2 484391.7 26944.7 Q 484391.7 27278.2 484529.45 27502.95 Q 484667.2 27727.7 484906.45 27836.45 Q 485145.7 27945.2 485783.7 27945.2 L 485783.7 28467.2 L 480476.7 28467.2 L 480476.7 27945.2 Q 481462.7 27945.2 482281.95 27401.45 Q 483101.2 26857.7 484667.2 24552.2 L 485783.7 22899.2 L 483449.2 18578.2 Q 482303.7 16461.2 481738.2 15982.7 Q 481172.7 15504.2 480476.7 15446.2 L 480476.7 14909.7 L 487987.7 14909.7 L 487987.7 15446.2 L 487596.2 15460.7 L 486842.2 15721.7 Q 486726.2 15823.2 486726.2 16055.2 Q 486726.2 16272.7 486798.7 16504.7 Q 486842.2 16606.2 487204.7 17287.7 L 488263.2 19259.7 L 488814.2 18476.7 Q 489974.2 16881.7 489974.2 16243.7 Q 489974.2 15939.2 489720.45 15728.95 Q 489466.7 15518.7 488814.2 15446.2 L 488814.2 14909.7 L 493613.7 14909.7 L 493613.7 15446.2 Q 492729.2 15475.2 491960.7 15989.95 Q 491192.2 16504.7 490235.2 17983.7 L 488814.2 20158.7 Z M 501864.2 29018.2 L 497485.2 18969.7 Q 496499.2 16693.2 496027.95 16171.2 Q 495556.7 15649.2 494889.7 15446.2 L 494889.7 14909.7 L 502096.2 14909.7 L 502096.2 15446.2 Q 501385.7 15475.2 501095.7 15721.7 Q 500805.7 15968.2 500805.7 16316.2 Q 500805.7 16867.2 501530.7 18491.2 L 503850.7 23798.2 L 505431.2 19694.7 Q 506286.7 17505.2 506286.7 16649.7 Q 506286.7 16113.2 505931.45 15794.2 Q 505576.2 15475.2 504677.2 15446.2 L 504677.2 14909.7 L 509215.7 14909.7 L 509215.7 15446.2 Q 508548.7 15518.7 508128.2 15960.95 Q 507707.7 16403.2 506721.7 18969.7 L 502850.2 29018.2 Q 501385.7 32788.2 500675.2 33658.2 Q 499674.7 34876.2 498166.7 34876.2 Q 496963.2 34876.2 496216.45 34187.45 Q 495469.7 33498.7 495469.7 32527.2 Q 495469.7 31686.2 495984.45 31135.2 Q 496499.2 30584.2 497253.2 30584.2 Q 497978.2 30584.2 498420.45 31048.2 Q 498862.7 31512.2 498877.2 32483.7 Q 498891.7 33034.7 499007.7 33194.2 Q 499123.7 33353.7 499341.2 33353.7 Q 499689.2 33353.7 500080.7 32933.2 Q 500660.7 32324.2 501443.7 30149.2 L 501864.2 29018.2 Z M 519061.2 14532.7 L 519278.7 19158.2 L 518785.7 19158.2 Q 517901.2 17099.2 516951.45 16345.2 Q 516001.7 15591.2 515059.2 15591.2 Q 514464.7 15591.2 514044.2 15989.95 Q 513623.7 16388.7 513623.7 16910.7 Q 513623.7 17302.2 513913.7 17664.7 Q 514377.7 18259.2 516509.2 19701.95 Q 518640.7 21144.7 519314.95 22152.45 Q 519989.2 23160.2 519989.2 24407.2 Q 519989.2 25538.2 519423.7 26625.7 Q 518858.2 27713.2 517828.7 28293.2 Q 516799.2 28873.2 515552.2 28873.2 Q 514580.7 28873.2 512956.7 28264.2 Q 512521.7 28104.7 512362.2 28104.7 Q 511883.7 28104.7 511564.7 28829.7 L 511086.2 28829.7 L 510854.2 23957.7 L 511347.2 23957.7 Q 511999.7 25871.7 513137.95 26828.7 Q 514276.2 27785.7 515291.2 27785.7 Q 515987.2 27785.7 516429.45 27357.95 Q 516871.7 26930.2 516871.7 26321.2 Q 516871.7 25625.2 516436.7 25117.7 Q 516001.7 24610.2 514493.7 23580.7 Q 512275.2 22043.7 511622.7 21231.7 Q 510665.7 20042.7 510665.7 18607.2 Q 510665.7 17041.2 511745.95 15772.45 Q 512826.2 14503.7 514870.7 14503.7 Q 515972.7 14503.7 517002.2 15040.2 Q 517393.7 15257.7 517640.2 15257.7 Q 517901.2 15257.7 518060.7 15148.95 Q 518220.2 15040.2 518568.2 14532.7 L 519061.2 14532.7 Z M 527260.7 27089.7 L 527260.7 32135.7 Q 527260.7 33179.7 527427.45 33556.7 Q 527594.2 33933.7 527942.2 34107.7 Q 528290.2 34281.7 529305.2 34281.7 L 529305.2 34818.2 L 521576.7 34818.2 L 521576.7 34281.7 Q 522475.7 34252.7 522910.7 33774.2 Q 523200.7 33440.7 523200.7 32048.7 L 523200.7 17737.2 Q 523200.7 16301.7 522867.2 15902.95 Q 522533.7 15504.2 521576.7 15446.2 L 521576.7 14909.7 L 527260.7 14909.7 L 527260.7 16693.2 Q 527971.2 15649.2 528710.7 15185.2 Q 529769.2 14503.7 531016.2 14503.7 Q 532509.7 14503.7 533734.95 15446.2 Q 534960.2 16388.7 535598.2 18048.95 Q 536236.2 19709.2 536236.2 21623.2 Q 536236.2 23682.2 535576.45 25385.95 Q 534916.7 27089.7 533662.45 27981.45 Q 532408.2 28873.2 530871.2 28873.2 Q 529754.7 28873.2 528783.2 28380.2 Q 528058.2 28003.2 527260.7 27089.7  Z M 527260.7 25625.2 Q 528507.7 27394.2 529928.7 27394.2 Q 530711.7 27394.2 531219.2 26567.7 Q 531973.2 25349.7 531973.2 21927.7 Q 531973.2 18418.7 531146.7 17128.2 Q 530595.7 16272.7 529667.7 16272.7 Q 528203.2 16272.7 527260.7 18389.7 L 527260.7 25625.2 Z M 544892.6 14503.7 Q 546661.6 14503.7 548184.1 15417.2 Q 549706.6 16330.7 550496.85 18012.7 Q 551287.1 19694.7 551287.1 21695.7 Q 551287.1 24581.2 549822.6 26524.2 Q 548053.6 28873.2 544936.1 28873.2 Q 541876.6 28873.2 540223.6 26727.2 Q 538570.6 24581.2 538570.6 21753.7 Q 538570.6 18839.2 540259.85 16671.45 Q 541949.1 14503.7 544892.6 14503.7  Z M 544950.6 15533.2 Q 544211.1 15533.2 543681.85 16091.45 Q 543152.6 16649.7 542985.85 18295.45 Q 542819.1 19941.2 542819.1 22870.2 Q 542819.1 24421.7 543022.1 25770.2 Q 543181.6 26799.7 543703.6 27336.2 Q 544225.6 27872.7 544892.6 27872.7 Q 545545.1 27872.7 545980.1 27510.2 Q 546545.6 27017.2 546734.1 26132.7 Q 547024.1 24755.2 547024.1 20564.7 Q 547024.1 18099.7 546748.6 17178.95 Q 546473.1 16258.2 545936.6 15837.7 Q 545559.6 15533.2 544950.6 15533.2  Z M 558972.1 14909.7 L 558972.1 17983.7 Q 560320.6 15881.2 561335.6 15192.45 Q 562350.6 14503.7 563293.1 14503.7 Q 564105.1 14503.7 564590.85 15003.95 Q 565076.6 15504.2 565076.6 16417.7 Q 565076.6 17389.2 564605.35 17925.7 Q 564134.1 18462.2 563467.1 18462.2 Q 562698.6 18462.2 562133.1 17969.2 Q 561567.6 17476.2 561466.1 17418.2 Q 561321.1 17331.2 561132.6 17331.2 Q 560712.1 17331.2 560335.1 17650.2 Q 559740.6 18143.2 559436.1 19056.7 Q 558972.1 20463.2 558972.1 22159.7 L 558972.1 25277.2 L 558986.6 26089.2 Q 558986.6 26915.7 559088.1 27147.7 Q 559262.1 27539.2 559602.85 27720.45 Q 559943.6 27901.7 560755.6 27945.2 L 560755.6 28467.2 L 553433.1 28467.2 L 553433.1 27945.2 Q 554317.6 27872.7 554629.35 27459.45 Q 554941.1 27046.2 554941.1 25277.2 L 554941.1 17780.7 Q 554941.1 16620.7 554825.1 16301.7 Q 554680.1 15895.7 554404.6 15707.2 Q 554129.1 15518.7 553433.1 15446.2 L 553433.1 14909.7 L 558972.1 14909.7 Z M 579598 14909.7 L 579598 25523.7 Q 579598 27075.2 579888 27459.45 Q 580178 27843.7 581062.5 27945.2 L 581062.5 28467.2 L 575538 28467.2 L 575538 26654.7 Q 574566.5 27814.7 573595 28343.95 Q 572623.5 28873.2 571420 28873.2 Q 570274.5 28873.2 569382.75 28169.95 Q 568491 27466.7 568186.5 26524.2 Q 567882 25581.7 567882 23232.7 L 567882 17853.2 Q 567882 16316.2 567599.25 15939.2 Q 567316.5 15562.2 566417.5 15446.2 L 566417.5 14909.7 L 571942 14909.7 L 571942 24175.2 Q 571942 25625.2 572079.75 26045.7 Q 572217.5 26466.2 572514.75 26683.7 Q 572812 26901.2 573203.5 26901.2 Q 573725.5 26901.2 574146 26625.7 Q 574726 26248.7 575538 25103.2 L 575538 17853.2 Q 575538 16316.2 575255.25 15939.2 Q 574972.5 15562.2 574073.5 15446.2 L 574073.5 14909.7 L 579598 14909.7 Z M 588616.9 14909.7 L 588616.9 16693.2 Q 589733.4 15475.2 590683.15 14989.45 Q 591632.9 14503.7 592763.9 14503.7 Q 594068.9 14503.7 594953.4 15112.7 Q 595837.9 15721.7 596316.4 16968.7 Q 597476.4 15663.7 598542.15 15083.7 Q 599607.9 14503.7 600767.9 14503.7 Q 602174.4 14503.7 603008.15 15148.95 Q 603841.9 15794.2 604168.15 16787.45 Q 604494.4 17780.7 604494.4 19955.7 L 604494.4 25509.2 Q 604494.4 27075.2 604777.15 27452.2 Q 605059.9 27829.2 605958.9 27945.2 L 605958.9 28467.2 L 598955.4 28467.2 L 598955.4 27945.2 Q 599781.9 27872.7 600173.4 27307.2 Q 600434.4 26915.7 600434.4 25509.2 L 600434.4 19680.2 Q 600434.4 17867.7 600289.4 17374.7 Q 600144.4 16881.7 599832.65 16642.45 Q 599520.9 16403.2 599100.4 16403.2 Q 598476.9 16403.2 597838.9 16859.95 Q 597200.9 17316.7 596548.4 18230.2 L 596548.4 25509.2 Q 596548.4 26973.7 596794.9 27350.7 Q 597128.4 27887.2 598070.9 27945.2 L 598070.9 28467.2 L 591052.9 28467.2 L 591052.9 27945.2 Q 591618.4 27916.2 591944.65 27662.45 Q 592270.9 27408.7 592379.65 27053.45 Q 592488.4 26698.2 592488.4 25509.2 L 592488.4 19680.2 Q 592488.4 17838.7 592343.4 17374.7 Q 592198.4 16910.7 591857.65 16649.7 Q 591516.9 16388.7 591125.4 16388.7 Q 590545.4 16388.7 590066.9 16693.2 Q 589385.4 17142.7 588616.9 18230.2 L 588616.9 25509.2 Q 588616.9 26944.7 588899.65 27401.45 Q 589182.4 27858.2 590081.4 27945.2 L 590081.4 28467.2 L 583092.4 28467.2 L 583092.4 27945.2 Q 583947.9 27858.2 584310.4 27394.2 Q 584556.9 27075.2 584556.9 25509.2 L 584556.9 17853.2 Q 584556.9 16316.2 584274.15 15939.2 Q 583991.4 15562.2 583092.4 15446.2 L 583092.4 14909.7 L 588616.9 14909.7 Z M 628093 8355.7 L 628252.5 14909.7 L 627658 14909.7 Q 627237.5 12444.7 625591.75 10943.95 Q 623946 9443.2 622032 9443.2 Q 620553 9443.2 619690.25 10233.45 Q 618827.5 11023.7 618827.5 12053.2 Q 618827.5 12705.7 619132 13213.2 Q 619552.5 13894.7 620480.5 14561.7 Q 621162 15040.2 623627 16258.2 Q 627078 17954.7 628281.5 19462.7 Q 629470.5 20970.7 629470.5 22913.7 Q 629470.5 25378.7 627549.25 27154.95 Q 625628 28931.2 622670 28931.2 Q 621742 28931.2 620915.5 28742.7 Q 620089 28554.2 618842 28032.2 Q 618146 27742.2 617696.5 27742.2 Q 617319.5 27742.2 616899 28032.2 Q 616478.5 28322.2 616217.5 28916.7 L 615681 28916.7 L 615681 21492.7 L 616217.5 21492.7 Q 616855.5 24624.7 618675.25 26270.45 Q 620495 27916.2 622597.5 27916.2 Q 624221.5 27916.2 625185.75 27031.7 Q 626150 26147.2 626150 24972.7 Q 626150 24276.7 625780.25 23624.2 Q 625410.5 22971.7 624656.5 22384.45 Q 623902.5 21797.2 621988.5 20854.7 Q 619306 19535.2 618131.5 18607.2 Q 616957 17679.2 616326.25 16533.7 Q 615695.5 15388.2 615695.5 14010.7 Q 615695.5 11661.7 617421 10008.7 Q 619146.5 8355.7 621771 8355.7 Q 622728 8355.7 623627 8587.7 Q 624308.5 8761.7 625287.25 9232.95 Q 626266 9704.2 626657.5 9704.2 Q 627034.5 9704.2 627252 9472.2 Q 627469.5 9240.2 627658 8355.7 L 628093 8355.7 Z M 640330.9 15069.2 L 644898.4 15069.2 L 644898.4 16664.2 L 642302.9 16664.2 Q 643013.4 17374.7 643288.9 17954.7 Q 643636.9 18737.7 643636.9 19593.2 Q 643636.9 21043.2 642832.15 22108.95 Q 642027.4 23174.7 640642.65 23776.45 Q 639257.9 24378.2 638184.9 24378.2 Q 638097.9 24378.2 636444.9 24305.7 Q 635792.4 24305.7 635350.15 24733.45 Q 634907.9 25161.2 634907.9 25755.7 Q 634907.9 26277.7 635306.65 26611.2 Q 635705.4 26944.7 636604.4 26944.7 L 639112.9 26915.7 Q 642157.9 26915.7 643303.4 27582.7 Q 644941.9 28510.7 644941.9 30439.2 Q 644941.9 31671.7 644187.9 32679.45 Q 643433.9 33687.2 642201.4 34165.7 Q 640330.9 34876.2 637894.9 34876.2 Q 636067.9 34876.2 634559.9 34520.95 Q 633051.9 34165.7 632399.4 33534.95 Q 631746.9 32904.2 631746.9 32208.2 Q 631746.9 31541.2 632247.15 31011.95 Q 632747.4 30482.7 634110.4 30120.2 Q 632225.4 29192.2 632225.4 27539.2 Q 632225.4 26538.7 632993.9 25596.2 Q 633762.4 24653.7 635429.9 23957.7 Q 633486.9 23247.2 632616.9 22087.2 Q 631746.9 20927.2 631746.9 19404.7 Q 631746.9 17418.2 633370.9 15960.95 Q 634994.9 14503.7 637546.9 14503.7 Q 638895.4 14503.7 640330.9 15069.2  Z M 637822.4 15402.7 Q 636981.4 15402.7 636401.4 16250.95 Q 635821.4 17099.2 635821.4 19767.2 Q 635821.4 21927.7 636394.15 22732.45 Q 636966.9 23537.2 637749.9 23537.2 Q 638619.9 23537.2 639199.9 22739.7 Q 639779.9 21942.2 639779.9 19636.7 Q 639779.9 17041.2 639127.4 16098.7 Q 638663.4 15402.7 637822.4 15402.7  Z M 636966.9 30468.2 Q 635487.9 30468.2 635009.4 30714.7 Q 634182.9 31164.2 634182.9 31932.7 Q 634182.9 32672.2 635038.4 33273.95 Q 635893.9 33875.7 638257.4 33875.7 Q 640272.9 33875.7 641425.65 33339.2 Q 642578.4 32802.7 642578.4 31831.2 Q 642578.4 31468.7 642360.9 31222.2 Q 641969.4 30787.2 641179.15 30627.7 Q 640388.9 30468.2 636966.9 30468.2  Z M 657962.9 21202.7 L 650524.4 21202.7 Q 650654.9 23899.7 651959.9 25465.7 Q 652960.4 26669.2 654366.9 26669.2 Q 655236.9 26669.2 655947.4 26183.45 Q 656657.9 25697.7 657469.9 24436.2 L 657962.9 24755.2 Q 656860.9 27002.7 655526.9 27937.95 Q 654192.9 28873.2 652438.4 28873.2 Q 649422.4 28873.2 647870.9 26553.2 Q 646623.9 24682.7 646623.9 21913.2 Q 646623.9 18520.2 648458.15 16511.95 Q 650292.4 14503.7 652757.4 14503.7 Q 654816.4 14503.7 656331.65 16192.95 Q 657846.9 17882.2 657962.9 21202.7  Z M 654395.9 20231.2 Q 654395.9 17896.7 654142.15 17026.7 Q 653888.4 16156.7 653351.9 15707.2 Q 653047.4 15446.2 652539.9 15446.2 Q 651785.9 15446.2 651307.4 16185.7 Q 650451.9 17476.2 650451.9 19723.7 L 650451.9 20231.2 L 654395.9 20231.2 Z M 668308.3 8399.2 L 668308.3 24479.7 Q 668308.3 26292.2 668467.8 26792.45 Q 668627.3 27292.7 669134.8 27611.7 Q 669642.3 27930.7 670758.8 27930.7 L 671208.3 27930.7 L 671208.3 28467.2 L 660855.3 28467.2 L 660855.3 27930.7 L 661377.3 27930.7 Q 662638.8 27930.7 663175.3 27640.7 Q 663711.8 27350.7 663900.3 26843.2 Q 664088.8 26335.7 664088.8 24479.7 L 664088.8 14286.2 Q 664088.8 12923.2 663958.3 12582.45 Q 663827.8 12241.7 663472.55 12002.45 Q 663117.3 11763.2 662653.3 11763.2 Q 661913.8 11763.2 660855.3 12227.2 L 660594.3 11705.2 L 667829.8 8399.2 L 668308.3 8399.2 Z M 11748.5 47888.4 L 16316 47888.4 L 16316 49483.4 L 13720.5 49483.4 Q 14431 50193.9 14706.5 50773.9 Q 15054.5 51556.9 15054.5 52412.4 Q 15054.5 53862.4 14249.75 54928.15 Q 13445 55993.9 12060.25 56595.65 Q 10675.5 57197.4 9602.5 57197.4 Q 9515.5 57197.4 7862.5 57124.9 Q 7210 57124.9 6767.75 57552.65 Q 6325.5 57980.4 6325.5 58574.9 Q 6325.5 59096.9 6724.25 59430.4 Q 7123 59763.9 8022 59763.9 L 10530.5 59734.9 Q 13575.5 59734.9 14721 60401.9 Q 16359.5 61329.9 16359.5 63258.4 Q 16359.5 64490.9 15605.5 65498.65 Q 14851.5 66506.4 13619 66984.9 Q 11748.5 67695.4 9312.5 67695.4 Q 7485.5 67695.4 5977.5 67340.15 Q 4469.5 66984.9 3817 66354.15 Q 3164.5 65723.4 3164.5 65027.4 Q 3164.5 64360.4 3664.75 63831.15 Q 4165 63301.9 5528 62939.4 Q 3643 62011.4 3643 60358.4 Q 3643 59357.9 4411.5 58415.4 Q 5180 57472.9 6847.5 56776.9 Q 4904.5 56066.4 4034.5 54906.4 Q 3164.5 53746.4 3164.5 52223.9 Q 3164.5 50237.4 4788.5 48780.15 Q 6412.5 47322.9 8964.5 47322.9 Q 10313 47322.9 11748.5 47888.4  Z M 9240 48221.9 Q 8399 48221.9 7819 49070.15 Q 7239 49918.4 7239 52586.4 Q 7239 54746.9 7811.75 55551.65 Q 8384.5 56356.4 9167.5 56356.4 Q 10037.5 56356.4 10617.5 55558.9 Q 11197.5 54761.4 11197.5 52455.9 Q 11197.5 49860.4 10545 48917.9 Q 10081 48221.9 9240 48221.9  Z M 8384.5 63287.4 Q 6905.5 63287.4 6427 63533.9 Q 5600.5 63983.4 5600.5 64751.9 Q 5600.5 65491.4 6456 66093.15 Q 7311.5 66694.9 9675 66694.9 Q 11690.5 66694.9 12843.25 66158.4 Q 13996 65621.9 13996 64650.4 Q 13996 64287.9 13778.5 64041.4 Q 13387 63606.4 12596.75 63446.9 Q 11806.5 63287.4 8384.5 63287.4  Z M 29380.5 54021.9 L 21942 54021.9 Q 22072.5 56718.9 23377.5 58284.9 Q 24378 59488.4 25784.5 59488.4 Q 26654.5 59488.4 27365 59002.65 Q 28075.5 58516.9 28887.5 57255.4 L 29380.5 57574.4 Q 28278.5 59821.9 26944.5 60757.15 Q 25610.5 61692.4 23856 61692.4 Q 20840 61692.4 19288.5 59372.4 Q 18041.5 57501.9 18041.5 54732.4 Q 18041.5 51339.4 19875.75 49331.15 Q 21710 47322.9 24175 47322.9 Q 26234 47322.9 27749.25 49012.15 Q 29264.5 50701.4 29380.5 54021.9  Z M 25813.5 53050.4 Q 25813.5 50715.9 25559.75 49845.9 Q 25306 48975.9 24769.5 48526.4 Q 24465 48265.4 23957.5 48265.4 Q 23203.5 48265.4 22725 49004.9 Q 21869.5 50295.4 21869.5 52542.9 L 21869.5 53050.4 L 25813.5 53050.4 Z M 36593.9 47728.9 L 36593.9 49483.4 Q 37637.9 48352.4 38594.9 47837.65 Q 39551.9 47322.9 40653.9 47322.9 Q 41973.4 47322.9 42843.4 48055.15 Q 43713.4 48787.4 44003.4 49874.9 Q 44235.4 50701.4 44235.4 53050.4 L 44235.4 58328.4 Q 44235.4 59894.4 44518.15 60278.65 Q 44800.9 60662.9 45699.9 60764.4 L 45699.9 61286.4 L 38841.4 61286.4 L 38841.4 60764.4 Q 39609.9 60662.9 39943.4 60126.4 Q 40175.4 59763.9 40175.4 58328.4 L 40175.4 52296.4 Q 40175.4 50628.9 40044.9 50193.9 Q 39914.4 49758.9 39602.65 49519.65 Q 39290.9 49280.4 38913.9 49280.4 Q 37666.9 49280.4 36593.9 51063.9 L 36593.9 58328.4 Q 36593.9 59850.9 36876.65 60256.9 Q 37159.4 60662.9 37927.9 60764.4 L 37927.9 61286.4 L 31069.4 61286.4 L 31069.4 60764.4 Q 31924.9 60677.4 32287.4 60213.4 Q 32533.9 59894.4 32533.9 58328.4 L 32533.9 50672.4 Q 32533.9 49135.4 32251.15 48758.4 Q 31968.4 48381.4 31069.4 48265.4 L 31069.4 47728.9 L 36593.9 47728.9 Z M 59025.3 54021.9 L 51586.8 54021.9 Q 51717.3 56718.9 53022.3 58284.9 Q 54022.8 59488.4 55429.3 59488.4 Q 56299.3 59488.4 57009.8 59002.65 Q 57720.3 58516.9 58532.3 57255.4 L 59025.3 57574.4 Q 57923.3 59821.9 56589.3 60757.15 Q 55255.3 61692.4 53500.8 61692.4 Q 50484.8 61692.4 48933.3 59372.4 Q 47686.3 57501.9 47686.3 54732.4 Q 47686.3 51339.4 49520.55 49331.15 Q 51354.8 47322.9 53819.8 47322.9 Q 55878.8 47322.9 57394.05 49012.15 Q 58909.3 50701.4 59025.3 54021.9  Z M 55458.3 53050.4 Q 55458.3 50715.9 55204.55 49845.9 Q 54950.8 48975.9 54414.3 48526.4 Q 54109.8 48265.4 53602.3 48265.4 Q 52848.3 48265.4 52369.8 49004.9 Q 51514.3 50295.4 51514.3 52542.9 L 51514.3 53050.4 L 55458.3 53050.4 Z " fill-rule="nonzero" style="fill:#76923c;;fill-opacity:1;"/>
</svg>