<svg version="1.1" x="0" y="0" width="100%" height="100%" viewBox="0 0 294912 90726.4" xmlns="http://www.w3.org/2000/svg">
  <path d="M 14949.2 70433.6 Q 14949.2 71524.4 14619.2 72532.4 Q 14289.2 73540.4 13533.2 74314.4 Q 12777.2 75088.4 11535.2 75550.4 Q 10293.2 76012.4 8469.2 76012.4 L 6669.2 76012.4 L 6669.2 82841.6 L 4437.2 82841.6 L 4437.2 65297.6 L 8781.2 65297.6 Q 10389.2 65297.6 11553.2 65639.6 Q 12717.2 65981.6 13473.2 66635.6 Q 14229.2 67289.6 14589.2 68249.6 Q 14949.2 69209.6 14949.2 70433.6  Z M 6669.2 74116.4 L 8216 74116.4 Q 9333.2 74116.4 10167.2 73924.4 Q 11001.2 73732.4 11547.2 73306.4 Q 12093.2 72880.4 12369.2 72202.4 Q 12645.2 71524.4 12645.2 70553.6 Q 12645.2 68849.6 11661.2 68027.6 Q 10677.2 67205.6 8589.2 67205.6 L 6669.2 67205.6 L 6669.2 74117.6 L 6669.2 74116.4 Z M 20800.4 75593.6 L 20800.4 82841.6 L 18568.4 82841.6 L 18568.4 65297.6 L 22840.4 65297.6 Q 26032.4 65297.6 27556.4 66533.6 Q 29080.4 67769.6 29080.4 70276.4 Q 29080.4 71321.6 28786.4 72101.6 Q 28492.4 72881.6 28006.4 73439.6 Q 27520.4 73997.6 26896.4 74369.6 Q 26272.4 74741.6 25611.2 74981.6 L 30387.2 82842.8 L 27760.4 82842.8 L 23547.2 75594.8 L 20800.4 75594.8 L 20800.4 75593.6 Z M 20800.4 73697.6 L 22768.4 73697.6 Q 23848.4 73697.6 24604.4 73487.6 Q 25360.4 73277.6 25846.4 72863.6 Q 26332.4 72449.6 26554.4 71831.6 Q 26776.4 71213.6 26776.4 70386.8 Q 26776.4 69522.8 26530.4 68922.8 Q 26284.4 68322.8 25786.4 67938.8 Q 25288.4 67554.8 24526.4 67380.8 Q 23764.4 67206.8 22721.6 67206.8 L 20801.6 67206.8 L 20801.6 73700 L 20800.4 73697.6 Z M 42164.8 82841.6 L 33058 82841.6 L 33058 65297.6 L 42164.8 65297.6 L 42164.8 67265.6 L 35290 67265.6 L 35290 72689.6 L 41708.8 72689.6 L 41708.8 74633.6 L 35290 74633.6 L 35290 80873.6 L 42164.8 80873.6 L 42164.8 82841.6 Z M 55203.6 65297.6 L 57579.6 65297.6 L 51710.4 82841.6 L 49467.6 82841.6 L 43622.4 65297.6 L 45987.6 65297.6 L 49526.4 76420.4 Q 49875.6 77513.6 50127.6 78527.6 Q 50379.6 79541.6 50582.4 80429.6 Q 50763.6 79541.6 51039.6 78527.6 Q 51315.6 77513.6 51686.4 76348.4 L 55203.6 65297.6 Z M 68993.6 82841.6 L 59886.8 82841.6 L 59886.8 65297.6 L 68993.6 65297.6 L 68993.6 67265.6 L 62118.8 67265.6 L 62118.8 72689.6 L 68537.6 72689.6 L 68537.6 74633.6 L 62118.8 74633.6 L 62118.8 80873.6 L 68993.6 80873.6 L 68993.6 82841.6 Z M 85979.2 82841.6 L 83400.4 82841.6 L 74771.2 68321.6 L 74675.2 68321.6 Q 74747.2 69244.4 74795.2 70156.4 Q 74843.2 70937.6 74873.2 71789.6 Q 74903.2 72641.6 74903.2 73324.4 L 74903.2 82841.6 L 72839.2 82841.6 L 72839.2 65297.6 L 75394 65297.6 L 83986 79745.6 L 84071.2 79745.6 Q 84034 78833.6 83986 77945.6 Q 83975.2 77561.6 83962 77153.6 L 83914 76361.6 Q 83903.2 75953.6 83897.2 75581.6 Q 83891.2 75209.6 83891.2 74897.6 L 83891.2 65297.6 L 85979.2 65297.6 L 85979.2 82841.6 Z M 95821.2 82841.6 L 93576 82841.6 L 93576 67265.6 L 88560 67265.6 L 88560 65297.6 L 100824 65297.6 L 100824 67265.6 L 95821.2 67265.6 L 95821.2 82841.6 Z M 108412.8 82841.6 L 102052.8 82841.6 L 102052.8 81617.6 L 104116.8 81124.4 L 104116.8 67012.4 L 102052.8 66521.6 L 102052.8 65297.6 L 108412.8 65297.6 L 108412.8 66521.6 L 106348.8 67012.4 L 106348.8 81124.4 L 108412.8 81617.6 L 108412.8 82841.6 Z M 126080.4 74044.4 Q 126080.4 76073.6 125594.4 77741.6 Q 125108.4 79409.6 124148.4 80597.6 Q 123188.4 81785.6 121766.4 82433.6 Q 120344.4 83081.6 118483.2 83081.6 Q 116528.4 83081.6 115094.4 82433.6 Q 113660.4 81785.6 112718.4 80597.6 Q 111776.4 79409.6 111320.4 77735.6 Q 110864.4 76061.6 110864.4 74021.6 Q 110864.4 71981.6 111320.4 70319.6 Q 111776.4 68657.6 112724.4 67481.6 Q 113672.4 66305.6 115112.4 65663.6 Q 116552.4 65021.6 118507.2 65021.6 Q 120368.4 65021.6 121778.4 65663.6 Q 123188.4 66305.6 124148.4 67487.6 Q 125108.4 68669.6 125594.4 70331.6 Q 126080.4 71993.6 126080.4 74044.4  Z M 113227.2 74044.4 Q 113227.2 75689.6 113539.2 77003.6 Q 113851.2 78317.6 114493.2 79235.6 Q 115135.2 80153.6 116125.2 80639.6 Q 117115.2 81125.6 118483.2 81125.6 Q 119851.2 81125.6 120841.2 80639.6 Q 121831.2 80153.6 122473.2 79235.6 Q 123115.2 78317.6 123415.2 77003.6 Q 123715.2 75689.6 123715.2 74044.4 Q 123715.2 72388.4 123415.2 71080.4 Q 123115.2 69772.4 122479.2 68866.4 Q 121843.2 67960.4 120859.2 67474.4 Q 119875.2 66988.4 118507.2 66988.4 Q 117139.2 66988.4 116143.2 67474.4 Q 115147.2 67960.4 114499.2 68866.4 Q 113851.2 69772.4 113539.2 71080.4 Q 113227.2 72388.4 113227.2 74044.4  Z M 143067.2 82841.6 L 140488.4 82841.6 L 131859.2 68321.6 L 131763.2 68321.6 Q 131835.2 69244.4 131883.2 70156.4 Q 131931.2 70937.6 131961.2 71789.6 Q 131991.2 72641.6 131991.2 73324.4 L 131991.2 82841.6 L 129927.2 82841.6 L 129927.2 65297.6 L 132482 65297.6 L 141074 79745.6 L 141159.2 79745.6 Q 141122 78833.6 141074 77945.6 Q 141063.2 77561.6 141050 77153.6 L 141002 76361.6 Q 140991.2 75953.6 140985.2 75581.6 Q 140979.2 75209.6 140979.2 74897.6 L 140979.2 65297.6 L 143067.2 65297.6 L 143067.2 82841.6 Z " fill-rule="nonzero" style="fill:#333333;;fill-opacity:1;"/>
</svg>