<svg version="1.1" x="0" y="0" width="100%" height="100%" viewBox="0 0 171673.6 64972.8" xmlns="http://www.w3.org/2000/svg">
  <path d="M 5799.05 47701.35 Q 5799.05 46732.35 6054.05 46056.6 Q 6309.05 45380.85 6742.55 44960.1 Q 7176.05 44539.35 7762.55 44348.1 Q 8349.05 44156.85 9035 44156.85 Q 9698 44156.85 10297.25 44348.1 Q 10896.5 44539.35 11330 44960.1 Q 11763.5 45380.85 12018.5 46056.6 Q 12273.5 46732.35 12273.5 47701.35 Q 12273.5 48647.4 12018.5 49323.15 Q 11763.5 49998.9 11330 50434.95 Q 10896.5 50871 10297.25 51075 Q 9698 51279 9035 51279 Q 8349.05 51279 7762.55 51075 Q 7176.05 50871 6742.55 50434.95 Q 6309.05 49998.9 6054.05 49323.15 Q 5799.05 48647.4 5799.05 47701.35  Z M 19674.25 47701.35 Q 19674.25 46732.35 19929.25 46056.6 Q 20184.25 45380.85 20617.75 44960.1 Q 21051.25 44539.35 21637.75 44348.1 Q 22224.25 44156.85 22910.2 44156.85 Q 23573.2 44156.85 24172.45 44348.1 Q 24771.7 44539.35 25205.2 44960.1 Q 25638.7 45380.85 25893.7 46056.6 Q 26148.7 46732.35 26148.7 47701.35 Q 26148.7 48647.4 25893.7 49323.15 Q 25638.7 49998.9 25205.2 50434.95 Q 24771.7 50871 24172.45 51075 Q 23573.2 51279 22910.2 51279 Q 22224.25 51279 21637.75 51075 Q 21051.25 50871 20617.75 50434.95 Q 20184.25 49998.9 19929.25 49323.15 Q 19674.25 48647.4 19674.25 47701.35  Z M 33549.45 47701.35 Q 33549.45 46732.35 33804.45 46056.6 Q 34059.45 45380.85 34492.95 44960.1 Q 34926.45 44539.35 35512.95 44348.1 Q 36099.45 44156.85 36785.4 44156.85 Q 37448.4 44156.85 38047.65 44348.1 Q 38646.9 44539.35 39080.4 44960.1 Q 39513.9 45380.85 39768.9 46056.6 Q 40023.9 46732.35 40023.9 47701.35 Q 40023.9 48647.4 39768.9 49323.15 Q 39513.9 49998.9 39080.4 50434.95 Q 38646.9 50871 38047.65 51075 Q 37448.4 51279 36785.4 51279 Q 36099.45 51279 35512.95 51075 Q 34926.45 50871 34492.95 50434.95 Q 34059.45 49998.9 33804.45 49323.15 Q 33549.45 48647.4 33549.45 47701.35  Z M 47424.65 47701.35 Q 47424.65 46732.35 47679.65 46056.6 Q 47934.65 45380.85 48368.15 44960.1 Q 48801.65 44539.35 49388.15 44348.1 Q 49974.65 44156.85 50660.6 44156.85 Q 51323.6 44156.85 51922.85 44348.1 Q 52522.1 44539.35 52955.6 44960.1 Q 53389.1 45380.85 53644.1 46056.6 Q 53899.1 46732.35 53899.1 47701.35 Q 53899.1 48647.4 53644.1 49323.15 Q 53389.1 49998.9 52955.6 50434.95 Q 52522.1 50871 51922.85 51075 Q 51323.6 51279 50660.6 51279 Q 49974.65 51279 49388.15 51075 Q 48801.65 50871 48368.15 50434.95 Q 47934.65 49998.9 47679.65 49323.15 Q 47424.65 48647.4 47424.65 47701.35  Z M 61299.85 47701.35 Q 61299.85 46732.35 61554.85 46056.6 Q 61809.85 45380.85 62243.35 44960.1 Q 62676.85 44539.35 63263.35 44348.1 Q 63849.85 44156.85 64535.8 44156.85 Q 65198.8 44156.85 65798.05 44348.1 Q 66397.3 44539.35 66830.8 44960.1 Q 67264.3 45380.85 67519.3 46056.6 Q 67774.3 46732.35 67774.3 47701.35 Q 67774.3 48647.4 67519.3 49323.15 Q 67264.3 49998.9 66830.8 50434.95 Q 66397.3 50871 65798.05 51075 Q 65198.8 51279 64535.8 51279 Q 63849.85 51279 63263.35 51075 Q 62676.85 50871 62243.35 50434.95 Q 61809.85 49998.9 61554.85 49323.15 Q 61299.85 48647.4 61299.85 47701.35  Z M 75175.05 47701.35 Q 75175.05 46732.35 75430.05 46056.6 Q 75685.05 45380.85 76118.55 44960.1 Q 76552.05 44539.35 77138.55 44348.1 Q 77725.05 44156.85 78411 44156.85 Q 79074 44156.85 79673.25 44348.1 Q 80272.5 44539.35 80706 44960.1 Q 81139.5 45380.85 81394.5 46056.6 Q 81649.5 46732.35 81649.5 47701.35 Q 81649.5 48647.4 81394.5 49323.15 Q 81139.5 49998.9 80706 50434.95 Q 80272.5 50871 79673.25 51075 Q 79074 51279 78411 51279 Q 77725.05 51279 77138.55 51075 Q 76552.05 50871 76118.55 50434.95 Q 75685.05 49998.9 75430.05 49323.15 Q 75175.05 48647.4 75175.05 47701.35  Z M 89050.25 47701.35 Q 89050.25 46732.35 89305.25 46056.6 Q 89560.25 45380.85 89993.75 44960.1 Q 90427.25 44539.35 91013.75 44348.1 Q 91600.25 44156.85 92286.2 44156.85 Q 92949.2 44156.85 93548.45 44348.1 Q 94147.7 44539.35 94581.2 44960.1 Q 95014.7 45380.85 95269.7 46056.6 Q 95524.7 46732.35 95524.7 47701.35 Q 95524.7 48647.4 95269.7 49323.15 Q 95014.7 49998.9 94581.2 50434.95 Q 94147.7 50871 93548.45 51075 Q 92949.2 51279 92286.2 51279 Q 91600.25 51279 91013.75 51075 Q 90427.25 50871 89993.75 50434.95 Q 89560.25 49998.9 89305.25 49323.15 Q 89050.25 48647.4 89050.25 47701.35  Z M 102925.45 47701.35 Q 102925.45 46732.35 103180.45 46056.6 Q 103435.45 45380.85 103868.95 44960.1 Q 104302.45 44539.35 104888.95 44348.1 Q 105475.45 44156.85 106161.4 44156.85 Q 106824.4 44156.85 107423.65 44348.1 Q 108022.9 44539.35 108456.4 44960.1 Q 108889.9 45380.85 109144.9 46056.6 Q 109399.9 46732.35 109399.9 47701.35 Q 109399.9 48647.4 109144.9 49323.15 Q 108889.9 49998.9 108456.4 50434.95 Q 108022.9 50871 107423.65 51075 Q 106824.4 51279 106161.4 51279 Q 105475.45 51279 104888.95 51075 Q 104302.45 50871 103868.95 50434.95 Q 103435.45 49998.9 103180.45 49323.15 Q 102925.45 48647.4 102925.45 47701.35  Z M 116800.65 47701.35 Q 116800.65 46732.35 117055.65 46056.6 Q 117310.65 45380.85 117744.15 44960.1 Q 118177.65 44539.35 118764.15 44348.1 Q 119350.65 44156.85 120036.6 44156.85 Q 120699.6 44156.85 121298.85 44348.1 Q 121898.1 44539.35 122331.6 44960.1 Q 122765.1 45380.85 123020.1 46056.6 Q 123275.1 46732.35 123275.1 47701.35 Q 123275.1 48647.4 123020.1 49323.15 Q 122765.1 49998.9 122331.6 50434.95 Q 121898.1 50871 121298.85 51075 Q 120699.6 51279 120036.6 51279 Q 119350.65 51279 118764.15 51075 Q 118177.65 50871 117744.15 50434.95 Q 117310.65 49998.9 117055.65 49323.15 Q 116800.65 48647.4 116800.65 47701.35  Z M 130675.85 47701.35 Q 130675.85 46732.35 130930.85 46056.6 Q 131185.85 45380.85 131619.35 44960.1 Q 132052.85 44539.35 132639.35 44348.1 Q 133225.85 44156.85 133911.8 44156.85 Q 134574.8 44156.85 135174.05 44348.1 Q 135773.3 44539.35 136206.8 44960.1 Q 136640.3 45380.85 136895.3 46056.6 Q 137150.3 46732.35 137150.3 47701.35 Q 137150.3 48647.4 136895.3 49323.15 Q 136640.3 49998.9 136206.8 50434.95 Q 135773.3 50871 135174.05 51075 Q 134574.8 51279 133911.8 51279 Q 133225.85 51279 132639.35 51075 Q 132052.85 50871 131619.35 50434.95 Q 131185.85 49998.9 130930.85 49323.15 Q 130675.85 48647.4 130675.85 47701.35  Z M 144551.05 47701.35 Q 144551.05 46732.35 144806.05 46056.6 Q 145061.05 45380.85 145494.55 44960.1 Q 145928.05 44539.35 146514.55 44348.1 Q 147101.05 44156.85 147787 44156.85 Q 148450 44156.85 149049.25 44348.1 Q 149648.5 44539.35 150082 44960.1 Q 150515.5 45380.85 150770.5 46056.6 Q 151025.5 46732.35 151025.5 47701.35 Q 151025.5 48647.4 150770.5 49323.15 Q 150515.5 49998.9 150082 50434.95 Q 149648.5 50871 149049.25 51075 Q 148450 51279 147787 51279 Q 147101.05 51279 146514.55 51075 Q 145928.05 50871 145494.55 50434.95 Q 145061.05 49998.9 144806.05 49323.15 Q 144551.05 48647.4 144551.05 47701.35  Z " fill-rule="nonzero" style="fill:#7f7f7f;;fill-opacity:1;"/>
</svg>