<svg version="1.1" x="0" y="0" width="100%" height="100%" viewBox="0 0 293632 43724.8" xmlns="http://www.w3.org/2000/svg">
  <path d="M 17990.5 21363.1 Q 21368 22150.6 22733 23270.6 Q 24693 24863.1 24693 27400.6 Q 24693 30078.1 22540.5 31828.1 Q 19898 33945.6 14858 33945.6 L 2800.5 33945.6 L 2800.5 33298.1 Q 4445.5 33298.1 5031.75 32991.85 Q 5618 32685.6 5854.25 32195.6 Q 6090.5 31705.6 6090.5 29780.6 L 6090.5 14380.6 Q 6090.5 12455.6 5854.25 11956.85 Q 5618 11458.1 5023 11160.6 Q 4428 10863.1 2800.5 10863.1 L 2800.5 10215.6 L 14175.5 10215.6 Q 18253 10215.6 19950.5 10941.85 Q 21648 11668.1 22628 13111.85 Q 23608 14555.6 23608 16183.1 Q 23608 17898.1 22365.5 19236.85 Q 21123 20575.6 17990.5 21363.1  Z M 11620.5 20890.6 Q 14105.5 20890.6 15286.75 20330.6 Q 16468 19770.6 17098 18755.6 Q 17728 17740.6 17728 16165.6 Q 17728 14590.6 17106.75 13584.35 Q 16485.5 12578.1 15330.5 12053.1 Q 14175.5 11528.1 11620.5 11545.6 L 11620.5 20890.6 Z M 11620.5 22255.6 L 11620.5 29868.1 L 11603 30743.1 Q 11603 31688.1 12084.25 32169.35 Q 12565.5 32650.6 13510.5 32650.6 Q 14910.5 32650.6 16091.75 32029.35 Q 17273 31408.1 17903 30226.85 Q 18533 29045.6 18533 27593.1 Q 18533 25930.6 17763 24609.35 Q 16993 23288.1 15645.5 22763.1 Q 14298 22238.1 11620.5 22255.6  Z M 31052.2 9655.6 Q 32189.7 9655.6 32977.2 10451.85 Q 33764.7 11248.1 33764.7 12368.1 Q 33764.7 13488.1 32968.45 14275.6 Q 32172.2 15063.1 31052.2 15063.1 Q 29932.2 15063.1 29144.7 14275.6 Q 28357.2 13488.1 28357.2 12368.1 Q 28357.2 11248.1 29144.7 10451.85 Q 29932.2 9655.6 31052.2 9655.6  Z M 33502.2 17583.1 L 33502.2 30550.6 Q 33502.2 32283.1 33904.7 32764.35 Q 34307.2 33245.6 35479.7 33315.6 L 35479.7 33945.6 L 26642.2 33945.6 L 26642.2 33315.6 Q 27727.2 33280.6 28252.2 32685.6 Q 28602.2 32283.1 28602.2 30550.6 L 28602.2 20995.6 Q 28602.2 19263.1 28199.7 18781.85 Q 27797.2 18300.6 26642.2 18230.6 L 26642.2 17583.1 L 33502.2 17583.1 Z M 44765 17093.1 Q 46900 17093.1 48737.5 18195.6 Q 50575 19298.1 51528.75 21328.1 Q 52482.5 23358.1 52482.5 25773.1 Q 52482.5 29255.6 50715 31600.6 Q 48580 34435.6 44817.5 34435.6 Q 41125 34435.6 39130 31845.6 Q 37135 29255.6 37135 25843.1 Q 37135 22325.6 39173.75 19709.35 Q 41212.5 17093.1 44765 17093.1  Z M 44835 18335.6 Q 43942.5 18335.6 43303.75 19009.35 Q 42665 19683.1 42463.75 21669.35 Q 42262.5 23655.6 42262.5 27190.6 Q 42262.5 29063.1 42507.5 30690.6 Q 42700 31933.1 43330 32580.6 Q 43960 33228.1 44765 33228.1 Q 45552.5 33228.1 46077.5 32790.6 Q 46760 32195.6 46987.5 31128.1 Q 47337.5 29465.6 47337.5 24408.1 Q 47337.5 21433.1 47005 20321.85 Q 46672.5 19210.6 46025 18703.1 Q 45570 18335.6 44835 18335.6  Z M 61372.5 10215.6 L 61372.5 30550.6 Q 61372.5 32283.1 61775 32764.35 Q 62177.5 33245.6 63350 33315.6 L 63350 33945.6 L 54512.5 33945.6 L 54512.5 33315.6 Q 55597.5 33280.6 56122.5 32685.6 Q 56472.5 32283.1 56472.5 30550.6 L 56472.5 13610.6 Q 56472.5 11895.6 56070 11414.35 Q 55667.5 10933.1 54512.5 10863.1 L 54512.5 10215.6 L 61372.5 10215.6 Z M 72617.8 17093.1 Q 74752.8 17093.1 76590.3 18195.6 Q 78427.8 19298.1 79381.55 21328.1 Q 80335.3 23358.1 80335.3 25773.1 Q 80335.3 29255.6 78567.8 31600.6 Q 76432.8 34435.6 72670.3 34435.6 Q 68977.8 34435.6 66982.8 31845.6 Q 64987.8 29255.6 64987.8 25843.1 Q 64987.8 22325.6 67026.55 19709.35 Q 69065.3 17093.1 72617.8 17093.1  Z M 72687.8 18335.6 Q 71795.3 18335.6 71156.55 19009.35 Q 70517.8 19683.1 70316.55 21669.35 Q 70115.3 23655.6 70115.3 27190.6 Q 70115.3 29063.1 70360.3 30690.6 Q 70552.8 31933.1 71182.8 32580.6 Q 71812.8 33228.1 72617.8 33228.1 Q 73405.3 33228.1 73930.3 32790.6 Q 74612.8 32195.6 74840.3 31128.1 Q 75190.3 29465.6 75190.3 24408.1 Q 75190.3 21433.1 74857.8 20321.85 Q 74525.3 19210.6 73877.8 18703.1 Q 73422.8 18335.6 72687.8 18335.6  Z M 93320.3 17775.6 L 98832.8 17775.6 L 98832.8 19700.6 L 95700.3 19700.6 Q 96557.8 20558.1 96890.3 21258.1 Q 97310.3 22203.1 97310.3 23235.6 Q 97310.3 24985.6 96339.05 26271.85 Q 95367.8 27558.1 93696.55 28284.35 Q 92025.3 29010.6 90730.3 29010.6 Q 90625.3 29010.6 88630.3 28923.1 Q 87842.8 28923.1 87309.05 29439.35 Q 86775.3 29955.6 86775.3 30673.1 Q 86775.3 31303.1 87256.55 31705.6 Q 87737.8 32108.1 88822.8 32108.1 L 91850.3 32073.1 Q 95525.3 32073.1 96907.8 32878.1 Q 98885.3 33998.1 98885.3 36325.6 Q 98885.3 37813.1 97975.3 39029.35 Q 97065.3 40245.6 95577.8 40823.1 Q 93320.3 41680.6 90380.3 41680.6 Q 88175.3 41680.6 86355.3 41251.85 Q 84535.3 40823.1 83747.8 40061.85 Q 82960.3 39300.6 82960.3 38460.6 Q 82960.3 37655.6 83564.05 37016.85 Q 84167.8 36378.1 85812.8 35940.6 Q 83537.8 34820.6 83537.8 32825.6 Q 83537.8 31618.1 84465.3 30480.6 Q 85392.8 29343.1 87405.3 28503.1 Q 85060.3 27645.6 84010.3 26245.6 Q 82960.3 24845.6 82960.3 23008.1 Q 82960.3 20610.6 84920.3 18851.85 Q 86880.3 17093.1 89960.3 17093.1 Q 91587.8 17093.1 93320.3 17775.6  Z M 90292.8 18178.1 Q 89277.8 18178.1 88577.8 19201.85 Q 87877.8 20225.6 87877.8 23445.6 Q 87877.8 26053.1 88569.05 27024.35 Q 89260.3 27995.6 90205.3 27995.6 Q 91255.3 27995.6 91955.3 27033.1 Q 92655.3 26070.6 92655.3 23288.1 Q 92655.3 20155.6 91867.8 19018.1 Q 91307.8 18178.1 90292.8 18178.1  Z M 89260.3 36360.6 Q 87475.3 36360.6 86897.8 36658.1 Q 85900.3 37200.6 85900.3 38128.1 Q 85900.3 39020.6 86932.8 39746.85 Q 87965.3 40473.1 90817.8 40473.1 Q 93250.3 40473.1 94641.55 39825.6 Q 96032.8 39178.1 96032.8 38005.6 Q 96032.8 37568.1 95770.3 37270.6 Q 95297.8 36745.6 94344.05 36553.1 Q 93390.3 36360.6 89260.3 36360.6  Z M 104677.8 9655.6 Q 105815.3 9655.6 106602.8 10451.85 Q 107390.3 11248.1 107390.3 12368.1 Q 107390.3 13488.1 106594.05 14275.6 Q 105797.8 15063.1 104677.8 15063.1 Q 103557.8 15063.1 102770.3 14275.6 Q 101982.8 13488.1 101982.8 12368.1 Q 101982.8 11248.1 102770.3 10451.85 Q 103557.8 9655.6 104677.8 9655.6  Z M 107127.8 17583.1 L 107127.8 30550.6 Q 107127.8 32283.1 107530.3 32764.35 Q 107932.8 33245.6 109105.3 33315.6 L 109105.3 33945.6 L 100267.8 33945.6 L 100267.8 33315.6 Q 101352.8 33280.6 101877.8 32685.6 Q 102227.8 32283.1 102227.8 30550.6 L 102227.8 20995.6 Q 102227.8 19263.1 101825.3 18781.85 Q 101422.8 18300.6 100267.8 18230.6 L 100267.8 17583.1 L 107127.8 17583.1 Z M 124025.6 29728.1 L 124568.1 30148.1 Q 123413.1 32318.1 121689.35 33376.85 Q 119965.6 34435.6 118023.1 34435.6 Q 114750.6 34435.6 112790.6 31968.1 Q 110830.6 29500.6 110830.6 26035.6 Q 110830.6 22693.1 112615.6 20155.6 Q 114768.1 17093.1 118548.1 17093.1 Q 121085.6 17093.1 122581.85 18370.6 Q 124078.1 19648.1 124078.1 21223.1 Q 124078.1 22220.6 123474.35 22815.6 Q 122870.6 23410.6 121890.6 23410.6 Q 120858.1 23410.6 120184.35 22728.1 Q 119510.6 22045.6 119353.1 20295.6 Q 119248.1 19193.1 118845.6 18755.6 Q 118443.1 18318.1 117900.6 18318.1 Q 117060.6 18318.1 116465.6 19210.6 Q 115555.6 20558.1 115555.6 23340.6 Q 115555.6 25650.6 116290.6 27759.35 Q 117025.6 29868.1 118303.1 30900.6 Q 119265.6 31653.1 120578.1 31653.1 Q 121435.6 31653.1 122205.6 31250.6 Q 122975.6 30848.1 124025.6 29728.1  Z M 135575.1 31530.6 Q 132582.6 34173.1 130202.6 34173.1 Q 128802.6 34173.1 127875.1 33254.35 Q 126947.6 32335.6 126947.6 30953.1 Q 126947.6 29080.6 128557.6 27584.35 Q 130167.6 26088.1 135575.1 23603.1 L 135575.1 21958.1 Q 135575.1 20103.1 135373.85 19621.85 Q 135172.6 19140.6 134612.6 18781.85 Q 134052.6 18423.1 133352.6 18423.1 Q 132215.1 18423.1 131480.1 18930.6 Q 131025.1 19245.6 131025.1 19665.6 Q 131025.1 20033.1 131515.1 20575.6 Q 132180.1 21328.1 132180.1 22028.1 Q 132180.1 22885.6 131541.35 23489.35 Q 130902.6 24093.1 129870.1 24093.1 Q 128767.6 24093.1 128023.85 23428.1 Q 127280.1 22763.1 127280.1 21870.6 Q 127280.1 20610.6 128277.6 19464.35 Q 129275.1 18318.1 131060.1 17705.6 Q 132845.1 17093.1 134770.1 17093.1 Q 137097.6 17093.1 138453.85 18081.85 Q 139810.1 19070.6 140212.6 20225.6 Q 140457.6 20960.6 140457.6 23603.1 L 140457.6 29955.6 Q 140457.6 31075.6 140545.1 31364.35 Q 140632.6 31653.1 140807.6 31793.1 Q 140982.6 31933.1 141210.1 31933.1 Q 141665.1 31933.1 142137.6 31285.6 L 142662.6 31705.6 Q 141787.6 33000.6 140851.35 33586.85 Q 139915.1 34173.1 138725.1 34173.1 Q 137325.1 34173.1 136537.6 33516.85 Q 135750.1 32860.6 135575.1 31530.6  Z M 135575.1 30253.1 L 135575.1 24775.6 Q 133457.6 26018.1 132425.1 27435.6 Q 131742.6 28380.6 131742.6 29343.1 Q 131742.6 30148.1 132320.1 30760.6 Q 132757.6 31233.1 133545.1 31233.1 Q 134420.1 31233.1 135575.1 30253.1  Z M 150870.1 10215.6 L 150870.1 30550.6 Q 150870.1 32283.1 151272.6 32764.35 Q 151675.1 33245.6 152847.6 33315.6 L 152847.6 33945.6 L 144010.1 33945.6 L 144010.1 33315.6 Q 145095.1 33280.6 145620.1 32685.6 Q 145970.1 32283.1 145970.1 30550.6 L 145970.1 13610.6 Q 145970.1 11895.6 145567.6 11414.35 Q 145165.1 10933.1 144010.1 10863.1 L 144010.1 10215.6 L 150870.1 10215.6 Z M 171915.4 11580.6 L 171915.4 21240.6 L 172387.9 21240.6 Q 174645.4 21240.6 175660.4 19823.1 Q 176675.4 18405.6 176955.4 15640.6 L 177620.4 15640.6 L 177620.4 28065.6 L 176955.4 28065.6 Q 176745.4 26035.6 176071.65 24740.6 Q 175397.9 23445.6 174505.4 22999.35 Q 173612.9 22553.1 171915.4 22553.1 L 171915.4 29238.1 Q 171915.4 31198.1 172081.65 31635.6 Q 172247.9 32073.1 172702.9 32353.1 Q 173157.9 32633.1 174172.9 32633.1 L 175590.4 32633.1 Q 178915.4 32633.1 180919.15 31093.1 Q 182922.9 29553.1 183797.9 26403.1 L 184445.4 26403.1 L 183377.9 33945.6 L 162867.9 33945.6 L 162867.9 33298.1 L 163655.4 33298.1 Q 164687.9 33298.1 165317.9 32930.6 Q 165772.9 32685.6 166017.9 32090.6 Q 166210.4 31670.6 166210.4 29885.6 L 166210.4 14275.6 Q 166210.4 12665.6 166122.9 12298.1 Q 165947.9 11685.6 165475.4 11353.1 Q 164810.4 10863.1 163655.4 10863.1 L 162867.9 10863.1 L 162867.9 10215.6 L 182730.4 10215.6 L 182730.4 17233.1 L 182065.4 17233.1 Q 181557.9 14660.6 180639.15 13540.6 Q 179720.4 12420.6 178040.4 11895.6 Q 177060.4 11580.6 174365.4 11580.6 L 171915.4 11580.6 Z M 193622.1 10215.6 L 193622.1 30550.6 Q 193622.1 32283.1 194024.6 32764.35 Q 194427.1 33245.6 195599.6 33315.6 L 195599.6 33945.6 L 186762.1 33945.6 L 186762.1 33315.6 Q 187847.1 33280.6 188372.1 32685.6 Q 188722.1 32283.1 188722.1 30550.6 L 188722.1 13610.6 Q 188722.1 11895.6 188319.6 11414.35 Q 187917.1 10933.1 186762.1 10863.1 L 186762.1 10215.6 L 193622.1 10215.6 Z M 201087.4 9655.6 Q 202224.9 9655.6 203012.4 10451.85 Q 203799.9 11248.1 203799.9 12368.1 Q 203799.9 13488.1 203003.65 14275.6 Q 202207.4 15063.1 201087.4 15063.1 Q 199967.4 15063.1 199179.9 14275.6 Q 198392.4 13488.1 198392.4 12368.1 Q 198392.4 11248.1 199179.9 10451.85 Q 199967.4 9655.6 201087.4 9655.6  Z M 203537.4 17583.1 L 203537.4 30550.6 Q 203537.4 32283.1 203939.9 32764.35 Q 204342.4 33245.6 205514.9 33315.6 L 205514.9 33945.6 L 196677.4 33945.6 L 196677.4 33315.6 Q 197762.4 33280.6 198287.4 32685.6 Q 198637.4 32283.1 198637.4 30550.6 L 198637.4 20995.6 Q 198637.4 19263.1 198234.9 18781.85 Q 197832.4 18300.6 196677.4 18230.6 L 196677.4 17583.1 L 203537.4 17583.1 Z M 220435.2 29728.1 L 220977.7 30148.1 Q 219822.7 32318.1 218098.95 33376.85 Q 216375.2 34435.6 214432.7 34435.6 Q 211160.2 34435.6 209200.2 31968.1 Q 207240.2 29500.6 207240.2 26035.6 Q 207240.2 22693.1 209025.2 20155.6 Q 211177.7 17093.1 214957.7 17093.1 Q 217495.2 17093.1 218991.45 18370.6 Q 220487.7 19648.1 220487.7 21223.1 Q 220487.7 22220.6 219883.95 22815.6 Q 219280.2 23410.6 218300.2 23410.6 Q 217267.7 23410.6 216593.95 22728.1 Q 215920.2 22045.6 215762.7 20295.6 Q 215657.7 19193.1 215255.2 18755.6 Q 214852.7 18318.1 214310.2 18318.1 Q 213470.2 18318.1 212875.2 19210.6 Q 211965.2 20558.1 211965.2 23340.6 Q 211965.2 25650.6 212700.2 27759.35 Q 213435.2 29868.1 214712.7 30900.6 Q 215675.2 31653.1 216987.7 31653.1 Q 217845.2 31653.1 218615.2 31250.6 Q 219385.2 30848.1 220435.2 29728.1  Z M 226892.2 9655.6 Q 228029.7 9655.6 228817.2 10451.85 Q 229604.7 11248.1 229604.7 12368.1 Q 229604.7 13488.1 228808.45 14275.6 Q 228012.2 15063.1 226892.2 15063.1 Q 225772.2 15063.1 224984.7 14275.6 Q 224197.2 13488.1 224197.2 12368.1 Q 224197.2 11248.1 224984.7 10451.85 Q 225772.2 9655.6 226892.2 9655.6  Z M 229342.2 17583.1 L 229342.2 30550.6 Q 229342.2 32283.1 229744.7 32764.35 Q 230147.2 33245.6 231319.7 33315.6 L 231319.7 33945.6 L 222482.2 33945.6 L 222482.2 33315.6 Q 223567.2 33280.6 224092.2 32685.6 Q 224442.2 32283.1 224442.2 30550.6 L 224442.2 20995.6 Q 224442.2 19263.1 224039.7 18781.85 Q 223637.2 18300.6 222482.2 18230.6 L 222482.2 17583.1 L 229342.2 17583.1 Z M 239380 11598.1 L 239380 17583.1 L 243265 17583.1 L 243265 19315.6 L 239380 19315.6 L 239380 29413.1 Q 239380 30830.6 239511.25 31241.85 Q 239642.5 31653.1 239975 31906.85 Q 240307.5 32160.6 240587.5 32160.6 Q 241725 32160.6 242740 30428.1 L 243265 30813.1 Q 241847.5 34173.1 238662.5 34173.1 Q 237105 34173.1 236028.75 33306.85 Q 234952.5 32440.6 234655 31373.1 Q 234480 30778.1 234480 28153.1 L 234480 19315.6 L 232345 19315.6 L 232345 18703.1 Q 234550 17145.6 236098.75 15430.6 Q 237647.5 13715.6 238802.5 11598.1 L 239380 11598.1 Z M 252534.6 17093.1 Q 254669.6 17093.1 256507.1 18195.6 Q 258344.6 19298.1 259298.35 21328.1 Q 260252.1 23358.1 260252.1 25773.1 Q 260252.1 29255.6 258484.6 31600.6 Q 256349.6 34435.6 252587.1 34435.6 Q 248894.6 34435.6 246899.6 31845.6 Q 244904.6 29255.6 244904.6 25843.1 Q 244904.6 22325.6 246943.35 19709.35 Q 248982.1 17093.1 252534.6 17093.1  Z M 252604.6 18335.6 Q 251712.1 18335.6 251073.35 19009.35 Q 250434.6 19683.1 250233.35 21669.35 Q 250032.1 23655.6 250032.1 27190.6 Q 250032.1 29063.1 250277.1 30690.6 Q 250469.6 31933.1 251099.6 32580.6 Q 251729.6 33228.1 252534.6 33228.1 Q 253322.1 33228.1 253847.1 32790.6 Q 254529.6 32195.6 254757.1 31128.1 Q 255107.1 29465.6 255107.1 24408.1 Q 255107.1 21433.1 254774.6 20321.85 Q 254442.1 19210.6 253794.6 18703.1 Q 253339.6 18335.6 252604.6 18335.6  Z M 269527.1 17583.1 L 269527.1 21293.1 Q 271154.6 18755.6 272379.6 17924.35 Q 273604.6 17093.1 274742.1 17093.1 Q 275722.1 17093.1 276308.35 17696.85 Q 276894.6 18300.6 276894.6 19403.1 Q 276894.6 20575.6 276325.85 21223.1 Q 275757.1 21870.6 274952.1 21870.6 Q 274024.6 21870.6 273342.1 21275.6 Q 272659.6 20680.6 272537.1 20610.6 Q 272362.1 20505.6 272134.6 20505.6 Q 271627.1 20505.6 271172.1 20890.6 Q 270454.6 21485.6 270087.1 22588.1 Q 269527.1 24285.6 269527.1 26333.1 L 269527.1 30095.6 L 269544.6 31075.6 Q 269544.6 32073.1 269667.1 32353.1 Q 269877.1 32825.6 270288.35 33044.35 Q 270699.6 33263.1 271679.6 33315.6 L 271679.6 33945.6 L 262842.1 33945.6 L 262842.1 33315.6 Q 263909.6 33228.1 264285.85 32729.35 Q 264662.1 32230.6 264662.1 30095.6 L 264662.1 21048.1 Q 264662.1 19648.1 264522.1 19263.1 Q 264347.1 18773.1 264014.6 18545.6 Q 263682.1 18318.1 262842.1 18230.6 L 262842.1 17583.1 L 269527.1 17583.1 Z " fill-rule="nonzero" style="fill:#76923c;;fill-opacity:1;"/>
</svg>