<svg version="1.1" x="0" y="0" width="100%" height="100%" viewBox="0 0 141772.8 135372.8" xmlns="http://www.w3.org/2000/svg">
  <path d="M 15997 8355.7 L 16156.5 14909.7 L 15562 14909.7 Q 15141.5 12444.7 13495.75 10943.95 Q 11850 9443.2 9936 9443.2 Q 8457 9443.2 7594.25 10233.45 Q 6731.5 11023.7 6731.5 12053.2 Q 6731.5 12705.7 7036 13213.2 Q 7456.5 13894.7 8384.5 14561.7 Q 9066 15040.2 11531 16258.2 Q 14982 17954.7 16185.5 19462.7 Q 17374.5 20970.7 17374.5 22913.7 Q 17374.5 25378.7 15453.25 27154.95 Q 13532 28931.2 10574 28931.2 Q 9646 28931.2 8819.5 28742.7 Q 7993 28554.2 6746 28032.2 Q 6050 27742.2 5600.5 27742.2 Q 5223.5 27742.2 4803 28032.2 Q 4382.5 28322.2 4121.5 28916.7 L 3585 28916.7 L 3585 21492.7 L 4121.5 21492.7 Q 4759.5 24624.7 6579.25 26270.45 Q 8399 27916.2 10501.5 27916.2 Q 12125.5 27916.2 13089.75 27031.7 Q 14054 26147.2 14054 24972.7 Q 14054 24276.7 13684.25 23624.2 Q 13314.5 22971.7 12560.5 22384.45 Q 11806.5 21797.2 9892.5 20854.7 Q 7210 19535.2 6035.5 18607.2 Q 4861 17679.2 4230.25 16533.7 Q 3599.5 15388.2 3599.5 14010.7 Q 3599.5 11661.7 5325 10008.7 Q 7050.5 8355.7 9675 8355.7 Q 10632 8355.7 11531 8587.7 Q 12212.5 8761.7 13191.25 9232.95 Q 14170 9704.2 14561.5 9704.2 Q 14938.5 9704.2 15156 9472.2 Q 15373.5 9240.2 15562 8355.7 L 15997 8355.7 Z M 32628.4 14909.7 L 32628.4 25523.7 Q 32628.4 27075.2 32918.4 27459.45 Q 33208.4 27843.7 34092.9 27945.2 L 34092.9 28467.2 L 28568.4 28467.2 L 28568.4 26654.7 Q 27596.9 27814.7 26625.4 28343.95 Q 25653.9 28873.2 24450.4 28873.2 Q 23304.9 28873.2 22413.15 28169.95 Q 21521.4 27466.7 21216.9 26524.2 Q 20912.4 25581.7 20912.4 23232.7 L 20912.4 17853.2 Q 20912.4 16316.2 20629.65 15939.2 Q 20346.9 15562.2 19447.9 15446.2 L 19447.9 14909.7 L 24972.4 14909.7 L 24972.4 24175.2 Q 24972.4 25625.2 25110.15 26045.7 Q 25247.9 26466.2 25545.15 26683.7 Q 25842.4 26901.2 26233.9 26901.2 Q 26755.9 26901.2 27176.4 26625.7 Q 27756.4 26248.7 28568.4 25103.2 L 28568.4 17853.2 Q 28568.4 16316.2 28285.65 15939.2 Q 28002.9 15562.2 27103.9 15446.2 L 27103.9 14909.7 L 32628.4 14909.7 Z M 41270.3 27089.7 L 41270.3 32135.7 Q 41270.3 33179.7 41437.05 33556.7 Q 41603.8 33933.7 41951.8 34107.7 Q 42299.8 34281.7 43314.8 34281.7 L 43314.8 34818.2 L 35586.3 34818.2 L 35586.3 34281.7 Q 36485.3 34252.7 36920.3 33774.2 Q 37210.3 33440.7 37210.3 32048.7 L 37210.3 17737.2 Q 37210.3 16301.7 36876.8 15902.95 Q 36543.3 15504.2 35586.3 15446.2 L 35586.3 14909.7 L 41270.3 14909.7 L 41270.3 16693.2 Q 41980.8 15649.2 42720.3 15185.2 Q 43778.8 14503.7 45025.8 14503.7 Q 46519.3 14503.7 47744.55 15446.2 Q 48969.8 16388.7 49607.8 18048.95 Q 50245.8 19709.2 50245.8 21623.2 Q 50245.8 23682.2 49586.05 25385.95 Q 48926.3 27089.7 47672.05 27981.45 Q 46417.8 28873.2 44880.8 28873.2 Q 43764.3 28873.2 42792.8 28380.2 Q 42067.8 28003.2 41270.3 27089.7  Z M 41270.3 25625.2 Q 42517.3 27394.2 43938.3 27394.2 Q 44721.3 27394.2 45228.8 26567.7 Q 45982.8 25349.7 45982.8 21927.7 Q 45982.8 18418.7 45156.3 17128.2 Q 44605.3 16272.7 43677.3 16272.7 Q 42212.8 16272.7 41270.3 18389.7 L 41270.3 25625.2 Z M 57756.7 27089.7 L 57756.7 32135.7 Q 57756.7 33179.7 57923.45 33556.7 Q 58090.2 33933.7 58438.2 34107.7 Q 58786.2 34281.7 59801.2 34281.7 L 59801.2 34818.2 L 52072.7 34818.2 L 52072.7 34281.7 Q 52971.7 34252.7 53406.7 33774.2 Q 53696.7 33440.7 53696.7 32048.7 L 53696.7 17737.2 Q 53696.7 16301.7 53363.2 15902.95 Q 53029.7 15504.2 52072.7 15446.2 L 52072.7 14909.7 L 57756.7 14909.7 L 57756.7 16693.2 Q 58467.2 15649.2 59206.7 15185.2 Q 60265.2 14503.7 61512.2 14503.7 Q 63005.7 14503.7 64230.95 15446.2 Q 65456.2 16388.7 66094.2 18048.95 Q 66732.2 19709.2 66732.2 21623.2 Q 66732.2 23682.2 66072.45 25385.95 Q 65412.7 27089.7 64158.45 27981.45 Q 62904.2 28873.2 61367.2 28873.2 Q 60250.7 28873.2 59279.2 28380.2 Q 58554.2 28003.2 57756.7 27089.7  Z M 57756.7 25625.2 Q 59003.7 27394.2 60424.7 27394.2 Q 61207.7 27394.2 61715.2 26567.7 Q 62469.2 25349.7 62469.2 21927.7 Q 62469.2 18418.7 61642.7 17128.2 Q 61091.7 16272.7 60163.7 16272.7 Q 58699.2 16272.7 57756.7 18389.7 L 57756.7 25625.2 Z M 74620.1 14909.7 L 74620.1 17983.7 Q 75968.6 15881.2 76983.6 15192.45 Q 77998.6 14503.7 78941.1 14503.7 Q 79753.1 14503.7 80238.85 15003.95 Q 80724.6 15504.2 80724.6 16417.7 Q 80724.6 17389.2 80253.35 17925.7 Q 79782.1 18462.2 79115.1 18462.2 Q 78346.6 18462.2 77781.1 17969.2 Q 77215.6 17476.2 77114.1 17418.2 Q 76969.1 17331.2 76780.6 17331.2 Q 76360.1 17331.2 75983.1 17650.2 Q 75388.6 18143.2 75084.1 19056.7 Q 74620.1 20463.2 74620.1 22159.7 L 74620.1 25277.2 L 74634.6 26089.2 Q 74634.6 26915.7 74736.1 27147.7 Q 74910.1 27539.2 75250.85 27720.45 Q 75591.6 27901.7 76403.6 27945.2 L 76403.6 28467.2 L 69081.1 28467.2 L 69081.1 27945.2 Q 69965.6 27872.7 70277.35 27459.45 Q 70589.1 27046.2 70589.1 25277.2 L 70589.1 17780.7 Q 70589.1 16620.7 70473.1 16301.7 Q 70328.1 15895.7 70052.6 15707.2 Q 69777.1 15518.7 69081.1 15446.2 L 69081.1 14909.7 L 74620.1 14909.7 Z M 93636.5 21202.7 L 86198 21202.7 Q 86328.5 23899.7 87633.5 25465.7 Q 88634 26669.2 90040.5 26669.2 Q 90910.5 26669.2 91621 26183.45 Q 92331.5 25697.7 93143.5 24436.2 L 93636.5 24755.2 Q 92534.5 27002.7 91200.5 27937.95 Q 89866.5 28873.2 88112 28873.2 Q 85096 28873.2 83544.5 26553.2 Q 82297.5 24682.7 82297.5 21913.2 Q 82297.5 18520.2 84131.75 16511.95 Q 85966 14503.7 88431 14503.7 Q 90490 14503.7 92005.25 16192.95 Q 93520.5 17882.2 93636.5 21202.7  Z M 90069.5 20231.2 Q 90069.5 17896.7 89815.75 17026.7 Q 89562 16156.7 89025.5 15707.2 Q 88721 15446.2 88213.5 15446.2 Q 87459.5 15446.2 86981 16185.7 Q 86125.5 17476.2 86125.5 19723.7 L 86125.5 20231.2 L 90069.5 20231.2 Z M 103880.4 14532.7 L 104097.9 19158.2 L 103604.9 19158.2 Q 102720.4 17099.2 101770.65 16345.2 Q 100820.9 15591.2 99878.4 15591.2 Q 99283.9 15591.2 98863.4 15989.95 Q 98442.9 16388.7 98442.9 16910.7 Q 98442.9 17302.2 98732.9 17664.7 Q 99196.9 18259.2 101328.4 19701.95 Q 103459.9 21144.7 104134.15 22152.45 Q 104808.4 23160.2 104808.4 24407.2 Q 104808.4 25538.2 104242.9 26625.7 Q 103677.4 27713.2 102647.9 28293.2 Q 101618.4 28873.2 100371.4 28873.2 Q 99399.9 28873.2 97775.9 28264.2 Q 97340.9 28104.7 97181.4 28104.7 Q 96702.9 28104.7 96383.9 28829.7 L 95905.4 28829.7 L 95673.4 23957.7 L 96166.4 23957.7 Q 96818.9 25871.7 97957.15 26828.7 Q 99095.4 27785.7 100110.4 27785.7 Q 100806.4 27785.7 101248.65 27357.95 Q 101690.9 26930.2 101690.9 26321.2 Q 101690.9 25625.2 101255.9 25117.7 Q 100820.9 24610.2 99312.9 23580.7 Q 97094.4 22043.7 96441.9 21231.7 Q 95484.9 20042.7 95484.9 18607.2 Q 95484.9 17041.2 96565.15 15772.45 Q 97645.4 14503.7 99689.9 14503.7 Q 100791.9 14503.7 101821.4 15040.2 Q 102212.9 15257.7 102459.4 15257.7 Q 102720.4 15257.7 102879.9 15148.95 Q 103039.4 15040.2 103387.4 14532.7 L 103880.4 14532.7 Z M 115400.4 14532.7 L 115617.9 19158.2 L 115124.9 19158.2 Q 114240.4 17099.2 113290.65 16345.2 Q 112340.9 15591.2 111398.4 15591.2 Q 110803.9 15591.2 110383.4 15989.95 Q 109962.9 16388.7 109962.9 16910.7 Q 109962.9 17302.2 110252.9 17664.7 Q 110716.9 18259.2 112848.4 19701.95 Q 114979.9 21144.7 115654.15 22152.45 Q 116328.4 23160.2 116328.4 24407.2 Q 116328.4 25538.2 115762.9 26625.7 Q 115197.4 27713.2 114167.9 28293.2 Q 113138.4 28873.2 111891.4 28873.2 Q 110919.9 28873.2 109295.9 28264.2 Q 108860.9 28104.7 108701.4 28104.7 Q 108222.9 28104.7 107903.9 28829.7 L 107425.4 28829.7 L 107193.4 23957.7 L 107686.4 23957.7 Q 108338.9 25871.7 109477.15 26828.7 Q 110615.4 27785.7 111630.4 27785.7 Q 112326.4 27785.7 112768.65 27357.95 Q 113210.9 26930.2 113210.9 26321.2 Q 113210.9 25625.2 112775.9 25117.7 Q 112340.9 24610.2 110832.9 23580.7 Q 108614.4 22043.7 107961.9 21231.7 Q 107004.9 20042.7 107004.9 18607.2 Q 107004.9 17041.2 108085.15 15772.45 Q 109165.4 14503.7 111209.9 14503.7 Q 112311.9 14503.7 113341.4 15040.2 Q 113732.9 15257.7 113979.4 15257.7 Q 114240.4 15257.7 114399.9 15148.95 Q 114559.4 15040.2 114907.4 14532.7 L 115400.4 14532.7 Z M 121613.4 8341.2 Q 122555.9 8341.2 123208.4 9000.95 Q 123860.9 9660.7 123860.9 10588.7 Q 123860.9 11516.7 123201.15 12169.2 Q 122541.4 12821.7 121613.4 12821.7 Q 120685.4 12821.7 120032.9 12169.2 Q 119380.4 11516.7 119380.4 10588.7 Q 119380.4 9660.7 120032.9 9000.95 Q 120685.4 8341.2 121613.4 8341.2  Z M 123643.4 14909.7 L 123643.4 25654.2 Q 123643.4 27089.7 123976.9 27488.45 Q 124310.4 27887.2 125281.9 27945.2 L 125281.9 28467.2 L 117959.4 28467.2 L 117959.4 27945.2 Q 118858.4 27916.2 119293.4 27423.2 Q 119583.4 27089.7 119583.4 25654.2 L 119583.4 17737.2 Q 119583.4 16301.7 119249.9 15902.95 Q 118916.4 15504.2 117959.4 15446.2 L 117959.4 14909.7 L 123643.4 14909.7 Z M 134772.1 23145.7 L 126318.6 23145.7 L 126318.6 20144.2 L 134772.1 20144.2 L 134772.1 23145.7 Z M 9443 47322.9 Q 11212 47322.9 12734.5 48236.4 Q 14257 49149.9 15047.25 50831.9 Q 15837.5 52513.9 15837.5 54514.9 Q 15837.5 57400.4 14373 59343.4 Q 12604 61692.4 9486.5 61692.4 Q 6427 61692.4 4774 59546.4 Q 3121 57400.4 3121 54572.9 Q 3121 51658.4 4810.25 49490.65 Q 6499.5 47322.9 9443 47322.9  Z M 9501 48352.4 Q 8761.5 48352.4 8232.25 48910.65 Q 7703 49468.9 7536.25 51114.65 Q 7369.5 52760.4 7369.5 55689.4 Q 7369.5 57240.9 7572.5 58589.4 Q 7732 59618.9 8254 60155.4 Q 8776 60691.9 9443 60691.9 Q 10095.5 60691.9 10530.5 60329.4 Q 11096 59836.4 11284.5 58951.9 Q 11574.5 57574.4 11574.5 53383.9 Q 11574.5 50918.9 11299 49998.15 Q 11023.5 49077.4 10487 48656.9 Q 10110 48352.4 9501 48352.4  Z M 23435.5 47728.9 L 23435.5 49483.4 Q 24479.5 48352.4 25436.5 47837.65 Q 26393.5 47322.9 27495.5 47322.9 Q 28815 47322.9 29685 48055.15 Q 30555 48787.4 30845 49874.9 Q 31077 50701.4 31077 53050.4 L 31077 58328.4 Q 31077 59894.4 31359.75 60278.65 Q 31642.5 60662.9 32541.5 60764.4 L 32541.5 61286.4 L 25683 61286.4 L 25683 60764.4 Q 26451.5 60662.9 26785 60126.4 Q 27017 59763.9 27017 58328.4 L 27017 52296.4 Q 27017 50628.9 26886.5 50193.9 Q 26756 49758.9 26444.25 49519.65 Q 26132.5 49280.4 25755.5 49280.4 Q 24508.5 49280.4 23435.5 51063.9 L 23435.5 58328.4 Q 23435.5 59850.9 23718.25 60256.9 Q 24001 60662.9 24769.5 60764.4 L 24769.5 61286.4 L 17911 61286.4 L 17911 60764.4 Q 18766.5 60677.4 19129 60213.4 Q 19375.5 59894.4 19375.5 58328.4 L 19375.5 50672.4 Q 19375.5 49135.4 19092.75 48758.4 Q 18810 48381.4 17911 48265.4 L 17911 47728.9 L 23435.5 47728.9 Z M 48201.4 47322.9 Q 49970.4 47322.9 51492.9 48236.4 Q 53015.4 49149.9 53805.65 50831.9 Q 54595.9 52513.9 54595.9 54514.9 Q 54595.9 57400.4 53131.4 59343.4 Q 51362.4 61692.4 48244.9 61692.4 Q 45185.4 61692.4 43532.4 59546.4 Q 41879.4 57400.4 41879.4 54572.9 Q 41879.4 51658.4 43568.65 49490.65 Q 45257.9 47322.9 48201.4 47322.9  Z M 48259.4 48352.4 Q 47519.9 48352.4 46990.65 48910.65 Q 46461.4 49468.9 46294.65 51114.65 Q 46127.9 52760.4 46127.9 55689.4 Q 46127.9 57240.9 46330.9 58589.4 Q 46490.4 59618.9 47012.4 60155.4 Q 47534.4 60691.9 48201.4 60691.9 Q 48853.9 60691.9 49288.9 60329.4 Q 49854.4 59836.4 50042.9 58951.9 Q 50332.9 57574.4 50332.9 53383.9 Q 50332.9 50918.9 50057.4 49998.15 Q 49781.9 49077.4 49245.4 48656.9 Q 48868.4 48352.4 48259.4 48352.4  Z M 62599.9 49149.9 L 62599.9 58560.4 Q 62599.9 59923.4 62889.9 60271.4 Q 63353.9 60807.9 64600.9 60764.4 L 64600.9 61286.4 L 56611.4 61286.4 L 56611.4 60764.4 Q 57524.9 60749.9 57909.15 60554.15 Q 58293.4 60358.4 58438.4 60010.4 Q 58583.4 59662.4 58583.4 58560.4 L 58583.4 49149.9 L 56611.4 49149.9 L 56611.4 47728.9 L 58583.4 47728.9 L 58583.4 46728.4 L 58568.9 46046.9 Q 58568.9 43958.9 60098.65 42566.9 Q 61628.4 41174.9 64238.4 41174.9 Q 66021.9 41174.9 66884.65 41841.9 Q 67747.4 42508.9 67747.4 43320.9 Q 67747.4 43973.4 67210.9 44451.9 Q 66674.4 44930.4 65789.9 44930.4 Q 65035.9 44930.4 64593.65 44538.9 Q 64151.4 44147.4 64151.4 43668.9 Q 64151.4 43538.4 64238.4 43132.4 Q 64296.4 42885.9 64296.4 42668.4 Q 64296.4 42363.9 64122.4 42218.9 Q 63890.4 42001.4 63556.9 42001.4 Q 63136.4 42001.4 62853.65 42349.4 Q 62570.9 42697.4 62570.9 43465.9 L 62599.9 46003.4 L 62599.9 47728.9 L 64600.9 47728.9 L 64600.9 49149.9 L 62599.9 49149.9 Z M 20782 74443.6 L 20782 79765.1 L 20260 79765.1 Q 19796 77923.6 19230.5 77118.85 Q 18665 76314.1 17679 75835.6 Q 17128 75574.6 15750.5 75574.6 L 14286 75574.6 L 14286 90741.6 Q 14286 92249.6 14452.75 92626.6 Q 14619.5 93003.6 15105.25 93286.35 Q 15591 93569.1 16432 93569.1 L 17084.5 93569.1 L 17084.5 94105.6 L 6789.5 94105.6 L 6789.5 93569.1 L 7442 93569.1 Q 8297.5 93569.1 8819.5 93264.6 Q 9196.5 93061.6 9414 92568.6 Q 9573.5 92220.6 9573.5 90741.6 L 9573.5 75574.6 L 8152.5 75574.6 Q 6166 75574.6 5267 76415.6 Q 4005.5 77590.1 3672 79765.1 L 3121 79765.1 L 3121 74443.6 L 20782 74443.6 Z M 29206.2 80142.1 Q 30975.2 80142.1 32497.7 81055.6 Q 34020.2 81969.1 34810.45 83651.1 Q 35600.7 85333.1 35600.7 87334.1 Q 35600.7 90219.6 34136.2 92162.6 Q 32367.2 94511.6 29249.7 94511.6 Q 26190.2 94511.6 24537.2 92365.6 Q 22884.2 90219.6 22884.2 87392.1 Q 22884.2 84477.6 24573.45 82309.85 Q 26262.7 80142.1 29206.2 80142.1  Z M 29264.2 81171.6 Q 28524.7 81171.6 27995.45 81729.85 Q 27466.2 82288.1 27299.45 83933.85 Q 27132.7 85579.6 27132.7 88508.6 Q 27132.7 90060.1 27335.7 91408.6 Q 27495.2 92438.1 28017.2 92974.6 Q 28539.2 93511.1 29206.2 93511.1 Q 29858.7 93511.1 30293.7 93148.6 Q 30859.2 92655.6 31047.7 91771.1 Q 31337.7 90393.6 31337.7 86203.1 Q 31337.7 83738.1 31062.2 82817.35 Q 30786.7 81896.6 30250.2 81476.1 Q 29873.2 81171.6 29264.2 81171.6  Z M 42908.7 74443.6 L 42908.7 81911.1 Q 44619.7 80142.1 46649.7 80142.1 Q 48041.7 80142.1 49274.2 80961.35 Q 50506.7 81780.6 51202.7 83288.6 Q 51898.7 84796.6 51898.7 86768.6 Q 51898.7 88987.1 51014.2 90799.6 Q 50129.7 92612.1 48650.7 93561.85 Q 47171.7 94511.6 45272.2 94511.6 Q 44170.2 94511.6 43314.7 94163.6 Q 42459.2 93815.6 41632.7 93032.6 L 39385.2 94497.1 L 38892.2 94497.1 L 38892.2 77256.6 Q 38892.2 76082.1 38790.7 75806.6 Q 38645.7 75400.6 38333.95 75204.85 Q 38022.2 75009.1 37282.7 74980.1 L 37282.7 74443.6 L 42908.7 74443.6 Z M 42908.7 83201.6 L 42908.7 89233.6 Q 42908.7 91075.1 42995.7 91582.6 Q 43140.7 92438.1 43691.7 92967.35 Q 44242.7 93496.6 45098.2 93496.6 Q 45837.7 93496.6 46366.95 93076.1 Q 46896.2 92655.6 47251.45 91408.6 Q 47606.7 90161.6 47606.7 86913.6 Q 47606.7 83796.1 46823.7 82636.1 Q 46258.2 81795.1 45301.2 81795.1 Q 44054.2 81795.1 42908.7 83201.6  Z M 61628.1 92104.6 Q 59148.6 94294.1 57176.6 94294.1 Q 56016.6 94294.1 55248.1 93532.85 Q 54479.6 92771.6 54479.6 91626.1 Q 54479.6 90074.6 55813.6 88834.85 Q 57147.6 87595.1 61628.1 85536.1 L 61628.1 84173.1 Q 61628.1 82636.1 61461.35 82237.35 Q 61294.6 81838.6 60830.6 81541.35 Q 60366.6 81244.1 59786.6 81244.1 Q 58844.1 81244.1 58235.1 81664.6 Q 57858.1 81925.6 57858.1 82273.6 Q 57858.1 82578.1 58264.1 83027.6 Q 58815.1 83651.1 58815.1 84231.1 Q 58815.1 84941.6 58285.85 85441.85 Q 57756.6 85942.1 56901.1 85942.1 Q 55987.6 85942.1 55371.35 85391.1 Q 54755.1 84840.1 54755.1 84100.6 Q 54755.1 83056.6 55581.6 82106.85 Q 56408.1 81157.1 57887.1 80649.6 Q 59366.1 80142.1 60961.1 80142.1 Q 62889.6 80142.1 64013.35 80961.35 Q 65137.1 81780.6 65470.6 82737.6 Q 65673.6 83346.6 65673.6 85536.1 L 65673.6 90799.6 Q 65673.6 91727.6 65746.1 91966.85 Q 65818.6 92206.1 65963.6 92322.1 Q 66108.6 92438.1 66297.1 92438.1 Q 66674.1 92438.1 67065.6 91901.6 L 67500.6 92249.6 Q 66775.6 93322.6 65999.85 93808.35 Q 65224.1 94294.1 64238.1 94294.1 Q 63078.1 94294.1 62425.6 93750.35 Q 61773.1 93206.6 61628.1 92104.6  Z M 61628.1 91046.1 L 61628.1 86507.6 Q 59873.6 87537.1 59018.1 88711.6 Q 58452.6 89494.6 58452.6 90292.1 Q 58452.6 90959.1 58931.1 91466.6 Q 59293.6 91858.1 59946.1 91858.1 Q 60671.1 91858.1 61628.1 91046.1  Z M 80057.6 90611.1 L 80507.1 90959.1 Q 79550.1 92757.1 78121.85 93634.35 Q 76693.6 94511.6 75084.1 94511.6 Q 72372.6 94511.6 70748.6 92467.1 Q 69124.6 90422.6 69124.6 87551.6 Q 69124.6 84782.1 70603.6 82679.6 Q 72387.1 80142.1 75519.1 80142.1 Q 77621.6 80142.1 78861.35 81200.6 Q 80101.1 82259.1 80101.1 83564.1 Q 80101.1 84390.6 79600.85 84883.6 Q 79100.6 85376.6 78288.6 85376.6 Q 77433.1 85376.6 76874.85 84811.1 Q 76316.6 84245.6 76186.1 82795.6 Q 76099.1 81882.1 75765.6 81519.6 Q 75432.1 81157.1 74982.6 81157.1 Q 74286.6 81157.1 73793.6 81896.6 Q 73039.6 83013.1 73039.6 85318.6 Q 73039.6 87232.6 73648.6 88979.85 Q 74257.6 90727.1 75316.1 91582.6 Q 76113.6 92206.1 77201.1 92206.1 Q 77911.6 92206.1 78549.6 91872.6 Q 79187.6 91539.1 80057.6 90611.1  Z M 93216 90611.1 L 93665.5 90959.1 Q 92708.5 92757.1 91280.25 93634.35 Q 89852 94511.6 88242.5 94511.6 Q 85531 94511.6 83907 92467.1 Q 82283 90422.6 82283 87551.6 Q 82283 84782.1 83762 82679.6 Q 85545.5 80142.1 88677.5 80142.1 Q 90780 80142.1 92019.75 81200.6 Q 93259.5 82259.1 93259.5 83564.1 Q 93259.5 84390.6 92759.25 84883.6 Q 92259 85376.6 91447 85376.6 Q 90591.5 85376.6 90033.25 84811.1 Q 89475 84245.6 89344.5 82795.6 Q 89257.5 81882.1 88924 81519.6 Q 88590.5 81157.1 88141 81157.1 Q 87445 81157.1 86952 81896.6 Q 86198 83013.1 86198 85318.6 Q 86198 87232.6 86807 88979.85 Q 87416 90727.1 88474.5 91582.6 Q 89272 92206.1 90359.5 92206.1 Q 91070 92206.1 91708 91872.6 Q 92346 91539.1 93216 90611.1  Z M 101705.4 80142.1 Q 103474.4 80142.1 104996.9 81055.6 Q 106519.4 81969.1 107309.65 83651.1 Q 108099.9 85333.1 108099.9 87334.1 Q 108099.9 90219.6 106635.4 92162.6 Q 104866.4 94511.6 101748.9 94511.6 Q 98689.4 94511.6 97036.4 92365.6 Q 95383.4 90219.6 95383.4 87392.1 Q 95383.4 84477.6 97072.65 82309.85 Q 98761.9 80142.1 101705.4 80142.1  Z M 101763.4 81171.6 Q 101023.9 81171.6 100494.65 81729.85 Q 99965.4 82288.1 99798.65 83933.85 Q 99631.9 85579.6 99631.9 88508.6 Q 99631.9 90060.1 99834.9 91408.6 Q 99994.4 92438.1 100516.4 92974.6 Q 101038.4 93511.1 101705.4 93511.1 Q 102357.9 93511.1 102792.9 93148.6 Q 103358.4 92655.6 103546.9 91771.1 Q 103836.9 90393.6 103836.9 86203.1 Q 103836.9 83738.1 103561.4 82817.35 Q 103285.9 81896.6 102749.4 81476.1 Q 102372.4 81171.6 101763.4 81171.6  Z M 9936 117963.8 L 9936 123473.8 Q 9936 125068.8 10131.75 125482.05 Q 10327.5 125895.3 10820.5 126141.8 Q 11313.5 126388.3 12662 126388.3 L 12662 126924.8 L 2599 126924.8 L 2599 126388.3 Q 3962 126388.3 4447.75 126134.55 Q 4933.5 125880.8 5129.25 125474.8 Q 5325 125068.8 5325 123473.8 L 5325 110713.8 Q 5325 109118.8 5129.25 108705.55 Q 4933.5 108292.3 4440.5 108045.8 Q 3947.5 107799.3 2599 107799.3 L 2599 107262.8 L 11734 107262.8 Q 15301 107262.8 16954 107755.8 Q 18607 108248.8 19651 109575.55 Q 20695 110902.3 20695 112685.8 Q 20695 114860.8 19129 116281.8 Q 18128.5 117180.8 16330.5 117630.3 L 21057.5 124285.8 Q 21985.5 125576.3 22377 125895.3 Q 22971.5 126344.8 23754.5 126388.3 L 23754.5 126924.8 L 17563 126924.8 L 11226.5 117963.8 L 9936 117963.8 Z M 9936 108321.3 L 9936 116934.3 L 10762.5 116934.3 Q 12778 116934.3 13778.5 116564.55 Q 14779 116194.8 15351.75 115230.55 Q 15924.5 114266.3 15924.5 112714.8 Q 15924.5 110467.3 14873.25 109394.3 Q 13822 108321.3 11487.5 108321.3 L 9936 108321.3 Z M 30844.6 112961.3 Q 32613.6 112961.3 34136.1 113874.8 Q 35658.6 114788.3 36448.85 116470.3 Q 37239.1 118152.3 37239.1 120153.3 Q 37239.1 123038.8 35774.6 124981.8 Q 34005.6 127330.8 30888.1 127330.8 Q 27828.6 127330.8 26175.6 125184.8 Q 24522.6 123038.8 24522.6 120211.3 Q 24522.6 117296.8 26211.85 115129.05 Q 27901.1 112961.3 30844.6 112961.3  Z M 30902.6 113990.8 Q 30163.1 113990.8 29633.85 114549.05 Q 29104.6 115107.3 28937.85 116753.05 Q 28771.1 118398.8 28771.1 121327.8 Q 28771.1 122879.3 28974.1 124227.8 Q 29133.6 125257.3 29655.6 125793.8 Q 30177.6 126330.3 30844.6 126330.3 Q 31497.1 126330.3 31932.1 125967.8 Q 32497.6 125474.8 32686.1 124590.3 Q 32976.1 123212.8 32976.1 119022.3 Q 32976.1 116557.3 32700.6 115636.55 Q 32425.1 114715.8 31888.6 114295.3 Q 31511.6 113990.8 30902.6 113990.8  Z M 45692.6 112961.3 Q 47461.6 112961.3 48984.1 113874.8 Q 50506.6 114788.3 51296.85 116470.3 Q 52087.1 118152.3 52087.1 120153.3 Q 52087.1 123038.8 50622.6 124981.8 Q 48853.6 127330.8 45736.1 127330.8 Q 42676.6 127330.8 41023.6 125184.8 Q 39370.6 123038.8 39370.6 120211.3 Q 39370.6 117296.8 41059.85 115129.05 Q 42749.1 112961.3 45692.6 112961.3  Z M 45750.6 113990.8 Q 45011.1 113990.8 44481.85 114549.05 Q 43952.6 115107.3 43785.85 116753.05 Q 43619.1 118398.8 43619.1 121327.8 Q 43619.1 122879.3 43822.1 124227.8 Q 43981.6 125257.3 44503.6 125793.8 Q 45025.6 126330.3 45692.6 126330.3 Q 46345.1 126330.3 46780.1 125967.8 Q 47345.6 125474.8 47534.1 124590.3 Q 47824.1 123212.8 47824.1 119022.3 Q 47824.1 116557.3 47548.6 115636.55 Q 47273.1 114715.8 46736.6 114295.3 Q 46359.6 113990.8 45750.6 113990.8  Z M 59525.6 108408.3 L 59525.6 113367.3 L 62744.6 113367.3 L 62744.6 114802.8 L 59525.6 114802.8 L 59525.6 123169.3 Q 59525.6 124343.8 59634.35 124684.55 Q 59743.1 125025.3 60018.6 125235.55 Q 60294.1 125445.8 60526.1 125445.8 Q 61468.6 125445.8 62309.6 124010.3 L 62744.6 124329.3 Q 61570.1 127113.3 58931.1 127113.3 Q 57640.6 127113.3 56748.85 126395.55 Q 55857.1 125677.8 55610.6 124793.3 Q 55465.6 124300.3 55465.6 122125.3 L 55465.6 114802.8 L 53696.6 114802.8 L 53696.6 114295.3 Q 55523.6 113004.8 56806.85 111583.8 Q 58090.1 110162.8 59047.1 108408.3 L 59525.6 108408.3 Z M 78339.2 117963.8 L 78339.2 123473.8 Q 78339.2 125068.8 78534.95 125482.05 Q 78730.7 125895.3 79223.7 126141.8 Q 79716.7 126388.3 81065.2 126388.3 L 81065.2 126924.8 L 71002.2 126924.8 L 71002.2 126388.3 Q 72365.2 126388.3 72850.95 126134.55 Q 73336.7 125880.8 73532.45 125474.8 Q 73728.2 125068.8 73728.2 123473.8 L 73728.2 110713.8 Q 73728.2 109118.8 73532.45 108705.55 Q 73336.7 108292.3 72843.7 108045.8 Q 72350.7 107799.3 71002.2 107799.3 L 71002.2 107262.8 L 80137.2 107262.8 Q 83704.2 107262.8 85357.2 107755.8 Q 87010.2 108248.8 88054.2 109575.55 Q 89098.2 110902.3 89098.2 112685.8 Q 89098.2 114860.8 87532.2 116281.8 Q 86531.7 117180.8 84733.7 117630.3 L 89460.7 124285.8 Q 90388.7 125576.3 90780.2 125895.3 Q 91374.7 126344.8 92157.7 126388.3 L 92157.7 126924.8 L 85966.2 126924.8 L 79629.7 117963.8 L 78339.2 117963.8 Z M 78339.2 108321.3 L 78339.2 116934.3 L 79165.7 116934.3 Q 81181.2 116934.3 82181.7 116564.55 Q 83182.2 116194.8 83754.95 115230.55 Q 84327.7 114266.3 84327.7 112714.8 Q 84327.7 110467.3 83276.45 109394.3 Q 82225.2 108321.3 79890.7 108321.3 L 78339.2 108321.3 Z M 99247.8 112961.3 Q 101016.8 112961.3 102539.3 113874.8 Q 104061.8 114788.3 104852.05 116470.3 Q 105642.3 118152.3 105642.3 120153.3 Q 105642.3 123038.8 104177.8 124981.8 Q 102408.8 127330.8 99291.3 127330.8 Q 96231.8 127330.8 94578.8 125184.8 Q 92925.8 123038.8 92925.8 120211.3 Q 92925.8 117296.8 94615.05 115129.05 Q 96304.3 112961.3 99247.8 112961.3  Z M 99305.8 113990.8 Q 98566.3 113990.8 98037.05 114549.05 Q 97507.8 115107.3 97341.05 116753.05 Q 97174.3 118398.8 97174.3 121327.8 Q 97174.3 122879.3 97377.3 124227.8 Q 97536.8 125257.3 98058.8 125793.8 Q 98580.8 126330.3 99247.8 126330.3 Q 99900.3 126330.3 100335.3 125967.8 Q 100900.8 125474.8 101089.3 124590.3 Q 101379.3 123212.8 101379.3 119022.3 Q 101379.3 116557.3 101103.8 115636.55 Q 100828.3 114715.8 100291.8 114295.3 Q 99914.8 113990.8 99305.8 113990.8  Z M 113080.8 108408.3 L 113080.8 113367.3 L 116299.8 113367.3 L 116299.8 114802.8 L 113080.8 114802.8 L 113080.8 123169.3 Q 113080.8 124343.8 113189.55 124684.55 Q 113298.3 125025.3 113573.8 125235.55 Q 113849.3 125445.8 114081.3 125445.8 Q 115023.8 125445.8 115864.8 124010.3 L 116299.8 124329.3 Q 115125.3 127113.3 112486.3 127113.3 Q 111195.8 127113.3 110304.05 126395.55 Q 109412.3 125677.8 109165.8 124793.3 Q 109020.8 124300.3 109020.8 122125.3 L 109020.8 114802.8 L 107251.8 114802.8 L 107251.8 114295.3 Q 109078.8 113004.8 110362.05 111583.8 Q 111645.3 110162.8 112602.3 108408.3 L 113080.8 108408.3 Z " fill-rule="nonzero" style="fill:#c2c937;;fill-opacity:1;"/>
</svg>