<svg version="1.1" x="0" y="0" width="100%" height="100%" viewBox="0 0 681420.8 69734.4" xmlns="http://www.w3.org/2000/svg">
  <path d="M 20274.5 8355.7 L 20782 14561.7 L 20274.5 14561.7 Q 19506 12241.7 18288 11067.2 Q 16533.5 9370.7 13778.5 9370.7 Q 10023 9370.7 8065.5 12343.2 Q 6427 14851.7 6427 18317.2 Q 6427 21130.2 7514.5 23450.2 Q 8602 25770.2 10363.75 26850.45 Q 12125.5 27930.7 13981.5 27930.7 Q 15069 27930.7 16084 27655.2 Q 17099 27379.7 18041.5 26843.2 L 18041.5 21159.2 Q 18041.5 19680.2 17816.75 19223.45 Q 17592 18766.7 17120.75 18527.45 Q 16649.5 18288.2 15460.5 18288.2 L 15460.5 17737.2 L 23073 17737.2 L 23073 18288.2 L 22710.5 18288.2 Q 21579.5 18288.2 21159 19042.2 Q 20869 19578.7 20869 21159.2 L 20869 27176.7 Q 19201.5 28075.7 17577.5 28496.2 Q 15953.5 28916.7 13967 28916.7 Q 8268.5 28916.7 5310.5 25262.7 Q 3092 22522.2 3092 18940.7 Q 3092 16345.2 4339 13967.2 Q 5818 11139.7 8399 9617.2 Q 10559.5 8355.7 13503 8355.7 Q 14576 8355.7 15453.25 8529.7 Q 16330.5 8703.7 17940 9298.2 Q 18752 9602.7 19027.5 9602.7 Q 19303 9602.7 19498.75 9348.95 Q 19694.5 9095.2 19738 8355.7 L 20274.5 8355.7 Z M 26610.6 20187.7 Q 26596.1 23145.7 28046.1 24827.7 Q 29496.1 26509.7 31453.6 26509.7 Q 32758.6 26509.7 33722.85 25791.95 Q 34687.1 25074.2 35339.6 23334.2 L 35789.1 23624.2 Q 35484.6 25610.7 34020.1 27241.95 Q 32555.6 28873.2 30351.6 28873.2 Q 27959.1 28873.2 26255.35 27009.95 Q 24551.6 25146.7 24551.6 22000.2 Q 24551.6 18592.7 26298.85 16685.95 Q 28046.1 14779.2 30685.1 14779.2 Q 32918.1 14779.2 34353.6 16250.95 Q 35789.1 17722.7 35789.1 20187.7 L 26610.6 20187.7 Z M 26610.6 19346.7 L 32758.6 19346.7 Q 32686.1 18070.7 32454.1 17548.7 Q 32091.6 16736.7 31373.85 16272.7 Q 30656.1 15808.7 29873.1 15808.7 Q 28669.6 15808.7 27719.85 16743.95 Q 26770.1 17679.2 26610.6 19346.7  Z M 41407.5 17606.7 Q 43742 14793.7 45859 14793.7 Q 46946.5 14793.7 47729.5 15337.45 Q 48512.5 15881.2 48976.5 17128.2 Q 49295.5 17998.2 49295.5 19796.2 L 49295.5 25465.7 Q 49295.5 26727.2 49498.5 27176.7 Q 49658 27539.2 50013.25 27742.2 Q 50368.5 27945.2 51325.5 27945.2 L 51325.5 28467.2 L 44757 28467.2 L 44757 27945.2 L 45032.5 27945.2 Q 45960.5 27945.2 46330.25 27662.45 Q 46700 27379.7 46845 26828.7 Q 46903 26611.2 46903 25465.7 L 46903 20028.2 Q 46903 18215.7 46431.75 17396.45 Q 45960.5 16577.2 44844 16577.2 Q 43118.5 16577.2 41407.5 18462.2 L 41407.5 25465.7 Q 41407.5 26814.2 41567 27133.2 Q 41770 27553.7 42125.25 27749.45 Q 42480.5 27945.2 43568 27945.2 L 43568 28467.2 L 36999.5 28467.2 L 36999.5 27945.2 L 37289.5 27945.2 Q 38304.5 27945.2 38659.75 27430.45 Q 39015 26915.7 39015 25465.7 L 39015 20535.7 Q 39015 18143.2 38906.25 17621.2 Q 38797.5 17099.2 38572.75 16910.7 Q 38348 16722.2 37971 16722.2 Q 37565 16722.2 36999.5 16939.7 L 36782 16417.7 L 40784 14793.7 L 41407.5 14793.7 L 41407.5 17606.7 Z M 54617 20187.7 Q 54602.5 23145.7 56052.5 24827.7 Q 57502.5 26509.7 59460 26509.7 Q 60765 26509.7 61729.25 25791.95 Q 62693.5 25074.2 63346 23334.2 L 63795.5 23624.2 Q 63491 25610.7 62026.5 27241.95 Q 60562 28873.2 58358 28873.2 Q 55965.5 28873.2 54261.75 27009.95 Q 52558 25146.7 52558 22000.2 Q 52558 18592.7 54305.25 16685.95 Q 56052.5 14779.2 58691.5 14779.2 Q 60924.5 14779.2 62360 16250.95 Q 63795.5 17722.7 63795.5 20187.7 L 54617 20187.7 Z M 54617 19346.7 L 60765 19346.7 Q 60692.5 18070.7 60460.5 17548.7 Q 60098 16736.7 59380.25 16272.7 Q 58662.5 15808.7 57879.5 15808.7 Q 56676 15808.7 55726.25 16743.95 Q 54776.5 17679.2 54617 19346.7  Z M 82347.9 26973.7 Q 81376.4 27988.7 80448.4 28430.95 Q 79520.4 28873.2 78447.4 28873.2 Q 76272.4 28873.2 74648.4 27053.45 Q 73024.4 25233.7 73024.4 22377.2 Q 73024.4 19520.7 74822.4 17149.95 Q 76620.4 14779.2 79447.9 14779.2 Q 81202.4 14779.2 82347.9 15895.7 L 82347.9 13445.2 Q 82347.9 11168.7 82239.15 10646.7 Q 82130.4 10124.7 81898.4 9936.2 Q 81666.4 9747.7 81318.4 9747.7 Q 80941.4 9747.7 80317.9 9979.7 L 80129.4 9472.2 L 84087.9 7848.2 L 84740.4 7848.2 L 84740.4 23203.7 Q 84740.4 25538.2 84849.15 26052.95 Q 84957.9 26567.7 85197.15 26770.7 Q 85436.4 26973.7 85755.4 26973.7 Q 86146.9 26973.7 86799.4 26727.2 L 86958.9 27234.7 L 83014.9 28873.2 L 82347.9 28873.2 L 82347.9 26973.7 Z M 82347.9 25958.7 L 82347.9 19114.7 Q 82260.9 18128.7 81825.9 17316.7 Q 81390.9 16504.7 80673.15 16091.45 Q 79955.4 15678.2 79273.9 15678.2 Q 77997.9 15678.2 76997.4 16823.7 Q 75677.9 18331.7 75677.9 21231.7 Q 75677.9 24160.7 76953.9 25719.45 Q 78229.9 27278.2 79795.9 27278.2 Q 81115.4 27278.2 82347.9 25958.7  Z M 90047.4 20187.7 Q 90032.9 23145.7 91482.9 24827.7 Q 92932.9 26509.7 94890.4 26509.7 Q 96195.4 26509.7 97159.65 25791.95 Q 98123.9 25074.2 98776.4 23334.2 L 99225.9 23624.2 Q 98921.4 25610.7 97456.9 27241.95 Q 95992.4 28873.2 93788.4 28873.2 Q 91395.9 28873.2 89692.15 27009.95 Q 87988.4 25146.7 87988.4 22000.2 Q 87988.4 18592.7 89735.65 16685.95 Q 91482.9 14779.2 94121.9 14779.2 Q 96354.9 14779.2 97790.4 16250.95 Q 99225.9 17722.7 99225.9 20187.7 L 90047.4 20187.7 Z M 90047.4 19346.7 L 96195.4 19346.7 Q 96122.9 18070.7 95890.9 17548.7 Q 95528.4 16736.7 94810.65 16272.7 Q 94092.9 15808.7 93309.9 15808.7 Q 92106.4 15808.7 91156.65 16743.95 Q 90206.9 17679.2 90047.4 19346.7  Z M 104829.8 10820.7 L 104829.8 15185.2 L 107932.8 15185.2 L 107932.8 16200.2 L 104829.8 16200.2 L 104829.8 24813.2 Q 104829.8 26103.7 105199.55 26553.2 Q 105569.3 27002.7 106149.3 27002.7 Q 106627.8 27002.7 107077.3 26705.45 Q 107526.8 26408.2 107773.3 25828.2 L 108338.8 25828.2 Q 107831.3 27249.2 106903.3 27966.95 Q 105975.3 28684.7 104989.3 28684.7 Q 104322.3 28684.7 103684.3 28314.95 Q 103046.3 27945.2 102741.8 27256.45 Q 102437.3 26567.7 102437.3 25132.2 L 102437.3 16200.2 L 100334.8 16200.2 L 100334.8 15721.7 Q 101132.3 15402.7 101966.05 14641.45 Q 102799.8 13880.2 103452.3 12836.2 Q 103785.8 12285.2 104380.3 10820.7 L 104829.8 10820.7 Z M 111449 20187.7 Q 111434.5 23145.7 112884.5 24827.7 Q 114334.5 26509.7 116292 26509.7 Q 117597 26509.7 118561.25 25791.95 Q 119525.5 25074.2 120178 23334.2 L 120627.5 23624.2 Q 120323 25610.7 118858.5 27241.95 Q 117394 28873.2 115190 28873.2 Q 112797.5 28873.2 111093.75 27009.95 Q 109390 25146.7 109390 22000.2 Q 109390 18592.7 111137.25 16685.95 Q 112884.5 14779.2 115523.5 14779.2 Q 117756.5 14779.2 119192 16250.95 Q 120627.5 17722.7 120627.5 20187.7 L 111449 20187.7 Z M 111449 19346.7 L 117597 19346.7 Q 117524.5 18070.7 117292.5 17548.7 Q 116930 16736.7 116212.25 16272.7 Q 115494.5 15808.7 114711.5 15808.7 Q 113508 15808.7 112558.25 16743.95 Q 111608.5 17679.2 111449 19346.7  Z M 133655.4 23421.2 Q 133118.9 26045.7 131552.9 27459.45 Q 129986.9 28873.2 128087.4 28873.2 Q 125825.4 28873.2 124143.4 26973.7 Q 122461.4 25074.2 122461.4 21840.7 Q 122461.4 18708.7 124324.65 16751.2 Q 126187.9 14793.7 128797.9 14793.7 Q 130755.4 14793.7 132016.9 15830.45 Q 133278.4 16867.2 133278.4 17983.7 Q 133278.4 18534.7 132923.15 18875.45 Q 132567.9 19216.2 131929.9 19216.2 Q 131074.4 19216.2 130639.4 18665.2 Q 130392.9 18360.7 130313.15 17505.2 Q 130233.4 16649.7 129725.9 16200.2 Q 129218.4 15765.2 128319.4 15765.2 Q 126869.4 15765.2 125984.9 16838.2 Q 124810.4 18259.2 124810.4 20593.7 Q 124810.4 22971.7 125977.65 24791.45 Q 127144.9 26611.2 129131.4 26611.2 Q 130552.4 26611.2 131683.4 25639.7 Q 132480.9 24972.7 133234.9 23218.2 L 133655.4 23421.2 Z M 139389.8 10820.7 L 139389.8 15185.2 L 142492.8 15185.2 L 142492.8 16200.2 L 139389.8 16200.2 L 139389.8 24813.2 Q 139389.8 26103.7 139759.55 26553.2 Q 140129.3 27002.7 140709.3 27002.7 Q 141187.8 27002.7 141637.3 26705.45 Q 142086.8 26408.2 142333.3 25828.2 L 142898.8 25828.2 Q 142391.3 27249.2 141463.3 27966.95 Q 140535.3 28684.7 139549.3 28684.7 Q 138882.3 28684.7 138244.3 28314.95 Q 137606.3 27945.2 137301.8 27256.45 Q 136997.3 26567.7 136997.3 25132.2 L 136997.3 16200.2 L 134894.8 16200.2 L 134894.8 15721.7 Q 135692.3 15402.7 136526.05 14641.45 Q 137359.8 13880.2 138012.3 12836.2 Q 138345.8 12285.2 138940.3 10820.7 L 139389.8 10820.7 Z M 147154.5 7848.2 Q 147763.5 7848.2 148191.25 8275.95 Q 148619 8703.7 148619 9312.7 Q 148619 9921.7 148191.25 10356.7 Q 147763.5 10791.7 147154.5 10791.7 Q 146545.5 10791.7 146110.5 10356.7 Q 145675.5 9921.7 145675.5 9312.7 Q 145675.5 8703.7 146103.25 8275.95 Q 146531 7848.2 147154.5 7848.2  Z M 148358 14793.7 L 148358 25465.7 Q 148358 26712.7 148539.25 27125.95 Q 148720.5 27539.2 149075.75 27742.2 Q 149431 27945.2 150373.5 27945.2 L 150373.5 28467.2 L 143921 28467.2 L 143921 27945.2 Q 144892.5 27945.2 145226 27756.7 Q 145559.5 27568.2 145755.25 27133.2 Q 145951 26698.2 145951 25465.7 L 145951 20347.2 Q 145951 18186.7 145820.5 17548.7 Q 145719 17084.7 145501.5 16903.45 Q 145284 16722.2 144907 16722.2 Q 144501 16722.2 143921 16939.7 L 143718 16417.7 L 147720 14793.7 L 148358 14793.7 Z M 158515.2 14793.7 Q 161531.2 14793.7 163358.2 17084.7 Q 164909.7 19042.2 164909.7 21579.7 Q 164909.7 23363.2 164054.2 25190.2 Q 163198.7 27017.2 161697.95 27945.2 Q 160197.2 28873.2 158355.7 28873.2 Q 155354.2 28873.2 153585.2 26480.7 Q 152091.7 24465.2 152091.7 21956.7 Q 152091.7 20129.7 152997.95 18324.45 Q 153904.2 16519.2 155383.2 15656.45 Q 156862.2 14793.7 158515.2 14793.7  Z M 158065.7 15736.2 Q 157297.2 15736.2 156521.45 16192.95 Q 155745.7 16649.7 155267.2 17795.2 Q 154788.7 18940.7 154788.7 20738.7 Q 154788.7 23638.7 155941.45 25741.2 Q 157094.2 27843.7 158979.2 27843.7 Q 160385.7 27843.7 161299.2 26683.7 Q 162212.7 25523.7 162212.7 22696.2 Q 162212.7 19158.2 160690.2 17128.2 Q 159660.7 15736.2 158065.7 15736.2  Z M 170738.7 17606.7 Q 173073.2 14793.7 175190.2 14793.7 Q 176277.7 14793.7 177060.7 15337.45 Q 177843.7 15881.2 178307.7 17128.2 Q 178626.7 17998.2 178626.7 19796.2 L 178626.7 25465.7 Q 178626.7 26727.2 178829.7 27176.7 Q 178989.2 27539.2 179344.45 27742.2 Q 179699.7 27945.2 180656.7 27945.2 L 180656.7 28467.2 L 174088.2 28467.2 L 174088.2 27945.2 L 174363.7 27945.2 Q 175291.7 27945.2 175661.45 27662.45 Q 176031.2 27379.7 176176.2 26828.7 Q 176234.2 26611.2 176234.2 25465.7 L 176234.2 20028.2 Q 176234.2 18215.7 175762.95 17396.45 Q 175291.7 16577.2 174175.2 16577.2 Q 172449.7 16577.2 170738.7 18462.2 L 170738.7 25465.7 Q 170738.7 26814.2 170898.2 27133.2 Q 171101.2 27553.7 171456.45 27749.45 Q 171811.7 27945.2 172899.2 27945.2 L 172899.2 28467.2 L 166330.7 28467.2 L 166330.7 27945.2 L 166620.7 27945.2 Q 167635.7 27945.2 167990.95 27430.45 Q 168346.2 26915.7 168346.2 25465.7 L 168346.2 20535.7 Q 168346.2 18143.2 168237.45 17621.2 Q 168128.7 17099.2 167903.95 16910.7 Q 167679.2 16722.2 167302.2 16722.2 Q 166896.2 16722.2 166330.7 16939.7 L 166113.2 16417.7 L 170115.2 14793.7 L 170738.7 14793.7 L 170738.7 17606.7 Z M 195635.2 14793.7 Q 198651.2 14793.7 200478.2 17084.7 Q 202029.7 19042.2 202029.7 21579.7 Q 202029.7 23363.2 201174.2 25190.2 Q 200318.7 27017.2 198817.95 27945.2 Q 197317.2 28873.2 195475.7 28873.2 Q 192474.2 28873.2 190705.2 26480.7 Q 189211.7 24465.2 189211.7 21956.7 Q 189211.7 20129.7 190117.95 18324.45 Q 191024.2 16519.2 192503.2 15656.45 Q 193982.2 14793.7 195635.2 14793.7  Z M 195185.7 15736.2 Q 194417.2 15736.2 193641.45 16192.95 Q 192865.7 16649.7 192387.2 17795.2 Q 191908.7 18940.7 191908.7 20738.7 Q 191908.7 23638.7 193061.45 25741.2 Q 194214.2 27843.7 196099.2 27843.7 Q 197505.7 27843.7 198419.2 26683.7 Q 199332.7 25523.7 199332.7 22696.2 Q 199332.7 19158.2 197810.2 17128.2 Q 196780.7 15736.2 195185.7 15736.2  Z M 209178.2 16229.2 L 209178.2 24958.2 Q 209178.2 26814.2 209584.2 27307.2 Q 210120.7 27945.2 211019.7 27945.2 L 212223.2 27945.2 L 212223.2 28467.2 L 204291.7 28467.2 L 204291.7 27945.2 L 204886.2 27945.2 Q 205466.2 27945.2 205944.7 27655.2 Q 206423.2 27365.2 206604.45 26872.2 Q 206785.7 26379.2 206785.7 24958.2 L 206785.7 16229.2 L 204204.7 16229.2 L 204204.7 15185.2 L 206785.7 15185.2 L 206785.7 14315.2 Q 206785.7 12328.7 207423.7 10951.2 Q 208061.7 9573.7 209373.95 8725.45 Q 210686.2 7877.2 212324.7 7877.2 Q 213847.2 7877.2 215123.2 8863.2 Q 215964.2 9515.7 215964.2 10327.7 Q 215964.2 10762.7 215587.2 11146.95 Q 215210.2 11531.2 214775.2 11531.2 Q 214441.7 11531.2 214071.95 11291.95 Q 213702.2 11052.7 213165.7 10262.45 Q 212629.2 9472.2 212179.7 9196.7 Q 211730.2 8921.2 211179.2 8921.2 Q 210512.2 8921.2 210048.2 9276.45 Q 209584.2 9631.7 209381.2 10378.45 Q 209178.2 11125.2 209178.2 14228.2 L 209178.2 15185.2 L 212600.2 15185.2 L 212600.2 16229.2 L 209178.2 16229.2 Z M 226440.3 9878.2 L 226440.3 17606.7 L 230021.8 17606.7 Q 231254.3 17606.7 231827.05 17062.95 Q 232399.8 16519.2 232588.3 14909.7 L 233124.8 14909.7 L 233124.8 21565.2 L 232588.3 21565.2 Q 232573.8 20419.7 232291.05 19883.2 Q 232008.3 19346.7 231508.05 19078.45 Q 231007.8 18810.2 230021.8 18810.2 L 226440.3 18810.2 L 226440.3 24987.2 Q 226440.3 26480.7 226628.8 26959.2 Q 226773.8 27321.7 227237.8 27582.7 Q 227875.8 27930.7 228571.8 27930.7 L 229282.3 27930.7 L 229282.3 28467.2 L 220843.3 28467.2 L 220843.3 27930.7 L 221539.3 27930.7 Q 222757.3 27930.7 223308.3 27220.2 Q 223656.3 26756.2 223656.3 24987.2 L 223656.3 12285.2 Q 223656.3 10791.7 223467.8 10313.2 Q 223322.8 9950.7 222873.3 9689.7 Q 222249.8 9341.7 221539.3 9341.7 L 220843.3 9341.7 L 220843.3 8805.2 L 235473.8 8805.2 L 235662.3 13126.2 L 235154.8 13126.2 Q 234777.8 11748.7 234277.55 11103.45 Q 233777.3 10458.2 233045.05 10168.2 Q 232312.8 9878.2 230775.8 9878.2 L 226440.3 9878.2 Z M 249422.7 15185.2 L 249422.7 23232.7 Q 249422.7 25538.2 249531.45 26052.95 Q 249640.2 26567.7 249879.45 26770.7 Q 250118.7 26973.7 250437.7 26973.7 Q 250887.2 26973.7 251452.7 26727.2 L 251655.7 27234.7 L 247682.7 28873.2 L 247030.2 28873.2 L 247030.2 26060.2 Q 245319.2 27916.2 244420.2 28394.7 Q 243521.2 28873.2 242520.7 28873.2 Q 241404.2 28873.2 240584.95 28227.95 Q 239765.7 27582.7 239446.7 26567.7 Q 239127.7 25552.7 239127.7 23696.7 L 239127.7 17766.2 Q 239127.7 16823.7 238924.7 16461.2 Q 238721.7 16098.7 238322.95 15902.95 Q 237924.2 15707.2 236880.2 15721.7 L 236880.2 15185.2 L 241534.7 15185.2 L 241534.7 24073.7 Q 241534.7 25929.7 242179.95 26509.7 Q 242825.2 27089.7 243738.7 27089.7 Q 244362.2 27089.7 245152.45 26698.2 Q 245942.7 26306.7 247030.2 25204.7 L 247030.2 17679.2 Q 247030.2 16548.2 246616.95 16149.45 Q 246203.7 15750.7 244898.7 15721.7 L 244898.7 15185.2 L 249422.7 15185.2 Z M 261211.2 14793.7 L 261211.2 19317.7 L 260732.7 19317.7 Q 260181.7 17186.2 259318.95 16417.7 Q 258456.2 15649.2 257122.2 15649.2 Q 256107.2 15649.2 255483.7 16185.7 Q 254860.2 16722.2 254860.2 17374.7 Q 254860.2 18186.7 255324.2 18766.7 Q 255773.7 19361.2 257151.2 20028.2 L 259268.2 21057.7 Q 262211.7 22493.2 262211.7 24842.2 Q 262211.7 26654.7 260841.45 27763.95 Q 259471.2 28873.2 257774.7 28873.2 Q 256556.7 28873.2 254990.7 28438.2 Q 254512.2 28293.2 254207.7 28293.2 Q 253874.2 28293.2 253685.7 28670.2 L 253207.2 28670.2 L 253207.2 23928.7 L 253685.7 23928.7 Q 254091.7 25958.7 255237.2 26988.2 Q 256382.7 28017.7 257803.7 28017.7 Q 258804.2 28017.7 259434.95 27430.45 Q 260065.7 26843.2 260065.7 26016.7 Q 260065.7 25016.2 259362.45 24334.7 Q 258659.2 23653.2 256556.7 22609.2 Q 254454.2 21565.2 253801.7 20724.2 Q 253149.2 19897.7 253149.2 18636.2 Q 253149.2 16997.7 254272.95 15895.7 Q 255396.7 14793.7 257180.2 14793.7 Q 257963.2 14793.7 259079.7 15127.2 Q 259819.2 15344.7 260065.7 15344.7 Q 260297.7 15344.7 260428.2 15243.2 Q 260558.7 15141.7 260732.7 14793.7 L 261211.2 14793.7 Z M 271672.7 26553.2 Q 269628.2 28133.7 269106.2 28380.2 Q 268323.2 28742.7 267438.7 28742.7 Q 266061.2 28742.7 265169.45 27800.2 Q 264277.7 26857.7 264277.7 25320.7 Q 264277.7 24349.2 264712.7 23638.7 Q 265307.2 22652.7 266778.95 21782.7 Q 268250.7 20912.7 271672.7 19665.7 L 271672.7 19143.7 Q 271672.7 17157.2 271041.95 16417.7 Q 270411.2 15678.2 269207.7 15678.2 Q 268294.2 15678.2 267757.7 16171.2 Q 267206.7 16664.2 267206.7 17302.2 L 267235.7 18143.2 Q 267235.7 18810.2 266894.95 19172.7 Q 266554.2 19535.2 266003.2 19535.2 Q 265466.7 19535.2 265125.95 19158.2 Q 264785.2 18781.2 264785.2 18128.7 Q 264785.2 16881.7 266061.2 15837.7 Q 267337.2 14793.7 269642.7 14793.7 Q 271411.7 14793.7 272542.7 15388.2 Q 273398.2 15837.7 273804.2 16794.7 Q 274065.2 17418.2 274065.2 19346.7 L 274065.2 23856.2 Q 274065.2 25755.7 274137.7 26183.45 Q 274210.2 26611.2 274376.95 26756.2 Q 274543.7 26901.2 274761.2 26901.2 Q 274993.2 26901.2 275167.2 26799.7 Q 275471.7 26611.2 276341.7 25741.2 L 276341.7 26553.2 Q 274717.7 28728.2 273238.7 28728.2 Q 272528.2 28728.2 272107.7 28235.2 Q 271687.2 27742.2 271672.7 26553.2  Z M 271672.7 25610.7 L 271672.7 20550.2 Q 269483.2 21420.2 268845.2 21782.7 Q 267699.7 22420.7 267206.7 23116.7 Q 266713.7 23812.7 266713.7 24639.2 Q 266713.7 25683.2 267337.2 26371.95 Q 267960.7 27060.7 268772.7 27060.7 Q 269874.7 27060.7 271672.7 25610.7  Z M 281191.6 14793.7 L 281191.6 17780.7 Q 282859.1 14793.7 284613.6 14793.7 Q 285411.1 14793.7 285933.1 15279.45 Q 286455.1 15765.2 286455.1 16403.2 Q 286455.1 16968.7 286078.1 17360.2 Q 285701.1 17751.7 285179.1 17751.7 Q 284671.6 17751.7 284040.85 17251.45 Q 283410.1 16751.2 283105.6 16751.2 Q 282844.6 16751.2 282540.1 17041.2 Q 281887.6 17635.7 281191.6 18998.7 L 281191.6 25364.2 Q 281191.6 26466.2 281467.1 27031.7 Q 281655.6 27423.2 282134.1 27684.2 Q 282612.6 27945.2 283511.6 27945.2 L 283511.6 28467.2 L 276711.1 28467.2 L 276711.1 27945.2 Q 277726.1 27945.2 278219.1 27626.2 Q 278581.6 27394.2 278726.6 26886.7 Q 278799.1 26640.2 278799.1 25480.2 L 278799.1 20332.7 Q 278799.1 18012.7 278704.85 17570.45 Q 278610.6 17128.2 278356.85 16925.2 Q 278103.1 16722.2 277726.1 16722.2 Q 277276.6 16722.2 276711.1 16939.7 L 276566.1 16417.7 L 280582.6 14793.7 L 281191.6 14793.7 Z M 290565.7 7848.2 Q 291174.7 7848.2 291602.45 8275.95 Q 292030.2 8703.7 292030.2 9312.7 Q 292030.2 9921.7 291602.45 10356.7 Q 291174.7 10791.7 290565.7 10791.7 Q 289956.7 10791.7 289521.7 10356.7 Q 289086.7 9921.7 289086.7 9312.7 Q 289086.7 8703.7 289514.45 8275.95 Q 289942.2 7848.2 290565.7 7848.2  Z M 291769.2 14793.7 L 291769.2 25465.7 Q 291769.2 26712.7 291950.45 27125.95 Q 292131.7 27539.2 292486.95 27742.2 Q 292842.2 27945.2 293784.7 27945.2 L 293784.7 28467.2 L 287332.2 28467.2 L 287332.2 27945.2 Q 288303.7 27945.2 288637.2 27756.7 Q 288970.7 27568.2 289166.45 27133.2 Q 289362.2 26698.2 289362.2 25465.7 L 289362.2 20347.2 Q 289362.2 18186.7 289231.7 17548.7 Q 289130.2 17084.7 288912.7 16903.45 Q 288695.2 16722.2 288318.2 16722.2 Q 287912.2 16722.2 287332.2 16939.7 L 287129.2 16417.7 L 291131.2 14793.7 L 291769.2 14793.7 Z M 307073.9 15185.2 L 307073.9 23232.7 Q 307073.9 25538.2 307182.65 26052.95 Q 307291.4 26567.7 307530.65 26770.7 Q 307769.9 26973.7 308088.9 26973.7 Q 308538.4 26973.7 309103.9 26727.2 L 309306.9 27234.7 L 305333.9 28873.2 L 304681.4 28873.2 L 304681.4 26060.2 Q 302970.4 27916.2 302071.4 28394.7 Q 301172.4 28873.2 300171.9 28873.2 Q 299055.4 28873.2 298236.15 28227.95 Q 297416.9 27582.7 297097.9 26567.7 Q 296778.9 25552.7 296778.9 23696.7 L 296778.9 17766.2 Q 296778.9 16823.7 296575.9 16461.2 Q 296372.9 16098.7 295974.15 15902.95 Q 295575.4 15707.2 294531.4 15721.7 L 294531.4 15185.2 L 299185.9 15185.2 L 299185.9 24073.7 Q 299185.9 25929.7 299831.15 26509.7 Q 300476.4 27089.7 301389.9 27089.7 Q 302013.4 27089.7 302803.65 26698.2 Q 303593.9 26306.7 304681.4 25204.7 L 304681.4 17679.2 Q 304681.4 16548.2 304268.15 16149.45 Q 303854.9 15750.7 302549.9 15721.7 L 302549.9 15185.2 L 307073.9 15185.2 Z M 314222.4 17621.2 Q 315672.4 16171.2 315933.4 15953.7 Q 316585.9 15402.7 317339.9 15098.2 Q 318093.9 14793.7 318833.4 14793.7 Q 320080.4 14793.7 320979.4 15518.7 Q 321878.4 16243.7 322182.9 17621.2 Q 323676.4 15881.2 324705.9 15337.45 Q 325735.4 14793.7 326822.9 14793.7 Q 327881.4 14793.7 328700.65 15337.45 Q 329519.9 15881.2 329998.4 17113.7 Q 330317.4 17954.7 330317.4 19752.7 L 330317.4 25465.7 Q 330317.4 26712.7 330505.9 27176.7 Q 330650.9 27495.7 331042.4 27720.45 Q 331433.9 27945.2 332318.4 27945.2 L 332318.4 28467.2 L 325764.4 28467.2 L 325764.4 27945.2 L 326039.9 27945.2 Q 326895.4 27945.2 327373.9 27611.7 Q 327707.4 27379.7 327852.4 26872.2 Q 327910.4 26625.7 327910.4 25465.7 L 327910.4 19752.7 Q 327910.4 18128.7 327518.9 17461.7 Q 326953.4 16533.7 325706.4 16533.7 Q 324937.9 16533.7 324162.15 16917.95 Q 323386.4 17302.2 322284.4 18346.2 L 322255.4 18505.7 L 322284.4 19129.2 L 322284.4 25465.7 Q 322284.4 26828.7 322436.65 27162.2 Q 322588.9 27495.7 323009.4 27720.45 Q 323429.9 27945.2 324444.9 27945.2 L 324444.9 28467.2 L 317731.4 28467.2 L 317731.4 27945.2 Q 318833.4 27945.2 319246.65 27684.2 Q 319659.9 27423.2 319819.4 26901.2 Q 319891.9 26654.7 319891.9 25465.7 L 319891.9 19752.7 Q 319891.9 18128.7 319413.4 17418.2 Q 318775.4 16490.2 317629.9 16490.2 Q 316846.9 16490.2 316078.4 16910.7 Q 314874.9 17548.7 314222.4 18346.2 L 314222.4 25465.7 Q 314222.4 26770.7 314403.65 27162.2 Q 314584.9 27553.7 314940.15 27749.45 Q 315295.4 27945.2 316382.9 27945.2 L 316382.9 28467.2 L 309814.4 28467.2 L 309814.4 27945.2 Q 310727.9 27945.2 311090.4 27749.45 Q 311452.9 27553.7 311641.4 27125.95 Q 311829.9 26698.2 311829.9 25465.7 L 311829.9 20390.7 Q 311829.9 18201.2 311699.4 17563.2 Q 311597.9 17084.7 311380.4 16903.45 Q 311162.9 16722.2 310785.9 16722.2 Q 310379.9 16722.2 309814.4 16939.7 L 309596.9 16417.7 L 313598.9 14793.7 L 314222.4 14793.7 L 314222.4 17621.2 Z M 344665.1 17606.7 Q 346999.6 14793.7 349116.6 14793.7 Q 350204.1 14793.7 350987.1 15337.45 Q 351770.1 15881.2 352234.1 17128.2 Q 352553.1 17998.2 352553.1 19796.2 L 352553.1 25465.7 Q 352553.1 26727.2 352756.1 27176.7 Q 352915.6 27539.2 353270.85 27742.2 Q 353626.1 27945.2 354583.1 27945.2 L 354583.1 28467.2 L 348014.6 28467.2 L 348014.6 27945.2 L 348290.1 27945.2 Q 349218.1 27945.2 349587.85 27662.45 Q 349957.6 27379.7 350102.6 26828.7 Q 350160.6 26611.2 350160.6 25465.7 L 350160.6 20028.2 Q 350160.6 18215.7 349689.35 17396.45 Q 349218.1 16577.2 348101.6 16577.2 Q 346376.1 16577.2 344665.1 18462.2 L 344665.1 25465.7 Q 344665.1 26814.2 344824.6 27133.2 Q 345027.6 27553.7 345382.85 27749.45 Q 345738.1 27945.2 346825.6 27945.2 L 346825.6 28467.2 L 340257.1 28467.2 L 340257.1 27945.2 L 340547.1 27945.2 Q 341562.1 27945.2 341917.35 27430.45 Q 342272.6 26915.7 342272.6 25465.7 L 342272.6 20535.7 Q 342272.6 18143.2 342163.85 17621.2 Q 342055.1 17099.2 341830.35 16910.7 Q 341605.6 16722.2 341228.6 16722.2 Q 340822.6 16722.2 340257.1 16939.7 L 340039.6 16417.7 L 344041.6 14793.7 L 344665.1 14793.7 L 344665.1 17606.7 Z M 359020.1 7848.2 Q 359629.1 7848.2 360056.85 8275.95 Q 360484.6 8703.7 360484.6 9312.7 Q 360484.6 9921.7 360056.85 10356.7 Q 359629.1 10791.7 359020.1 10791.7 Q 358411.1 10791.7 357976.1 10356.7 Q 357541.1 9921.7 357541.1 9312.7 Q 357541.1 8703.7 357968.85 8275.95 Q 358396.6 7848.2 359020.1 7848.2  Z M 360223.6 14793.7 L 360223.6 25465.7 Q 360223.6 26712.7 360404.85 27125.95 Q 360586.1 27539.2 360941.35 27742.2 Q 361296.6 27945.2 362239.1 27945.2 L 362239.1 28467.2 L 355786.6 28467.2 L 355786.6 27945.2 Q 356758.1 27945.2 357091.6 27756.7 Q 357425.1 27568.2 357620.85 27133.2 Q 357816.6 26698.2 357816.6 25465.7 L 357816.6 20347.2 Q 357816.6 18186.7 357686.1 17548.7 Q 357584.6 17084.7 357367.1 16903.45 Q 357149.6 16722.2 356772.6 16722.2 Q 356366.6 16722.2 355786.6 16939.7 L 355583.6 16417.7 L 359585.6 14793.7 L 360223.6 14793.7 Z M 375165.8 23421.2 Q 374629.3 26045.7 373063.3 27459.45 Q 371497.3 28873.2 369597.8 28873.2 Q 367335.8 28873.2 365653.8 26973.7 Q 363971.8 25074.2 363971.8 21840.7 Q 363971.8 18708.7 365835.05 16751.2 Q 367698.3 14793.7 370308.3 14793.7 Q 372265.8 14793.7 373527.3 15830.45 Q 374788.8 16867.2 374788.8 17983.7 Q 374788.8 18534.7 374433.55 18875.45 Q 374078.3 19216.2 373440.3 19216.2 Q 372584.8 19216.2 372149.8 18665.2 Q 371903.3 18360.7 371823.55 17505.2 Q 371743.8 16649.7 371236.3 16200.2 Q 370728.8 15765.2 369829.8 15765.2 Q 368379.8 15765.2 367495.3 16838.2 Q 366320.8 18259.2 366320.8 20593.7 Q 366320.8 22971.7 367488.05 24791.45 Q 368655.3 26611.2 370641.8 26611.2 Q 372062.8 26611.2 373193.8 25639.7 Q 373991.3 24972.7 374745.3 23218.2 L 375165.8 23421.2 Z M 383539.2 14793.7 Q 386555.2 14793.7 388382.2 17084.7 Q 389933.7 19042.2 389933.7 21579.7 Q 389933.7 23363.2 389078.2 25190.2 Q 388222.7 27017.2 386721.95 27945.2 Q 385221.2 28873.2 383379.7 28873.2 Q 380378.2 28873.2 378609.2 26480.7 Q 377115.7 24465.2 377115.7 21956.7 Q 377115.7 20129.7 378021.95 18324.45 Q 378928.2 16519.2 380407.2 15656.45 Q 381886.2 14793.7 383539.2 14793.7  Z M 383089.7 15736.2 Q 382321.2 15736.2 381545.45 16192.95 Q 380769.7 16649.7 380291.2 17795.2 Q 379812.7 18940.7 379812.7 20738.7 Q 379812.7 23638.7 380965.45 25741.2 Q 382118.2 27843.7 384003.2 27843.7 Q 385409.7 27843.7 386323.2 26683.7 Q 387236.7 25523.7 387236.7 22696.2 Q 387236.7 19158.2 385714.2 17128.2 Q 384684.7 15736.2 383089.7 15736.2  Z M 395748.2 10820.7 L 395748.2 15185.2 L 398851.2 15185.2 L 398851.2 16200.2 L 395748.2 16200.2 L 395748.2 24813.2 Q 395748.2 26103.7 396117.95 26553.2 Q 396487.7 27002.7 397067.7 27002.7 Q 397546.2 27002.7 397995.7 26705.45 Q 398445.2 26408.2 398691.7 25828.2 L 399257.2 25828.2 Q 398749.7 27249.2 397821.7 27966.95 Q 396893.7 28684.7 395907.7 28684.7 Q 395240.7 28684.7 394602.7 28314.95 Q 393964.7 27945.2 393660.2 27256.45 Q 393355.7 26567.7 393355.7 25132.2 L 393355.7 16200.2 L 391253.2 16200.2 L 391253.2 15721.7 Q 392050.7 15402.7 392884.45 14641.45 Q 393718.2 13880.2 394370.7 12836.2 Q 394704.2 12285.2 395298.7 10820.7 L 395748.2 10820.7 Z M 403512.9 7848.2 Q 404121.9 7848.2 404549.65 8275.95 Q 404977.4 8703.7 404977.4 9312.7 Q 404977.4 9921.7 404549.65 10356.7 Q 404121.9 10791.7 403512.9 10791.7 Q 402903.9 10791.7 402468.9 10356.7 Q 402033.9 9921.7 402033.9 9312.7 Q 402033.9 8703.7 402461.65 8275.95 Q 402889.4 7848.2 403512.9 7848.2  Z M 404716.4 14793.7 L 404716.4 25465.7 Q 404716.4 26712.7 404897.65 27125.95 Q 405078.9 27539.2 405434.15 27742.2 Q 405789.4 27945.2 406731.9 27945.2 L 406731.9 28467.2 L 400279.4 28467.2 L 400279.4 27945.2 Q 401250.9 27945.2 401584.4 27756.7 Q 401917.9 27568.2 402113.65 27133.2 Q 402309.4 26698.2 402309.4 25465.7 L 402309.4 20347.2 Q 402309.4 18186.7 402178.9 17548.7 Q 402077.4 17084.7 401859.9 16903.45 Q 401642.4 16722.2 401265.4 16722.2 Q 400859.4 16722.2 400279.4 16939.7 L 400076.4 16417.7 L 404078.4 14793.7 L 404716.4 14793.7 Z M 415903.1 26553.2 Q 413858.6 28133.7 413336.6 28380.2 Q 412553.6 28742.7 411669.1 28742.7 Q 410291.6 28742.7 409399.85 27800.2 Q 408508.1 26857.7 408508.1 25320.7 Q 408508.1 24349.2 408943.1 23638.7 Q 409537.6 22652.7 411009.35 21782.7 Q 412481.1 20912.7 415903.1 19665.7 L 415903.1 19143.7 Q 415903.1 17157.2 415272.35 16417.7 Q 414641.6 15678.2 413438.1 15678.2 Q 412524.6 15678.2 411988.1 16171.2 Q 411437.1 16664.2 411437.1 17302.2 L 411466.1 18143.2 Q 411466.1 18810.2 411125.35 19172.7 Q 410784.6 19535.2 410233.6 19535.2 Q 409697.1 19535.2 409356.35 19158.2 Q 409015.6 18781.2 409015.6 18128.7 Q 409015.6 16881.7 410291.6 15837.7 Q 411567.6 14793.7 413873.1 14793.7 Q 415642.1 14793.7 416773.1 15388.2 Q 417628.6 15837.7 418034.6 16794.7 Q 418295.6 17418.2 418295.6 19346.7 L 418295.6 23856.2 Q 418295.6 25755.7 418368.1 26183.45 Q 418440.6 26611.2 418607.35 26756.2 Q 418774.1 26901.2 418991.6 26901.2 Q 419223.6 26901.2 419397.6 26799.7 Q 419702.1 26611.2 420572.1 25741.2 L 420572.1 26553.2 Q 418948.1 28728.2 417469.1 28728.2 Q 416758.6 28728.2 416338.1 28235.2 Q 415917.6 27742.2 415903.1 26553.2  Z M 415903.1 25610.7 L 415903.1 20550.2 Q 413713.6 21420.2 413075.6 21782.7 Q 411930.1 22420.7 411437.1 23116.7 Q 410944.1 23812.7 410944.1 24639.2 Q 410944.1 25683.2 411567.6 26371.95 Q 412191.1 27060.7 413003.1 27060.7 Q 414105.1 27060.7 415903.1 25610.7  Z M 425407.5 17606.7 Q 427742 14793.7 429859 14793.7 Q 430946.5 14793.7 431729.5 15337.45 Q 432512.5 15881.2 432976.5 17128.2 Q 433295.5 17998.2 433295.5 19796.2 L 433295.5 25465.7 Q 433295.5 26727.2 433498.5 27176.7 Q 433658 27539.2 434013.25 27742.2 Q 434368.5 27945.2 435325.5 27945.2 L 435325.5 28467.2 L 428757 28467.2 L 428757 27945.2 L 429032.5 27945.2 Q 429960.5 27945.2 430330.25 27662.45 Q 430700 27379.7 430845 26828.7 Q 430903 26611.2 430903 25465.7 L 430903 20028.2 Q 430903 18215.7 430431.75 17396.45 Q 429960.5 16577.2 428844 16577.2 Q 427118.5 16577.2 425407.5 18462.2 L 425407.5 25465.7 Q 425407.5 26814.2 425567 27133.2 Q 425770 27553.7 426125.25 27749.45 Q 426480.5 27945.2 427568 27945.2 L 427568 28467.2 L 420999.5 28467.2 L 420999.5 27945.2 L 421289.5 27945.2 Q 422304.5 27945.2 422659.75 27430.45 Q 423015 26915.7 423015 25465.7 L 423015 20535.7 Q 423015 18143.2 422906.25 17621.2 Q 422797.5 17099.2 422572.75 16910.7 Q 422348 16722.2 421971 16722.2 Q 421565 16722.2 420999.5 16939.7 L 420782 16417.7 L 424784 14793.7 L 425407.5 14793.7 L 425407.5 17606.7 Z M 443909.5 26553.2 Q 441865 28133.7 441343 28380.2 Q 440560 28742.7 439675.5 28742.7 Q 438298 28742.7 437406.25 27800.2 Q 436514.5 26857.7 436514.5 25320.7 Q 436514.5 24349.2 436949.5 23638.7 Q 437544 22652.7 439015.75 21782.7 Q 440487.5 20912.7 443909.5 19665.7 L 443909.5 19143.7 Q 443909.5 17157.2 443278.75 16417.7 Q 442648 15678.2 441444.5 15678.2 Q 440531 15678.2 439994.5 16171.2 Q 439443.5 16664.2 439443.5 17302.2 L 439472.5 18143.2 Q 439472.5 18810.2 439131.75 19172.7 Q 438791 19535.2 438240 19535.2 Q 437703.5 19535.2 437362.75 19158.2 Q 437022 18781.2 437022 18128.7 Q 437022 16881.7 438298 15837.7 Q 439574 14793.7 441879.5 14793.7 Q 443648.5 14793.7 444779.5 15388.2 Q 445635 15837.7 446041 16794.7 Q 446302 17418.2 446302 19346.7 L 446302 23856.2 Q 446302 25755.7 446374.5 26183.45 Q 446447 26611.2 446613.75 26756.2 Q 446780.5 26901.2 446998 26901.2 Q 447230 26901.2 447404 26799.7 Q 447708.5 26611.2 448578.5 25741.2 L 448578.5 26553.2 Q 446954.5 28728.2 445475.5 28728.2 Q 444765 28728.2 444344.5 28235.2 Q 443924 27742.2 443909.5 26553.2  Z M 443909.5 25610.7 L 443909.5 20550.2 Q 441720 21420.2 441082 21782.7 Q 439936.5 22420.7 439443.5 23116.7 Q 438950.5 23812.7 438950.5 24639.2 Q 438950.5 25683.2 439574 26371.95 Q 440197.5 27060.7 441009.5 27060.7 Q 442111.5 27060.7 443909.5 25610.7  Z M 460025.9 34818.2 L 457633.4 34818.2 Q 458155.4 32367.7 458155.4 30381.2 L 458155.4 14590.7 Q 458155.4 12125.7 458597.65 10922.2 Q 459039.9 9718.7 460323.15 8797.95 Q 461606.4 7877.2 463534.9 7877.2 Q 465825.9 7877.2 467384.65 9087.95 Q 468943.4 10298.7 468943.4 12531.7 Q 468943.4 15141.7 466463.9 16809.2 Q 470161.4 18549.2 470161.4 22275.7 Q 470161.4 24305.7 469182.65 25907.95 Q 468203.9 27510.2 466920.65 28191.7 Q 465637.4 28873.2 463853.9 28873.2 Q 461823.9 28873.2 460547.9 27350.7 L 460547.9 30047.7 Q 460547.9 32831.7 460025.9 34818.2  Z M 460547.9 26045.7 Q 461678.9 27916.2 463708.9 27916.2 Q 465666.4 27916.2 466579.9 26487.95 Q 467493.4 25059.7 467493.4 23015.2 Q 467493.4 21449.2 466891.65 19817.95 Q 466289.9 18186.7 465347.4 17331.2 Q 464477.4 17548.7 463781.4 17548.7 Q 462316.9 17548.7 462316.9 16780.2 Q 462316.9 16084.2 463549.4 16084.2 Q 464317.9 16084.2 465463.4 16432.2 Q 466492.9 14692.2 466492.9 12647.7 Q 466492.9 10820.7 465688.15 9849.2 Q 464883.4 8877.7 463592.9 8877.7 Q 462563.4 8877.7 461831.15 9457.7 Q 461098.9 10037.7 460823.4 10842.45 Q 460547.9 11647.2 460547.9 13474.2 L 460547.9 26045.7 Z M 472345.9 20709.7 L 479842.4 20709.7 L 479842.4 22899.2 L 472345.9 22899.2 L 472345.9 20709.7 Z M 485809 10820.7 L 485809 15185.2 L 488912 15185.2 L 488912 16200.2 L 485809 16200.2 L 485809 24813.2 Q 485809 26103.7 486178.75 26553.2 Q 486548.5 27002.7 487128.5 27002.7 Q 487607 27002.7 488056.5 26705.45 Q 488506 26408.2 488752.5 25828.2 L 489318 25828.2 Q 488810.5 27249.2 487882.5 27966.95 Q 486954.5 28684.7 485968.5 28684.7 Q 485301.5 28684.7 484663.5 28314.95 Q 484025.5 27945.2 483721 27256.45 Q 483416.5 26567.7 483416.5 25132.2 L 483416.5 16200.2 L 481314 16200.2 L 481314 15721.7 Q 482111.5 15402.7 482945.25 14641.45 Q 483779 13880.2 484431.5 12836.2 Q 484765 12285.2 485359.5 10820.7 L 485809 10820.7 Z M 501838.7 15185.2 L 501838.7 23232.7 Q 501838.7 25538.2 501947.45 26052.95 Q 502056.2 26567.7 502295.45 26770.7 Q 502534.7 26973.7 502853.7 26973.7 Q 503303.2 26973.7 503868.7 26727.2 L 504071.7 27234.7 L 500098.7 28873.2 L 499446.2 28873.2 L 499446.2 26060.2 Q 497735.2 27916.2 496836.2 28394.7 Q 495937.2 28873.2 494936.7 28873.2 Q 493820.2 28873.2 493000.95 28227.95 Q 492181.7 27582.7 491862.7 26567.7 Q 491543.7 25552.7 491543.7 23696.7 L 491543.7 17766.2 Q 491543.7 16823.7 491340.7 16461.2 Q 491137.7 16098.7 490738.95 15902.95 Q 490340.2 15707.2 489296.2 15721.7 L 489296.2 15185.2 L 493950.7 15185.2 L 493950.7 24073.7 Q 493950.7 25929.7 494595.95 26509.7 Q 495241.2 27089.7 496154.7 27089.7 Q 496778.2 27089.7 497568.45 26698.2 Q 498358.7 26306.7 499446.2 25204.7 L 499446.2 17679.2 Q 499446.2 16548.2 499032.95 16149.45 Q 498619.7 15750.7 497314.7 15721.7 L 497314.7 15185.2 L 501838.7 15185.2 Z M 508682.7 17476.2 Q 510611.2 14793.7 512844.2 14793.7 Q 514888.7 14793.7 516411.2 16540.95 Q 517933.7 18288.2 517933.7 21318.7 Q 517933.7 24856.7 515584.7 27017.2 Q 513569.2 28873.2 511089.7 28873.2 Q 509929.7 28873.2 508733.45 28452.7 Q 507537.2 28032.2 506290.2 27191.2 L 506290.2 13430.7 Q 506290.2 11168.7 506181.45 10646.7 Q 506072.7 10124.7 505840.7 9936.2 Q 505608.7 9747.7 505260.7 9747.7 Q 504854.7 9747.7 504245.7 9979.7 L 504042.7 9472.2 L 508030.2 7848.2 L 508682.7 7848.2 L 508682.7 17476.2 Z M 508682.7 18404.2 L 508682.7 26350.2 Q 509422.2 27075.2 510212.45 27444.95 Q 511002.7 27814.7 511829.2 27814.7 Q 513148.7 27814.7 514286.95 26364.7 Q 515425.2 24914.7 515425.2 22145.2 Q 515425.2 19593.2 514286.95 18222.95 Q 513148.7 16852.7 511698.7 16852.7 Q 510930.2 16852.7 510161.7 17244.2 Q 509581.7 17534.2 508682.7 18404.2  Z M 531534.7 15185.2 L 531534.7 23232.7 Q 531534.7 25538.2 531643.45 26052.95 Q 531752.2 26567.7 531991.45 26770.7 Q 532230.7 26973.7 532549.7 26973.7 Q 532999.2 26973.7 533564.7 26727.2 L 533767.7 27234.7 L 529794.7 28873.2 L 529142.2 28873.2 L 529142.2 26060.2 Q 527431.2 27916.2 526532.2 28394.7 Q 525633.2 28873.2 524632.7 28873.2 Q 523516.2 28873.2 522696.95 28227.95 Q 521877.7 27582.7 521558.7 26567.7 Q 521239.7 25552.7 521239.7 23696.7 L 521239.7 17766.2 Q 521239.7 16823.7 521036.7 16461.2 Q 520833.7 16098.7 520434.95 15902.95 Q 520036.2 15707.2 518992.2 15721.7 L 518992.2 15185.2 L 523646.7 15185.2 L 523646.7 24073.7 Q 523646.7 25929.7 524291.95 26509.7 Q 524937.2 27089.7 525850.7 27089.7 Q 526474.2 27089.7 527264.45 26698.2 Q 528054.7 26306.7 529142.2 25204.7 L 529142.2 17679.2 Q 529142.2 16548.2 528728.95 16149.45 Q 528315.7 15750.7 527010.7 15721.7 L 527010.7 15185.2 L 531534.7 15185.2 Z M 539306.7 7848.2 L 539306.7 25465.7 Q 539306.7 26712.7 539487.95 27118.7 Q 539669.2 27524.7 540046.2 27734.95 Q 540423.2 27945.2 541452.7 27945.2 L 541452.7 28467.2 L 534942.2 28467.2 L 534942.2 27945.2 Q 535855.7 27945.2 536189.2 27756.7 Q 536522.7 27568.2 536711.2 27133.2 Q 536899.7 26698.2 536899.7 25465.7 L 536899.7 13401.7 Q 536899.7 11154.2 536798.2 10639.45 Q 536696.7 10124.7 536471.95 9936.2 Q 536247.2 9747.7 535899.2 9747.7 Q 535522.2 9747.7 534942.2 9979.7 L 534695.7 9472.2 L 538654.2 7848.2 L 539306.7 7848.2 Z M 546360.9 7848.2 Q 546969.9 7848.2 547397.65 8275.95 Q 547825.4 8703.7 547825.4 9312.7 Q 547825.4 9921.7 547397.65 10356.7 Q 546969.9 10791.7 546360.9 10791.7 Q 545751.9 10791.7 545316.9 10356.7 Q 544881.9 9921.7 544881.9 9312.7 Q 544881.9 8703.7 545309.65 8275.95 Q 545737.4 7848.2 546360.9 7848.2  Z M 547564.4 14793.7 L 547564.4 25465.7 Q 547564.4 26712.7 547745.65 27125.95 Q 547926.9 27539.2 548282.15 27742.2 Q 548637.4 27945.2 549579.9 27945.2 L 549579.9 28467.2 L 543127.4 28467.2 L 543127.4 27945.2 Q 544098.9 27945.2 544432.4 27756.7 Q 544765.9 27568.2 544961.65 27133.2 Q 545157.4 26698.2 545157.4 25465.7 L 545157.4 20347.2 Q 545157.4 18186.7 545026.9 17548.7 Q 544925.4 17084.7 544707.9 16903.45 Q 544490.4 16722.2 544113.4 16722.2 Q 543707.4 16722.2 543127.4 16939.7 L 542924.4 16417.7 L 546926.4 14793.7 L 547564.4 14793.7 Z M 555097.1 17606.7 Q 557431.6 14793.7 559548.6 14793.7 Q 560636.1 14793.7 561419.1 15337.45 Q 562202.1 15881.2 562666.1 17128.2 Q 562985.1 17998.2 562985.1 19796.2 L 562985.1 25465.7 Q 562985.1 26727.2 563188.1 27176.7 Q 563347.6 27539.2 563702.85 27742.2 Q 564058.1 27945.2 565015.1 27945.2 L 565015.1 28467.2 L 558446.6 28467.2 L 558446.6 27945.2 L 558722.1 27945.2 Q 559650.1 27945.2 560019.85 27662.45 Q 560389.6 27379.7 560534.6 26828.7 Q 560592.6 26611.2 560592.6 25465.7 L 560592.6 20028.2 Q 560592.6 18215.7 560121.35 17396.45 Q 559650.1 16577.2 558533.6 16577.2 Q 556808.1 16577.2 555097.1 18462.2 L 555097.1 25465.7 Q 555097.1 26814.2 555256.6 27133.2 Q 555459.6 27553.7 555814.85 27749.45 Q 556170.1 27945.2 557257.6 27945.2 L 557257.6 28467.2 L 550689.1 28467.2 L 550689.1 27945.2 L 550979.1 27945.2 Q 551994.1 27945.2 552349.35 27430.45 Q 552704.6 26915.7 552704.6 25465.7 L 552704.6 20535.7 Q 552704.6 18143.2 552595.85 17621.2 Q 552487.1 17099.2 552262.35 16910.7 Q 552037.6 16722.2 551660.6 16722.2 Q 551254.6 16722.2 550689.1 16939.7 L 550471.6 16417.7 L 554473.6 14793.7 L 555097.1 14793.7 L 555097.1 17606.7 Z M 577050.1 23624.2 Q 575832.1 23029.7 575179.6 21963.95 Q 574527.1 20898.2 574527.1 19607.7 Q 574527.1 17635.7 576013.35 16214.7 Q 577499.6 14793.7 579819.6 14793.7 Q 581719.1 14793.7 583111.1 15721.7 L 585924.1 15721.7 Q 586547.6 15721.7 586649.1 15757.95 Q 586750.6 15794.2 586794.1 15881.2 Q 586881.1 16011.7 586881.1 16345.2 Q 586881.1 16722.2 586808.6 16867.2 Q 586765.1 16939.7 586656.35 16983.2 Q 586547.6 17026.7 585924.1 17026.7 L 584198.6 17026.7 Q 585010.6 18070.7 585010.6 19694.7 Q 585010.6 21550.7 583589.6 22870.2 Q 582168.6 24189.7 579776.1 24189.7 Q 578790.1 24189.7 577760.6 23899.7 Q 577122.6 24450.7 576897.85 24863.95 Q 576673.1 25277.2 576673.1 25567.2 Q 576673.1 25813.7 576912.35 26045.7 Q 577151.6 26277.7 577847.6 26379.2 Q 578253.6 26437.2 579877.6 26480.7 Q 582864.6 26553.2 583749.1 26683.7 Q 585097.6 26872.2 585902.35 27684.2 Q 586707.1 28496.2 586707.1 29685.2 Q 586707.1 31323.7 585170.1 32759.2 Q 582908.1 34876.2 579268.6 34876.2 Q 576470.1 34876.2 574541.6 33614.7 Q 573454.1 32889.7 573454.1 32106.7 Q 573454.1 31758.7 573613.6 31410.7 Q 573860.1 30874.2 574628.6 29917.2 Q 574730.1 29786.7 576107.6 28351.2 Q 575353.6 27901.7 575041.85 27546.45 Q 574730.1 27191.2 574730.1 26741.7 Q 574730.1 26234.2 575143.35 25552.7 Q 575556.6 24871.2 577050.1 23624.2  Z M 579573.1 15489.7 Q 578500.1 15489.7 577775.1 16345.2 Q 577050.1 17200.7 577050.1 18969.7 Q 577050.1 21260.7 578036.1 22522.2 Q 578790.1 23479.2 579950.1 23479.2 Q 581052.1 23479.2 581762.6 22652.7 Q 582473.1 21826.2 582473.1 20057.2 Q 582473.1 17751.7 581472.6 16446.7 Q 580733.1 15489.7 579573.1 15489.7  Z M 576905.1 28467.2 Q 576223.6 29206.7 575875.6 29844.7 Q 575527.6 30482.7 575527.6 31019.2 Q 575527.6 31715.2 576368.6 32237.2 Q 577818.6 33136.2 580559.1 33136.2 Q 583169.1 33136.2 584408.85 32215.45 Q 585648.6 31294.7 585648.6 30250.7 Q 585648.6 29496.7 584909.1 29177.7 Q 584155.1 28858.7 581922.1 28800.7 Q 578659.6 28713.7 576905.1 28467.2  Z M 590578.6 20187.7 Q 590564.1 23145.7 592014.1 24827.7 Q 593464.1 26509.7 595421.6 26509.7 Q 596726.6 26509.7 597690.85 25791.95 Q 598655.1 25074.2 599307.6 23334.2 L 599757.1 23624.2 Q 599452.6 25610.7 597988.1 27241.95 Q 596523.6 28873.2 594319.6 28873.2 Q 591927.1 28873.2 590223.35 27009.95 Q 588519.6 25146.7 588519.6 22000.2 Q 588519.6 18592.7 590266.85 16685.95 Q 592014.1 14779.2 594653.1 14779.2 Q 596886.1 14779.2 598321.6 16250.95 Q 599757.1 17722.7 599757.1 20187.7 L 590578.6 20187.7 Z M 590578.6 19346.7 L 596726.6 19346.7 Q 596654.1 18070.7 596422.1 17548.7 Q 596059.6 16736.7 595341.85 16272.7 Q 594624.1 15808.7 593841.1 15808.7 Q 592637.6 15808.7 591687.85 16743.95 Q 590738.1 17679.2 590578.6 19346.7  Z M 605375.5 17606.7 Q 607710 14793.7 609827 14793.7 Q 610914.5 14793.7 611697.5 15337.45 Q 612480.5 15881.2 612944.5 17128.2 Q 613263.5 17998.2 613263.5 19796.2 L 613263.5 25465.7 Q 613263.5 26727.2 613466.5 27176.7 Q 613626 27539.2 613981.25 27742.2 Q 614336.5 27945.2 615293.5 27945.2 L 615293.5 28467.2 L 608725 28467.2 L 608725 27945.2 L 609000.5 27945.2 Q 609928.5 27945.2 610298.25 27662.45 Q 610668 27379.7 610813 26828.7 Q 610871 26611.2 610871 25465.7 L 610871 20028.2 Q 610871 18215.7 610399.75 17396.45 Q 609928.5 16577.2 608812 16577.2 Q 607086.5 16577.2 605375.5 18462.2 L 605375.5 25465.7 Q 605375.5 26814.2 605535 27133.2 Q 605738 27553.7 606093.25 27749.45 Q 606448.5 27945.2 607536 27945.2 L 607536 28467.2 L 600967.5 28467.2 L 600967.5 27945.2 L 601257.5 27945.2 Q 602272.5 27945.2 602627.75 27430.45 Q 602983 26915.7 602983 25465.7 L 602983 20535.7 Q 602983 18143.2 602874.25 17621.2 Q 602765.5 17099.2 602540.75 16910.7 Q 602316 16722.2 601939 16722.2 Q 601533 16722.2 600967.5 16939.7 L 600750 16417.7 L 604752 14793.7 L 605375.5 14793.7 L 605375.5 17606.7 Z M 618585 20187.7 Q 618570.5 23145.7 620020.5 24827.7 Q 621470.5 26509.7 623428 26509.7 Q 624733 26509.7 625697.25 25791.95 Q 626661.5 25074.2 627314 23334.2 L 627763.5 23624.2 Q 627459 25610.7 625994.5 27241.95 Q 624530 28873.2 622326 28873.2 Q 619933.5 28873.2 618229.75 27009.95 Q 616526 25146.7 616526 22000.2 Q 616526 18592.7 618273.25 16685.95 Q 620020.5 14779.2 622659.5 14779.2 Q 624892.5 14779.2 626328 16250.95 Q 627763.5 17722.7 627763.5 20187.7 L 618585 20187.7 Z M 618585 19346.7 L 624733 19346.7 Q 624660.5 18070.7 624428.5 17548.7 Q 624066 16736.7 623348.25 16272.7 Q 622630.5 15808.7 621847.5 15808.7 Q 620644 15808.7 619694.25 16743.95 Q 618744.5 17679.2 618585 19346.7  Z M 14619.5 48004.4 L 14619.5 56051.9 Q 14619.5 58357.4 14728.25 58872.15 Q 14837 59386.9 15076.25 59589.9 Q 15315.5 59792.9 15634.5 59792.9 Q 16084 59792.9 16649.5 59546.4 L 16852.5 60053.9 L 12879.5 61692.4 L 12227 61692.4 L 12227 58879.4 Q 10516 60735.4 9617 61213.9 Q 8718 61692.4 7717.5 61692.4 Q 6601 61692.4 5781.75 61047.15 Q 4962.5 60401.9 4643.5 59386.9 Q 4324.5 58371.9 4324.5 56515.9 L 4324.5 50585.4 Q 4324.5 49642.9 4121.5 49280.4 Q 3918.5 48917.9 3519.75 48722.15 Q 3121 48526.4 2077 48540.9 L 2077 48004.4 L 6731.5 48004.4 L 6731.5 56892.9 Q 6731.5 58748.9 7376.75 59328.9 Q 8022 59908.9 8935.5 59908.9 Q 9559 59908.9 10349.25 59517.4 Q 11139.5 59125.9 12227 58023.9 L 12227 50498.4 Q 12227 49367.4 11813.75 48968.65 Q 11400.5 48569.9 10095.5 48540.9 L 10095.5 48004.4 L 14619.5 48004.4 Z M 26408 47612.9 L 26408 52136.9 L 25929.5 52136.9 Q 25378.5 50005.4 24515.75 49236.9 Q 23653 48468.4 22319 48468.4 Q 21304 48468.4 20680.5 49004.9 Q 20057 49541.4 20057 50193.9 Q 20057 51005.9 20521 51585.9 Q 20970.5 52180.4 22348 52847.4 L 24465 53876.9 Q 27408.5 55312.4 27408.5 57661.4 Q 27408.5 59473.9 26038.25 60583.15 Q 24668 61692.4 22971.5 61692.4 Q 21753.5 61692.4 20187.5 61257.4 Q 19709 61112.4 19404.5 61112.4 Q 19071 61112.4 18882.5 61489.4 L 18404 61489.4 L 18404 56747.9 L 18882.5 56747.9 Q 19288.5 58777.9 20434 59807.4 Q 21579.5 60836.9 23000.5 60836.9 Q 24001 60836.9 24631.75 60249.65 Q 25262.5 59662.4 25262.5 58835.9 Q 25262.5 57835.4 24559.25 57153.9 Q 23856 56472.4 21753.5 55428.4 Q 19651 54384.4 18998.5 53543.4 Q 18346 52716.9 18346 51455.4 Q 18346 49816.9 19469.75 48714.9 Q 20593.5 47612.9 22377 47612.9 Q 23160 47612.9 24276.5 47946.4 Q 25016 48163.9 25262.5 48163.9 Q 25494.5 48163.9 25625 48062.4 Q 25755.5 47960.9 25929.5 47612.9 L 26408 47612.9 Z M 32722.5 40667.4 Q 33331.5 40667.4 33759.25 41095.15 Q 34187 41522.9 34187 42131.9 Q 34187 42740.9 33759.25 43175.9 Q 33331.5 43610.9 32722.5 43610.9 Q 32113.5 43610.9 31678.5 43175.9 Q 31243.5 42740.9 31243.5 42131.9 Q 31243.5 41522.9 31671.25 41095.15 Q 32099 40667.4 32722.5 40667.4  Z M 33926 47612.9 L 33926 58284.9 Q 33926 59531.9 34107.25 59945.15 Q 34288.5 60358.4 34643.75 60561.4 Q 34999 60764.4 35941.5 60764.4 L 35941.5 61286.4 L 29489 61286.4 L 29489 60764.4 Q 30460.5 60764.4 30794 60575.9 Q 31127.5 60387.4 31323.25 59952.4 Q 31519 59517.4 31519 58284.9 L 31519 53166.4 Q 31519 51005.9 31388.5 50367.9 Q 31287 49903.9 31069.5 49722.65 Q 30852 49541.4 30475 49541.4 Q 30069 49541.4 29489 49758.9 L 29286 49236.9 L 33288 47612.9 L 33926 47612.9 Z M 41458.7 50425.9 Q 43793.2 47612.9 45910.2 47612.9 Q 46997.7 47612.9 47780.7 48156.65 Q 48563.7 48700.4 49027.7 49947.4 Q 49346.7 50817.4 49346.7 52615.4 L 49346.7 58284.9 Q 49346.7 59546.4 49549.7 59995.9 Q 49709.2 60358.4 50064.45 60561.4 Q 50419.7 60764.4 51376.7 60764.4 L 51376.7 61286.4 L 44808.2 61286.4 L 44808.2 60764.4 L 45083.7 60764.4 Q 46011.7 60764.4 46381.45 60481.65 Q 46751.2 60198.9 46896.2 59647.9 Q 46954.2 59430.4 46954.2 58284.9 L 46954.2 52847.4 Q 46954.2 51034.9 46482.95 50215.65 Q 46011.7 49396.4 44895.2 49396.4 Q 43169.7 49396.4 41458.7 51281.4 L 41458.7 58284.9 Q 41458.7 59633.4 41618.2 59952.4 Q 41821.2 60372.9 42176.45 60568.65 Q 42531.7 60764.4 43619.2 60764.4 L 43619.2 61286.4 L 37050.7 61286.4 L 37050.7 60764.4 L 37340.7 60764.4 Q 38355.7 60764.4 38710.95 60249.65 Q 39066.2 59734.9 39066.2 58284.9 L 39066.2 53354.9 Q 39066.2 50962.4 38957.45 50440.4 Q 38848.7 49918.4 38623.95 49729.9 Q 38399.2 49541.4 38022.2 49541.4 Q 37616.2 49541.4 37050.7 49758.9 L 36833.2 49236.9 L 40835.2 47612.9 L 41458.7 47612.9 L 41458.7 50425.9 Z M 55987.7 56443.4 Q 54769.7 55848.9 54117.2 54783.15 Q 53464.7 53717.4 53464.7 52426.9 Q 53464.7 50454.9 54950.95 49033.9 Q 56437.2 47612.9 58757.2 47612.9 Q 60656.7 47612.9 62048.7 48540.9 L 64861.7 48540.9 Q 65485.2 48540.9 65586.7 48577.15 Q 65688.2 48613.4 65731.7 48700.4 Q 65818.7 48830.9 65818.7 49164.4 Q 65818.7 49541.4 65746.2 49686.4 Q 65702.7 49758.9 65593.95 49802.4 Q 65485.2 49845.9 64861.7 49845.9 L 63136.2 49845.9 Q 63948.2 50889.9 63948.2 52513.9 Q 63948.2 54369.9 62527.2 55689.4 Q 61106.2 57008.9 58713.7 57008.9 Q 57727.7 57008.9 56698.2 56718.9 Q 56060.2 57269.9 55835.45 57683.15 Q 55610.7 58096.4 55610.7 58386.4 Q 55610.7 58632.9 55849.95 58864.9 Q 56089.2 59096.9 56785.2 59198.4 Q 57191.2 59256.4 58815.2 59299.9 Q 61802.2 59372.4 62686.7 59502.9 Q 64035.2 59691.4 64839.95 60503.4 Q 65644.7 61315.4 65644.7 62504.4 Q 65644.7 64142.9 64107.7 65578.4 Q 61845.7 67695.4 58206.2 67695.4 Q 55407.7 67695.4 53479.2 66433.9 Q 52391.7 65708.9 52391.7 64925.9 Q 52391.7 64577.9 52551.2 64229.9 Q 52797.7 63693.4 53566.2 62736.4 Q 53667.7 62605.9 55045.2 61170.4 Q 54291.2 60720.9 53979.45 60365.65 Q 53667.7 60010.4 53667.7 59560.9 Q 53667.7 59053.4 54080.95 58371.9 Q 54494.2 57690.4 55987.7 56443.4  Z M 58510.7 48308.9 Q 57437.7 48308.9 56712.7 49164.4 Q 55987.7 50019.9 55987.7 51788.9 Q 55987.7 54079.9 56973.7 55341.4 Q 57727.7 56298.4 58887.7 56298.4 Q 59989.7 56298.4 60700.2 55471.9 Q 61410.7 54645.4 61410.7 52876.4 Q 61410.7 50570.9 60410.2 49265.9 Q 59670.7 48308.9 58510.7 48308.9  Z M 55842.7 61286.4 Q 55161.2 62025.9 54813.2 62663.9 Q 54465.2 63301.9 54465.2 63838.4 Q 54465.2 64534.4 55306.2 65056.4 Q 56756.2 65955.4 59496.7 65955.4 Q 62106.7 65955.4 63346.45 65034.65 Q 64586.2 64113.9 64586.2 63069.9 Q 64586.2 62315.9 63846.7 61996.9 Q 63092.7 61677.9 60859.7 61619.9 Q 57597.2 61532.9 55842.7 61286.4  Z M 78593.2 47612.9 L 78593.2 50599.9 Q 80260.7 47612.9 82015.2 47612.9 Q 82812.7 47612.9 83334.7 48098.65 Q 83856.7 48584.4 83856.7 49222.4 Q 83856.7 49787.9 83479.7 50179.4 Q 83102.7 50570.9 82580.7 50570.9 Q 82073.2 50570.9 81442.45 50070.65 Q 80811.7 49570.4 80507.2 49570.4 Q 80246.2 49570.4 79941.7 49860.4 Q 79289.2 50454.9 78593.2 51817.9 L 78593.2 58183.4 Q 78593.2 59285.4 78868.7 59850.9 Q 79057.2 60242.4 79535.7 60503.4 Q 80014.2 60764.4 80913.2 60764.4 L 80913.2 61286.4 L 74112.7 61286.4 L 74112.7 60764.4 Q 75127.7 60764.4 75620.7 60445.4 Q 75983.2 60213.4 76128.2 59705.9 Q 76200.7 59459.4 76200.7 58299.4 L 76200.7 53151.9 Q 76200.7 50831.9 76106.45 50389.65 Q 76012.2 49947.4 75758.45 49744.4 Q 75504.7 49541.4 75127.7 49541.4 Q 74678.2 49541.4 74112.7 49758.9 L 73967.7 49236.9 L 77984.2 47612.9 L 78593.2 47612.9 Z M 86821.8 53006.9 Q 86807.3 55964.9 88257.3 57646.9 Q 89707.3 59328.9 91664.8 59328.9 Q 92969.8 59328.9 93934.05 58611.15 Q 94898.3 57893.4 95550.8 56153.4 L 96000.3 56443.4 Q 95695.8 58429.9 94231.3 60061.15 Q 92766.8 61692.4 90562.8 61692.4 Q 88170.3 61692.4 86466.55 59829.15 Q 84762.8 57965.9 84762.8 54819.4 Q 84762.8 51411.9 86510.05 49505.15 Q 88257.3 47598.4 90896.3 47598.4 Q 93129.3 47598.4 94564.8 49070.15 Q 96000.3 50541.9 96000.3 53006.9 L 86821.8 53006.9 Z M 86821.8 52165.9 L 92969.8 52165.9 Q 92897.3 50889.9 92665.3 50367.9 Q 92302.8 49555.9 91585.05 49091.9 Q 90867.3 48627.9 90084.3 48627.9 Q 88880.8 48627.9 87931.05 49563.15 Q 86981.3 50498.4 86821.8 52165.9  Z M 105272.7 59372.4 Q 103228.2 60952.9 102706.2 61199.4 Q 101923.2 61561.9 101038.7 61561.9 Q 99661.2 61561.9 98769.45 60619.4 Q 97877.7 59676.9 97877.7 58139.9 Q 97877.7 57168.4 98312.7 56457.9 Q 98907.2 55471.9 100378.95 54601.9 Q 101850.7 53731.9 105272.7 52484.9 L 105272.7 51962.9 Q 105272.7 49976.4 104641.95 49236.9 Q 104011.2 48497.4 102807.7 48497.4 Q 101894.2 48497.4 101357.7 48990.4 Q 100806.7 49483.4 100806.7 50121.4 L 100835.7 50962.4 Q 100835.7 51629.4 100494.95 51991.9 Q 100154.2 52354.4 99603.2 52354.4 Q 99066.7 52354.4 98725.95 51977.4 Q 98385.2 51600.4 98385.2 50947.9 Q 98385.2 49700.9 99661.2 48656.9 Q 100937.2 47612.9 103242.7 47612.9 Q 105011.7 47612.9 106142.7 48207.4 Q 106998.2 48656.9 107404.2 49613.9 Q 107665.2 50237.4 107665.2 52165.9 L 107665.2 56675.4 Q 107665.2 58574.9 107737.7 59002.65 Q 107810.2 59430.4 107976.95 59575.4 Q 108143.7 59720.4 108361.2 59720.4 Q 108593.2 59720.4 108767.2 59618.9 Q 109071.7 59430.4 109941.7 58560.4 L 109941.7 59372.4 Q 108317.7 61547.4 106838.7 61547.4 Q 106128.2 61547.4 105707.7 61054.4 Q 105287.2 60561.4 105272.7 59372.4  Z M 105272.7 58429.9 L 105272.7 53369.4 Q 103083.2 54239.4 102445.2 54601.9 Q 101299.7 55239.9 100806.7 55935.9 Q 100313.7 56631.9 100313.7 57458.4 Q 100313.7 58502.4 100937.2 59191.15 Q 101560.7 59879.9 102372.7 59879.9 Q 103474.7 59879.9 105272.7 58429.9  Z M 115473.1 40667.4 L 115473.1 58284.9 Q 115473.1 59531.9 115654.35 59937.9 Q 115835.6 60343.9 116212.6 60554.15 Q 116589.6 60764.4 117619.1 60764.4 L 117619.1 61286.4 L 111108.6 61286.4 L 111108.6 60764.4 Q 112022.1 60764.4 112355.6 60575.9 Q 112689.1 60387.4 112877.6 59952.4 Q 113066.1 59517.4 113066.1 58284.9 L 113066.1 46220.9 Q 113066.1 43973.4 112964.6 43458.65 Q 112863.1 42943.9 112638.35 42755.4 Q 112413.6 42566.9 112065.6 42566.9 Q 111688.6 42566.9 111108.6 42798.9 L 110862.1 42291.4 L 114820.6 40667.4 L 115473.1 40667.4 Z M 119424.3 53528.9 L 126920.8 53528.9 L 126920.8 55718.4 L 119424.3 55718.4 L 119424.3 53528.9 Z M 132887.4 43639.9 L 132887.4 48004.4 L 135990.4 48004.4 L 135990.4 49019.4 L 132887.4 49019.4 L 132887.4 57632.4 Q 132887.4 58922.9 133257.15 59372.4 Q 133626.9 59821.9 134206.9 59821.9 Q 134685.4 59821.9 135134.9 59524.65 Q 135584.4 59227.4 135830.9 58647.4 L 136396.4 58647.4 Q 135888.9 60068.4 134960.9 60786.15 Q 134032.9 61503.9 133046.9 61503.9 Q 132379.9 61503.9 131741.9 61134.15 Q 131103.9 60764.4 130799.4 60075.65 Q 130494.9 59386.9 130494.9 57951.4 L 130494.9 49019.4 L 128392.4 49019.4 L 128392.4 48540.9 Q 129189.9 48221.9 130023.65 47460.65 Q 130857.4 46699.4 131509.9 45655.4 Q 131843.4 45104.4 132437.9 43639.9 L 132887.4 43639.9 Z M 140652.1 40667.4 Q 141261.1 40667.4 141688.85 41095.15 Q 142116.6 41522.9 142116.6 42131.9 Q 142116.6 42740.9 141688.85 43175.9 Q 141261.1 43610.9 140652.1 43610.9 Q 140043.1 43610.9 139608.1 43175.9 Q 139173.1 42740.9 139173.1 42131.9 Q 139173.1 41522.9 139600.85 41095.15 Q 140028.6 40667.4 140652.1 40667.4  Z M 141855.6 47612.9 L 141855.6 58284.9 Q 141855.6 59531.9 142036.85 59945.15 Q 142218.1 60358.4 142573.35 60561.4 Q 142928.6 60764.4 143871.1 60764.4 L 143871.1 61286.4 L 137418.6 61286.4 L 137418.6 60764.4 Q 138390.1 60764.4 138723.6 60575.9 Q 139057.1 60387.4 139252.85 59952.4 Q 139448.6 59517.4 139448.6 58284.9 L 139448.6 53166.4 Q 139448.6 51005.9 139318.1 50367.9 Q 139216.6 49903.9 138999.1 49722.65 Q 138781.6 49541.4 138404.6 49541.4 Q 137998.6 49541.4 137418.6 49758.9 L 137215.6 49236.9 L 141217.6 47612.9 L 141855.6 47612.9 Z M 149460.8 50440.4 Q 150910.8 48990.4 151171.8 48772.9 Q 151824.3 48221.9 152578.3 47917.4 Q 153332.3 47612.9 154071.8 47612.9 Q 155318.8 47612.9 156217.8 48337.9 Q 157116.8 49062.9 157421.3 50440.4 Q 158914.8 48700.4 159944.3 48156.65 Q 160973.8 47612.9 162061.3 47612.9 Q 163119.8 47612.9 163939.05 48156.65 Q 164758.3 48700.4 165236.8 49932.9 Q 165555.8 50773.9 165555.8 52571.9 L 165555.8 58284.9 Q 165555.8 59531.9 165744.3 59995.9 Q 165889.3 60314.9 166280.8 60539.65 Q 166672.3 60764.4 167556.8 60764.4 L 167556.8 61286.4 L 161002.8 61286.4 L 161002.8 60764.4 L 161278.3 60764.4 Q 162133.8 60764.4 162612.3 60430.9 Q 162945.8 60198.9 163090.8 59691.4 Q 163148.8 59444.9 163148.8 58284.9 L 163148.8 52571.9 Q 163148.8 50947.9 162757.3 50280.9 Q 162191.8 49352.9 160944.8 49352.9 Q 160176.3 49352.9 159400.55 49737.15 Q 158624.8 50121.4 157522.8 51165.4 L 157493.8 51324.9 L 157522.8 51948.4 L 157522.8 58284.9 Q 157522.8 59647.9 157675.05 59981.4 Q 157827.3 60314.9 158247.8 60539.65 Q 158668.3 60764.4 159683.3 60764.4 L 159683.3 61286.4 L 152969.8 61286.4 L 152969.8 60764.4 Q 154071.8 60764.4 154485.05 60503.4 Q 154898.3 60242.4 155057.8 59720.4 Q 155130.3 59473.9 155130.3 58284.9 L 155130.3 52571.9 Q 155130.3 50947.9 154651.8 50237.4 Q 154013.8 49309.4 152868.3 49309.4 Q 152085.3 49309.4 151316.8 49729.9 Q 150113.3 50367.9 149460.8 51165.4 L 149460.8 58284.9 Q 149460.8 59589.9 149642.05 59981.4 Q 149823.3 60372.9 150178.55 60568.65 Q 150533.8 60764.4 151621.3 60764.4 L 151621.3 61286.4 L 145052.8 61286.4 L 145052.8 60764.4 Q 145966.3 60764.4 146328.8 60568.65 Q 146691.3 60372.9 146879.8 59945.15 Q 147068.3 59517.4 147068.3 58284.9 L 147068.3 53209.9 Q 147068.3 51020.4 146937.8 50382.4 Q 146836.3 49903.9 146618.8 49722.65 Q 146401.3 49541.4 146024.3 49541.4 Q 145618.3 49541.4 145052.8 49758.9 L 144835.3 49236.9 L 148837.3 47612.9 L 149460.8 47612.9 L 149460.8 50440.4 Z M 170841 53006.9 Q 170826.5 55964.9 172276.5 57646.9 Q 173726.5 59328.9 175684 59328.9 Q 176989 59328.9 177953.25 58611.15 Q 178917.5 57893.4 179570 56153.4 L 180019.5 56443.4 Q 179715 58429.9 178250.5 60061.15 Q 176786 61692.4 174582 61692.4 Q 172189.5 61692.4 170485.75 59829.15 Q 168782 57965.9 168782 54819.4 Q 168782 51411.9 170529.25 49505.15 Q 172276.5 47598.4 174915.5 47598.4 Q 177148.5 47598.4 178584 49070.15 Q 180019.5 50541.9 180019.5 53006.9 L 170841 53006.9 Z M 170841 52165.9 L 176989 52165.9 Q 176916.5 50889.9 176684.5 50367.9 Q 176322 49555.9 175604.25 49091.9 Q 174886.5 48627.9 174103.5 48627.9 Q 172900 48627.9 171950.25 49563.15 Q 171000.5 50498.4 170841 52165.9  Z M 200949.9 47612.9 L 200949.9 64693.9 Q 200949.9 65969.9 201123.9 66332.4 Q 201297.9 66694.9 201667.65 66897.9 Q 202037.4 67100.9 203110.4 67100.9 L 203110.4 67637.4 L 196411.4 67637.4 L 196411.4 67100.9 L 196686.9 67100.9 Q 197498.9 67100.9 197919.4 66868.9 Q 198209.4 66709.4 198383.4 66296.15 Q 198557.4 65882.9 198557.4 64693.9 L 198557.4 58980.9 Q 197237.9 60546.9 196251.9 61119.65 Q 195265.9 61692.4 194207.4 61692.4 Q 192278.9 61692.4 190763.65 59937.9 Q 189248.4 58183.4 189248.4 55239.9 Q 189248.4 51861.4 191249.4 49737.15 Q 193250.4 47612.9 196077.9 47612.9 Q 196904.4 47612.9 197600.4 47844.9 Q 198296.4 48076.9 198847.4 48540.9 Q 199688.4 48134.9 200456.9 47612.9 L 200949.9 47612.9 Z M 198557.4 58067.4 L 198557.4 51832.4 Q 198557.4 50744.9 198274.65 50121.4 Q 197991.9 49497.9 197266.9 49062.9 Q 196541.9 48627.9 195628.4 48627.9 Q 194004.4 48627.9 192844.4 50005.4 Q 191684.4 51382.9 191684.4 54181.4 Q 191684.4 56863.9 192866.15 58255.9 Q 194047.9 59647.9 195715.4 59647.9 Q 196570.9 59647.9 197237.9 59278.15 Q 197904.9 58908.4 198557.4 58067.4  Z M 215681.9 48004.4 L 215681.9 56051.9 Q 215681.9 58357.4 215790.65 58872.15 Q 215899.4 59386.9 216138.65 59589.9 Q 216377.9 59792.9 216696.9 59792.9 Q 217146.4 59792.9 217711.9 59546.4 L 217914.9 60053.9 L 213941.9 61692.4 L 213289.4 61692.4 L 213289.4 58879.4 Q 211578.4 60735.4 210679.4 61213.9 Q 209780.4 61692.4 208779.9 61692.4 Q 207663.4 61692.4 206844.15 61047.15 Q 206024.9 60401.9 205705.9 59386.9 Q 205386.9 58371.9 205386.9 56515.9 L 205386.9 50585.4 Q 205386.9 49642.9 205183.9 49280.4 Q 204980.9 48917.9 204582.15 48722.15 Q 204183.4 48526.4 203139.4 48540.9 L 203139.4 48004.4 L 207793.9 48004.4 L 207793.9 56892.9 Q 207793.9 58748.9 208439.15 59328.9 Q 209084.4 59908.9 209997.9 59908.9 Q 210621.4 59908.9 211411.65 59517.4 Q 212201.9 59125.9 213289.4 58023.9 L 213289.4 50498.4 Q 213289.4 49367.4 212876.15 48968.65 Q 212462.9 48569.9 211157.9 48540.9 L 211157.9 48004.4 L 215681.9 48004.4 Z M 226411.9 59372.4 Q 224367.4 60952.9 223845.4 61199.4 Q 223062.4 61561.9 222177.9 61561.9 Q 220800.4 61561.9 219908.65 60619.4 Q 219016.9 59676.9 219016.9 58139.9 Q 219016.9 57168.4 219451.9 56457.9 Q 220046.4 55471.9 221518.15 54601.9 Q 222989.9 53731.9 226411.9 52484.9 L 226411.9 51962.9 Q 226411.9 49976.4 225781.15 49236.9 Q 225150.4 48497.4 223946.9 48497.4 Q 223033.4 48497.4 222496.9 48990.4 Q 221945.9 49483.4 221945.9 50121.4 L 221974.9 50962.4 Q 221974.9 51629.4 221634.15 51991.9 Q 221293.4 52354.4 220742.4 52354.4 Q 220205.9 52354.4 219865.15 51977.4 Q 219524.4 51600.4 219524.4 50947.9 Q 219524.4 49700.9 220800.4 48656.9 Q 222076.4 47612.9 224381.9 47612.9 Q 226150.9 47612.9 227281.9 48207.4 Q 228137.4 48656.9 228543.4 49613.9 Q 228804.4 50237.4 228804.4 52165.9 L 228804.4 56675.4 Q 228804.4 58574.9 228876.9 59002.65 Q 228949.4 59430.4 229116.15 59575.4 Q 229282.9 59720.4 229500.4 59720.4 Q 229732.4 59720.4 229906.4 59618.9 Q 230210.9 59430.4 231080.9 58560.4 L 231080.9 59372.4 Q 229456.9 61547.4 227977.9 61547.4 Q 227267.4 61547.4 226846.9 61054.4 Q 226426.4 60561.4 226411.9 59372.4  Z M 226411.9 58429.9 L 226411.9 53369.4 Q 224222.4 54239.4 223584.4 54601.9 Q 222438.9 55239.9 221945.9 55935.9 Q 221452.9 56631.9 221452.9 57458.4 Q 221452.9 58502.4 222076.4 59191.15 Q 222699.9 59879.9 223511.9 59879.9 Q 224613.9 59879.9 226411.9 58429.9  Z M 235916.3 50425.9 Q 238250.8 47612.9 240367.8 47612.9 Q 241455.3 47612.9 242238.3 48156.65 Q 243021.3 48700.4 243485.3 49947.4 Q 243804.3 50817.4 243804.3 52615.4 L 243804.3 58284.9 Q 243804.3 59546.4 244007.3 59995.9 Q 244166.8 60358.4 244522.05 60561.4 Q 244877.3 60764.4 245834.3 60764.4 L 245834.3 61286.4 L 239265.8 61286.4 L 239265.8 60764.4 L 239541.3 60764.4 Q 240469.3 60764.4 240839.05 60481.65 Q 241208.8 60198.9 241353.8 59647.9 Q 241411.8 59430.4 241411.8 58284.9 L 241411.8 52847.4 Q 241411.8 51034.9 240940.55 50215.65 Q 240469.3 49396.4 239352.8 49396.4 Q 237627.3 49396.4 235916.3 51281.4 L 235916.3 58284.9 Q 235916.3 59633.4 236075.8 59952.4 Q 236278.8 60372.9 236634.05 60568.65 Q 236989.3 60764.4 238076.8 60764.4 L 238076.8 61286.4 L 231508.3 61286.4 L 231508.3 60764.4 L 231798.3 60764.4 Q 232813.3 60764.4 233168.55 60249.65 Q 233523.8 59734.9 233523.8 58284.9 L 233523.8 53354.9 Q 233523.8 50962.4 233415.05 50440.4 Q 233306.3 49918.4 233081.55 49729.9 Q 232856.8 49541.4 232479.8 49541.4 Q 232073.8 49541.4 231508.3 49758.9 L 231290.8 49236.9 L 235292.8 47612.9 L 235916.3 47612.9 L 235916.3 50425.9 Z M 250749.8 43639.9 L 250749.8 48004.4 L 253852.8 48004.4 L 253852.8 49019.4 L 250749.8 49019.4 L 250749.8 57632.4 Q 250749.8 58922.9 251119.55 59372.4 Q 251489.3 59821.9 252069.3 59821.9 Q 252547.8 59821.9 252997.3 59524.65 Q 253446.8 59227.4 253693.3 58647.4 L 254258.8 58647.4 Q 253751.3 60068.4 252823.3 60786.15 Q 251895.3 61503.9 250909.3 61503.9 Q 250242.3 61503.9 249604.3 61134.15 Q 248966.3 60764.4 248661.8 60075.65 Q 248357.3 59386.9 248357.3 57951.4 L 248357.3 49019.4 L 246254.8 49019.4 L 246254.8 48540.9 Q 247052.3 48221.9 247886.05 47460.65 Q 248719.8 46699.4 249372.3 45655.4 Q 249705.8 45104.4 250300.3 43639.9 L 250749.8 43639.9 Z M 258514.5 40667.4 Q 259123.5 40667.4 259551.25 41095.15 Q 259979 41522.9 259979 42131.9 Q 259979 42740.9 259551.25 43175.9 Q 259123.5 43610.9 258514.5 43610.9 Q 257905.5 43610.9 257470.5 43175.9 Q 257035.5 42740.9 257035.5 42131.9 Q 257035.5 41522.9 257463.25 41095.15 Q 257891 40667.4 258514.5 40667.4  Z M 259718 47612.9 L 259718 58284.9 Q 259718 59531.9 259899.25 59945.15 Q 260080.5 60358.4 260435.75 60561.4 Q 260791 60764.4 261733.5 60764.4 L 261733.5 61286.4 L 255281 61286.4 L 255281 60764.4 Q 256252.5 60764.4 256586 60575.9 Q 256919.5 60387.4 257115.25 59952.4 Q 257311 59517.4 257311 58284.9 L 257311 53166.4 Q 257311 51005.9 257180.5 50367.9 Q 257079 49903.9 256861.5 49722.65 Q 256644 49541.4 256267 49541.4 Q 255861 49541.4 255281 49758.9 L 255078 49236.9 L 259080 47612.9 L 259718 47612.9 Z M 267236.2 43639.9 L 267236.2 48004.4 L 270339.2 48004.4 L 270339.2 49019.4 L 267236.2 49019.4 L 267236.2 57632.4 Q 267236.2 58922.9 267605.95 59372.4 Q 267975.7 59821.9 268555.7 59821.9 Q 269034.2 59821.9 269483.7 59524.65 Q 269933.2 59227.4 270179.7 58647.4 L 270745.2 58647.4 Q 270237.7 60068.4 269309.7 60786.15 Q 268381.7 61503.9 267395.7 61503.9 Q 266728.7 61503.9 266090.7 61134.15 Q 265452.7 60764.4 265148.2 60075.65 Q 264843.7 59386.9 264843.7 57951.4 L 264843.7 49019.4 L 262741.2 49019.4 L 262741.2 48540.9 Q 263538.7 48221.9 264372.45 47460.65 Q 265206.2 46699.4 265858.7 45655.4 Q 266192.2 45104.4 266786.7 43639.9 L 267236.2 43639.9 Z M 279147.9 59372.4 Q 277103.4 60952.9 276581.4 61199.4 Q 275798.4 61561.9 274913.9 61561.9 Q 273536.4 61561.9 272644.65 60619.4 Q 271752.9 59676.9 271752.9 58139.9 Q 271752.9 57168.4 272187.9 56457.9 Q 272782.4 55471.9 274254.15 54601.9 Q 275725.9 53731.9 279147.9 52484.9 L 279147.9 51962.9 Q 279147.9 49976.4 278517.15 49236.9 Q 277886.4 48497.4 276682.9 48497.4 Q 275769.4 48497.4 275232.9 48990.4 Q 274681.9 49483.4 274681.9 50121.4 L 274710.9 50962.4 Q 274710.9 51629.4 274370.15 51991.9 Q 274029.4 52354.4 273478.4 52354.4 Q 272941.9 52354.4 272601.15 51977.4 Q 272260.4 51600.4 272260.4 50947.9 Q 272260.4 49700.9 273536.4 48656.9 Q 274812.4 47612.9 277117.9 47612.9 Q 278886.9 47612.9 280017.9 48207.4 Q 280873.4 48656.9 281279.4 49613.9 Q 281540.4 50237.4 281540.4 52165.9 L 281540.4 56675.4 Q 281540.4 58574.9 281612.9 59002.65 Q 281685.4 59430.4 281852.15 59575.4 Q 282018.9 59720.4 282236.4 59720.4 Q 282468.4 59720.4 282642.4 59618.9 Q 282946.9 59430.4 283816.9 58560.4 L 283816.9 59372.4 Q 282192.9 61547.4 280713.9 61547.4 Q 280003.4 61547.4 279582.9 61054.4 Q 279162.4 60561.4 279147.9 59372.4  Z M 279147.9 58429.9 L 279147.9 53369.4 Q 276958.4 54239.4 276320.4 54601.9 Q 275174.9 55239.9 274681.9 55935.9 Q 274188.9 56631.9 274188.9 57458.4 Q 274188.9 58502.4 274812.4 59191.15 Q 275435.9 59879.9 276247.9 59879.9 Q 277349.9 59879.9 279147.9 58429.9  Z M 288637.8 43639.9 L 288637.8 48004.4 L 291740.8 48004.4 L 291740.8 49019.4 L 288637.8 49019.4 L 288637.8 57632.4 Q 288637.8 58922.9 289007.55 59372.4 Q 289377.3 59821.9 289957.3 59821.9 Q 290435.8 59821.9 290885.3 59524.65 Q 291334.8 59227.4 291581.3 58647.4 L 292146.8 58647.4 Q 291639.3 60068.4 290711.3 60786.15 Q 289783.3 61503.9 288797.3 61503.9 Q 288130.3 61503.9 287492.3 61134.15 Q 286854.3 60764.4 286549.8 60075.65 Q 286245.3 59386.9 286245.3 57951.4 L 286245.3 49019.4 L 284142.8 49019.4 L 284142.8 48540.9 Q 284940.3 48221.9 285774.05 47460.65 Q 286607.8 46699.4 287260.3 45655.4 Q 287593.8 45104.4 288188.3 43639.9 L 288637.8 43639.9 Z M 296402.5 40667.4 Q 297011.5 40667.4 297439.25 41095.15 Q 297867 41522.9 297867 42131.9 Q 297867 42740.9 297439.25 43175.9 Q 297011.5 43610.9 296402.5 43610.9 Q 295793.5 43610.9 295358.5 43175.9 Q 294923.5 42740.9 294923.5 42131.9 Q 294923.5 41522.9 295351.25 41095.15 Q 295779 40667.4 296402.5 40667.4  Z M 297606 47612.9 L 297606 58284.9 Q 297606 59531.9 297787.25 59945.15 Q 297968.5 60358.4 298323.75 60561.4 Q 298679 60764.4 299621.5 60764.4 L 299621.5 61286.4 L 293169 61286.4 L 293169 60764.4 Q 294140.5 60764.4 294474 60575.9 Q 294807.5 60387.4 295003.25 59952.4 Q 295199 59517.4 295199 58284.9 L 295199 53166.4 Q 295199 51005.9 295068.5 50367.9 Q 294967 49903.9 294749.5 49722.65 Q 294532 49541.4 294155 49541.4 Q 293749 49541.4 293169 49758.9 L 292966 49236.9 L 296968 47612.9 L 297606 47612.9 Z M 300585.7 48004.4 L 306835.2 48004.4 L 306835.2 48540.9 L 306429.2 48540.9 Q 305863.7 48540.9 305566.45 48816.4 Q 305269.2 49091.9 305269.2 49555.9 Q 305269.2 50063.4 305573.7 50759.4 L 308662.2 58096.4 L 311765.2 50483.9 Q 312098.7 49671.9 312098.7 49251.4 Q 312098.7 49048.4 311982.7 48917.9 Q 311823.2 48700.4 311576.7 48620.65 Q 311330.2 48540.9 310576.2 48540.9 L 310576.2 48004.4 L 314911.7 48004.4 L 314911.7 48540.9 Q 314157.7 48598.9 313867.7 48845.4 Q 313360.2 49280.4 312954.2 50295.4 L 308241.7 61692.4 L 307647.2 61692.4 L 302905.7 50483.9 Q 302586.7 49700.9 302296.7 49360.15 Q 302006.7 49019.4 301557.2 48787.4 Q 301310.7 48656.9 300585.7 48540.9 L 300585.7 48004.4 Z M 318348.2 53006.9 Q 318333.7 55964.9 319783.7 57646.9 Q 321233.7 59328.9 323191.2 59328.9 Q 324496.2 59328.9 325460.45 58611.15 Q 326424.7 57893.4 327077.2 56153.4 L 327526.7 56443.4 Q 327222.2 58429.9 325757.7 60061.15 Q 324293.2 61692.4 322089.2 61692.4 Q 319696.7 61692.4 317992.95 59829.15 Q 316289.2 57965.9 316289.2 54819.4 Q 316289.2 51411.9 318036.45 49505.15 Q 319783.7 47598.4 322422.7 47598.4 Q 324655.7 47598.4 326091.2 49070.15 Q 327526.7 50541.9 327526.7 53006.9 L 318348.2 53006.9 Z M 318348.2 52165.9 L 324496.2 52165.9 Q 324423.7 50889.9 324191.7 50367.9 Q 323829.2 49555.9 323111.45 49091.9 Q 322393.7 48627.9 321610.7 48627.9 Q 320407.2 48627.9 319457.45 49563.15 Q 318507.7 50498.4 318348.2 52165.9  Z M 341859.6 52078.9 L 341859.6 57806.4 Q 341859.6 59662.4 342265.6 60111.9 Q 342816.6 60749.9 343933.1 60749.9 L 344687.1 60749.9 L 344687.1 61286.4 L 336262.6 61286.4 L 336262.6 60749.9 L 337002.1 60749.9 Q 338249.1 60749.9 338785.6 59937.9 Q 339075.6 59488.4 339075.6 57806.4 L 339075.6 45104.4 Q 339075.6 43248.4 338684.1 42798.9 Q 338118.6 42160.9 337002.1 42160.9 L 336262.6 42160.9 L 336262.6 41624.4 L 343469.1 41624.4 Q 346108.1 41624.4 347630.6 42168.15 Q 349153.1 42711.9 350197.1 44002.4 Q 351241.1 45292.9 351241.1 47061.9 Q 351241.1 49468.9 349653.35 50976.9 Q 348065.6 52484.9 345165.6 52484.9 Q 344455.1 52484.9 343628.6 52383.4 Q 342802.1 52281.9 341859.6 52078.9  Z M 341859.6 51252.4 Q 342628.1 51397.4 343222.6 51469.9 Q 343817.1 51542.4 344237.6 51542.4 Q 345745.6 51542.4 346840.35 50375.15 Q 347935.1 49207.9 347935.1 47351.9 Q 347935.1 46075.9 347413.1 44981.15 Q 346891.1 43886.4 345934.1 43342.65 Q 344977.1 42798.9 343759.1 42798.9 Q 343019.6 42798.9 341859.6 43074.4 L 341859.6 51252.4 Z M 370134.5 41174.9 L 370584 47859.4 L 370134.5 47859.4 Q 369235.5 44857.9 367568 43538.4 Q 365900.5 42218.9 363566 42218.9 Q 361608.5 42218.9 360028 43212.15 Q 358447.5 44205.4 357541.25 46380.4 Q 356635 48555.4 356635 51788.9 Q 356635 54456.9 357490.5 56414.4 Q 358346 58371.9 360064.25 59415.9 Q 361782.5 60459.9 363986.5 60459.9 Q 365900.5 60459.9 367365 59640.65 Q 368829.5 58821.4 370584 56385.4 L 371033.5 56675.4 Q 369554.5 59299.9 367582.5 60517.9 Q 365610.5 61735.9 362899 61735.9 Q 358012.5 61735.9 355330 58110.9 Q 353329 55413.9 353329 51759.9 Q 353329 48816.4 354648.5 46351.4 Q 355968 43886.4 358280.75 42530.65 Q 360593.5 41174.9 363334 41174.9 Q 365465.5 41174.9 367539 42218.9 Q 368148 42537.9 368409 42537.9 Q 368800.5 42537.9 369090.5 42262.4 Q 369467.5 41870.9 369627 41174.9 L 370134.5 41174.9 Z M 392087.2 61286.4 L 386838.2 61286.4 L 380182.7 52093.4 Q 379443.2 52122.4 378979.2 52122.4 Q 378790.7 52122.4 378573.2 52115.15 Q 378355.7 52107.9 378123.7 52093.4 L 378123.7 57806.4 Q 378123.7 59662.4 378529.7 60111.9 Q 379080.7 60749.9 380182.7 60749.9 L 380951.2 60749.9 L 380951.2 61286.4 L 372526.7 61286.4 L 372526.7 60749.9 L 373266.2 60749.9 Q 374513.2 60749.9 375049.7 59937.9 Q 375354.2 59488.4 375354.2 57806.4 L 375354.2 45104.4 Q 375354.2 43248.4 374948.2 42798.9 Q 374382.7 42160.9 373266.2 42160.9 L 372526.7 42160.9 L 372526.7 41624.4 L 379689.7 41624.4 Q 382821.7 41624.4 384307.95 42081.15 Q 385794.2 42537.9 386830.95 43763.15 Q 387867.7 44988.4 387867.7 46684.9 Q 387867.7 48497.4 386685.95 49831.4 Q 385504.2 51165.4 383024.7 51716.4 L 387084.7 57356.9 Q 388476.7 59299.9 389477.2 59937.9 Q 390477.7 60575.9 392087.2 60749.9 L 392087.2 61286.4 Z M 378123.7 51179.9 Q 378399.2 51179.9 378602.2 51187.15 Q 378805.2 51194.4 378935.7 51194.4 Q 381748.7 51194.4 383176.95 49976.4 Q 384605.2 48758.4 384605.2 46873.4 Q 384605.2 45031.9 383452.45 43879.15 Q 382299.7 42726.4 380400.2 42726.4 Q 379559.2 42726.4 378123.7 43001.9 L 378123.7 51179.9 Z M 403991.4 43639.9 L 403991.4 48004.4 L 407094.4 48004.4 L 407094.4 49019.4 L 403991.4 49019.4 L 403991.4 57632.4 Q 403991.4 58922.9 404361.15 59372.4 Q 404730.9 59821.9 405310.9 59821.9 Q 405789.4 59821.9 406238.9 59524.65 Q 406688.4 59227.4 406934.9 58647.4 L 407500.4 58647.4 Q 406992.9 60068.4 406064.9 60786.15 Q 405136.9 61503.9 404150.9 61503.9 Q 403483.9 61503.9 402845.9 61134.15 Q 402207.9 60764.4 401903.4 60075.65 Q 401598.9 59386.9 401598.9 57951.4 L 401598.9 49019.4 L 399496.4 49019.4 L 399496.4 48540.9 Q 400293.9 48221.9 401127.65 47460.65 Q 401961.4 46699.4 402613.9 45655.4 Q 402947.4 45104.4 403541.9 43639.9 L 403991.4 43639.9 Z M 410610.6 53006.9 Q 410596.1 55964.9 412046.1 57646.9 Q 413496.1 59328.9 415453.6 59328.9 Q 416758.6 59328.9 417722.85 58611.15 Q 418687.1 57893.4 419339.6 56153.4 L 419789.1 56443.4 Q 419484.6 58429.9 418020.1 60061.15 Q 416555.6 61692.4 414351.6 61692.4 Q 411959.1 61692.4 410255.35 59829.15 Q 408551.6 57965.9 408551.6 54819.4 Q 408551.6 51411.9 410298.85 49505.15 Q 412046.1 47598.4 414685.1 47598.4 Q 416918.1 47598.4 418353.6 49070.15 Q 419789.1 50541.9 419789.1 53006.9 L 410610.6 53006.9 Z M 410610.6 52165.9 L 416758.6 52165.9 Q 416686.1 50889.9 416454.1 50367.9 Q 416091.6 49555.9 415373.85 49091.9 Q 414656.1 48627.9 413873.1 48627.9 Q 412669.6 48627.9 411719.85 49563.15 Q 410770.1 50498.4 410610.6 52165.9  Z M 432817 56240.4 Q 432280.5 58864.9 430714.5 60278.65 Q 429148.5 61692.4 427249 61692.4 Q 424987 61692.4 423305 59792.9 Q 421623 57893.4 421623 54659.9 Q 421623 51527.9 423486.25 49570.4 Q 425349.5 47612.9 427959.5 47612.9 Q 429917 47612.9 431178.5 48649.65 Q 432440 49686.4 432440 50802.9 Q 432440 51353.9 432084.75 51694.65 Q 431729.5 52035.4 431091.5 52035.4 Q 430236 52035.4 429801 51484.4 Q 429554.5 51179.9 429474.75 50324.4 Q 429395 49468.9 428887.5 49019.4 Q 428380 48584.4 427481 48584.4 Q 426031 48584.4 425146.5 49657.4 Q 423972 51078.4 423972 53412.9 Q 423972 55790.9 425139.25 57610.65 Q 426306.5 59430.4 428293 59430.4 Q 429714 59430.4 430845 58458.9 Q 431642.5 57791.9 432396.5 56037.4 L 432817 56240.4 Z M 438594.9 40667.4 L 438594.9 50382.4 Q 440204.4 48613.4 441146.9 48113.15 Q 442089.4 47612.9 443031.9 47612.9 Q 444162.9 47612.9 444974.9 48236.4 Q 445786.9 48859.9 446178.4 50193.9 Q 446453.9 51121.9 446453.9 53586.9 L 446453.9 58284.9 Q 446453.9 59546.4 446656.9 60010.4 Q 446801.9 60358.4 447149.9 60561.4 Q 447497.9 60764.4 448425.9 60764.4 L 448425.9 61286.4 L 441900.9 61286.4 L 441900.9 60764.4 L 442205.4 60764.4 Q 443133.4 60764.4 443495.9 60481.65 Q 443858.4 60198.9 444003.4 59647.9 Q 444046.9 59415.9 444046.9 58284.9 L 444046.9 53586.9 Q 444046.9 51411.9 443822.15 50730.4 Q 443597.4 50048.9 443104.4 49708.15 Q 442611.4 49367.4 441915.4 49367.4 Q 441204.9 49367.4 440436.4 49744.4 Q 439667.9 50121.4 438594.9 51266.9 L 438594.9 58284.9 Q 438594.9 59647.9 438747.15 59981.4 Q 438899.4 60314.9 439312.65 60539.65 Q 439725.9 60764.4 440740.9 60764.4 L 440740.9 61286.4 L 434157.9 61286.4 L 434157.9 60764.4 Q 435042.4 60764.4 435549.9 60488.9 Q 435839.9 60343.9 436013.9 59937.9 Q 436187.9 59531.9 436187.9 58284.9 L 436187.9 46264.4 Q 436187.9 43987.9 436079.15 43465.9 Q 435970.4 42943.9 435745.65 42755.4 Q 435520.9 42566.9 435143.9 42566.9 Q 434839.4 42566.9 434157.9 42798.9 L 433954.9 42291.4 L 437927.9 40667.4 L 438594.9 40667.4 Z M 453413.9 50425.9 Q 455748.4 47612.9 457865.4 47612.9 Q 458952.9 47612.9 459735.9 48156.65 Q 460518.9 48700.4 460982.9 49947.4 Q 461301.9 50817.4 461301.9 52615.4 L 461301.9 58284.9 Q 461301.9 59546.4 461504.9 59995.9 Q 461664.4 60358.4 462019.65 60561.4 Q 462374.9 60764.4 463331.9 60764.4 L 463331.9 61286.4 L 456763.4 61286.4 L 456763.4 60764.4 L 457038.9 60764.4 Q 457966.9 60764.4 458336.65 60481.65 Q 458706.4 60198.9 458851.4 59647.9 Q 458909.4 59430.4 458909.4 58284.9 L 458909.4 52847.4 Q 458909.4 51034.9 458438.15 50215.65 Q 457966.9 49396.4 456850.4 49396.4 Q 455124.9 49396.4 453413.9 51281.4 L 453413.9 58284.9 Q 453413.9 59633.4 453573.4 59952.4 Q 453776.4 60372.9 454131.65 60568.65 Q 454486.9 60764.4 455574.4 60764.4 L 455574.4 61286.4 L 449005.9 61286.4 L 449005.9 60764.4 L 449295.9 60764.4 Q 450310.9 60764.4 450666.15 60249.65 Q 451021.4 59734.9 451021.4 58284.9 L 451021.4 53354.9 Q 451021.4 50962.4 450912.65 50440.4 Q 450803.9 49918.4 450579.15 49729.9 Q 450354.4 49541.4 449977.4 49541.4 Q 449571.4 49541.4 449005.9 49758.9 L 448788.4 49236.9 L 452790.4 47612.9 L 453413.9 47612.9 L 453413.9 50425.9 Z M 470886.4 47612.9 Q 473902.4 47612.9 475729.4 49903.9 Q 477280.9 51861.4 477280.9 54398.9 Q 477280.9 56182.4 476425.4 58009.4 Q 475569.9 59836.4 474069.15 60764.4 Q 472568.4 61692.4 470726.9 61692.4 Q 467725.4 61692.4 465956.4 59299.9 Q 464462.9 57284.4 464462.9 54775.9 Q 464462.9 52948.9 465369.15 51143.65 Q 466275.4 49338.4 467754.4 48475.65 Q 469233.4 47612.9 470886.4 47612.9  Z M 470436.9 48555.4 Q 469668.4 48555.4 468892.65 49012.15 Q 468116.9 49468.9 467638.4 50614.4 Q 467159.9 51759.9 467159.9 53557.9 Q 467159.9 56457.9 468312.65 58560.4 Q 469465.4 60662.9 471350.4 60662.9 Q 472756.9 60662.9 473670.4 59502.9 Q 474583.9 58342.9 474583.9 55515.4 Q 474583.9 51977.4 473061.4 49947.4 Q 472031.9 48555.4 470436.9 48555.4  Z M 483805.9 40667.4 L 483805.9 58284.9 Q 483805.9 59531.9 483987.15 59937.9 Q 484168.4 60343.9 484545.4 60554.15 Q 484922.4 60764.4 485951.9 60764.4 L 485951.9 61286.4 L 479441.4 61286.4 L 479441.4 60764.4 Q 480354.9 60764.4 480688.4 60575.9 Q 481021.9 60387.4 481210.4 59952.4 Q 481398.9 59517.4 481398.9 58284.9 L 481398.9 46220.9 Q 481398.9 43973.4 481297.4 43458.65 Q 481195.9 42943.9 480971.15 42755.4 Q 480746.4 42566.9 480398.4 42566.9 Q 480021.4 42566.9 479441.4 42798.9 L 479194.9 42291.4 L 483153.4 40667.4 L 483805.9 40667.4 Z M 493977.6 47612.9 Q 496993.6 47612.9 498820.6 49903.9 Q 500372.1 51861.4 500372.1 54398.9 Q 500372.1 56182.4 499516.6 58009.4 Q 498661.1 59836.4 497160.35 60764.4 Q 495659.6 61692.4 493818.1 61692.4 Q 490816.6 61692.4 489047.6 59299.9 Q 487554.1 57284.4 487554.1 54775.9 Q 487554.1 52948.9 488460.35 51143.65 Q 489366.6 49338.4 490845.6 48475.65 Q 492324.6 47612.9 493977.6 47612.9  Z M 493528.1 48555.4 Q 492759.6 48555.4 491983.85 49012.15 Q 491208.1 49468.9 490729.6 50614.4 Q 490251.1 51759.9 490251.1 53557.9 Q 490251.1 56457.9 491403.85 58560.4 Q 492556.6 60662.9 494441.6 60662.9 Q 495848.1 60662.9 496761.6 59502.9 Q 497675.1 58342.9 497675.1 55515.4 Q 497675.1 51977.4 496152.6 49947.4 Q 495123.1 48555.4 493528.1 48555.4  Z M 505882.1 56443.4 Q 504664.1 55848.9 504011.6 54783.15 Q 503359.1 53717.4 503359.1 52426.9 Q 503359.1 50454.9 504845.35 49033.9 Q 506331.6 47612.9 508651.6 47612.9 Q 510551.1 47612.9 511943.1 48540.9 L 514756.1 48540.9 Q 515379.6 48540.9 515481.1 48577.15 Q 515582.6 48613.4 515626.1 48700.4 Q 515713.1 48830.9 515713.1 49164.4 Q 515713.1 49541.4 515640.6 49686.4 Q 515597.1 49758.9 515488.35 49802.4 Q 515379.6 49845.9 514756.1 49845.9 L 513030.6 49845.9 Q 513842.6 50889.9 513842.6 52513.9 Q 513842.6 54369.9 512421.6 55689.4 Q 511000.6 57008.9 508608.1 57008.9 Q 507622.1 57008.9 506592.6 56718.9 Q 505954.6 57269.9 505729.85 57683.15 Q 505505.1 58096.4 505505.1 58386.4 Q 505505.1 58632.9 505744.35 58864.9 Q 505983.6 59096.9 506679.6 59198.4 Q 507085.6 59256.4 508709.6 59299.9 Q 511696.6 59372.4 512581.1 59502.9 Q 513929.6 59691.4 514734.35 60503.4 Q 515539.1 61315.4 515539.1 62504.4 Q 515539.1 64142.9 514002.1 65578.4 Q 511740.1 67695.4 508100.6 67695.4 Q 505302.1 67695.4 503373.6 66433.9 Q 502286.1 65708.9 502286.1 64925.9 Q 502286.1 64577.9 502445.6 64229.9 Q 502692.1 63693.4 503460.6 62736.4 Q 503562.1 62605.9 504939.6 61170.4 Q 504185.6 60720.9 503873.85 60365.65 Q 503562.1 60010.4 503562.1 59560.9 Q 503562.1 59053.4 503975.35 58371.9 Q 504388.6 57690.4 505882.1 56443.4  Z M 508405.1 48308.9 Q 507332.1 48308.9 506607.1 49164.4 Q 505882.1 50019.9 505882.1 51788.9 Q 505882.1 54079.9 506868.1 55341.4 Q 507622.1 56298.4 508782.1 56298.4 Q 509884.1 56298.4 510594.6 55471.9 Q 511305.1 54645.4 511305.1 52876.4 Q 511305.1 50570.9 510304.6 49265.9 Q 509565.1 48308.9 508405.1 48308.9  Z M 505737.1 61286.4 Q 505055.6 62025.9 504707.6 62663.9 Q 504359.6 63301.9 504359.6 63838.4 Q 504359.6 64534.4 505200.6 65056.4 Q 506650.6 65955.4 509391.1 65955.4 Q 512001.1 65955.4 513240.85 65034.65 Q 514480.6 64113.9 514480.6 63069.9 Q 514480.6 62315.9 513741.1 61996.9 Q 512987.1 61677.9 510754.1 61619.9 Q 507491.6 61532.9 505737.1 61286.4  Z M 516423.6 48004.4 L 522615.1 48004.4 L 522615.1 48540.9 L 522310.6 48540.9 Q 521658.1 48540.9 521331.85 48823.65 Q 521005.6 49106.4 521005.6 49526.9 Q 521005.6 50092.4 521484.1 51092.9 L 524717.6 57791.9 L 527690.1 50454.9 Q 527936.6 49860.4 527936.6 49280.4 Q 527936.6 49019.4 527835.1 48888.9 Q 527719.1 48729.4 527472.6 48635.15 Q 527226.1 48540.9 526602.6 48540.9 L 526602.6 48004.4 L 530923.6 48004.4 L 530923.6 48540.9 Q 530387.1 48598.9 530097.1 48772.9 Q 529807.1 48946.9 529459.1 49425.4 Q 529328.6 49628.4 528966.1 50541.9 L 523557.6 63794.9 Q 522774.6 65723.4 521505.85 66709.4 Q 520237.1 67695.4 519062.6 67695.4 Q 518207.1 67695.4 517656.1 67202.4 Q 517105.1 66709.4 517105.1 66071.4 Q 517105.1 65462.4 517503.85 65092.65 Q 517902.6 64722.9 518598.6 64722.9 Q 519077.1 64722.9 519903.6 65041.9 Q 520483.6 65259.4 520628.6 65259.4 Q 521063.6 65259.4 521578.35 64809.9 Q 522093.1 64360.4 522615.1 63069.9 L 523557.6 60764.4 L 518787.1 50744.9 Q 518569.6 50295.4 518091.1 49628.4 Q 517728.6 49120.9 517496.6 48946.9 Q 517163.1 48714.9 516423.6 48540.9 L 516423.6 48004.4 Z " fill-rule="nonzero" style="fill:#4f6128;;fill-opacity:1;"/>
</svg>