<svg version="1.1" x="0" y="0" width="100%" height="100%" viewBox="0 0 221184 51660.8" xmlns="http://www.w3.org/2000/svg">
  <path d="M 13661 27451.6 L 13661 35347.6 Q 13661 37657.6 13944.5 38256.1 Q 14228 38854.6 14952.5 39211.6 Q 15677 39568.6 17609 39568.6 L 17609 40345.6 L 3140 40345.6 L 3140 39568.6 Q 5114 39568.6 5817.5 39201.1 Q 6521 38833.6 6804.5 38245.6 Q 7088 37657.6 7088 35347.6 L 7088 16867.6 Q 7088 14557.6 6804.5 13959.1 Q 6521 13360.6 5807 13003.6 Q 5093 12646.6 3140 12646.6 L 3140 11869.6 L 15551 11869.6 Q 21683 11869.6 24350 14053.6 Q 27017 16237.6 27017 19513.6 Q 27017 22285.6 25295 24259.6 Q 23573 26233.6 20549 26947.6 Q 18512 27451.6 13661 27451.6  Z M 13661 13507.6 L 13661 25813.6 Q 14354 25855.6 14711 25855.6 Q 17273 25855.6 18659 24333.1 Q 20045 22810.6 20045 19618.6 Q 20045 16447.6 18659 14977.6 Q 17273 13507.6 14522 13507.6 L 13661 13507.6 Z M 37448.6 11869.6 L 37448.6 36271.6 Q 37448.6 38350.6 37931.6 38928.1 Q 38414.6 39505.6 39821.6 39589.6 L 39821.6 40345.6 L 29216.6 40345.6 L 29216.6 39589.6 Q 30518.6 39547.6 31148.6 38833.6 Q 31568.6 38350.6 31568.6 36271.6 L 31568.6 15943.6 Q 31568.6 13885.6 31085.6 13308.1 Q 30602.6 12730.6 29216.6 12646.6 L 29216.6 11869.6 L 37448.6 11869.6 Z M 52528.2 37447.6 Q 48937.2 40618.6 46081.2 40618.6 Q 44401.2 40618.6 43288.2 39516.1 Q 42175.2 38413.6 42175.2 36754.6 Q 42175.2 34507.6 44107.2 32712.1 Q 46039.2 30916.6 52528.2 27934.6 L 52528.2 25960.6 Q 52528.2 23734.6 52286.7 23157.1 Q 52045.2 22579.6 51373.2 22149.1 Q 50701.2 21718.6 49861.2 21718.6 Q 48496.2 21718.6 47614.2 22327.6 Q 47068.2 22705.6 47068.2 23209.6 Q 47068.2 23650.6 47656.2 24301.6 Q 48454.2 25204.6 48454.2 26044.6 Q 48454.2 27073.6 47687.7 27798.1 Q 46921.2 28522.6 45682.2 28522.6 Q 44359.2 28522.6 43466.7 27724.6 Q 42574.2 26926.6 42574.2 25855.6 Q 42574.2 24343.6 43771.2 22968.1 Q 44968.2 21592.6 47110.2 20857.6 Q 49252.2 20122.6 51562.2 20122.6 Q 54355.2 20122.6 55982.7 21309.1 Q 57610.2 22495.6 58093.2 23881.6 Q 58387.2 24763.6 58387.2 27934.6 L 58387.2 35557.6 Q 58387.2 36901.6 58492.2 37248.1 Q 58597.2 37594.6 58807.2 37762.6 Q 59017.2 37930.6 59290.2 37930.6 Q 59836.2 37930.6 60403.2 37153.6 L 61033.2 37657.6 Q 59983.2 39211.6 58859.7 39915.1 Q 57736.2 40618.6 56308.2 40618.6 Q 54628.2 40618.6 53683.2 39831.1 Q 52738.2 39043.6 52528.2 37447.6  Z M 52528.2 35914.6 L 52528.2 29341.6 Q 49987.2 30832.6 48748.2 32533.6 Q 47929.2 33667.6 47929.2 34822.6 Q 47929.2 35788.6 48622.2 36523.6 Q 49147.2 37090.6 50092.2 37090.6 Q 51142.2 37090.6 52528.2 35914.6  Z M 71218.2 20710.6 L 71218.2 23251.6 Q 72730.2 21613.6 74116.2 20868.1 Q 75502.2 20122.6 77098.2 20122.6 Q 79009.2 20122.6 80269.2 21183.1 Q 81529.2 22243.6 81949.2 23818.6 Q 82285.2 25015.6 82285.2 28417.6 L 82285.2 36061.6 Q 82285.2 38329.6 82694.7 38886.1 Q 83104.2 39442.6 84406.2 39589.6 L 84406.2 40345.6 L 74473.2 40345.6 L 74473.2 39589.6 Q 75586.2 39442.6 76069.2 38665.6 Q 76405.2 38140.6 76405.2 36061.6 L 76405.2 27325.6 Q 76405.2 24910.6 76216.2 24280.6 Q 76027.2 23650.6 75575.7 23304.1 Q 75124.2 22957.6 74578.2 22957.6 Q 72772.2 22957.6 71218.2 25540.6 L 71218.2 36061.6 Q 71218.2 38266.6 71627.7 38854.6 Q 72037.2 39442.6 73150.2 39589.6 L 73150.2 40345.6 L 63217.2 40345.6 L 63217.2 39589.6 Q 64456.2 39463.6 64981.2 38791.6 Q 65338.2 38329.6 65338.2 36061.6 L 65338.2 24973.6 Q 65338.2 22747.6 64928.7 22201.6 Q 64519.2 21655.6 63217.2 21487.6 L 63217.2 20710.6 L 71218.2 20710.6 Z M 115540.6 25246.6 Q 119593.6 26191.6 121231.6 27535.6 Q 123583.6 29446.6 123583.6 32491.6 Q 123583.6 35704.6 121000.6 37804.6 Q 117829.6 40345.6 111781.6 40345.6 L 97312.6 40345.6 L 97312.6 39568.6 Q 99286.6 39568.6 99990.1 39201.1 Q 100693.6 38833.6 100977.1 38245.6 Q 101260.6 37657.6 101260.6 35347.6 L 101260.6 16867.6 Q 101260.6 14557.6 100977.1 13959.1 Q 100693.6 13360.6 99979.6 13003.6 Q 99265.6 12646.6 97312.6 12646.6 L 97312.6 11869.6 L 110962.6 11869.6 Q 115855.6 11869.6 117892.6 12741.1 Q 119929.6 13612.6 121105.6 15345.1 Q 122281.6 17077.6 122281.6 19030.6 Q 122281.6 21088.6 120790.6 22695.1 Q 119299.6 24301.6 115540.6 25246.6  Z M 107896.6 24679.6 Q 110878.6 24679.6 112296.1 24007.6 Q 113713.6 23335.6 114469.6 22117.6 Q 115225.6 20899.6 115225.6 19009.6 Q 115225.6 17119.6 114480.1 15912.1 Q 113734.6 14704.6 112348.6 14074.6 Q 110962.6 13444.6 107896.6 13465.6 L 107896.6 24679.6 Z M 107896.6 26317.6 L 107896.6 35452.6 L 107875.6 36502.6 Q 107875.6 37636.6 108453.1 38214.1 Q 109030.6 38791.6 110164.6 38791.6 Q 111844.6 38791.6 113262.1 38046.1 Q 114679.6 37300.6 115435.6 35883.1 Q 116191.6 34465.6 116191.6 32722.6 Q 116191.6 30727.6 115267.6 29142.1 Q 114343.6 27556.6 112726.6 26926.6 Q 111109.6 26296.6 107896.6 26317.6  Z M 132263.6 20143.6 Q 133712.6 20143.6 134731.1 21162.1 Q 135749.6 22180.6 135749.6 23629.6 Q 135749.6 25078.6 134731.1 26097.1 Q 133712.6 27115.6 132263.6 27115.6 Q 130814.6 27115.6 129796.1 26097.1 Q 128777.6 25078.6 128777.6 23629.6 Q 128777.6 22180.6 129796.1 21162.1 Q 130814.6 20143.6 132263.6 20143.6  Z M 132242.6 33877.6 Q 133712.6 33877.6 134731.1 34906.6 Q 135749.6 35935.6 135749.6 37384.6 Q 135749.6 38833.6 134720.6 39852.1 Q 133691.6 40870.6 132242.6 40870.6 Q 130793.6 40870.6 129775.1 39852.1 Q 128756.6 38833.6 128756.6 37384.6 Q 128756.6 35935.6 129775.1 34906.6 Q 130793.6 33877.6 132242.6 33877.6  Z " fill-rule="nonzero" style="fill:#4f6128;;fill-opacity:1;"/>
</svg>