<svg version="1.1" x="0" y="0" width="100%" height="100%" viewBox="0 0 583731.2 64972.8" xmlns="http://www.w3.org/2000/svg">
  <path d="M 5799.05 47701.35 Q 5799.05 46732.35 6054.05 46056.6 Q 6309.05 45380.85 6742.55 44960.1 Q 7176.05 44539.35 7762.55 44348.1 Q 8349.05 44156.85 9035 44156.85 Q 9698 44156.85 10297.25 44348.1 Q 10896.5 44539.35 11330 44960.1 Q 11763.5 45380.85 12018.5 46056.6 Q 12273.5 46732.35 12273.5 47701.35 Q 12273.5 48647.4 12018.5 49323.15 Q 11763.5 49998.9 11330 50434.95 Q 10896.5 50871 10297.25 51075 Q 9698 51279 9035 51279 Q 8349.05 51279 7762.55 51075 Q 7176.05 50871 6742.55 50434.95 Q 6309.05 49998.9 6054.05 49323.15 Q 5799.05 48647.4 5799.05 47701.35  Z M 19674.25 47701.35 Q 19674.25 46732.35 19929.25 46056.6 Q 20184.25 45380.85 20617.75 44960.1 Q 21051.25 44539.35 21637.75 44348.1 Q 22224.25 44156.85 22910.2 44156.85 Q 23573.2 44156.85 24172.45 44348.1 Q 24771.7 44539.35 25205.2 44960.1 Q 25638.7 45380.85 25893.7 46056.6 Q 26148.7 46732.35 26148.7 47701.35 Q 26148.7 48647.4 25893.7 49323.15 Q 25638.7 49998.9 25205.2 50434.95 Q 24771.7 50871 24172.45 51075 Q 23573.2 51279 22910.2 51279 Q 22224.25 51279 21637.75 51075 Q 21051.25 50871 20617.75 50434.95 Q 20184.25 49998.9 19929.25 49323.15 Q 19674.25 48647.4 19674.25 47701.35  Z M 33549.45 47701.35 Q 33549.45 46732.35 33804.45 46056.6 Q 34059.45 45380.85 34492.95 44960.1 Q 34926.45 44539.35 35512.95 44348.1 Q 36099.45 44156.85 36785.4 44156.85 Q 37448.4 44156.85 38047.65 44348.1 Q 38646.9 44539.35 39080.4 44960.1 Q 39513.9 45380.85 39768.9 46056.6 Q 40023.9 46732.35 40023.9 47701.35 Q 40023.9 48647.4 39768.9 49323.15 Q 39513.9 49998.9 39080.4 50434.95 Q 38646.9 50871 38047.65 51075 Q 37448.4 51279 36785.4 51279 Q 36099.45 51279 35512.95 51075 Q 34926.45 50871 34492.95 50434.95 Q 34059.45 49998.9 33804.45 49323.15 Q 33549.45 48647.4 33549.45 47701.35  Z M 47424.65 47701.35 Q 47424.65 46732.35 47679.65 46056.6 Q 47934.65 45380.85 48368.15 44960.1 Q 48801.65 44539.35 49388.15 44348.1 Q 49974.65 44156.85 50660.6 44156.85 Q 51323.6 44156.85 51922.85 44348.1 Q 52522.1 44539.35 52955.6 44960.1 Q 53389.1 45380.85 53644.1 46056.6 Q 53899.1 46732.35 53899.1 47701.35 Q 53899.1 48647.4 53644.1 49323.15 Q 53389.1 49998.9 52955.6 50434.95 Q 52522.1 50871 51922.85 51075 Q 51323.6 51279 50660.6 51279 Q 49974.65 51279 49388.15 51075 Q 48801.65 50871 48368.15 50434.95 Q 47934.65 49998.9 47679.65 49323.15 Q 47424.65 48647.4 47424.65 47701.35  Z M 61299.85 47701.35 Q 61299.85 46732.35 61554.85 46056.6 Q 61809.85 45380.85 62243.35 44960.1 Q 62676.85 44539.35 63263.35 44348.1 Q 63849.85 44156.85 64535.8 44156.85 Q 65198.8 44156.85 65798.05 44348.1 Q 66397.3 44539.35 66830.8 44960.1 Q 67264.3 45380.85 67519.3 46056.6 Q 67774.3 46732.35 67774.3 47701.35 Q 67774.3 48647.4 67519.3 49323.15 Q 67264.3 49998.9 66830.8 50434.95 Q 66397.3 50871 65798.05 51075 Q 65198.8 51279 64535.8 51279 Q 63849.85 51279 63263.35 51075 Q 62676.85 50871 62243.35 50434.95 Q 61809.85 49998.9 61554.85 49323.15 Q 61299.85 48647.4 61299.85 47701.35  Z M 75175.05 47701.35 Q 75175.05 46732.35 75430.05 46056.6 Q 75685.05 45380.85 76118.55 44960.1 Q 76552.05 44539.35 77138.55 44348.1 Q 77725.05 44156.85 78411 44156.85 Q 79074 44156.85 79673.25 44348.1 Q 80272.5 44539.35 80706 44960.1 Q 81139.5 45380.85 81394.5 46056.6 Q 81649.5 46732.35 81649.5 47701.35 Q 81649.5 48647.4 81394.5 49323.15 Q 81139.5 49998.9 80706 50434.95 Q 80272.5 50871 79673.25 51075 Q 79074 51279 78411 51279 Q 77725.05 51279 77138.55 51075 Q 76552.05 50871 76118.55 50434.95 Q 75685.05 49998.9 75430.05 49323.15 Q 75175.05 48647.4 75175.05 47701.35  Z M 89050.25 47701.35 Q 89050.25 46732.35 89305.25 46056.6 Q 89560.25 45380.85 89993.75 44960.1 Q 90427.25 44539.35 91013.75 44348.1 Q 91600.25 44156.85 92286.2 44156.85 Q 92949.2 44156.85 93548.45 44348.1 Q 94147.7 44539.35 94581.2 44960.1 Q 95014.7 45380.85 95269.7 46056.6 Q 95524.7 46732.35 95524.7 47701.35 Q 95524.7 48647.4 95269.7 49323.15 Q 95014.7 49998.9 94581.2 50434.95 Q 94147.7 50871 93548.45 51075 Q 92949.2 51279 92286.2 51279 Q 91600.25 51279 91013.75 51075 Q 90427.25 50871 89993.75 50434.95 Q 89560.25 49998.9 89305.25 49323.15 Q 89050.25 48647.4 89050.25 47701.35  Z M 102925.45 47701.35 Q 102925.45 46732.35 103180.45 46056.6 Q 103435.45 45380.85 103868.95 44960.1 Q 104302.45 44539.35 104888.95 44348.1 Q 105475.45 44156.85 106161.4 44156.85 Q 106824.4 44156.85 107423.65 44348.1 Q 108022.9 44539.35 108456.4 44960.1 Q 108889.9 45380.85 109144.9 46056.6 Q 109399.9 46732.35 109399.9 47701.35 Q 109399.9 48647.4 109144.9 49323.15 Q 108889.9 49998.9 108456.4 50434.95 Q 108022.9 50871 107423.65 51075 Q 106824.4 51279 106161.4 51279 Q 105475.45 51279 104888.95 51075 Q 104302.45 50871 103868.95 50434.95 Q 103435.45 49998.9 103180.45 49323.15 Q 102925.45 48647.4 102925.45 47701.35  Z M 116800.65 47701.35 Q 116800.65 46732.35 117055.65 46056.6 Q 117310.65 45380.85 117744.15 44960.1 Q 118177.65 44539.35 118764.15 44348.1 Q 119350.65 44156.85 120036.6 44156.85 Q 120699.6 44156.85 121298.85 44348.1 Q 121898.1 44539.35 122331.6 44960.1 Q 122765.1 45380.85 123020.1 46056.6 Q 123275.1 46732.35 123275.1 47701.35 Q 123275.1 48647.4 123020.1 49323.15 Q 122765.1 49998.9 122331.6 50434.95 Q 121898.1 50871 121298.85 51075 Q 120699.6 51279 120036.6 51279 Q 119350.65 51279 118764.15 51075 Q 118177.65 50871 117744.15 50434.95 Q 117310.65 49998.9 117055.65 49323.15 Q 116800.65 48647.4 116800.65 47701.35  Z M 130675.85 47701.35 Q 130675.85 46732.35 130930.85 46056.6 Q 131185.85 45380.85 131619.35 44960.1 Q 132052.85 44539.35 132639.35 44348.1 Q 133225.85 44156.85 133911.8 44156.85 Q 134574.8 44156.85 135174.05 44348.1 Q 135773.3 44539.35 136206.8 44960.1 Q 136640.3 45380.85 136895.3 46056.6 Q 137150.3 46732.35 137150.3 47701.35 Q 137150.3 48647.4 136895.3 49323.15 Q 136640.3 49998.9 136206.8 50434.95 Q 135773.3 50871 135174.05 51075 Q 134574.8 51279 133911.8 51279 Q 133225.85 51279 132639.35 51075 Q 132052.85 50871 131619.35 50434.95 Q 131185.85 49998.9 130930.85 49323.15 Q 130675.85 48647.4 130675.85 47701.35  Z M 144551.05 47701.35 Q 144551.05 46732.35 144806.05 46056.6 Q 145061.05 45380.85 145494.55 44960.1 Q 145928.05 44539.35 146514.55 44348.1 Q 147101.05 44156.85 147787 44156.85 Q 148450 44156.85 149049.25 44348.1 Q 149648.5 44539.35 150082 44960.1 Q 150515.5 45380.85 150770.5 46056.6 Q 151025.5 46732.35 151025.5 47701.35 Q 151025.5 48647.4 150770.5 49323.15 Q 150515.5 49998.9 150082 50434.95 Q 149648.5 50871 149049.25 51075 Q 148450 51279 147787 51279 Q 147101.05 51279 146514.55 51075 Q 145928.05 50871 145494.55 50434.95 Q 145061.05 49998.9 144806.05 49323.15 Q 144551.05 48647.4 144551.05 47701.35  Z M 158426.25 47701.35 Q 158426.25 46732.35 158681.25 46056.6 Q 158936.25 45380.85 159369.75 44960.1 Q 159803.25 44539.35 160389.75 44348.1 Q 160976.25 44156.85 161662.2 44156.85 Q 162325.2 44156.85 162924.45 44348.1 Q 163523.7 44539.35 163957.2 44960.1 Q 164390.7 45380.85 164645.7 46056.6 Q 164900.7 46732.35 164900.7 47701.35 Q 164900.7 48647.4 164645.7 49323.15 Q 164390.7 49998.9 163957.2 50434.95 Q 163523.7 50871 162924.45 51075 Q 162325.2 51279 161662.2 51279 Q 160976.25 51279 160389.75 51075 Q 159803.25 50871 159369.75 50434.95 Q 158936.25 49998.9 158681.25 49323.15 Q 158426.25 48647.4 158426.25 47701.35  Z M 172301.45 47701.35 Q 172301.45 46732.35 172556.45 46056.6 Q 172811.45 45380.85 173244.95 44960.1 Q 173678.45 44539.35 174264.95 44348.1 Q 174851.45 44156.85 175537.4 44156.85 Q 176200.4 44156.85 176799.65 44348.1 Q 177398.9 44539.35 177832.4 44960.1 Q 178265.9 45380.85 178520.9 46056.6 Q 178775.9 46732.35 178775.9 47701.35 Q 178775.9 48647.4 178520.9 49323.15 Q 178265.9 49998.9 177832.4 50434.95 Q 177398.9 50871 176799.65 51075 Q 176200.4 51279 175537.4 51279 Q 174851.45 51279 174264.95 51075 Q 173678.45 50871 173244.95 50434.95 Q 172811.45 49998.9 172556.45 49323.15 Q 172301.45 48647.4 172301.45 47701.35  Z M 186176.65 47701.35 Q 186176.65 46732.35 186431.65 46056.6 Q 186686.65 45380.85 187120.15 44960.1 Q 187553.65 44539.35 188140.15 44348.1 Q 188726.65 44156.85 189412.6 44156.85 Q 190075.6 44156.85 190674.85 44348.1 Q 191274.1 44539.35 191707.6 44960.1 Q 192141.1 45380.85 192396.1 46056.6 Q 192651.1 46732.35 192651.1 47701.35 Q 192651.1 48647.4 192396.1 49323.15 Q 192141.1 49998.9 191707.6 50434.95 Q 191274.1 50871 190674.85 51075 Q 190075.6 51279 189412.6 51279 Q 188726.65 51279 188140.15 51075 Q 187553.65 50871 187120.15 50434.95 Q 186686.65 49998.9 186431.65 49323.15 Q 186176.65 48647.4 186176.65 47701.35  Z M 200051.85 47701.35 Q 200051.85 46732.35 200306.85 46056.6 Q 200561.85 45380.85 200995.35 44960.1 Q 201428.85 44539.35 202015.35 44348.1 Q 202601.85 44156.85 203287.8 44156.85 Q 203950.8 44156.85 204550.05 44348.1 Q 205149.3 44539.35 205582.8 44960.1 Q 206016.3 45380.85 206271.3 46056.6 Q 206526.3 46732.35 206526.3 47701.35 Q 206526.3 48647.4 206271.3 49323.15 Q 206016.3 49998.9 205582.8 50434.95 Q 205149.3 50871 204550.05 51075 Q 203950.8 51279 203287.8 51279 Q 202601.85 51279 202015.35 51075 Q 201428.85 50871 200995.35 50434.95 Q 200561.85 49998.9 200306.85 49323.15 Q 200051.85 48647.4 200051.85 47701.35  Z M 213927.05 47701.35 Q 213927.05 46732.35 214182.05 46056.6 Q 214437.05 45380.85 214870.55 44960.1 Q 215304.05 44539.35 215890.55 44348.1 Q 216477.05 44156.85 217163 44156.85 Q 217826 44156.85 218425.25 44348.1 Q 219024.5 44539.35 219458 44960.1 Q 219891.5 45380.85 220146.5 46056.6 Q 220401.5 46732.35 220401.5 47701.35 Q 220401.5 48647.4 220146.5 49323.15 Q 219891.5 49998.9 219458 50434.95 Q 219024.5 50871 218425.25 51075 Q 217826 51279 217163 51279 Q 216477.05 51279 215890.55 51075 Q 215304.05 50871 214870.55 50434.95 Q 214437.05 49998.9 214182.05 49323.15 Q 213927.05 48647.4 213927.05 47701.35  Z M 227802.25 47701.35 Q 227802.25 46732.35 228057.25 46056.6 Q 228312.25 45380.85 228745.75 44960.1 Q 229179.25 44539.35 229765.75 44348.1 Q 230352.25 44156.85 231038.2 44156.85 Q 231701.2 44156.85 232300.45 44348.1 Q 232899.7 44539.35 233333.2 44960.1 Q 233766.7 45380.85 234021.7 46056.6 Q 234276.7 46732.35 234276.7 47701.35 Q 234276.7 48647.4 234021.7 49323.15 Q 233766.7 49998.9 233333.2 50434.95 Q 232899.7 50871 232300.45 51075 Q 231701.2 51279 231038.2 51279 Q 230352.25 51279 229765.75 51075 Q 229179.25 50871 228745.75 50434.95 Q 228312.25 49998.9 228057.25 49323.15 Q 227802.25 48647.4 227802.25 47701.35  Z M 241677.45 47701.35 Q 241677.45 46732.35 241932.45 46056.6 Q 242187.45 45380.85 242620.95 44960.1 Q 243054.45 44539.35 243640.95 44348.1 Q 244227.45 44156.85 244913.4 44156.85 Q 245576.4 44156.85 246175.65 44348.1 Q 246774.9 44539.35 247208.4 44960.1 Q 247641.9 45380.85 247896.9 46056.6 Q 248151.9 46732.35 248151.9 47701.35 Q 248151.9 48647.4 247896.9 49323.15 Q 247641.9 49998.9 247208.4 50434.95 Q 246774.9 50871 246175.65 51075 Q 245576.4 51279 244913.4 51279 Q 244227.45 51279 243640.95 51075 Q 243054.45 50871 242620.95 50434.95 Q 242187.45 49998.9 241932.45 49323.15 Q 241677.45 48647.4 241677.45 47701.35  Z M 255552.65 47701.35 Q 255552.65 46732.35 255807.65 46056.6 Q 256062.65 45380.85 256496.15 44960.1 Q 256929.65 44539.35 257516.15 44348.1 Q 258102.65 44156.85 258788.6 44156.85 Q 259451.6 44156.85 260050.85 44348.1 Q 260650.1 44539.35 261083.6 44960.1 Q 261517.1 45380.85 261772.1 46056.6 Q 262027.1 46732.35 262027.1 47701.35 Q 262027.1 48647.4 261772.1 49323.15 Q 261517.1 49998.9 261083.6 50434.95 Q 260650.1 50871 260050.85 51075 Q 259451.6 51279 258788.6 51279 Q 258102.65 51279 257516.15 51075 Q 256929.65 50871 256496.15 50434.95 Q 256062.65 49998.9 255807.65 49323.15 Q 255552.65 48647.4 255552.65 47701.35  Z M 269427.85 47701.35 Q 269427.85 46732.35 269682.85 46056.6 Q 269937.85 45380.85 270371.35 44960.1 Q 270804.85 44539.35 271391.35 44348.1 Q 271977.85 44156.85 272663.8 44156.85 Q 273326.8 44156.85 273926.05 44348.1 Q 274525.3 44539.35 274958.8 44960.1 Q 275392.3 45380.85 275647.3 46056.6 Q 275902.3 46732.35 275902.3 47701.35 Q 275902.3 48647.4 275647.3 49323.15 Q 275392.3 49998.9 274958.8 50434.95 Q 274525.3 50871 273926.05 51075 Q 273326.8 51279 272663.8 51279 Q 271977.85 51279 271391.35 51075 Q 270804.85 50871 270371.35 50434.95 Q 269937.85 49998.9 269682.85 49323.15 Q 269427.85 48647.4 269427.85 47701.35  Z M 283303.05 47701.35 Q 283303.05 46732.35 283558.05 46056.6 Q 283813.05 45380.85 284246.55 44960.1 Q 284680.05 44539.35 285266.55 44348.1 Q 285853.05 44156.85 286539 44156.85 Q 287202 44156.85 287801.25 44348.1 Q 288400.5 44539.35 288834 44960.1 Q 289267.5 45380.85 289522.5 46056.6 Q 289777.5 46732.35 289777.5 47701.35 Q 289777.5 48647.4 289522.5 49323.15 Q 289267.5 49998.9 288834 50434.95 Q 288400.5 50871 287801.25 51075 Q 287202 51279 286539 51279 Q 285853.05 51279 285266.55 51075 Q 284680.05 50871 284246.55 50434.95 Q 283813.05 49998.9 283558.05 49323.15 Q 283303.05 48647.4 283303.05 47701.35  Z M 297178.25 47701.35 Q 297178.25 46732.35 297433.25 46056.6 Q 297688.25 45380.85 298121.75 44960.1 Q 298555.25 44539.35 299141.75 44348.1 Q 299728.25 44156.85 300414.2 44156.85 Q 301077.2 44156.85 301676.45 44348.1 Q 302275.7 44539.35 302709.2 44960.1 Q 303142.7 45380.85 303397.7 46056.6 Q 303652.7 46732.35 303652.7 47701.35 Q 303652.7 48647.4 303397.7 49323.15 Q 303142.7 49998.9 302709.2 50434.95 Q 302275.7 50871 301676.45 51075 Q 301077.2 51279 300414.2 51279 Q 299728.25 51279 299141.75 51075 Q 298555.25 50871 298121.75 50434.95 Q 297688.25 49998.9 297433.25 49323.15 Q 297178.25 48647.4 297178.25 47701.35  Z M 311053.45 47701.35 Q 311053.45 46732.35 311308.45 46056.6 Q 311563.45 45380.85 311996.95 44960.1 Q 312430.45 44539.35 313016.95 44348.1 Q 313603.45 44156.85 314289.4 44156.85 Q 314952.4 44156.85 315551.65 44348.1 Q 316150.9 44539.35 316584.4 44960.1 Q 317017.9 45380.85 317272.9 46056.6 Q 317527.9 46732.35 317527.9 47701.35 Q 317527.9 48647.4 317272.9 49323.15 Q 317017.9 49998.9 316584.4 50434.95 Q 316150.9 50871 315551.65 51075 Q 314952.4 51279 314289.4 51279 Q 313603.45 51279 313016.95 51075 Q 312430.45 50871 311996.95 50434.95 Q 311563.45 49998.9 311308.45 49323.15 Q 311053.45 48647.4 311053.45 47701.35  Z M 324928.65 47701.35 Q 324928.65 46732.35 325183.65 46056.6 Q 325438.65 45380.85 325872.15 44960.1 Q 326305.65 44539.35 326892.15 44348.1 Q 327478.65 44156.85 328164.6 44156.85 Q 328827.6 44156.85 329426.85 44348.1 Q 330026.1 44539.35 330459.6 44960.1 Q 330893.1 45380.85 331148.1 46056.6 Q 331403.1 46732.35 331403.1 47701.35 Q 331403.1 48647.4 331148.1 49323.15 Q 330893.1 49998.9 330459.6 50434.95 Q 330026.1 50871 329426.85 51075 Q 328827.6 51279 328164.6 51279 Q 327478.65 51279 326892.15 51075 Q 326305.65 50871 325872.15 50434.95 Q 325438.65 49998.9 325183.65 49323.15 Q 324928.65 48647.4 324928.65 47701.35  Z M 338803.85 47701.35 Q 338803.85 46732.35 339058.85 46056.6 Q 339313.85 45380.85 339747.35 44960.1 Q 340180.85 44539.35 340767.35 44348.1 Q 341353.85 44156.85 342039.8 44156.85 Q 342702.8 44156.85 343302.05 44348.1 Q 343901.3 44539.35 344334.8 44960.1 Q 344768.3 45380.85 345023.3 46056.6 Q 345278.3 46732.35 345278.3 47701.35 Q 345278.3 48647.4 345023.3 49323.15 Q 344768.3 49998.9 344334.8 50434.95 Q 343901.3 50871 343302.05 51075 Q 342702.8 51279 342039.8 51279 Q 341353.85 51279 340767.35 51075 Q 340180.85 50871 339747.35 50434.95 Q 339313.85 49998.9 339058.85 49323.15 Q 338803.85 48647.4 338803.85 47701.35  Z M 352679.05 47701.35 Q 352679.05 46732.35 352934.05 46056.6 Q 353189.05 45380.85 353622.55 44960.1 Q 354056.05 44539.35 354642.55 44348.1 Q 355229.05 44156.85 355915 44156.85 Q 356578 44156.85 357177.25 44348.1 Q 357776.5 44539.35 358210 44960.1 Q 358643.5 45380.85 358898.5 46056.6 Q 359153.5 46732.35 359153.5 47701.35 Q 359153.5 48647.4 358898.5 49323.15 Q 358643.5 49998.9 358210 50434.95 Q 357776.5 50871 357177.25 51075 Q 356578 51279 355915 51279 Q 355229.05 51279 354642.55 51075 Q 354056.05 50871 353622.55 50434.95 Q 353189.05 49998.9 352934.05 49323.15 Q 352679.05 48647.4 352679.05 47701.35  Z M 366554.25 47701.35 Q 366554.25 46732.35 366809.25 46056.6 Q 367064.25 45380.85 367497.75 44960.1 Q 367931.25 44539.35 368517.75 44348.1 Q 369104.25 44156.85 369790.2 44156.85 Q 370453.2 44156.85 371052.45 44348.1 Q 371651.7 44539.35 372085.2 44960.1 Q 372518.7 45380.85 372773.7 46056.6 Q 373028.7 46732.35 373028.7 47701.35 Q 373028.7 48647.4 372773.7 49323.15 Q 372518.7 49998.9 372085.2 50434.95 Q 371651.7 50871 371052.45 51075 Q 370453.2 51279 369790.2 51279 Q 369104.25 51279 368517.75 51075 Q 367931.25 50871 367497.75 50434.95 Q 367064.25 49998.9 366809.25 49323.15 Q 366554.25 48647.4 366554.25 47701.35  Z M 380429.45 47701.35 Q 380429.45 46732.35 380684.45 46056.6 Q 380939.45 45380.85 381372.95 44960.1 Q 381806.45 44539.35 382392.95 44348.1 Q 382979.45 44156.85 383665.4 44156.85 Q 384328.4 44156.85 384927.65 44348.1 Q 385526.9 44539.35 385960.4 44960.1 Q 386393.9 45380.85 386648.9 46056.6 Q 386903.9 46732.35 386903.9 47701.35 Q 386903.9 48647.4 386648.9 49323.15 Q 386393.9 49998.9 385960.4 50434.95 Q 385526.9 50871 384927.65 51075 Q 384328.4 51279 383665.4 51279 Q 382979.45 51279 382392.95 51075 Q 381806.45 50871 381372.95 50434.95 Q 380939.45 49998.9 380684.45 49323.15 Q 380429.45 48647.4 380429.45 47701.35  Z M 394304.65 47701.35 Q 394304.65 46732.35 394559.65 46056.6 Q 394814.65 45380.85 395248.15 44960.1 Q 395681.65 44539.35 396268.15 44348.1 Q 396854.65 44156.85 397540.6 44156.85 Q 398203.6 44156.85 398802.85 44348.1 Q 399402.1 44539.35 399835.6 44960.1 Q 400269.1 45380.85 400524.1 46056.6 Q 400779.1 46732.35 400779.1 47701.35 Q 400779.1 48647.4 400524.1 49323.15 Q 400269.1 49998.9 399835.6 50434.95 Q 399402.1 50871 398802.85 51075 Q 398203.6 51279 397540.6 51279 Q 396854.65 51279 396268.15 51075 Q 395681.65 50871 395248.15 50434.95 Q 394814.65 49998.9 394559.65 49323.15 Q 394304.65 48647.4 394304.65 47701.35  Z M 408179.85 47701.35 Q 408179.85 46732.35 408434.85 46056.6 Q 408689.85 45380.85 409123.35 44960.1 Q 409556.85 44539.35 410143.35 44348.1 Q 410729.85 44156.85 411415.8 44156.85 Q 412078.8 44156.85 412678.05 44348.1 Q 413277.3 44539.35 413710.8 44960.1 Q 414144.3 45380.85 414399.3 46056.6 Q 414654.3 46732.35 414654.3 47701.35 Q 414654.3 48647.4 414399.3 49323.15 Q 414144.3 49998.9 413710.8 50434.95 Q 413277.3 50871 412678.05 51075 Q 412078.8 51279 411415.8 51279 Q 410729.85 51279 410143.35 51075 Q 409556.85 50871 409123.35 50434.95 Q 408689.85 49998.9 408434.85 49323.15 Q 408179.85 48647.4 408179.85 47701.35  Z M 422055.05 47701.35 Q 422055.05 46732.35 422310.05 46056.6 Q 422565.05 45380.85 422998.55 44960.1 Q 423432.05 44539.35 424018.55 44348.1 Q 424605.05 44156.85 425291 44156.85 Q 425954 44156.85 426553.25 44348.1 Q 427152.5 44539.35 427586 44960.1 Q 428019.5 45380.85 428274.5 46056.6 Q 428529.5 46732.35 428529.5 47701.35 Q 428529.5 48647.4 428274.5 49323.15 Q 428019.5 49998.9 427586 50434.95 Q 427152.5 50871 426553.25 51075 Q 425954 51279 425291 51279 Q 424605.05 51279 424018.55 51075 Q 423432.05 50871 422998.55 50434.95 Q 422565.05 49998.9 422310.05 49323.15 Q 422055.05 48647.4 422055.05 47701.35  Z M 435930.25 47701.35 Q 435930.25 46732.35 436185.25 46056.6 Q 436440.25 45380.85 436873.75 44960.1 Q 437307.25 44539.35 437893.75 44348.1 Q 438480.25 44156.85 439166.2 44156.85 Q 439829.2 44156.85 440428.45 44348.1 Q 441027.7 44539.35 441461.2 44960.1 Q 441894.7 45380.85 442149.7 46056.6 Q 442404.7 46732.35 442404.7 47701.35 Q 442404.7 48647.4 442149.7 49323.15 Q 441894.7 49998.9 441461.2 50434.95 Q 441027.7 50871 440428.45 51075 Q 439829.2 51279 439166.2 51279 Q 438480.25 51279 437893.75 51075 Q 437307.25 50871 436873.75 50434.95 Q 436440.25 49998.9 436185.25 49323.15 Q 435930.25 48647.4 435930.25 47701.35  Z M 449805.45 47701.35 Q 449805.45 46732.35 450060.45 46056.6 Q 450315.45 45380.85 450748.95 44960.1 Q 451182.45 44539.35 451768.95 44348.1 Q 452355.45 44156.85 453041.4 44156.85 Q 453704.4 44156.85 454303.65 44348.1 Q 454902.9 44539.35 455336.4 44960.1 Q 455769.9 45380.85 456024.9 46056.6 Q 456279.9 46732.35 456279.9 47701.35 Q 456279.9 48647.4 456024.9 49323.15 Q 455769.9 49998.9 455336.4 50434.95 Q 454902.9 50871 454303.65 51075 Q 453704.4 51279 453041.4 51279 Q 452355.45 51279 451768.95 51075 Q 451182.45 50871 450748.95 50434.95 Q 450315.45 49998.9 450060.45 49323.15 Q 449805.45 48647.4 449805.45 47701.35  Z M 463680.65 47701.35 Q 463680.65 46732.35 463935.65 46056.6 Q 464190.65 45380.85 464624.15 44960.1 Q 465057.65 44539.35 465644.15 44348.1 Q 466230.65 44156.85 466916.6 44156.85 Q 467579.6 44156.85 468178.85 44348.1 Q 468778.1 44539.35 469211.6 44960.1 Q 469645.1 45380.85 469900.1 46056.6 Q 470155.1 46732.35 470155.1 47701.35 Q 470155.1 48647.4 469900.1 49323.15 Q 469645.1 49998.9 469211.6 50434.95 Q 468778.1 50871 468178.85 51075 Q 467579.6 51279 466916.6 51279 Q 466230.65 51279 465644.15 51075 Q 465057.65 50871 464624.15 50434.95 Q 464190.65 49998.9 463935.65 49323.15 Q 463680.65 48647.4 463680.65 47701.35  Z M 477555.85 47701.35 Q 477555.85 46732.35 477810.85 46056.6 Q 478065.85 45380.85 478499.35 44960.1 Q 478932.85 44539.35 479519.35 44348.1 Q 480105.85 44156.85 480791.8 44156.85 Q 481454.8 44156.85 482054.05 44348.1 Q 482653.3 44539.35 483086.8 44960.1 Q 483520.3 45380.85 483775.3 46056.6 Q 484030.3 46732.35 484030.3 47701.35 Q 484030.3 48647.4 483775.3 49323.15 Q 483520.3 49998.9 483086.8 50434.95 Q 482653.3 50871 482054.05 51075 Q 481454.8 51279 480791.8 51279 Q 480105.85 51279 479519.35 51075 Q 478932.85 50871 478499.35 50434.95 Q 478065.85 49998.9 477810.85 49323.15 Q 477555.85 48647.4 477555.85 47701.35  Z M 491431.05 47701.35 Q 491431.05 46732.35 491686.05 46056.6 Q 491941.05 45380.85 492374.55 44960.1 Q 492808.05 44539.35 493394.55 44348.1 Q 493981.05 44156.85 494667 44156.85 Q 495330 44156.85 495929.25 44348.1 Q 496528.5 44539.35 496962 44960.1 Q 497395.5 45380.85 497650.5 46056.6 Q 497905.5 46732.35 497905.5 47701.35 Q 497905.5 48647.4 497650.5 49323.15 Q 497395.5 49998.9 496962 50434.95 Q 496528.5 50871 495929.25 51075 Q 495330 51279 494667 51279 Q 493981.05 51279 493394.55 51075 Q 492808.05 50871 492374.55 50434.95 Q 491941.05 49998.9 491686.05 49323.15 Q 491431.05 48647.4 491431.05 47701.35  Z M 505306.25 47701.35 Q 505306.25 46732.35 505561.25 46056.6 Q 505816.25 45380.85 506249.75 44960.1 Q 506683.25 44539.35 507269.75 44348.1 Q 507856.25 44156.85 508542.2 44156.85 Q 509205.2 44156.85 509804.45 44348.1 Q 510403.7 44539.35 510837.2 44960.1 Q 511270.7 45380.85 511525.7 46056.6 Q 511780.7 46732.35 511780.7 47701.35 Q 511780.7 48647.4 511525.7 49323.15 Q 511270.7 49998.9 510837.2 50434.95 Q 510403.7 50871 509804.45 51075 Q 509205.2 51279 508542.2 51279 Q 507856.25 51279 507269.75 51075 Q 506683.25 50871 506249.75 50434.95 Q 505816.25 49998.9 505561.25 49323.15 Q 505306.25 48647.4 505306.25 47701.35  Z M 519181.45 47701.35 Q 519181.45 46732.35 519436.45 46056.6 Q 519691.45 45380.85 520124.95 44960.1 Q 520558.45 44539.35 521144.95 44348.1 Q 521731.45 44156.85 522417.4 44156.85 Q 523080.4 44156.85 523679.65 44348.1 Q 524278.9 44539.35 524712.4 44960.1 Q 525145.9 45380.85 525400.9 46056.6 Q 525655.9 46732.35 525655.9 47701.35 Q 525655.9 48647.4 525400.9 49323.15 Q 525145.9 49998.9 524712.4 50434.95 Q 524278.9 50871 523679.65 51075 Q 523080.4 51279 522417.4 51279 Q 521731.45 51279 521144.95 51075 Q 520558.45 50871 520124.95 50434.95 Q 519691.45 49998.9 519436.45 49323.15 Q 519181.45 48647.4 519181.45 47701.35  Z " fill-rule="nonzero" style="fill:#7f7f7f;;fill-opacity:1;"/>
</svg>