<svg version="1.1" x="0" y="0" width="100%" height="100%" viewBox="0 0 578560 51660.8" xmlns="http://www.w3.org/2000/svg">
  <path d="M 13661 27451.6 L 13661 35347.6 Q 13661 37657.6 13944.5 38256.1 Q 14228 38854.6 14952.5 39211.6 Q 15677 39568.6 17609 39568.6 L 17609 40345.6 L 3140 40345.6 L 3140 39568.6 Q 5114 39568.6 5817.5 39201.1 Q 6521 38833.6 6804.5 38245.6 Q 7088 37657.6 7088 35347.6 L 7088 16867.6 Q 7088 14557.6 6804.5 13959.1 Q 6521 13360.6 5807 13003.6 Q 5093 12646.6 3140 12646.6 L 3140 11869.6 L 15551 11869.6 Q 21683 11869.6 24350 14053.6 Q 27017 16237.6 27017 19513.6 Q 27017 22285.6 25295 24259.6 Q 23573 26233.6 20549 26947.6 Q 18512 27451.6 13661 27451.6  Z M 13661 13507.6 L 13661 25813.6 Q 14354 25855.6 14711 25855.6 Q 17273 25855.6 18659 24333.1 Q 20045 22810.6 20045 19618.6 Q 20045 16447.6 18659 14977.6 Q 17273 13507.6 14522 13507.6 L 13661 13507.6 Z M 37448.6 11869.6 L 37448.6 36271.6 Q 37448.6 38350.6 37931.6 38928.1 Q 38414.6 39505.6 39821.6 39589.6 L 39821.6 40345.6 L 29216.6 40345.6 L 29216.6 39589.6 Q 30518.6 39547.6 31148.6 38833.6 Q 31568.6 38350.6 31568.6 36271.6 L 31568.6 15943.6 Q 31568.6 13885.6 31085.6 13308.1 Q 30602.6 12730.6 29216.6 12646.6 L 29216.6 11869.6 L 37448.6 11869.6 Z M 52528.2 37447.6 Q 48937.2 40618.6 46081.2 40618.6 Q 44401.2 40618.6 43288.2 39516.1 Q 42175.2 38413.6 42175.2 36754.6 Q 42175.2 34507.6 44107.2 32712.1 Q 46039.2 30916.6 52528.2 27934.6 L 52528.2 25960.6 Q 52528.2 23734.6 52286.7 23157.1 Q 52045.2 22579.6 51373.2 22149.1 Q 50701.2 21718.6 49861.2 21718.6 Q 48496.2 21718.6 47614.2 22327.6 Q 47068.2 22705.6 47068.2 23209.6 Q 47068.2 23650.6 47656.2 24301.6 Q 48454.2 25204.6 48454.2 26044.6 Q 48454.2 27073.6 47687.7 27798.1 Q 46921.2 28522.6 45682.2 28522.6 Q 44359.2 28522.6 43466.7 27724.6 Q 42574.2 26926.6 42574.2 25855.6 Q 42574.2 24343.6 43771.2 22968.1 Q 44968.2 21592.6 47110.2 20857.6 Q 49252.2 20122.6 51562.2 20122.6 Q 54355.2 20122.6 55982.7 21309.1 Q 57610.2 22495.6 58093.2 23881.6 Q 58387.2 24763.6 58387.2 27934.6 L 58387.2 35557.6 Q 58387.2 36901.6 58492.2 37248.1 Q 58597.2 37594.6 58807.2 37762.6 Q 59017.2 37930.6 59290.2 37930.6 Q 59836.2 37930.6 60403.2 37153.6 L 61033.2 37657.6 Q 59983.2 39211.6 58859.7 39915.1 Q 57736.2 40618.6 56308.2 40618.6 Q 54628.2 40618.6 53683.2 39831.1 Q 52738.2 39043.6 52528.2 37447.6  Z M 52528.2 35914.6 L 52528.2 29341.6 Q 49987.2 30832.6 48748.2 32533.6 Q 47929.2 33667.6 47929.2 34822.6 Q 47929.2 35788.6 48622.2 36523.6 Q 49147.2 37090.6 50092.2 37090.6 Q 51142.2 37090.6 52528.2 35914.6  Z M 71218.2 20710.6 L 71218.2 23251.6 Q 72730.2 21613.6 74116.2 20868.1 Q 75502.2 20122.6 77098.2 20122.6 Q 79009.2 20122.6 80269.2 21183.1 Q 81529.2 22243.6 81949.2 23818.6 Q 82285.2 25015.6 82285.2 28417.6 L 82285.2 36061.6 Q 82285.2 38329.6 82694.7 38886.1 Q 83104.2 39442.6 84406.2 39589.6 L 84406.2 40345.6 L 74473.2 40345.6 L 74473.2 39589.6 Q 75586.2 39442.6 76069.2 38665.6 Q 76405.2 38140.6 76405.2 36061.6 L 76405.2 27325.6 Q 76405.2 24910.6 76216.2 24280.6 Q 76027.2 23650.6 75575.7 23304.1 Q 75124.2 22957.6 74578.2 22957.6 Q 72772.2 22957.6 71218.2 25540.6 L 71218.2 36061.6 Q 71218.2 38266.6 71627.7 38854.6 Q 72037.2 39442.6 73150.2 39589.6 L 73150.2 40345.6 L 63217.2 40345.6 L 63217.2 39589.6 Q 64456.2 39463.6 64981.2 38791.6 Q 65338.2 38329.6 65338.2 36061.6 L 65338.2 24973.6 Q 65338.2 22747.6 64928.7 22201.6 Q 64519.2 21655.6 63217.2 21487.6 L 63217.2 20710.6 L 71218.2 20710.6 Z M 114301.6 32239.6 L 104242.6 32239.6 L 103045.6 35011.6 Q 102457.6 36397.6 102457.6 37300.6 Q 102457.6 38497.6 103423.6 39064.6 Q 103990.6 39400.6 106216.6 39568.6 L 106216.6 40345.6 L 96745.6 40345.6 L 96745.6 39568.6 Q 98278.6 39337.6 99265.6 38298.1 Q 100252.6 37258.6 101701.6 34003.6 L 111886.6 11281.6 L 112285.6 11281.6 L 122554.6 34633.6 Q 124024.6 37951.6 124969.6 38812.6 Q 125683.6 39463.6 126985.6 39568.6 L 126985.6 40345.6 L 113209.6 40345.6 L 113209.6 39568.6 L 113776.6 39568.6 Q 115435.6 39568.6 116107.6 39106.6 Q 116569.6 38770.6 116569.6 38140.6 Q 116569.6 37762.6 116443.6 37363.6 Q 116401.6 37174.6 115813.6 35788.6 L 114301.6 32239.6 Z M 113587.6 30685.6 L 109345.6 20878.6 L 104977.6 30685.6 L 113587.6 30685.6 Z M 134618.8 20143.6 Q 136067.8 20143.6 137086.3 21162.1 Q 138104.8 22180.6 138104.8 23629.6 Q 138104.8 25078.6 137086.3 26097.1 Q 136067.8 27115.6 134618.8 27115.6 Q 133169.8 27115.6 132151.3 26097.1 Q 131132.8 25078.6 131132.8 23629.6 Q 131132.8 22180.6 132151.3 21162.1 Q 133169.8 20143.6 134618.8 20143.6  Z M 134597.8 33877.6 Q 136067.8 33877.6 137086.3 34906.6 Q 138104.8 35935.6 138104.8 37384.6 Q 138104.8 38833.6 137075.8 39852.1 Q 136046.8 40870.6 134597.8 40870.6 Q 133148.8 40870.6 132130.3 39852.1 Q 131111.8 38833.6 131111.8 37384.6 Q 131111.8 35935.6 132130.3 34906.6 Q 133148.8 33877.6 134597.8 33877.6  Z " fill-rule="nonzero" style="fill:#4f6128;;fill-opacity:1;"/>
  <path d="M 182146.6 11218.6 L 182146.6 21256.6 L 181369.6 21256.6 Q 179962.6 17140.6 177148.6 14998.6 Q 174334.6 12856.6 170995.6 12856.6 Q 167803.6 12856.6 165682.6 14652.1 Q 163561.6 16447.6 162679.6 19660.6 Q 161797.6 22873.6 161797.6 26254.6 Q 161797.6 30349.6 162763.6 33436.6 Q 163729.6 36523.6 165882.1 37972.6 Q 168034.6 39421.6 170995.6 39421.6 Q 172024.6 39421.6 173106.1 39201.1 Q 174187.6 38980.6 175321.6 38560.6 L 175321.6 32638.6 Q 175321.6 30958.6 175090.6 30465.1 Q 174859.6 29971.6 174135.1 29572.6 Q 173410.6 29173.6 172381.6 29173.6 L 171646.6 29173.6 L 171646.6 28396.6 L 185485.6 28396.6 L 185485.6 29173.6 Q 183910.6 29278.6 183291.1 29604.1 Q 182671.6 29929.6 182335.6 30685.6 Q 182146.6 31084.6 182146.6 32638.6 L 182146.6 38560.6 Q 179416.6 39778.6 176466.1 40398.1 Q 173515.6 41017.6 170344.6 41017.6 Q 166291.6 41017.6 163614.1 39915.1 Q 160936.6 38812.6 158889.1 37017.1 Q 156841.6 35221.6 155686.6 32974.6 Q 154216.6 30076.6 154216.6 26485.6 Q 154216.6 20059.6 158731.6 15628.6 Q 163246.6 11197.6 170092.6 11197.6 Q 172213.6 11197.6 173914.6 11533.6 Q 174838.6 11701.6 176907.1 12489.1 Q 178975.6 13276.6 179353.6 13276.6 Q 179941.6 13276.6 180445.6 12846.1 Q 180949.6 12415.6 181369.6 11218.6 L 182146.6 11218.6 Z M 203988.2 29824.6 L 193215.2 29824.6 Q 193404.2 33730.6 195294.2 35998.6 Q 196743.2 37741.6 198780.2 37741.6 Q 200040.2 37741.6 201069.2 37038.1 Q 202098.2 36334.6 203274.2 34507.6 L 203988.2 34969.6 Q 202392.2 38224.6 200460.2 39579.1 Q 198528.2 40933.6 195987.2 40933.6 Q 191619.2 40933.6 189372.2 37573.6 Q 187566.2 34864.6 187566.2 30853.6 Q 187566.2 25939.6 190222.7 23031.1 Q 192879.2 20122.6 196449.2 20122.6 Q 199431.2 20122.6 201625.7 22569.1 Q 203820.2 25015.6 203988.2 29824.6  Z M 198822.2 28417.6 Q 198822.2 25036.6 198454.7 23776.6 Q 198087.2 22516.6 197310.2 21865.6 Q 196869.2 21487.6 196134.2 21487.6 Q 195042.2 21487.6 194349.2 22558.6 Q 193110.2 24427.6 193110.2 27682.6 L 193110.2 28417.6 L 198822.2 28417.6 Z M 214424.6 20710.6 L 214424.6 23251.6 Q 215936.6 21613.6 217322.6 20868.1 Q 218708.6 20122.6 220304.6 20122.6 Q 222215.6 20122.6 223475.6 21183.1 Q 224735.6 22243.6 225155.6 23818.6 Q 225491.6 25015.6 225491.6 28417.6 L 225491.6 36061.6 Q 225491.6 38329.6 225901.1 38886.1 Q 226310.6 39442.6 227612.6 39589.6 L 227612.6 40345.6 L 217679.6 40345.6 L 217679.6 39589.6 Q 218792.6 39442.6 219275.6 38665.6 Q 219611.6 38140.6 219611.6 36061.6 L 219611.6 27325.6 Q 219611.6 24910.6 219422.6 24280.6 Q 219233.6 23650.6 218782.1 23304.1 Q 218330.6 22957.6 217784.6 22957.6 Q 215978.6 22957.6 214424.6 25540.6 L 214424.6 36061.6 Q 214424.6 38266.6 214834.1 38854.6 Q 215243.6 39442.6 216356.6 39589.6 L 216356.6 40345.6 L 206423.6 40345.6 L 206423.6 39589.6 Q 207662.6 39463.6 208187.6 38791.6 Q 208544.6 38329.6 208544.6 36061.6 L 208544.6 24973.6 Q 208544.6 22747.6 208135.1 22201.6 Q 207725.6 21655.6 206423.6 21487.6 L 206423.6 20710.6 L 214424.6 20710.6 Z M 246945 29824.6 L 236172 29824.6 Q 236361 33730.6 238251 35998.6 Q 239700 37741.6 241737 37741.6 Q 242997 37741.6 244026 37038.1 Q 245055 36334.6 246231 34507.6 L 246945 34969.6 Q 245349 38224.6 243417 39579.1 Q 241485 40933.6 238944 40933.6 Q 234576 40933.6 232329 37573.6 Q 230523 34864.6 230523 30853.6 Q 230523 25939.6 233179.5 23031.1 Q 235836 20122.6 239406 20122.6 Q 242388 20122.6 244582.5 22569.1 Q 246777 25015.6 246945 29824.6  Z M 241779 28417.6 Q 241779 25036.6 241411.5 23776.6 Q 241044 22516.6 240267 21865.6 Q 239826 21487.6 239091 21487.6 Q 237999 21487.6 237306 22558.6 Q 236067 24427.6 236067 27682.6 L 236067 28417.6 L 241779 28417.6 Z M 287369.4 11218.6 L 287369.4 21088.6 L 286550.4 21088.6 Q 285626.4 17224.6 283106.4 15166.6 Q 280586.4 13108.6 277394.4 13108.6 Q 274727.4 13108.6 272501.4 14641.6 Q 270275.4 16174.6 269246.4 18652.6 Q 267923.4 21823.6 267923.4 25708.6 Q 267923.4 29530.6 268889.4 32670.1 Q 269855.4 35809.6 271913.4 37416.1 Q 273971.4 39022.6 277247.4 39022.6 Q 279935.4 39022.6 282171.9 37846.6 Q 284408.4 36670.6 286886.4 33793.6 L 286886.4 36250.6 Q 284492.4 38749.6 281898.9 39873.1 Q 279305.4 40996.6 275840.4 40996.6 Q 271283.4 40996.6 267744.9 39169.6 Q 264206.4 37342.6 262284.9 33919.6 Q 260363.4 30496.6 260363.4 26632.6 Q 260363.4 22558.6 262494.9 18904.6 Q 264626.4 15250.6 268248.9 13234.6 Q 271871.4 11218.6 275945.4 11218.6 Q 278948.4 11218.6 282287.4 12520.6 Q 284219.4 13276.6 284744.4 13276.6 Q 285416.4 13276.6 285909.9 12783.1 Q 286403.4 12289.6 286550.4 11218.6 L 287369.4 11218.6 Z M 295863.6 11197.6 Q 297228.6 11197.6 298173.6 12153.1 Q 299118.6 13108.6 299118.6 14452.6 Q 299118.6 15796.6 298163.1 16741.6 Q 297207.6 17686.6 295863.6 17686.6 Q 294519.6 17686.6 293574.6 16741.6 Q 292629.6 15796.6 292629.6 14452.6 Q 292629.6 13108.6 293574.6 12153.1 Q 294519.6 11197.6 295863.6 11197.6  Z M 298803.6 20710.6 L 298803.6 36271.6 Q 298803.6 38350.6 299286.6 38928.1 Q 299769.6 39505.6 301176.6 39589.6 L 301176.6 40345.6 L 290571.6 40345.6 L 290571.6 39589.6 Q 291873.6 39547.6 292503.6 38833.6 Q 292923.6 38350.6 292923.6 36271.6 L 292923.6 24805.6 Q 292923.6 22726.6 292440.6 22149.1 Q 291957.6 21571.6 290571.6 21487.6 L 290571.6 20710.6 L 298803.6 20710.6 Z M 311216.2 20710.6 L 311216.2 25162.6 Q 313169.2 22117.6 314639.2 21120.1 Q 316109.2 20122.6 317474.2 20122.6 Q 318650.2 20122.6 319353.7 20847.1 Q 320057.2 21571.6 320057.2 22894.6 Q 320057.2 24301.6 319374.7 25078.6 Q 318692.2 25855.6 317726.2 25855.6 Q 316613.2 25855.6 315794.2 25141.6 Q 314975.2 24427.6 314828.2 24343.6 Q 314618.2 24217.6 314345.2 24217.6 Q 313736.2 24217.6 313190.2 24679.6 Q 312329.2 25393.6 311888.2 26716.6 Q 311216.2 28753.6 311216.2 31210.6 L 311216.2 35725.6 L 311237.2 36901.6 Q 311237.2 38098.6 311384.2 38434.6 Q 311636.2 39001.6 312129.7 39264.1 Q 312623.2 39526.6 313799.2 39589.6 L 313799.2 40345.6 L 303194.2 40345.6 L 303194.2 39589.6 Q 304475.2 39484.6 304926.7 38886.1 Q 305378.2 38287.6 305378.2 35725.6 L 305378.2 24868.6 Q 305378.2 23188.6 305210.2 22726.6 Q 305000.2 22138.6 304601.2 21865.6 Q 304202.2 21592.6 303194.2 21487.6 L 303194.2 20710.6 L 311216.2 20710.6 Z M 338137.6 35284.6 L 338788.6 35788.6 Q 337402.6 38392.6 335334.1 39663.1 Q 333265.6 40933.6 330934.6 40933.6 Q 327007.6 40933.6 324655.6 37972.6 Q 322303.6 35011.6 322303.6 30853.6 Q 322303.6 26842.6 324445.6 23797.6 Q 327028.6 20122.6 331564.6 20122.6 Q 334609.6 20122.6 336405.1 21655.6 Q 338200.6 23188.6 338200.6 25078.6 Q 338200.6 26275.6 337476.1 26989.6 Q 336751.6 27703.6 335575.6 27703.6 Q 334336.6 27703.6 333528.1 26884.6 Q 332719.6 26065.6 332530.6 23965.6 Q 332404.6 22642.6 331921.6 22117.6 Q 331438.6 21592.6 330787.6 21592.6 Q 329779.6 21592.6 329065.6 22663.6 Q 327973.6 24280.6 327973.6 27619.6 Q 327973.6 30391.6 328855.6 32922.1 Q 329737.6 35452.6 331270.6 36691.6 Q 332425.6 37594.6 334000.6 37594.6 Q 335029.6 37594.6 335953.6 37111.6 Q 336877.6 36628.6 338137.6 35284.6  Z M 360124 20710.6 L 360124 36082.6 Q 360124 38329.6 360544 38886.1 Q 360964 39442.6 362245 39589.6 L 362245 40345.6 L 354244 40345.6 L 354244 37720.6 Q 352837 39400.6 351430 40167.1 Q 350023 40933.6 348280 40933.6 Q 346621 40933.6 345329.5 39915.1 Q 344038 38896.6 343597 37531.6 Q 343156 36166.6 343156 32764.6 L 343156 24973.6 Q 343156 22747.6 342746.5 22201.6 Q 342337 21655.6 341035 21487.6 L 341035 20710.6 L 349036 20710.6 L 349036 34129.6 Q 349036 36229.6 349235.5 36838.6 Q 349435 37447.6 349865.5 37762.6 Q 350296 38077.6 350863 38077.6 Q 351619 38077.6 352228 37678.6 Q 353068 37132.6 354244 35473.6 L 354244 24973.6 Q 354244 22747.6 353834.5 22201.6 Q 353425 21655.6 352123 21487.6 L 352123 20710.6 L 360124 20710.6 Z M 369796.4 11197.6 Q 371161.4 11197.6 372106.4 12153.1 Q 373051.4 13108.6 373051.4 14452.6 Q 373051.4 15796.6 372095.9 16741.6 Q 371140.4 17686.6 369796.4 17686.6 Q 368452.4 17686.6 367507.4 16741.6 Q 366562.4 15796.6 366562.4 14452.6 Q 366562.4 13108.6 367507.4 12153.1 Q 368452.4 11197.6 369796.4 11197.6  Z M 372736.4 20710.6 L 372736.4 36271.6 Q 372736.4 38350.6 373219.4 38928.1 Q 373702.4 39505.6 375109.4 39589.6 L 375109.4 40345.6 L 364504.4 40345.6 L 364504.4 39589.6 Q 365806.4 39547.6 366436.4 38833.6 Q 366856.4 38350.6 366856.4 36271.6 L 366856.4 24805.6 Q 366856.4 22726.6 366373.4 22149.1 Q 365890.4 21571.6 364504.4 21487.6 L 364504.4 20710.6 L 372736.4 20710.6 Z M 384792 13528.6 L 384792 20710.6 L 389454 20710.6 L 389454 22789.6 L 384792 22789.6 L 384792 34906.6 Q 384792 36607.6 384949.5 37101.1 Q 385107 37594.6 385506 37899.1 Q 385905 38203.6 386241 38203.6 Q 387606 38203.6 388824 36124.6 L 389454 36586.6 Q 387753 40618.6 383931 40618.6 Q 382062 40618.6 380770.5 39579.1 Q 379479 38539.6 379122 37258.6 Q 378912 36544.6 378912 33394.6 L 378912 22789.6 L 376350 22789.6 L 376350 22054.6 Q 378996 20185.6 380854.5 18127.6 Q 382713 16069.6 384099 13528.6 L 384792 13528.6 Z M 401155.8 40345.6 L 401155.8 39568.6 L 402100.8 39568.6 Q 403339.8 39568.6 404001.3 39180.1 Q 404662.8 38791.6 404977.8 38119.6 Q 405166.8 37678.6 405166.8 35473.6 L 405166.8 16741.6 Q 405166.8 14557.6 404935.8 14011.6 Q 404704.8 13465.6 404001.3 13056.1 Q 403297.8 12646.6 402100.8 12646.6 L 401155.8 12646.6 L 401155.8 11869.6 L 413902.8 11869.6 Q 419005.8 11869.6 422113.8 13255.6 Q 425914.8 14956.6 427878.3 18400.6 Q 429841.8 21844.6 429841.8 26191.6 Q 429841.8 29194.6 428875.8 31725.1 Q 427909.8 34255.6 426376.8 35904.1 Q 424843.8 37552.6 422838.3 38550.1 Q 420832.8 39547.6 417934.8 40093.6 Q 416653.8 40345.6 413902.8 40345.6 L 401155.8 40345.6 Z M 412012.8 13486.6 L 412012.8 35704.6 Q 412012.8 37468.6 412180.8 37867.6 Q 412348.8 38266.6 412747.8 38476.6 Q 413314.8 38791.6 414385.8 38791.6 Q 417892.8 38791.6 419740.8 36397.6 Q 422260.8 33163.6 422260.8 26359.6 Q 422260.8 20878.6 420538.8 17602.6 Q 419173.8 15040.6 417031.8 14116.6 Q 415519.8 13465.6 412012.8 13486.6  Z M 437790 11197.6 Q 439155 11197.6 440100 12153.1 Q 441045 13108.6 441045 14452.6 Q 441045 15796.6 440089.5 16741.6 Q 439134 17686.6 437790 17686.6 Q 436446 17686.6 435501 16741.6 Q 434556 15796.6 434556 14452.6 Q 434556 13108.6 435501 12153.1 Q 436446 11197.6 437790 11197.6  Z M 440730 20710.6 L 440730 36271.6 Q 440730 38350.6 441213 38928.1 Q 441696 39505.6 443103 39589.6 L 443103 40345.6 L 432498 40345.6 L 432498 39589.6 Q 433800 39547.6 434430 38833.6 Q 434850 38350.6 434850 36271.6 L 434850 24805.6 Q 434850 22726.6 434367 22149.1 Q 433884 21571.6 432498 21487.6 L 432498 20710.6 L 440730 20710.6 Z M 455830.6 37447.6 Q 452239.6 40618.6 449383.6 40618.6 Q 447703.6 40618.6 446590.6 39516.1 Q 445477.6 38413.6 445477.6 36754.6 Q 445477.6 34507.6 447409.6 32712.1 Q 449341.6 30916.6 455830.6 27934.6 L 455830.6 25960.6 Q 455830.6 23734.6 455589.1 23157.1 Q 455347.6 22579.6 454675.6 22149.1 Q 454003.6 21718.6 453163.6 21718.6 Q 451798.6 21718.6 450916.6 22327.6 Q 450370.6 22705.6 450370.6 23209.6 Q 450370.6 23650.6 450958.6 24301.6 Q 451756.6 25204.6 451756.6 26044.6 Q 451756.6 27073.6 450990.1 27798.1 Q 450223.6 28522.6 448984.6 28522.6 Q 447661.6 28522.6 446769.1 27724.6 Q 445876.6 26926.6 445876.6 25855.6 Q 445876.6 24343.6 447073.6 22968.1 Q 448270.6 21592.6 450412.6 20857.6 Q 452554.6 20122.6 454864.6 20122.6 Q 457657.6 20122.6 459285.1 21309.1 Q 460912.6 22495.6 461395.6 23881.6 Q 461689.6 24763.6 461689.6 27934.6 L 461689.6 35557.6 Q 461689.6 36901.6 461794.6 37248.1 Q 461899.6 37594.6 462109.6 37762.6 Q 462319.6 37930.6 462592.6 37930.6 Q 463138.6 37930.6 463705.6 37153.6 L 464335.6 37657.6 Q 463285.6 39211.6 462162.1 39915.1 Q 461038.6 40618.6 459610.6 40618.6 Q 457930.6 40618.6 456985.6 39831.1 Q 456040.6 39043.6 455830.6 37447.6  Z M 455830.6 35914.6 L 455830.6 29341.6 Q 453289.6 30832.6 452050.6 32533.6 Q 451231.6 33667.6 451231.6 34822.6 Q 451231.6 35788.6 451924.6 36523.6 Q 452449.6 37090.6 453394.6 37090.6 Q 454444.6 37090.6 455830.6 35914.6  Z M 479098.6 20941.6 L 485713.6 20941.6 L 485713.6 23251.6 L 481954.6 23251.6 Q 482983.6 24280.6 483382.6 25120.6 Q 483886.6 26254.6 483886.6 27493.6 Q 483886.6 29593.6 482721.1 31137.1 Q 481555.6 32680.6 479550.1 33552.1 Q 477544.6 34423.6 475990.6 34423.6 Q 475864.6 34423.6 473470.6 34318.6 Q 472525.6 34318.6 471885.1 34938.1 Q 471244.6 35557.6 471244.6 36418.6 Q 471244.6 37174.6 471822.1 37657.6 Q 472399.6 38140.6 473701.6 38140.6 L 477334.6 38098.6 Q 481744.6 38098.6 483403.6 39064.6 Q 485776.6 40408.6 485776.6 43201.6 Q 485776.6 44986.6 484684.6 46446.1 Q 483592.6 47905.6 481807.6 48598.6 Q 479098.6 49627.6 475570.6 49627.6 Q 472924.6 49627.6 470740.6 49113.1 Q 468556.6 48598.6 467611.6 47685.1 Q 466666.6 46771.6 466666.6 45763.6 Q 466666.6 44797.6 467391.1 44031.1 Q 468115.6 43264.6 470089.6 42739.6 Q 467359.6 41395.6 467359.6 39001.6 Q 467359.6 37552.6 468472.6 36187.6 Q 469585.6 34822.6 472000.6 33814.6 Q 469186.6 32785.6 467926.6 31105.6 Q 466666.6 29425.6 466666.6 27220.6 Q 466666.6 24343.6 469018.6 22233.1 Q 471370.6 20122.6 475066.6 20122.6 Q 477019.6 20122.6 479098.6 20941.6  Z M 475465.6 21424.6 Q 474247.6 21424.6 473407.6 22653.1 Q 472567.6 23881.6 472567.6 27745.6 Q 472567.6 30874.6 473397.1 32040.1 Q 474226.6 33205.6 475360.6 33205.6 Q 476620.6 33205.6 477460.6 32050.6 Q 478300.6 30895.6 478300.6 27556.6 Q 478300.6 23797.6 477355.6 22432.6 Q 476683.6 21424.6 475465.6 21424.6  Z M 474226.6 43243.6 Q 472084.6 43243.6 471391.6 43600.6 Q 470194.6 44251.6 470194.6 45364.6 Q 470194.6 46435.6 471433.6 47307.1 Q 472672.6 48178.6 476095.6 48178.6 Q 479014.6 48178.6 480684.1 47401.6 Q 482353.6 46624.6 482353.6 45217.6 Q 482353.6 44692.6 482038.6 44335.6 Q 481471.6 43705.6 480327.1 43474.6 Q 479182.6 43243.6 474226.6 43243.6  Z M 496150.6 20710.6 L 496150.6 25162.6 Q 498103.6 22117.6 499573.6 21120.1 Q 501043.6 20122.6 502408.6 20122.6 Q 503584.6 20122.6 504288.1 20847.1 Q 504991.6 21571.6 504991.6 22894.6 Q 504991.6 24301.6 504309.1 25078.6 Q 503626.6 25855.6 502660.6 25855.6 Q 501547.6 25855.6 500728.6 25141.6 Q 499909.6 24427.6 499762.6 24343.6 Q 499552.6 24217.6 499279.6 24217.6 Q 498670.6 24217.6 498124.6 24679.6 Q 497263.6 25393.6 496822.6 26716.6 Q 496150.6 28753.6 496150.6 31210.6 L 496150.6 35725.6 L 496171.6 36901.6 Q 496171.6 38098.6 496318.6 38434.6 Q 496570.6 39001.6 497064.1 39264.1 Q 497557.6 39526.6 498733.6 39589.6 L 498733.6 40345.6 L 488128.6 40345.6 L 488128.6 39589.6 Q 489409.6 39484.6 489861.1 38886.1 Q 490312.6 38287.6 490312.6 35725.6 L 490312.6 24868.6 Q 490312.6 23188.6 490144.6 22726.6 Q 489934.6 22138.6 489535.6 21865.6 Q 489136.6 21592.6 488128.6 21487.6 L 488128.6 20710.6 L 496150.6 20710.6 Z M 517885 37447.6 Q 514294 40618.6 511438 40618.6 Q 509758 40618.6 508645 39516.1 Q 507532 38413.6 507532 36754.6 Q 507532 34507.6 509464 32712.1 Q 511396 30916.6 517885 27934.6 L 517885 25960.6 Q 517885 23734.6 517643.5 23157.1 Q 517402 22579.6 516730 22149.1 Q 516058 21718.6 515218 21718.6 Q 513853 21718.6 512971 22327.6 Q 512425 22705.6 512425 23209.6 Q 512425 23650.6 513013 24301.6 Q 513811 25204.6 513811 26044.6 Q 513811 27073.6 513044.5 27798.1 Q 512278 28522.6 511039 28522.6 Q 509716 28522.6 508823.5 27724.6 Q 507931 26926.6 507931 25855.6 Q 507931 24343.6 509128 22968.1 Q 510325 21592.6 512467 20857.6 Q 514609 20122.6 516919 20122.6 Q 519712 20122.6 521339.5 21309.1 Q 522967 22495.6 523450 23881.6 Q 523744 24763.6 523744 27934.6 L 523744 35557.6 Q 523744 36901.6 523849 37248.1 Q 523954 37594.6 524164 37762.6 Q 524374 37930.6 524647 37930.6 Q 525193 37930.6 525760 37153.6 L 526390 37657.6 Q 525340 39211.6 524216.5 39915.1 Q 523093 40618.6 521665 40618.6 Q 519985 40618.6 519040 39831.1 Q 518095 39043.6 517885 37447.6  Z M 517885 35914.6 L 517885 29341.6 Q 515344 30832.6 514105 32533.6 Q 513286 33667.6 513286 34822.6 Q 513286 35788.6 513979 36523.6 Q 514504 37090.6 515449 37090.6 Q 516499 37090.6 517885 35914.6  Z M 536701 20710.6 L 536701 23293.6 Q 538318 21529.6 539693.5 20826.1 Q 541069 20122.6 542707 20122.6 Q 544597 20122.6 545878 21004.6 Q 547159 21886.6 547852 23692.6 Q 549532 21802.6 551075.5 20962.6 Q 552619 20122.6 554299 20122.6 Q 556336 20122.6 557543.5 21057.1 Q 558751 21991.6 559223.5 23430.1 Q 559696 24868.6 559696 28018.6 L 559696 36061.6 Q 559696 38329.6 560105.5 38875.6 Q 560515 39421.6 561817 39589.6 L 561817 40345.6 L 551674 40345.6 L 551674 39589.6 Q 552871 39484.6 553438 38665.6 Q 553816 38098.6 553816 36061.6 L 553816 27619.6 Q 553816 24994.6 553606 24280.6 Q 553396 23566.6 552944.5 23220.1 Q 552493 22873.6 551884 22873.6 Q 550981 22873.6 550057 23535.1 Q 549133 24196.6 548188 25519.6 L 548188 36061.6 Q 548188 38182.6 548545 38728.6 Q 549028 39505.6 550393 39589.6 L 550393 40345.6 L 540229 40345.6 L 540229 39589.6 Q 541048 39547.6 541520.5 39180.1 Q 541993 38812.6 542150.5 38298.1 Q 542308 37783.6 542308 36061.6 L 542308 27619.6 Q 542308 24952.6 542098 24280.6 Q 541888 23608.6 541394.5 23230.6 Q 540901 22852.6 540334 22852.6 Q 539494 22852.6 538801 23293.6 Q 537814 23944.6 536701 25519.6 L 536701 36061.6 Q 536701 38140.6 537110.5 38802.1 Q 537520 39463.6 538822 39589.6 L 538822 40345.6 L 528700 40345.6 L 528700 39589.6 Q 529939 39463.6 530464 38791.6 Q 530821 38329.6 530821 36061.6 L 530821 24973.6 Q 530821 22747.6 530411.5 22201.6 Q 530002 21655.6 528700 21487.6 L 528700 20710.6 L 536701 20710.6 Z " fill-rule="nonzero" style="fill:#76923c;;fill-opacity:1;"/>
</svg>