<svg version="1.1" x="0" y="0" width="100%" height="100%" viewBox="0 0 681420.8 43724.8" xmlns="http://www.w3.org/2000/svg">
  <path d="M 18883 9673.1 L 19075.5 17583.1 L 18358 17583.1 Q 17850.5 14608.1 15864.25 12796.85 Q 13878 10985.6 11568 10985.6 Q 9783 10985.6 8741.75 11939.35 Q 7700.5 12893.1 7700.5 14135.6 Q 7700.5 14923.1 8068 15535.6 Q 8575.5 16358.1 9695.5 17163.1 Q 10518 17740.6 13493 19210.6 Q 17658 21258.1 19110.5 23078.1 Q 20545.5 24898.1 20545.5 27243.1 Q 20545.5 30218.1 18226.75 32361.85 Q 15908 34505.6 12338 34505.6 Q 11218 34505.6 10220.5 34278.1 Q 9223 34050.6 7718 33420.6 Q 6878 33070.6 6335.5 33070.6 Q 5880.5 33070.6 5373 33420.6 Q 4865.5 33770.6 4550.5 34488.1 L 3903 34488.1 L 3903 25528.1 L 4550.5 25528.1 Q 5320.5 29308.1 7516.75 31294.35 Q 9713 33280.6 12250.5 33280.6 Q 14210.5 33280.6 15374.25 32213.1 Q 16538 31145.6 16538 29728.1 Q 16538 28888.1 16091.75 28100.6 Q 15645.5 27313.1 14735.5 26604.35 Q 13825.5 25895.6 11515.5 24758.1 Q 8278 23165.6 6860.5 22045.6 Q 5443 20925.6 4681.75 19543.1 Q 3920.5 18160.6 3920.5 16498.1 Q 3920.5 13663.1 6003 11668.1 Q 8085.5 9673.1 11253 9673.1 Q 12408 9673.1 13493 9953.1 Q 14315.5 10163.1 15496.75 10731.85 Q 16678 11300.6 17150.5 11300.6 Q 17605.5 11300.6 17868 11020.6 Q 18130.5 10740.6 18358 9673.1 L 18883 9673.1 Z M 38974.8 17583.1 L 38974.8 30393.1 Q 38974.8 32265.6 39324.8 32729.35 Q 39674.8 33193.1 40742.3 33315.6 L 40742.3 33945.6 L 34074.8 33945.6 L 34074.8 31758.1 Q 32902.3 33158.1 31729.8 33796.85 Q 30557.3 34435.6 29104.8 34435.6 Q 27722.3 34435.6 26646.05 33586.85 Q 25569.8 32738.1 25202.3 31600.6 Q 24834.8 30463.1 24834.8 27628.1 L 24834.8 21135.6 Q 24834.8 19280.6 24493.55 18825.6 Q 24152.3 18370.6 23067.3 18230.6 L 23067.3 17583.1 L 29734.8 17583.1 L 29734.8 28765.6 Q 29734.8 30515.6 29901.05 31023.1 Q 30067.3 31530.6 30426.05 31793.1 Q 30784.8 32055.6 31257.3 32055.6 Q 31887.3 32055.6 32394.8 31723.1 Q 33094.8 31268.1 34074.8 29885.6 L 34074.8 21135.6 Q 34074.8 19280.6 33733.55 18825.6 Q 33392.3 18370.6 32307.3 18230.6 L 32307.3 17583.1 L 38974.8 17583.1 Z M 56441.6 29728.1 L 56984.1 30148.1 Q 55829.1 32318.1 54105.35 33376.85 Q 52381.6 34435.6 50439.1 34435.6 Q 47166.6 34435.6 45206.6 31968.1 Q 43246.6 29500.6 43246.6 26035.6 Q 43246.6 22693.1 45031.6 20155.6 Q 47184.1 17093.1 50964.1 17093.1 Q 53501.6 17093.1 54997.85 18370.6 Q 56494.1 19648.1 56494.1 21223.1 Q 56494.1 22220.6 55890.35 22815.6 Q 55286.6 23410.6 54306.6 23410.6 Q 53274.1 23410.6 52600.35 22728.1 Q 51926.6 22045.6 51769.1 20295.6 Q 51664.1 19193.1 51261.6 18755.6 Q 50859.1 18318.1 50316.6 18318.1 Q 49476.6 18318.1 48881.6 19210.6 Q 47971.6 20558.1 47971.6 23340.6 Q 47971.6 25650.6 48706.6 27759.35 Q 49441.6 29868.1 50719.1 30900.6 Q 51681.6 31653.1 52994.1 31653.1 Q 53851.6 31653.1 54621.6 31250.6 Q 55391.6 30848.1 56441.6 29728.1  Z M 62898.6 9655.6 Q 64036.1 9655.6 64823.6 10451.85 Q 65611.1 11248.1 65611.1 12368.1 Q 65611.1 13488.1 64814.85 14275.6 Q 64018.6 15063.1 62898.6 15063.1 Q 61778.6 15063.1 60991.1 14275.6 Q 60203.6 13488.1 60203.6 12368.1 Q 60203.6 11248.1 60991.1 10451.85 Q 61778.6 9655.6 62898.6 9655.6  Z M 65348.6 17583.1 L 65348.6 30550.6 Q 65348.6 32283.1 65751.1 32764.35 Q 66153.6 33245.6 67326.1 33315.6 L 67326.1 33945.6 L 58488.6 33945.6 L 58488.6 33315.6 Q 59573.6 33280.6 60098.6 32685.6 Q 60448.6 32283.1 60448.6 30550.6 L 60448.6 20995.6 Q 60448.6 19263.1 60046.1 18781.85 Q 59643.6 18300.6 58488.6 18230.6 L 58488.6 17583.1 L 65348.6 17583.1 Z M 84801.4 10215.6 L 84801.4 29045.6 Q 84801.4 30953.1 84906.4 31303.1 Q 85046.4 31880.6 85440.15 32160.6 Q 85833.9 32440.6 86813.9 32510.6 L 86813.9 33088.1 L 79901.4 34435.6 L 79901.4 31845.6 Q 78658.9 33350.6 77687.65 33893.1 Q 76716.4 34435.6 75491.4 34435.6 Q 72358.9 34435.6 70538.9 31635.6 Q 69068.9 29360.6 69068.9 26053.1 Q 69068.9 23410.6 69978.9 21319.35 Q 70888.9 19228.1 72472.65 18160.6 Q 74056.4 17093.1 75876.4 17093.1 Q 77048.9 17093.1 77958.9 17548.1 Q 78868.9 18003.1 79901.4 19140.6 L 79901.4 14205.6 Q 79901.4 12333.1 79743.9 11948.1 Q 79533.9 11440.6 79113.9 11195.6 Q 78693.9 10950.6 77538.9 10950.6 L 77538.9 10215.6 L 84801.4 10215.6 Z M 79901.4 21310.6 Q 78606.4 18825.6 76733.9 18825.6 Q 76086.4 18825.6 75666.4 19175.6 Q 75018.9 19718.1 74607.65 21083.1 Q 74196.4 22448.1 74196.4 25265.6 Q 74196.4 28363.1 74651.4 29850.6 Q 75106.4 31338.1 75893.9 32003.1 Q 76296.4 32335.6 76996.4 32335.6 Q 78536.4 32335.6 79901.4 29920.6 L 79901.4 21310.6 Z M 102670.7 25178.1 L 93693.2 25178.1 Q 93850.7 28433.1 95425.7 30323.1 Q 96633.2 31775.6 98330.7 31775.6 Q 99380.7 31775.6 100238.2 31189.35 Q 101095.7 30603.1 102075.7 29080.6 L 102670.7 29465.6 Q 101340.7 32178.1 99730.7 33306.85 Q 98120.7 34435.6 96003.2 34435.6 Q 92363.2 34435.6 90490.7 31635.6 Q 88985.7 29378.1 88985.7 26035.6 Q 88985.7 21940.6 91199.45 19516.85 Q 93413.2 17093.1 96388.2 17093.1 Q 98873.2 17093.1 100701.95 19131.85 Q 102530.7 21170.6 102670.7 25178.1  Z M 98365.7 24005.6 Q 98365.7 21188.1 98059.45 20138.1 Q 97753.2 19088.1 97105.7 18545.6 Q 96738.2 18230.6 96125.7 18230.6 Q 95215.7 18230.6 94638.2 19123.1 Q 93605.7 20680.6 93605.7 23393.1 L 93605.7 24005.6 L 98365.7 24005.6 Z M 129270.2 9673.1 L 129462.7 17583.1 L 128745.2 17583.1 Q 128237.7 14608.1 126251.45 12796.85 Q 124265.2 10985.6 121955.2 10985.6 Q 120170.2 10985.6 119128.95 11939.35 Q 118087.7 12893.1 118087.7 14135.6 Q 118087.7 14923.1 118455.2 15535.6 Q 118962.7 16358.1 120082.7 17163.1 Q 120905.2 17740.6 123880.2 19210.6 Q 128045.2 21258.1 129497.7 23078.1 Q 130932.7 24898.1 130932.7 27243.1 Q 130932.7 30218.1 128613.95 32361.85 Q 126295.2 34505.6 122725.2 34505.6 Q 121605.2 34505.6 120607.7 34278.1 Q 119610.2 34050.6 118105.2 33420.6 Q 117265.2 33070.6 116722.7 33070.6 Q 116267.7 33070.6 115760.2 33420.6 Q 115252.7 33770.6 114937.7 34488.1 L 114290.2 34488.1 L 114290.2 25528.1 L 114937.7 25528.1 Q 115707.7 29308.1 117903.95 31294.35 Q 120100.2 33280.6 122637.7 33280.6 Q 124597.7 33280.6 125761.45 32213.1 Q 126925.2 31145.6 126925.2 29728.1 Q 126925.2 28888.1 126478.95 28100.6 Q 126032.7 27313.1 125122.7 26604.35 Q 124212.7 25895.6 121902.7 24758.1 Q 118665.2 23165.6 117247.7 22045.6 Q 115830.2 20925.6 115068.95 19543.1 Q 114307.7 18160.6 114307.7 16498.1 Q 114307.7 13663.1 116390.2 11668.1 Q 118472.7 9673.1 121640.2 9673.1 Q 122795.2 9673.1 123880.2 9953.1 Q 124702.7 10163.1 125883.95 10731.85 Q 127065.2 11300.6 127537.7 11300.6 Q 127992.7 11300.6 128255.2 11020.6 Q 128517.7 10740.6 128745.2 9673.1 L 129270.2 9673.1 Z M 149782 34435.6 L 145302 22430.6 L 140909.5 34435.6 L 139999.5 34435.6 L 135642 22570.6 Q 134662 19858.1 133979.5 19035.6 Q 133542 18475.6 132649.5 18230.6 L 132649.5 17583.1 L 140909.5 17583.1 L 140909.5 18230.6 Q 140069.5 18230.6 139754.5 18475.6 Q 139439.5 18720.6 139439.5 19035.6 Q 139439.5 19333.1 139999.5 20820.6 L 142397 27208.1 L 144707 20820.6 L 144532 20400.6 Q 144007 19088.1 143613.25 18729.35 Q 143219.5 18370.6 142397 18230.6 L 142397 17583.1 L 150779.5 17583.1 L 150779.5 18230.6 Q 149799.5 18283.1 149537 18501.85 Q 149274.5 18720.6 149274.5 19123.1 Q 149274.5 19508.1 149782 20820.6 L 152092 27208.1 L 154192 21328.1 Q 154647 20068.1 154647 19613.1 Q 154647 18930.6 154314.5 18615.6 Q 153982 18300.6 153019.5 18230.6 L 153019.5 17583.1 L 157867 17583.1 L 157867 18230.6 Q 157062 18335.6 156589.5 18799.35 Q 156117 19263.1 155364.5 21433.1 L 150779.5 34435.6 L 149782 34435.6 Z M 163353 9655.6 Q 164490.5 9655.6 165278 10451.85 Q 166065.5 11248.1 166065.5 12368.1 Q 166065.5 13488.1 165269.25 14275.6 Q 164473 15063.1 163353 15063.1 Q 162233 15063.1 161445.5 14275.6 Q 160658 13488.1 160658 12368.1 Q 160658 11248.1 161445.5 10451.85 Q 162233 9655.6 163353 9655.6  Z M 165803 17583.1 L 165803 30550.6 Q 165803 32283.1 166205.5 32764.35 Q 166608 33245.6 167780.5 33315.6 L 167780.5 33945.6 L 158943 33945.6 L 158943 33315.6 Q 160028 33280.6 160553 32685.6 Q 160903 32283.1 160903 30550.6 L 160903 20995.6 Q 160903 19263.1 160500.5 18781.85 Q 160098 18300.6 158943 18230.6 L 158943 17583.1 L 165803 17583.1 Z M 175840.8 11598.1 L 175840.8 17583.1 L 179725.8 17583.1 L 179725.8 19315.6 L 175840.8 19315.6 L 175840.8 29413.1 Q 175840.8 30830.6 175972.05 31241.85 Q 176103.3 31653.1 176435.8 31906.85 Q 176768.3 32160.6 177048.3 32160.6 Q 178185.8 32160.6 179200.8 30428.1 L 179725.8 30813.1 Q 178308.3 34173.1 175123.3 34173.1 Q 173565.8 34173.1 172489.55 33306.85 Q 171413.3 32440.6 171115.8 31373.1 Q 170940.8 30778.1 170940.8 28153.1 L 170940.8 19315.6 L 168805.8 19315.6 L 168805.8 18703.1 Q 171010.8 17145.6 172559.55 15430.6 Q 174108.3 13715.6 175263.3 11598.1 L 175840.8 11598.1 Z M 194630.4 29728.1 L 195172.9 30148.1 Q 194017.9 32318.1 192294.15 33376.85 Q 190570.4 34435.6 188627.9 34435.6 Q 185355.4 34435.6 183395.4 31968.1 Q 181435.4 29500.6 181435.4 26035.6 Q 181435.4 22693.1 183220.4 20155.6 Q 185372.9 17093.1 189152.9 17093.1 Q 191690.4 17093.1 193186.65 18370.6 Q 194682.9 19648.1 194682.9 21223.1 Q 194682.9 22220.6 194079.15 22815.6 Q 193475.4 23410.6 192495.4 23410.6 Q 191462.9 23410.6 190789.15 22728.1 Q 190115.4 22045.6 189957.9 20295.6 Q 189852.9 19193.1 189450.4 18755.6 Q 189047.9 18318.1 188505.4 18318.1 Q 187665.4 18318.1 187070.4 19210.6 Q 186160.4 20558.1 186160.4 23340.6 Q 186160.4 25650.6 186895.4 27759.35 Q 187630.4 29868.1 188907.9 30900.6 Q 189870.4 31653.1 191182.9 31653.1 Q 192040.4 31653.1 192810.4 31250.6 Q 193580.4 30848.1 194630.4 29728.1  Z M 203834.9 10215.6 L 203834.9 19683.1 Q 205182.4 18265.6 206302.4 17679.35 Q 207422.4 17093.1 208629.9 17093.1 Q 210169.9 17093.1 211263.65 17968.1 Q 212357.4 18843.1 212716.15 20024.35 Q 213074.9 21205.6 213074.9 24005.6 L 213074.9 30393.1 Q 213074.9 32265.6 213424.9 32729.35 Q 213774.9 33193.1 214842.4 33315.6 L 214842.4 33945.6 L 206547.4 33945.6 L 206547.4 33315.6 Q 207422.4 33193.1 207859.9 32615.6 Q 208174.9 32160.6 208174.9 30393.1 L 208174.9 23095.6 Q 208174.9 21065.6 208017.4 20549.35 Q 207859.9 20033.1 207483.65 19744.35 Q 207107.4 19455.6 206634.9 19455.6 Q 205934.9 19455.6 205269.9 19936.85 Q 204604.9 20418.1 203834.9 21625.6 L 203834.9 30393.1 Q 203834.9 32143.1 204097.4 32580.6 Q 204429.9 33175.6 205462.4 33315.6 L 205462.4 33945.6 L 197167.4 33945.6 L 197167.4 33315.6 Q 198199.9 33210.6 198637.4 32650.6 Q 198934.9 32265.6 198934.9 30393.1 L 198934.9 13768.1 Q 198934.9 11913.1 198593.65 11458.1 Q 198252.4 11003.1 197167.4 10863.1 L 197167.4 10215.6 L 203834.9 10215.6 Z " fill-rule="nonzero" style="fill:#76923c;;fill-opacity:1;"/>
</svg>