<svg version="1.1" x="0" y="0" width="100%" height="100%" viewBox="0 0 681420.8 102553.6" xmlns="http://www.w3.org/2000/svg">
  <path d="M 8138 52078.9 L 8138 57806.4 Q 8138 59662.4 8544 60111.9 Q 9095 60749.9 10211.5 60749.9 L 10965.5 60749.9 L 10965.5 61286.4 L 2541 61286.4 L 2541 60749.9 L 3280.5 60749.9 Q 4527.5 60749.9 5064 59937.9 Q 5354 59488.4 5354 57806.4 L 5354 45104.4 Q 5354 43248.4 4962.5 42798.9 Q 4397 42160.9 3280.5 42160.9 L 2541 42160.9 L 2541 41624.4 L 9747.5 41624.4 Q 12386.5 41624.4 13909 42168.15 Q 15431.5 42711.9 16475.5 44002.4 Q 17519.5 45292.9 17519.5 47061.9 Q 17519.5 49468.9 15931.75 50976.9 Q 14344 52484.9 11444 52484.9 Q 10733.5 52484.9 9907 52383.4 Q 9080.5 52281.9 8138 52078.9  Z M 8138 51252.4 Q 8906.5 51397.4 9501 51469.9 Q 10095.5 51542.4 10516 51542.4 Q 12024 51542.4 13118.75 50375.15 Q 14213.5 49207.9 14213.5 47351.9 Q 14213.5 46075.9 13691.5 44981.15 Q 13169.5 43886.4 12212.5 43342.65 Q 11255.5 42798.9 10037.5 42798.9 Q 9298 42798.9 8138 43074.4 L 8138 51252.4 Z M 24029.9 40667.4 L 24029.9 58284.9 Q 24029.9 59531.9 24211.15 59937.9 Q 24392.4 60343.9 24769.4 60554.15 Q 25146.4 60764.4 26175.9 60764.4 L 26175.9 61286.4 L 19665.4 61286.4 L 19665.4 60764.4 Q 20578.9 60764.4 20912.4 60575.9 Q 21245.9 60387.4 21434.4 59952.4 Q 21622.9 59517.4 21622.9 58284.9 L 21622.9 46220.9 Q 21622.9 43973.4 21521.4 43458.65 Q 21419.9 42943.9 21195.15 42755.4 Q 20970.4 42566.9 20622.4 42566.9 Q 20245.4 42566.9 19665.4 42798.9 L 19418.9 42291.4 L 23377.4 40667.4 L 24029.9 40667.4 Z M 35231.1 59372.4 Q 33186.6 60952.9 32664.6 61199.4 Q 31881.6 61561.9 30997.1 61561.9 Q 29619.6 61561.9 28727.85 60619.4 Q 27836.1 59676.9 27836.1 58139.9 Q 27836.1 57168.4 28271.1 56457.9 Q 28865.6 55471.9 30337.35 54601.9 Q 31809.1 53731.9 35231.1 52484.9 L 35231.1 51962.9 Q 35231.1 49976.4 34600.35 49236.9 Q 33969.6 48497.4 32766.1 48497.4 Q 31852.6 48497.4 31316.1 48990.4 Q 30765.1 49483.4 30765.1 50121.4 L 30794.1 50962.4 Q 30794.1 51629.4 30453.35 51991.9 Q 30112.6 52354.4 29561.6 52354.4 Q 29025.1 52354.4 28684.35 51977.4 Q 28343.6 51600.4 28343.6 50947.9 Q 28343.6 49700.9 29619.6 48656.9 Q 30895.6 47612.9 33201.1 47612.9 Q 34970.1 47612.9 36101.1 48207.4 Q 36956.6 48656.9 37362.6 49613.9 Q 37623.6 50237.4 37623.6 52165.9 L 37623.6 56675.4 Q 37623.6 58574.9 37696.1 59002.65 Q 37768.6 59430.4 37935.35 59575.4 Q 38102.1 59720.4 38319.6 59720.4 Q 38551.6 59720.4 38725.6 59618.9 Q 39030.1 59430.4 39900.1 58560.4 L 39900.1 59372.4 Q 38276.1 61547.4 36797.1 61547.4 Q 36086.6 61547.4 35666.1 61054.4 Q 35245.6 60561.4 35231.1 59372.4  Z M 35231.1 58429.9 L 35231.1 53369.4 Q 33041.6 54239.4 32403.6 54601.9 Q 31258.1 55239.9 30765.1 55935.9 Q 30272.1 56631.9 30272.1 57458.4 Q 30272.1 58502.4 30895.6 59191.15 Q 31519.1 59879.9 32331.1 59879.9 Q 33433.1 59879.9 35231.1 58429.9  Z M 44735.5 50425.9 Q 47070 47612.9 49187 47612.9 Q 50274.5 47612.9 51057.5 48156.65 Q 51840.5 48700.4 52304.5 49947.4 Q 52623.5 50817.4 52623.5 52615.4 L 52623.5 58284.9 Q 52623.5 59546.4 52826.5 59995.9 Q 52986 60358.4 53341.25 60561.4 Q 53696.5 60764.4 54653.5 60764.4 L 54653.5 61286.4 L 48085 61286.4 L 48085 60764.4 L 48360.5 60764.4 Q 49288.5 60764.4 49658.25 60481.65 Q 50028 60198.9 50173 59647.9 Q 50231 59430.4 50231 58284.9 L 50231 52847.4 Q 50231 51034.9 49759.75 50215.65 Q 49288.5 49396.4 48172 49396.4 Q 46446.5 49396.4 44735.5 51281.4 L 44735.5 58284.9 Q 44735.5 59633.4 44895 59952.4 Q 45098 60372.9 45453.25 60568.65 Q 45808.5 60764.4 46896 60764.4 L 46896 61286.4 L 40327.5 61286.4 L 40327.5 60764.4 L 40617.5 60764.4 Q 41632.5 60764.4 41987.75 60249.65 Q 42343 59734.9 42343 58284.9 L 42343 53354.9 Q 42343 50962.4 42234.25 50440.4 Q 42125.5 49918.4 41900.75 49729.9 Q 41676 49541.4 41299 49541.4 Q 40893 49541.4 40327.5 49758.9 L 40110 49236.9 L 44112 47612.9 L 44735.5 47612.9 L 44735.5 50425.9 Z M 59569 43639.9 L 59569 48004.4 L 62672 48004.4 L 62672 49019.4 L 59569 49019.4 L 59569 57632.4 Q 59569 58922.9 59938.75 59372.4 Q 60308.5 59821.9 60888.5 59821.9 Q 61367 59821.9 61816.5 59524.65 Q 62266 59227.4 62512.5 58647.4 L 63078 58647.4 Q 62570.5 60068.4 61642.5 60786.15 Q 60714.5 61503.9 59728.5 61503.9 Q 59061.5 61503.9 58423.5 61134.15 Q 57785.5 60764.4 57481 60075.65 Q 57176.5 59386.9 57176.5 57951.4 L 57176.5 49019.4 L 55074 49019.4 L 55074 48540.9 Q 55871.5 48221.9 56705.25 47460.65 Q 57539 46699.4 58191.5 45655.4 Q 58525 45104.4 59119.5 43639.9 L 59569 43639.9 Z M 70697.7 48004.4 L 76947.2 48004.4 L 76947.2 48540.9 L 76541.2 48540.9 Q 75975.7 48540.9 75678.45 48816.4 Q 75381.2 49091.9 75381.2 49555.9 Q 75381.2 50063.4 75685.7 50759.4 L 78774.2 58096.4 L 81877.2 50483.9 Q 82210.7 49671.9 82210.7 49251.4 Q 82210.7 49048.4 82094.7 48917.9 Q 81935.2 48700.4 81688.7 48620.65 Q 81442.2 48540.9 80688.2 48540.9 L 80688.2 48004.4 L 85023.7 48004.4 L 85023.7 48540.9 Q 84269.7 48598.9 83979.7 48845.4 Q 83472.2 49280.4 83066.2 50295.4 L 78353.7 61692.4 L 77759.2 61692.4 L 73017.7 50483.9 Q 72698.7 49700.9 72408.7 49360.15 Q 72118.7 49019.4 71669.2 48787.4 Q 71422.7 48656.9 70697.7 48540.9 L 70697.7 48004.4 Z M 93752.7 59372.4 Q 91708.2 60952.9 91186.2 61199.4 Q 90403.2 61561.9 89518.7 61561.9 Q 88141.2 61561.9 87249.45 60619.4 Q 86357.7 59676.9 86357.7 58139.9 Q 86357.7 57168.4 86792.7 56457.9 Q 87387.2 55471.9 88858.95 54601.9 Q 90330.7 53731.9 93752.7 52484.9 L 93752.7 51962.9 Q 93752.7 49976.4 93121.95 49236.9 Q 92491.2 48497.4 91287.7 48497.4 Q 90374.2 48497.4 89837.7 48990.4 Q 89286.7 49483.4 89286.7 50121.4 L 89315.7 50962.4 Q 89315.7 51629.4 88974.95 51991.9 Q 88634.2 52354.4 88083.2 52354.4 Q 87546.7 52354.4 87205.95 51977.4 Q 86865.2 51600.4 86865.2 50947.9 Q 86865.2 49700.9 88141.2 48656.9 Q 89417.2 47612.9 91722.7 47612.9 Q 93491.7 47612.9 94622.7 48207.4 Q 95478.2 48656.9 95884.2 49613.9 Q 96145.2 50237.4 96145.2 52165.9 L 96145.2 56675.4 Q 96145.2 58574.9 96217.7 59002.65 Q 96290.2 59430.4 96456.95 59575.4 Q 96623.7 59720.4 96841.2 59720.4 Q 97073.2 59720.4 97247.2 59618.9 Q 97551.7 59430.4 98421.7 58560.4 L 98421.7 59372.4 Q 96797.7 61547.4 95318.7 61547.4 Q 94608.2 61547.4 94187.7 61054.4 Q 93767.2 60561.4 93752.7 59372.4  Z M 93752.7 58429.9 L 93752.7 53369.4 Q 91563.2 54239.4 90925.2 54601.9 Q 89779.7 55239.9 89286.7 55935.9 Q 88793.7 56631.9 88793.7 57458.4 Q 88793.7 58502.4 89417.2 59191.15 Q 90040.7 59879.9 90852.7 59879.9 Q 91954.7 59879.9 93752.7 58429.9  Z M 110666.6 56240.4 Q 110130.1 58864.9 108564.1 60278.65 Q 106998.1 61692.4 105098.6 61692.4 Q 102836.6 61692.4 101154.6 59792.9 Q 99472.6 57893.4 99472.6 54659.9 Q 99472.6 51527.9 101335.85 49570.4 Q 103199.1 47612.9 105809.1 47612.9 Q 107766.6 47612.9 109028.1 48649.65 Q 110289.6 49686.4 110289.6 50802.9 Q 110289.6 51353.9 109934.35 51694.65 Q 109579.1 52035.4 108941.1 52035.4 Q 108085.6 52035.4 107650.6 51484.4 Q 107404.1 51179.9 107324.35 50324.4 Q 107244.6 49468.9 106737.1 49019.4 Q 106229.6 48584.4 105330.6 48584.4 Q 103880.6 48584.4 102996.1 49657.4 Q 101821.6 51078.4 101821.6 53412.9 Q 101821.6 55790.9 102988.85 57610.65 Q 104156.1 59430.4 106142.6 59430.4 Q 107563.6 59430.4 108694.6 58458.9 Q 109492.1 57791.9 110246.1 56037.4 L 110666.6 56240.4 Z M 123825 56240.4 Q 123288.5 58864.9 121722.5 60278.65 Q 120156.5 61692.4 118257 61692.4 Q 115995 61692.4 114313 59792.9 Q 112631 57893.4 112631 54659.9 Q 112631 51527.9 114494.25 49570.4 Q 116357.5 47612.9 118967.5 47612.9 Q 120925 47612.9 122186.5 48649.65 Q 123448 49686.4 123448 50802.9 Q 123448 51353.9 123092.75 51694.65 Q 122737.5 52035.4 122099.5 52035.4 Q 121244 52035.4 120809 51484.4 Q 120562.5 51179.9 120482.75 50324.4 Q 120403 49468.9 119895.5 49019.4 Q 119388 48584.4 118489 48584.4 Q 117039 48584.4 116154.5 49657.4 Q 114980 51078.4 114980 53412.9 Q 114980 55790.9 116147.25 57610.65 Q 117314.5 59430.4 119301 59430.4 Q 120722 59430.4 121853 58458.9 Q 122650.5 57791.9 123404.5 56037.4 L 123825 56240.4 Z M 129080.9 40667.4 Q 129689.9 40667.4 130117.65 41095.15 Q 130545.4 41522.9 130545.4 42131.9 Q 130545.4 42740.9 130117.65 43175.9 Q 129689.9 43610.9 129080.9 43610.9 Q 128471.9 43610.9 128036.9 43175.9 Q 127601.9 42740.9 127601.9 42131.9 Q 127601.9 41522.9 128029.65 41095.15 Q 128457.4 40667.4 129080.9 40667.4  Z M 130284.4 47612.9 L 130284.4 58284.9 Q 130284.4 59531.9 130465.65 59945.15 Q 130646.9 60358.4 131002.15 60561.4 Q 131357.4 60764.4 132299.9 60764.4 L 132299.9 61286.4 L 125847.4 61286.4 L 125847.4 60764.4 Q 126818.9 60764.4 127152.4 60575.9 Q 127485.9 60387.4 127681.65 59952.4 Q 127877.4 59517.4 127877.4 58284.9 L 127877.4 53166.4 Q 127877.4 51005.9 127746.9 50367.9 Q 127645.4 49903.9 127427.9 49722.65 Q 127210.4 49541.4 126833.4 49541.4 Q 126427.4 49541.4 125847.4 49758.9 L 125644.4 49236.9 L 129646.4 47612.9 L 130284.4 47612.9 Z M 137817.1 50425.9 Q 140151.6 47612.9 142268.6 47612.9 Q 143356.1 47612.9 144139.1 48156.65 Q 144922.1 48700.4 145386.1 49947.4 Q 145705.1 50817.4 145705.1 52615.4 L 145705.1 58284.9 Q 145705.1 59546.4 145908.1 59995.9 Q 146067.6 60358.4 146422.85 60561.4 Q 146778.1 60764.4 147735.1 60764.4 L 147735.1 61286.4 L 141166.6 61286.4 L 141166.6 60764.4 L 141442.1 60764.4 Q 142370.1 60764.4 142739.85 60481.65 Q 143109.6 60198.9 143254.6 59647.9 Q 143312.6 59430.4 143312.6 58284.9 L 143312.6 52847.4 Q 143312.6 51034.9 142841.35 50215.65 Q 142370.1 49396.4 141253.6 49396.4 Q 139528.1 49396.4 137817.1 51281.4 L 137817.1 58284.9 Q 137817.1 59633.4 137976.6 59952.4 Q 138179.6 60372.9 138534.85 60568.65 Q 138890.1 60764.4 139977.6 60764.4 L 139977.6 61286.4 L 133409.1 61286.4 L 133409.1 60764.4 L 133699.1 60764.4 Q 134714.1 60764.4 135069.35 60249.65 Q 135424.6 59734.9 135424.6 58284.9 L 135424.6 53354.9 Q 135424.6 50962.4 135315.85 50440.4 Q 135207.1 49918.4 134982.35 49729.9 Q 134757.6 49541.4 134380.6 49541.4 Q 133974.6 49541.4 133409.1 49758.9 L 133191.6 49236.9 L 137193.6 47612.9 L 137817.1 47612.9 L 137817.1 50425.9 Z M 151026.6 53006.9 Q 151012.1 55964.9 152462.1 57646.9 Q 153912.1 59328.9 155869.6 59328.9 Q 157174.6 59328.9 158138.85 58611.15 Q 159103.1 57893.4 159755.6 56153.4 L 160205.1 56443.4 Q 159900.6 58429.9 158436.1 60061.15 Q 156971.6 61692.4 154767.6 61692.4 Q 152375.1 61692.4 150671.35 59829.15 Q 148967.6 57965.9 148967.6 54819.4 Q 148967.6 51411.9 150714.85 49505.15 Q 152462.1 47598.4 155101.1 47598.4 Q 157334.1 47598.4 158769.6 49070.15 Q 160205.1 50541.9 160205.1 53006.9 L 151026.6 53006.9 Z M 151026.6 52165.9 L 157174.6 52165.9 Q 157102.1 50889.9 156870.1 50367.9 Q 156507.6 49555.9 155789.85 49091.9 Q 155072.1 48627.9 154289.1 48627.9 Q 153085.6 48627.9 152135.85 49563.15 Q 151186.1 50498.4 151026.6 52165.9  Z M 168419 49323.9 L 172508 47670.9 L 173059 47670.9 L 173059 50773.9 Q 174088.5 49019.4 175125.25 48316.15 Q 176162 47612.9 177307.5 47612.9 Q 179308.5 47612.9 180642.5 49178.9 Q 182281 51092.9 182281 54166.9 Q 182281 57603.4 180309 59850.9 Q 178685 61692.4 176220 61692.4 Q 175147 61692.4 174364 61387.9 Q 173784 61170.4 173059 60517.9 L 173059 64563.4 Q 173059 65926.4 173225.75 66296.15 Q 173392.5 66665.9 173805.75 66883.4 Q 174219 67100.9 175306.5 67100.9 L 175306.5 67637.4 L 168346.5 67637.4 L 168346.5 67100.9 L 168709 67100.9 Q 169506.5 67115.4 170072 66796.4 Q 170347.5 66636.9 170499.75 66281.65 Q 170652 65926.4 170652 64476.4 L 170652 51919.4 Q 170652 50628.9 170536 50280.9 Q 170420 49932.9 170166.25 49758.9 Q 169912.5 49584.9 169477.5 49584.9 Q 169129.5 49584.9 168593 49787.9 L 168419 49323.9 Z M 173059 51629.4 L 173059 56588.4 Q 173059 58197.9 173189.5 58705.4 Q 173392.5 59546.4 174182.75 60184.4 Q 174973 60822.4 176176.5 60822.4 Q 177626.5 60822.4 178525.5 59691.4 Q 179700 58212.4 179700 55529.9 Q 179700 52484.9 178366 50846.4 Q 177438 49715.4 176162 49715.4 Q 175466 49715.4 174784.5 50063.4 Q 174262.5 50324.4 173059 51629.4  Z M 188110 47612.9 L 188110 50599.9 Q 189777.5 47612.9 191532 47612.9 Q 192329.5 47612.9 192851.5 48098.65 Q 193373.5 48584.4 193373.5 49222.4 Q 193373.5 49787.9 192996.5 50179.4 Q 192619.5 50570.9 192097.5 50570.9 Q 191590 50570.9 190959.25 50070.65 Q 190328.5 49570.4 190024 49570.4 Q 189763 49570.4 189458.5 49860.4 Q 188806 50454.9 188110 51817.9 L 188110 58183.4 Q 188110 59285.4 188385.5 59850.9 Q 188574 60242.4 189052.5 60503.4 Q 189531 60764.4 190430 60764.4 L 190430 61286.4 L 183629.5 61286.4 L 183629.5 60764.4 Q 184644.5 60764.4 185137.5 60445.4 Q 185500 60213.4 185645 59705.9 Q 185717.5 59459.4 185717.5 58299.4 L 185717.5 53151.9 Q 185717.5 50831.9 185623.25 50389.65 Q 185529 49947.4 185275.25 49744.4 Q 185021.5 49541.4 184644.5 49541.4 Q 184195 49541.4 183629.5 49758.9 L 183484.5 49236.9 L 187501 47612.9 L 188110 47612.9 Z M 196338.6 53006.9 Q 196324.1 55964.9 197774.1 57646.9 Q 199224.1 59328.9 201181.6 59328.9 Q 202486.6 59328.9 203450.85 58611.15 Q 204415.1 57893.4 205067.6 56153.4 L 205517.1 56443.4 Q 205212.6 58429.9 203748.1 60061.15 Q 202283.6 61692.4 200079.6 61692.4 Q 197687.1 61692.4 195983.35 59829.15 Q 194279.6 57965.9 194279.6 54819.4 Q 194279.6 51411.9 196026.85 49505.15 Q 197774.1 47598.4 200413.1 47598.4 Q 202646.1 47598.4 204081.6 49070.15 Q 205517.1 50541.9 205517.1 53006.9 L 196338.6 53006.9 Z M 196338.6 52165.9 L 202486.6 52165.9 Q 202414.1 50889.9 202182.1 50367.9 Q 201819.6 49555.9 201101.85 49091.9 Q 200384.1 48627.9 199601.1 48627.9 Q 198397.6 48627.9 197447.85 49563.15 Q 196498.1 50498.4 196338.6 52165.9  Z M 207539.5 53528.9 L 215036 53528.9 L 215036 55718.4 L 207539.5 55718.4 L 207539.5 53528.9 Z M 216464.1 48004.4 L 222713.6 48004.4 L 222713.6 48540.9 L 222307.6 48540.9 Q 221742.1 48540.9 221444.85 48816.4 Q 221147.6 49091.9 221147.6 49555.9 Q 221147.6 50063.4 221452.1 50759.4 L 224540.6 58096.4 L 227643.6 50483.9 Q 227977.1 49671.9 227977.1 49251.4 Q 227977.1 49048.4 227861.1 48917.9 Q 227701.6 48700.4 227455.1 48620.65 Q 227208.6 48540.9 226454.6 48540.9 L 226454.6 48004.4 L 230790.1 48004.4 L 230790.1 48540.9 Q 230036.1 48598.9 229746.1 48845.4 Q 229238.6 49280.4 228832.6 50295.4 L 224120.1 61692.4 L 223525.6 61692.4 L 218784.1 50483.9 Q 218465.1 49700.9 218175.1 49360.15 Q 217885.1 49019.4 217435.6 48787.4 Q 217189.1 48656.9 216464.1 48540.9 L 216464.1 48004.4 Z M 239519.1 59372.4 Q 237474.6 60952.9 236952.6 61199.4 Q 236169.6 61561.9 235285.1 61561.9 Q 233907.6 61561.9 233015.85 60619.4 Q 232124.1 59676.9 232124.1 58139.9 Q 232124.1 57168.4 232559.1 56457.9 Q 233153.6 55471.9 234625.35 54601.9 Q 236097.1 53731.9 239519.1 52484.9 L 239519.1 51962.9 Q 239519.1 49976.4 238888.35 49236.9 Q 238257.6 48497.4 237054.1 48497.4 Q 236140.6 48497.4 235604.1 48990.4 Q 235053.1 49483.4 235053.1 50121.4 L 235082.1 50962.4 Q 235082.1 51629.4 234741.35 51991.9 Q 234400.6 52354.4 233849.6 52354.4 Q 233313.1 52354.4 232972.35 51977.4 Q 232631.6 51600.4 232631.6 50947.9 Q 232631.6 49700.9 233907.6 48656.9 Q 235183.6 47612.9 237489.1 47612.9 Q 239258.1 47612.9 240389.1 48207.4 Q 241244.6 48656.9 241650.6 49613.9 Q 241911.6 50237.4 241911.6 52165.9 L 241911.6 56675.4 Q 241911.6 58574.9 241984.1 59002.65 Q 242056.6 59430.4 242223.35 59575.4 Q 242390.1 59720.4 242607.6 59720.4 Q 242839.6 59720.4 243013.6 59618.9 Q 243318.1 59430.4 244188.1 58560.4 L 244188.1 59372.4 Q 242564.1 61547.4 241085.1 61547.4 Q 240374.6 61547.4 239954.1 61054.4 Q 239533.6 60561.4 239519.1 59372.4  Z M 239519.1 58429.9 L 239519.1 53369.4 Q 237329.6 54239.4 236691.6 54601.9 Q 235546.1 55239.9 235053.1 55935.9 Q 234560.1 56631.9 234560.1 57458.4 Q 234560.1 58502.4 235183.6 59191.15 Q 235807.1 59879.9 236619.1 59879.9 Q 237721.1 59879.9 239519.1 58429.9  Z M 256433 56240.4 Q 255896.5 58864.9 254330.5 60278.65 Q 252764.5 61692.4 250865 61692.4 Q 248603 61692.4 246921 59792.9 Q 245239 57893.4 245239 54659.9 Q 245239 51527.9 247102.25 49570.4 Q 248965.5 47612.9 251575.5 47612.9 Q 253533 47612.9 254794.5 48649.65 Q 256056 49686.4 256056 50802.9 Q 256056 51353.9 255700.75 51694.65 Q 255345.5 52035.4 254707.5 52035.4 Q 253852 52035.4 253417 51484.4 Q 253170.5 51179.9 253090.75 50324.4 Q 253011 49468.9 252503.5 49019.4 Q 251996 48584.4 251097 48584.4 Q 249647 48584.4 248762.5 49657.4 Q 247588 51078.4 247588 53412.9 Q 247588 55790.9 248755.25 57610.65 Q 249922.5 59430.4 251909 59430.4 Q 253330 59430.4 254461 58458.9 Q 255258.5 57791.9 256012.5 56037.4 L 256433 56240.4 Z M 269591.4 56240.4 Q 269054.9 58864.9 267488.9 60278.65 Q 265922.9 61692.4 264023.4 61692.4 Q 261761.4 61692.4 260079.4 59792.9 Q 258397.4 57893.4 258397.4 54659.9 Q 258397.4 51527.9 260260.65 49570.4 Q 262123.9 47612.9 264733.9 47612.9 Q 266691.4 47612.9 267952.9 48649.65 Q 269214.4 49686.4 269214.4 50802.9 Q 269214.4 51353.9 268859.15 51694.65 Q 268503.9 52035.4 267865.9 52035.4 Q 267010.4 52035.4 266575.4 51484.4 Q 266328.9 51179.9 266249.15 50324.4 Q 266169.4 49468.9 265661.9 49019.4 Q 265154.4 48584.4 264255.4 48584.4 Q 262805.4 48584.4 261920.9 49657.4 Q 260746.4 51078.4 260746.4 53412.9 Q 260746.4 55790.9 261913.65 57610.65 Q 263080.9 59430.4 265067.4 59430.4 Q 266488.4 59430.4 267619.4 58458.9 Q 268416.9 57791.9 269170.9 56037.4 L 269591.4 56240.4 Z M 274847.3 40667.4 Q 275456.3 40667.4 275884.05 41095.15 Q 276311.8 41522.9 276311.8 42131.9 Q 276311.8 42740.9 275884.05 43175.9 Q 275456.3 43610.9 274847.3 43610.9 Q 274238.3 43610.9 273803.3 43175.9 Q 273368.3 42740.9 273368.3 42131.9 Q 273368.3 41522.9 273796.05 41095.15 Q 274223.8 40667.4 274847.3 40667.4  Z M 276050.8 47612.9 L 276050.8 58284.9 Q 276050.8 59531.9 276232.05 59945.15 Q 276413.3 60358.4 276768.55 60561.4 Q 277123.8 60764.4 278066.3 60764.4 L 278066.3 61286.4 L 271613.8 61286.4 L 271613.8 60764.4 Q 272585.3 60764.4 272918.8 60575.9 Q 273252.3 60387.4 273448.05 59952.4 Q 273643.8 59517.4 273643.8 58284.9 L 273643.8 53166.4 Q 273643.8 51005.9 273513.3 50367.9 Q 273411.8 49903.9 273194.3 49722.65 Q 272976.8 49541.4 272599.8 49541.4 Q 272193.8 49541.4 271613.8 49758.9 L 271410.8 49236.9 L 275412.8 47612.9 L 276050.8 47612.9 Z M 283583.5 50425.9 Q 285918 47612.9 288035 47612.9 Q 289122.5 47612.9 289905.5 48156.65 Q 290688.5 48700.4 291152.5 49947.4 Q 291471.5 50817.4 291471.5 52615.4 L 291471.5 58284.9 Q 291471.5 59546.4 291674.5 59995.9 Q 291834 60358.4 292189.25 60561.4 Q 292544.5 60764.4 293501.5 60764.4 L 293501.5 61286.4 L 286933 61286.4 L 286933 60764.4 L 287208.5 60764.4 Q 288136.5 60764.4 288506.25 60481.65 Q 288876 60198.9 289021 59647.9 Q 289079 59430.4 289079 58284.9 L 289079 52847.4 Q 289079 51034.9 288607.75 50215.65 Q 288136.5 49396.4 287020 49396.4 Q 285294.5 49396.4 283583.5 51281.4 L 283583.5 58284.9 Q 283583.5 59633.4 283743 59952.4 Q 283946 60372.9 284301.25 60568.65 Q 284656.5 60764.4 285744 60764.4 L 285744 61286.4 L 279175.5 61286.4 L 279175.5 60764.4 L 279465.5 60764.4 Q 280480.5 60764.4 280835.75 60249.65 Q 281191 59734.9 281191 58284.9 L 281191 53354.9 Q 281191 50962.4 281082.25 50440.4 Q 280973.5 49918.4 280748.75 49729.9 Q 280524 49541.4 280147 49541.4 Q 279741 49541.4 279175.5 49758.9 L 278958 49236.9 L 282960 47612.9 L 283583.5 47612.9 L 283583.5 50425.9 Z M 302085.5 59372.4 Q 300041 60952.9 299519 61199.4 Q 298736 61561.9 297851.5 61561.9 Q 296474 61561.9 295582.25 60619.4 Q 294690.5 59676.9 294690.5 58139.9 Q 294690.5 57168.4 295125.5 56457.9 Q 295720 55471.9 297191.75 54601.9 Q 298663.5 53731.9 302085.5 52484.9 L 302085.5 51962.9 Q 302085.5 49976.4 301454.75 49236.9 Q 300824 48497.4 299620.5 48497.4 Q 298707 48497.4 298170.5 48990.4 Q 297619.5 49483.4 297619.5 50121.4 L 297648.5 50962.4 Q 297648.5 51629.4 297307.75 51991.9 Q 296967 52354.4 296416 52354.4 Q 295879.5 52354.4 295538.75 51977.4 Q 295198 51600.4 295198 50947.9 Q 295198 49700.9 296474 48656.9 Q 297750 47612.9 300055.5 47612.9 Q 301824.5 47612.9 302955.5 48207.4 Q 303811 48656.9 304217 49613.9 Q 304478 50237.4 304478 52165.9 L 304478 56675.4 Q 304478 58574.9 304550.5 59002.65 Q 304623 59430.4 304789.75 59575.4 Q 304956.5 59720.4 305174 59720.4 Q 305406 59720.4 305580 59618.9 Q 305884.5 59430.4 306754.5 58560.4 L 306754.5 59372.4 Q 305130.5 61547.4 303651.5 61547.4 Q 302941 61547.4 302520.5 61054.4 Q 302100 60561.4 302085.5 59372.4  Z M 302085.5 58429.9 L 302085.5 53369.4 Q 299896 54239.4 299258 54601.9 Q 298112.5 55239.9 297619.5 55935.9 Q 297126.5 56631.9 297126.5 57458.4 Q 297126.5 58502.4 297750 59191.15 Q 298373.5 59879.9 299185.5 59879.9 Q 300287.5 59879.9 302085.5 58429.9  Z M 311575.4 43639.9 L 311575.4 48004.4 L 314678.4 48004.4 L 314678.4 49019.4 L 311575.4 49019.4 L 311575.4 57632.4 Q 311575.4 58922.9 311945.15 59372.4 Q 312314.9 59821.9 312894.9 59821.9 Q 313373.4 59821.9 313822.9 59524.65 Q 314272.4 59227.4 314518.9 58647.4 L 315084.4 58647.4 Q 314576.9 60068.4 313648.9 60786.15 Q 312720.9 61503.9 311734.9 61503.9 Q 311067.9 61503.9 310429.9 61134.15 Q 309791.9 60764.4 309487.4 60075.65 Q 309182.9 59386.9 309182.9 57951.4 L 309182.9 49019.4 L 307080.4 49019.4 L 307080.4 48540.9 Q 307877.9 48221.9 308711.65 47460.65 Q 309545.4 46699.4 310197.9 45655.4 Q 310531.4 45104.4 311125.9 43639.9 L 311575.4 43639.9 Z M 319340.1 40667.4 Q 319949.1 40667.4 320376.85 41095.15 Q 320804.6 41522.9 320804.6 42131.9 Q 320804.6 42740.9 320376.85 43175.9 Q 319949.1 43610.9 319340.1 43610.9 Q 318731.1 43610.9 318296.1 43175.9 Q 317861.1 42740.9 317861.1 42131.9 Q 317861.1 41522.9 318288.85 41095.15 Q 318716.6 40667.4 319340.1 40667.4  Z M 320543.6 47612.9 L 320543.6 58284.9 Q 320543.6 59531.9 320724.85 59945.15 Q 320906.1 60358.4 321261.35 60561.4 Q 321616.6 60764.4 322559.1 60764.4 L 322559.1 61286.4 L 316106.6 61286.4 L 316106.6 60764.4 Q 317078.1 60764.4 317411.6 60575.9 Q 317745.1 60387.4 317940.85 59952.4 Q 318136.6 59517.4 318136.6 58284.9 L 318136.6 53166.4 Q 318136.6 51005.9 318006.1 50367.9 Q 317904.6 49903.9 317687.1 49722.65 Q 317469.6 49541.4 317092.6 49541.4 Q 316686.6 49541.4 316106.6 49758.9 L 315903.6 49236.9 L 319905.6 47612.9 L 320543.6 47612.9 Z M 330700.8 47612.9 Q 333716.8 47612.9 335543.8 49903.9 Q 337095.3 51861.4 337095.3 54398.9 Q 337095.3 56182.4 336239.8 58009.4 Q 335384.3 59836.4 333883.55 60764.4 Q 332382.8 61692.4 330541.3 61692.4 Q 327539.8 61692.4 325770.8 59299.9 Q 324277.3 57284.4 324277.3 54775.9 Q 324277.3 52948.9 325183.55 51143.65 Q 326089.8 49338.4 327568.8 48475.65 Q 329047.8 47612.9 330700.8 47612.9  Z M 330251.3 48555.4 Q 329482.8 48555.4 328707.05 49012.15 Q 327931.3 49468.9 327452.8 50614.4 Q 326974.3 51759.9 326974.3 53557.9 Q 326974.3 56457.9 328127.05 58560.4 Q 329279.8 60662.9 331164.8 60662.9 Q 332571.3 60662.9 333484.8 59502.9 Q 334398.3 58342.9 334398.3 55515.4 Q 334398.3 51977.4 332875.8 49947.4 Q 331846.3 48555.4 330251.3 48555.4  Z M 342924.3 50425.9 Q 345258.8 47612.9 347375.8 47612.9 Q 348463.3 47612.9 349246.3 48156.65 Q 350029.3 48700.4 350493.3 49947.4 Q 350812.3 50817.4 350812.3 52615.4 L 350812.3 58284.9 Q 350812.3 59546.4 351015.3 59995.9 Q 351174.8 60358.4 351530.05 60561.4 Q 351885.3 60764.4 352842.3 60764.4 L 352842.3 61286.4 L 346273.8 61286.4 L 346273.8 60764.4 L 346549.3 60764.4 Q 347477.3 60764.4 347847.05 60481.65 Q 348216.8 60198.9 348361.8 59647.9 Q 348419.8 59430.4 348419.8 58284.9 L 348419.8 52847.4 Q 348419.8 51034.9 347948.55 50215.65 Q 347477.3 49396.4 346360.8 49396.4 Q 344635.3 49396.4 342924.3 51281.4 L 342924.3 58284.9 Q 342924.3 59633.4 343083.8 59952.4 Q 343286.8 60372.9 343642.05 60568.65 Q 343997.3 60764.4 345084.8 60764.4 L 345084.8 61286.4 L 338516.3 61286.4 L 338516.3 60764.4 L 338806.3 60764.4 Q 339821.3 60764.4 340176.55 60249.65 Q 340531.8 59734.9 340531.8 58284.9 L 340531.8 53354.9 Q 340531.8 50962.4 340423.05 50440.4 Q 340314.3 49918.4 340089.55 49729.9 Q 339864.8 49541.4 339487.8 49541.4 Q 339081.8 49541.4 338516.3 49758.9 L 338298.8 49236.9 L 342300.8 47612.9 L 342924.3 47612.9 L 342924.3 50425.9 Z M 365181.8 43639.9 L 365181.8 48004.4 L 368284.8 48004.4 L 368284.8 49019.4 L 365181.8 49019.4 L 365181.8 57632.4 Q 365181.8 58922.9 365551.55 59372.4 Q 365921.3 59821.9 366501.3 59821.9 Q 366979.8 59821.9 367429.3 59524.65 Q 367878.8 59227.4 368125.3 58647.4 L 368690.8 58647.4 Q 368183.3 60068.4 367255.3 60786.15 Q 366327.3 61503.9 365341.3 61503.9 Q 364674.3 61503.9 364036.3 61134.15 Q 363398.3 60764.4 363093.8 60075.65 Q 362789.3 59386.9 362789.3 57951.4 L 362789.3 49019.4 L 360686.8 49019.4 L 360686.8 48540.9 Q 361484.3 48221.9 362318.05 47460.65 Q 363151.8 46699.4 363804.3 45655.4 Q 364137.8 45104.4 364732.3 43639.9 L 365181.8 43639.9 Z M 376064 47612.9 Q 379080 47612.9 380907 49903.9 Q 382458.5 51861.4 382458.5 54398.9 Q 382458.5 56182.4 381603 58009.4 Q 380747.5 59836.4 379246.75 60764.4 Q 377746 61692.4 375904.5 61692.4 Q 372903 61692.4 371134 59299.9 Q 369640.5 57284.4 369640.5 54775.9 Q 369640.5 52948.9 370546.75 51143.65 Q 371453 49338.4 372932 48475.65 Q 374411 47612.9 376064 47612.9  Z M 375614.5 48555.4 Q 374846 48555.4 374070.25 49012.15 Q 373294.5 49468.9 372816 50614.4 Q 372337.5 51759.9 372337.5 53557.9 Q 372337.5 56457.9 373490.25 58560.4 Q 374643 60662.9 376528 60662.9 Q 377934.5 60662.9 378848 59502.9 Q 379761.5 58342.9 379761.5 55515.4 Q 379761.5 51977.4 378239 49947.4 Q 377209.5 48555.4 375614.5 48555.4  Z M 395218.5 40667.4 Q 395827.5 40667.4 396255.25 41095.15 Q 396683 41522.9 396683 42131.9 Q 396683 42740.9 396255.25 43175.9 Q 395827.5 43610.9 395218.5 43610.9 Q 394609.5 43610.9 394174.5 43175.9 Q 393739.5 42740.9 393739.5 42131.9 Q 393739.5 41522.9 394167.25 41095.15 Q 394595 40667.4 395218.5 40667.4  Z M 396422 47612.9 L 396422 58284.9 Q 396422 59531.9 396603.25 59945.15 Q 396784.5 60358.4 397139.75 60561.4 Q 397495 60764.4 398437.5 60764.4 L 398437.5 61286.4 L 391985 61286.4 L 391985 60764.4 Q 392956.5 60764.4 393290 60575.9 Q 393623.5 60387.4 393819.25 59952.4 Q 394015 59517.4 394015 58284.9 L 394015 53166.4 Q 394015 51005.9 393884.5 50367.9 Q 393783 49903.9 393565.5 49722.65 Q 393348 49541.4 392971 49541.4 Q 392565 49541.4 391985 49758.9 L 391782 49236.9 L 395784 47612.9 L 396422 47612.9 Z M 404027.2 50440.4 Q 405477.2 48990.4 405738.2 48772.9 Q 406390.7 48221.9 407144.7 47917.4 Q 407898.7 47612.9 408638.2 47612.9 Q 409885.2 47612.9 410784.2 48337.9 Q 411683.2 49062.9 411987.7 50440.4 Q 413481.2 48700.4 414510.7 48156.65 Q 415540.2 47612.9 416627.7 47612.9 Q 417686.2 47612.9 418505.45 48156.65 Q 419324.7 48700.4 419803.2 49932.9 Q 420122.2 50773.9 420122.2 52571.9 L 420122.2 58284.9 Q 420122.2 59531.9 420310.7 59995.9 Q 420455.7 60314.9 420847.2 60539.65 Q 421238.7 60764.4 422123.2 60764.4 L 422123.2 61286.4 L 415569.2 61286.4 L 415569.2 60764.4 L 415844.7 60764.4 Q 416700.2 60764.4 417178.7 60430.9 Q 417512.2 60198.9 417657.2 59691.4 Q 417715.2 59444.9 417715.2 58284.9 L 417715.2 52571.9 Q 417715.2 50947.9 417323.7 50280.9 Q 416758.2 49352.9 415511.2 49352.9 Q 414742.7 49352.9 413966.95 49737.15 Q 413191.2 50121.4 412089.2 51165.4 L 412060.2 51324.9 L 412089.2 51948.4 L 412089.2 58284.9 Q 412089.2 59647.9 412241.45 59981.4 Q 412393.7 60314.9 412814.2 60539.65 Q 413234.7 60764.4 414249.7 60764.4 L 414249.7 61286.4 L 407536.2 61286.4 L 407536.2 60764.4 Q 408638.2 60764.4 409051.45 60503.4 Q 409464.7 60242.4 409624.2 59720.4 Q 409696.7 59473.9 409696.7 58284.9 L 409696.7 52571.9 Q 409696.7 50947.9 409218.2 50237.4 Q 408580.2 49309.4 407434.7 49309.4 Q 406651.7 49309.4 405883.2 49729.9 Q 404679.7 50367.9 404027.2 51165.4 L 404027.2 58284.9 Q 404027.2 59589.9 404208.45 59981.4 Q 404389.7 60372.9 404744.95 60568.65 Q 405100.2 60764.4 406187.7 60764.4 L 406187.7 61286.4 L 399619.2 61286.4 L 399619.2 60764.4 Q 400532.7 60764.4 400895.2 60568.65 Q 401257.7 60372.9 401446.2 59945.15 Q 401634.7 59517.4 401634.7 58284.9 L 401634.7 53209.9 Q 401634.7 51020.4 401504.2 50382.4 Q 401402.7 49903.9 401185.2 49722.65 Q 400967.7 49541.4 400590.7 49541.4 Q 400184.7 49541.4 399619.2 49758.9 L 399401.7 49236.9 L 403403.7 47612.9 L 404027.2 47612.9 L 404027.2 50440.4 Z M 422217.4 49323.9 L 426306.4 47670.9 L 426857.4 47670.9 L 426857.4 50773.9 Q 427886.9 49019.4 428923.65 48316.15 Q 429960.4 47612.9 431105.9 47612.9 Q 433106.9 47612.9 434440.9 49178.9 Q 436079.4 51092.9 436079.4 54166.9 Q 436079.4 57603.4 434107.4 59850.9 Q 432483.4 61692.4 430018.4 61692.4 Q 428945.4 61692.4 428162.4 61387.9 Q 427582.4 61170.4 426857.4 60517.9 L 426857.4 64563.4 Q 426857.4 65926.4 427024.15 66296.15 Q 427190.9 66665.9 427604.15 66883.4 Q 428017.4 67100.9 429104.9 67100.9 L 429104.9 67637.4 L 422144.9 67637.4 L 422144.9 67100.9 L 422507.4 67100.9 Q 423304.9 67115.4 423870.4 66796.4 Q 424145.9 66636.9 424298.15 66281.65 Q 424450.4 65926.4 424450.4 64476.4 L 424450.4 51919.4 Q 424450.4 50628.9 424334.4 50280.9 Q 424218.4 49932.9 423964.65 49758.9 Q 423710.9 49584.9 423275.9 49584.9 Q 422927.9 49584.9 422391.4 49787.9 L 422217.4 49323.9 Z M 426857.4 51629.4 L 426857.4 56588.4 Q 426857.4 58197.9 426987.9 58705.4 Q 427190.9 59546.4 427981.15 60184.4 Q 428771.4 60822.4 429974.9 60822.4 Q 431424.9 60822.4 432323.9 59691.4 Q 433498.4 58212.4 433498.4 55529.9 Q 433498.4 52484.9 432164.4 50846.4 Q 431236.4 49715.4 429960.4 49715.4 Q 429264.4 49715.4 428582.9 50063.4 Q 428060.9 50324.4 426857.4 51629.4  Z M 441908.4 47612.9 L 441908.4 50599.9 Q 443575.9 47612.9 445330.4 47612.9 Q 446127.9 47612.9 446649.9 48098.65 Q 447171.9 48584.4 447171.9 49222.4 Q 447171.9 49787.9 446794.9 50179.4 Q 446417.9 50570.9 445895.9 50570.9 Q 445388.4 50570.9 444757.65 50070.65 Q 444126.9 49570.4 443822.4 49570.4 Q 443561.4 49570.4 443256.9 49860.4 Q 442604.4 50454.9 441908.4 51817.9 L 441908.4 58183.4 Q 441908.4 59285.4 442183.9 59850.9 Q 442372.4 60242.4 442850.9 60503.4 Q 443329.4 60764.4 444228.4 60764.4 L 444228.4 61286.4 L 437427.9 61286.4 L 437427.9 60764.4 Q 438442.9 60764.4 438935.9 60445.4 Q 439298.4 60213.4 439443.4 59705.9 Q 439515.9 59459.4 439515.9 58299.4 L 439515.9 53151.9 Q 439515.9 50831.9 439421.65 50389.65 Q 439327.4 49947.4 439073.65 49744.4 Q 438819.9 49541.4 438442.9 49541.4 Q 437993.4 49541.4 437427.9 49758.9 L 437282.9 49236.9 L 441299.4 47612.9 L 441908.4 47612.9 Z M 454400 47612.9 Q 457416 47612.9 459243 49903.9 Q 460794.5 51861.4 460794.5 54398.9 Q 460794.5 56182.4 459939 58009.4 Q 459083.5 59836.4 457582.75 60764.4 Q 456082 61692.4 454240.5 61692.4 Q 451239 61692.4 449470 59299.9 Q 447976.5 57284.4 447976.5 54775.9 Q 447976.5 52948.9 448882.75 51143.65 Q 449789 49338.4 451268 48475.65 Q 452747 47612.9 454400 47612.9  Z M 453950.5 48555.4 Q 453182 48555.4 452406.25 49012.15 Q 451630.5 49468.9 451152 50614.4 Q 450673.5 51759.9 450673.5 53557.9 Q 450673.5 56457.9 451826.25 58560.4 Q 452979 60662.9 454864 60662.9 Q 456270.5 60662.9 457184 59502.9 Q 458097.5 58342.9 458097.5 55515.4 Q 458097.5 51977.4 456575 49947.4 Q 455545.5 48555.4 453950.5 48555.4  Z M 462070.5 48004.4 L 468320 48004.4 L 468320 48540.9 L 467914 48540.9 Q 467348.5 48540.9 467051.25 48816.4 Q 466754 49091.9 466754 49555.9 Q 466754 50063.4 467058.5 50759.4 L 470147 58096.4 L 473250 50483.9 Q 473583.5 49671.9 473583.5 49251.4 Q 473583.5 49048.4 473467.5 48917.9 Q 473308 48700.4 473061.5 48620.65 Q 472815 48540.9 472061 48540.9 L 472061 48004.4 L 476396.5 48004.4 L 476396.5 48540.9 Q 475642.5 48598.9 475352.5 48845.4 Q 474845 49280.4 474439 50295.4 L 469726.5 61692.4 L 469132 61692.4 L 464390.5 50483.9 Q 464071.5 49700.9 463781.5 49360.15 Q 463491.5 49019.4 463042 48787.4 Q 462795.5 48656.9 462070.5 48540.9 L 462070.5 48004.4 Z M 479833 53006.9 Q 479818.5 55964.9 481268.5 57646.9 Q 482718.5 59328.9 484676 59328.9 Q 485981 59328.9 486945.25 58611.15 Q 487909.5 57893.4 488562 56153.4 L 489011.5 56443.4 Q 488707 58429.9 487242.5 60061.15 Q 485778 61692.4 483574 61692.4 Q 481181.5 61692.4 479477.75 59829.15 Q 477774 57965.9 477774 54819.4 Q 477774 51411.9 479521.25 49505.15 Q 481268.5 47598.4 483907.5 47598.4 Q 486140.5 47598.4 487576 49070.15 Q 489011.5 50541.9 489011.5 53006.9 L 479833 53006.9 Z M 479833 52165.9 L 485981 52165.9 Q 485908.5 50889.9 485676.5 50367.9 Q 485314 49555.9 484596.25 49091.9 Q 483878.5 48627.9 483095.5 48627.9 Q 481892 48627.9 480942.25 49563.15 Q 479992.5 50498.4 479833 52165.9  Z M 504678.4 47612.9 Q 507694.4 47612.9 509521.4 49903.9 Q 511072.9 51861.4 511072.9 54398.9 Q 511072.9 56182.4 510217.4 58009.4 Q 509361.9 59836.4 507861.15 60764.4 Q 506360.4 61692.4 504518.9 61692.4 Q 501517.4 61692.4 499748.4 59299.9 Q 498254.9 57284.4 498254.9 54775.9 Q 498254.9 52948.9 499161.15 51143.65 Q 500067.4 49338.4 501546.4 48475.65 Q 503025.4 47612.9 504678.4 47612.9  Z M 504228.9 48555.4 Q 503460.4 48555.4 502684.65 49012.15 Q 501908.9 49468.9 501430.4 50614.4 Q 500951.9 51759.9 500951.9 53557.9 Q 500951.9 56457.9 502104.65 58560.4 Q 503257.4 60662.9 505142.4 60662.9 Q 506548.9 60662.9 507462.4 59502.9 Q 508375.9 58342.9 508375.9 55515.4 Q 508375.9 51977.4 506853.4 49947.4 Q 505823.9 48555.4 504228.9 48555.4  Z M 512348.9 48004.4 L 518598.4 48004.4 L 518598.4 48540.9 L 518192.4 48540.9 Q 517626.9 48540.9 517329.65 48816.4 Q 517032.4 49091.9 517032.4 49555.9 Q 517032.4 50063.4 517336.9 50759.4 L 520425.4 58096.4 L 523528.4 50483.9 Q 523861.9 49671.9 523861.9 49251.4 Q 523861.9 49048.4 523745.9 48917.9 Q 523586.4 48700.4 523339.9 48620.65 Q 523093.4 48540.9 522339.4 48540.9 L 522339.4 48004.4 L 526674.9 48004.4 L 526674.9 48540.9 Q 525920.9 48598.9 525630.9 48845.4 Q 525123.4 49280.4 524717.4 50295.4 L 520004.9 61692.4 L 519410.4 61692.4 L 514668.9 50483.9 Q 514349.9 49700.9 514059.9 49360.15 Q 513769.9 49019.4 513320.4 48787.4 Q 513073.9 48656.9 512348.9 48540.9 L 512348.9 48004.4 Z M 530111.4 53006.9 Q 530096.9 55964.9 531546.9 57646.9 Q 532996.9 59328.9 534954.4 59328.9 Q 536259.4 59328.9 537223.65 58611.15 Q 538187.9 57893.4 538840.4 56153.4 L 539289.9 56443.4 Q 538985.4 58429.9 537520.9 60061.15 Q 536056.4 61692.4 533852.4 61692.4 Q 531459.9 61692.4 529756.15 59829.15 Q 528052.4 57965.9 528052.4 54819.4 Q 528052.4 51411.9 529799.65 49505.15 Q 531546.9 47598.4 534185.9 47598.4 Q 536418.9 47598.4 537854.4 49070.15 Q 539289.9 50541.9 539289.9 53006.9 L 530111.4 53006.9 Z M 530111.4 52165.9 L 536259.4 52165.9 Q 536186.9 50889.9 535954.9 50367.9 Q 535592.4 49555.9 534874.65 49091.9 Q 534156.9 48627.9 533373.9 48627.9 Q 532170.4 48627.9 531220.65 49563.15 Q 530270.9 50498.4 530111.4 52165.9  Z M 544922.8 47612.9 L 544922.8 50599.9 Q 546590.3 47612.9 548344.8 47612.9 Q 549142.3 47612.9 549664.3 48098.65 Q 550186.3 48584.4 550186.3 49222.4 Q 550186.3 49787.9 549809.3 50179.4 Q 549432.3 50570.9 548910.3 50570.9 Q 548402.8 50570.9 547772.05 50070.65 Q 547141.3 49570.4 546836.8 49570.4 Q 546575.8 49570.4 546271.3 49860.4 Q 545618.8 50454.9 544922.8 51817.9 L 544922.8 58183.4 Q 544922.8 59285.4 545198.3 59850.9 Q 545386.8 60242.4 545865.3 60503.4 Q 546343.8 60764.4 547242.8 60764.4 L 547242.8 61286.4 L 540442.3 61286.4 L 540442.3 60764.4 Q 541457.3 60764.4 541950.3 60445.4 Q 542312.8 60213.4 542457.8 59705.9 Q 542530.3 59459.4 542530.3 58299.4 L 542530.3 53151.9 Q 542530.3 50831.9 542436.05 50389.65 Q 542341.8 49947.4 542088.05 49744.4 Q 541834.3 49541.4 541457.3 49541.4 Q 541007.8 49541.4 540442.3 49758.9 L 540297.3 49236.9 L 544313.8 47612.9 L 544922.8 47612.9 Z M 558443.9 59372.4 Q 556399.4 60952.9 555877.4 61199.4 Q 555094.4 61561.9 554209.9 61561.9 Q 552832.4 61561.9 551940.65 60619.4 Q 551048.9 59676.9 551048.9 58139.9 Q 551048.9 57168.4 551483.9 56457.9 Q 552078.4 55471.9 553550.15 54601.9 Q 555021.9 53731.9 558443.9 52484.9 L 558443.9 51962.9 Q 558443.9 49976.4 557813.15 49236.9 Q 557182.4 48497.4 555978.9 48497.4 Q 555065.4 48497.4 554528.9 48990.4 Q 553977.9 49483.4 553977.9 50121.4 L 554006.9 50962.4 Q 554006.9 51629.4 553666.15 51991.9 Q 553325.4 52354.4 552774.4 52354.4 Q 552237.9 52354.4 551897.15 51977.4 Q 551556.4 51600.4 551556.4 50947.9 Q 551556.4 49700.9 552832.4 48656.9 Q 554108.4 47612.9 556413.9 47612.9 Q 558182.9 47612.9 559313.9 48207.4 Q 560169.4 48656.9 560575.4 49613.9 Q 560836.4 50237.4 560836.4 52165.9 L 560836.4 56675.4 Q 560836.4 58574.9 560908.9 59002.65 Q 560981.4 59430.4 561148.15 59575.4 Q 561314.9 59720.4 561532.4 59720.4 Q 561764.4 59720.4 561938.4 59618.9 Q 562242.9 59430.4 563112.9 58560.4 L 563112.9 59372.4 Q 561488.9 61547.4 560009.9 61547.4 Q 559299.4 61547.4 558878.9 61054.4 Q 558458.4 60561.4 558443.9 59372.4  Z M 558443.9 58429.9 L 558443.9 53369.4 Q 556254.4 54239.4 555616.4 54601.9 Q 554470.9 55239.9 553977.9 55935.9 Q 553484.9 56631.9 553484.9 57458.4 Q 553484.9 58502.4 554108.4 59191.15 Q 554731.9 59879.9 555543.9 59879.9 Q 556645.9 59879.9 558443.9 58429.9  Z M 568644.3 40667.4 L 568644.3 58284.9 Q 568644.3 59531.9 568825.55 59937.9 Q 569006.8 60343.9 569383.8 60554.15 Q 569760.8 60764.4 570790.3 60764.4 L 570790.3 61286.4 L 564279.8 61286.4 L 564279.8 60764.4 Q 565193.3 60764.4 565526.8 60575.9 Q 565860.3 60387.4 566048.8 59952.4 Q 566237.3 59517.4 566237.3 58284.9 L 566237.3 46220.9 Q 566237.3 43973.4 566135.8 43458.65 Q 566034.3 42943.9 565809.55 42755.4 Q 565584.8 42566.9 565236.8 42566.9 Q 564859.8 42566.9 564279.8 42798.9 L 564033.3 42291.4 L 567991.8 40667.4 L 568644.3 40667.4 Z M 576887.5 40667.4 L 576887.5 58284.9 Q 576887.5 59531.9 577068.75 59937.9 Q 577250 60343.9 577627 60554.15 Q 578004 60764.4 579033.5 60764.4 L 579033.5 61286.4 L 572523 61286.4 L 572523 60764.4 Q 573436.5 60764.4 573770 60575.9 Q 574103.5 60387.4 574292 59952.4 Q 574480.5 59517.4 574480.5 58284.9 L 574480.5 46220.9 Q 574480.5 43973.4 574379 43458.65 Q 574277.5 42943.9 574052.75 42755.4 Q 573828 42566.9 573480 42566.9 Q 573103 42566.9 572523 42798.9 L 572276.5 42291.4 L 576235 40667.4 L 576887.5 40667.4 Z M 599268.2 56240.4 Q 598731.7 58864.9 597165.7 60278.65 Q 595599.7 61692.4 593700.2 61692.4 Q 591438.2 61692.4 589756.2 59792.9 Q 588074.2 57893.4 588074.2 54659.9 Q 588074.2 51527.9 589937.45 49570.4 Q 591800.7 47612.9 594410.7 47612.9 Q 596368.2 47612.9 597629.7 48649.65 Q 598891.2 49686.4 598891.2 50802.9 Q 598891.2 51353.9 598535.95 51694.65 Q 598180.7 52035.4 597542.7 52035.4 Q 596687.2 52035.4 596252.2 51484.4 Q 596005.7 51179.9 595925.95 50324.4 Q 595846.2 49468.9 595338.7 49019.4 Q 594831.2 48584.4 593932.2 48584.4 Q 592482.2 48584.4 591597.7 49657.4 Q 590423.2 51078.4 590423.2 53412.9 Q 590423.2 55790.9 591590.45 57610.65 Q 592757.7 59430.4 594744.2 59430.4 Q 596165.2 59430.4 597296.2 58458.9 Q 598093.7 57791.9 598847.7 56037.4 L 599268.2 56240.4 Z M 605031.6 47612.9 L 605031.6 50599.9 Q 606699.1 47612.9 608453.6 47612.9 Q 609251.1 47612.9 609773.1 48098.65 Q 610295.1 48584.4 610295.1 49222.4 Q 610295.1 49787.9 609918.1 50179.4 Q 609541.1 50570.9 609019.1 50570.9 Q 608511.6 50570.9 607880.85 50070.65 Q 607250.1 49570.4 606945.6 49570.4 Q 606684.6 49570.4 606380.1 49860.4 Q 605727.6 50454.9 605031.6 51817.9 L 605031.6 58183.4 Q 605031.6 59285.4 605307.1 59850.9 Q 605495.6 60242.4 605974.1 60503.4 Q 606452.6 60764.4 607351.6 60764.4 L 607351.6 61286.4 L 600551.1 61286.4 L 600551.1 60764.4 Q 601566.1 60764.4 602059.1 60445.4 Q 602421.6 60213.4 602566.6 59705.9 Q 602639.1 59459.4 602639.1 58299.4 L 602639.1 53151.9 Q 602639.1 50831.9 602544.85 50389.65 Q 602450.6 49947.4 602196.85 49744.4 Q 601943.1 49541.4 601566.1 49541.4 Q 601116.6 49541.4 600551.1 49758.9 L 600406.1 49236.9 L 604422.6 47612.9 L 605031.6 47612.9 Z M 617523.2 47612.9 Q 620539.2 47612.9 622366.2 49903.9 Q 623917.7 51861.4 623917.7 54398.9 Q 623917.7 56182.4 623062.2 58009.4 Q 622206.7 59836.4 620705.95 60764.4 Q 619205.2 61692.4 617363.7 61692.4 Q 614362.2 61692.4 612593.2 59299.9 Q 611099.7 57284.4 611099.7 54775.9 Q 611099.7 52948.9 612005.95 51143.65 Q 612912.2 49338.4 614391.2 48475.65 Q 615870.2 47612.9 617523.2 47612.9  Z M 617073.7 48555.4 Q 616305.2 48555.4 615529.45 49012.15 Q 614753.7 49468.9 614275.2 50614.4 Q 613796.7 51759.9 613796.7 53557.9 Q 613796.7 56457.9 614949.45 58560.4 Q 616102.2 60662.9 617987.2 60662.9 Q 619393.7 60662.9 620307.2 59502.9 Q 621220.7 58342.9 621220.7 55515.4 Q 621220.7 51977.4 619698.2 49947.4 Q 618668.7 48555.4 617073.7 48555.4  Z M 624918.2 49323.9 L 629007.2 47670.9 L 629558.2 47670.9 L 629558.2 50773.9 Q 630587.7 49019.4 631624.45 48316.15 Q 632661.2 47612.9 633806.7 47612.9 Q 635807.7 47612.9 637141.7 49178.9 Q 638780.2 51092.9 638780.2 54166.9 Q 638780.2 57603.4 636808.2 59850.9 Q 635184.2 61692.4 632719.2 61692.4 Q 631646.2 61692.4 630863.2 61387.9 Q 630283.2 61170.4 629558.2 60517.9 L 629558.2 64563.4 Q 629558.2 65926.4 629724.95 66296.15 Q 629891.7 66665.9 630304.95 66883.4 Q 630718.2 67100.9 631805.7 67100.9 L 631805.7 67637.4 L 624845.7 67637.4 L 624845.7 67100.9 L 625208.2 67100.9 Q 626005.7 67115.4 626571.2 66796.4 Q 626846.7 66636.9 626998.95 66281.65 Q 627151.2 65926.4 627151.2 64476.4 L 627151.2 51919.4 Q 627151.2 50628.9 627035.2 50280.9 Q 626919.2 49932.9 626665.45 49758.9 Q 626411.7 49584.9 625976.7 49584.9 Q 625628.7 49584.9 625092.2 49787.9 L 624918.2 49323.9 Z M 629558.2 51629.4 L 629558.2 56588.4 Q 629558.2 58197.9 629688.7 58705.4 Q 629891.7 59546.4 630681.95 60184.4 Q 631472.2 60822.4 632675.7 60822.4 Q 634125.7 60822.4 635024.7 59691.4 Q 636199.2 58212.4 636199.2 55529.9 Q 636199.2 52484.9 634865.2 50846.4 Q 633937.2 49715.4 632661.2 49715.4 Q 631965.2 49715.4 631283.7 50063.4 Q 630761.7 50324.4 629558.2 51629.4  Z M 6862 80432.1 L 6862 83419.1 Q 8529.5 80432.1 10284 80432.1 Q 11081.5 80432.1 11603.5 80917.85 Q 12125.5 81403.6 12125.5 82041.6 Q 12125.5 82607.1 11748.5 82998.6 Q 11371.5 83390.1 10849.5 83390.1 Q 10342 83390.1 9711.25 82889.85 Q 9080.5 82389.6 8776 82389.6 Q 8515 82389.6 8210.5 82679.6 Q 7558 83274.1 6862 84637.1 L 6862 91002.6 Q 6862 92104.6 7137.5 92670.1 Q 7326 93061.6 7804.5 93322.6 Q 8283 93583.6 9182 93583.6 L 9182 94105.6 L 2381.5 94105.6 L 2381.5 93583.6 Q 3396.5 93583.6 3889.5 93264.6 Q 4252 93032.6 4397 92525.1 Q 4469.5 92278.6 4469.5 91118.6 L 4469.5 85971.1 Q 4469.5 83651.1 4375.25 83208.85 Q 4281 82766.6 4027.25 82563.6 Q 3773.5 82360.6 3396.5 82360.6 Q 2947 82360.6 2381.5 82578.1 L 2236.5 82056.1 L 6253 80432.1 L 6862 80432.1 Z M 15090.6 85826.1 Q 15076.1 88784.1 16526.1 90466.1 Q 17976.1 92148.1 19933.6 92148.1 Q 21238.6 92148.1 22202.85 91430.35 Q 23167.1 90712.6 23819.6 88972.6 L 24269.1 89262.6 Q 23964.6 91249.1 22500.1 92880.35 Q 21035.6 94511.6 18831.6 94511.6 Q 16439.1 94511.6 14735.35 92648.35 Q 13031.6 90785.1 13031.6 87638.6 Q 13031.6 84231.1 14778.85 82324.35 Q 16526.1 80417.6 19165.1 80417.6 Q 21398.1 80417.6 22833.6 81889.35 Q 24269.1 83361.1 24269.1 85826.1 L 15090.6 85826.1 Z M 15090.6 84985.1 L 21238.6 84985.1 Q 21166.1 83709.1 20934.1 83187.1 Q 20571.6 82375.1 19853.85 81911.1 Q 19136.1 81447.1 18353.1 81447.1 Q 17149.6 81447.1 16199.85 82382.35 Q 15250.1 83317.6 15090.6 84985.1  Z M 34600 80432.1 L 34600 84956.1 L 34121.5 84956.1 Q 33570.5 82824.6 32707.75 82056.1 Q 31845 81287.6 30511 81287.6 Q 29496 81287.6 28872.5 81824.1 Q 28249 82360.6 28249 83013.1 Q 28249 83825.1 28713 84405.1 Q 29162.5 84999.6 30540 85666.6 L 32657 86696.1 Q 35600.5 88131.6 35600.5 90480.6 Q 35600.5 92293.1 34230.25 93402.35 Q 32860 94511.6 31163.5 94511.6 Q 29945.5 94511.6 28379.5 94076.6 Q 27901 93931.6 27596.5 93931.6 Q 27263 93931.6 27074.5 94308.6 L 26596 94308.6 L 26596 89567.1 L 27074.5 89567.1 Q 27480.5 91597.1 28626 92626.6 Q 29771.5 93656.1 31192.5 93656.1 Q 32193 93656.1 32823.75 93068.85 Q 33454.5 92481.6 33454.5 91655.1 Q 33454.5 90654.6 32751.25 89973.1 Q 32048 89291.6 29945.5 88247.6 Q 27843 87203.6 27190.5 86362.6 Q 26538 85536.1 26538 84274.6 Q 26538 82636.1 27661.75 81534.1 Q 28785.5 80432.1 30569 80432.1 Q 31352 80432.1 32468.5 80765.6 Q 33208 80983.1 33454.5 80983.1 Q 33686.5 80983.1 33817 80881.6 Q 33947.5 80780.1 34121.5 80432.1 L 34600 80432.1 Z M 40914.5 73486.6 Q 41523.5 73486.6 41951.25 73914.35 Q 42379 74342.1 42379 74951.1 Q 42379 75560.1 41951.25 75995.1 Q 41523.5 76430.1 40914.5 76430.1 Q 40305.5 76430.1 39870.5 75995.1 Q 39435.5 75560.1 39435.5 74951.1 Q 39435.5 74342.1 39863.25 73914.35 Q 40291 73486.6 40914.5 73486.6  Z M 42118 80432.1 L 42118 91104.1 Q 42118 92351.1 42299.25 92764.35 Q 42480.5 93177.6 42835.75 93380.6 Q 43191 93583.6 44133.5 93583.6 L 44133.5 94105.6 L 37681 94105.6 L 37681 93583.6 Q 38652.5 93583.6 38986 93395.1 Q 39319.5 93206.6 39515.25 92771.6 Q 39711 92336.6 39711 91104.1 L 39711 85985.6 Q 39711 83825.1 39580.5 83187.1 Q 39479 82723.1 39261.5 82541.85 Q 39044 82360.6 38667 82360.6 Q 38261 82360.6 37681 82578.1 L 37478 82056.1 L 41480 80432.1 L 42118 80432.1 Z M 54363.2 80432.1 L 54363.2 84956.1 L 53884.7 84956.1 Q 53333.7 82824.6 52470.95 82056.1 Q 51608.2 81287.6 50274.2 81287.6 Q 49259.2 81287.6 48635.7 81824.1 Q 48012.2 82360.6 48012.2 83013.1 Q 48012.2 83825.1 48476.2 84405.1 Q 48925.7 84999.6 50303.2 85666.6 L 52420.2 86696.1 Q 55363.7 88131.6 55363.7 90480.6 Q 55363.7 92293.1 53993.45 93402.35 Q 52623.2 94511.6 50926.7 94511.6 Q 49708.7 94511.6 48142.7 94076.6 Q 47664.2 93931.6 47359.7 93931.6 Q 47026.2 93931.6 46837.7 94308.6 L 46359.2 94308.6 L 46359.2 89567.1 L 46837.7 89567.1 Q 47243.7 91597.1 48389.2 92626.6 Q 49534.7 93656.1 50955.7 93656.1 Q 51956.2 93656.1 52586.95 93068.85 Q 53217.7 92481.6 53217.7 91655.1 Q 53217.7 90654.6 52514.45 89973.1 Q 51811.2 89291.6 49708.7 88247.6 Q 47606.2 87203.6 46953.7 86362.6 Q 46301.2 85536.1 46301.2 84274.6 Q 46301.2 82636.1 47424.95 81534.1 Q 48548.7 80432.1 50332.2 80432.1 Q 51115.2 80432.1 52231.7 80765.6 Q 52971.2 80983.1 53217.7 80983.1 Q 53449.7 80983.1 53580.2 80881.6 Q 53710.7 80780.1 53884.7 80432.1 L 54363.2 80432.1 Z M 61156.2 76459.1 L 61156.2 80823.6 L 64259.2 80823.6 L 64259.2 81838.6 L 61156.2 81838.6 L 61156.2 90451.6 Q 61156.2 91742.1 61525.95 92191.6 Q 61895.7 92641.1 62475.7 92641.1 Q 62954.2 92641.1 63403.7 92343.85 Q 63853.2 92046.6 64099.7 91466.6 L 64665.2 91466.6 Q 64157.7 92887.6 63229.7 93605.35 Q 62301.7 94323.1 61315.7 94323.1 Q 60648.7 94323.1 60010.7 93953.35 Q 59372.7 93583.6 59068.2 92894.85 Q 58763.7 92206.1 58763.7 90770.6 L 58763.7 81838.6 L 56661.2 81838.6 L 56661.2 81360.1 Q 57458.7 81041.1 58292.45 80279.85 Q 59126.2 79518.6 59778.7 78474.6 Q 60112.2 77923.6 60706.7 76459.1 L 61156.2 76459.1 Z M 73067.9 92191.6 Q 71023.4 93772.1 70501.4 94018.6 Q 69718.4 94381.1 68833.9 94381.1 Q 67456.4 94381.1 66564.65 93438.6 Q 65672.9 92496.1 65672.9 90959.1 Q 65672.9 89987.6 66107.9 89277.1 Q 66702.4 88291.1 68174.15 87421.1 Q 69645.9 86551.1 73067.9 85304.1 L 73067.9 84782.1 Q 73067.9 82795.6 72437.15 82056.1 Q 71806.4 81316.6 70602.9 81316.6 Q 69689.4 81316.6 69152.9 81809.6 Q 68601.9 82302.6 68601.9 82940.6 L 68630.9 83781.6 Q 68630.9 84448.6 68290.15 84811.1 Q 67949.4 85173.6 67398.4 85173.6 Q 66861.9 85173.6 66521.15 84796.6 Q 66180.4 84419.6 66180.4 83767.1 Q 66180.4 82520.1 67456.4 81476.1 Q 68732.4 80432.1 71037.9 80432.1 Q 72806.9 80432.1 73937.9 81026.6 Q 74793.4 81476.1 75199.4 82433.1 Q 75460.4 83056.6 75460.4 84985.1 L 75460.4 89494.6 Q 75460.4 91394.1 75532.9 91821.85 Q 75605.4 92249.6 75772.15 92394.6 Q 75938.9 92539.6 76156.4 92539.6 Q 76388.4 92539.6 76562.4 92438.1 Q 76866.9 92249.6 77736.9 91379.6 L 77736.9 92191.6 Q 76112.9 94366.6 74633.9 94366.6 Q 73923.4 94366.6 73502.9 93873.6 Q 73082.4 93380.6 73067.9 92191.6  Z M 73067.9 91249.1 L 73067.9 86188.6 Q 70878.4 87058.6 70240.4 87421.1 Q 69094.9 88059.1 68601.9 88755.1 Q 68108.9 89451.1 68108.9 90277.6 Q 68108.9 91321.6 68732.4 92010.35 Q 69355.9 92699.1 70167.9 92699.1 Q 71269.9 92699.1 73067.9 91249.1  Z M 82572.3 83245.1 Q 84906.8 80432.1 87023.8 80432.1 Q 88111.3 80432.1 88894.3 80975.85 Q 89677.3 81519.6 90141.3 82766.6 Q 90460.3 83636.6 90460.3 85434.6 L 90460.3 91104.1 Q 90460.3 92365.6 90663.3 92815.1 Q 90822.8 93177.6 91178.05 93380.6 Q 91533.3 93583.6 92490.3 93583.6 L 92490.3 94105.6 L 85921.8 94105.6 L 85921.8 93583.6 L 86197.3 93583.6 Q 87125.3 93583.6 87495.05 93300.85 Q 87864.8 93018.1 88009.8 92467.1 Q 88067.8 92249.6 88067.8 91104.1 L 88067.8 85666.6 Q 88067.8 83854.1 87596.55 83034.85 Q 87125.3 82215.6 86008.8 82215.6 Q 84283.3 82215.6 82572.3 84100.6 L 82572.3 91104.1 Q 82572.3 92452.6 82731.8 92771.6 Q 82934.8 93192.1 83290.05 93387.85 Q 83645.3 93583.6 84732.8 93583.6 L 84732.8 94105.6 L 78164.3 94105.6 L 78164.3 93583.6 L 78454.3 93583.6 Q 79469.3 93583.6 79824.55 93068.85 Q 80179.8 92554.1 80179.8 91104.1 L 80179.8 86174.1 Q 80179.8 83781.6 80071.05 83259.6 Q 79962.3 82737.6 79737.55 82549.1 Q 79512.8 82360.6 79135.8 82360.6 Q 78729.8 82360.6 78164.3 82578.1 L 77946.8 82056.1 L 81948.8 80432.1 L 82572.3 80432.1 L 82572.3 83245.1 Z M 104829.8 89059.6 Q 104293.3 91684.1 102727.3 93097.85 Q 101161.3 94511.6 99261.8 94511.6 Q 96999.8 94511.6 95317.8 92612.1 Q 93635.8 90712.6 93635.8 87479.1 Q 93635.8 84347.1 95499.05 82389.6 Q 97362.3 80432.1 99972.3 80432.1 Q 101929.8 80432.1 103191.3 81468.85 Q 104452.8 82505.6 104452.8 83622.1 Q 104452.8 84173.1 104097.55 84513.85 Q 103742.3 84854.6 103104.3 84854.6 Q 102248.8 84854.6 101813.8 84303.6 Q 101567.3 83999.1 101487.55 83143.6 Q 101407.8 82288.1 100900.3 81838.6 Q 100392.8 81403.6 99493.8 81403.6 Q 98043.8 81403.6 97159.3 82476.6 Q 95984.8 83897.6 95984.8 86232.1 Q 95984.8 88610.1 97152.05 90429.85 Q 98319.3 92249.6 100305.8 92249.6 Q 101726.8 92249.6 102857.8 91278.1 Q 103655.3 90611.1 104409.3 88856.6 L 104829.8 89059.6 Z M 108940.2 85826.1 Q 108925.7 88784.1 110375.7 90466.1 Q 111825.7 92148.1 113783.2 92148.1 Q 115088.2 92148.1 116052.45 91430.35 Q 117016.7 90712.6 117669.2 88972.6 L 118118.7 89262.6 Q 117814.2 91249.1 116349.7 92880.35 Q 114885.2 94511.6 112681.2 94511.6 Q 110288.7 94511.6 108584.95 92648.35 Q 106881.2 90785.1 106881.2 87638.6 Q 106881.2 84231.1 108628.45 82324.35 Q 110375.7 80417.6 113014.7 80417.6 Q 115247.7 80417.6 116683.2 81889.35 Q 118118.7 83361.1 118118.7 85826.1 L 108940.2 85826.1 Z M 108940.2 84985.1 L 115088.2 84985.1 Q 115015.7 83709.1 114783.7 83187.1 Q 114421.2 82375.1 113703.45 81911.1 Q 112985.7 81447.1 112202.7 81447.1 Q 110999.2 81447.1 110049.45 82382.35 Q 109099.7 83317.6 108940.2 84985.1  Z " fill-rule="nonzero" style="fill:#4f6128;;fill-opacity:1;"/>
</svg>